<svg xmlns="http://www.w3.org/2000/svg" width="800" height="600" viewBox="0 0 800 600">
        <defs>
            <linearGradient id="sky" x1="0%" y1="0%" x2="0%" y2="100%">
                <stop offset="0%" style="stop-color:#e0f7fa;stop-opacity:1" />
                <stop offset="100%" style="stop-color:#ffffff;stop-opacity:1" />
            </linearGradient>
            <filter id="glow" x="-20%" y="-20%" width="140%" height="140%">
                <feGaussianBlur stdDeviation="2" result="coloredBlur"/>
                <feMerge>
                    <feMergeNode in="coloredBlur"/>
                    <feMergeNode in="SourceGraphic"/>
                </feMerge>
            </filter>
        </defs>
        <rect width="100%" height="100%" fill="url(#sky)"/><path d="M0,550 Q400,530 800,550 L800,600 L0,600 Z" stroke="#4e342e" stroke-width="0" fill="#5d4037" stroke-linecap="round" stroke-opacity="1.0" />
<path d="M0,550 Q400,530 800,550" stroke="none" stroke-width="0" fill="#76ff03" stroke-linecap="round" stroke-opacity="0.1" />
<path d="M400,550 Q406.5,470.0 413,390" stroke="#4e342e" stroke-width="35" fill="none" stroke-linecap="round" stroke-opacity="1.0" />
<path d="M413,430 Q498.5,410 487.9614661009322,276.3062180828424" stroke="#5d4037" stroke-width="8" fill="none" stroke-linecap="round" stroke-opacity="1.0" />
<circle cx="508.89052103732115" cy="263.4558119001704" r="16" fill="#66bb6a" fill-opacity="0.7" />
<circle cx="517.0427616996285" cy="277.8090895692633" r="13" fill="#66bb6a" fill-opacity="0.7" />
<circle cx="487.9415954795826" cy="242.51126415375342" r="9" fill="#2e7d32" fill-opacity="0.7" />
<circle cx="465.2910905499138" cy="261.5249166103799" r="8" fill="#a5d6a7" fill-opacity="0.7" />
<circle cx="517.7917442423529" cy="290.6742330586975" r="10" fill="#2e7d32" fill-opacity="0.7" />
<circle cx="502.24232701703767" cy="263.56390710171155" r="12" fill="#66bb6a" fill-opacity="0.7" />
<circle cx="513.1260422468564" cy="296.53155861974363" r="13" fill="#66bb6a" fill-opacity="0.7" />
<circle cx="505.7862208186523" cy="272.7653974867827" r="14" fill="#66bb6a" fill-opacity="0.7" />
<circle cx="476.3808718378287" cy="292.918416354784" r="16" fill="#66bb6a" fill-opacity="0.7" />
<circle cx="500.260837454785" cy="280.07622504967827" r="14" fill="#66bb6a" fill-opacity="0.7" />
<circle cx="488.676591141756" cy="301.1321237615641" r="14" fill="#2e7d32" fill-opacity="0.7" />
<circle cx="458.2054556150041" cy="281.3667125511044" r="15" fill="#a5d6a7" fill-opacity="0.7" />
<circle cx="515.4607988610052" cy="264.23865133963216" r="16" fill="#66bb6a" fill-opacity="0.7" />
<circle cx="505.2759127091772" cy="259.2566944977981" r="15" fill="#43a047" fill-opacity="0.7" />
<path d="M413,415 Q349.5,395 321.6438453569913,326.7783869517074" stroke="#5d4037" stroke-width="8" fill="none" stroke-linecap="round" stroke-opacity="1.0" />
<circle cx="305.38865815360674" cy="342.2664839273357" r="16" fill="#a5d6a7" fill-opacity="0.7" />
<circle cx="308.9331320653816" cy="307.1943112361661" r="11" fill="#43a047" fill-opacity="0.7" />
<circle cx="291.158186442463" cy="304.59272447023375" r="14" fill="#2e7d32" fill-opacity="0.7" />
<circle cx="350.2279053652085" cy="329.646039296401" r="15" fill="#2e7d32" fill-opacity="0.7" />
<circle cx="312.14566672558476" cy="312.50855493098385" r="9" fill="#43a047" fill-opacity="0.7" />
<circle cx="322.2710344430841" cy="334.35349364048614" r="13" fill="#43a047" fill-opacity="0.7" />
<circle cx="300.5009577252071" cy="332.3181296178577" r="15" fill="#66bb6a" fill-opacity="0.7" />
<circle cx="297.9757300323724" cy="312.22935370135093" r="8" fill="#43a047" fill-opacity="0.7" />
<circle cx="334.07633645632507" cy="320.934682019311" r="14" fill="#2e7d32" fill-opacity="0.7" />
<circle cx="326.86393400831605" cy="293.77574935352874" r="15" fill="#66bb6a" fill-opacity="0.7" />
<path d="M413,400 Q470.0,380 486.27778750426546,312.6709334844365" stroke="#5d4037" stroke-width="8" fill="none" stroke-linecap="round" stroke-opacity="1.0" />
<circle cx="482.9678203171563" cy="340.8016038096037" r="8" fill="#a5d6a7" fill-opacity="0.7" />
<circle cx="490.67109582253426" cy="327.4645385541311" r="10" fill="#2e7d32" fill-opacity="0.7" />
<circle cx="508.4751824457839" cy="292.59455955419185" r="15" fill="#66bb6a" fill-opacity="0.7" />
<circle cx="456.60303970348735" cy="310.69585999506575" r="11" fill="#43a047" fill-opacity="0.7" />
<circle cx="489.6122380050832" cy="314.7858617740312" r="15" fill="#43a047" fill-opacity="0.7" />
<circle cx="453.54871885759127" cy="292.90911573772195" r="13" fill="#66bb6a" fill-opacity="0.7" />
<circle cx="465.323498183111" cy="313.94975963546915" r="15" fill="#43a047" fill-opacity="0.7" />
<circle cx="475.1808818759752" cy="312.7512388987991" r="13" fill="#43a047" fill-opacity="0.7" />
<circle cx="453.9230992661287" cy="313.69777979702934" r="13" fill="#43a047" fill-opacity="0.7" />
<circle cx="487.51494203912443" cy="317.0060327182527" r="10" fill="#a5d6a7" fill-opacity="0.7" />
<path d="M413,385 Q356.5,365 325.1825063553623,313.88679581136836" stroke="#5d4037" stroke-width="8" fill="none" stroke-linecap="round" stroke-opacity="1.0" />
<circle cx="360.0386192325511" cy="321.2865557126534" r="11" fill="#a5d6a7" fill-opacity="0.7" />
<circle cx="326.8288004302923" cy="346.23143255952743" r="14" fill="#43a047" fill-opacity="0.7" />
<circle cx="309.9513001626497" cy="336.41232169047623" r="11" fill="#66bb6a" fill-opacity="0.7" />
<circle cx="304.9117432302737" cy="305.0633341606966" r="11" fill="#66bb6a" fill-opacity="0.7" />
<circle cx="312.075991565705" cy="308.9794293832411" r="14" fill="#66bb6a" fill-opacity="0.7" />
<circle cx="315.27958047427376" cy="298.0948175380178" r="8" fill="#a5d6a7" fill-opacity="0.7" />
<circle cx="298.1543632835601" cy="309.87336496484255" r="9" fill="#2e7d32" fill-opacity="0.7" />
<circle cx="334.41053028991604" cy="281.9197842447095" r="14" fill="#2e7d32" fill-opacity="0.7" />
<circle cx="300.4805961695246" cy="292.9273570837872" r="13" fill="#2e7d32" fill-opacity="0.7" />
<circle cx="351.3979827771648" cy="299.44276644764454" r="13" fill="#66bb6a" fill-opacity="0.7" />
<path d="M413,370 Q469.5,350 495.64296828296625,292.93418531293764" stroke="#5d4037" stroke-width="8" fill="none" stroke-linecap="round" stroke-opacity="1.0" />
<circle cx="490.36665312211306" cy="263.8618163939213" r="10" fill="#2e7d32" fill-opacity="0.7" />
<circle cx="472.20524130736317" cy="321.9786050686828" r="16" fill="#43a047" fill-opacity="0.7" />
<circle cx="513.7938318810003" cy="304.3270801330794" r="11" fill="#43a047" fill-opacity="0.7" />
<circle cx="473.4432193319009" cy="294.3335258263482" r="14" fill="#66bb6a" fill-opacity="0.7" />
<circle cx="475.10014988025307" cy="281.9390085412175" r="10" fill="#66bb6a" fill-opacity="0.7" />
<circle cx="529.6669931400502" cy="278.87199143524816" r="9" fill="#2e7d32" fill-opacity="0.7" />
<circle cx="514.2471400688537" cy="262.75685961650754" r="10" fill="#2e7d32" fill-opacity="0.7" />
<circle cx="520.2743432028619" cy="307.1887263362921" r="14" fill="#2e7d32" fill-opacity="0.7" />
<circle cx="490.11244453673555" cy="275.90196259921714" r="15" fill="#a5d6a7" fill-opacity="0.7" />
<circle cx="462.18790924637483" cy="307.2378397411993" r="9" fill="#43a047" fill-opacity="0.7" />
<path d="M413,355 Q357.0,335 335.1982625085923,274.4339423620711" stroke="#5d4037" stroke-width="8" fill="none" stroke-linecap="round" stroke-opacity="1.0" />
<circle cx="332.70507364410184" cy="296.6549292233993" r="12" fill="#66bb6a" fill-opacity="0.7" />
<circle cx="365.9602375942752" cy="249.11360894070364" r="16" fill="#43a047" fill-opacity="0.7" />
<circle cx="363.91673040126324" cy="271.0044742073728" r="13" fill="#43a047" fill-opacity="0.7" />
<circle cx="344.06098860458076" cy="241.0264160307324" r="10" fill="#66bb6a" fill-opacity="0.7" />
<circle cx="309.6161583601395" cy="275.12685741647965" r="12" fill="#66bb6a" fill-opacity="0.7" />
<circle cx="332.00476588385027" cy="306.2059996030498" r="12" fill="#66bb6a" fill-opacity="0.7" />
<circle cx="333.9895205334623" cy="275.5589061094675" r="12" fill="#43a047" fill-opacity="0.7" />
<circle cx="303.89499647156015" cy="255.95467733064658" r="16" fill="#43a047" fill-opacity="0.7" />
<circle cx="300.6135130635853" cy="262.79965587100486" r="15" fill="#66bb6a" fill-opacity="0.7" />
<circle cx="318.43018495047215" cy="252.90955344509607" r="13" fill="#a5d6a7" fill-opacity="0.7" />
<text x="400" y="580" font-family="Segoe UI, Helvetica, Arial, sans-serif" font-size="20" fill="#3e2723" text-anchor="middle" font-weight="bold">@prithwiraj84's Contribution Garden</text>
<text x="400" y="595" font-family="Segoe UI, Helvetica, Arial, sans-serif" font-size="14" fill="#5d4037" text-anchor="middle" font-weight="bold">Grown over 5 years</text></svg>