<svg xmlns="http://www.w3.org/2000/svg" width="800" height="600" viewBox="0 0 800 600">
        <defs>
            <linearGradient id="sky" x1="0%" y1="0%" x2="0%" y2="100%">
                <stop offset="0%" style="stop-color:#e0f7fa;stop-opacity:1" />
                <stop offset="100%" style="stop-color:#ffffff;stop-opacity:1" />
            </linearGradient>
            <filter id="glow" x="-20%" y="-20%" width="140%" height="140%">
                <feGaussianBlur stdDeviation="2" result="coloredBlur"/>
                <feMerge>
                    <feMergeNode in="coloredBlur"/>
                    <feMergeNode in="SourceGraphic"/>
                </feMerge>
            </filter>
        </defs>
        <rect width="100%" height="100%" fill="url(#sky)"/><path d="M0,550 Q400,530 800,550 L800,600 L0,600 Z" stroke="#4e342e" stroke-width="0" fill="#5d4037" stroke-linecap="round" stroke-opacity="1.0" />
<path d="M0,550 Q400,530 800,550" stroke="none" stroke-width="0" fill="#76ff03" stroke-linecap="round" stroke-opacity="0.1" />
<path d="M400,550 Q411.0,470.0 422,390" stroke="#4e342e" stroke-width="35" fill="none" stroke-linecap="round" stroke-opacity="1.0" />
<path d="M422,430 Q498.3736263736264,410 535.5133304850086,327.792138149581" stroke="#5d4037" stroke-width="8" fill="none" stroke-linecap="round" stroke-opacity="1.0" />
<circle cx="544.016953797879" cy="302.02041674076895" r="14" fill="#43a047" fill-opacity="0.7" />
<circle cx="514.6126664272919" cy="357.6456136612022" r="10" fill="#a5d6a7" fill-opacity="0.7" />
<circle cx="556.9004395995464" cy="339.25127230678527" r="9" fill="#43a047" fill-opacity="0.7" />
<circle cx="500.68864525769027" cy="355.5018188888728" r="10" fill="#2e7d32" fill-opacity="0.7" />
<circle cx="564.6372003706358" cy="323.674527013393" r="15" fill="#43a047" fill-opacity="0.7" />
<circle cx="550.2521010264212" cy="312.0535066063505" r="15" fill="#66bb6a" fill-opacity="0.7" />
<circle cx="558.9645277959904" cy="297.9843871118619" r="10" fill="#a5d6a7" fill-opacity="0.7" />
<circle cx="524.9144173883328" cy="322.09170108551274" r="11" fill="#66bb6a" fill-opacity="0.7" />
<circle cx="515.6530518444345" cy="294.8200741431749" r="15" fill="#66bb6a" fill-opacity="0.7" />
<circle cx="537.5794989226804" cy="326.9187575126192" r="15" fill="#43a047" fill-opacity="0.7" />
<path d="M422,415 Q353.86813186813185,395 349.7912211374534,299.4417978863771" stroke="#5d4037" stroke-width="8" fill="none" stroke-linecap="round" stroke-opacity="1.0" />
<circle cx="345.8094253733451" cy="283.3827325585541" r="14" fill="#43a047" fill-opacity="0.7" />
<circle cx="374.4633247654407" cy="281.2192646160672" r="12" fill="#66bb6a" fill-opacity="0.7" />
<circle cx="344.06140462390283" cy="279.6828927201413" r="13" fill="#2e7d32" fill-opacity="0.7" />
<circle cx="361.4703082939984" cy="285.72437674204696" r="13" fill="#a5d6a7" fill-opacity="0.7" />
<circle cx="350.9378349212162" cy="313.24149643353235" r="15" fill="#a5d6a7" fill-opacity="0.7" />
<circle cx="370.85635421634277" cy="292.7574161898972" r="16" fill="#43a047" fill-opacity="0.7" />
<circle cx="320.5461290757735" cy="290.25389873760554" r="11" fill="#43a047" fill-opacity="0.7" />
<circle cx="381.5880419170612" cy="272.21803155099633" r="16" fill="#66bb6a" fill-opacity="0.7" />
<circle cx="379.7270637381964" cy="265.8533219994432" r="10" fill="#a5d6a7" fill-opacity="0.7" />
<circle cx="377.72874246004227" cy="310.70003558352215" r="15" fill="#43a047" fill-opacity="0.7" />
<path d="M422,400 Q482.7142857142857,380 488.13473996611043,298.1614310351985" stroke="#5d4037" stroke-width="8" fill="none" stroke-linecap="round" stroke-opacity="1.0" />
<circle cx="497.2365494742674" cy="301.55588920722676" r="14" fill="#a5d6a7" fill-opacity="0.7" />
<circle cx="468.2957353067756" cy="304.19813520688143" r="10" fill="#a5d6a7" fill-opacity="0.7" />
<circle cx="492.8824586612834" cy="267.88929000650245" r="8" fill="#2e7d32" fill-opacity="0.7" />
<circle cx="519.72701614828" cy="280.23822680091376" r="8" fill="#2e7d32" fill-opacity="0.7" />
<circle cx="474.4256072825327" cy="314.5200288533876" r="11" fill="#43a047" fill-opacity="0.7" />
<circle cx="499.5238921413838" cy="294.0870014500707" r="9" fill="#66bb6a" fill-opacity="0.7" />
<circle cx="518.2211702637878" cy="325.9728470277434" r="14" fill="#2e7d32" fill-opacity="0.7" />
<circle cx="517.3363622256194" cy="290.3512121367587" r="14" fill="#2e7d32" fill-opacity="0.7" />
<circle cx="494.8336539988363" cy="285.22124207655287" r="8" fill="#2e7d32" fill-opacity="0.7" />
<circle cx="482.3516496424337" cy="329.46483744568536" r="13" fill="#66bb6a" fill-opacity="0.7" />
<path d="M422,385 Q362.1098901098901,365 346.61986524787665,291.9132859353738" stroke="#5d4037" stroke-width="8" fill="none" stroke-linecap="round" stroke-opacity="1.0" />
<circle cx="381.3570513400727" cy="312.8298327977912" r="13" fill="#a5d6a7" fill-opacity="0.7" />
<circle cx="341.96490741847583" cy="303.52570694652144" r="13" fill="#66bb6a" fill-opacity="0.7" />
<circle cx="330.3507788114237" cy="313.5657009850416" r="13" fill="#66bb6a" fill-opacity="0.7" />
<circle cx="311.9017676795252" cy="257.46737263456464" r="8" fill="#a5d6a7" fill-opacity="0.7" />
<circle cx="321.37927319064596" cy="305.76751102530994" r="14" fill="#43a047" fill-opacity="0.7" />
<circle cx="363.85653973514974" cy="303.11859572553254" r="9" fill="#43a047" fill-opacity="0.7" />
<circle cx="361.51493324533834" cy="285.78243164774386" r="10" fill="#a5d6a7" fill-opacity="0.7" />
<circle cx="334.35844963791516" cy="326.39671142023064" r="14" fill="#a5d6a7" fill-opacity="0.7" />
<circle cx="360.4315387758058" cy="311.1778023922574" r="16" fill="#66bb6a" fill-opacity="0.7" />
<circle cx="368.44691938987023" cy="291.3272285759255" r="16" fill="#2e7d32" fill-opacity="0.7" />
<path d="M422,370 Q478.5934065934066,350 517.98786143309,310.02012723514275" stroke="#5d4037" stroke-width="8" fill="none" stroke-linecap="round" stroke-opacity="1.0" />
<circle cx="508.0216686291345" cy="304.73689515903203" r="13" fill="#43a047" fill-opacity="0.7" />
<circle cx="519.6517501366858" cy="303.9041407446738" r="15" fill="#43a047" fill-opacity="0.7" />
<circle cx="539.833689378777" cy="288.4661118542331" r="14" fill="#43a047" fill-opacity="0.7" />
<circle cx="494.997551361005" cy="297.0553616307148" r="14" fill="#66bb6a" fill-opacity="0.7" />
<circle cx="529.9236044133881" cy="344.0748458893205" r="13" fill="#2e7d32" fill-opacity="0.7" />
<circle cx="514.5990283380715" cy="337.4807693486235" r="16" fill="#43a047" fill-opacity="0.7" />
<circle cx="514.8851605330145" cy="321.4477123386774" r="15" fill="#66bb6a" fill-opacity="0.7" />
<circle cx="547.5061529332982" cy="316.4357977052905" r="14" fill="#66bb6a" fill-opacity="0.7" />
<circle cx="518.7313631523983" cy="316.0275486366278" r="11" fill="#2e7d32" fill-opacity="0.7" />
<circle cx="510.70647476803396" cy="282.1792235029127" r="8" fill="#43a047" fill-opacity="0.7" />
<path d="M422,355 Q368.7032967032967,335 360.86053370763574,267.6837930812833" stroke="#5d4037" stroke-width="8" fill="none" stroke-linecap="round" stroke-opacity="1.0" />
<circle cx="361.8932761804425" cy="246.31694705732912" r="12" fill="#2e7d32" fill-opacity="0.7" />
<circle cx="339.14249324344047" cy="286.40028907714225" r="16" fill="#a5d6a7" fill-opacity="0.7" />
<circle cx="373.5201778180743" cy="295.66825170726656" r="15" fill="#43a047" fill-opacity="0.7" />
<circle cx="332.8247066427578" cy="273.4099966017499" r="14" fill="#2e7d32" fill-opacity="0.7" />
<circle cx="341.11390667408585" cy="278.1752073991787" r="10" fill="#2e7d32" fill-opacity="0.7" />
<circle cx="352.7186529783229" cy="249.3778267773121" r="9" fill="#2e7d32" fill-opacity="0.7" />
<circle cx="357.83537153027675" cy="238.07127012227363" r="13" fill="#a5d6a7" fill-opacity="0.7" />
<circle cx="380.41910901295097" cy="262.6589091310889" r="14" fill="#66bb6a" fill-opacity="0.7" />
<circle cx="389.83381761548526" cy="249.7948415227599" r="8" fill="#2e7d32" fill-opacity="0.7" />
<circle cx="352.44502920052713" cy="287.50348447665255" r="8" fill="#2e7d32" fill-opacity="0.7" />
<text x="400" y="580" font-family="Segoe UI, Helvetica, Arial, sans-serif" font-size="20" fill="#3e2723" text-anchor="middle" font-weight="bold">@prithwiraj84's Contribution Garden</text>
<text x="400" y="595" font-family="Segoe UI, Helvetica, Arial, sans-serif" font-size="14" fill="#5d4037" text-anchor="middle" font-weight="bold">Grown over 5 years</text></svg>