<svg xmlns="http://www.w3.org/2000/svg" width="800" height="600" viewBox="0 0 800 600">
        <defs>
            <linearGradient id="sky" x1="0%" y1="0%" x2="0%" y2="100%">
                <stop offset="0%" style="stop-color:#e0f7fa;stop-opacity:1" />
                <stop offset="100%" style="stop-color:#ffffff;stop-opacity:1" />
            </linearGradient>
            <filter id="glow" x="-20%" y="-20%" width="140%" height="140%">
                <feGaussianBlur stdDeviation="2" result="coloredBlur"/>
                <feMerge>
                    <feMergeNode in="coloredBlur"/>
                    <feMergeNode in="SourceGraphic"/>
                </feMerge>
            </filter>
        </defs>
        <rect width="100%" height="100%" fill="url(#sky)"/><path d="M0,550 Q400,530 800,550 L800,600 L0,600 Z" stroke="#4e342e" stroke-width="0" fill="#5d4037" stroke-linecap="round" stroke-opacity="1.0" />
<path d="M0,550 Q400,530 800,550" stroke="none" stroke-width="0" fill="#76ff03" stroke-linecap="round" stroke-opacity="0.1" />
<path d="M400,550 Q393.5,470.0 387,390" stroke="#4e342e" stroke-width="35" fill="none" stroke-linecap="round" stroke-opacity="1.0" />
<path d="M387,430 Q459.5903614457831,410 512.7301941638854,357.4096385542169" stroke="#5d4037" stroke-width="8" fill="none" stroke-linecap="round" stroke-opacity="1.0" />
<circle cx="479.9990613439751" cy="366.2249189670979" r="10" fill="#43a047" fill-opacity="0.7" />
<circle cx="544.6756692999209" cy="339.9116452375176" r="10" fill="#a5d6a7" fill-opacity="0.7" />
<circle cx="489.92490388420094" cy="382.5575038002201" r="9" fill="#66bb6a" fill-opacity="0.7" />
<circle cx="521.5106379776801" cy="376.5381848471458" r="14" fill="#a5d6a7" fill-opacity="0.7" />
<circle cx="487.8156316398882" cy="342.1568181532279" r="9" fill="#66bb6a" fill-opacity="0.7" />
<circle cx="520.0570071148209" cy="343.54729783187616" r="8" fill="#66bb6a" fill-opacity="0.7" />
<circle cx="541.1680637457691" cy="369.205472051504" r="8" fill="#43a047" fill-opacity="0.7" />
<circle cx="534.2737562676722" cy="348.7619484908423" r="10" fill="#a5d6a7" fill-opacity="0.7" />
<circle cx="522.795464685085" cy="358.89201516167503" r="14" fill="#66bb6a" fill-opacity="0.7" />
<circle cx="526.1393868815428" cy="333.2451352421401" r="11" fill="#66bb6a" fill-opacity="0.7" />
<path d="M387,415 Q317.12048192771084,395 275.38347088495664,330.8909124269427" stroke="#5d4037" stroke-width="8" fill="none" stroke-linecap="round" stroke-opacity="1.0" />
<circle cx="257.61732983340124" cy="302.5613169127866" r="14" fill="#2e7d32" fill-opacity="0.7" />
<circle cx="280.8103482371718" cy="362.3128537681016" r="14" fill="#2e7d32" fill-opacity="0.7" />
<circle cx="278.21551449894287" cy="317.8525487077214" r="15" fill="#a5d6a7" fill-opacity="0.7" />
<circle cx="274.91604216934945" cy="341.3609024313566" r="11" fill="#43a047" fill-opacity="0.7" />
<circle cx="242.72229425454833" cy="305.6064154335401" r="16" fill="#43a047" fill-opacity="0.7" />
<circle cx="243.3479470617567" cy="354.72714988679843" r="15" fill="#43a047" fill-opacity="0.7" />
<circle cx="259.30098948946943" cy="320.29478775632003" r="16" fill="#a5d6a7" fill-opacity="0.7" />
<circle cx="305.02276913191065" cy="319.24726816070734" r="14" fill="#43a047" fill-opacity="0.7" />
<circle cx="280.1427180294334" cy="345.48277446716315" r="9" fill="#66bb6a" fill-opacity="0.7" />
<circle cx="301.3202865484935" cy="315.81256567062053" r="8" fill="#a5d6a7" fill-opacity="0.7" />
<path d="M387,400 Q447.8433734939759,380 475.996052847634,317.0098381128767" stroke="#5d4037" stroke-width="8" fill="none" stroke-linecap="round" stroke-opacity="1.0" />
<circle cx="496.02620307898405" cy="322.612263978732" r="15" fill="#66bb6a" fill-opacity="0.7" />
<circle cx="442.80556513795926" cy="308.22075356060185" r="16" fill="#2e7d32" fill-opacity="0.7" />
<circle cx="497.72103164762325" cy="328.6706395597592" r="15" fill="#66bb6a" fill-opacity="0.7" />
<circle cx="490.61710804463246" cy="295.69782955691096" r="15" fill="#66bb6a" fill-opacity="0.7" />
<circle cx="492.713007377941" cy="332.39182328152714" r="12" fill="#2e7d32" fill-opacity="0.7" />
<circle cx="466.72317699956415" cy="295.8700864395139" r="14" fill="#a5d6a7" fill-opacity="0.7" />
<circle cx="455.58192213836014" cy="330.26275515423237" r="13" fill="#66bb6a" fill-opacity="0.7" />
<circle cx="462.10723735815685" cy="295.3966686903965" r="11" fill="#a5d6a7" fill-opacity="0.7" />
<circle cx="493.74641624808396" cy="332.91969517185896" r="12" fill="#66bb6a" fill-opacity="0.7" />
<circle cx="456.68832629401066" cy="307.2069346808019" r="9" fill="#a5d6a7" fill-opacity="0.7" />
<path d="M387,385 Q326.1566265060241,365 291.1095348020736,310.0821578218175" stroke="#5d4037" stroke-width="8" fill="none" stroke-linecap="round" stroke-opacity="1.0" />
<circle cx="279.2280361976602" cy="278.40154666964463" r="9" fill="#a5d6a7" fill-opacity="0.7" />
<circle cx="296.41956605398786" cy="291.5029732429908" r="14" fill="#43a047" fill-opacity="0.7" />
<circle cx="310.80011634344555" cy="292.25104828616975" r="13" fill="#43a047" fill-opacity="0.7" />
<circle cx="275.82657096154236" cy="315.8013303512948" r="12" fill="#43a047" fill-opacity="0.7" />
<circle cx="311.4611492350142" cy="337.9986541529894" r="15" fill="#66bb6a" fill-opacity="0.7" />
<circle cx="261.32954450392754" cy="280.24368293758255" r="16" fill="#66bb6a" fill-opacity="0.7" />
<circle cx="315.50525337246137" cy="278.48391162001485" r="10" fill="#43a047" fill-opacity="0.7" />
<circle cx="289.7675357827602" cy="297.18476973137297" r="11" fill="#66bb6a" fill-opacity="0.7" />
<circle cx="304.37526179763915" cy="283.6966122277333" r="11" fill="#a5d6a7" fill-opacity="0.7" />
<circle cx="280.35828286095415" cy="326.193635897611" r="13" fill="#2e7d32" fill-opacity="0.7" />
<path d="M387,370 Q444.2289156626506,350 489.874017347495,319.82498922293695" stroke="#5d4037" stroke-width="8" fill="none" stroke-linecap="round" stroke-opacity="1.0" />
<circle cx="470.9002417346285" cy="345.9060242848994" r="11" fill="#a5d6a7" fill-opacity="0.7" />
<circle cx="480.7286464546181" cy="299.21002038493015" r="8" fill="#a5d6a7" fill-opacity="0.7" />
<circle cx="500.0841991323487" cy="352.71500553289957" r="12" fill="#2e7d32" fill-opacity="0.7" />
<circle cx="462.3493872245423" cy="314.6140192931099" r="13" fill="#66bb6a" fill-opacity="0.7" />
<circle cx="515.0441497245903" cy="288.31685466528614" r="12" fill="#66bb6a" fill-opacity="0.7" />
<circle cx="499.55354160800124" cy="346.1549549396761" r="16" fill="#66bb6a" fill-opacity="0.7" />
<circle cx="465.6663471948782" cy="349.83780899641994" r="16" fill="#2e7d32" fill-opacity="0.7" />
<circle cx="517.5329054175626" cy="307.0253033489756" r="14" fill="#2e7d32" fill-opacity="0.7" />
<circle cx="493.9845951499654" cy="290.6997072567102" r="15" fill="#a5d6a7" fill-opacity="0.7" />
<circle cx="520.4219249133669" cy="336.153943805837" r="9" fill="#2e7d32" fill-opacity="0.7" />
<path d="M387,355 Q333.3855421686747,335 302.50246136024305,288.9832875855619" stroke="#5d4037" stroke-width="8" fill="none" stroke-linecap="round" stroke-opacity="1.0" />
<circle cx="305.42152961370255" cy="258.4892267127982" r="8" fill="#2e7d32" fill-opacity="0.7" />
<circle cx="282.9021961449358" cy="284.22342298606884" r="16" fill="#43a047" fill-opacity="0.7" />
<circle cx="312.44817692900074" cy="306.2747391053434" r="9" fill="#2e7d32" fill-opacity="0.7" />
<circle cx="310.1810824328921" cy="259.464927180681" r="14" fill="#2e7d32" fill-opacity="0.7" />
<circle cx="324.75394416253994" cy="318.42992324384807" r="9" fill="#2e7d32" fill-opacity="0.7" />
<circle cx="298.86894856533115" cy="280.1741155720233" r="13" fill="#66bb6a" fill-opacity="0.7" />
<circle cx="332.0902632687238" cy="283.5053777646239" r="16" fill="#66bb6a" fill-opacity="0.7" />
<circle cx="299.53579935320545" cy="265.5735519928219" r="12" fill="#a5d6a7" fill-opacity="0.7" />
<circle cx="317.58384797083556" cy="254.65920324836182" r="13" fill="#66bb6a" fill-opacity="0.7" />
<circle cx="315.6447552662757" cy="322.41521810172736" r="16" fill="#a5d6a7" fill-opacity="0.7" />
<text x="400" y="580" font-family="Segoe UI, Helvetica, Arial, sans-serif" font-size="20" fill="#3e2723" text-anchor="middle" font-weight="bold">@prithwiraj84's Contribution Garden</text>
<text x="400" y="595" font-family="Segoe UI, Helvetica, Arial, sans-serif" font-size="14" fill="#5d4037" text-anchor="middle" font-weight="bold">Grown over 5 years</text></svg>