<svg xmlns="http://www.w3.org/2000/svg" width="800" height="600" viewBox="0 0 800 600">
        <defs>
            <linearGradient id="sky" x1="0%" y1="0%" x2="0%" y2="100%">
                <stop offset="0%" style="stop-color:#e0f7fa;stop-opacity:1" />
                <stop offset="100%" style="stop-color:#ffffff;stop-opacity:1" />
            </linearGradient>
            <filter id="glow" x="-20%" y="-20%" width="140%" height="140%">
                <feGaussianBlur stdDeviation="2" result="coloredBlur"/>
                <feMerge>
                    <feMergeNode in="coloredBlur"/>
                    <feMergeNode in="SourceGraphic"/>
                </feMerge>
            </filter>
        </defs>
        <rect width="100%" height="100%" fill="url(#sky)"/><path d="M0,550 Q400,530 800,550 L800,600 L0,600 Z" stroke="#4e342e" stroke-width="0" fill="#5d4037" stroke-linecap="round" stroke-opacity="1.0" />
<path d="M0,550 Q400,530 800,550" stroke="none" stroke-width="0" fill="#76ff03" stroke-linecap="round" stroke-opacity="0.1" />
<path d="M400,550 Q390.5,470.0 381,390" stroke="#4e342e" stroke-width="35" fill="none" stroke-linecap="round" stroke-opacity="1.0" />
<path d="M381,430 Q461.42452830188677,410 466.2370137280768,293.5922637786126" stroke="#5d4037" stroke-width="8" fill="none" stroke-linecap="round" stroke-opacity="1.0" />
<circle cx="483.8527226462479" cy="301.29660468080687" r="14" fill="#43a047" fill-opacity="0.7" />
<circle cx="497.28901354153584" cy="272.76457437279174" r="10" fill="#66bb6a" fill-opacity="0.7" />
<circle cx="433.52408491324843" cy="267.07865369965754" r="10" fill="#a5d6a7" fill-opacity="0.7" />
<circle cx="453.3688683290534" cy="267.83439384767865" r="12" fill="#2e7d32" fill-opacity="0.7" />
<circle cx="439.79693705568303" cy="312.53995037753793" r="11" fill="#66bb6a" fill-opacity="0.7" />
<circle cx="441.07708902111915" cy="321.4484103059478" r="16" fill="#2e7d32" fill-opacity="0.7" />
<circle cx="495.7026993570341" cy="267.6298020473829" r="15" fill="#43a047" fill-opacity="0.7" />
<circle cx="486.7047372243504" cy="300.6039182873803" r="14" fill="#a5d6a7" fill-opacity="0.7" />
<circle cx="485.2199764663981" cy="285.89998579348304" r="12" fill="#43a047" fill-opacity="0.7" />
<circle cx="455.3673420685973" cy="282.4951400526865" r="16" fill="#a5d6a7" fill-opacity="0.7" />
<path d="M381,415 Q318.2641509433962,395 320.1701136860728,305.25998014194374" stroke="#5d4037" stroke-width="8" fill="none" stroke-linecap="round" stroke-opacity="1.0" />
<circle cx="305.3442959246331" cy="304.8210884794976" r="16" fill="#43a047" fill-opacity="0.7" />
<circle cx="334.9667892080087" cy="294.9603550407277" r="14" fill="#2e7d32" fill-opacity="0.7" />
<circle cx="290.5515941733863" cy="302.14238494320915" r="13" fill="#a5d6a7" fill-opacity="0.7" />
<circle cx="303.07252948107856" cy="287.2338359374707" r="12" fill="#66bb6a" fill-opacity="0.7" />
<circle cx="302.36942553569014" cy="301.7903176156377" r="8" fill="#43a047" fill-opacity="0.7" />
<circle cx="291.85958672434623" cy="333.6344417341919" r="10" fill="#2e7d32" fill-opacity="0.7" />
<circle cx="329.98321065362825" cy="286.4454764401669" r="9" fill="#a5d6a7" fill-opacity="0.7" />
<circle cx="294.4451205467726" cy="333.7054238439468" r="16" fill="#a5d6a7" fill-opacity="0.7" />
<circle cx="293.5420800936424" cy="277.93680324378187" r="12" fill="#a5d6a7" fill-opacity="0.7" />
<circle cx="341.4052234377641" cy="332.4931410025401" r="14" fill="#a5d6a7" fill-opacity="0.7" />
<path d="M381,400 Q440.1981132075472,380 464.718774565011,316.281225434989" stroke="#5d4037" stroke-width="8" fill="none" stroke-linecap="round" stroke-opacity="1.0" />
<circle cx="436.5703907017652" cy="321.9326097837956" r="11" fill="#66bb6a" fill-opacity="0.7" />
<circle cx="432.1718505028164" cy="332.83325255954725" r="14" fill="#a5d6a7" fill-opacity="0.7" />
<circle cx="463.9227665298679" cy="306.1918343207845" r="14" fill="#2e7d32" fill-opacity="0.7" />
<circle cx="462.6593026350833" cy="336.7391993877202" r="15" fill="#66bb6a" fill-opacity="0.7" />
<circle cx="432.0598690101776" cy="295.70321663496924" r="15" fill="#2e7d32" fill-opacity="0.7" />
<circle cx="476.370717019744" cy="296.7380642730029" r="11" fill="#a5d6a7" fill-opacity="0.7" />
<circle cx="460.43450156518935" cy="330.99959855538594" r="12" fill="#2e7d32" fill-opacity="0.7" />
<circle cx="482.68468254518655" cy="289.1947436588478" r="13" fill="#2e7d32" fill-opacity="0.7" />
<circle cx="488.43275634451675" cy="316.3949707176097" r="10" fill="#43a047" fill-opacity="0.7" />
<circle cx="431.99481695004226" cy="347.78483318757986" r="16" fill="#a5d6a7" fill-opacity="0.7" />
<path d="M381,385 Q322.50943396226415,365 326.0806851080656,281.71179102405006" stroke="#5d4037" stroke-width="8" fill="none" stroke-linecap="round" stroke-opacity="1.0" />
<circle cx="319.04747744085984" cy="275.1154734727877" r="10" fill="#a5d6a7" fill-opacity="0.7" />
<circle cx="337.8759676153948" cy="278.4933381579658" r="8" fill="#2e7d32" fill-opacity="0.7" />
<circle cx="319.82282358397686" cy="309.67955092777953" r="16" fill="#a5d6a7" fill-opacity="0.7" />
<circle cx="297.7097091240481" cy="253.04051368035394" r="12" fill="#a5d6a7" fill-opacity="0.7" />
<circle cx="295.280645155956" cy="247.3985777558561" r="16" fill="#a5d6a7" fill-opacity="0.7" />
<circle cx="300.1188706564601" cy="294.30382882944303" r="8" fill="#66bb6a" fill-opacity="0.7" />
<circle cx="335.80985115711223" cy="300.6511590529947" r="12" fill="#43a047" fill-opacity="0.7" />
<circle cx="348.46567607966284" cy="300.8660189991974" r="11" fill="#43a047" fill-opacity="0.7" />
<circle cx="340.1841126992083" cy="300.14292583307576" r="15" fill="#66bb6a" fill-opacity="0.7" />
<circle cx="352.29639433251066" cy="253.83009403491263" r="15" fill="#43a047" fill-opacity="0.7" />
<path d="M381,370 Q439.49056603773585,350 434.10832261104133,265.7690481138136" stroke="#5d4037" stroke-width="8" fill="none" stroke-linecap="round" stroke-opacity="1.0" />
<circle cx="426.1192968629306" cy="285.6688700984405" r="11" fill="#a5d6a7" fill-opacity="0.7" />
<circle cx="416.92192654723726" cy="246.77324994975197" r="16" fill="#43a047" fill-opacity="0.7" />
<circle cx="405.1637241636749" cy="293.82690079754184" r="15" fill="#66bb6a" fill-opacity="0.7" />
<circle cx="459.5489793389341" cy="298.2782528176657" r="13" fill="#a5d6a7" fill-opacity="0.7" />
<circle cx="462.1065910692294" cy="297.42841437832647" r="16" fill="#66bb6a" fill-opacity="0.7" />
<circle cx="402.8886586668939" cy="240.01240082398454" r="12" fill="#a5d6a7" fill-opacity="0.7" />
<circle cx="454.8678446088818" cy="295.7101611655887" r="11" fill="#43a047" fill-opacity="0.7" />
<circle cx="443.3731424995136" cy="241.88493545908213" r="8" fill="#66bb6a" fill-opacity="0.7" />
<circle cx="446.7664560649806" cy="292.93802123585544" r="16" fill="#66bb6a" fill-opacity="0.7" />
<circle cx="416.0576209199248" cy="299.24944327316126" r="9" fill="#66bb6a" fill-opacity="0.7" />
<path d="M381,355 Q325.33962264150944,335 328.738071312514,256.7096075874025" stroke="#5d4037" stroke-width="8" fill="none" stroke-linecap="round" stroke-opacity="1.0" />
<circle cx="336.39633857287515" cy="243.9546114586274" r="15" fill="#a5d6a7" fill-opacity="0.7" />
<circle cx="328.89977260864384" cy="275.74622590584164" r="9" fill="#43a047" fill-opacity="0.7" />
<circle cx="361.6473086735391" cy="256.68694411542697" r="13" fill="#a5d6a7" fill-opacity="0.7" />
<circle cx="339.7770163151204" cy="228.2457232275494" r="9" fill="#a5d6a7" fill-opacity="0.7" />
<circle cx="313.5822660155549" cy="267.3989227480996" r="16" fill="#43a047" fill-opacity="0.7" />
<circle cx="322.0454069536341" cy="269.7076214811748" r="12" fill="#43a047" fill-opacity="0.7" />
<circle cx="351.6142888926056" cy="273.90421882647496" r="13" fill="#43a047" fill-opacity="0.7" />
<circle cx="306.36778435461224" cy="276.7456069256009" r="12" fill="#a5d6a7" fill-opacity="0.7" />
<circle cx="328.8989396595117" cy="253.90389289212598" r="15" fill="#43a047" fill-opacity="0.7" />
<circle cx="344.65824869006934" cy="254.81141228877388" r="15" fill="#2e7d32" fill-opacity="0.7" />
<text x="400" y="580" font-family="Segoe UI, Helvetica, Arial, sans-serif" font-size="20" fill="#3e2723" text-anchor="middle" font-weight="bold">@prithwiraj84's Contribution Garden</text>
<text x="400" y="595" font-family="Segoe UI, Helvetica, Arial, sans-serif" font-size="14" fill="#5d4037" text-anchor="middle" font-weight="bold">Grown over 5 years</text></svg>