<svg xmlns="http://www.w3.org/2000/svg" width="800" height="600" viewBox="0 0 800 600">
        <defs>
            <linearGradient id="sky" x1="0%" y1="0%" x2="0%" y2="100%">
                <stop offset="0%" style="stop-color:#e0f7fa;stop-opacity:1" />
                <stop offset="100%" style="stop-color:#ffffff;stop-opacity:1" />
            </linearGradient>
            <filter id="glow" x="-20%" y="-20%" width="140%" height="140%">
                <feGaussianBlur stdDeviation="2" result="coloredBlur"/>
                <feMerge>
                    <feMergeNode in="coloredBlur"/>
                    <feMergeNode in="SourceGraphic"/>
                </feMerge>
            </filter>
        </defs>
        <rect width="100%" height="100%" fill="url(#sky)"/><path d="M0,550 Q400,530 800,550 L800,600 L0,600 Z" stroke="#4e342e" stroke-width="0" fill="#5d4037" stroke-linecap="round" stroke-opacity="1.0" />
<path d="M0,550 Q400,530 800,550" stroke="none" stroke-width="0" fill="#76ff03" stroke-linecap="round" stroke-opacity="0.1" />
<path d="M400,550 Q385.0,470.0 370,390" stroke="#4e342e" stroke-width="35" fill="none" stroke-linecap="round" stroke-opacity="1.0" />
<path d="M370,430 Q449.63709677419354,410 474.49327276260095,309.7942402467762" stroke="#5d4037" stroke-width="8" fill="none" stroke-linecap="round" stroke-opacity="1.0" />
<circle cx="440.3477948920576" cy="284.4352423820838" r="11" fill="#43a047" fill-opacity="0.7" />
<circle cx="449.0350015209942" cy="286.6891594396578" r="14" fill="#43a047" fill-opacity="0.7" />
<circle cx="481.12610697759413" cy="337.63667245846517" r="8" fill="#66bb6a" fill-opacity="0.7" />
<circle cx="454.2303270244695" cy="281.4049889727655" r="13" fill="#43a047" fill-opacity="0.7" />
<circle cx="499.0359760330456" cy="337.04261798152305" r="12" fill="#43a047" fill-opacity="0.7" />
<circle cx="474.79391164949834" cy="311.59634478321806" r="12" fill="#a5d6a7" fill-opacity="0.7" />
<circle cx="452.73685271911785" cy="309.86288791019433" r="11" fill="#43a047" fill-opacity="0.7" />
<circle cx="449.97846413873305" cy="283.82467658268774" r="14" fill="#a5d6a7" fill-opacity="0.7" />
<circle cx="450.79664736358365" cy="279.625775052727" r="16" fill="#a5d6a7" fill-opacity="0.7" />
<circle cx="448.9490413013739" cy="307.2109930295741" r="11" fill="#a5d6a7" fill-opacity="0.7" />
<path d="M370,415 Q303.6693548387097,395 269.87925326883385,327.96636268633995" stroke="#5d4037" stroke-width="8" fill="none" stroke-linecap="round" stroke-opacity="1.0" />
<circle cx="244.47112930202545" cy="322.86467390230183" r="13" fill="#66bb6a" fill-opacity="0.7" />
<circle cx="303.8869283149488" cy="320.6535336971964" r="13" fill="#2e7d32" fill-opacity="0.7" />
<circle cx="299.70268224132127" cy="298.18728098358207" r="11" fill="#43a047" fill-opacity="0.7" />
<circle cx="278.816104791555" cy="334.7110278950322" r="16" fill="#43a047" fill-opacity="0.7" />
<circle cx="268.2301382856342" cy="337.4001540551981" r="8" fill="#66bb6a" fill-opacity="0.7" />
<circle cx="289.7028347623235" cy="340.0797544881617" r="16" fill="#a5d6a7" fill-opacity="0.7" />
<circle cx="270.0833497896617" cy="352.6588377892258" r="16" fill="#43a047" fill-opacity="0.7" />
<circle cx="267.7340978854667" cy="348.10196515707605" r="12" fill="#2e7d32" fill-opacity="0.7" />
<circle cx="295.05896246277314" cy="357.4166110283924" r="14" fill="#a5d6a7" fill-opacity="0.7" />
<circle cx="300.5001992043635" cy="337.0844126635825" r="15" fill="#2e7d32" fill-opacity="0.7" />
<path d="M370,400 Q428.4677419354839,380 437.0714381216949,304.2120593371743" stroke="#5d4037" stroke-width="8" fill="none" stroke-linecap="round" stroke-opacity="1.0" />
<circle cx="437.55466060515823" cy="282.0716916283402" r="15" fill="#43a047" fill-opacity="0.7" />
<circle cx="456.24802277970304" cy="322.3216564202366" r="10" fill="#66bb6a" fill-opacity="0.7" />
<circle cx="468.0623251813995" cy="313.9110252227752" r="9" fill="#a5d6a7" fill-opacity="0.7" />
<circle cx="462.2434383441236" cy="312.64731800150736" r="12" fill="#66bb6a" fill-opacity="0.7" />
<circle cx="460.5257712732485" cy="285.22216621392397" r="15" fill="#43a047" fill-opacity="0.7" />
<circle cx="427.590819194316" cy="298.62335145908213" r="10" fill="#43a047" fill-opacity="0.7" />
<circle cx="457.68278898485886" cy="292.1511021455212" r="12" fill="#2e7d32" fill-opacity="0.7" />
<circle cx="437.8966198948252" cy="337.77253971267766" r="11" fill="#66bb6a" fill-opacity="0.7" />
<circle cx="465.15594683949627" cy="329.472772016795" r="12" fill="#43a047" fill-opacity="0.7" />
<circle cx="460.59869010361865" cy="287.4083549343037" r="11" fill="#43a047" fill-opacity="0.7" />
<path d="M370,385 Q312.13709677419354,365 274.05895833738026,320.2869502838289" stroke="#5d4037" stroke-width="8" fill="none" stroke-linecap="round" stroke-opacity="1.0" />
<circle cx="294.87706940969895" cy="315.6201928593929" r="15" fill="#66bb6a" fill-opacity="0.7" />
<circle cx="241.75270668609306" cy="332.7940889642423" r="10" fill="#43a047" fill-opacity="0.7" />
<circle cx="250.72771576101428" cy="298.5767285237117" r="13" fill="#a5d6a7" fill-opacity="0.7" />
<circle cx="279.87905118258095" cy="303.19478793291626" r="12" fill="#a5d6a7" fill-opacity="0.7" />
<circle cx="307.92129437603955" cy="289.17278294287433" r="8" fill="#2e7d32" fill-opacity="0.7" />
<circle cx="256.4635883509628" cy="316.0625599174541" r="16" fill="#66bb6a" fill-opacity="0.7" />
<circle cx="304.03080587109457" cy="316.7703088574936" r="13" fill="#43a047" fill-opacity="0.7" />
<circle cx="250.55173425615988" cy="342.8282525392603" r="9" fill="#66bb6a" fill-opacity="0.7" />
<circle cx="243.96894336614224" cy="314.250544054699" r="8" fill="#66bb6a" fill-opacity="0.7" />
<circle cx="296.01774471872864" cy="292.247095588115" r="12" fill="#43a047" fill-opacity="0.7" />
<path d="M370,370 Q427.258064516129,350 423.7620660609649,268.8882595274455" stroke="#5d4037" stroke-width="8" fill="none" stroke-linecap="round" stroke-opacity="1.0" />
<circle cx="412.3173479264813" cy="234.03483951392246" r="10" fill="#43a047" fill-opacity="0.7" />
<circle cx="421.26061078775393" cy="252.4545621727491" r="14" fill="#2e7d32" fill-opacity="0.7" />
<circle cx="445.2165473296395" cy="242.53105049564073" r="10" fill="#43a047" fill-opacity="0.7" />
<circle cx="419.01091719057774" cy="255.52018797971698" r="13" fill="#66bb6a" fill-opacity="0.7" />
<circle cx="444.21526702589927" cy="280.8429482953562" r="12" fill="#43a047" fill-opacity="0.7" />
<circle cx="419.11208801803406" cy="259.4669794728362" r="13" fill="#43a047" fill-opacity="0.7" />
<circle cx="393.50527290026304" cy="277.69584891673327" r="13" fill="#43a047" fill-opacity="0.7" />
<circle cx="403.93961603112064" cy="266.0458740344456" r="8" fill="#43a047" fill-opacity="0.7" />
<circle cx="435.03978785542455" cy="243.96868271935995" r="9" fill="#43a047" fill-opacity="0.7" />
<circle cx="421.4764621468655" cy="290.1929811146004" r="9" fill="#66bb6a" fill-opacity="0.7" />
<path d="M370,355 Q314.55645161290323,335 269.5021607116618,308.1370879118176" stroke="#5d4037" stroke-width="8" fill="none" stroke-linecap="round" stroke-opacity="1.0" />
<circle cx="235.58960528924382" cy="290.9729991419519" r="9" fill="#43a047" fill-opacity="0.7" />
<circle cx="255.27094138685752" cy="313.16776651465614" r="14" fill="#43a047" fill-opacity="0.7" />
<circle cx="302.5623479816352" cy="317.65584229242097" r="15" fill="#43a047" fill-opacity="0.7" />
<circle cx="242.42407096103736" cy="292.66723074851063" r="11" fill="#66bb6a" fill-opacity="0.7" />
<circle cx="297.1989537663975" cy="333.650026261547" r="13" fill="#66bb6a" fill-opacity="0.7" />
<circle cx="297.92860483690646" cy="323.3720624465128" r="11" fill="#66bb6a" fill-opacity="0.7" />
<circle cx="296.69609464964265" cy="312.3903241460263" r="16" fill="#66bb6a" fill-opacity="0.7" />
<circle cx="272.8838019812181" cy="281.4224700800645" r="14" fill="#43a047" fill-opacity="0.7" />
<circle cx="246.67394756692713" cy="289.0806432402312" r="16" fill="#66bb6a" fill-opacity="0.7" />
<circle cx="244.88139335273638" cy="293.4284061460674" r="11" fill="#66bb6a" fill-opacity="0.7" />
<text x="400" y="580" font-family="Segoe UI, Helvetica, Arial, sans-serif" font-size="20" fill="#3e2723" text-anchor="middle" font-weight="bold">@prithwiraj84's Contribution Garden</text>
<text x="400" y="595" font-family="Segoe UI, Helvetica, Arial, sans-serif" font-size="14" fill="#5d4037" text-anchor="middle" font-weight="bold">Grown over 5 years</text></svg>