<svg xmlns="http://www.w3.org/2000/svg" width="800" height="600" viewBox="0 0 800 600">
        <defs>
            <linearGradient id="sky" x1="0%" y1="0%" x2="0%" y2="100%">
                <stop offset="0%" style="stop-color:#e0f7fa;stop-opacity:1" />
                <stop offset="100%" style="stop-color:#ffffff;stop-opacity:1" />
            </linearGradient>
            <filter id="glow" x="-20%" y="-20%" width="140%" height="140%">
                <feGaussianBlur stdDeviation="2" result="coloredBlur"/>
                <feMerge>
                    <feMergeNode in="coloredBlur"/>
                    <feMergeNode in="SourceGraphic"/>
                </feMerge>
            </filter>
        </defs>
        <rect width="100%" height="100%" fill="url(#sky)"/><path d="M0,550 Q400,530 800,550 L800,600 L0,600 Z" stroke="#4e342e" stroke-width="0" fill="#5d4037" stroke-linecap="round" stroke-opacity="1.0" />
<path d="M0,550 Q400,530 800,550" stroke="none" stroke-width="0" fill="#76ff03" stroke-linecap="round" stroke-opacity="0.1" />
<path d="M400,550 Q392.0,470.0 384,390" stroke="#4e342e" stroke-width="35" fill="none" stroke-linecap="round" stroke-opacity="1.0" />
<path d="M384,430 Q455.1538461538462,410 475.4736213784691,320.985983094607" stroke="#5d4037" stroke-width="8" fill="none" stroke-linecap="round" stroke-opacity="1.0" />
<circle cx="490.300922675866" cy="317.6849928493432" r="8" fill="#66bb6a" fill-opacity="0.7" />
<circle cx="496.99201842395894" cy="306.06201582086624" r="8" fill="#66bb6a" fill-opacity="0.7" />
<circle cx="505.36987487642284" cy="290.71424314033374" r="16" fill="#43a047" fill-opacity="0.7" />
<circle cx="477.80441453930484" cy="343.03514453068897" r="10" fill="#43a047" fill-opacity="0.7" />
<circle cx="467.16604180570454" cy="352.6208351135884" r="12" fill="#66bb6a" fill-opacity="0.7" />
<circle cx="474.2685785353344" cy="314.92609986416556" r="10" fill="#43a047" fill-opacity="0.7" />
<circle cx="453.9703194670114" cy="339.98288066930024" r="14" fill="#2e7d32" fill-opacity="0.7" />
<circle cx="478.12236163538455" cy="328.0018441974998" r="16" fill="#2e7d32" fill-opacity="0.7" />
<circle cx="508.36406415674776" cy="286.3303010339741" r="9" fill="#43a047" fill-opacity="0.7" />
<circle cx="494.63159499550284" cy="321.5591723028784" r="12" fill="#2e7d32" fill-opacity="0.7" />
<path d="M384,415 Q318.61538461538464,395 298.2076654397029,316.30720874009904" stroke="#5d4037" stroke-width="8" fill="none" stroke-linecap="round" stroke-opacity="1.0" />
<circle cx="274.63278052515113" cy="335.78728209315403" r="12" fill="#2e7d32" fill-opacity="0.7" />
<circle cx="321.713882886311" cy="315.3873246480026" r="16" fill="#66bb6a" fill-opacity="0.7" />
<circle cx="333.0430554159604" cy="320.68480910230573" r="14" fill="#66bb6a" fill-opacity="0.7" />
<circle cx="295.2349300787479" cy="310.79697121151935" r="14" fill="#66bb6a" fill-opacity="0.7" />
<circle cx="314.41019900462" cy="320.49993341037316" r="13" fill="#66bb6a" fill-opacity="0.7" />
<circle cx="293.2771200859318" cy="341.37743677492756" r="10" fill="#66bb6a" fill-opacity="0.7" />
<circle cx="294.4671914786696" cy="312.0719487365679" r="15" fill="#a5d6a7" fill-opacity="0.7" />
<circle cx="285.2629189514392" cy="286.02059876749024" r="15" fill="#66bb6a" fill-opacity="0.7" />
<circle cx="285.2901868916641" cy="340.16852696088404" r="16" fill="#66bb6a" fill-opacity="0.7" />
<circle cx="276.1293924339776" cy="301.3869523277527" r="10" fill="#2e7d32" fill-opacity="0.7" />
<path d="M384,400 Q449.38461538461536,380 462.6988876429602,295.56304868612324" stroke="#5d4037" stroke-width="8" fill="none" stroke-linecap="round" stroke-opacity="1.0" />
<circle cx="461.81770215101056" cy="283.9134547068115" r="9" fill="#a5d6a7" fill-opacity="0.7" />
<circle cx="454.79200016685587" cy="308.65768332304043" r="10" fill="#43a047" fill-opacity="0.7" />
<circle cx="484.5882610480109" cy="286.7844443903691" r="9" fill="#43a047" fill-opacity="0.7" />
<circle cx="456.51018691302994" cy="268.07044787714057" r="14" fill="#2e7d32" fill-opacity="0.7" />
<circle cx="435.3175598755376" cy="296.6764730055295" r="9" fill="#66bb6a" fill-opacity="0.7" />
<circle cx="485.65505365613166" cy="265.95132725311925" r="16" fill="#43a047" fill-opacity="0.7" />
<circle cx="453.28421632171865" cy="315.83973450629924" r="13" fill="#2e7d32" fill-opacity="0.7" />
<circle cx="451.3613763749732" cy="306.6309548875681" r="10" fill="#66bb6a" fill-opacity="0.7" />
<circle cx="429.2556034140045" cy="318.10896259154515" r="10" fill="#66bb6a" fill-opacity="0.7" />
<circle cx="441.23379204378296" cy="295.26412313268884" r="12" fill="#66bb6a" fill-opacity="0.7" />
<path d="M384,385 Q322.46153846153845,365 298.50358517427725,296.4658707275506" stroke="#5d4037" stroke-width="8" fill="none" stroke-linecap="round" stroke-opacity="1.0" />
<circle cx="331.6245859024632" cy="299.1600088569427" r="8" fill="#a5d6a7" fill-opacity="0.7" />
<circle cx="288.4992373603499" cy="319.9160843067165" r="12" fill="#66bb6a" fill-opacity="0.7" />
<circle cx="266.51069738683947" cy="272.9083108356521" r="15" fill="#66bb6a" fill-opacity="0.7" />
<circle cx="324.2040114831058" cy="293.2730536807099" r="9" fill="#a5d6a7" fill-opacity="0.7" />
<circle cx="264.45485206410854" cy="320.25947341803993" r="9" fill="#2e7d32" fill-opacity="0.7" />
<circle cx="306.55348284131225" cy="325.9317672026335" r="8" fill="#66bb6a" fill-opacity="0.7" />
<circle cx="283.269312363204" cy="320.7882408745396" r="10" fill="#a5d6a7" fill-opacity="0.7" />
<circle cx="309.78626779489537" cy="279.70859450798645" r="14" fill="#2e7d32" fill-opacity="0.7" />
<circle cx="309.29483066749725" cy="278.52267818432733" r="9" fill="#a5d6a7" fill-opacity="0.7" />
<circle cx="274.1577285242192" cy="268.28891380121456" r="14" fill="#2e7d32" fill-opacity="0.7" />
<path d="M384,370 Q441.6923076923077,350 432.7636455854653,265.42602457269425" stroke="#5d4037" stroke-width="8" fill="none" stroke-linecap="round" stroke-opacity="1.0" />
<circle cx="431.16235589983813" cy="249.52061125391413" r="11" fill="#43a047" fill-opacity="0.7" />
<circle cx="457.06334755301975" cy="287.15960457547357" r="10" fill="#a5d6a7" fill-opacity="0.7" />
<circle cx="445.63267239700303" cy="236.99277795092888" r="12" fill="#a5d6a7" fill-opacity="0.7" />
<circle cx="462.643563396042" cy="259.36795226537424" r="9" fill="#66bb6a" fill-opacity="0.7" />
<circle cx="445.66518416847424" cy="253.84949419143913" r="14" fill="#66bb6a" fill-opacity="0.7" />
<circle cx="464.0293338508297" cy="240.4173217348302" r="11" fill="#a5d6a7" fill-opacity="0.7" />
<circle cx="440.93053373692777" cy="270.58106782870135" r="16" fill="#66bb6a" fill-opacity="0.7" />
<circle cx="454.5481172716195" cy="276.07130390453244" r="15" fill="#66bb6a" fill-opacity="0.7" />
<circle cx="447.0783878488892" cy="252.477852555065" r="10" fill="#43a047" fill-opacity="0.7" />
<circle cx="448.44940027803403" cy="250.28273675341939" r="14" fill="#43a047" fill-opacity="0.7" />
<path d="M384,355 Q330.15384615384613,335 288.91333615365403,304.4415240076733" stroke="#5d4037" stroke-width="8" fill="none" stroke-linecap="round" stroke-opacity="1.0" />
<circle cx="321.3488824280284" cy="324.3981256728779" r="12" fill="#66bb6a" fill-opacity="0.7" />
<circle cx="295.9446431483748" cy="292.56382809209805" r="12" fill="#66bb6a" fill-opacity="0.7" />
<circle cx="320.1668085144196" cy="309.1786833214575" r="8" fill="#2e7d32" fill-opacity="0.7" />
<circle cx="273.7866671480897" cy="295.7454719232884" r="9" fill="#2e7d32" fill-opacity="0.7" />
<circle cx="293.49284810518077" cy="329.4837694782025" r="10" fill="#2e7d32" fill-opacity="0.7" />
<circle cx="302.7955695534047" cy="283.8958781710228" r="11" fill="#2e7d32" fill-opacity="0.7" />
<circle cx="268.27876266766515" cy="333.68783954013287" r="8" fill="#2e7d32" fill-opacity="0.7" />
<circle cx="287.33679180266444" cy="278.23137665988565" r="12" fill="#2e7d32" fill-opacity="0.7" />
<circle cx="316.04416852099973" cy="331.48073582911076" r="9" fill="#a5d6a7" fill-opacity="0.7" />
<circle cx="298.3741758676467" cy="338.609673918903" r="10" fill="#43a047" fill-opacity="0.7" />
<text x="400" y="580" font-family="Segoe UI, Helvetica, Arial, sans-serif" font-size="20" fill="#3e2723" text-anchor="middle" font-weight="bold">@prithwiraj84's Contribution Garden</text>
<text x="400" y="595" font-family="Segoe UI, Helvetica, Arial, sans-serif" font-size="14" fill="#5d4037" text-anchor="middle" font-weight="bold">Grown over 5 years</text></svg>