<svg xmlns="http://www.w3.org/2000/svg" width="800" height="600" viewBox="0 0 800 600">
        <defs>
            <linearGradient id="sky" x1="0%" y1="0%" x2="0%" y2="100%">
                <stop offset="0%" style="stop-color:#e0f7fa;stop-opacity:1" />
                <stop offset="100%" style="stop-color:#ffffff;stop-opacity:1" />
            </linearGradient>
            <filter id="glow" x="-20%" y="-20%" width="140%" height="140%">
                <feGaussianBlur stdDeviation="2" result="coloredBlur"/>
                <feMerge>
                    <feMergeNode in="coloredBlur"/>
                    <feMergeNode in="SourceGraphic"/>
                </feMerge>
            </filter>
        </defs>
        <rect width="100%" height="100%" fill="url(#sky)"/><path d="M0,550 Q400,530 800,550 L800,600 L0,600 Z" stroke="#4e342e" stroke-width="0" fill="#5d4037" stroke-linecap="round" stroke-opacity="1.0" />
<path d="M0,550 Q400,530 800,550" stroke="none" stroke-width="0" fill="#76ff03" stroke-linecap="round" stroke-opacity="0.1" />
<path d="M400,550 Q400.5,470.0 401,390" stroke="#4e342e" stroke-width="35" fill="none" stroke-linecap="round" stroke-opacity="1.0" />
<path d="M401,430 Q485.93150684931504,410 538.4220647979363,330.15702563799084" stroke="#5d4037" stroke-width="8" fill="none" stroke-linecap="round" stroke-opacity="1.0" />
<circle cx="505.90715272140096" cy="298.0747271596939" r="13" fill="#2e7d32" fill-opacity="0.7" />
<circle cx="526.4262492062066" cy="309.3773296525782" r="14" fill="#2e7d32" fill-opacity="0.7" />
<circle cx="541.8613158712055" cy="336.37437488094827" r="9" fill="#66bb6a" fill-opacity="0.7" />
<circle cx="553.0310972260866" cy="295.83711249347357" r="15" fill="#43a047" fill-opacity="0.7" />
<circle cx="555.7543063596185" cy="352.0867486374539" r="11" fill="#66bb6a" fill-opacity="0.7" />
<circle cx="554.3578052336096" cy="340.2219837803399" r="13" fill="#2e7d32" fill-opacity="0.7" />
<circle cx="550.7659696714344" cy="302.74071235141565" r="11" fill="#2e7d32" fill-opacity="0.7" />
<circle cx="538.1741969258383" cy="310.5958313958524" r="11" fill="#43a047" fill-opacity="0.7" />
<circle cx="545.1366656924184" cy="342.275765667997" r="10" fill="#2e7d32" fill-opacity="0.7" />
<circle cx="556.2293722286948" cy="355.65766468746887" r="12" fill="#2e7d32" fill-opacity="0.7" />
<circle cx="526.2799239046461" cy="312.76265367466846" r="11" fill="#66bb6a" fill-opacity="0.7" />
<circle cx="566.6247257656862" cy="327.3469432962046" r="12" fill="#66bb6a" fill-opacity="0.7" />
<circle cx="536.7406507956649" cy="323.07370004365765" r="12" fill="#2e7d32" fill-opacity="0.7" />
<path d="M401,415 Q337.13013698630135,395 347.0148590310682,299.2284915874416" stroke="#5d4037" stroke-width="8" fill="none" stroke-linecap="round" stroke-opacity="1.0" />
<circle cx="370.6094077344968" cy="281.285513473616" r="11" fill="#a5d6a7" fill-opacity="0.7" />
<circle cx="370.1410535749817" cy="287.213813754058" r="8" fill="#66bb6a" fill-opacity="0.7" />
<circle cx="369.4906911617291" cy="274.5277335659655" r="8" fill="#a5d6a7" fill-opacity="0.7" />
<circle cx="348.4333772901424" cy="271.88913684618063" r="13" fill="#66bb6a" fill-opacity="0.7" />
<circle cx="353.6454346305991" cy="277.93986390855935" r="13" fill="#2e7d32" fill-opacity="0.7" />
<circle cx="319.29888035413563" cy="272.3772552552707" r="13" fill="#66bb6a" fill-opacity="0.7" />
<circle cx="315.9413761394806" cy="276.02225480664623" r="13" fill="#a5d6a7" fill-opacity="0.7" />
<circle cx="351.65254683550137" cy="265.23232222290284" r="16" fill="#43a047" fill-opacity="0.7" />
<circle cx="370.493246733037" cy="303.9713182208457" r="13" fill="#43a047" fill-opacity="0.7" />
<circle cx="342.949180943656" cy="317.2028458417907" r="10" fill="#2e7d32" fill-opacity="0.7" />
<path d="M401,400 Q458.1917808219178,380 461.6140528266748,302.997238316354" stroke="#5d4037" stroke-width="8" fill="none" stroke-linecap="round" stroke-opacity="1.0" />
<circle cx="494.8505676971537" cy="300.4368763254772" r="15" fill="#43a047" fill-opacity="0.7" />
<circle cx="496.5627714083305" cy="296.9516101222731" r="16" fill="#a5d6a7" fill-opacity="0.7" />
<circle cx="444.0408142448759" cy="292.7703491575265" r="16" fill="#a5d6a7" fill-opacity="0.7" />
<circle cx="457.8553060941061" cy="283.4089570632379" r="15" fill="#2e7d32" fill-opacity="0.7" />
<circle cx="496.6075435121967" cy="307.31081630633776" r="10" fill="#2e7d32" fill-opacity="0.7" />
<circle cx="491.8553280650989" cy="295.86244260084976" r="11" fill="#43a047" fill-opacity="0.7" />
<circle cx="455.6938697827323" cy="299.7776271338696" r="14" fill="#2e7d32" fill-opacity="0.7" />
<circle cx="452.530621779264" cy="305.3650750203103" r="13" fill="#43a047" fill-opacity="0.7" />
<circle cx="443.23289588514666" cy="330.95682403467345" r="10" fill="#43a047" fill-opacity="0.7" />
<circle cx="446.2644630903963" cy="297.5825591948748" r="8" fill="#66bb6a" fill-opacity="0.7" />
<path d="M401,385 Q344.32191780821915,365 347.782504355435,284.9124475218134" stroke="#5d4037" stroke-width="8" fill="none" stroke-linecap="round" stroke-opacity="1.0" />
<circle cx="376.9523496320565" cy="281.0789870475017" r="13" fill="#66bb6a" fill-opacity="0.7" />
<circle cx="380.7015412302044" cy="289.06209396205116" r="9" fill="#43a047" fill-opacity="0.7" />
<circle cx="354.34291121802016" cy="308.05506283183814" r="15" fill="#a5d6a7" fill-opacity="0.7" />
<circle cx="324.94969121020586" cy="289.5537097589385" r="14" fill="#43a047" fill-opacity="0.7" />
<circle cx="365.3461984788569" cy="279.10764929114146" r="15" fill="#66bb6a" fill-opacity="0.7" />
<circle cx="368.98162863420333" cy="303.3558575712964" r="9" fill="#43a047" fill-opacity="0.7" />
<circle cx="353.5978816515473" cy="274.05508638589" r="12" fill="#66bb6a" fill-opacity="0.7" />
<circle cx="342.1514620816686" cy="292.91127169643306" r="14" fill="#66bb6a" fill-opacity="0.7" />
<circle cx="376.6413326174533" cy="295.47528630512284" r="10" fill="#a5d6a7" fill-opacity="0.7" />
<circle cx="363.0451455319996" cy="251.8143899550181" r="14" fill="#43a047" fill-opacity="0.7" />
<path d="M401,370 Q457.67808219178085,350 494.9765193546982,306.61203731204887" stroke="#5d4037" stroke-width="8" fill="none" stroke-linecap="round" stroke-opacity="1.0" />
<circle cx="473.705613841637" cy="286.3057022267678" r="15" fill="#2e7d32" fill-opacity="0.7" />
<circle cx="462.99062118426343" cy="312.7127548034241" r="11" fill="#43a047" fill-opacity="0.7" />
<circle cx="485.63150915676044" cy="278.00275865043966" r="8" fill="#a5d6a7" fill-opacity="0.7" />
<circle cx="492.4025808825432" cy="280.40869764364237" r="15" fill="#43a047" fill-opacity="0.7" />
<circle cx="495.4578682832918" cy="308.8610136444035" r="8" fill="#2e7d32" fill-opacity="0.7" />
<circle cx="496.07335585966064" cy="323.7466412101359" r="11" fill="#66bb6a" fill-opacity="0.7" />
<circle cx="463.66441621046874" cy="289.74287747951104" r="10" fill="#2e7d32" fill-opacity="0.7" />
<circle cx="462.02855513271584" cy="309.892365238839" r="14" fill="#a5d6a7" fill-opacity="0.7" />
<circle cx="499.4966709511313" cy="285.1662536709286" r="13" fill="#2e7d32" fill-opacity="0.7" />
<circle cx="471.96101745443724" cy="322.2805654763183" r="8" fill="#43a047" fill-opacity="0.7" />
<path d="M401,355 Q345.3493150684932,335 318.28696291775583,280.5248468949901" stroke="#5d4037" stroke-width="8" fill="none" stroke-linecap="round" stroke-opacity="1.0" />
<circle cx="348.8353611345518" cy="314.8780546482547" r="16" fill="#43a047" fill-opacity="0.7" />
<circle cx="322.98121898082496" cy="249.90168663214584" r="15" fill="#66bb6a" fill-opacity="0.7" />
<circle cx="292.34504193265377" cy="250.17845181858922" r="14" fill="#2e7d32" fill-opacity="0.7" />
<circle cx="285.9529766814437" cy="287.85862439205397" r="8" fill="#2e7d32" fill-opacity="0.7" />
<circle cx="303.6182838711925" cy="256.3162897437532" r="8" fill="#a5d6a7" fill-opacity="0.7" />
<circle cx="320.99118987579334" cy="299.23191691382647" r="16" fill="#43a047" fill-opacity="0.7" />
<circle cx="295.8214181508379" cy="257.8902797359988" r="16" fill="#43a047" fill-opacity="0.7" />
<circle cx="345.05958627015855" cy="277.3874406769803" r="16" fill="#43a047" fill-opacity="0.7" />
<circle cx="306.2235759797148" cy="288.2281279951085" r="16" fill="#a5d6a7" fill-opacity="0.7" />
<circle cx="346.13593096009714" cy="312.98193084199073" r="10" fill="#a5d6a7" fill-opacity="0.7" />
<text x="400" y="580" font-family="Segoe UI, Helvetica, Arial, sans-serif" font-size="20" fill="#3e2723" text-anchor="middle" font-weight="bold">@prithwiraj84's Contribution Garden</text>
<text x="400" y="595" font-family="Segoe UI, Helvetica, Arial, sans-serif" font-size="14" fill="#5d4037" text-anchor="middle" font-weight="bold">Grown over 5 years</text></svg>