<svg xmlns="http://www.w3.org/2000/svg" width="800" height="600" viewBox="0 0 800 600">
        <defs>
            <linearGradient id="sky" x1="0%" y1="0%" x2="0%" y2="100%">
                <stop offset="0%" style="stop-color:#e0f7fa;stop-opacity:1" />
                <stop offset="100%" style="stop-color:#ffffff;stop-opacity:1" />
            </linearGradient>
            <filter id="glow" x="-20%" y="-20%" width="140%" height="140%">
                <feGaussianBlur stdDeviation="2" result="coloredBlur"/>
                <feMerge>
                    <feMergeNode in="coloredBlur"/>
                    <feMergeNode in="SourceGraphic"/>
                </feMerge>
            </filter>
        </defs>
        <rect width="100%" height="100%" fill="url(#sky)"/><path d="M0,550 Q400,530 800,550 L800,600 L0,600 Z" stroke="#4e342e" stroke-width="0" fill="#5d4037" stroke-linecap="round" stroke-opacity="1.0" />
<path d="M0,550 Q400,530 800,550" stroke="none" stroke-width="0" fill="#76ff03" stroke-linecap="round" stroke-opacity="0.1" />
<path d="M400,550 Q413.5,470.0 427,390" stroke="#4e342e" stroke-width="35" fill="none" stroke-linecap="round" stroke-opacity="1.0" />
<path d="M427,430 Q506.2682926829268,410 565.6592218635627,353.1399382536295" stroke="#5d4037" stroke-width="8" fill="none" stroke-linecap="round" stroke-opacity="1.0" />
<circle cx="560.9262966074496" cy="323.3103343147613" r="15" fill="#43a047" fill-opacity="0.7" />
<circle cx="547.7696862197488" cy="323.12344289432593" r="16" fill="#66bb6a" fill-opacity="0.7" />
<circle cx="550.2759711870287" cy="338.41505343027836" r="11" fill="#2e7d32" fill-opacity="0.7" />
<circle cx="596.711155208361" cy="356.92293993898187" r="14" fill="#43a047" fill-opacity="0.7" />
<circle cx="564.1676394713745" cy="371.5347045387326" r="8" fill="#2e7d32" fill-opacity="0.7" />
<circle cx="585.2975754320319" cy="329.00614042209315" r="14" fill="#a5d6a7" fill-opacity="0.7" />
<circle cx="550.0787642345097" cy="322.1380720235581" r="10" fill="#2e7d32" fill-opacity="0.7" />
<circle cx="545.2780487728401" cy="355.1979669036029" r="15" fill="#43a047" fill-opacity="0.7" />
<circle cx="585.2075454331896" cy="353.9189620905103" r="16" fill="#2e7d32" fill-opacity="0.7" />
<circle cx="564.9270434832289" cy="364.5896947328355" r="11" fill="#43a047" fill-opacity="0.7" />
<path d="M427,415 Q360.5365853658536,395 326.67884848258274,327.79215346345694" stroke="#5d4037" stroke-width="8" fill="none" stroke-linecap="round" stroke-opacity="1.0" />
<circle cx="301.5519047299624" cy="361.851119230318" r="15" fill="#a5d6a7" fill-opacity="0.7" />
<circle cx="317.95356640557094" cy="300.98876947277" r="14" fill="#a5d6a7" fill-opacity="0.7" />
<circle cx="344.7783450488319" cy="354.24233975469303" r="9" fill="#43a047" fill-opacity="0.7" />
<circle cx="299.9387209440705" cy="322.8138780187711" r="16" fill="#66bb6a" fill-opacity="0.7" />
<circle cx="350.15273135205774" cy="349.6393591048474" r="9" fill="#43a047" fill-opacity="0.7" />
<circle cx="302.0089495635305" cy="332.144791762414" r="13" fill="#43a047" fill-opacity="0.7" />
<circle cx="316.9889817565436" cy="307.83643158590087" r="12" fill="#43a047" fill-opacity="0.7" />
<circle cx="324.40280902776925" cy="355.8227842636806" r="9" fill="#a5d6a7" fill-opacity="0.7" />
<circle cx="331.88661697410623" cy="321.479695435349" r="13" fill="#2e7d32" fill-opacity="0.7" />
<circle cx="293.01242607071816" cy="333.80614034380784" r="12" fill="#2e7d32" fill-opacity="0.7" />
<path d="M427,400 Q485.5365853658537,380 533.1043262872175,350.5227400888937" stroke="#5d4037" stroke-width="8" fill="none" stroke-linecap="round" stroke-opacity="1.0" />
<circle cx="508.5664441588564" cy="373.5351330512152" r="14" fill="#66bb6a" fill-opacity="0.7" />
<circle cx="548.1823791934288" cy="339.66011447381084" r="11" fill="#2e7d32" fill-opacity="0.7" />
<circle cx="565.9749889650782" cy="344.9393541844102" r="14" fill="#a5d6a7" fill-opacity="0.7" />
<circle cx="515.1849101762648" cy="379.4717656108776" r="15" fill="#2e7d32" fill-opacity="0.7" />
<circle cx="503.71202109730575" cy="335.84633200821816" r="15" fill="#43a047" fill-opacity="0.7" />
<circle cx="516.0984000610584" cy="363.8727053580399" r="15" fill="#2e7d32" fill-opacity="0.7" />
<circle cx="556.2680000135759" cy="324.0335737549611" r="16" fill="#66bb6a" fill-opacity="0.7" />
<circle cx="542.8460811375052" cy="321.441679566857" r="9" fill="#43a047" fill-opacity="0.7" />
<circle cx="528.2047124686043" cy="329.66436515717294" r="10" fill="#66bb6a" fill-opacity="0.7" />
<circle cx="512.0830617481545" cy="322.6369275216223" r="9" fill="#66bb6a" fill-opacity="0.7" />
<path d="M427,385 Q369.0731707317073,365 346.5212863492625,301.6618523997904" stroke="#5d4037" stroke-width="8" fill="none" stroke-linecap="round" stroke-opacity="1.0" />
<circle cx="335.2256544427812" cy="305.1546339615045" r="10" fill="#43a047" fill-opacity="0.7" />
<circle cx="358.5396717042279" cy="281.2712764701232" r="15" fill="#43a047" fill-opacity="0.7" />
<circle cx="373.3924455969003" cy="325.4966399100699" r="13" fill="#2e7d32" fill-opacity="0.7" />
<circle cx="333.294052219582" cy="323.15343191000426" r="10" fill="#43a047" fill-opacity="0.7" />
<circle cx="332.73689953231974" cy="312.20629266795885" r="16" fill="#66bb6a" fill-opacity="0.7" />
<circle cx="380.1754321052294" cy="325.0315294236793" r="12" fill="#2e7d32" fill-opacity="0.7" />
<circle cx="359.3442787194139" cy="324.0659572108682" r="15" fill="#a5d6a7" fill-opacity="0.7" />
<circle cx="354.8736501054125" cy="323.6666882981199" r="15" fill="#a5d6a7" fill-opacity="0.7" />
<circle cx="379.2624122743238" cy="312.98100866523544" r="14" fill="#66bb6a" fill-opacity="0.7" />
<circle cx="364.0585304287125" cy="313.31238136307525" r="10" fill="#a5d6a7" fill-opacity="0.7" />
<path d="M427,370 Q484.3170731707317,350 489.434230843186,273.859715381866" stroke="#5d4037" stroke-width="8" fill="none" stroke-linecap="round" stroke-opacity="1.0" />
<circle cx="515.425827188839" cy="241.13473410855738" r="15" fill="#2e7d32" fill-opacity="0.7" />
<circle cx="507.2510598030205" cy="265.8301767423827" r="15" fill="#43a047" fill-opacity="0.7" />
<circle cx="502.39998740971055" cy="302.2095062155676" r="10" fill="#43a047" fill-opacity="0.7" />
<circle cx="495.61997753425976" cy="258.0152270444358" r="8" fill="#2e7d32" fill-opacity="0.7" />
<circle cx="480.3558908509419" cy="297.8403271524673" r="11" fill="#a5d6a7" fill-opacity="0.7" />
<circle cx="472.22405979398025" cy="279.7120340734527" r="9" fill="#43a047" fill-opacity="0.7" />
<circle cx="477.9482270633869" cy="279.20830750286257" r="8" fill="#a5d6a7" fill-opacity="0.7" />
<circle cx="457.8760514333171" cy="302.834057671354" r="13" fill="#a5d6a7" fill-opacity="0.7" />
<circle cx="461.2647623212133" cy="254.61880674947142" r="11" fill="#66bb6a" fill-opacity="0.7" />
<circle cx="513.4380752032554" cy="288.1701809816051" r="14" fill="#2e7d32" fill-opacity="0.7" />
<path d="M427,355 Q371.5121951219512,335 358.67659237239644,267.55002612413205" stroke="#5d4037" stroke-width="8" fill="none" stroke-linecap="round" stroke-opacity="1.0" />
<circle cx="367.30582697818227" cy="252.8597396818599" r="14" fill="#2e7d32" fill-opacity="0.7" />
<circle cx="328.0978677335281" cy="289.9465691038385" r="12" fill="#66bb6a" fill-opacity="0.7" />
<circle cx="325.28938664898635" cy="272.1289825851108" r="8" fill="#2e7d32" fill-opacity="0.7" />
<circle cx="348.40112764331667" cy="262.7067539049911" r="8" fill="#66bb6a" fill-opacity="0.7" />
<circle cx="340.43201304374907" cy="240.75360679396664" r="15" fill="#a5d6a7" fill-opacity="0.7" />
<circle cx="361.29935246525037" cy="246.1188922606815" r="11" fill="#a5d6a7" fill-opacity="0.7" />
<circle cx="370.16529393510746" cy="278.8158169745451" r="16" fill="#66bb6a" fill-opacity="0.7" />
<circle cx="323.83440244661057" cy="240.87625976487092" r="14" fill="#a5d6a7" fill-opacity="0.7" />
<circle cx="338.72873865647114" cy="301.3443371940623" r="10" fill="#43a047" fill-opacity="0.7" />
<circle cx="393.1300294002749" cy="232.5728729858038" r="16" fill="#2e7d32" fill-opacity="0.7" />
<text x="400" y="580" font-family="Segoe UI, Helvetica, Arial, sans-serif" font-size="20" fill="#3e2723" text-anchor="middle" font-weight="bold">@prithwiraj84's Contribution Garden</text>
<text x="400" y="595" font-family="Segoe UI, Helvetica, Arial, sans-serif" font-size="14" fill="#5d4037" text-anchor="middle" font-weight="bold">Grown over 5 years</text></svg>