<svg xmlns="http://www.w3.org/2000/svg" width="800" height="600" viewBox="0 0 800 600">
        <defs>
            <linearGradient id="sky" x1="0%" y1="0%" x2="0%" y2="100%">
                <stop offset="0%" style="stop-color:#e0f7fa;stop-opacity:1" />
                <stop offset="100%" style="stop-color:#ffffff;stop-opacity:1" />
            </linearGradient>
            <filter id="glow" x="-20%" y="-20%" width="140%" height="140%">
                <feGaussianBlur stdDeviation="2" result="coloredBlur"/>
                <feMerge>
                    <feMergeNode in="coloredBlur"/>
                    <feMergeNode in="SourceGraphic"/>
                </feMerge>
            </filter>
        </defs>
        <rect width="100%" height="100%" fill="url(#sky)"/><path d="M0,550 Q400,530 800,550 L800,600 L0,600 Z" stroke="#4e342e" stroke-width="0" fill="#5d4037" stroke-linecap="round" stroke-opacity="1.0" />
<path d="M0,550 Q400,530 800,550" stroke="none" stroke-width="0" fill="#76ff03" stroke-linecap="round" stroke-opacity="0.1" />
<path d="M400,550 Q409.0,470.0 418,390" stroke="#4e342e" stroke-width="35" fill="none" stroke-linecap="round" stroke-opacity="1.0" />
<path d="M418,430 Q499.34328358208955,410 561.6437128680941,353.62328306916106" stroke="#5d4037" stroke-width="8" fill="none" stroke-linecap="round" stroke-opacity="1.0" />
<circle cx="578.3427517745275" cy="367.3300981477289" r="9" fill="#2e7d32" fill-opacity="0.7" />
<circle cx="569.5934930416469" cy="325.7618200257904" r="12" fill="#2e7d32" fill-opacity="0.7" />
<circle cx="550.2848249619101" cy="374.5422866564319" r="8" fill="#2e7d32" fill-opacity="0.7" />
<circle cx="537.8343150008923" cy="331.6485909123583" r="13" fill="#66bb6a" fill-opacity="0.7" />
<circle cx="556.747212562745" cy="365.0645494436996" r="15" fill="#66bb6a" fill-opacity="0.7" />
<circle cx="553.0114793440293" cy="356.1460291721884" r="14" fill="#a5d6a7" fill-opacity="0.7" />
<circle cx="533.0300018783702" cy="350.1177055601506" r="8" fill="#2e7d32" fill-opacity="0.7" />
<circle cx="565.9705011133179" cy="345.17545707542854" r="15" fill="#43a047" fill-opacity="0.7" />
<circle cx="576.9822691298523" cy="336.62160004974197" r="11" fill="#66bb6a" fill-opacity="0.7" />
<circle cx="528.3339423679156" cy="349.24521755694434" r="8" fill="#66bb6a" fill-opacity="0.7" />
<circle cx="557.9947160505388" cy="360.852998507679" r="12" fill="#2e7d32" fill-opacity="0.7" />
<path d="M418,415 Q352.8880597014925,395 330.86321581371584,318.2247969807423" stroke="#5d4037" stroke-width="8" fill="none" stroke-linecap="round" stroke-opacity="1.0" />
<circle cx="341.3361191846312" cy="300.75817568255604" r="16" fill="#66bb6a" fill-opacity="0.7" />
<circle cx="321.2992730176705" cy="340.67927617487817" r="10" fill="#66bb6a" fill-opacity="0.7" />
<circle cx="303.55008635739955" cy="308.11195314282946" r="9" fill="#43a047" fill-opacity="0.7" />
<circle cx="296.1566064532928" cy="289.5622711343682" r="10" fill="#2e7d32" fill-opacity="0.7" />
<circle cx="304.86169582541464" cy="293.40368937223167" r="8" fill="#43a047" fill-opacity="0.7" />
<circle cx="305.4973311799575" cy="301.5005091075698" r="9" fill="#66bb6a" fill-opacity="0.7" />
<circle cx="322.39107933698773" cy="305.4126606983331" r="14" fill="#43a047" fill-opacity="0.7" />
<circle cx="337.35050565078865" cy="300.1527767383466" r="11" fill="#43a047" fill-opacity="0.7" />
<circle cx="305.7432273633263" cy="296.2808964976882" r="8" fill="#66bb6a" fill-opacity="0.7" />
<circle cx="297.37894083659825" cy="293.14151955203425" r="11" fill="#a5d6a7" fill-opacity="0.7" />
<path d="M418,400 Q475.8358208955224,380 519.1686974676167,343.92127527001327" stroke="#5d4037" stroke-width="8" fill="none" stroke-linecap="round" stroke-opacity="1.0" />
<circle cx="546.3230656704685" cy="317.41405277610363" r="8" fill="#43a047" fill-opacity="0.7" />
<circle cx="517.0868832058158" cy="330.9739834204752" r="16" fill="#43a047" fill-opacity="0.7" />
<circle cx="550.6224816683225" cy="368.5220604578801" r="10" fill="#43a047" fill-opacity="0.7" />
<circle cx="547.8261373399255" cy="344.6290576233625" r="15" fill="#66bb6a" fill-opacity="0.7" />
<circle cx="553.5617538906196" cy="372.971299309557" r="12" fill="#2e7d32" fill-opacity="0.7" />
<circle cx="484.26866217931826" cy="336.0901736821986" r="13" fill="#43a047" fill-opacity="0.7" />
<circle cx="516.1094932979181" cy="371.7577360000736" r="16" fill="#2e7d32" fill-opacity="0.7" />
<circle cx="484.55052627197074" cy="310.5782212393157" r="15" fill="#43a047" fill-opacity="0.7" />
<circle cx="512.4439829735932" cy="323.0202623644948" r="10" fill="#a5d6a7" fill-opacity="0.7" />
<circle cx="509.0051210170816" cy="328.0132466581694" r="13" fill="#66bb6a" fill-opacity="0.7" />
<path d="M418,385 Q360.72388059701495,365 367.7836037073706,282.04112977095366" stroke="#5d4037" stroke-width="8" fill="none" stroke-linecap="round" stroke-opacity="1.0" />
<circle cx="373.4316737882179" cy="310.3217222632033" r="13" fill="#43a047" fill-opacity="0.7" />
<circle cx="400.78768447593063" cy="282.70313184228877" r="14" fill="#a5d6a7" fill-opacity="0.7" />
<circle cx="394.2225505204792" cy="255.2340944157056" r="12" fill="#a5d6a7" fill-opacity="0.7" />
<circle cx="353.18229484000904" cy="279.1029506436913" r="9" fill="#43a047" fill-opacity="0.7" />
<circle cx="345.0426136610548" cy="282.27135862468526" r="12" fill="#2e7d32" fill-opacity="0.7" />
<circle cx="335.38691893032666" cy="268.71966543237096" r="16" fill="#66bb6a" fill-opacity="0.7" />
<circle cx="384.2145565594346" cy="278.61029016048684" r="8" fill="#66bb6a" fill-opacity="0.7" />
<circle cx="385.2852189144264" cy="256.2987884281048" r="9" fill="#a5d6a7" fill-opacity="0.7" />
<circle cx="345.4960635479499" cy="268.44407746472467" r="14" fill="#43a047" fill-opacity="0.7" />
<circle cx="388.21868711599166" cy="285.8804298629954" r="9" fill="#2e7d32" fill-opacity="0.7" />
<path d="M418,370 Q475.27611940298505,350 518.1896455566398,314.4639726061099" stroke="#5d4037" stroke-width="8" fill="none" stroke-linecap="round" stroke-opacity="1.0" />
<circle cx="522.3735431843818" cy="339.9017937295404" r="8" fill="#43a047" fill-opacity="0.7" />
<circle cx="539.2625252682489" cy="305.3918522051315" r="8" fill="#43a047" fill-opacity="0.7" />
<circle cx="503.5000911951622" cy="333.8102112077784" r="14" fill="#66bb6a" fill-opacity="0.7" />
<circle cx="546.3343972214252" cy="332.74169003885027" r="8" fill="#66bb6a" fill-opacity="0.7" />
<circle cx="485.72520280471025" cy="287.90749598003094" r="13" fill="#43a047" fill-opacity="0.7" />
<circle cx="516.3619812687706" cy="314.8709089418377" r="10" fill="#a5d6a7" fill-opacity="0.7" />
<circle cx="549.4354801233868" cy="305.9094263462564" r="12" fill="#2e7d32" fill-opacity="0.7" />
<circle cx="489.3825009694858" cy="329.8441921312826" r="14" fill="#43a047" fill-opacity="0.7" />
<circle cx="501.97656534825114" cy="323.76758650443094" r="15" fill="#43a047" fill-opacity="0.7" />
<circle cx="538.3696355698097" cy="279.95694698285496" r="13" fill="#66bb6a" fill-opacity="0.7" />
<path d="M418,355 Q361.84328358208955,335 329.49580715088683,285.85294624140926" stroke="#5d4037" stroke-width="8" fill="none" stroke-linecap="round" stroke-opacity="1.0" />
<circle cx="345.7978605362902" cy="277.65533074491344" r="8" fill="#2e7d32" fill-opacity="0.7" />
<circle cx="336.39063697553956" cy="293.98952788520194" r="16" fill="#66bb6a" fill-opacity="0.7" />
<circle cx="311.1120333603298" cy="262.2577485536632" r="14" fill="#66bb6a" fill-opacity="0.7" />
<circle cx="347.63544135507465" cy="262.06794442119923" r="10" fill="#43a047" fill-opacity="0.7" />
<circle cx="331.22204871266547" cy="298.4914510271312" r="15" fill="#a5d6a7" fill-opacity="0.7" />
<circle cx="296.8254408383601" cy="279.14392637542727" r="16" fill="#43a047" fill-opacity="0.7" />
<circle cx="329.490345160921" cy="281.264913884283" r="9" fill="#66bb6a" fill-opacity="0.7" />
<circle cx="326.3728242818843" cy="290.99485818586936" r="15" fill="#43a047" fill-opacity="0.7" />
<circle cx="340.4859181335303" cy="304.4309344881915" r="8" fill="#43a047" fill-opacity="0.7" />
<circle cx="298.85582865179424" cy="305.7198984885847" r="16" fill="#43a047" fill-opacity="0.7" />
<text x="400" y="580" font-family="Segoe UI, Helvetica, Arial, sans-serif" font-size="20" fill="#3e2723" text-anchor="middle" font-weight="bold">@prithwiraj84's Contribution Garden</text>
<text x="400" y="595" font-family="Segoe UI, Helvetica, Arial, sans-serif" font-size="14" fill="#5d4037" text-anchor="middle" font-weight="bold">Grown over 5 years</text></svg>