<svg xmlns="http://www.w3.org/2000/svg" width="800" height="600" viewBox="0 0 800 600">
        <defs>
            <linearGradient id="sky" x1="0%" y1="0%" x2="0%" y2="100%">
                <stop offset="0%" style="stop-color:#e0f7fa;stop-opacity:1" />
                <stop offset="100%" style="stop-color:#ffffff;stop-opacity:1" />
            </linearGradient>
            <filter id="glow" x="-20%" y="-20%" width="140%" height="140%">
                <feGaussianBlur stdDeviation="2" result="coloredBlur"/>
                <feMerge>
                    <feMergeNode in="coloredBlur"/>
                    <feMergeNode in="SourceGraphic"/>
                </feMerge>
            </filter>
        </defs>
        <rect width="100%" height="100%" fill="url(#sky)"/><path d="M0,550 Q400,530 800,550 L800,600 L0,600 Z" stroke="#4e342e" stroke-width="0" fill="#5d4037" stroke-linecap="round" stroke-opacity="1.0" />
<path d="M0,550 Q400,530 800,550" stroke="none" stroke-width="0" fill="#76ff03" stroke-linecap="round" stroke-opacity="0.1" />
<path d="M400,550 Q412.0,470.0 424,390" stroke="#4e342e" stroke-width="35" fill="none" stroke-linecap="round" stroke-opacity="1.0" />
<path d="M424,430 Q496.94117647058823,410 494.7251681300539,302.40841919378227" stroke="#5d4037" stroke-width="8" fill="none" stroke-linecap="round" stroke-opacity="1.0" />
<circle cx="483.4217980939556" cy="297.91060090699034" r="13" fill="#43a047" fill-opacity="0.7" />
<circle cx="475.9009728781708" cy="325.9297239014022" r="12" fill="#a5d6a7" fill-opacity="0.7" />
<circle cx="523.1150145235741" cy="290.09052173235006" r="11" fill="#a5d6a7" fill-opacity="0.7" />
<circle cx="483.5573487349291" cy="302.6184767239854" r="9" fill="#43a047" fill-opacity="0.7" />
<circle cx="475.1232108365597" cy="323.92456829236767" r="8" fill="#2e7d32" fill-opacity="0.7" />
<circle cx="507.41667983161483" cy="333.0594844736648" r="13" fill="#2e7d32" fill-opacity="0.7" />
<circle cx="476.08353962755467" cy="318.3913400981128" r="8" fill="#2e7d32" fill-opacity="0.7" />
<circle cx="496.4983467952031" cy="280.39985281614867" r="11" fill="#66bb6a" fill-opacity="0.7" />
<circle cx="508.73693071074706" cy="286.44392654642826" r="16" fill="#a5d6a7" fill-opacity="0.7" />
<circle cx="492.00166110208573" cy="294.90068458796844" r="14" fill="#2e7d32" fill-opacity="0.7" />
<path d="M424,415 Q354.5882352941177,395 322.4708978928681,320.32258060308845" stroke="#5d4037" stroke-width="8" fill="none" stroke-linecap="round" stroke-opacity="1.0" />
<circle cx="354.5643449175183" cy="326.2322326112112" r="16" fill="#a5d6a7" fill-opacity="0.7" />
<circle cx="340.8858308195452" cy="291.28292666662185" r="12" fill="#a5d6a7" fill-opacity="0.7" />
<circle cx="331.6790896604794" cy="334.3685734241383" r="11" fill="#43a047" fill-opacity="0.7" />
<circle cx="298.1128678999249" cy="338.36128965881176" r="15" fill="#66bb6a" fill-opacity="0.7" />
<circle cx="301.3701739237771" cy="299.6724998802537" r="12" fill="#43a047" fill-opacity="0.7" />
<circle cx="298.4982544194841" cy="295.9638549956977" r="11" fill="#2e7d32" fill-opacity="0.7" />
<circle cx="347.87938846246163" cy="344.65772178239934" r="14" fill="#43a047" fill-opacity="0.7" />
<circle cx="311.1525955508341" cy="350.76064207188534" r="11" fill="#a5d6a7" fill-opacity="0.7" />
<circle cx="337.9339334900021" cy="310.8589844933015" r="13" fill="#2e7d32" fill-opacity="0.7" />
<circle cx="332.8323083148124" cy="337.98195624660514" r="8" fill="#2e7d32" fill-opacity="0.7" />
<path d="M424,400 Q485.47058823529414,380 504.6566688582447,307.2151163137886" stroke="#5d4037" stroke-width="8" fill="none" stroke-linecap="round" stroke-opacity="1.0" />
<circle cx="509.038167271336" cy="316.88245474974104" r="11" fill="#2e7d32" fill-opacity="0.7" />
<circle cx="485.4344877637113" cy="312.0979879064952" r="8" fill="#2e7d32" fill-opacity="0.7" />
<circle cx="486.72778192933816" cy="313.88915342983563" r="8" fill="#a5d6a7" fill-opacity="0.7" />
<circle cx="506.38453798137647" cy="323.12501709221766" r="9" fill="#66bb6a" fill-opacity="0.7" />
<circle cx="501.7478114825184" cy="316.0197355813021" r="16" fill="#a5d6a7" fill-opacity="0.7" />
<circle cx="527.6980817751539" cy="292.19209124846657" r="13" fill="#a5d6a7" fill-opacity="0.7" />
<circle cx="514.5367507744463" cy="294.17517208501005" r="10" fill="#43a047" fill-opacity="0.7" />
<circle cx="504.5550775294919" cy="315.1452287427978" r="15" fill="#a5d6a7" fill-opacity="0.7" />
<circle cx="486.7610381524122" cy="335.3124335249288" r="16" fill="#2e7d32" fill-opacity="0.7" />
<circle cx="506.779346393419" cy="317.73084676335037" r="16" fill="#a5d6a7" fill-opacity="0.7" />
<path d="M424,385 Q363.4117647058824,365 341.35784578066193,296.3771396861476" stroke="#5d4037" stroke-width="8" fill="none" stroke-linecap="round" stroke-opacity="1.0" />
<circle cx="327.26098889571193" cy="321.01187344926757" r="9" fill="#2e7d32" fill-opacity="0.7" />
<circle cx="371.29734618345594" cy="308.1391147393842" r="11" fill="#2e7d32" fill-opacity="0.7" />
<circle cx="328.20886232034036" cy="308.74221783194747" r="11" fill="#66bb6a" fill-opacity="0.7" />
<circle cx="370.63543857804234" cy="303.87521320704286" r="12" fill="#43a047" fill-opacity="0.7" />
<circle cx="375.62869413453535" cy="314.9691395605098" r="11" fill="#2e7d32" fill-opacity="0.7" />
<circle cx="321.216962315946" cy="290.9968548952479" r="12" fill="#66bb6a" fill-opacity="0.7" />
<circle cx="370.2693326797215" cy="298.4050354400849" r="11" fill="#a5d6a7" fill-opacity="0.7" />
<circle cx="331.2105940200466" cy="277.7430955019066" r="14" fill="#43a047" fill-opacity="0.7" />
<circle cx="313.0270760861955" cy="288.87296695882" r="8" fill="#66bb6a" fill-opacity="0.7" />
<circle cx="322.6643157842659" cy="311.0910279094503" r="11" fill="#2e7d32" fill-opacity="0.7" />
<path d="M424,370 Q481.05882352941177,350 511.41918939122456,296.6465904240067" stroke="#5d4037" stroke-width="8" fill="none" stroke-linecap="round" stroke-opacity="1.0" />
<circle cx="517.3912834023137" cy="320.61605706117365" r="9" fill="#43a047" fill-opacity="0.7" />
<circle cx="509.8494716156252" cy="285.79525729621855" r="9" fill="#66bb6a" fill-opacity="0.7" />
<circle cx="503.29811693636674" cy="290.1722864010385" r="10" fill="#2e7d32" fill-opacity="0.7" />
<circle cx="505.10544409453183" cy="323.5129905401094" r="16" fill="#43a047" fill-opacity="0.7" />
<circle cx="505.1682457190533" cy="318.88485794683356" r="10" fill="#2e7d32" fill-opacity="0.7" />
<circle cx="504.16653999833494" cy="288.41439338664844" r="10" fill="#66bb6a" fill-opacity="0.7" />
<circle cx="515.4858557383258" cy="279.02555293956044" r="16" fill="#66bb6a" fill-opacity="0.7" />
<circle cx="486.9788455800768" cy="276.23441016810074" r="11" fill="#a5d6a7" fill-opacity="0.7" />
<circle cx="539.6068844615831" cy="280.7942322162952" r="10" fill="#66bb6a" fill-opacity="0.7" />
<circle cx="512.2141140961346" cy="286.12838682698913" r="13" fill="#2e7d32" fill-opacity="0.7" />
<path d="M424,355 Q370.47058823529414,335 338.4990218655251,290.570391639016" stroke="#5d4037" stroke-width="8" fill="none" stroke-linecap="round" stroke-opacity="1.0" />
<circle cx="335.00306042142694" cy="304.97638658220194" r="10" fill="#66bb6a" fill-opacity="0.7" />
<circle cx="311.8783345492487" cy="279.6881176904593" r="9" fill="#66bb6a" fill-opacity="0.7" />
<circle cx="341.251299401063" cy="270.5214780730054" r="14" fill="#43a047" fill-opacity="0.7" />
<circle cx="334.79601747839575" cy="271.6385661764622" r="12" fill="#a5d6a7" fill-opacity="0.7" />
<circle cx="325.66665306258153" cy="300.7046806171568" r="10" fill="#43a047" fill-opacity="0.7" />
<circle cx="328.928961075825" cy="265.2857695795451" r="9" fill="#66bb6a" fill-opacity="0.7" />
<circle cx="352.15147344346576" cy="311.9684893346771" r="13" fill="#2e7d32" fill-opacity="0.7" />
<circle cx="330.14350940165275" cy="291.5387302705501" r="16" fill="#43a047" fill-opacity="0.7" />
<circle cx="343.6847543356279" cy="304.2643544769983" r="15" fill="#a5d6a7" fill-opacity="0.7" />
<circle cx="368.677069229989" cy="314.2086287975695" r="11" fill="#43a047" fill-opacity="0.7" />
<text x="400" y="580" font-family="Segoe UI, Helvetica, Arial, sans-serif" font-size="20" fill="#3e2723" text-anchor="middle" font-weight="bold">@prithwiraj84's Contribution Garden</text>
<text x="400" y="595" font-family="Segoe UI, Helvetica, Arial, sans-serif" font-size="14" fill="#5d4037" text-anchor="middle" font-weight="bold">Grown over 5 years</text></svg>