<svg xmlns="http://www.w3.org/2000/svg" width="800" height="600" viewBox="0 0 800 600">
        <defs>
            <linearGradient id="sky" x1="0%" y1="0%" x2="0%" y2="100%">
                <stop offset="0%" style="stop-color:#e0f7fa;stop-opacity:1" />
                <stop offset="100%" style="stop-color:#ffffff;stop-opacity:1" />
            </linearGradient>
            <filter id="glow" x="-20%" y="-20%" width="140%" height="140%">
                <feGaussianBlur stdDeviation="2" result="coloredBlur"/>
                <feMerge>
                    <feMergeNode in="coloredBlur"/>
                    <feMergeNode in="SourceGraphic"/>
                </feMerge>
            </filter>
        </defs>
        <rect width="100%" height="100%" fill="url(#sky)"/><path d="M0,550 Q400,530 800,550 L800,600 L0,600 Z" stroke="#4e342e" stroke-width="0" fill="#5d4037" stroke-linecap="round" stroke-opacity="1.0" />
<path d="M0,550 Q400,530 800,550" stroke="none" stroke-width="0" fill="#76ff03" stroke-linecap="round" stroke-opacity="0.1" />
<path d="M400,550 Q399.0,470.0 398,390" stroke="#4e342e" stroke-width="35" fill="none" stroke-linecap="round" stroke-opacity="1.0" />
<path d="M398,430 Q486.3928571428571,410 472.7128712720165,269.7777305060208" stroke="#5d4037" stroke-width="8" fill="none" stroke-linecap="round" stroke-opacity="1.0" />
<circle cx="437.98316827129406" cy="273.89278764904367" r="14" fill="#66bb6a" fill-opacity="0.7" />
<circle cx="465.8073888591165" cy="238.66507238354797" r="11" fill="#66bb6a" fill-opacity="0.7" />
<circle cx="507.00342224108425" cy="248.32006581533548" r="15" fill="#43a047" fill-opacity="0.7" />
<circle cx="478.86304032103266" cy="257.65458612541363" r="13" fill="#2e7d32" fill-opacity="0.7" />
<circle cx="455.215068040702" cy="241.8775782079249" r="9" fill="#43a047" fill-opacity="0.7" />
<circle cx="459.85149937659133" cy="251.7159168283927" r="10" fill="#2e7d32" fill-opacity="0.7" />
<circle cx="467.8437032575119" cy="244.75283581301278" r="11" fill="#a5d6a7" fill-opacity="0.7" />
<circle cx="465.47745259455706" cy="290.77081340658333" r="8" fill="#43a047" fill-opacity="0.7" />
<circle cx="441.5780822953704" cy="271.0112412746345" r="12" fill="#a5d6a7" fill-opacity="0.7" />
<circle cx="494.5661666726858" cy="293.35196481814654" r="16" fill="#43a047" fill-opacity="0.7" />
<circle cx="448.7969276206783" cy="282.26203717435584" r="16" fill="#2e7d32" fill-opacity="0.7" />
<circle cx="481.34031442449947" cy="276.61121306422285" r="12" fill="#66bb6a" fill-opacity="0.7" />
<circle cx="464.3045326089094" cy="270.34645622743307" r="8" fill="#2e7d32" fill-opacity="0.7" />
<circle cx="495.56493282627684" cy="279.96856612176646" r="16" fill="#66bb6a" fill-opacity="0.7" />
<circle cx="469.2778177709893" cy="271.9854759697637" r="13" fill="#a5d6a7" fill-opacity="0.7" />
<circle cx="442.3674698225168" cy="248.5870938113669" r="8" fill="#43a047" fill-opacity="0.7" />
<circle cx="455.4663108581282" cy="242.2839837374566" r="11" fill="#43a047" fill-opacity="0.7" />
<path d="M398,415 Q334.6071428571429,395 313.163798122359,320.7798524841161" stroke="#5d4037" stroke-width="8" fill="none" stroke-linecap="round" stroke-opacity="1.0" />
<circle cx="299.83091530338254" cy="289.1924835116455" r="16" fill="#43a047" fill-opacity="0.7" />
<circle cx="325.49559435699564" cy="296.771630940614" r="9" fill="#66bb6a" fill-opacity="0.7" />
<circle cx="319.67775434834874" cy="294.1189887530994" r="13" fill="#2e7d32" fill-opacity="0.7" />
<circle cx="340.39108623754805" cy="344.5191937758824" r="9" fill="#2e7d32" fill-opacity="0.7" />
<circle cx="311.4795932539584" cy="292.46434832434585" r="16" fill="#a5d6a7" fill-opacity="0.7" />
<circle cx="313.73020252286096" cy="345.0177466818682" r="16" fill="#a5d6a7" fill-opacity="0.7" />
<circle cx="337.36325904933904" cy="346.06764645457855" r="9" fill="#66bb6a" fill-opacity="0.7" />
<circle cx="278.3239587585373" cy="355.5451600261569" r="13" fill="#43a047" fill-opacity="0.7" />
<circle cx="300.7500223723147" cy="295.83927910270495" r="16" fill="#a5d6a7" fill-opacity="0.7" />
<circle cx="308.8151819040697" cy="345.3702368897023" r="12" fill="#43a047" fill-opacity="0.7" />
<path d="M398,400 Q454.25,380 478.9257275380983,321.8509333233628" stroke="#5d4037" stroke-width="8" fill="none" stroke-linecap="round" stroke-opacity="1.0" />
<circle cx="467.7262091071905" cy="338.4403685568716" r="9" fill="#a5d6a7" fill-opacity="0.7" />
<circle cx="482.30037257808044" cy="351.8639572235435" r="9" fill="#66bb6a" fill-opacity="0.7" />
<circle cx="462.650062231562" cy="343.11381550720114" r="14" fill="#a5d6a7" fill-opacity="0.7" />
<circle cx="505.4501072384396" cy="335.3845651613212" r="15" fill="#2e7d32" fill-opacity="0.7" />
<circle cx="510.86106448877143" cy="353.97444388609597" r="12" fill="#2e7d32" fill-opacity="0.7" />
<circle cx="449.7289604901362" cy="289.87221532206837" r="14" fill="#a5d6a7" fill-opacity="0.7" />
<circle cx="485.5486109648781" cy="301.9940999418053" r="9" fill="#a5d6a7" fill-opacity="0.7" />
<circle cx="507.796406074214" cy="321.79395302474165" r="12" fill="#a5d6a7" fill-opacity="0.7" />
<circle cx="493.3123671273052" cy="353.1883321030758" r="12" fill="#43a047" fill-opacity="0.7" />
<circle cx="482.45775021501527" cy="355.1276734463136" r="10" fill="#66bb6a" fill-opacity="0.7" />
<circle cx="477.9402351480213" cy="336.13271528862174" r="5" fill="#ffeb3b" fill-opacity="1.0" />
<circle cx="477.9402351480213" cy="336.13271528862174" r="9" fill="#ffeb3b" fill-opacity="0.3" />
<path d="M398,385 Q342.19642857142856,365 308.8665725393646,317.83314473749465" stroke="#5d4037" stroke-width="8" fill="none" stroke-linecap="round" stroke-opacity="1.0" />
<circle cx="333.9011963224611" cy="302.15884906768497" r="12" fill="#2e7d32" fill-opacity="0.7" />
<circle cx="330.03857034903785" cy="289.88979433329473" r="15" fill="#66bb6a" fill-opacity="0.7" />
<circle cx="298.0283895727167" cy="311.7781997817126" r="8" fill="#a5d6a7" fill-opacity="0.7" />
<circle cx="324.87418051636797" cy="301.62349820851784" r="12" fill="#a5d6a7" fill-opacity="0.7" />
<circle cx="317.80126653133357" cy="321.72383250872383" r="10" fill="#43a047" fill-opacity="0.7" />
<circle cx="299.05633058236566" cy="317.7844561919057" r="16" fill="#a5d6a7" fill-opacity="0.7" />
<circle cx="275.648334667233" cy="297.8281075022314" r="11" fill="#43a047" fill-opacity="0.7" />
<circle cx="306.99694882811275" cy="293.14945478059394" r="11" fill="#43a047" fill-opacity="0.7" />
<circle cx="316.08813401083194" cy="294.88481619405377" r="10" fill="#66bb6a" fill-opacity="0.7" />
<circle cx="277.1416169424325" cy="326.05106077537545" r="15" fill="#66bb6a" fill-opacity="0.7" />
<path d="M398,370 Q453.80357142857144,350 493.6659933819322,312.51807199664574" stroke="#5d4037" stroke-width="8" fill="none" stroke-linecap="round" stroke-opacity="1.0" />
<circle cx="518.8656737399047" cy="326.1131880371148" r="16" fill="#a5d6a7" fill-opacity="0.7" />
<circle cx="520.0455425192874" cy="336.0930324848515" r="11" fill="#66bb6a" fill-opacity="0.7" />
<circle cx="510.0091755455243" cy="336.51435916049286" r="9" fill="#2e7d32" fill-opacity="0.7" />
<circle cx="483.90975412841107" cy="299.2482372605056" r="9" fill="#66bb6a" fill-opacity="0.7" />
<circle cx="514.5729123017379" cy="315.6630437758465" r="15" fill="#2e7d32" fill-opacity="0.7" />
<circle cx="502.83198324994737" cy="342.5962983309645" r="11" fill="#66bb6a" fill-opacity="0.7" />
<circle cx="471.8560671020148" cy="313.24346174416075" r="13" fill="#2e7d32" fill-opacity="0.7" />
<circle cx="500.68580015843736" cy="319.270459802043" r="8" fill="#43a047" fill-opacity="0.7" />
<circle cx="464.1512121557349" cy="340.31202047429656" r="14" fill="#66bb6a" fill-opacity="0.7" />
<circle cx="466.8735204031872" cy="277.58369451038243" r="13" fill="#2e7d32" fill-opacity="0.7" />
<path d="M398,355 Q342.64285714285717,335 336.0893571157388,263.21369732426325" stroke="#5d4037" stroke-width="8" fill="none" stroke-linecap="round" stroke-opacity="1.0" />
<circle cx="314.7209707484874" cy="251.42166806813313" r="14" fill="#43a047" fill-opacity="0.7" />
<circle cx="347.32904534161537" cy="239.50622232929243" r="11" fill="#a5d6a7" fill-opacity="0.7" />
<circle cx="315.18704027856495" cy="284.10246378994094" r="9" fill="#66bb6a" fill-opacity="0.7" />
<circle cx="326.51230765351147" cy="292.0078072526949" r="11" fill="#2e7d32" fill-opacity="0.7" />
<circle cx="335.187799676907" cy="244.7465717034226" r="8" fill="#a5d6a7" fill-opacity="0.7" />
<circle cx="367.4782156716648" cy="290.45685445494826" r="15" fill="#a5d6a7" fill-opacity="0.7" />
<circle cx="323.9894335989249" cy="252.32460085593019" r="9" fill="#a5d6a7" fill-opacity="0.7" />
<circle cx="322.8049476389638" cy="233.15063443109082" r="10" fill="#a5d6a7" fill-opacity="0.7" />
<circle cx="307.87818157596143" cy="250.51491927713016" r="11" fill="#43a047" fill-opacity="0.7" />
<circle cx="303.3782765063147" cy="271.8178379550142" r="15" fill="#2e7d32" fill-opacity="0.7" />
<text x="400" y="580" font-family="Segoe UI, Helvetica, Arial, sans-serif" font-size="20" fill="#3e2723" text-anchor="middle" font-weight="bold">@prithwiraj84's Contribution Garden</text>
<text x="400" y="595" font-family="Segoe UI, Helvetica, Arial, sans-serif" font-size="14" fill="#5d4037" text-anchor="middle" font-weight="bold">Grown over 5 years</text></svg>