<svg xmlns="http://www.w3.org/2000/svg" width="800" height="600" viewBox="0 0 800 600">
        <defs>
            <linearGradient id="sky" x1="0%" y1="0%" x2="0%" y2="100%">
                <stop offset="0%" style="stop-color:#e0f7fa;stop-opacity:1" />
                <stop offset="100%" style="stop-color:#ffffff;stop-opacity:1" />
            </linearGradient>
            <filter id="glow" x="-20%" y="-20%" width="140%" height="140%">
                <feGaussianBlur stdDeviation="2" result="coloredBlur"/>
                <feMerge>
                    <feMergeNode in="coloredBlur"/>
                    <feMergeNode in="SourceGraphic"/>
                </feMerge>
            </filter>
        </defs>
        <rect width="100%" height="100%" fill="url(#sky)"/><path d="M0,550 Q400,530 800,550 L800,600 L0,600 Z" stroke="#4e342e" stroke-width="0" fill="#5d4037" stroke-linecap="round" stroke-opacity="1.0" />
<path d="M0,550 Q400,530 800,550" stroke="none" stroke-width="0" fill="#76ff03" stroke-linecap="round" stroke-opacity="0.1" />
<path d="M400,550 Q413.5,470.0 427,390" stroke="#4e342e" stroke-width="35" fill="none" stroke-linecap="round" stroke-opacity="1.0" />
<path d="M427,430 Q511.375,410 546.3242693252299,310.67573067477014" stroke="#5d4037" stroke-width="8" fill="none" stroke-linecap="round" stroke-opacity="1.0" />
<circle cx="524.2319124347035" cy="323.4776174747525" r="9" fill="#a5d6a7" fill-opacity="0.7" />
<circle cx="575.3512364330211" cy="312.1825382662467" r="13" fill="#66bb6a" fill-opacity="0.7" />
<circle cx="559.7470834844919" cy="317.33132649092465" r="16" fill="#2e7d32" fill-opacity="0.7" />
<circle cx="569.7530086489163" cy="320.6260257636524" r="12" fill="#a5d6a7" fill-opacity="0.7" />
<circle cx="533.4098112762136" cy="299.86140555839046" r="13" fill="#a5d6a7" fill-opacity="0.7" />
<circle cx="523.7793702066199" cy="322.97698231556365" r="14" fill="#66bb6a" fill-opacity="0.7" />
<circle cx="512.5188417455299" cy="302.6384164600963" r="13" fill="#43a047" fill-opacity="0.7" />
<circle cx="519.2134938112098" cy="306.1407127742837" r="15" fill="#66bb6a" fill-opacity="0.7" />
<circle cx="551.47449637115" cy="299.48943741139055" r="13" fill="#66bb6a" fill-opacity="0.7" />
<circle cx="520.143025106467" cy="344.5500046472588" r="16" fill="#a5d6a7" fill-opacity="0.7" />
<circle cx="563.6499178702488" cy="288.2041640678037" r="14" fill="#2e7d32" fill-opacity="0.7" />
<circle cx="537.302768768557" cy="308.6489059253692" r="11" fill="#43a047" fill-opacity="0.7" />
<circle cx="568.5473578161709" cy="304.101336143428" r="12" fill="#43a047" fill-opacity="0.7" />
<path d="M427,415 Q362.9375,395 348.1183734739,314.0361221941387" stroke="#5d4037" stroke-width="8" fill="none" stroke-linecap="round" stroke-opacity="1.0" />
<circle cx="351.8912827012401" cy="348.680955125983" r="12" fill="#43a047" fill-opacity="0.7" />
<circle cx="322.3120876786569" cy="315.9881824190766" r="8" fill="#66bb6a" fill-opacity="0.7" />
<circle cx="346.6879208736559" cy="343.6884251905943" r="16" fill="#2e7d32" fill-opacity="0.7" />
<circle cx="363.2505338511763" cy="340.3878918515446" r="8" fill="#66bb6a" fill-opacity="0.7" />
<circle cx="368.3071677664345" cy="301.01266790188095" r="15" fill="#43a047" fill-opacity="0.7" />
<circle cx="325.76119385116374" cy="290.81956809078457" r="15" fill="#43a047" fill-opacity="0.7" />
<circle cx="330.6998799215274" cy="314.4846372913026" r="13" fill="#a5d6a7" fill-opacity="0.7" />
<circle cx="344.0578469047009" cy="338.59888488945955" r="16" fill="#2e7d32" fill-opacity="0.7" />
<circle cx="347.43932750739435" cy="330.9769815042565" r="8" fill="#43a047" fill-opacity="0.7" />
<circle cx="333.55529495232565" cy="344.8188105309402" r="13" fill="#66bb6a" fill-opacity="0.7" />
<path d="M427,400 Q484.2916666666667,380 479.01974476182306,297.90550243674954" stroke="#5d4037" stroke-width="8" fill="none" stroke-linecap="round" stroke-opacity="1.0" />
<circle cx="499.36388902634894" cy="302.76106430201753" r="9" fill="#a5d6a7" fill-opacity="0.7" />
<circle cx="452.7749585362238" cy="321.98305660996294" r="16" fill="#2e7d32" fill-opacity="0.7" />
<circle cx="448.3839088802068" cy="266.4769690673521" r="8" fill="#43a047" fill-opacity="0.7" />
<circle cx="499.9886068384705" cy="306.6703432375713" r="10" fill="#66bb6a" fill-opacity="0.7" />
<circle cx="468.0744019645872" cy="329.26082551937355" r="12" fill="#2e7d32" fill-opacity="0.7" />
<circle cx="462.4672418237006" cy="295.00286314934937" r="14" fill="#2e7d32" fill-opacity="0.7" />
<circle cx="480.8690803767951" cy="331.4751672589002" r="15" fill="#a5d6a7" fill-opacity="0.7" />
<circle cx="497.8895706798643" cy="298.9626458793334" r="11" fill="#2e7d32" fill-opacity="0.7" />
<circle cx="458.2769753888814" cy="317.29691262871484" r="9" fill="#66bb6a" fill-opacity="0.7" />
<circle cx="468.9096797436854" cy="299.60373704790567" r="14" fill="#a5d6a7" fill-opacity="0.7" />
<path d="M427,385 Q370.2291666666667,365 371.9539077011972,285.69422075188106" stroke="#5d4037" stroke-width="8" fill="none" stroke-linecap="round" stroke-opacity="1.0" />
<circle cx="363.74745748100054" cy="250.88670325015946" r="11" fill="#43a047" fill-opacity="0.7" />
<circle cx="358.17729365314074" cy="282.73317453408384" r="8" fill="#43a047" fill-opacity="0.7" />
<circle cx="391.6860283534079" cy="283.7727445681677" r="8" fill="#a5d6a7" fill-opacity="0.7" />
<circle cx="405.406434861285" cy="289.0462214715972" r="14" fill="#43a047" fill-opacity="0.7" />
<circle cx="355.8907897416316" cy="318.7951860626017" r="14" fill="#43a047" fill-opacity="0.7" />
<circle cx="350.7419911924643" cy="305.7224909461072" r="8" fill="#a5d6a7" fill-opacity="0.7" />
<circle cx="367.7237687033971" cy="294.62992917296145" r="11" fill="#66bb6a" fill-opacity="0.7" />
<circle cx="342.4502720954865" cy="292.7405919231016" r="8" fill="#66bb6a" fill-opacity="0.7" />
<circle cx="375.77283099464023" cy="301.0326259764307" r="16" fill="#66bb6a" fill-opacity="0.7" />
<circle cx="369.4420503204157" cy="285.0815464174191" r="10" fill="#2e7d32" fill-opacity="0.7" />
<path d="M427,370 Q483.7708333333333,350 478.54683799126104,268.8336342327791" stroke="#5d4037" stroke-width="8" fill="none" stroke-linecap="round" stroke-opacity="1.0" />
<circle cx="477.72365195481166" cy="296.78639358336983" r="14" fill="#a5d6a7" fill-opacity="0.7" />
<circle cx="462.06135444806193" cy="269.9455306858537" r="15" fill="#2e7d32" fill-opacity="0.7" />
<circle cx="479.99514041568614" cy="299.60960049169057" r="8" fill="#2e7d32" fill-opacity="0.7" />
<circle cx="448.7577737607046" cy="258.76934905335906" r="11" fill="#66bb6a" fill-opacity="0.7" />
<circle cx="505.3235649600306" cy="266.48475646813296" r="9" fill="#2e7d32" fill-opacity="0.7" />
<circle cx="489.72786931392494" cy="242.0135134339951" r="8" fill="#a5d6a7" fill-opacity="0.7" />
<circle cx="461.51867680513897" cy="255.34457986291255" r="10" fill="#2e7d32" fill-opacity="0.7" />
<circle cx="490.19908599265153" cy="248.02255434148893" r="8" fill="#2e7d32" fill-opacity="0.7" />
<circle cx="447.72876659728416" cy="253.13498550687396" r="9" fill="#a5d6a7" fill-opacity="0.7" />
<circle cx="446.2265838404304" cy="270.8291053710497" r="10" fill="#66bb6a" fill-opacity="0.7" />
<path d="M427,355 Q371.2708333333333,335 374.67348206448924,256.58813287926546" stroke="#5d4037" stroke-width="8" fill="none" stroke-linecap="round" stroke-opacity="1.0" />
<circle cx="370.3000625988511" cy="234.71270125014755" r="13" fill="#a5d6a7" fill-opacity="0.7" />
<circle cx="376.68132567172853" cy="275.8492196158278" r="12" fill="#66bb6a" fill-opacity="0.7" />
<circle cx="386.9576070803956" cy="252.3540840977266" r="8" fill="#a5d6a7" fill-opacity="0.7" />
<circle cx="344.3226701811275" cy="242.61006379269256" r="15" fill="#a5d6a7" fill-opacity="0.7" />
<circle cx="344.58970533993795" cy="283.4186737722264" r="11" fill="#2e7d32" fill-opacity="0.7" />
<circle cx="403.93824309739654" cy="221.74442168116371" r="15" fill="#43a047" fill-opacity="0.7" />
<circle cx="364.1156423764726" cy="235.65038523770045" r="10" fill="#43a047" fill-opacity="0.7" />
<circle cx="383.41107378235046" cy="270.96998335915475" r="9" fill="#43a047" fill-opacity="0.7" />
<circle cx="368.6288890843975" cy="267.15258927617117" r="10" fill="#2e7d32" fill-opacity="0.7" />
<circle cx="379.6351011877359" cy="224.45295596469646" r="8" fill="#a5d6a7" fill-opacity="0.7" />
<text x="400" y="580" font-family="Segoe UI, Helvetica, Arial, sans-serif" font-size="20" fill="#3e2723" text-anchor="middle" font-weight="bold">@prithwiraj84's Contribution Garden</text>
<text x="400" y="595" font-family="Segoe UI, Helvetica, Arial, sans-serif" font-size="14" fill="#5d4037" text-anchor="middle" font-weight="bold">Grown over 5 years</text></svg>