<svg xmlns="http://www.w3.org/2000/svg" width="800" height="600" viewBox="0 0 800 600">
        <defs>
            <linearGradient id="sky" x1="0%" y1="0%" x2="0%" y2="100%">
                <stop offset="0%" style="stop-color:#e0f7fa;stop-opacity:1" />
                <stop offset="100%" style="stop-color:#ffffff;stop-opacity:1" />
            </linearGradient>
            <filter id="glow" x="-20%" y="-20%" width="140%" height="140%">
                <feGaussianBlur stdDeviation="2" result="coloredBlur"/>
                <feMerge>
                    <feMergeNode in="coloredBlur"/>
                    <feMergeNode in="SourceGraphic"/>
                </feMerge>
            </filter>
        </defs>
        <rect width="100%" height="100%" fill="url(#sky)"/><path d="M0,550 Q400,530 800,550 L800,600 L0,600 Z" stroke="#4e342e" stroke-width="0" fill="#5d4037" stroke-linecap="round" stroke-opacity="1.0" />
<path d="M0,550 Q400,530 800,550" stroke="none" stroke-width="0" fill="#76ff03" stroke-linecap="round" stroke-opacity="0.1" />
<path d="M400,550 Q388.5,470.0 377,390" stroke="#4e342e" stroke-width="35" fill="none" stroke-linecap="round" stroke-opacity="1.0" />
<path d="M377,430 Q456.1322314049587,410 486.9397338371058,316.1540729216102" stroke="#5d4037" stroke-width="8" fill="none" stroke-linecap="round" stroke-opacity="1.0" />
<circle cx="453.8070968180026" cy="313.093658350277" r="14" fill="#43a047" fill-opacity="0.7" />
<circle cx="512.1025259296957" cy="297.7268237268562" r="13" fill="#66bb6a" fill-opacity="0.7" />
<circle cx="516.504827389103" cy="318.1985306078603" r="11" fill="#a5d6a7" fill-opacity="0.7" />
<circle cx="468.32598678579933" cy="292.3599117953785" r="16" fill="#66bb6a" fill-opacity="0.7" />
<circle cx="488.25276502407854" cy="288.4860784915019" r="9" fill="#a5d6a7" fill-opacity="0.7" />
<circle cx="467.2402889646887" cy="288.147193547069" r="11" fill="#a5d6a7" fill-opacity="0.7" />
<circle cx="487.49835553031323" cy="306.08852446259874" r="12" fill="#2e7d32" fill-opacity="0.7" />
<circle cx="485.45336372007444" cy="334.4339562330507" r="9" fill="#66bb6a" fill-opacity="0.7" />
<circle cx="501.5838834214521" cy="309.2391895585188" r="9" fill="#2e7d32" fill-opacity="0.7" />
<circle cx="512.6177316678709" cy="290.27426791655387" r="10" fill="#66bb6a" fill-opacity="0.7" />
<path d="M377,415 Q310.26446280991735,395 300.44413680107937,305.66689656803953" stroke="#5d4037" stroke-width="8" fill="none" stroke-linecap="round" stroke-opacity="1.0" />
<circle cx="283.59242900148445" cy="313.71559404795926" r="13" fill="#2e7d32" fill-opacity="0.7" />
<circle cx="298.8588990340175" cy="311.0219458459741" r="16" fill="#2e7d32" fill-opacity="0.7" />
<circle cx="275.92462269765656" cy="312.8035698555798" r="11" fill="#66bb6a" fill-opacity="0.7" />
<circle cx="279.68725184300337" cy="329.07869297424946" r="16" fill="#a5d6a7" fill-opacity="0.7" />
<circle cx="326.9538757567614" cy="314.30832005385685" r="9" fill="#66bb6a" fill-opacity="0.7" />
<circle cx="272.179255577473" cy="287.9633610293079" r="11" fill="#2e7d32" fill-opacity="0.7" />
<circle cx="266.1029683067752" cy="318.13035504426387" r="8" fill="#a5d6a7" fill-opacity="0.7" />
<circle cx="299.22861752541684" cy="270.9311062492033" r="16" fill="#43a047" fill-opacity="0.7" />
<circle cx="293.46874217395674" cy="285.20170333959516" r="8" fill="#a5d6a7" fill-opacity="0.7" />
<circle cx="308.01653201118097" cy="292.6779944210841" r="13" fill="#43a047" fill-opacity="0.7" />
<path d="M377,400 Q435.6776859504132,380 465.56922346416,323.0079486639239" stroke="#5d4037" stroke-width="8" fill="none" stroke-linecap="round" stroke-opacity="1.0" />
<circle cx="441.39099282898167" cy="356.16100893455706" r="13" fill="#66bb6a" fill-opacity="0.7" />
<circle cx="466.6960184954287" cy="324.69544024114566" r="12" fill="#a5d6a7" fill-opacity="0.7" />
<circle cx="459.162215838886" cy="314.73692137576313" r="11" fill="#43a047" fill-opacity="0.7" />
<circle cx="486.7755104803438" cy="300.3738665638558" r="16" fill="#43a047" fill-opacity="0.7" />
<circle cx="432.3752412471535" cy="299.44035458506886" r="10" fill="#66bb6a" fill-opacity="0.7" />
<circle cx="482.87053649678506" cy="338.041340056812" r="9" fill="#66bb6a" fill-opacity="0.7" />
<circle cx="464.2584138613579" cy="347.10849913142505" r="10" fill="#a5d6a7" fill-opacity="0.7" />
<circle cx="444.4908223461803" cy="347.5322298730305" r="11" fill="#2e7d32" fill-opacity="0.7" />
<circle cx="466.15878787281406" cy="301.45873788452514" r="8" fill="#2e7d32" fill-opacity="0.7" />
<circle cx="430.97858087632443" cy="290.6386992871208" r="13" fill="#66bb6a" fill-opacity="0.7" />
<path d="M377,385 Q318.9421487603306,365 281.8835849399972,318.3987691675025" stroke="#5d4037" stroke-width="8" fill="none" stroke-linecap="round" stroke-opacity="1.0" />
<circle cx="311.2400042370649" cy="319.9164281729629" r="16" fill="#2e7d32" fill-opacity="0.7" />
<circle cx="289.66359740905324" cy="335.98637201110324" r="14" fill="#66bb6a" fill-opacity="0.7" />
<circle cx="259.64153597472955" cy="309.96620112003853" r="14" fill="#43a047" fill-opacity="0.7" />
<circle cx="314.5689125812178" cy="294.7233040157679" r="15" fill="#66bb6a" fill-opacity="0.7" />
<circle cx="272.94558302513343" cy="300.69496132992606" r="9" fill="#a5d6a7" fill-opacity="0.7" />
<circle cx="283.6996841463626" cy="351.0427099076459" r="9" fill="#2e7d32" fill-opacity="0.7" />
<circle cx="306.1163034086621" cy="312.95465912195164" r="12" fill="#66bb6a" fill-opacity="0.7" />
<circle cx="260.7530074119187" cy="347.57864510515674" r="11" fill="#66bb6a" fill-opacity="0.7" />
<circle cx="310.8791672289349" cy="284.0610854912427" r="16" fill="#66bb6a" fill-opacity="0.7" />
<circle cx="273.29388312581784" cy="325.90415152579277" r="14" fill="#a5d6a7" fill-opacity="0.7" />
<path d="M377,370 Q434.43801652892563,350 468.7440792533667,300.8658775056738" stroke="#5d4037" stroke-width="8" fill="none" stroke-linecap="round" stroke-opacity="1.0" />
<circle cx="483.64442120740523" cy="321.6612434709411" r="8" fill="#66bb6a" fill-opacity="0.7" />
<circle cx="497.3991250089366" cy="300.06447839807583" r="11" fill="#43a047" fill-opacity="0.7" />
<circle cx="451.5967904093782" cy="293.2570989395615" r="14" fill="#2e7d32" fill-opacity="0.7" />
<circle cx="467.2716171368419" cy="278.1117092782819" r="15" fill="#43a047" fill-opacity="0.7" />
<circle cx="435.2551597534477" cy="295.6373544216173" r="15" fill="#43a047" fill-opacity="0.7" />
<circle cx="470.759739158796" cy="309.4698430025699" r="11" fill="#2e7d32" fill-opacity="0.7" />
<circle cx="466.14043544857003" cy="274.1953774023733" r="16" fill="#a5d6a7" fill-opacity="0.7" />
<circle cx="480.8348414802869" cy="300.51429482915705" r="9" fill="#66bb6a" fill-opacity="0.7" />
<circle cx="478.90577659468477" cy="326.82410673462994" r="16" fill="#66bb6a" fill-opacity="0.7" />
<circle cx="480.4745580925727" cy="290.9717228620668" r="16" fill="#2e7d32" fill-opacity="0.7" />
<path d="M377,355 Q322.0413223140496,335 317.1347176388441,262.81554914318895" stroke="#5d4037" stroke-width="8" fill="none" stroke-linecap="round" stroke-opacity="1.0" />
<circle cx="287.62802218339664" cy="263.01984372838876" r="16" fill="#43a047" fill-opacity="0.7" />
<circle cx="302.07191344815215" cy="291.0989880800711" r="9" fill="#43a047" fill-opacity="0.7" />
<circle cx="283.0203551026349" cy="230.416607607564" r="9" fill="#66bb6a" fill-opacity="0.7" />
<circle cx="291.1173106052004" cy="282.58857603180206" r="14" fill="#43a047" fill-opacity="0.7" />
<circle cx="330.28531941294574" cy="281.8423457816742" r="11" fill="#43a047" fill-opacity="0.7" />
<circle cx="288.33895391952683" cy="232.40440460320465" r="9" fill="#43a047" fill-opacity="0.7" />
<circle cx="299.6454143773585" cy="255.09085435348436" r="16" fill="#66bb6a" fill-opacity="0.7" />
<circle cx="334.70813427236834" cy="228.7175428494947" r="13" fill="#43a047" fill-opacity="0.7" />
<circle cx="297.83947345161073" cy="272.0345356640719" r="9" fill="#a5d6a7" fill-opacity="0.7" />
<circle cx="339.66955848144806" cy="282.30786996854295" r="12" fill="#66bb6a" fill-opacity="0.7" />
<text x="400" y="580" font-family="Segoe UI, Helvetica, Arial, sans-serif" font-size="20" fill="#3e2723" text-anchor="middle" font-weight="bold">@prithwiraj84's Contribution Garden</text>
<text x="400" y="595" font-family="Segoe UI, Helvetica, Arial, sans-serif" font-size="14" fill="#5d4037" text-anchor="middle" font-weight="bold">Grown over 5 years</text></svg>