<svg xmlns="http://www.w3.org/2000/svg" width="800" height="600" viewBox="0 0 800 600">
        <defs>
            <linearGradient id="sky" x1="0%" y1="0%" x2="0%" y2="100%">
                <stop offset="0%" style="stop-color:#e0f7fa;stop-opacity:1" />
                <stop offset="100%" style="stop-color:#ffffff;stop-opacity:1" />
            </linearGradient>
            <filter id="glow" x="-20%" y="-20%" width="140%" height="140%">
                <feGaussianBlur stdDeviation="2" result="coloredBlur"/>
                <feMerge>
                    <feMergeNode in="coloredBlur"/>
                    <feMergeNode in="SourceGraphic"/>
                </feMerge>
            </filter>
        </defs>
        <rect width="100%" height="100%" fill="url(#sky)"/><path d="M0,550 Q400,530 800,550 L800,600 L0,600 Z" stroke="#4e342e" stroke-width="0" fill="#5d4037" stroke-linecap="round" stroke-opacity="1.0" />
<path d="M0,550 Q400,530 800,550" stroke="none" stroke-width="0" fill="#76ff03" stroke-linecap="round" stroke-opacity="0.1" />
<path d="M400,550 Q405.0,470.0 410,390" stroke="#4e342e" stroke-width="35" fill="none" stroke-linecap="round" stroke-opacity="1.0" />
<path d="M410,430 Q488.75,410 547.7526038744548,353.64248481120194" stroke="#5d4037" stroke-width="8" fill="none" stroke-linecap="round" stroke-opacity="1.0" />
<circle cx="546.3988427778983" cy="367.5763870097277" r="10" fill="#a5d6a7" fill-opacity="0.7" />
<circle cx="529.1881388473948" cy="343.305236341511" r="8" fill="#a5d6a7" fill-opacity="0.7" />
<circle cx="568.5776982666953" cy="365.355600040659" r="14" fill="#43a047" fill-opacity="0.7" />
<circle cx="544.6256926448347" cy="364.513523145969" r="11" fill="#2e7d32" fill-opacity="0.7" />
<circle cx="563.7089916407878" cy="378.5951127488917" r="14" fill="#43a047" fill-opacity="0.7" />
<circle cx="516.3651587194558" cy="355.96864602587226" r="8" fill="#2e7d32" fill-opacity="0.7" />
<circle cx="554.8324531763848" cy="325.94240229850584" r="11" fill="#43a047" fill-opacity="0.7" />
<circle cx="531.1592212290359" cy="355.40513837979455" r="14" fill="#66bb6a" fill-opacity="0.7" />
<circle cx="534.475193941982" cy="383.12218708541263" r="15" fill="#43a047" fill-opacity="0.7" />
<circle cx="570.1158501896517" cy="345.9174095247542" r="13" fill="#43a047" fill-opacity="0.7" />
<path d="M410,415 Q343.125,395 297.82781153729957,342.1545290667401" stroke="#5d4037" stroke-width="8" fill="none" stroke-linecap="round" stroke-opacity="1.0" />
<circle cx="267.5710286245623" cy="374.43394095918495" r="15" fill="#a5d6a7" fill-opacity="0.7" />
<circle cx="275.5079123669823" cy="373.2849280460436" r="15" fill="#66bb6a" fill-opacity="0.7" />
<circle cx="277.01464372657085" cy="330.98297635655524" r="10" fill="#66bb6a" fill-opacity="0.7" />
<circle cx="319.63832372397485" cy="312.5178323122823" r="14" fill="#66bb6a" fill-opacity="0.7" />
<circle cx="315.27146204714666" cy="324.3628212528515" r="14" fill="#66bb6a" fill-opacity="0.7" />
<circle cx="325.25907261021786" cy="365.84930132216914" r="15" fill="#66bb6a" fill-opacity="0.7" />
<circle cx="276.1562032610608" cy="340.095030293514" r="14" fill="#66bb6a" fill-opacity="0.7" />
<circle cx="291.0039650110088" cy="358.27118464845887" r="14" fill="#a5d6a7" fill-opacity="0.7" />
<circle cx="277.18955907502243" cy="349.04366955652955" r="8" fill="#43a047" fill-opacity="0.7" />
<circle cx="271.46344815695346" cy="330.5445793588744" r="11" fill="#2e7d32" fill-opacity="0.7" />
<path d="M410,400 Q468.75,380 506.25036520395656,332.6047687287521" stroke="#5d4037" stroke-width="8" fill="none" stroke-linecap="round" stroke-opacity="1.0" />
<circle cx="526.7078060855777" cy="302.9816679411118" r="15" fill="#2e7d32" fill-opacity="0.7" />
<circle cx="526.868352528653" cy="339.7961510211727" r="14" fill="#2e7d32" fill-opacity="0.7" />
<circle cx="486.0168875974349" cy="349.18688106500906" r="16" fill="#a5d6a7" fill-opacity="0.7" />
<circle cx="507.1456502198263" cy="319.28880780278433" r="15" fill="#66bb6a" fill-opacity="0.7" />
<circle cx="482.1863452690412" cy="325.8687681264199" r="16" fill="#43a047" fill-opacity="0.7" />
<circle cx="495.25262387099997" cy="362.6016120537768" r="12" fill="#43a047" fill-opacity="0.7" />
<circle cx="536.3929800962809" cy="300.83977692122824" r="15" fill="#66bb6a" fill-opacity="0.7" />
<circle cx="533.7136206049622" cy="364.82881442576837" r="12" fill="#43a047" fill-opacity="0.7" />
<circle cx="531.3418711002606" cy="309.85933605550565" r="11" fill="#2e7d32" fill-opacity="0.7" />
<circle cx="525.9443579436642" cy="326.49803918769896" r="10" fill="#66bb6a" fill-opacity="0.7" />
<path d="M410,385 Q351.875,365 344.99382497152567,288.6243821904764" stroke="#5d4037" stroke-width="8" fill="none" stroke-linecap="round" stroke-opacity="1.0" />
<circle cx="367.9375714161649" cy="288.74848106298765" r="16" fill="#2e7d32" fill-opacity="0.7" />
<circle cx="333.681626378533" cy="308.58193836276683" r="12" fill="#66bb6a" fill-opacity="0.7" />
<circle cx="348.9637795550992" cy="290.9952522029784" r="16" fill="#43a047" fill-opacity="0.7" />
<circle cx="358.3355354011534" cy="303.0387214089599" r="8" fill="#43a047" fill-opacity="0.7" />
<circle cx="325.6917457280542" cy="265.4587649843217" r="16" fill="#43a047" fill-opacity="0.7" />
<circle cx="323.32183146573544" cy="317.93478344498493" r="13" fill="#66bb6a" fill-opacity="0.7" />
<circle cx="311.6121640792084" cy="255.94588539314014" r="14" fill="#a5d6a7" fill-opacity="0.7" />
<circle cx="311.93345412480363" cy="291.9223321373389" r="11" fill="#66bb6a" fill-opacity="0.7" />
<circle cx="310.24251979731343" cy="314.99392461176444" r="12" fill="#a5d6a7" fill-opacity="0.7" />
<circle cx="362.4748998759112" cy="296.27502428747295" r="11" fill="#43a047" fill-opacity="0.7" />
<path d="M410,370 Q467.5,350 488.42981140718734,285.8943243137954" stroke="#5d4037" stroke-width="8" fill="none" stroke-linecap="round" stroke-opacity="1.0" />
<circle cx="474.5867149292262" cy="292.58587810172764" r="9" fill="#43a047" fill-opacity="0.7" />
<circle cx="516.9655179251132" cy="300.8167098809381" r="16" fill="#a5d6a7" fill-opacity="0.7" />
<circle cx="509.2611334461667" cy="268.20152759624" r="15" fill="#a5d6a7" fill-opacity="0.7" />
<circle cx="491.5309832589385" cy="288.5616281944034" r="12" fill="#2e7d32" fill-opacity="0.7" />
<circle cx="460.4293845885908" cy="277.5074789485109" r="10" fill="#43a047" fill-opacity="0.7" />
<circle cx="453.47706406347214" cy="304.2235620960357" r="11" fill="#a5d6a7" fill-opacity="0.7" />
<circle cx="485.9297615390305" cy="318.1173736608659" r="15" fill="#a5d6a7" fill-opacity="0.7" />
<circle cx="506.3054630325778" cy="260.74178244186203" r="15" fill="#66bb6a" fill-opacity="0.7" />
<circle cx="492.4743698685321" cy="279.19552796312126" r="10" fill="#2e7d32" fill-opacity="0.7" />
<circle cx="484.99644593200054" cy="266.2757559587775" r="12" fill="#2e7d32" fill-opacity="0.7" />
<path d="M410,355 Q355.0,335 342.2772377141776,268.3188171032606" stroke="#5d4037" stroke-width="8" fill="none" stroke-linecap="round" stroke-opacity="1.0" />
<circle cx="340.05448828191663" cy="246.42154748151822" r="9" fill="#2e7d32" fill-opacity="0.7" />
<circle cx="342.777837361321" cy="244.9332370355533" r="15" fill="#43a047" fill-opacity="0.7" />
<circle cx="344.7123069238471" cy="247.49064005647645" r="12" fill="#66bb6a" fill-opacity="0.7" />
<circle cx="347.95961446105116" cy="258.51002443611435" r="15" fill="#a5d6a7" fill-opacity="0.7" />
<circle cx="317.69970844732933" cy="259.8125576145038" r="14" fill="#43a047" fill-opacity="0.7" />
<circle cx="350.19272989236447" cy="233.56363121856756" r="13" fill="#66bb6a" fill-opacity="0.7" />
<circle cx="366.41767500343207" cy="234.83740475131822" r="10" fill="#43a047" fill-opacity="0.7" />
<circle cx="333.5603262950373" cy="293.4784543990635" r="12" fill="#2e7d32" fill-opacity="0.7" />
<circle cx="346.26840056741037" cy="291.58052055138694" r="8" fill="#a5d6a7" fill-opacity="0.7" />
<circle cx="373.8135138500562" cy="234.34492903020646" r="12" fill="#a5d6a7" fill-opacity="0.7" />
<text x="400" y="580" font-family="Segoe UI, Helvetica, Arial, sans-serif" font-size="20" fill="#3e2723" text-anchor="middle" font-weight="bold">@prithwiraj84's Contribution Garden</text>
<text x="400" y="595" font-family="Segoe UI, Helvetica, Arial, sans-serif" font-size="14" fill="#5d4037" text-anchor="middle" font-weight="bold">Grown over 5 years</text></svg>