<svg xmlns="http://www.w3.org/2000/svg" width="800" height="600" viewBox="0 0 800 600">
        <defs>
            <linearGradient id="sky" x1="0%" y1="0%" x2="0%" y2="100%">
                <stop offset="0%" style="stop-color:#e0f7fa;stop-opacity:1" />
                <stop offset="100%" style="stop-color:#ffffff;stop-opacity:1" />
            </linearGradient>
            <filter id="glow" x="-20%" y="-20%" width="140%" height="140%">
                <feGaussianBlur stdDeviation="2" result="coloredBlur"/>
                <feMerge>
                    <feMergeNode in="coloredBlur"/>
                    <feMergeNode in="SourceGraphic"/>
                </feMerge>
            </filter>
        </defs>
        <rect width="100%" height="100%" fill="url(#sky)"/><path d="M0,550 Q400,530 800,550 L800,600 L0,600 Z" stroke="#4e342e" stroke-width="0" fill="#5d4037" stroke-linecap="round" stroke-opacity="1.0" />
<path d="M0,550 Q400,530 800,550" stroke="none" stroke-width="0" fill="#76ff03" stroke-linecap="round" stroke-opacity="0.1" />
<path d="M400,550 Q389.0,470.0 378,390" stroke="#4e342e" stroke-width="35" fill="none" stroke-linecap="round" stroke-opacity="1.0" />
<path d="M378,430 Q449.1538461538462,410 438.14182955540724,301.02543030632285" stroke="#5d4037" stroke-width="8" fill="none" stroke-linecap="round" stroke-opacity="1.0" />
<circle cx="440.61765231301183" cy="335.3116921135042" r="14" fill="#66bb6a" fill-opacity="0.7" />
<circle cx="468.84545024250485" cy="317.3022389975153" r="8" fill="#2e7d32" fill-opacity="0.7" />
<circle cx="460.16603636549934" cy="286.0382052683484" r="16" fill="#43a047" fill-opacity="0.7" />
<circle cx="436.28197570915114" cy="320.4527234664803" r="13" fill="#2e7d32" fill-opacity="0.7" />
<circle cx="467.9947055338279" cy="285.40717745793705" r="11" fill="#a5d6a7" fill-opacity="0.7" />
<circle cx="451.85633202908184" cy="272.03922496941334" r="8" fill="#66bb6a" fill-opacity="0.7" />
<circle cx="441.9558126667458" cy="300.90675355863834" r="14" fill="#2e7d32" fill-opacity="0.7" />
<circle cx="434.5924224098792" cy="312.09924778355344" r="9" fill="#66bb6a" fill-opacity="0.7" />
<circle cx="431.8488853182749" cy="319.6114316364934" r="14" fill="#2e7d32" fill-opacity="0.7" />
<circle cx="472.7148024272218" cy="280.5759743129885" r="9" fill="#43a047" fill-opacity="0.7" />
<path d="M378,415 Q308.7692307692308,395 292.75456495490886,305.89081873137695" stroke="#5d4037" stroke-width="8" fill="none" stroke-linecap="round" stroke-opacity="1.0" />
<circle cx="265.45353542449516" cy="300.87968865879014" r="12" fill="#43a047" fill-opacity="0.7" />
<circle cx="267.84347336411736" cy="336.1094122219397" r="9" fill="#43a047" fill-opacity="0.7" />
<circle cx="279.45851022527717" cy="314.6508858522844" r="8" fill="#43a047" fill-opacity="0.7" />
<circle cx="260.70015026729965" cy="312.3769627749979" r="10" fill="#2e7d32" fill-opacity="0.7" />
<circle cx="275.1707375770807" cy="301.50194241556704" r="14" fill="#66bb6a" fill-opacity="0.7" />
<circle cx="298.2493786133815" cy="328.5433565531511" r="12" fill="#2e7d32" fill-opacity="0.7" />
<circle cx="290.03992538413775" cy="321.7462863444945" r="11" fill="#a5d6a7" fill-opacity="0.7" />
<circle cx="326.83846075874374" cy="337.71042449842804" r="8" fill="#66bb6a" fill-opacity="0.7" />
<circle cx="265.7981435299713" cy="278.4029332556751" r="14" fill="#66bb6a" fill-opacity="0.7" />
<circle cx="299.9087854317639" cy="296.5086084907382" r="11" fill="#66bb6a" fill-opacity="0.7" />
<path d="M378,400 Q439.53846153846155,380 431.95337191250184,289.37919430164095" stroke="#5d4037" stroke-width="8" fill="none" stroke-linecap="round" stroke-opacity="1.0" />
<circle cx="434.07927005012834" cy="281.41935470350404" r="12" fill="#43a047" fill-opacity="0.7" />
<circle cx="423.2121941182518" cy="294.8900136110199" r="15" fill="#2e7d32" fill-opacity="0.7" />
<circle cx="440.57495586811444" cy="278.98205648628533" r="12" fill="#a5d6a7" fill-opacity="0.7" />
<circle cx="435.9316781985959" cy="320.8950860034039" r="14" fill="#43a047" fill-opacity="0.7" />
<circle cx="422.46450771153735" cy="254.47928917345024" r="15" fill="#a5d6a7" fill-opacity="0.7" />
<circle cx="444.49090908884574" cy="301.4175195614255" r="13" fill="#43a047" fill-opacity="0.7" />
<circle cx="400.18943130851267" cy="293.6492686405355" r="8" fill="#2e7d32" fill-opacity="0.7" />
<circle cx="454.0413833158483" cy="257.4349863042477" r="15" fill="#66bb6a" fill-opacity="0.7" />
<circle cx="416.6413870900733" cy="295.12346048087437" r="15" fill="#2e7d32" fill-opacity="0.7" />
<circle cx="453.44615045921665" cy="291.8111307156505" r="12" fill="#a5d6a7" fill-opacity="0.7" />
<path d="M378,385 Q316.46153846153845,365 325.985444708837,273.45442621087386" stroke="#5d4037" stroke-width="8" fill="none" stroke-linecap="round" stroke-opacity="1.0" />
<circle cx="291.72329069531" cy="299.39090511962206" r="11" fill="#66bb6a" fill-opacity="0.7" />
<circle cx="328.26154411546537" cy="291.3560320851592" r="10" fill="#66bb6a" fill-opacity="0.7" />
<circle cx="315.4058415738878" cy="239.2696581211557" r="15" fill="#2e7d32" fill-opacity="0.7" />
<circle cx="357.06419761305574" cy="282.83138926238223" r="12" fill="#2e7d32" fill-opacity="0.7" />
<circle cx="309.57141260059706" cy="269.0032690115808" r="9" fill="#a5d6a7" fill-opacity="0.7" />
<circle cx="341.92084081274515" cy="278.69412268796265" r="13" fill="#2e7d32" fill-opacity="0.7" />
<circle cx="338.51168643235314" cy="274.65141461712403" r="11" fill="#a5d6a7" fill-opacity="0.7" />
<circle cx="309.60949934260515" cy="292.31018168167975" r="8" fill="#66bb6a" fill-opacity="0.7" />
<circle cx="359.0422359459269" cy="256.7931391441802" r="15" fill="#43a047" fill-opacity="0.7" />
<circle cx="306.85056498064984" cy="258.4126408256326" r="14" fill="#2e7d32" fill-opacity="0.7" />
<path d="M378,370 Q435.6923076923077,350 459.58924398306317,288.41075601693683" stroke="#5d4037" stroke-width="8" fill="none" stroke-linecap="round" stroke-opacity="1.0" />
<circle cx="447.1675923247093" cy="257.84938536278594" r="14" fill="#2e7d32" fill-opacity="0.7" />
<circle cx="442.1697259648742" cy="268.51920822544014" r="12" fill="#43a047" fill-opacity="0.7" />
<circle cx="490.908259351241" cy="303.6441497303952" r="10" fill="#43a047" fill-opacity="0.7" />
<circle cx="440.8311137800194" cy="255.11330070498695" r="10" fill="#66bb6a" fill-opacity="0.7" />
<circle cx="489.4073326409874" cy="286.9202326392383" r="15" fill="#a5d6a7" fill-opacity="0.7" />
<circle cx="475.75576235620053" cy="266.92283156179167" r="11" fill="#a5d6a7" fill-opacity="0.7" />
<circle cx="425.8352492750249" cy="282.2827000399651" r="13" fill="#2e7d32" fill-opacity="0.7" />
<circle cx="438.8776995491819" cy="319.47632741530913" r="10" fill="#2e7d32" fill-opacity="0.7" />
<circle cx="450.7627574929657" cy="257.85649671490063" r="14" fill="#a5d6a7" fill-opacity="0.7" />
<circle cx="478.17360793519333" cy="287.619004754761" r="9" fill="#2e7d32" fill-opacity="0.7" />
<path d="M378,355 Q324.15384615384613,335 324.1538461538462,261.7357257462912" stroke="#5d4037" stroke-width="8" fill="none" stroke-linecap="round" stroke-opacity="1.0" />
<circle cx="337.2977560198961" cy="250.8031363474787" r="14" fill="#2e7d32" fill-opacity="0.7" />
<circle cx="332.5903132917768" cy="249.6785213333869" r="13" fill="#66bb6a" fill-opacity="0.7" />
<circle cx="336.6726801041635" cy="231.63517257915294" r="11" fill="#a5d6a7" fill-opacity="0.7" />
<circle cx="356.86197504282285" cy="228.4067337441942" r="10" fill="#2e7d32" fill-opacity="0.7" />
<circle cx="307.7509367396803" cy="263.5502705707191" r="9" fill="#a5d6a7" fill-opacity="0.7" />
<circle cx="308.02112275583886" cy="230.11444067683863" r="9" fill="#a5d6a7" fill-opacity="0.7" />
<circle cx="292.45683932860527" cy="287.31562203212366" r="14" fill="#66bb6a" fill-opacity="0.7" />
<circle cx="308.42857514130463" cy="278.4259939580316" r="9" fill="#2e7d32" fill-opacity="0.7" />
<circle cx="339.2992007634519" cy="252.62432981374238" r="14" fill="#a5d6a7" fill-opacity="0.7" />
<circle cx="357.14553656702157" cy="229.1557911849828" r="16" fill="#a5d6a7" fill-opacity="0.7" />
<text x="400" y="580" font-family="Segoe UI, Helvetica, Arial, sans-serif" font-size="20" fill="#3e2723" text-anchor="middle" font-weight="bold">@prithwiraj84's Contribution Garden</text>
<text x="400" y="595" font-family="Segoe UI, Helvetica, Arial, sans-serif" font-size="14" fill="#5d4037" text-anchor="middle" font-weight="bold">Grown over 5 years</text></svg>