<svg xmlns="http://www.w3.org/2000/svg" width="800" height="600" viewBox="0 0 800 600">
        <defs>
            <linearGradient id="sky" x1="0%" y1="0%" x2="0%" y2="100%">
                <stop offset="0%" style="stop-color:#e0f7fa;stop-opacity:1" />
                <stop offset="100%" style="stop-color:#ffffff;stop-opacity:1" />
            </linearGradient>
            <filter id="glow" x="-20%" y="-20%" width="140%" height="140%">
                <feGaussianBlur stdDeviation="2" result="coloredBlur"/>
                <feMerge>
                    <feMergeNode in="coloredBlur"/>
                    <feMergeNode in="SourceGraphic"/>
                </feMerge>
            </filter>
        </defs>
        <rect width="100%" height="100%" fill="url(#sky)"/><path d="M0,550 Q400,530 800,550 L800,600 L0,600 Z" stroke="#4e342e" stroke-width="0" fill="#5d4037" stroke-linecap="round" stroke-opacity="1.0" />
<path d="M0,550 Q400,530 800,550" stroke="none" stroke-width="0" fill="#76ff03" stroke-linecap="round" stroke-opacity="0.1" />
<path d="M400,550 Q390.5,470.0 381,390" stroke="#4e342e" stroke-width="35" fill="none" stroke-linecap="round" stroke-opacity="1.0" />
<path d="M381,430 Q467.27450980392155,410 472.4370495147491,283.6701324279108" stroke="#5d4037" stroke-width="8" fill="none" stroke-linecap="round" stroke-opacity="1.0" />
<circle cx="474.4025985039914" cy="311.46805237191927" r="8" fill="#a5d6a7" fill-opacity="0.7" />
<circle cx="484.3651248657962" cy="307.67498067244765" r="13" fill="#2e7d32" fill-opacity="0.7" />
<circle cx="463.4282661250904" cy="286.67167008259196" r="13" fill="#43a047" fill-opacity="0.7" />
<circle cx="493.73343018871054" cy="296.53616263590703" r="11" fill="#2e7d32" fill-opacity="0.7" />
<circle cx="477.2825105028152" cy="304.0302146152743" r="11" fill="#a5d6a7" fill-opacity="0.7" />
<circle cx="482.68347941998303" cy="277.4420856484323" r="12" fill="#2e7d32" fill-opacity="0.7" />
<circle cx="504.53120494588876" cy="303.22941838121386" r="12" fill="#43a047" fill-opacity="0.7" />
<circle cx="449.17497465960656" cy="268.80363828731635" r="12" fill="#a5d6a7" fill-opacity="0.7" />
<circle cx="480.57719561786985" cy="305.76053847952176" r="14" fill="#2e7d32" fill-opacity="0.7" />
<circle cx="472.2606686944439" cy="292.97331922600085" r="14" fill="#a5d6a7" fill-opacity="0.7" />
<circle cx="476.2011118428279" cy="274.5899196050265" r="10" fill="#a5d6a7" fill-opacity="0.7" />
<circle cx="493.18948118096273" cy="305.5441559621692" r="16" fill="#66bb6a" fill-opacity="0.7" />
<circle cx="484.2193613293264" cy="287.8953871037068" r="12" fill="#43a047" fill-opacity="0.7" />
<circle cx="468.89997217872866" cy="303.977069259521" r="12" fill="#43a047" fill-opacity="0.7" />
<path d="M381,415 Q317.7647058823529,395 313.9807989352123,307.7468584272755" stroke="#5d4037" stroke-width="8" fill="none" stroke-linecap="round" stroke-opacity="1.0" />
<circle cx="327.2500380793928" cy="329.78487610719503" r="14" fill="#66bb6a" fill-opacity="0.7" />
<circle cx="317.79810004058083" cy="276.17292259223643" r="11" fill="#66bb6a" fill-opacity="0.7" />
<circle cx="310.02211048935783" cy="279.87432362104863" r="9" fill="#66bb6a" fill-opacity="0.7" />
<circle cx="283.01001438017437" cy="328.56150052454433" r="10" fill="#2e7d32" fill-opacity="0.7" />
<circle cx="329.74204803635496" cy="325.1165315420433" r="8" fill="#2e7d32" fill-opacity="0.7" />
<circle cx="306.9953062504811" cy="291.84205959209226" r="12" fill="#2e7d32" fill-opacity="0.7" />
<circle cx="323.1104567282392" cy="295.6027000138563" r="12" fill="#43a047" fill-opacity="0.7" />
<circle cx="322.1356434234711" cy="288.9780466788855" r="14" fill="#a5d6a7" fill-opacity="0.7" />
<circle cx="324.4105067500038" cy="307.90929810626653" r="15" fill="#2e7d32" fill-opacity="0.7" />
<circle cx="333.47450732235905" cy="289.00641547798574" r="14" fill="#66bb6a" fill-opacity="0.7" />
<path d="M381,400 Q437.8627450980392,380 452.56976996253053,311.6186945794033" stroke="#5d4037" stroke-width="8" fill="none" stroke-linecap="round" stroke-opacity="1.0" />
<circle cx="479.1871754864411" cy="318.04191799290976" r="12" fill="#43a047" fill-opacity="0.7" />
<circle cx="450.1846865943019" cy="311.9096923777734" r="14" fill="#43a047" fill-opacity="0.7" />
<circle cx="486.4484209315642" cy="289.3262437118433" r="11" fill="#66bb6a" fill-opacity="0.7" />
<circle cx="444.85014980900615" cy="286.4414869096006" r="11" fill="#66bb6a" fill-opacity="0.7" />
<circle cx="469.10344474870135" cy="332.7046775215198" r="10" fill="#2e7d32" fill-opacity="0.7" />
<circle cx="437.22801036440495" cy="286.1161835861669" r="14" fill="#66bb6a" fill-opacity="0.7" />
<circle cx="479.42639319942134" cy="284.54972644223653" r="10" fill="#66bb6a" fill-opacity="0.7" />
<circle cx="433.1031627625464" cy="328.34637713860565" r="15" fill="#a5d6a7" fill-opacity="0.7" />
<circle cx="477.26358896574664" cy="318.97892364848633" r="8" fill="#66bb6a" fill-opacity="0.7" />
<circle cx="468.81100424334494" cy="320.5636257197768" r="8" fill="#2e7d32" fill-opacity="0.7" />
<path d="M381,385 Q324.62745098039215,365 324.62745098039215,287.3598809458721" stroke="#5d4037" stroke-width="8" fill="none" stroke-linecap="round" stroke-opacity="1.0" />
<circle cx="329.0135577495913" cy="255.1000060907353" r="13" fill="#66bb6a" fill-opacity="0.7" />
<circle cx="338.1166048198262" cy="257.92498903041644" r="10" fill="#a5d6a7" fill-opacity="0.7" />
<circle cx="298.915684960903" cy="285.92436270211846" r="9" fill="#66bb6a" fill-opacity="0.7" />
<circle cx="351.23887315520443" cy="290.2774732831015" r="9" fill="#a5d6a7" fill-opacity="0.7" />
<circle cx="295.54912040897887" cy="320.71380641421774" r="14" fill="#43a047" fill-opacity="0.7" />
<circle cx="355.5640902238823" cy="286.3731973726526" r="9" fill="#a5d6a7" fill-opacity="0.7" />
<circle cx="331.79117074742953" cy="270.9231038514977" r="14" fill="#66bb6a" fill-opacity="0.7" />
<circle cx="316.0866336958576" cy="282.2338492213542" r="8" fill="#66bb6a" fill-opacity="0.7" />
<circle cx="327.8870116403515" cy="275.10232411061276" r="9" fill="#43a047" fill-opacity="0.7" />
<circle cx="305.16585221667975" cy="279.6060144892856" r="16" fill="#2e7d32" fill-opacity="0.7" />
<path d="M381,370 Q437.37254901960785,350 481.45661792319834,318.81479659799226" stroke="#5d4037" stroke-width="8" fill="none" stroke-linecap="round" stroke-opacity="1.0" />
<circle cx="501.8129069011716" cy="331.04634298547927" r="15" fill="#43a047" fill-opacity="0.7" />
<circle cx="511.37363650783846" cy="327.96244780963235" r="10" fill="#2e7d32" fill-opacity="0.7" />
<circle cx="511.3278160896711" cy="335.6672957585811" r="10" fill="#2e7d32" fill-opacity="0.7" />
<circle cx="485.49676567632565" cy="319.1273671799546" r="9" fill="#a5d6a7" fill-opacity="0.7" />
<circle cx="472.11107018396416" cy="348.4076642094033" r="10" fill="#66bb6a" fill-opacity="0.7" />
<circle cx="514.9752640843751" cy="348.5421750603318" r="15" fill="#66bb6a" fill-opacity="0.7" />
<circle cx="481.65387289882096" cy="317.0042407032633" r="14" fill="#a5d6a7" fill-opacity="0.7" />
<circle cx="484.6680069335379" cy="330.99309868325645" r="9" fill="#43a047" fill-opacity="0.7" />
<circle cx="464.0895021369651" cy="331.22618878828234" r="16" fill="#66bb6a" fill-opacity="0.7" />
<circle cx="480.55624946435205" cy="314.94724934552664" r="14" fill="#2e7d32" fill-opacity="0.7" />
<path d="M381,355 Q325.11764705882354,335 292.92820989101347,286.1907762871323" stroke="#5d4037" stroke-width="8" fill="none" stroke-linecap="round" stroke-opacity="1.0" />
<circle cx="303.7400092675251" cy="309.6584144218403" r="10" fill="#66bb6a" fill-opacity="0.7" />
<circle cx="325.10211491128337" cy="303.9651408420905" r="14" fill="#66bb6a" fill-opacity="0.7" />
<circle cx="323.82645011065966" cy="260.96576741795553" r="15" fill="#a5d6a7" fill-opacity="0.7" />
<circle cx="265.91267740635766" cy="253.0991846575658" r="15" fill="#66bb6a" fill-opacity="0.7" />
<circle cx="313.52190832990163" cy="279.4951384974977" r="11" fill="#66bb6a" fill-opacity="0.7" />
<circle cx="273.8875406203275" cy="298.10337327858184" r="13" fill="#66bb6a" fill-opacity="0.7" />
<circle cx="263.3258739390053" cy="251.40811388014265" r="14" fill="#66bb6a" fill-opacity="0.7" />
<circle cx="284.2759504743807" cy="273.60724618396006" r="13" fill="#66bb6a" fill-opacity="0.7" />
<circle cx="302.7114970558028" cy="272.7540481590223" r="15" fill="#66bb6a" fill-opacity="0.7" />
<circle cx="304.62664757640243" cy="302.03186069516437" r="15" fill="#66bb6a" fill-opacity="0.7" />
<text x="400" y="580" font-family="Segoe UI, Helvetica, Arial, sans-serif" font-size="20" fill="#3e2723" text-anchor="middle" font-weight="bold">@prithwiraj84's Contribution Garden</text>
<text x="400" y="595" font-family="Segoe UI, Helvetica, Arial, sans-serif" font-size="14" fill="#5d4037" text-anchor="middle" font-weight="bold">Grown over 5 years</text></svg>