<svg xmlns="http://www.w3.org/2000/svg" width="800" height="600" viewBox="0 0 800 600">
        <defs>
            <linearGradient id="sky" x1="0%" y1="0%" x2="0%" y2="100%">
                <stop offset="0%" style="stop-color:#e0f7fa;stop-opacity:1" />
                <stop offset="100%" style="stop-color:#ffffff;stop-opacity:1" />
            </linearGradient>
            <filter id="glow" x="-20%" y="-20%" width="140%" height="140%">
                <feGaussianBlur stdDeviation="2" result="coloredBlur"/>
                <feMerge>
                    <feMergeNode in="coloredBlur"/>
                    <feMergeNode in="SourceGraphic"/>
                </feMerge>
            </filter>
        </defs>
        <rect width="100%" height="100%" fill="url(#sky)"/><path d="M0,550 Q400,530 800,550 L800,600 L0,600 Z" stroke="#4e342e" stroke-width="0" fill="#5d4037" stroke-linecap="round" stroke-opacity="1.0" />
<path d="M0,550 Q400,530 800,550" stroke="none" stroke-width="0" fill="#76ff03" stroke-linecap="round" stroke-opacity="0.1" />
<path d="M400,550 Q390.0,470.0 380,390" stroke="#4e342e" stroke-width="35" fill="none" stroke-linecap="round" stroke-opacity="1.0" />
<path d="M380,430 Q466.01973684210526,410 488.2679488549556,296.300217815133" stroke="#5d4037" stroke-width="8" fill="none" stroke-linecap="round" stroke-opacity="1.0" />
<circle cx="517.1404094494839" cy="270.4626095624658" r="13" fill="#66bb6a" fill-opacity="0.7" />
<circle cx="460.4677548935237" cy="311.9228718264197" r="14" fill="#a5d6a7" fill-opacity="0.7" />
<circle cx="523.2092125718077" cy="320.96678874831406" r="11" fill="#2e7d32" fill-opacity="0.7" />
<circle cx="486.0183438684347" cy="272.29622604004794" r="13" fill="#66bb6a" fill-opacity="0.7" />
<circle cx="465.66860743241523" cy="310.30837270747026" r="12" fill="#43a047" fill-opacity="0.7" />
<circle cx="473.8806888441514" cy="264.0527236471897" r="14" fill="#43a047" fill-opacity="0.7" />
<circle cx="465.59316515544094" cy="288.857957927944" r="13" fill="#2e7d32" fill-opacity="0.7" />
<circle cx="493.5692367287788" cy="274.4229641785679" r="10" fill="#2e7d32" fill-opacity="0.7" />
<circle cx="468.47074341714193" cy="324.2911986293212" r="16" fill="#2e7d32" fill-opacity="0.7" />
<circle cx="462.07659400176266" cy="316.2026805599114" r="9" fill="#2e7d32" fill-opacity="0.7" />
<circle cx="509.9678763371667" cy="331.2490796177668" r="15" fill="#43a047" fill-opacity="0.7" />
<circle cx="456.23583931973945" cy="327.4134620000406" r="10" fill="#66bb6a" fill-opacity="0.7" />
<circle cx="508.7822109788922" cy="300.95616338556334" r="11" fill="#43a047" fill-opacity="0.7" />
<circle cx="516.4792786323942" cy="315.07700518684453" r="10" fill="#a5d6a7" fill-opacity="0.7" />
<path d="M380,415 Q316.6776315789474,395 290.4486477773616,325.44864777736154" stroke="#5d4037" stroke-width="8" fill="none" stroke-linecap="round" stroke-opacity="1.0" />
<circle cx="321.1656636095533" cy="319.44387620253906" r="10" fill="#66bb6a" fill-opacity="0.7" />
<circle cx="323.6377744696925" cy="334.82145064642407" r="8" fill="#66bb6a" fill-opacity="0.7" />
<circle cx="300.2229634721891" cy="309.1753997008359" r="11" fill="#2e7d32" fill-opacity="0.7" />
<circle cx="307.7306464927185" cy="329.36080033705065" r="14" fill="#a5d6a7" fill-opacity="0.7" />
<circle cx="316.23508527651495" cy="344.7493941444299" r="8" fill="#43a047" fill-opacity="0.7" />
<circle cx="292.48370164801725" cy="350.1868612831912" r="13" fill="#66bb6a" fill-opacity="0.7" />
<circle cx="299.9227381257115" cy="323.93003967052624" r="15" fill="#43a047" fill-opacity="0.7" />
<circle cx="269.51488411369746" cy="329.7582279646872" r="8" fill="#66bb6a" fill-opacity="0.7" />
<circle cx="285.9039878747444" cy="306.75110506347426" r="14" fill="#2e7d32" fill-opacity="0.7" />
<circle cx="300.1761484407947" cy="315.11306553450794" r="12" fill="#a5d6a7" fill-opacity="0.7" />
<path d="M380,400 Q436.9078947368421,380 457.6221817702712,316.7604010657128" stroke="#5d4037" stroke-width="8" fill="none" stroke-linecap="round" stroke-opacity="1.0" />
<circle cx="491.6151644781179" cy="308.0426780034151" r="13" fill="#66bb6a" fill-opacity="0.7" />
<circle cx="475.6611686588599" cy="332.1552260236326" r="13" fill="#43a047" fill-opacity="0.7" />
<circle cx="441.73832387243624" cy="296.7307413684585" r="12" fill="#2e7d32" fill-opacity="0.7" />
<circle cx="491.4579645894039" cy="288.2971704164557" r="12" fill="#a5d6a7" fill-opacity="0.7" />
<circle cx="445.6746572076799" cy="331.63527219305956" r="11" fill="#2e7d32" fill-opacity="0.7" />
<circle cx="454.08188767922405" cy="284.2711866535747" r="8" fill="#2e7d32" fill-opacity="0.7" />
<circle cx="488.93144253527663" cy="282.543247602953" r="11" fill="#a5d6a7" fill-opacity="0.7" />
<circle cx="466.84418536467933" cy="290.93957893551806" r="13" fill="#a5d6a7" fill-opacity="0.7" />
<circle cx="438.99190154481346" cy="306.98278438621116" r="12" fill="#a5d6a7" fill-opacity="0.7" />
<circle cx="478.4531137029986" cy="348.0696171599602" r="8" fill="#a5d6a7" fill-opacity="0.7" />
<path d="M380,385 Q323.5855263157895,365 279.46867177743087,333.7767297991235" stroke="#5d4037" stroke-width="8" fill="none" stroke-linecap="round" stroke-opacity="1.0" />
<circle cx="307.3757842612266" cy="321.79284555955815" r="8" fill="#2e7d32" fill-opacity="0.7" />
<circle cx="298.6545729396311" cy="343.21898004301426" r="11" fill="#43a047" fill-opacity="0.7" />
<circle cx="247.1685914587654" cy="330.5579184093499" r="12" fill="#66bb6a" fill-opacity="0.7" />
<circle cx="301.76943643364837" cy="320.6529331647929" r="12" fill="#43a047" fill-opacity="0.7" />
<circle cx="269.92658390836334" cy="362.7450019628888" r="15" fill="#a5d6a7" fill-opacity="0.7" />
<circle cx="254.38914584360592" cy="347.06656702153714" r="16" fill="#43a047" fill-opacity="0.7" />
<circle cx="273.29313292076927" cy="357.88400232030466" r="8" fill="#66bb6a" fill-opacity="0.7" />
<circle cx="260.28215221163714" cy="328.6773323781423" r="14" fill="#a5d6a7" fill-opacity="0.7" />
<circle cx="251.49834165567046" cy="364.72309400495055" r="14" fill="#2e7d32" fill-opacity="0.7" />
<circle cx="263.14617838108234" cy="366.29269032144543" r="10" fill="#a5d6a7" fill-opacity="0.7" />
<path d="M380,370 Q436.4144736842105,350 438.1112038467594,273.28671574314984" stroke="#5d4037" stroke-width="8" fill="none" stroke-linecap="round" stroke-opacity="1.0" />
<circle cx="425.7545049033802" cy="295.4820780963081" r="9" fill="#a5d6a7" fill-opacity="0.7" />
<circle cx="460.9886007351904" cy="267.1376040611211" r="9" fill="#43a047" fill-opacity="0.7" />
<circle cx="441.31558865594343" cy="246.69619387823974" r="8" fill="#2e7d32" fill-opacity="0.7" />
<circle cx="416.8990582878615" cy="268.6725330205065" r="9" fill="#43a047" fill-opacity="0.7" />
<circle cx="461.9810183069413" cy="287.00125165699717" r="10" fill="#a5d6a7" fill-opacity="0.7" />
<circle cx="451.54362420926606" cy="256.9833010057303" r="14" fill="#66bb6a" fill-opacity="0.7" />
<circle cx="448.7184235677193" cy="299.58294223507414" r="12" fill="#43a047" fill-opacity="0.7" />
<circle cx="465.3926316604844" cy="274.1561158377159" r="9" fill="#a5d6a7" fill-opacity="0.7" />
<circle cx="448.76785211112434" cy="291.32044701072857" r="11" fill="#43a047" fill-opacity="0.7" />
<circle cx="418.50582222980773" cy="240.29264278116477" r="16" fill="#a5d6a7" fill-opacity="0.7" />
<path d="M380,355 Q324.07894736842104,335 299.5475223305456,277.3079454091911" stroke="#5d4037" stroke-width="8" fill="none" stroke-linecap="round" stroke-opacity="1.0" />
<circle cx="288.56973569931444" cy="266.38166514126294" r="11" fill="#66bb6a" fill-opacity="0.7" />
<circle cx="320.0801843566717" cy="310.12630438036354" r="8" fill="#a5d6a7" fill-opacity="0.7" />
<circle cx="298.2612950342372" cy="253.19934730046646" r="9" fill="#43a047" fill-opacity="0.7" />
<circle cx="279.9752371993407" cy="245.85325100365552" r="10" fill="#2e7d32" fill-opacity="0.7" />
<circle cx="317.31070761290516" cy="253.32991810277082" r="15" fill="#66bb6a" fill-opacity="0.7" />
<circle cx="331.4369411144272" cy="299.1212205406912" r="12" fill="#a5d6a7" fill-opacity="0.7" />
<circle cx="276.90703831684414" cy="312.2430309341813" r="14" fill="#66bb6a" fill-opacity="0.7" />
<circle cx="322.74720670569985" cy="268.07584189922176" r="14" fill="#2e7d32" fill-opacity="0.7" />
<circle cx="300.4887459077991" cy="308.95456200882273" r="14" fill="#66bb6a" fill-opacity="0.7" />
<circle cx="289.87386678711425" cy="283.7251214524129" r="8" fill="#43a047" fill-opacity="0.7" />
<text x="400" y="580" font-family="Segoe UI, Helvetica, Arial, sans-serif" font-size="20" fill="#3e2723" text-anchor="middle" font-weight="bold">@prithwiraj84's Contribution Garden</text>
<text x="400" y="595" font-family="Segoe UI, Helvetica, Arial, sans-serif" font-size="14" fill="#5d4037" text-anchor="middle" font-weight="bold">Grown over 5 years</text></svg>