<svg xmlns="http://www.w3.org/2000/svg" width="800" height="600" viewBox="0 0 800 600">
        <defs>
            <linearGradient id="sky" x1="0%" y1="0%" x2="0%" y2="100%">
                <stop offset="0%" style="stop-color:#e0f7fa;stop-opacity:1" />
                <stop offset="100%" style="stop-color:#ffffff;stop-opacity:1" />
            </linearGradient>
            <filter id="glow" x="-20%" y="-20%" width="140%" height="140%">
                <feGaussianBlur stdDeviation="2" result="coloredBlur"/>
                <feMerge>
                    <feMergeNode in="coloredBlur"/>
                    <feMergeNode in="SourceGraphic"/>
                </feMerge>
            </filter>
        </defs>
        <rect width="100%" height="100%" fill="url(#sky)"/><path d="M0,550 Q400,530 800,550 L800,600 L0,600 Z" stroke="#4e342e" stroke-width="0" fill="#5d4037" stroke-linecap="round" stroke-opacity="1.0" />
<path d="M0,550 Q400,530 800,550" stroke="none" stroke-width="0" fill="#76ff03" stroke-linecap="round" stroke-opacity="0.1" />
<path d="M400,550 Q403.0,470.0 406,390" stroke="#4e342e" stroke-width="35" fill="none" stroke-linecap="round" stroke-opacity="1.0" />
<path d="M406,430 Q487.9852941176471,410 541.9377784410106,338.30881068089957" stroke="#5d4037" stroke-width="8" fill="none" stroke-linecap="round" stroke-opacity="1.0" />
<circle cx="534.9276317792372" cy="321.88122036019183" r="8" fill="#2e7d32" fill-opacity="0.7" />
<circle cx="534.5221663353266" cy="320.4215629107402" r="9" fill="#43a047" fill-opacity="0.7" />
<circle cx="530.0346898192818" cy="305.08123432853256" r="11" fill="#43a047" fill-opacity="0.7" />
<circle cx="558.806507657315" cy="314.8636820796037" r="12" fill="#66bb6a" fill-opacity="0.7" />
<circle cx="522.7365469397228" cy="309.66195614556983" r="10" fill="#66bb6a" fill-opacity="0.7" />
<circle cx="550.2284469564595" cy="364.4711563155947" r="9" fill="#a5d6a7" fill-opacity="0.7" />
<circle cx="514.9548365163902" cy="324.54656176556375" r="11" fill="#2e7d32" fill-opacity="0.7" />
<circle cx="563.9845650962778" cy="365.13490313826435" r="12" fill="#a5d6a7" fill-opacity="0.7" />
<circle cx="531.1975665384764" cy="332.817101713033" r="12" fill="#a5d6a7" fill-opacity="0.7" />
<circle cx="512.5092425561536" cy="349.2271254679261" r="13" fill="#a5d6a7" fill-opacity="0.7" />
<circle cx="557.3696328277586" cy="361.0655256101218" r="15" fill="#2e7d32" fill-opacity="0.7" />
<path d="M406,415 Q341.1102941176471,395 306.58320278639735,331.57940212523954" stroke="#5d4037" stroke-width="8" fill="none" stroke-linecap="round" stroke-opacity="1.0" />
<circle cx="285.723537035388" cy="300.46659029282165" r="8" fill="#a5d6a7" fill-opacity="0.7" />
<circle cx="340.8467629755546" cy="303.0013159218175" r="12" fill="#66bb6a" fill-opacity="0.7" />
<circle cx="332.6296637945113" cy="300.7809943977814" r="10" fill="#a5d6a7" fill-opacity="0.7" />
<circle cx="309.52087391447077" cy="333.77479424479395" r="11" fill="#2e7d32" fill-opacity="0.7" />
<circle cx="317.63967094895366" cy="332.728407950816" r="13" fill="#2e7d32" fill-opacity="0.7" />
<circle cx="279.07199052412744" cy="347.47911515968957" r="13" fill="#66bb6a" fill-opacity="0.7" />
<circle cx="302.35005055043456" cy="328.7733379410972" r="12" fill="#2e7d32" fill-opacity="0.7" />
<circle cx="281.56769120310133" cy="323.8827637945768" r="10" fill="#43a047" fill-opacity="0.7" />
<circle cx="301.3104024852934" cy="343.99448641317355" r="13" fill="#2e7d32" fill-opacity="0.7" />
<circle cx="331.9130008665356" cy="348.5734956171492" r="9" fill="#2e7d32" fill-opacity="0.7" />
<path d="M406,400 Q463.72058823529414,380 502.81711703487616,337.1262290460594" stroke="#5d4037" stroke-width="8" fill="none" stroke-linecap="round" stroke-opacity="1.0" />
<circle cx="517.5199525943772" cy="352.6030915553472" r="8" fill="#66bb6a" fill-opacity="0.7" />
<circle cx="484.6578698384109" cy="360.54888575638256" r="12" fill="#66bb6a" fill-opacity="0.7" />
<circle cx="495.73177026267297" cy="371.4210041817991" r="13" fill="#2e7d32" fill-opacity="0.7" />
<circle cx="490.2579036929797" cy="366.47544354778273" r="9" fill="#66bb6a" fill-opacity="0.7" />
<circle cx="470.62964032809305" cy="368.4247613592428" r="12" fill="#2e7d32" fill-opacity="0.7" />
<circle cx="497.5281129407228" cy="363.20381947227554" r="8" fill="#43a047" fill-opacity="0.7" />
<circle cx="473.95272942926914" cy="367.6787779684883" r="11" fill="#43a047" fill-opacity="0.7" />
<circle cx="513.5962199684384" cy="348.06588417654126" r="14" fill="#43a047" fill-opacity="0.7" />
<circle cx="532.5808358600319" cy="303.88971807166297" r="10" fill="#a5d6a7" fill-opacity="0.7" />
<circle cx="532.4131085084452" cy="330.1494088098339" r="16" fill="#a5d6a7" fill-opacity="0.7" />
<path d="M406,385 Q348.83088235294116,365 350.5677235674225,284.99752613222347" stroke="#5d4037" stroke-width="8" fill="none" stroke-linecap="round" stroke-opacity="1.0" />
<circle cx="334.8799010448819" cy="258.6538114956991" r="8" fill="#43a047" fill-opacity="0.7" />
<circle cx="317.76400006250117" cy="264.7389403212245" r="16" fill="#66bb6a" fill-opacity="0.7" />
<circle cx="370.8552271887457" cy="302.4026544600496" r="10" fill="#a5d6a7" fill-opacity="0.7" />
<circle cx="343.3578385731936" cy="252.09570233746842" r="14" fill="#43a047" fill-opacity="0.7" />
<circle cx="383.1084107139511" cy="293.4736809214645" r="10" fill="#66bb6a" fill-opacity="0.7" />
<circle cx="333.79436460175816" cy="316.6512822804566" r="16" fill="#43a047" fill-opacity="0.7" />
<circle cx="376.7000770669276" cy="278.5368249814742" r="9" fill="#a5d6a7" fill-opacity="0.7" />
<circle cx="361.33946445817446" cy="299.8658963612291" r="10" fill="#43a047" fill-opacity="0.7" />
<circle cx="356.209466109124" cy="268.7318936218622" r="15" fill="#66bb6a" fill-opacity="0.7" />
<circle cx="367.62149473115056" cy="309.22838415611824" r="12" fill="#43a047" fill-opacity="0.7" />
<path d="M406,370 Q463.16911764705884,350 494.8574977989404,298.04461705275753" stroke="#5d4037" stroke-width="8" fill="none" stroke-linecap="round" stroke-opacity="1.0" />
<circle cx="497.15609149537573" cy="310.2112846673168" r="16" fill="#66bb6a" fill-opacity="0.7" />
<circle cx="498.8345239335576" cy="323.1781186351348" r="12" fill="#a5d6a7" fill-opacity="0.7" />
<circle cx="469.2943053843551" cy="306.7184436857521" r="12" fill="#66bb6a" fill-opacity="0.7" />
<circle cx="482.0630382773423" cy="295.82164472514256" r="9" fill="#a5d6a7" fill-opacity="0.7" />
<circle cx="483.5619351867707" cy="316.82866364875963" r="8" fill="#2e7d32" fill-opacity="0.7" />
<circle cx="488.4532859149688" cy="316.963870028978" r="13" fill="#a5d6a7" fill-opacity="0.7" />
<circle cx="527.0954915275164" cy="311.8050632747024" r="13" fill="#66bb6a" fill-opacity="0.7" />
<circle cx="462.54597871188827" cy="286.61410266271133" r="13" fill="#43a047" fill-opacity="0.7" />
<circle cx="493.6111214592051" cy="282.45790754329033" r="15" fill="#66bb6a" fill-opacity="0.7" />
<circle cx="476.43846111292504" cy="309.7949259142604" r="14" fill="#43a047" fill-opacity="0.7" />
<path d="M406,355 Q349.93382352941177,335 318.856794763097,284.43282379772046" stroke="#5d4037" stroke-width="8" fill="none" stroke-linecap="round" stroke-opacity="1.0" />
<circle cx="311.1356870855756" cy="275.073002025174" r="9" fill="#66bb6a" fill-opacity="0.7" />
<circle cx="309.91893696340156" cy="268.7055716549351" r="13" fill="#43a047" fill-opacity="0.7" />
<circle cx="353.56813546709407" cy="311.16337308260404" r="8" fill="#66bb6a" fill-opacity="0.7" />
<circle cx="312.55815440513487" cy="305.0229964321384" r="13" fill="#66bb6a" fill-opacity="0.7" />
<circle cx="344.99117650426626" cy="283.56461752099403" r="14" fill="#a5d6a7" fill-opacity="0.7" />
<circle cx="347.68251220105327" cy="283.20925319259334" r="14" fill="#a5d6a7" fill-opacity="0.7" />
<circle cx="305.4231896886804" cy="254.29561678892614" r="14" fill="#a5d6a7" fill-opacity="0.7" />
<circle cx="309.59747359776986" cy="265.0558844783124" r="12" fill="#66bb6a" fill-opacity="0.7" />
<circle cx="297.5747818945361" cy="260.6191870288227" r="13" fill="#66bb6a" fill-opacity="0.7" />
<circle cx="287.91493293573706" cy="298.23746165557554" r="13" fill="#2e7d32" fill-opacity="0.7" />
<text x="400" y="580" font-family="Segoe UI, Helvetica, Arial, sans-serif" font-size="20" fill="#3e2723" text-anchor="middle" font-weight="bold">@prithwiraj84's Contribution Garden</text>
<text x="400" y="595" font-family="Segoe UI, Helvetica, Arial, sans-serif" font-size="14" fill="#5d4037" text-anchor="middle" font-weight="bold">Grown over 5 years</text></svg>