<svg xmlns="http://www.w3.org/2000/svg" width="800" height="600" viewBox="0 0 800 600">
        <defs>
            <linearGradient id="sky" x1="0%" y1="0%" x2="0%" y2="100%">
                <stop offset="0%" style="stop-color:#e0f7fa;stop-opacity:1" />
                <stop offset="100%" style="stop-color:#ffffff;stop-opacity:1" />
            </linearGradient>
            <filter id="glow" x="-20%" y="-20%" width="140%" height="140%">
                <feGaussianBlur stdDeviation="2" result="coloredBlur"/>
                <feMerge>
                    <feMergeNode in="coloredBlur"/>
                    <feMergeNode in="SourceGraphic"/>
                </feMerge>
            </filter>
        </defs>
        <rect width="100%" height="100%" fill="url(#sky)"/><path d="M0,550 Q400,530 800,550 L800,600 L0,600 Z" stroke="#4e342e" stroke-width="0" fill="#5d4037" stroke-linecap="round" stroke-opacity="1.0" />
<path d="M0,550 Q400,530 800,550" stroke="none" stroke-width="0" fill="#76ff03" stroke-linecap="round" stroke-opacity="0.1" />
<path d="M400,550 Q393.5,470.0 387,390" stroke="#4e342e" stroke-width="35" fill="none" stroke-linecap="round" stroke-opacity="1.0" />
<path d="M387,430 Q467.75,410 528.2510827030123,351.70324633021653" stroke="#5d4037" stroke-width="8" fill="none" stroke-linecap="round" stroke-opacity="1.0" />
<circle cx="542.3975193715146" cy="370.64450518478304" r="10" fill="#43a047" fill-opacity="0.7" />
<circle cx="534.0432867843234" cy="323.93964584575633" r="11" fill="#43a047" fill-opacity="0.7" />
<circle cx="532.3634209617338" cy="371.9784437072074" r="14" fill="#a5d6a7" fill-opacity="0.7" />
<circle cx="523.8928188471583" cy="321.2462235177319" r="12" fill="#66bb6a" fill-opacity="0.7" />
<circle cx="513.6421985121565" cy="377.8744543120282" r="14" fill="#a5d6a7" fill-opacity="0.7" />
<circle cx="522.8374893898678" cy="361.03920200906754" r="13" fill="#2e7d32" fill-opacity="0.7" />
<circle cx="540.0968370908264" cy="321.2233185846464" r="10" fill="#43a047" fill-opacity="0.7" />
<circle cx="546.5656244399457" cy="338.69285589093244" r="14" fill="#66bb6a" fill-opacity="0.7" />
<circle cx="532.4511840342542" cy="334.2502259688576" r="15" fill="#43a047" fill-opacity="0.7" />
<circle cx="501.27137006093136" cy="340.20661143567725" r="11" fill="#2e7d32" fill-opacity="0.7" />
<path d="M387,415 Q320.5,395 272.9967490066191,346.49993603696277" stroke="#5d4037" stroke-width="8" fill="none" stroke-linecap="round" stroke-opacity="1.0" />
<circle cx="279.91595985652276" cy="321.0903050044076" r="12" fill="#2e7d32" fill-opacity="0.7" />
<circle cx="290.64296768270987" cy="351.04165235555905" r="8" fill="#43a047" fill-opacity="0.7" />
<circle cx="255.33826996444023" cy="375.68238652482296" r="16" fill="#2e7d32" fill-opacity="0.7" />
<circle cx="279.97837124663965" cy="335.3112554266053" r="10" fill="#66bb6a" fill-opacity="0.7" />
<circle cx="296.2001592549613" cy="336.65276973200946" r="11" fill="#43a047" fill-opacity="0.7" />
<circle cx="290.9998522438507" cy="333.22036233518907" r="13" fill="#2e7d32" fill-opacity="0.7" />
<circle cx="256.73730646594294" cy="352.08245305676417" r="13" fill="#43a047" fill-opacity="0.7" />
<circle cx="251.31479910261245" cy="362.47822674389056" r="15" fill="#66bb6a" fill-opacity="0.7" />
<circle cx="266.5080694981847" cy="379.4567322377692" r="14" fill="#2e7d32" fill-opacity="0.7" />
<circle cx="260.10388721362654" cy="371.85637886992953" r="10" fill="#2e7d32" fill-opacity="0.7" />
<path d="M387,400 Q446.75,380 448.5470499517515,297.5685075660976" stroke="#5d4037" stroke-width="8" fill="none" stroke-linecap="round" stroke-opacity="1.0" />
<circle cx="432.879157404128" cy="280.6144982882146" r="15" fill="#a5d6a7" fill-opacity="0.7" />
<circle cx="466.7571539359931" cy="317.0874773246368" r="9" fill="#66bb6a" fill-opacity="0.7" />
<circle cx="472.60908219048355" cy="275.3150082213483" r="10" fill="#66bb6a" fill-opacity="0.7" />
<circle cx="461.4200112764709" cy="275.78401011075346" r="14" fill="#66bb6a" fill-opacity="0.7" />
<circle cx="432.5522951525142" cy="317.8498786776571" r="14" fill="#66bb6a" fill-opacity="0.7" />
<circle cx="427.2146839398349" cy="316.04418555052126" r="9" fill="#43a047" fill-opacity="0.7" />
<circle cx="436.9045350631122" cy="306.75499583882845" r="12" fill="#43a047" fill-opacity="0.7" />
<circle cx="415.80490556113295" cy="276.4994907174442" r="13" fill="#a5d6a7" fill-opacity="0.7" />
<circle cx="482.6630623613165" cy="316.47710761056555" r="15" fill="#43a047" fill-opacity="0.7" />
<circle cx="469.23706846606325" cy="316.28171199576815" r="16" fill="#a5d6a7" fill-opacity="0.7" />
<path d="M387,385 Q328.0,365 296.6067557119606,309.15106205698834" stroke="#5d4037" stroke-width="8" fill="none" stroke-linecap="round" stroke-opacity="1.0" />
<circle cx="292.9658712325569" cy="330.4008616509529" r="13" fill="#2e7d32" fill-opacity="0.7" />
<circle cx="322.9257244181821" cy="299.3981577643129" r="11" fill="#43a047" fill-opacity="0.7" />
<circle cx="327.39457213111126" cy="274.620869330819" r="15" fill="#43a047" fill-opacity="0.7" />
<circle cx="282.173530929841" cy="304.5948040938416" r="14" fill="#43a047" fill-opacity="0.7" />
<circle cx="290.0549287014969" cy="285.75179424988454" r="8" fill="#2e7d32" fill-opacity="0.7" />
<circle cx="277.31238375979467" cy="281.46071766439104" r="10" fill="#66bb6a" fill-opacity="0.7" />
<circle cx="266.0788036681089" cy="327.9133544858043" r="12" fill="#2e7d32" fill-opacity="0.7" />
<circle cx="270.1718077682013" cy="298.7256026980015" r="12" fill="#66bb6a" fill-opacity="0.7" />
<circle cx="308.0144925633761" cy="307.33859973972073" r="10" fill="#a5d6a7" fill-opacity="0.7" />
<circle cx="264.01103247661393" cy="312.3418338723691" r="13" fill="#2e7d32" fill-opacity="0.7" />
<path d="M387,370 Q443.0,350 460.4786112469368,285.47252701504954" stroke="#5d4037" stroke-width="8" fill="none" stroke-linecap="round" stroke-opacity="1.0" />
<circle cx="468.83160502443815" cy="268.92002904500924" r="15" fill="#66bb6a" fill-opacity="0.7" />
<circle cx="427.377639059486" cy="298.93588718071305" r="11" fill="#2e7d32" fill-opacity="0.7" />
<circle cx="433.2064489729308" cy="276.6795378984924" r="8" fill="#a5d6a7" fill-opacity="0.7" />
<circle cx="480.4006090665182" cy="283.39607913745476" r="16" fill="#66bb6a" fill-opacity="0.7" />
<circle cx="448.351803934551" cy="280.3625838601699" r="9" fill="#a5d6a7" fill-opacity="0.7" />
<circle cx="486.17056693232354" cy="315.6519850591749" r="8" fill="#66bb6a" fill-opacity="0.7" />
<circle cx="462.96399092362185" cy="301.48583621282705" r="12" fill="#43a047" fill-opacity="0.7" />
<circle cx="470.23158656771614" cy="297.5700445217317" r="9" fill="#43a047" fill-opacity="0.7" />
<circle cx="489.1445073374427" cy="284.5990762813109" r="12" fill="#66bb6a" fill-opacity="0.7" />
<circle cx="472.2408375207028" cy="255.64027900049618" r="16" fill="#43a047" fill-opacity="0.7" />
<path d="M387,355 Q334.0,335 327.7255522321009,267.1220173091656" stroke="#5d4037" stroke-width="8" fill="none" stroke-linecap="round" stroke-opacity="1.0" />
<circle cx="317.26447387422365" cy="274.90744536128017" r="14" fill="#66bb6a" fill-opacity="0.7" />
<circle cx="300.8596388481565" cy="274.990025291525" r="15" fill="#66bb6a" fill-opacity="0.7" />
<circle cx="325.6811381015508" cy="297.77287168412073" r="16" fill="#a5d6a7" fill-opacity="0.7" />
<circle cx="352.81413053378344" cy="265.39471294652645" r="13" fill="#a5d6a7" fill-opacity="0.7" />
<circle cx="318.72841367976133" cy="242.56997183515648" r="11" fill="#43a047" fill-opacity="0.7" />
<circle cx="300.2360757575557" cy="262.44553771294403" r="15" fill="#66bb6a" fill-opacity="0.7" />
<circle cx="335.7377440012999" cy="259.2092173871191" r="11" fill="#66bb6a" fill-opacity="0.7" />
<circle cx="325.0872446738843" cy="274.61357275978634" r="8" fill="#43a047" fill-opacity="0.7" />
<circle cx="293.41360280216134" cy="239.0639773848794" r="14" fill="#2e7d32" fill-opacity="0.7" />
<circle cx="346.8736931318511" cy="272.4803214342843" r="14" fill="#66bb6a" fill-opacity="0.7" />
<text x="400" y="580" font-family="Segoe UI, Helvetica, Arial, sans-serif" font-size="20" fill="#3e2723" text-anchor="middle" font-weight="bold">@prithwiraj84's Contribution Garden</text>
<text x="400" y="595" font-family="Segoe UI, Helvetica, Arial, sans-serif" font-size="14" fill="#5d4037" text-anchor="middle" font-weight="bold">Grown over 5 years</text></svg>