<svg xmlns="http://www.w3.org/2000/svg" width="800" height="600" viewBox="0 0 800 600">
        <defs>
            <linearGradient id="sky" x1="0%" y1="0%" x2="0%" y2="100%">
                <stop offset="0%" style="stop-color:#e0f7fa;stop-opacity:1" />
                <stop offset="100%" style="stop-color:#ffffff;stop-opacity:1" />
            </linearGradient>
            <filter id="glow" x="-20%" y="-20%" width="140%" height="140%">
                <feGaussianBlur stdDeviation="2" result="coloredBlur"/>
                <feMerge>
                    <feMergeNode in="coloredBlur"/>
                    <feMergeNode in="SourceGraphic"/>
                </feMerge>
            </filter>
        </defs>
        <rect width="100%" height="100%" fill="url(#sky)"/><path d="M0,550 Q400,530 800,550 L800,600 L0,600 Z" stroke="#4e342e" stroke-width="0" fill="#5d4037" stroke-linecap="round" stroke-opacity="1.0" />
<path d="M0,550 Q400,530 800,550" stroke="none" stroke-width="0" fill="#76ff03" stroke-linecap="round" stroke-opacity="0.1" />
<path d="M400,550 Q394.5,470.0 389,390" stroke="#4e342e" stroke-width="35" fill="none" stroke-linecap="round" stroke-opacity="1.0" />
<path d="M389,430 Q480.00985221674875,410 495.9884978926448,282.7429658021955" stroke="#5d4037" stroke-width="8" fill="none" stroke-linecap="round" stroke-opacity="1.0" />
<circle cx="500.2594251579143" cy="275.9942163659688" r="8" fill="#2e7d32" fill-opacity="0.7" />
<circle cx="465.81794305040205" cy="273.34596922266155" r="16" fill="#a5d6a7" fill-opacity="0.7" />
<circle cx="477.64794597232185" cy="266.6447857041988" r="15" fill="#2e7d32" fill-opacity="0.7" />
<circle cx="506.9671475918475" cy="288.66972909693357" r="11" fill="#a5d6a7" fill-opacity="0.7" />
<circle cx="475.8979750281624" cy="253.25679652700993" r="16" fill="#2e7d32" fill-opacity="0.7" />
<circle cx="467.08832575723216" cy="261.73102211738325" r="15" fill="#2e7d32" fill-opacity="0.7" />
<circle cx="478.41286539043926" cy="284.14554187561214" r="16" fill="#2e7d32" fill-opacity="0.7" />
<circle cx="500.4699120611338" cy="273.08919675214935" r="14" fill="#66bb6a" fill-opacity="0.7" />
<circle cx="526.0456903292502" cy="266.6895735485771" r="13" fill="#a5d6a7" fill-opacity="0.7" />
<circle cx="514.3623744792569" cy="284.7595541671513" r="8" fill="#2e7d32" fill-opacity="0.7" />
<circle cx="492.2918931599265" cy="258.7188552127824" r="14" fill="#2e7d32" fill-opacity="0.7" />
<circle cx="505.9913528386605" cy="317.3409081534382" r="12" fill="#43a047" fill-opacity="0.7" />
<circle cx="473.09213104187194" cy="307.74905572712686" r="8" fill="#2e7d32" fill-opacity="0.7" />
<circle cx="489.4135208312687" cy="285.11160256040915" r="12" fill="#43a047" fill-opacity="0.7" />
<circle cx="462.26002680622145" cy="300.5400593166475" r="12" fill="#a5d6a7" fill-opacity="0.7" />
<circle cx="503.198447826719" cy="268.2814269937343" r="10" fill="#a5d6a7" fill-opacity="0.7" />
<circle cx="520.8148193554066" cy="282.5912484768113" r="10" fill="#66bb6a" fill-opacity="0.7" />
<circle cx="478.7563811115624" cy="287.50362811072773" r="12" fill="#43a047" fill-opacity="0.7" />
<circle cx="503.40003123299414" cy="317.27803065565803" r="9" fill="#43a047" fill-opacity="0.7" />
<circle cx="480.4361079636614" cy="299.17178282666487" r="11" fill="#43a047" fill-opacity="0.7" />
<circle cx="482.5276165150932" cy="262.8075011675884" r="12" fill="#a5d6a7" fill-opacity="0.7" />
<circle cx="478.76324631745126" cy="280.5990272130105" r="9" fill="#43a047" fill-opacity="0.7" />
<path d="M389,415 Q325.33004926108373,395 285.979855642402,340.1514838829535" stroke="#5d4037" stroke-width="8" fill="none" stroke-linecap="round" stroke-opacity="1.0" />
<circle cx="308.02837421269544" cy="309.3927916803983" r="9" fill="#66bb6a" fill-opacity="0.7" />
<circle cx="284.1790818454539" cy="336.65511504069553" r="13" fill="#a5d6a7" fill-opacity="0.7" />
<circle cx="308.36096558533296" cy="364.81864134285803" r="9" fill="#43a047" fill-opacity="0.7" />
<circle cx="265.6967265912204" cy="319.7802609013269" r="12" fill="#43a047" fill-opacity="0.7" />
<circle cx="258.5094304850275" cy="368.6556272315223" r="14" fill="#2e7d32" fill-opacity="0.7" />
<circle cx="276.28073395214915" cy="315.00597533482284" r="14" fill="#2e7d32" fill-opacity="0.7" />
<circle cx="276.84759907872115" cy="313.22139711922847" r="10" fill="#66bb6a" fill-opacity="0.7" />
<circle cx="265.67527236131133" cy="321.48614099402585" r="11" fill="#a5d6a7" fill-opacity="0.7" />
<circle cx="286.6511919767973" cy="371.2604041384287" r="11" fill="#a5d6a7" fill-opacity="0.7" />
<circle cx="272.66106677280794" cy="324.8413001826111" r="13" fill="#2e7d32" fill-opacity="0.7" />
<path d="M389,400 Q444.9113300492611,380 474.6611273832552,328.1217796064806" stroke="#5d4037" stroke-width="8" fill="none" stroke-linecap="round" stroke-opacity="1.0" />
<circle cx="455.0423765723752" cy="313.7950138974769" r="15" fill="#66bb6a" fill-opacity="0.7" />
<circle cx="468.85833874235743" cy="323.14340325584004" r="10" fill="#66bb6a" fill-opacity="0.7" />
<circle cx="467.97971021028894" cy="342.2878297123518" r="15" fill="#a5d6a7" fill-opacity="0.7" />
<circle cx="494.48048481233775" cy="358.8598954428839" r="14" fill="#43a047" fill-opacity="0.7" />
<circle cx="491.89410667131864" cy="348.6857607374453" r="12" fill="#a5d6a7" fill-opacity="0.7" />
<circle cx="466.9636806561987" cy="299.1813725597151" r="16" fill="#43a047" fill-opacity="0.7" />
<circle cx="477.96609130913765" cy="319.1092660616532" r="8" fill="#43a047" fill-opacity="0.7" />
<circle cx="475.4128568187258" cy="326.5786571138617" r="14" fill="#66bb6a" fill-opacity="0.7" />
<circle cx="507.992032324196" cy="306.54196667081953" r="12" fill="#43a047" fill-opacity="0.7" />
<circle cx="486.3869939201867" cy="346.1024614506977" r="9" fill="#43a047" fill-opacity="0.7" />
<path d="M389,385 Q333.82758620689657,365 303.24596287371355,315.5577499531214" stroke="#5d4037" stroke-width="8" fill="none" stroke-linecap="round" stroke-opacity="1.0" />
<circle cx="331.7595112887075" cy="321.52331950576894" r="15" fill="#2e7d32" fill-opacity="0.7" />
<circle cx="337.7923349729163" cy="309.69999181958326" r="9" fill="#2e7d32" fill-opacity="0.7" />
<circle cx="306.46092810090465" cy="320.3952447891435" r="10" fill="#43a047" fill-opacity="0.7" />
<circle cx="329.56641284844557" cy="284.4820250293111" r="9" fill="#a5d6a7" fill-opacity="0.7" />
<circle cx="282.9041411296892" cy="298.8596745072886" r="11" fill="#a5d6a7" fill-opacity="0.7" />
<circle cx="272.93495205749326" cy="313.6894741018394" r="9" fill="#a5d6a7" fill-opacity="0.7" />
<circle cx="280.54525650957453" cy="320.498429251416" r="9" fill="#2e7d32" fill-opacity="0.7" />
<circle cx="308.5764423343366" cy="338.01380371164" r="16" fill="#2e7d32" fill-opacity="0.7" />
<circle cx="308.3529473734178" cy="348.7259687119358" r="10" fill="#66bb6a" fill-opacity="0.7" />
<circle cx="293.1608352440482" cy="301.1015263042226" r="10" fill="#a5d6a7" fill-opacity="0.7" />
<circle cx="311.52110161938265" cy="317.27531651993877" r="5" fill="#ffeb3b" fill-opacity="1.0" />
<circle cx="311.52110161938265" cy="317.27531651993877" r="9" fill="#ffeb3b" fill-opacity="0.3" />
<path d="M389,370 Q443.8029556650246,350 450.2908477942075,279.1325813332528" stroke="#5d4037" stroke-width="8" fill="none" stroke-linecap="round" stroke-opacity="1.0" />
<circle cx="425.0687384198042" cy="247.98617358972845" r="10" fill="#66bb6a" fill-opacity="0.7" />
<circle cx="473.5383878793711" cy="272.92155025282165" r="13" fill="#a5d6a7" fill-opacity="0.7" />
<circle cx="484.6177494979161" cy="272.7972573279127" r="15" fill="#2e7d32" fill-opacity="0.7" />
<circle cx="452.72103297721793" cy="261.1336712331644" r="9" fill="#66bb6a" fill-opacity="0.7" />
<circle cx="462.14785347727894" cy="253.30929100836832" r="9" fill="#a5d6a7" fill-opacity="0.7" />
<circle cx="469.8879115282628" cy="274.86142284377416" r="15" fill="#43a047" fill-opacity="0.7" />
<circle cx="484.55656863267416" cy="264.91315234039683" r="11" fill="#2e7d32" fill-opacity="0.7" />
<circle cx="444.18385507421397" cy="273.6575147062424" r="12" fill="#66bb6a" fill-opacity="0.7" />
<circle cx="426.5004798704984" cy="254.86282077980042" r="16" fill="#43a047" fill-opacity="0.7" />
<circle cx="459.9475992167355" cy="288.21992975823287" r="11" fill="#a5d6a7" fill-opacity="0.7" />
<path d="M389,355 Q334.5665024630542,335 323.482206839112,268.05495186184646" stroke="#5d4037" stroke-width="8" fill="none" stroke-linecap="round" stroke-opacity="1.0" />
<circle cx="302.33849975353564" cy="279.01555141143956" r="13" fill="#66bb6a" fill-opacity="0.7" />
<circle cx="358.3980609290653" cy="242.23073920422652" r="8" fill="#66bb6a" fill-opacity="0.7" />
<circle cx="327.472668807091" cy="260.91504956037124" r="11" fill="#43a047" fill-opacity="0.7" />
<circle cx="354.01011484130595" cy="282.3379273434253" r="13" fill="#a5d6a7" fill-opacity="0.7" />
<circle cx="334.69181530259215" cy="265.72770143600303" r="16" fill="#43a047" fill-opacity="0.7" />
<circle cx="345.37778384609595" cy="282.6327242648964" r="15" fill="#43a047" fill-opacity="0.7" />
<circle cx="351.78102273379136" cy="301.63678186023685" r="10" fill="#2e7d32" fill-opacity="0.7" />
<circle cx="318.9511356968632" cy="238.61521145021544" r="14" fill="#43a047" fill-opacity="0.7" />
<circle cx="303.95414528437425" cy="248.02080508789402" r="10" fill="#a5d6a7" fill-opacity="0.7" />
<circle cx="318.57968022809325" cy="272.23906813220833" r="12" fill="#2e7d32" fill-opacity="0.7" />
<text x="400" y="580" font-family="Segoe UI, Helvetica, Arial, sans-serif" font-size="20" fill="#3e2723" text-anchor="middle" font-weight="bold">@prithwiraj84's Contribution Garden</text>
<text x="400" y="595" font-family="Segoe UI, Helvetica, Arial, sans-serif" font-size="14" fill="#5d4037" text-anchor="middle" font-weight="bold">Grown over 5 years</text></svg>