<svg xmlns="http://www.w3.org/2000/svg" width="800" height="600" viewBox="0 0 800 600">
        <defs>
            <linearGradient id="sky" x1="0%" y1="0%" x2="0%" y2="100%">
                <stop offset="0%" style="stop-color:#e0f7fa;stop-opacity:1" />
                <stop offset="100%" style="stop-color:#ffffff;stop-opacity:1" />
            </linearGradient>
            <filter id="glow" x="-20%" y="-20%" width="140%" height="140%">
                <feGaussianBlur stdDeviation="2" result="coloredBlur"/>
                <feMerge>
                    <feMergeNode in="coloredBlur"/>
                    <feMergeNode in="SourceGraphic"/>
                </feMerge>
            </filter>
        </defs>
        <rect width="100%" height="100%" fill="url(#sky)"/><path d="M0,550 Q400,530 800,550 L800,600 L0,600 Z" stroke="#4e342e" stroke-width="0" fill="#5d4037" stroke-linecap="round" stroke-opacity="1.0" />
<path d="M0,550 Q400,530 800,550" stroke="none" stroke-width="0" fill="#76ff03" stroke-linecap="round" stroke-opacity="0.1" />
<path d="M400,550 Q413.5,470.0 427,390" stroke="#4e342e" stroke-width="35" fill="none" stroke-linecap="round" stroke-opacity="1.0" />
<path d="M427,430 Q512.7615894039735,410 562.1621093934708,324.39978668255264" stroke="#5d4037" stroke-width="8" fill="none" stroke-linecap="round" stroke-opacity="1.0" />
<circle cx="579.2880885559678" cy="338.22588397715396" r="15" fill="#66bb6a" fill-opacity="0.7" />
<circle cx="572.2731826883225" cy="310.9156210722503" r="11" fill="#2e7d32" fill-opacity="0.7" />
<circle cx="529.614398937833" cy="335.7723905406912" r="14" fill="#a5d6a7" fill-opacity="0.7" />
<circle cx="568.1943585146971" cy="301.05267223965535" r="15" fill="#43a047" fill-opacity="0.7" />
<circle cx="574.4115023142483" cy="320.9399040289369" r="16" fill="#66bb6a" fill-opacity="0.7" />
<circle cx="593.870474093761" cy="354.92995803609335" r="16" fill="#a5d6a7" fill-opacity="0.7" />
<circle cx="576.1984587466343" cy="329.3785719220196" r="16" fill="#66bb6a" fill-opacity="0.7" />
<circle cx="586.9752311614787" cy="301.16493823214853" r="10" fill="#66bb6a" fill-opacity="0.7" />
<circle cx="564.5666110855664" cy="299.9196128848505" r="12" fill="#66bb6a" fill-opacity="0.7" />
<circle cx="579.4511001620667" cy="315.8091016055355" r="16" fill="#2e7d32" fill-opacity="0.7" />
<circle cx="575.2809536134297" cy="329.5646976782009" r="8" fill="#43a047" fill-opacity="0.7" />
<circle cx="546.7657059329672" cy="350.8501115428011" r="15" fill="#66bb6a" fill-opacity="0.7" />
<circle cx="589.48573265503" cy="357.01868249106315" r="14" fill="#a5d6a7" fill-opacity="0.7" />
<circle cx="535.3677276868706" cy="316.31042190406066" r="13" fill="#43a047" fill-opacity="0.7" />
<path d="M427,415 Q363.58940397350995,395 361.6822573872348,306.29302113612283" stroke="#5d4037" stroke-width="8" fill="none" stroke-linecap="round" stroke-opacity="1.0" />
<circle cx="359.9097665274176" cy="309.299996729044" r="13" fill="#2e7d32" fill-opacity="0.7" />
<circle cx="365.38217141793285" cy="329.4748473663476" r="12" fill="#2e7d32" fill-opacity="0.7" />
<circle cx="381.7107514221476" cy="311.9523511401188" r="8" fill="#66bb6a" fill-opacity="0.7" />
<circle cx="375.7578129800046" cy="315.5069088891877" r="9" fill="#66bb6a" fill-opacity="0.7" />
<circle cx="347.41742203097266" cy="293.3426591952734" r="12" fill="#a5d6a7" fill-opacity="0.7" />
<circle cx="332.5465467936773" cy="277.2768208302284" r="16" fill="#43a047" fill-opacity="0.7" />
<circle cx="379.98876372304676" cy="325.601097411033" r="9" fill="#43a047" fill-opacity="0.7" />
<circle cx="327.1692193489788" cy="303.0499415505114" r="8" fill="#a5d6a7" fill-opacity="0.7" />
<circle cx="351.4957940622917" cy="283.25790668482693" r="13" fill="#66bb6a" fill-opacity="0.7" />
<circle cx="387.3018813534019" cy="314.9662773063395" r="8" fill="#a5d6a7" fill-opacity="0.7" />
<path d="M427,400 Q483.95364238410593,380 521.4334188605743,336.3038547039944" stroke="#5d4037" stroke-width="8" fill="none" stroke-linecap="round" stroke-opacity="1.0" />
<circle cx="492.2593851624132" cy="303.23469923805715" r="15" fill="#2e7d32" fill-opacity="0.7" />
<circle cx="550.1340536044466" cy="348.5632834384162" r="8" fill="#66bb6a" fill-opacity="0.7" />
<circle cx="535.0790080227761" cy="315.79607878753603" r="11" fill="#43a047" fill-opacity="0.7" />
<circle cx="543.1048359622695" cy="354.62087100366995" r="14" fill="#a5d6a7" fill-opacity="0.7" />
<circle cx="486.83920064102864" cy="302.55697684708497" r="16" fill="#a5d6a7" fill-opacity="0.7" />
<circle cx="496.7244032007323" cy="348.04610296405417" r="9" fill="#2e7d32" fill-opacity="0.7" />
<circle cx="489.6816643376975" cy="364.055553199771" r="12" fill="#43a047" fill-opacity="0.7" />
<circle cx="552.2657781128834" cy="339.861249767275" r="13" fill="#2e7d32" fill-opacity="0.7" />
<circle cx="502.0128672419307" cy="347.41436355998974" r="12" fill="#2e7d32" fill-opacity="0.7" />
<circle cx="519.0036558077851" cy="368.8682493493185" r="15" fill="#a5d6a7" fill-opacity="0.7" />
<path d="M427,385 Q370.5430463576159,365 334.50634201902443,320.2352434451302" stroke="#5d4037" stroke-width="8" fill="none" stroke-linecap="round" stroke-opacity="1.0" />
<circle cx="358.34783658151065" cy="290.37105577793255" r="8" fill="#2e7d32" fill-opacity="0.7" />
<circle cx="349.75417520635835" cy="312.64706444877163" r="16" fill="#a5d6a7" fill-opacity="0.7" />
<circle cx="313.22193331147986" cy="300.0601029608228" r="10" fill="#a5d6a7" fill-opacity="0.7" />
<circle cx="353.0172172562868" cy="331.85802077147724" r="10" fill="#66bb6a" fill-opacity="0.7" />
<circle cx="363.7370210434226" cy="335.90665620690476" r="12" fill="#66bb6a" fill-opacity="0.7" />
<circle cx="299.70026937756677" cy="338.88395157071983" r="8" fill="#2e7d32" fill-opacity="0.7" />
<circle cx="364.6856511358202" cy="291.726661956595" r="16" fill="#43a047" fill-opacity="0.7" />
<circle cx="304.98638302704103" cy="345.8970360071762" r="9" fill="#66bb6a" fill-opacity="0.7" />
<circle cx="332.46567021616244" cy="327.0249789665038" r="8" fill="#2e7d32" fill-opacity="0.7" />
<circle cx="366.1789704893684" cy="286.00242107149654" r="13" fill="#2e7d32" fill-opacity="0.7" />
<path d="M427,370 Q483.4569536423841,350 523.7861091190133,311.84503856148064" stroke="#5d4037" stroke-width="8" fill="none" stroke-linecap="round" stroke-opacity="1.0" />
<circle cx="490.61864547932436" cy="290.07486778760483" r="9" fill="#2e7d32" fill-opacity="0.7" />
<circle cx="530.9066816555785" cy="296.84526517430936" r="14" fill="#66bb6a" fill-opacity="0.7" />
<circle cx="516.081828409734" cy="295.52459078841605" r="9" fill="#a5d6a7" fill-opacity="0.7" />
<circle cx="504.7902028838951" cy="343.7051227209753" r="11" fill="#66bb6a" fill-opacity="0.7" />
<circle cx="530.0335140599431" cy="278.4639204983347" r="8" fill="#66bb6a" fill-opacity="0.7" />
<circle cx="527.3575968061939" cy="306.3008671604819" r="16" fill="#66bb6a" fill-opacity="0.7" />
<circle cx="490.83590461102847" cy="279.0144644171334" r="11" fill="#a5d6a7" fill-opacity="0.7" />
<circle cx="552.1170708113394" cy="300.18172968786007" r="10" fill="#2e7d32" fill-opacity="0.7" />
<circle cx="543.0262907276594" cy="311.5967362060097" r="13" fill="#a5d6a7" fill-opacity="0.7" />
<circle cx="537.0796466052753" cy="288.6593141275582" r="13" fill="#66bb6a" fill-opacity="0.7" />
<path d="M427,355 Q371.03973509933775,335 349.25346714730426,274.4911084389192" stroke="#5d4037" stroke-width="8" fill="none" stroke-linecap="round" stroke-opacity="1.0" />
<circle cx="376.6204693316967" cy="276.4397559371914" r="15" fill="#66bb6a" fill-opacity="0.7" />
<circle cx="359.48494946040097" cy="276.60472442184226" r="13" fill="#a5d6a7" fill-opacity="0.7" />
<circle cx="357.1288026532871" cy="260.72716499717103" r="10" fill="#2e7d32" fill-opacity="0.7" />
<circle cx="334.3736194917392" cy="257.67746319831093" r="10" fill="#66bb6a" fill-opacity="0.7" />
<circle cx="322.55096626313224" cy="292.7239344341937" r="11" fill="#a5d6a7" fill-opacity="0.7" />
<circle cx="322.37537873612985" cy="293.5615812587744" r="15" fill="#43a047" fill-opacity="0.7" />
<circle cx="366.9364702739836" cy="242.12971945932253" r="13" fill="#43a047" fill-opacity="0.7" />
<circle cx="337.7976340893687" cy="282.16208655874607" r="11" fill="#43a047" fill-opacity="0.7" />
<circle cx="367.54265276398183" cy="280.1346140696115" r="10" fill="#66bb6a" fill-opacity="0.7" />
<circle cx="317.347672203026" cy="294.6223981652453" r="10" fill="#a5d6a7" fill-opacity="0.7" />
<text x="400" y="580" font-family="Segoe UI, Helvetica, Arial, sans-serif" font-size="20" fill="#3e2723" text-anchor="middle" font-weight="bold">@prithwiraj84's Contribution Garden</text>
<text x="400" y="595" font-family="Segoe UI, Helvetica, Arial, sans-serif" font-size="14" fill="#5d4037" text-anchor="middle" font-weight="bold">Grown over 5 years</text></svg>