<svg xmlns="http://www.w3.org/2000/svg" width="800" height="600" viewBox="0 0 800 600"><rect width="100%" height="100%" fill="#f0f4f8"/><rect x="0" y="550" width="800" height="50" fill="#3e2723" />
<rect x="0" y="540" width="800" height="10" fill="#4caf50" />
<line x1="400" y1="550" x2="400" y2="400" stroke="#5d4037" stroke-width="45" stroke-linecap="round" />
<line x1="400" y1="400" x2="261.1421068252787" y2="375.5156069489628" stroke="#795548" stroke-width="8" stroke-linecap="round" />
<circle cx="263.1951425251642" cy="383.08709274327276" r="8" fill="rgb(50, 151, 50)" fill-opacity="0.8" />
<circle cx="310.9307991354808" cy="377.49457589245935" r="4" fill="rgb(50, 248, 50)" fill-opacity="0.8" />
<circle cx="271.8850780974263" cy="361.18197170180866" r="7" fill="rgb(50, 186, 50)" fill-opacity="0.8" />
<line x1="400" y1="400" x2="278.13155038612405" y2="416.6457498692661" stroke="#795548" stroke-width="8" stroke-linecap="round" />
<circle cx="275.16364403314856" cy="422.9174440733499" r="4" fill="rgb(50, 150, 50)" fill-opacity="0.8" />
<circle cx="328.1604973637325" cy="394.5003184814352" r="6" fill="rgb(50, 158, 50)" fill-opacity="0.8" />
<circle cx="348.6000470400827" cy="396.6042579027072" r="6" fill="rgb(50, 206, 50)" fill-opacity="0.8" />
<line x1="400" y1="400" x2="283.62040220324616" y2="455.6488024728817" stroke="#795548" stroke-width="8" stroke-linecap="round" />
<circle cx="292.1885107579759" cy="442.66151641941985" r="5" fill="rgb(50, 217, 50)" fill-opacity="0.8" />
<circle cx="307.84050118630415" cy="440.16320713598645" r="8" fill="rgb(50, 240, 50)" fill-opacity="0.8" />
<circle cx="339.9767686139084" cy="435.27721468999823" r="8" fill="rgb(50, 227, 50)" fill-opacity="0.8" />
<line x1="400" y1="400" x2="298.1676901797731" y2="496.07382930162265" stroke="#795548" stroke-width="8" stroke-linecap="round" />
<circle cx="364.22827069981605" cy="419.92717582398564" r="6" fill="rgb(50, 239, 50)" fill-opacity="0.8" />
<circle cx="332.44395971901326" cy="459.37979259971394" r="4" fill="rgb(50, 221, 50)" fill-opacity="0.8" />
<circle cx="334.911202179194" cy="439.14265198887347" r="4" fill="rgb(50, 181, 50)" fill-opacity="0.8" />
<line x1="400" y1="400" x2="328.9824479033941" y2="528.7070600014073" stroke="#795548" stroke-width="8" stroke-linecap="round" />
<circle cx="360.45729527036855" cy="484.16710866674714" r="6" fill="rgb(50, 204, 50)" fill-opacity="0.8" />
<circle cx="370.8607569505011" cy="457.73457267936" r="7" fill="rgb(50, 157, 50)" fill-opacity="0.8" />
<circle cx="361.99928636913455" cy="473.26293576707263" r="8" fill="rgb(50, 158, 50)" fill-opacity="0.8" />
<line x1="400" y1="400" x2="376.2963919525849" y2="520.6944032071683" stroke="#795548" stroke-width="8" stroke-linecap="round" />
<circle cx="404.2300354651836" cy="442.6541605263885" r="7" fill="rgb(50, 199, 50)" fill-opacity="0.8" />
<circle cx="374.414088987607" cy="532.0588875239343" r="8" fill="rgb(50, 237, 50)" fill-opacity="0.8" />
<circle cx="395.87301740786387" cy="490.53789284387904" r="4" fill="rgb(50, 207, 50)" fill-opacity="0.8" />
<line x1="400" y1="400" x2="414.04724260915276" y2="520.1818412867751" stroke="#795548" stroke-width="8" stroke-linecap="round" />
<circle cx="407.21416230817016" cy="492.50831956038746" r="4" fill="rgb(50, 189, 50)" fill-opacity="0.8" />
<circle cx="411.71667233090375" cy="468.1206353149904" r="5" fill="rgb(50, 192, 50)" fill-opacity="0.8" />
<circle cx="392.75860054913545" cy="437.61119372788" r="6" fill="rgb(50, 176, 50)" fill-opacity="0.8" />
<line x1="400" y1="400" x2="463.72685157379135" y2="540.1958929087866" stroke="#795548" stroke-width="8" stroke-linecap="round" />
<circle cx="446.390151151373" cy="466.4442700005092" r="5" fill="rgb(50, 204, 50)" fill-opacity="0.8" />
<circle cx="476.2519133854262" cy="547.388231822826" r="8" fill="rgb(50, 249, 50)" fill-opacity="0.8" />
<circle cx="430.8562894644081" cy="488.3841235710415" r="8" fill="rgb(50, 207, 50)" fill-opacity="0.8" />
<text x="400" y="580" font-family="Arial" font-size="16" fill="#ffffff" text-anchor="middle">Grown over 5 years</text></svg>