<svg xmlns="http://www.w3.org/2000/svg" width="800" height="600" viewBox="0 0 800 600">
        <defs>
            <linearGradient id="sky" x1="0%" y1="0%" x2="0%" y2="100%">
                <stop offset="0%" style="stop-color:#e0f7fa;stop-opacity:1" />
                <stop offset="100%" style="stop-color:#ffffff;stop-opacity:1" />
            </linearGradient>
            <filter id="glow" x="-20%" y="-20%" width="140%" height="140%">
                <feGaussianBlur stdDeviation="2" result="coloredBlur"/>
                <feMerge>
                    <feMergeNode in="coloredBlur"/>
                    <feMergeNode in="SourceGraphic"/>
                </feMerge>
            </filter>
        </defs>
        <rect width="100%" height="100%" fill="url(#sky)"/><path d="M0,550 Q400,530 800,550 L800,600 L0,600 Z" stroke="#4e342e" stroke-width="0" fill="#5d4037" stroke-linecap="round" stroke-opacity="1.0" />
<path d="M0,550 Q400,530 800,550" stroke="none" stroke-width="0" fill="#76ff03" stroke-linecap="round" stroke-opacity="0.1" />
<path d="M400,550 Q398.0,470.0 396,390" stroke="#4e342e" stroke-width="35" fill="none" stroke-linecap="round" stroke-opacity="1.0" />
<path d="M396,430 Q473.9255319148936,410 517.1190248440918,331.9197475651051" stroke="#5d4037" stroke-width="8" fill="none" stroke-linecap="round" stroke-opacity="1.0" />
<circle cx="543.1092892432812" cy="317.46952613169043" r="11" fill="#43a047" fill-opacity="0.7" />
<circle cx="524.2916761335489" cy="342.8160391538727" r="13" fill="#2e7d32" fill-opacity="0.7" />
<circle cx="546.5543797032947" cy="365.16147061683296" r="9" fill="#66bb6a" fill-opacity="0.7" />
<circle cx="502.2800977677465" cy="316.71192411836523" r="16" fill="#66bb6a" fill-opacity="0.7" />
<circle cx="546.6250971154923" cy="332.0080412350933" r="15" fill="#2e7d32" fill-opacity="0.7" />
<circle cx="498.817466518065" cy="327.85448615371996" r="9" fill="#43a047" fill-opacity="0.7" />
<circle cx="503.7743706712599" cy="356.23758117795205" r="10" fill="#66bb6a" fill-opacity="0.7" />
<circle cx="500.5798178863113" cy="321.427880400621" r="10" fill="#43a047" fill-opacity="0.7" />
<circle cx="505.4159870574277" cy="359.92614805125413" r="11" fill="#43a047" fill-opacity="0.7" />
<circle cx="546.9152814429265" cy="347.056116178137" r="10" fill="#2e7d32" fill-opacity="0.7" />
<path d="M396,415 Q328.44680851063833,395 312.82020492940575,308.5347173318578" stroke="#5d4037" stroke-width="8" fill="none" stroke-linecap="round" stroke-opacity="1.0" />
<circle cx="327.99007500299325" cy="312.9103880500861" r="11" fill="#43a047" fill-opacity="0.7" />
<circle cx="317.6926419296377" cy="337.78452434432575" r="14" fill="#2e7d32" fill-opacity="0.7" />
<circle cx="316.66151399336235" cy="282.4350340123573" r="13" fill="#43a047" fill-opacity="0.7" />
<circle cx="288.0437505357885" cy="293.6907136011979" r="10" fill="#43a047" fill-opacity="0.7" />
<circle cx="291.1680584143454" cy="306.4299785381512" r="13" fill="#2e7d32" fill-opacity="0.7" />
<circle cx="278.17256917132454" cy="340.02470557741185" r="8" fill="#2e7d32" fill-opacity="0.7" />
<circle cx="289.45847292992005" cy="314.18863048460065" r="16" fill="#43a047" fill-opacity="0.7" />
<circle cx="322.63685035846726" cy="304.57408734862014" r="11" fill="#43a047" fill-opacity="0.7" />
<circle cx="304.37179309804196" cy="285.6576808498636" r="14" fill="#a5d6a7" fill-opacity="0.7" />
<circle cx="311.28712435289094" cy="341.10527430152416" r="11" fill="#2e7d32" fill-opacity="0.7" />
<path d="M396,400 Q456.3723404255319,380 501.60567740459726,341.4618171298306" stroke="#5d4037" stroke-width="8" fill="none" stroke-linecap="round" stroke-opacity="1.0" />
<circle cx="471.8181190696166" cy="336.57852374786745" r="9" fill="#43a047" fill-opacity="0.7" />
<circle cx="470.48344970898887" cy="338.0520192155306" r="10" fill="#2e7d32" fill-opacity="0.7" />
<circle cx="469.5554512518" cy="375.0333308646374" r="13" fill="#66bb6a" fill-opacity="0.7" />
<circle cx="496.65082750380117" cy="317.1285971407145" r="9" fill="#a5d6a7" fill-opacity="0.7" />
<circle cx="481.1460596959209" cy="365.63534561148595" r="9" fill="#66bb6a" fill-opacity="0.7" />
<circle cx="504.6739567554252" cy="340.4114331043706" r="8" fill="#43a047" fill-opacity="0.7" />
<circle cx="507.68233066120314" cy="307.6904271179684" r="8" fill="#43a047" fill-opacity="0.7" />
<circle cx="529.3472466660318" cy="320.5900165377365" r="11" fill="#66bb6a" fill-opacity="0.7" />
<circle cx="492.132164558763" cy="371.91224110334304" r="14" fill="#a5d6a7" fill-opacity="0.7" />
<circle cx="506.0276636304842" cy="337.66052522532783" r="9" fill="#2e7d32" fill-opacity="0.7" />
<path d="M396,385 Q336.4255319148936,365 316.27380009341266,296.45508462397004" stroke="#5d4037" stroke-width="8" fill="none" stroke-linecap="round" stroke-opacity="1.0" />
<circle cx="307.34290895607586" cy="271.60938517956976" r="9" fill="#a5d6a7" fill-opacity="0.7" />
<circle cx="293.0370595139111" cy="271.15062527371816" r="15" fill="#a5d6a7" fill-opacity="0.7" />
<circle cx="289.27373951834045" cy="319.79792060871523" r="15" fill="#66bb6a" fill-opacity="0.7" />
<circle cx="299.67160525458917" cy="331.0678150296456" r="11" fill="#2e7d32" fill-opacity="0.7" />
<circle cx="318.2648016718053" cy="277.10457048771593" r="8" fill="#43a047" fill-opacity="0.7" />
<circle cx="299.0524601809123" cy="331.14196492189024" r="10" fill="#66bb6a" fill-opacity="0.7" />
<circle cx="322.55872844952785" cy="285.7205797555105" r="13" fill="#66bb6a" fill-opacity="0.7" />
<circle cx="318.9487545895186" cy="307.168733841168" r="8" fill="#43a047" fill-opacity="0.7" />
<circle cx="284.8681403878013" cy="298.69441664564107" r="8" fill="#66bb6a" fill-opacity="0.7" />
<circle cx="305.7037382096851" cy="290.7762697045083" r="15" fill="#a5d6a7" fill-opacity="0.7" />
<path d="M396,370 Q452.3829787234043,350 474.33381624324863,288.88295868521595" stroke="#5d4037" stroke-width="8" fill="none" stroke-linecap="round" stroke-opacity="1.0" />
<circle cx="461.22925844612007" cy="272.1234983268368" r="9" fill="#43a047" fill-opacity="0.7" />
<circle cx="448.2077845556445" cy="295.2118037547434" r="16" fill="#a5d6a7" fill-opacity="0.7" />
<circle cx="461.657116944787" cy="272.0504401398154" r="9" fill="#2e7d32" fill-opacity="0.7" />
<circle cx="457.5289898436061" cy="314.0819191872387" r="14" fill="#a5d6a7" fill-opacity="0.7" />
<circle cx="468.444465705282" cy="282.1176808124977" r="15" fill="#a5d6a7" fill-opacity="0.7" />
<circle cx="460.71083422915314" cy="311.13289070234214" r="15" fill="#66bb6a" fill-opacity="0.7" />
<circle cx="447.9701709838594" cy="269.3364674361292" r="9" fill="#2e7d32" fill-opacity="0.7" />
<circle cx="496.53377213679784" cy="269.4172211245013" r="10" fill="#a5d6a7" fill-opacity="0.7" />
<circle cx="457.1111685892871" cy="311.1157891844945" r="14" fill="#a5d6a7" fill-opacity="0.7" />
<circle cx="457.18440385369695" cy="292.2045860852541" r="8" fill="#a5d6a7" fill-opacity="0.7" />
<path d="M396,355 Q342.8085106382979,335 302.06940501500776,305.05621672490525" stroke="#5d4037" stroke-width="8" fill="none" stroke-linecap="round" stroke-opacity="1.0" />
<circle cx="320.89193300947346" cy="308.1957675066473" r="15" fill="#a5d6a7" fill-opacity="0.7" />
<circle cx="280.8223110300564" cy="309.4742439098245" r="16" fill="#66bb6a" fill-opacity="0.7" />
<circle cx="333.8055234829842" cy="309.1053720130759" r="10" fill="#2e7d32" fill-opacity="0.7" />
<circle cx="322.9419195731278" cy="338.2579371370008" r="16" fill="#a5d6a7" fill-opacity="0.7" />
<circle cx="283.29809159671066" cy="289.6432374151504" r="15" fill="#43a047" fill-opacity="0.7" />
<circle cx="299.3317260584494" cy="314.77985681920137" r="15" fill="#a5d6a7" fill-opacity="0.7" />
<circle cx="323.8465565165436" cy="280.98559852682337" r="12" fill="#66bb6a" fill-opacity="0.7" />
<circle cx="298.0170368863633" cy="309.55997968277603" r="10" fill="#66bb6a" fill-opacity="0.7" />
<circle cx="270.3960972758318" cy="332.64832164695207" r="12" fill="#a5d6a7" fill-opacity="0.7" />
<circle cx="331.2902219271069" cy="277.25335697791616" r="13" fill="#43a047" fill-opacity="0.7" />
<text x="400" y="580" font-family="Segoe UI, Helvetica, Arial, sans-serif" font-size="20" fill="#3e2723" text-anchor="middle" font-weight="bold">@prithwiraj84's Contribution Garden</text>
<text x="400" y="595" font-family="Segoe UI, Helvetica, Arial, sans-serif" font-size="14" fill="#5d4037" text-anchor="middle" font-weight="bold">Grown over 5 years</text></svg>