<svg xmlns="http://www.w3.org/2000/svg" width="800" height="600" viewBox="0 0 800 600">
        <defs>
            <linearGradient id="sky" x1="0%" y1="0%" x2="0%" y2="100%">
                <stop offset="0%" style="stop-color:#e0f7fa;stop-opacity:1" />
                <stop offset="100%" style="stop-color:#ffffff;stop-opacity:1" />
            </linearGradient>
            <filter id="glow" x="-20%" y="-20%" width="140%" height="140%">
                <feGaussianBlur stdDeviation="2" result="coloredBlur"/>
                <feMerge>
                    <feMergeNode in="coloredBlur"/>
                    <feMergeNode in="SourceGraphic"/>
                </feMerge>
            </filter>
        </defs>
        <rect width="100%" height="100%" fill="url(#sky)"/><path d="M0,550 Q400,530 800,550 L800,600 L0,600 Z" stroke="#4e342e" stroke-width="0" fill="#5d4037" stroke-linecap="round" stroke-opacity="1.0" />
<path d="M0,550 Q400,530 800,550" stroke="none" stroke-width="0" fill="#76ff03" stroke-linecap="round" stroke-opacity="0.1" />
<path d="M400,550 Q409.0,470.0 418,390" stroke="#4e342e" stroke-width="35" fill="none" stroke-linecap="round" stroke-opacity="1.0" />
<path d="M418,430 Q506.59649122807014,410 559.5126079206607,323.36260116077744" stroke="#5d4037" stroke-width="8" fill="none" stroke-linecap="round" stroke-opacity="1.0" />
<circle cx="563.7007398761199" cy="333.6414916057789" r="9" fill="#66bb6a" fill-opacity="0.7" />
<circle cx="574.024117169086" cy="349.3110942619468" r="12" fill="#a5d6a7" fill-opacity="0.7" />
<circle cx="548.7271110061566" cy="338.0338881973074" r="8" fill="#2e7d32" fill-opacity="0.7" />
<circle cx="544.3745590263339" cy="324.49443965832984" r="13" fill="#2e7d32" fill-opacity="0.7" />
<circle cx="589.9470391248524" cy="305.6963267646103" r="9" fill="#43a047" fill-opacity="0.7" />
<circle cx="528.3899009194829" cy="293.5607420053235" r="9" fill="#2e7d32" fill-opacity="0.7" />
<circle cx="537.4556872263987" cy="323.5665236370433" r="11" fill="#66bb6a" fill-opacity="0.7" />
<circle cx="529.7304462044067" cy="349.47529245482536" r="11" fill="#a5d6a7" fill-opacity="0.7" />
<circle cx="562.8772975832363" cy="298.7420152493587" r="10" fill="#43a047" fill-opacity="0.7" />
<circle cx="549.4359025225708" cy="331.7815982523754" r="14" fill="#2e7d32" fill-opacity="0.7" />
<circle cx="543.9462419715098" cy="352.64391219626157" r="8" fill="#66bb6a" fill-opacity="0.7" />
<circle cx="525.2570545712715" cy="328.20370662895294" r="8" fill="#43a047" fill-opacity="0.7" />
<circle cx="584.4148284252076" cy="295.9315163635613" r="14" fill="#66bb6a" fill-opacity="0.7" />
<circle cx="560.3674815030231" cy="331.07068809598576" r="10" fill="#43a047" fill-opacity="0.7" />
<circle cx="529.9760912912415" cy="330.5573323398918" r="12" fill="#43a047" fill-opacity="0.7" />
<circle cx="536.5085003350345" cy="356.6530039503036" r="10" fill="#2e7d32" fill-opacity="0.7" />
<circle cx="570.4578554051404" cy="304.26245324660954" r="15" fill="#66bb6a" fill-opacity="0.7" />
<path d="M418,415 Q354.4035087719298,395 350.5979883212152,307.13423338361247" stroke="#5d4037" stroke-width="8" fill="none" stroke-linecap="round" stroke-opacity="1.0" />
<circle cx="380.2432000971487" cy="327.6463720651632" r="15" fill="#2e7d32" fill-opacity="0.7" />
<circle cx="355.8119712574373" cy="323.4922960635872" r="9" fill="#43a047" fill-opacity="0.7" />
<circle cx="379.0377491124287" cy="326.865337115208" r="12" fill="#43a047" fill-opacity="0.7" />
<circle cx="330.5689438862025" cy="323.13801482967017" r="15" fill="#2e7d32" fill-opacity="0.7" />
<circle cx="354.0959490314975" cy="285.3978646847092" r="9" fill="#66bb6a" fill-opacity="0.7" />
<circle cx="332.33159622220995" cy="312.2215515132573" r="14" fill="#2e7d32" fill-opacity="0.7" />
<circle cx="341.2330345627403" cy="302.83805356618325" r="10" fill="#a5d6a7" fill-opacity="0.7" />
<circle cx="336.20188496810783" cy="332.3164669524532" r="15" fill="#66bb6a" fill-opacity="0.7" />
<circle cx="330.695977815514" cy="304.75415048918575" r="14" fill="#2e7d32" fill-opacity="0.7" />
<circle cx="351.93953166481094" cy="302.2676555084175" r="16" fill="#66bb6a" fill-opacity="0.7" />
<path d="M418,400 Q474.140350877193,380 512.1665199096617,338.8475469456812" stroke="#5d4037" stroke-width="8" fill="none" stroke-linecap="round" stroke-opacity="1.0" />
<circle cx="544.2495977560856" cy="366.00777800947117" r="9" fill="#a5d6a7" fill-opacity="0.7" />
<circle cx="527.1186275419673" cy="334.5785321394844" r="16" fill="#2e7d32" fill-opacity="0.7" />
<circle cx="484.6961028376405" cy="343.573467150769" r="11" fill="#a5d6a7" fill-opacity="0.7" />
<circle cx="506.9082338894476" cy="333.3128342183199" r="11" fill="#a5d6a7" fill-opacity="0.7" />
<circle cx="487.31943428035163" cy="318.37987058267805" r="13" fill="#2e7d32" fill-opacity="0.7" />
<circle cx="512.0300857308695" cy="357.24532811341726" r="10" fill="#a5d6a7" fill-opacity="0.7" />
<circle cx="546.3679907244166" cy="337.55209142385263" r="12" fill="#43a047" fill-opacity="0.7" />
<circle cx="504.99115946351003" cy="366.81970356867436" r="14" fill="#43a047" fill-opacity="0.7" />
<circle cx="531.5928389792282" cy="362.0738297686819" r="16" fill="#a5d6a7" fill-opacity="0.7" />
<circle cx="542.5952601861759" cy="338.0501495626688" r="8" fill="#66bb6a" fill-opacity="0.7" />
<circle cx="504.80747846005943" cy="357.8496681576036" r="5" fill="#ffeb3b" fill-opacity="1.0" />
<circle cx="504.80747846005943" cy="357.8496681576036" r="9" fill="#ffeb3b" fill-opacity="0.3" />
<path d="M418,385 Q362.29824561403507,365 331.4232130657585,314.89150029532516" stroke="#5d4037" stroke-width="8" fill="none" stroke-linecap="round" stroke-opacity="1.0" />
<circle cx="349.0305921820569" cy="293.0420871279724" r="10" fill="#a5d6a7" fill-opacity="0.7" />
<circle cx="333.6462185473546" cy="285.0785120521283" r="9" fill="#a5d6a7" fill-opacity="0.7" />
<circle cx="360.9054310490062" cy="345.61104118092516" r="13" fill="#a5d6a7" fill-opacity="0.7" />
<circle cx="307.3893566786217" cy="348.1986236549279" r="10" fill="#2e7d32" fill-opacity="0.7" />
<circle cx="365.47260619122903" cy="327.7732826597438" r="9" fill="#a5d6a7" fill-opacity="0.7" />
<circle cx="344.8915519736562" cy="314.7577908094691" r="8" fill="#2e7d32" fill-opacity="0.7" />
<circle cx="343.9044244476768" cy="339.3680900973095" r="9" fill="#a5d6a7" fill-opacity="0.7" />
<circle cx="356.14951096597713" cy="288.5505801770257" r="8" fill="#2e7d32" fill-opacity="0.7" />
<circle cx="314.73723258156735" cy="347.3722356657362" r="16" fill="#43a047" fill-opacity="0.7" />
<circle cx="333.6973086258761" cy="292.0953280045754" r="8" fill="#a5d6a7" fill-opacity="0.7" />
<path d="M418,370 Q473.70175438596493,350 502.07729534060707,296.91272220895223" stroke="#5d4037" stroke-width="8" fill="none" stroke-linecap="round" stroke-opacity="1.0" />
<circle cx="483.68348467262894" cy="297.4699530597155" r="14" fill="#a5d6a7" fill-opacity="0.7" />
<circle cx="533.4186762273808" cy="301.4328827105759" r="16" fill="#43a047" fill-opacity="0.7" />
<circle cx="505.8782385366248" cy="292.09000761971646" r="10" fill="#66bb6a" fill-opacity="0.7" />
<circle cx="477.5612013628784" cy="264.0197456401503" r="9" fill="#43a047" fill-opacity="0.7" />
<circle cx="488.98551392178996" cy="292.194608996419" r="10" fill="#a5d6a7" fill-opacity="0.7" />
<circle cx="523.9851809932675" cy="299.6063104927725" r="15" fill="#66bb6a" fill-opacity="0.7" />
<circle cx="485.70968407968195" cy="307.9473640536553" r="14" fill="#2e7d32" fill-opacity="0.7" />
<circle cx="467.8414546062706" cy="282.7384082371333" r="16" fill="#a5d6a7" fill-opacity="0.7" />
<circle cx="505.7953879168041" cy="289.0324126415485" r="8" fill="#a5d6a7" fill-opacity="0.7" />
<circle cx="507.0023566611947" cy="275.9511071647856" r="16" fill="#66bb6a" fill-opacity="0.7" />
<path d="M418,355 Q362.7368421052632,335 346.9550536662246,270.33192997106033" stroke="#5d4037" stroke-width="8" fill="none" stroke-linecap="round" stroke-opacity="1.0" />
<circle cx="349.33555563013033" cy="278.1412334297213" r="8" fill="#a5d6a7" fill-opacity="0.7" />
<circle cx="374.0701023754893" cy="246.2145623207096" r="8" fill="#a5d6a7" fill-opacity="0.7" />
<circle cx="350.52919953024383" cy="297.9381757029937" r="11" fill="#66bb6a" fill-opacity="0.7" />
<circle cx="347.5718299179669" cy="239.83704153680694" r="13" fill="#2e7d32" fill-opacity="0.7" />
<circle cx="362.6282459150525" cy="286.1622784299135" r="12" fill="#a5d6a7" fill-opacity="0.7" />
<circle cx="315.2008453278237" cy="290.8081234163898" r="8" fill="#2e7d32" fill-opacity="0.7" />
<circle cx="323.69842152662176" cy="259.3001034244177" r="16" fill="#a5d6a7" fill-opacity="0.7" />
<circle cx="329.4164474630904" cy="245.89163550250439" r="12" fill="#66bb6a" fill-opacity="0.7" />
<circle cx="371.5260111703987" cy="258.7917150786213" r="8" fill="#2e7d32" fill-opacity="0.7" />
<circle cx="314.93732268781645" cy="278.1465764798291" r="14" fill="#66bb6a" fill-opacity="0.7" />
<text x="400" y="580" font-family="Segoe UI, Helvetica, Arial, sans-serif" font-size="20" fill="#3e2723" text-anchor="middle" font-weight="bold">@prithwiraj84's Contribution Garden</text>
<text x="400" y="595" font-family="Segoe UI, Helvetica, Arial, sans-serif" font-size="14" fill="#5d4037" text-anchor="middle" font-weight="bold">Grown over 5 years</text></svg>