<svg xmlns="http://www.w3.org/2000/svg" width="800" height="600" viewBox="0 0 800 600"><rect width="100%" height="100%" fill="#f0f4f8"/><rect x="0" y="550" width="800" height="50" fill="#3e2723" />
<rect x="0" y="540" width="800" height="10" fill="#4caf50" />
<line x1="400" y1="550" x2="400" y2="400" stroke="#5d4037" stroke-width="45" stroke-linecap="round" />
<line x1="400" y1="400" x2="256.21806806021766" y2="374.64736606062814" stroke="#795548" stroke-width="8" stroke-linecap="round" />
<circle cx="337.9509189686599" cy="376.57320198942944" r="4" fill="rgb(50, 218, 50)" fill-opacity="0.8" />
<circle cx="281.95207334219106" cy="375.41418835763005" r="6" fill="rgb(50, 212, 50)" fill-opacity="0.8" />
<circle cx="320.4300661625034" cy="391.39430899807854" r="5" fill="rgb(50, 207, 50)" fill-opacity="0.8" />
<line x1="400" y1="400" x2="263.26954433565135" y2="418.6757193655181" stroke="#795548" stroke-width="8" stroke-linecap="round" />
<circle cx="302.2867030196772" cy="416.30501363264426" r="5" fill="rgb(50, 194, 50)" fill-opacity="0.8" />
<circle cx="310.5484835954933" cy="415.31397184366017" r="6" fill="rgb(50, 153, 50)" fill-opacity="0.8" />
<circle cx="272.54667436274127" cy="428.11155049559477" r="6" fill="rgb(50, 235, 50)" fill-opacity="0.8" />
<line x1="400" y1="400" x2="267.38138855718745" y2="463.41375165514427" stroke="#795548" stroke-width="8" stroke-linecap="round" />
<circle cx="309.5767829109076" cy="446.30224852845237" r="6" fill="rgb(50, 250, 50)" fill-opacity="0.8" />
<circle cx="307.5860999580226" cy="437.4587552989299" r="7" fill="rgb(50, 153, 50)" fill-opacity="0.8" />
<circle cx="319.8936259653891" cy="444.2771559633152" r="5" fill="rgb(50, 186, 50)" fill-opacity="0.8" />
<line x1="400" y1="400" x2="294.53082197190787" y2="499.50503749096634" stroke="#795548" stroke-width="8" stroke-linecap="round" />
<circle cx="367.1926865536399" cy="417.750490972717" r="5" fill="rgb(50, 176, 50)" fill-opacity="0.8" />
<circle cx="294.71296432141844" cy="494.8909519112629" r="5" fill="rgb(50, 212, 50)" fill-opacity="0.8" />
<circle cx="307.43606137128893" cy="489.1369018434676" r="8" fill="rgb(50, 249, 50)" fill-opacity="0.8" />
<line x1="400" y1="400" x2="336.7122494921403" y2="514.6981283005739" stroke="#795548" stroke-width="8" stroke-linecap="round" />
<circle cx="350.87912157329316" cy="487.4532565747088" r="8" fill="rgb(50, 249, 50)" fill-opacity="0.8" />
<circle cx="362.8055198375517" cy="470.71504027488106" r="7" fill="rgb(50, 224, 50)" fill-opacity="0.8" />
<circle cx="391.1996082183582" cy="427.2095779299718" r="7" fill="rgb(50, 158, 50)" fill-opacity="0.8" />
<line x1="400" y1="400" x2="374.1765570865559" y2="531.4882116240695" stroke="#795548" stroke-width="8" stroke-linecap="round" />
<circle cx="376.90727155042487" cy="512.4717881155541" r="5" fill="rgb(50, 231, 50)" fill-opacity="0.8" />
<circle cx="384.6598580467412" cy="505.9334677184513" r="7" fill="rgb(50, 206, 50)" fill-opacity="0.8" />
<circle cx="401.39454577281606" cy="459.9945110338043" r="7" fill="rgb(50, 251, 50)" fill-opacity="0.8" />
<line x1="400" y1="400" x2="415.55645049278075" y2="533.0939399374204" stroke="#795548" stroke-width="8" stroke-linecap="round" />
<circle cx="417.67784372303976" cy="465.14313872688746" r="7" fill="rgb(50, 244, 50)" fill-opacity="0.8" />
<circle cx="413.1694506555594" cy="466.6085784699612" r="4" fill="rgb(50, 219, 50)" fill-opacity="0.8" />
<circle cx="410.8787017045729" cy="498.75994804485424" r="4" fill="rgb(50, 166, 50)" fill-opacity="0.8" />
<line x1="400" y1="400" x2="462.0716086757708" y2="536.5544411449221" stroke="#795548" stroke-width="8" stroke-linecap="round" />
<circle cx="421.38882285870136" cy="449.95997980179277" r="5" fill="rgb(50, 186, 50)" fill-opacity="0.8" />
<circle cx="435.9378193587926" cy="474.9835196633824" r="4" fill="rgb(50, 187, 50)" fill-opacity="0.8" />
<circle cx="448.5224523474145" cy="535.7957828234968" r="7" fill="rgb(50, 199, 50)" fill-opacity="0.8" />
<text x="400" y="580" font-family="Arial" font-size="16" fill="#ffffff" text-anchor="middle">Grown over 5 years</text></svg>