<svg xmlns="http://www.w3.org/2000/svg" width="800" height="600" viewBox="0 0 800 600">
        <defs>
            <linearGradient id="sky" x1="0%" y1="0%" x2="0%" y2="100%">
                <stop offset="0%" style="stop-color:#e0f7fa;stop-opacity:1" />
                <stop offset="100%" style="stop-color:#ffffff;stop-opacity:1" />
            </linearGradient>
            <filter id="glow" x="-20%" y="-20%" width="140%" height="140%">
                <feGaussianBlur stdDeviation="2" result="coloredBlur"/>
                <feMerge>
                    <feMergeNode in="coloredBlur"/>
                    <feMergeNode in="SourceGraphic"/>
                </feMerge>
            </filter>
        </defs>
        <rect width="100%" height="100%" fill="url(#sky)"/><path d="M0,550 Q400,530 800,550 L800,600 L0,600 Z" stroke="#4e342e" stroke-width="0" fill="#5d4037" stroke-linecap="round" stroke-opacity="1.0" />
<path d="M0,550 Q400,530 800,550" stroke="none" stroke-width="0" fill="#76ff03" stroke-linecap="round" stroke-opacity="0.1" />
<path d="M400,550 Q387.0,470.0 374,390" stroke="#4e342e" stroke-width="35" fill="none" stroke-linecap="round" stroke-opacity="1.0" />
<path d="M374,430 Q452.44827586206895,410 508.48659373084865,349.19230203997427" stroke="#5d4037" stroke-width="8" fill="none" stroke-linecap="round" stroke-opacity="1.0" />
<circle cx="543.3030725114019" cy="369.0698353847258" r="15" fill="#2e7d32" fill-opacity="0.7" />
<circle cx="517.3212480580444" cy="360.0717056829175" r="8" fill="#66bb6a" fill-opacity="0.7" />
<circle cx="494.2202914297883" cy="331.2617032863435" r="10" fill="#a5d6a7" fill-opacity="0.7" />
<circle cx="506.62981668429546" cy="350.89344050141153" r="16" fill="#43a047" fill-opacity="0.7" />
<circle cx="511.98432476203004" cy="321.6224158970618" r="12" fill="#a5d6a7" fill-opacity="0.7" />
<circle cx="482.7504920332832" cy="366.7556871629208" r="11" fill="#43a047" fill-opacity="0.7" />
<circle cx="513.0587041260361" cy="380.4170743081562" r="14" fill="#a5d6a7" fill-opacity="0.7" />
<circle cx="475.5698778960609" cy="370.2903932870927" r="10" fill="#43a047" fill-opacity="0.7" />
<circle cx="523.515451889681" cy="364.86506534891754" r="16" fill="#a5d6a7" fill-opacity="0.7" />
<circle cx="479.4619208322202" cy="350.21263085006905" r="11" fill="#66bb6a" fill-opacity="0.7" />
<path d="M374,415 Q306.5431034482759,395 280.2810043303163,317.9511390060354" stroke="#5d4037" stroke-width="8" fill="none" stroke-linecap="round" stroke-opacity="1.0" />
<circle cx="268.70781019988476" cy="316.36028128443195" r="10" fill="#66bb6a" fill-opacity="0.7" />
<circle cx="301.5065811191021" cy="326.0218138204693" r="15" fill="#66bb6a" fill-opacity="0.7" />
<circle cx="293.7249868591708" cy="350.102777981797" r="16" fill="#66bb6a" fill-opacity="0.7" />
<circle cx="298.16468265315615" cy="327.5345403955883" r="9" fill="#66bb6a" fill-opacity="0.7" />
<circle cx="311.0820995002961" cy="331.7600198247871" r="10" fill="#66bb6a" fill-opacity="0.7" />
<circle cx="250.06606358550687" cy="321.39647669492075" r="13" fill="#a5d6a7" fill-opacity="0.7" />
<circle cx="269.62411350740757" cy="333.3176722889979" r="12" fill="#66bb6a" fill-opacity="0.7" />
<circle cx="277.2067705821658" cy="328.51330507229756" r="15" fill="#66bb6a" fill-opacity="0.7" />
<circle cx="289.3846404170507" cy="321.64416965779805" r="11" fill="#a5d6a7" fill-opacity="0.7" />
<circle cx="275.72204755209543" cy="284.0488535656569" r="14" fill="#a5d6a7" fill-opacity="0.7" />
<path d="M374,400 Q432.4051724137931,380 463.4819155539841,324.91575766161543" stroke="#5d4037" stroke-width="8" fill="none" stroke-linecap="round" stroke-opacity="1.0" />
<circle cx="478.9689514161298" cy="339.7065328662678" r="13" fill="#2e7d32" fill-opacity="0.7" />
<circle cx="463.05869869590026" cy="323.07130464484464" r="8" fill="#66bb6a" fill-opacity="0.7" />
<circle cx="460.7084381371461" cy="318.49350992028246" r="16" fill="#66bb6a" fill-opacity="0.7" />
<circle cx="456.0952031306029" cy="327.8722351274407" r="12" fill="#a5d6a7" fill-opacity="0.7" />
<circle cx="428.4937049753039" cy="348.3309520996371" r="13" fill="#66bb6a" fill-opacity="0.7" />
<circle cx="475.62588757964215" cy="294.2085477224182" r="15" fill="#2e7d32" fill-opacity="0.7" />
<circle cx="480.81321765390004" cy="321.11688780129697" r="15" fill="#a5d6a7" fill-opacity="0.7" />
<circle cx="481.91374248852225" cy="332.940277830728" r="11" fill="#66bb6a" fill-opacity="0.7" />
<circle cx="481.25345295449756" cy="358.6231880962134" r="8" fill="#66bb6a" fill-opacity="0.7" />
<circle cx="483.75155448561105" cy="350.5095642977839" r="11" fill="#43a047" fill-opacity="0.7" />
<path d="M374,385 Q316.2413793103448,365 295.21743082036653,300.51603791640616" stroke="#5d4037" stroke-width="8" fill="none" stroke-linecap="round" stroke-opacity="1.0" />
<circle cx="319.76040902690835" cy="309.09442649810757" r="9" fill="#a5d6a7" fill-opacity="0.7" />
<circle cx="310.8379206194088" cy="307.9050579667817" r="8" fill="#2e7d32" fill-opacity="0.7" />
<circle cx="278.6202421573268" cy="334.3938376167722" r="9" fill="#a5d6a7" fill-opacity="0.7" />
<circle cx="303.2318411983003" cy="270.2912182506016" r="15" fill="#43a047" fill-opacity="0.7" />
<circle cx="301.44704288079674" cy="291.5204937405824" r="10" fill="#2e7d32" fill-opacity="0.7" />
<circle cx="275.41645284419053" cy="286.2049118098981" r="15" fill="#a5d6a7" fill-opacity="0.7" />
<circle cx="307.5382906256582" cy="334.1709506728147" r="13" fill="#43a047" fill-opacity="0.7" />
<circle cx="287.4744980239029" cy="268.4006218827961" r="16" fill="#43a047" fill-opacity="0.7" />
<circle cx="300.0137155165257" cy="282.7680459022831" r="16" fill="#66bb6a" fill-opacity="0.7" />
<circle cx="293.5010160409645" cy="330.74078870648066" r="16" fill="#43a047" fill-opacity="0.7" />
<path d="M374,370 Q431.7586206896552,350 426.44373014232696,267.073384274792" stroke="#5d4037" stroke-width="8" fill="none" stroke-linecap="round" stroke-opacity="1.0" />
<circle cx="399.93577325132975" cy="248.3090645499678" r="12" fill="#66bb6a" fill-opacity="0.7" />
<circle cx="404.2561951454244" cy="262.2287376424758" r="8" fill="#43a047" fill-opacity="0.7" />
<circle cx="402.32330443222304" cy="300.3134344680296" r="9" fill="#a5d6a7" fill-opacity="0.7" />
<circle cx="398.678019117401" cy="267.72967442213525" r="11" fill="#66bb6a" fill-opacity="0.7" />
<circle cx="419.89805176836074" cy="293.2903435938746" r="12" fill="#a5d6a7" fill-opacity="0.7" />
<circle cx="429.66198463846126" cy="285.43763632915596" r="11" fill="#2e7d32" fill-opacity="0.7" />
<circle cx="438.1017635030112" cy="270.94668170269176" r="13" fill="#a5d6a7" fill-opacity="0.7" />
<circle cx="443.9495045282087" cy="284.0881415537462" r="12" fill="#2e7d32" fill-opacity="0.7" />
<circle cx="419.3669704843054" cy="239.00072108957832" r="9" fill="#a5d6a7" fill-opacity="0.7" />
<circle cx="423.60595957527835" cy="274.9783275287236" r="15" fill="#43a047" fill-opacity="0.7" />
<path d="M374,355 Q318.82758620689657,335 295.9744241449327,276.9744241449327" stroke="#5d4037" stroke-width="8" fill="none" stroke-linecap="round" stroke-opacity="1.0" />
<circle cx="317.7072880890761" cy="283.7084947714583" r="14" fill="#2e7d32" fill-opacity="0.7" />
<circle cx="272.39291883187036" cy="271.24190169106896" r="10" fill="#a5d6a7" fill-opacity="0.7" />
<circle cx="328.7305500325606" cy="255.363748314237" r="15" fill="#2e7d32" fill-opacity="0.7" />
<circle cx="270.56452152531" cy="298.4995438592864" r="16" fill="#43a047" fill-opacity="0.7" />
<circle cx="319.8864726486563" cy="296.05801538496576" r="14" fill="#2e7d32" fill-opacity="0.7" />
<circle cx="297.99268868486087" cy="272.503455319819" r="12" fill="#66bb6a" fill-opacity="0.7" />
<circle cx="306.66967115203266" cy="261.8370653840025" r="13" fill="#66bb6a" fill-opacity="0.7" />
<circle cx="288.17924380426103" cy="270.2844447211321" r="15" fill="#66bb6a" fill-opacity="0.7" />
<circle cx="292.0488350131316" cy="287.5420075035455" r="9" fill="#66bb6a" fill-opacity="0.7" />
<circle cx="294.8364204244369" cy="288.68109950255615" r="10" fill="#66bb6a" fill-opacity="0.7" />
<text x="400" y="580" font-family="Segoe UI, Helvetica, Arial, sans-serif" font-size="20" fill="#3e2723" text-anchor="middle" font-weight="bold">@prithwiraj84's Contribution Garden</text>
<text x="400" y="595" font-family="Segoe UI, Helvetica, Arial, sans-serif" font-size="14" fill="#5d4037" text-anchor="middle" font-weight="bold">Grown over 5 years</text></svg>