<svg xmlns="http://www.w3.org/2000/svg" width="800" height="600" viewBox="0 0 800 600">
        <defs>
            <linearGradient id="sky" x1="0%" y1="0%" x2="0%" y2="100%">
                <stop offset="0%" style="stop-color:#e0f7fa;stop-opacity:1" />
                <stop offset="100%" style="stop-color:#ffffff;stop-opacity:1" />
            </linearGradient>
            <filter id="glow" x="-20%" y="-20%" width="140%" height="140%">
                <feGaussianBlur stdDeviation="2" result="coloredBlur"/>
                <feMerge>
                    <feMergeNode in="coloredBlur"/>
                    <feMergeNode in="SourceGraphic"/>
                </feMerge>
            </filter>
        </defs>
        <rect width="100%" height="100%" fill="url(#sky)"/><path d="M0,550 Q400,530 800,550 L800,600 L0,600 Z" stroke="#4e342e" stroke-width="0" fill="#5d4037" stroke-linecap="round" stroke-opacity="1.0" />
<path d="M0,550 Q400,530 800,550" stroke="none" stroke-width="0" fill="#76ff03" stroke-linecap="round" stroke-opacity="0.1" />
<path d="M400,550 Q397.0,470.0 394,390" stroke="#4e342e" stroke-width="35" fill="none" stroke-linecap="round" stroke-opacity="1.0" />
<path d="M394,430 Q472.90625,410 477.62788388680264,296.16740982531405" stroke="#5d4037" stroke-width="8" fill="none" stroke-linecap="round" stroke-opacity="1.0" />
<circle cx="471.06798290427474" cy="323.6893806462802" r="16" fill="#2e7d32" fill-opacity="0.7" />
<circle cx="443.2414856584281" cy="329.95865626970584" r="9" fill="#2e7d32" fill-opacity="0.7" />
<circle cx="496.2764462852489" cy="275.352168973719" r="12" fill="#a5d6a7" fill-opacity="0.7" />
<circle cx="495.9801570389104" cy="314.20023593140183" r="9" fill="#43a047" fill-opacity="0.7" />
<circle cx="484.0804504940857" cy="301.17630777854885" r="14" fill="#2e7d32" fill-opacity="0.7" />
<circle cx="457.6525906058583" cy="300.01717304368185" r="13" fill="#66bb6a" fill-opacity="0.7" />
<circle cx="462.44072432071425" cy="297.50594291727884" r="12" fill="#43a047" fill-opacity="0.7" />
<circle cx="473.91571383133976" cy="283.23063196137593" r="9" fill="#43a047" fill-opacity="0.7" />
<circle cx="457.6184750331426" cy="279.2752782685609" r="12" fill="#a5d6a7" fill-opacity="0.7" />
<circle cx="505.60101995042083" cy="292.8065678953557" r="10" fill="#66bb6a" fill-opacity="0.7" />
<path d="M394,415 Q326.8125,395 288.11105498409677,332.27048925311465" stroke="#5d4037" stroke-width="8" fill="none" stroke-linecap="round" stroke-opacity="1.0" />
<circle cx="255.72941504210206" cy="340.4900705657691" r="13" fill="#a5d6a7" fill-opacity="0.7" />
<circle cx="318.43549448864337" cy="338.6054869601333" r="8" fill="#43a047" fill-opacity="0.7" />
<circle cx="280.6315695054752" cy="321.7001152742715" r="8" fill="#66bb6a" fill-opacity="0.7" />
<circle cx="320.7471301410278" cy="302.3826234086227" r="11" fill="#a5d6a7" fill-opacity="0.7" />
<circle cx="275.9481954497371" cy="345.8967098720984" r="13" fill="#2e7d32" fill-opacity="0.7" />
<circle cx="306.70604744377874" cy="366.78791935375443" r="10" fill="#43a047" fill-opacity="0.7" />
<circle cx="274.8962968927202" cy="332.19847344824933" r="8" fill="#66bb6a" fill-opacity="0.7" />
<circle cx="310.1450817165784" cy="299.7846741610139" r="11" fill="#66bb6a" fill-opacity="0.7" />
<circle cx="282.84747897133775" cy="358.504315248171" r="9" fill="#66bb6a" fill-opacity="0.7" />
<circle cx="316.72827515815686" cy="350.75690017517" r="14" fill="#66bb6a" fill-opacity="0.7" />
<path d="M394,400 Q454.15625,380 496.03078656881996,336.24408852194256" stroke="#5d4037" stroke-width="8" fill="none" stroke-linecap="round" stroke-opacity="1.0" />
<circle cx="476.8710015061804" cy="355.73851184113613" r="15" fill="#2e7d32" fill-opacity="0.7" />
<circle cx="472.46511856835997" cy="358.4663408826433" r="10" fill="#43a047" fill-opacity="0.7" />
<circle cx="471.8902744094247" cy="350.37191126847944" r="10" fill="#2e7d32" fill-opacity="0.7" />
<circle cx="481.00011672428633" cy="331.1693811315117" r="11" fill="#66bb6a" fill-opacity="0.7" />
<circle cx="467.68315597801336" cy="348.7025261780547" r="9" fill="#43a047" fill-opacity="0.7" />
<circle cx="478.2926442808376" cy="342.21217401653536" r="12" fill="#a5d6a7" fill-opacity="0.7" />
<circle cx="463.90150835568437" cy="331.5131711473821" r="13" fill="#66bb6a" fill-opacity="0.7" />
<circle cx="462.2976939494416" cy="339.0174815034959" r="9" fill="#66bb6a" fill-opacity="0.7" />
<circle cx="473.966247422489" cy="330.49743329526865" r="8" fill="#66bb6a" fill-opacity="0.7" />
<circle cx="475.93784894932924" cy="338.07567922910533" r="9" fill="#2e7d32" fill-opacity="0.7" />
<path d="M394,385 Q334.625,365 311.50931850799407,299.5783987097852" stroke="#5d4037" stroke-width="8" fill="none" stroke-linecap="round" stroke-opacity="1.0" />
<circle cx="330.59211224439474" cy="287.9855467329967" r="8" fill="#66bb6a" fill-opacity="0.7" />
<circle cx="336.917692355929" cy="329.98355547393" r="10" fill="#a5d6a7" fill-opacity="0.7" />
<circle cx="293.2742607615007" cy="315.78659869055804" r="15" fill="#66bb6a" fill-opacity="0.7" />
<circle cx="283.6188511724865" cy="315.7603133780658" r="15" fill="#2e7d32" fill-opacity="0.7" />
<circle cx="312.6210906321069" cy="322.4900476431213" r="12" fill="#66bb6a" fill-opacity="0.7" />
<circle cx="312.0832388898237" cy="331.01724259345576" r="15" fill="#43a047" fill-opacity="0.7" />
<circle cx="299.6010799340797" cy="270.14513646524995" r="10" fill="#66bb6a" fill-opacity="0.7" />
<circle cx="337.2048527689309" cy="332.98107957226915" r="11" fill="#43a047" fill-opacity="0.7" />
<circle cx="322.10635929525995" cy="324.3433614900023" r="16" fill="#43a047" fill-opacity="0.7" />
<circle cx="311.8266507951492" cy="297.89674033725817" r="8" fill="#66bb6a" fill-opacity="0.7" />
<path d="M394,370 Q450.25,350 461.70419010460546,280.15350511967955" stroke="#5d4037" stroke-width="8" fill="none" stroke-linecap="round" stroke-opacity="1.0" />
<circle cx="462.7750269983081" cy="248.1290149615534" r="10" fill="#66bb6a" fill-opacity="0.7" />
<circle cx="484.22477654547623" cy="289.28379767334746" r="12" fill="#a5d6a7" fill-opacity="0.7" />
<circle cx="482.0123594774864" cy="261.69552728584495" r="14" fill="#a5d6a7" fill-opacity="0.7" />
<circle cx="451.6343755903075" cy="253.7548959480892" r="9" fill="#43a047" fill-opacity="0.7" />
<circle cx="428.0445870099141" cy="253.60178649738066" r="8" fill="#66bb6a" fill-opacity="0.7" />
<circle cx="433.4025887645888" cy="295.4731280297863" r="9" fill="#2e7d32" fill-opacity="0.7" />
<circle cx="474.31756133732875" cy="311.74251240033743" r="14" fill="#a5d6a7" fill-opacity="0.7" />
<circle cx="437.1694829201019" cy="314.11605797252304" r="10" fill="#66bb6a" fill-opacity="0.7" />
<circle cx="441.13198237419937" cy="279.30058600524666" r="9" fill="#43a047" fill-opacity="0.7" />
<circle cx="427.39857238891364" cy="248.4155182290254" r="15" fill="#a5d6a7" fill-opacity="0.7" />
<path d="M394,355 Q340.875,335 304.8912521557987,297.13210252965337" stroke="#5d4037" stroke-width="8" fill="none" stroke-linecap="round" stroke-opacity="1.0" />
<circle cx="338.0058879164727" cy="329.00018000592627" r="12" fill="#2e7d32" fill-opacity="0.7" />
<circle cx="291.8648768511019" cy="319.8650697410708" r="15" fill="#43a047" fill-opacity="0.7" />
<circle cx="287.1465841366947" cy="331.25682048124236" r="14" fill="#66bb6a" fill-opacity="0.7" />
<circle cx="300.74078700840124" cy="271.5242065393115" r="8" fill="#a5d6a7" fill-opacity="0.7" />
<circle cx="328.9959817438297" cy="263.73521980142516" r="11" fill="#2e7d32" fill-opacity="0.7" />
<circle cx="311.34875219702485" cy="289.1348214785427" r="15" fill="#a5d6a7" fill-opacity="0.7" />
<circle cx="337.57575176232683" cy="314.628420117772" r="10" fill="#2e7d32" fill-opacity="0.7" />
<circle cx="299.86380307751233" cy="279.89335960242005" r="9" fill="#a5d6a7" fill-opacity="0.7" />
<circle cx="337.2922356313458" cy="274.12139343362026" r="9" fill="#2e7d32" fill-opacity="0.7" />
<circle cx="319.60211278635063" cy="296.8833730541619" r="9" fill="#a5d6a7" fill-opacity="0.7" />
<text x="400" y="580" font-family="Segoe UI, Helvetica, Arial, sans-serif" font-size="20" fill="#3e2723" text-anchor="middle" font-weight="bold">@prithwiraj84's Contribution Garden</text>
<text x="400" y="595" font-family="Segoe UI, Helvetica, Arial, sans-serif" font-size="14" fill="#5d4037" text-anchor="middle" font-weight="bold">Grown over 5 years</text></svg>