<svg xmlns="http://www.w3.org/2000/svg" width="800" height="600" viewBox="0 0 800 600">
        <defs>
            <linearGradient id="sky" x1="0%" y1="0%" x2="0%" y2="100%">
                <stop offset="0%" style="stop-color:#e0f7fa;stop-opacity:1" />
                <stop offset="100%" style="stop-color:#ffffff;stop-opacity:1" />
            </linearGradient>
            <filter id="glow" x="-20%" y="-20%" width="140%" height="140%">
                <feGaussianBlur stdDeviation="2" result="coloredBlur"/>
                <feMerge>
                    <feMergeNode in="coloredBlur"/>
                    <feMergeNode in="SourceGraphic"/>
                </feMerge>
            </filter>
        </defs>
        <rect width="100%" height="100%" fill="url(#sky)"/><path d="M0,550 Q400,530 800,550 L800,600 L0,600 Z" stroke="#4e342e" stroke-width="0" fill="#5d4037" stroke-linecap="round" stroke-opacity="1.0" />
<path d="M0,550 Q400,530 800,550" stroke="none" stroke-width="0" fill="#76ff03" stroke-linecap="round" stroke-opacity="0.1" />
<path d="M400,550 Q408.5,470.0 417,390" stroke="#4e342e" stroke-width="35" fill="none" stroke-linecap="round" stroke-opacity="1.0" />
<path d="M417,430 Q488.7105263157895,410 479.8716513158019,301.09401178077735" stroke="#5d4037" stroke-width="8" fill="none" stroke-linecap="round" stroke-opacity="1.0" />
<circle cx="502.20637356353717" cy="267.98911840897983" r="14" fill="#a5d6a7" fill-opacity="0.7" />
<circle cx="509.49820513650263" cy="306.29912709996887" r="8" fill="#66bb6a" fill-opacity="0.7" />
<circle cx="473.2945174533044" cy="317.0335480821922" r="9" fill="#66bb6a" fill-opacity="0.7" />
<circle cx="460.24961555077425" cy="329.5175979227807" r="8" fill="#43a047" fill-opacity="0.7" />
<circle cx="495.1008140136234" cy="318.3646081913862" r="9" fill="#2e7d32" fill-opacity="0.7" />
<circle cx="492.4104538811846" cy="305.57110326078447" r="11" fill="#43a047" fill-opacity="0.7" />
<circle cx="503.66418909324676" cy="295.47605713350396" r="13" fill="#2e7d32" fill-opacity="0.7" />
<circle cx="497.56919525748214" cy="326.84778202114916" r="13" fill="#66bb6a" fill-opacity="0.7" />
<circle cx="462.460692192678" cy="301.6826498655808" r="14" fill="#43a047" fill-opacity="0.7" />
<circle cx="457.9712720277026" cy="309.07601119355206" r="9" fill="#a5d6a7" fill-opacity="0.7" />
<path d="M417,415 Q349.2368421052631,395 296.2451684323659,353.4723401668772" stroke="#5d4037" stroke-width="8" fill="none" stroke-linecap="round" stroke-opacity="1.0" />
<circle cx="261.6094124847282" cy="359.1927186652839" r="9" fill="#a5d6a7" fill-opacity="0.7" />
<circle cx="279.2330389586331" cy="375.70331997774537" r="12" fill="#a5d6a7" fill-opacity="0.7" />
<circle cx="297.36813008014497" cy="369.40523620668057" r="14" fill="#43a047" fill-opacity="0.7" />
<circle cx="296.34395281045687" cy="354.283569540153" r="12" fill="#2e7d32" fill-opacity="0.7" />
<circle cx="278.72825480542184" cy="329.08987553935077" r="16" fill="#66bb6a" fill-opacity="0.7" />
<circle cx="325.2553324202604" cy="334.9824250374573" r="10" fill="#43a047" fill-opacity="0.7" />
<circle cx="293.2457044003429" cy="329.4876877736357" r="15" fill="#2e7d32" fill-opacity="0.7" />
<circle cx="301.54130013137313" cy="326.7063578295884" r="9" fill="#66bb6a" fill-opacity="0.7" />
<circle cx="280.3922877052073" cy="360.85376276062607" r="13" fill="#66bb6a" fill-opacity="0.7" />
<circle cx="311.97761790427023" cy="335.8936372718621" r="13" fill="#2e7d32" fill-opacity="0.7" />
<path d="M417,400 Q478.8421052631579,380 520.7303070879866,332.6367509323519" stroke="#5d4037" stroke-width="8" fill="none" stroke-linecap="round" stroke-opacity="1.0" />
<circle cx="506.457757154615" cy="346.81447120912947" r="11" fill="#a5d6a7" fill-opacity="0.7" />
<circle cx="538.2806767441865" cy="297.6915276573628" r="12" fill="#2e7d32" fill-opacity="0.7" />
<circle cx="492.1638350224603" cy="324.71593127660225" r="14" fill="#2e7d32" fill-opacity="0.7" />
<circle cx="554.5132499054355" cy="355.86353600806086" r="16" fill="#43a047" fill-opacity="0.7" />
<circle cx="534.7154871703144" cy="353.35950531059865" r="15" fill="#66bb6a" fill-opacity="0.7" />
<circle cx="551.0998720723657" cy="310.7565192610929" r="15" fill="#a5d6a7" fill-opacity="0.7" />
<circle cx="526.5112972526455" cy="325.2446169808466" r="8" fill="#66bb6a" fill-opacity="0.7" />
<circle cx="508.1149155691953" cy="340.3663025602389" r="10" fill="#a5d6a7" fill-opacity="0.7" />
<circle cx="518.9906881175657" cy="332.18619863287176" r="16" fill="#66bb6a" fill-opacity="0.7" />
<circle cx="487.6237151413909" cy="338.04926181854074" r="9" fill="#43a047" fill-opacity="0.7" />
<path d="M417,385 Q355.1578947368421,365 323.65434139349924,303.8558569406478" stroke="#5d4037" stroke-width="8" fill="none" stroke-linecap="round" stroke-opacity="1.0" />
<circle cx="349.3892220436347" cy="313.79198841809637" r="11" fill="#2e7d32" fill-opacity="0.7" />
<circle cx="301.8197294104207" cy="302.5704436852668" r="12" fill="#43a047" fill-opacity="0.7" />
<circle cx="326.2953305725603" cy="296.77428782659956" r="13" fill="#43a047" fill-opacity="0.7" />
<circle cx="302.21623594420566" cy="329.4041408859009" r="13" fill="#a5d6a7" fill-opacity="0.7" />
<circle cx="321.1616451720541" cy="282.4368535635073" r="8" fill="#a5d6a7" fill-opacity="0.7" />
<circle cx="317.87316259192244" cy="275.972052457623" r="11" fill="#43a047" fill-opacity="0.7" />
<circle cx="357.8385617884684" cy="278.02736618426593" r="15" fill="#a5d6a7" fill-opacity="0.7" />
<circle cx="352.6933226895849" cy="276.8980082254502" r="11" fill="#a5d6a7" fill-opacity="0.7" />
<circle cx="327.85885057196043" cy="327.01190738673864" r="12" fill="#2e7d32" fill-opacity="0.7" />
<circle cx="293.81633215018735" cy="289.7218136189943" r="13" fill="#a5d6a7" fill-opacity="0.7" />
<path d="M417,370 Q474.89473684210526,350 474.89473684210526,269.723374298644" stroke="#5d4037" stroke-width="8" fill="none" stroke-linecap="round" stroke-opacity="1.0" />
<circle cx="451.8098425785091" cy="239.3029727096175" r="10" fill="#66bb6a" fill-opacity="0.7" />
<circle cx="441.2389960578648" cy="282.8054199819761" r="10" fill="#a5d6a7" fill-opacity="0.7" />
<circle cx="454.3519735759494" cy="257.3765274079426" r="8" fill="#a5d6a7" fill-opacity="0.7" />
<circle cx="497.56605116115946" cy="282.378751705458" r="10" fill="#66bb6a" fill-opacity="0.7" />
<circle cx="506.9047834392735" cy="259.2401874320502" r="11" fill="#43a047" fill-opacity="0.7" />
<circle cx="471.1792965704028" cy="235.82490251767243" r="9" fill="#2e7d32" fill-opacity="0.7" />
<circle cx="494.5973391036446" cy="295.56025481154245" r="10" fill="#2e7d32" fill-opacity="0.7" />
<circle cx="465.28626647171126" cy="296.2300494904336" r="16" fill="#a5d6a7" fill-opacity="0.7" />
<circle cx="489.3954556675976" cy="244.5115764244466" r="16" fill="#66bb6a" fill-opacity="0.7" />
<circle cx="456.4959707535252" cy="266.2773709852124" r="16" fill="#66bb6a" fill-opacity="0.7" />
<path d="M417,355 Q363.0526315789474,335 325.50007383575405,297.82450043799633" stroke="#5d4037" stroke-width="8" fill="none" stroke-linecap="round" stroke-opacity="1.0" />
<circle cx="321.7245977424513" cy="310.2562823058838" r="13" fill="#43a047" fill-opacity="0.7" />
<circle cx="316.1689251902468" cy="290.6134423665077" r="16" fill="#a5d6a7" fill-opacity="0.7" />
<circle cx="300.0426762068505" cy="309.21847208411003" r="9" fill="#a5d6a7" fill-opacity="0.7" />
<circle cx="322.0551737361585" cy="303.1833784511211" r="8" fill="#43a047" fill-opacity="0.7" />
<circle cx="340.59223676514904" cy="300.5810772906335" r="8" fill="#43a047" fill-opacity="0.7" />
<circle cx="291.32760825905984" cy="266.2940209004102" r="15" fill="#2e7d32" fill-opacity="0.7" />
<circle cx="358.5160284883408" cy="296.059218553759" r="12" fill="#66bb6a" fill-opacity="0.7" />
<circle cx="357.3999628742915" cy="309.4963749637207" r="13" fill="#2e7d32" fill-opacity="0.7" />
<circle cx="334.00088538719154" cy="332.368322089768" r="12" fill="#43a047" fill-opacity="0.7" />
<circle cx="329.04986218890474" cy="283.9010818852645" r="14" fill="#a5d6a7" fill-opacity="0.7" />
<text x="400" y="580" font-family="Segoe UI, Helvetica, Arial, sans-serif" font-size="20" fill="#3e2723" text-anchor="middle" font-weight="bold">@prithwiraj84's Contribution Garden</text>
<text x="400" y="595" font-family="Segoe UI, Helvetica, Arial, sans-serif" font-size="14" fill="#5d4037" text-anchor="middle" font-weight="bold">Grown over 5 years</text></svg>