<svg xmlns="http://www.w3.org/2000/svg" width="800" height="600" viewBox="0 0 800 600">
        <defs>
            <linearGradient id="sky" x1="0%" y1="0%" x2="0%" y2="100%">
                <stop offset="0%" style="stop-color:#e0f7fa;stop-opacity:1" />
                <stop offset="100%" style="stop-color:#ffffff;stop-opacity:1" />
            </linearGradient>
            <filter id="glow" x="-20%" y="-20%" width="140%" height="140%">
                <feGaussianBlur stdDeviation="2" result="coloredBlur"/>
                <feMerge>
                    <feMergeNode in="coloredBlur"/>
                    <feMergeNode in="SourceGraphic"/>
                </feMerge>
            </filter>
        </defs>
        <rect width="100%" height="100%" fill="url(#sky)"/><path d="M0,550 Q400,530 800,550 L800,600 L0,600 Z" stroke="#4e342e" stroke-width="0" fill="#5d4037" stroke-linecap="round" stroke-opacity="1.0" />
<path d="M0,550 Q400,530 800,550" stroke="none" stroke-width="0" fill="#76ff03" stroke-linecap="round" stroke-opacity="0.1" />
<path d="M400,550 Q408.0,470.0 416,390" stroke="#4e342e" stroke-width="35" fill="none" stroke-linecap="round" stroke-opacity="1.0" />
<path d="M416,430 Q503.96875,410 540.4065993150082,305.5934006849918" stroke="#5d4037" stroke-width="8" fill="none" stroke-linecap="round" stroke-opacity="1.0" />
<circle cx="537.2632677461017" cy="329.89281891100495" r="16" fill="#a5d6a7" fill-opacity="0.7" />
<circle cx="555.1960496770819" cy="333.6854634390342" r="8" fill="#2e7d32" fill-opacity="0.7" />
<circle cx="521.9079326162796" cy="320.98599257111874" r="15" fill="#2e7d32" fill-opacity="0.7" />
<circle cx="519.4979625530389" cy="329.52878174094" r="12" fill="#2e7d32" fill-opacity="0.7" />
<circle cx="562.9950885383646" cy="330.69774867957415" r="11" fill="#43a047" fill-opacity="0.7" />
<circle cx="553.1511615091586" cy="272.13184785046633" r="10" fill="#a5d6a7" fill-opacity="0.7" />
<circle cx="571.1020915491843" cy="339.82414133592334" r="14" fill="#43a047" fill-opacity="0.7" />
<circle cx="557.3335936944334" cy="277.7559063208331" r="8" fill="#43a047" fill-opacity="0.7" />
<circle cx="575.2482050734583" cy="289.51207403066445" r="10" fill="#66bb6a" fill-opacity="0.7" />
<circle cx="566.3613304169012" cy="290.4825232325961" r="13" fill="#2e7d32" fill-opacity="0.7" />
<circle cx="571.6603707246045" cy="274.8651014855458" r="12" fill="#2e7d32" fill-opacity="0.7" />
<circle cx="573.1514515486057" cy="332.45912633039865" r="14" fill="#2e7d32" fill-opacity="0.7" />
<circle cx="541.1154992215662" cy="331.51482749089314" r="10" fill="#66bb6a" fill-opacity="0.7" />
<circle cx="568.9302161286221" cy="305.4476336428201" r="14" fill="#2e7d32" fill-opacity="0.7" />
<circle cx="549.2025584198427" cy="295.6714309737323" r="11" fill="#66bb6a" fill-opacity="0.7" />
<circle cx="543.3115818098497" cy="322.334909497042" r="8" fill="#66bb6a" fill-opacity="0.7" />
<path d="M416,415 Q353.34375,395 338.84992137325344,316.25240243865767" stroke="#5d4037" stroke-width="8" fill="none" stroke-linecap="round" stroke-opacity="1.0" />
<circle cx="333.3434913297008" cy="291.9389375480366" r="13" fill="#66bb6a" fill-opacity="0.7" />
<circle cx="324.71049081620396" cy="288.67517911531115" r="11" fill="#66bb6a" fill-opacity="0.7" />
<circle cx="345.0412530949721" cy="320.9637639346767" r="12" fill="#43a047" fill-opacity="0.7" />
<circle cx="366.44965877237973" cy="317.70819055168465" r="13" fill="#43a047" fill-opacity="0.7" />
<circle cx="328.4182734900396" cy="328.63265068013834" r="12" fill="#66bb6a" fill-opacity="0.7" />
<circle cx="358.52084105177397" cy="348.74652898763594" r="16" fill="#43a047" fill-opacity="0.7" />
<circle cx="317.0390131553486" cy="289.3977182102298" r="12" fill="#2e7d32" fill-opacity="0.7" />
<circle cx="314.42196816906113" cy="338.30892204759033" r="8" fill="#66bb6a" fill-opacity="0.7" />
<circle cx="368.04609012039475" cy="283.3704759092526" r="9" fill="#a5d6a7" fill-opacity="0.7" />
<circle cx="343.7551282547257" cy="334.9373027611163" r="9" fill="#a5d6a7" fill-opacity="0.7" />
<path d="M416,400 Q472.5625,380 493.1510644820701,317.26561250433133" stroke="#5d4037" stroke-width="8" fill="none" stroke-linecap="round" stroke-opacity="1.0" />
<circle cx="473.2094827563387" cy="296.5636215363944" r="10" fill="#a5d6a7" fill-opacity="0.7" />
<circle cx="477.9890249382687" cy="315.3119348468282" r="15" fill="#a5d6a7" fill-opacity="0.7" />
<circle cx="508.6800437309114" cy="297.1437248103473" r="14" fill="#43a047" fill-opacity="0.7" />
<circle cx="461.40970381766084" cy="322.274600314987" r="12" fill="#2e7d32" fill-opacity="0.7" />
<circle cx="489.31409212634253" cy="337.74535190405965" r="10" fill="#2e7d32" fill-opacity="0.7" />
<circle cx="514.001778215537" cy="316.3228079522471" r="12" fill="#2e7d32" fill-opacity="0.7" />
<circle cx="497.242237812059" cy="321.3355216069277" r="11" fill="#a5d6a7" fill-opacity="0.7" />
<circle cx="506.2567277137823" cy="298.17487284605687" r="13" fill="#a5d6a7" fill-opacity="0.7" />
<circle cx="478.3370468310006" cy="295.1730606605255" r="10" fill="#43a047" fill-opacity="0.7" />
<circle cx="469.5247878344204" cy="324.7630023277614" r="16" fill="#2e7d32" fill-opacity="0.7" />
<circle cx="500.8875525410762" cy="333.5000400890388" r="5" fill="#ffeb3b" fill-opacity="1.0" />
<circle cx="500.8875525410762" cy="333.5000400890388" r="9" fill="#ffeb3b" fill-opacity="0.3" />
<path d="M416,385 Q359.90625,365 356.5496825438373,289.85960421245096" stroke="#5d4037" stroke-width="8" fill="none" stroke-linecap="round" stroke-opacity="1.0" />
<circle cx="390.63533462557064" cy="295.386831498289" r="12" fill="#a5d6a7" fill-opacity="0.7" />
<circle cx="381.23395125684556" cy="263.14400203235294" r="14" fill="#2e7d32" fill-opacity="0.7" />
<circle cx="341.2936237723432" cy="308.506421962695" r="12" fill="#2e7d32" fill-opacity="0.7" />
<circle cx="334.3965713674671" cy="254.99790052876114" r="12" fill="#66bb6a" fill-opacity="0.7" />
<circle cx="379.8340885699748" cy="289.79019800248483" r="8" fill="#2e7d32" fill-opacity="0.7" />
<circle cx="382.7984218679378" cy="296.8649014104247" r="9" fill="#a5d6a7" fill-opacity="0.7" />
<circle cx="327.3744818258296" cy="310.4736830050766" r="13" fill="#a5d6a7" fill-opacity="0.7" />
<circle cx="348.742788930806" cy="274.58904890605703" r="9" fill="#43a047" fill-opacity="0.7" />
<circle cx="345.15988800270367" cy="310.7563678713631" r="9" fill="#2e7d32" fill-opacity="0.7" />
<circle cx="383.8338447150925" cy="302.0219849280208" r="14" fill="#2e7d32" fill-opacity="0.7" />
<path d="M416,370 Q472.09375,350 475.4503174561627,274.85960421245096" stroke="#5d4037" stroke-width="8" fill="none" stroke-linecap="round" stroke-opacity="1.0" />
<circle cx="473.27099193262313" cy="265.0386491054566" r="13" fill="#43a047" fill-opacity="0.7" />
<circle cx="451.5508891316714" cy="244.98118390974244" r="15" fill="#66bb6a" fill-opacity="0.7" />
<circle cx="481.41371452126555" cy="298.04638005810745" r="14" fill="#a5d6a7" fill-opacity="0.7" />
<circle cx="508.4151815105913" cy="269.0055628610041" r="11" fill="#a5d6a7" fill-opacity="0.7" />
<circle cx="463.4279001286058" cy="296.5774455032332" r="12" fill="#43a047" fill-opacity="0.7" />
<circle cx="489.11565495320497" cy="306.12507083930694" r="14" fill="#43a047" fill-opacity="0.7" />
<circle cx="486.6819179813349" cy="248.54123462980812" r="11" fill="#a5d6a7" fill-opacity="0.7" />
<circle cx="443.85380578991305" cy="240.20889490613516" r="13" fill="#43a047" fill-opacity="0.7" />
<circle cx="468.2301604648325" cy="305.6060928884351" r="12" fill="#66bb6a" fill-opacity="0.7" />
<circle cx="502.0368794742646" cy="265.53004355237795" r="8" fill="#43a047" fill-opacity="0.7" />
<path d="M416,355 Q360.375,335 338.7192562864366,274.9734472123251" stroke="#5d4037" stroke-width="8" fill="none" stroke-linecap="round" stroke-opacity="1.0" />
<circle cx="319.82914760798826" cy="299.90706765441263" r="14" fill="#2e7d32" fill-opacity="0.7" />
<circle cx="313.65883768274625" cy="271.11082368984285" r="14" fill="#2e7d32" fill-opacity="0.7" />
<circle cx="304.0009780509492" cy="246.34248669167536" r="12" fill="#43a047" fill-opacity="0.7" />
<circle cx="338.3164596941988" cy="249.59397269761024" r="15" fill="#a5d6a7" fill-opacity="0.7" />
<circle cx="360.6486341461567" cy="303.46495590793216" r="13" fill="#43a047" fill-opacity="0.7" />
<circle cx="355.6558185606779" cy="305.037232659245" r="15" fill="#43a047" fill-opacity="0.7" />
<circle cx="363.64053251205746" cy="261.9231605878161" r="11" fill="#a5d6a7" fill-opacity="0.7" />
<circle cx="343.2447852322165" cy="285.01514244318383" r="12" fill="#2e7d32" fill-opacity="0.7" />
<circle cx="310.76101724177" cy="303.1536107837174" r="14" fill="#66bb6a" fill-opacity="0.7" />
<circle cx="323.0686441106491" cy="291.34772930003965" r="15" fill="#66bb6a" fill-opacity="0.7" />
<text x="400" y="580" font-family="Segoe UI, Helvetica, Arial, sans-serif" font-size="20" fill="#3e2723" text-anchor="middle" font-weight="bold">@prithwiraj84's Contribution Garden</text>
<text x="400" y="595" font-family="Segoe UI, Helvetica, Arial, sans-serif" font-size="14" fill="#5d4037" text-anchor="middle" font-weight="bold">Grown over 5 years</text></svg>