<svg xmlns="http://www.w3.org/2000/svg" width="800" height="600" viewBox="0 0 800 600">
        <defs>
            <linearGradient id="sky" x1="0%" y1="0%" x2="0%" y2="100%">
                <stop offset="0%" style="stop-color:#e0f7fa;stop-opacity:1" />
                <stop offset="100%" style="stop-color:#ffffff;stop-opacity:1" />
            </linearGradient>
            <filter id="glow" x="-20%" y="-20%" width="140%" height="140%">
                <feGaussianBlur stdDeviation="2" result="coloredBlur"/>
                <feMerge>
                    <feMergeNode in="coloredBlur"/>
                    <feMergeNode in="SourceGraphic"/>
                </feMerge>
            </filter>
        </defs>
        <rect width="100%" height="100%" fill="url(#sky)"/><path d="M0,550 Q400,530 800,550 L800,600 L0,600 Z" stroke="#4e342e" stroke-width="0" fill="#5d4037" stroke-linecap="round" stroke-opacity="1.0" />
<path d="M0,550 Q400,530 800,550" stroke="none" stroke-width="0" fill="#76ff03" stroke-linecap="round" stroke-opacity="0.1" />
<path d="M400,550 Q386.5,470.0 373,390" stroke="#4e342e" stroke-width="35" fill="none" stroke-linecap="round" stroke-opacity="1.0" />
<path d="M373,430 Q462.2241379310345,410 451.2265753321888,269.61175208282106" stroke="#5d4037" stroke-width="8" fill="none" stroke-linecap="round" stroke-opacity="1.0" />
<circle cx="478.793345804297" cy="303.32768231734593" r="12" fill="#2e7d32" fill-opacity="0.7" />
<circle cx="455.6258824567806" cy="297.4283125031755" r="13" fill="#2e7d32" fill-opacity="0.7" />
<circle cx="437.3412492325547" cy="252.54863125052222" r="8" fill="#2e7d32" fill-opacity="0.7" />
<circle cx="485.86953859099367" cy="256.67210982401906" r="16" fill="#2e7d32" fill-opacity="0.7" />
<circle cx="432.6888810757909" cy="280.65415851553087" r="15" fill="#2e7d32" fill-opacity="0.7" />
<circle cx="440.2249042067831" cy="272.0257433760802" r="8" fill="#a5d6a7" fill-opacity="0.7" />
<circle cx="482.2972198937587" cy="251.59347725627364" r="8" fill="#66bb6a" fill-opacity="0.7" />
<circle cx="423.68838534804587" cy="298.65821368836214" r="16" fill="#2e7d32" fill-opacity="0.7" />
<circle cx="447.0781006947538" cy="288.90332420383186" r="8" fill="#66bb6a" fill-opacity="0.7" />
<circle cx="483.9251865367117" cy="300.0477162028649" r="14" fill="#43a047" fill-opacity="0.7" />
<circle cx="424.128588080715" cy="235.40032682971074" r="11" fill="#a5d6a7" fill-opacity="0.7" />
<circle cx="442.9014880080461" cy="250.62264726820504" r="14" fill="#66bb6a" fill-opacity="0.7" />
<circle cx="430.6738185805015" cy="270.0860633745302" r="12" fill="#a5d6a7" fill-opacity="0.7" />
<circle cx="459.1381655920853" cy="243.6830128405929" r="16" fill="#43a047" fill-opacity="0.7" />
<circle cx="446.92820373069475" cy="263.15310639041286" r="15" fill="#a5d6a7" fill-opacity="0.7" />
<circle cx="448.77656124067386" cy="240.04901361158994" r="13" fill="#66bb6a" fill-opacity="0.7" />
<circle cx="433.9503708379034" cy="265.6301384187242" r="12" fill="#43a047" fill-opacity="0.7" />
<circle cx="473.78288277039815" cy="290.93254473398713" r="15" fill="#a5d6a7" fill-opacity="0.7" />
<path d="M373,415 Q309.6379310344828,395 303.9810878041302,308.7201952689851" stroke="#5d4037" stroke-width="8" fill="none" stroke-linecap="round" stroke-opacity="1.0" />
<circle cx="322.63237557655935" cy="291.26951162231956" r="16" fill="#43a047" fill-opacity="0.7" />
<circle cx="331.38284063500265" cy="295.7994064853723" r="13" fill="#2e7d32" fill-opacity="0.7" />
<circle cx="291.0922324045021" cy="310.8675984674752" r="15" fill="#a5d6a7" fill-opacity="0.7" />
<circle cx="329.45273510066994" cy="286.48528849543504" r="9" fill="#66bb6a" fill-opacity="0.7" />
<circle cx="274.1564163495041" cy="323.76127037944065" r="8" fill="#a5d6a7" fill-opacity="0.7" />
<circle cx="272.66725837934376" cy="302.06468563502085" r="8" fill="#2e7d32" fill-opacity="0.7" />
<circle cx="312.9566443323016" cy="310.7132569208131" r="12" fill="#66bb6a" fill-opacity="0.7" />
<circle cx="329.3161959035802" cy="321.065834622389" r="11" fill="#43a047" fill-opacity="0.7" />
<circle cx="312.95676118710344" cy="327.54881340883134" r="15" fill="#66bb6a" fill-opacity="0.7" />
<circle cx="324.52463359947365" cy="332.18571459564464" r="9" fill="#43a047" fill-opacity="0.7" />
<path d="M373,400 Q429.0344827586207,380 474.56897613341766,352.63760859802505" stroke="#5d4037" stroke-width="8" fill="none" stroke-linecap="round" stroke-opacity="1.0" />
<circle cx="464.40462560262256" cy="329.4635154607618" r="10" fill="#2e7d32" fill-opacity="0.7" />
<circle cx="477.06109605815016" cy="322.3821998817115" r="13" fill="#a5d6a7" fill-opacity="0.7" />
<circle cx="470.3937173361697" cy="322.7224125967106" r="9" fill="#66bb6a" fill-opacity="0.7" />
<circle cx="499.53145972022435" cy="348.38035912472236" r="16" fill="#a5d6a7" fill-opacity="0.7" />
<circle cx="448.6713704108244" cy="377.0848573094162" r="14" fill="#a5d6a7" fill-opacity="0.7" />
<circle cx="456.05705486655756" cy="327.94503007995235" r="10" fill="#2e7d32" fill-opacity="0.7" />
<circle cx="457.26277619099665" cy="337.9169223994862" r="10" fill="#66bb6a" fill-opacity="0.7" />
<circle cx="455.2340633349236" cy="376.1840453991336" r="14" fill="#2e7d32" fill-opacity="0.7" />
<circle cx="500.14624216897056" cy="356.2169634830194" r="9" fill="#43a047" fill-opacity="0.7" />
<circle cx="504.894915118674" cy="371.3026721224451" r="14" fill="#a5d6a7" fill-opacity="0.7" />
<circle cx="458.7202314223954" cy="343.80659884485334" r="5" fill="#ffeb3b" fill-opacity="1.0" />
<circle cx="458.7202314223954" cy="343.80659884485334" r="9" fill="#ffeb3b" fill-opacity="0.3" />
<path d="M373,385 Q317.3965517241379,365 319.08582671398494,287.73625670604997" stroke="#5d4037" stroke-width="8" fill="none" stroke-linecap="round" stroke-opacity="1.0" />
<circle cx="321.35983119803797" cy="301.71758288352214" r="11" fill="#66bb6a" fill-opacity="0.7" />
<circle cx="291.79167373205155" cy="295.541337295768" r="14" fill="#a5d6a7" fill-opacity="0.7" />
<circle cx="353.07671793748693" cy="322.4579350649602" r="16" fill="#a5d6a7" fill-opacity="0.7" />
<circle cx="352.6559027128181" cy="294.8454903604662" r="16" fill="#43a047" fill-opacity="0.7" />
<circle cx="284.2818254282458" cy="257.600545199328" r="14" fill="#2e7d32" fill-opacity="0.7" />
<circle cx="323.40213518243286" cy="264.9027059005779" r="9" fill="#a5d6a7" fill-opacity="0.7" />
<circle cx="343.5037387340175" cy="301.71162465300455" r="16" fill="#66bb6a" fill-opacity="0.7" />
<circle cx="352.84592726593615" cy="255.88563952631222" r="15" fill="#2e7d32" fill-opacity="0.7" />
<circle cx="329.04019689781336" cy="270.96862715988965" r="16" fill="#66bb6a" fill-opacity="0.7" />
<circle cx="318.4091766887533" cy="318.8788295994368" r="15" fill="#2e7d32" fill-opacity="0.7" />
<path d="M373,370 Q428.6034482758621,350 445.95828856877193,286.071089785571" stroke="#5d4037" stroke-width="8" fill="none" stroke-linecap="round" stroke-opacity="1.0" />
<circle cx="475.16820202179883" cy="306.93794420870273" r="15" fill="#66bb6a" fill-opacity="0.7" />
<circle cx="444.96820301498286" cy="312.7713068474423" r="11" fill="#a5d6a7" fill-opacity="0.7" />
<circle cx="414.427418103185" cy="298.99093458120103" r="11" fill="#66bb6a" fill-opacity="0.7" />
<circle cx="461.8213007090063" cy="281.0372983056115" r="12" fill="#2e7d32" fill-opacity="0.7" />
<circle cx="440.93979489227803" cy="316.51205289835514" r="8" fill="#66bb6a" fill-opacity="0.7" />
<circle cx="422.590527179983" cy="297.62560524715065" r="14" fill="#66bb6a" fill-opacity="0.7" />
<circle cx="435.2616912186506" cy="278.42968526056336" r="11" fill="#2e7d32" fill-opacity="0.7" />
<circle cx="460.4763432737804" cy="310.2091558217184" r="9" fill="#2e7d32" fill-opacity="0.7" />
<circle cx="435.05835123581704" cy="299.26066321006886" r="12" fill="#43a047" fill-opacity="0.7" />
<circle cx="440.9362454002551" cy="270.11047054014347" r="8" fill="#66bb6a" fill-opacity="0.7" />
<path d="M373,355 Q317.82758620689657,335 276.49023921220464,301.5037660417835" stroke="#5d4037" stroke-width="8" fill="none" stroke-linecap="round" stroke-opacity="1.0" />
<circle cx="302.66074071040345" cy="324.7189467589306" r="12" fill="#66bb6a" fill-opacity="0.7" />
<circle cx="248.46939267380355" cy="276.245198409153" r="14" fill="#43a047" fill-opacity="0.7" />
<circle cx="249.66107650772597" cy="304.2328261749051" r="9" fill="#2e7d32" fill-opacity="0.7" />
<circle cx="286.6769057918843" cy="281.5030619315406" r="16" fill="#66bb6a" fill-opacity="0.7" />
<circle cx="301.95192620244313" cy="272.46426558909695" r="15" fill="#a5d6a7" fill-opacity="0.7" />
<circle cx="243.84118040075242" cy="288.44147974483894" r="14" fill="#2e7d32" fill-opacity="0.7" />
<circle cx="258.8520189812415" cy="303.3664157507436" r="11" fill="#2e7d32" fill-opacity="0.7" />
<circle cx="262.046845968799" cy="326.8155475398385" r="11" fill="#a5d6a7" fill-opacity="0.7" />
<circle cx="259.8471340317977" cy="318.8150131929711" r="13" fill="#2e7d32" fill-opacity="0.7" />
<circle cx="256.6666983119691" cy="327.7128856637109" r="10" fill="#2e7d32" fill-opacity="0.7" />
<text x="400" y="580" font-family="Segoe UI, Helvetica, Arial, sans-serif" font-size="20" fill="#3e2723" text-anchor="middle" font-weight="bold">@prithwiraj84's Contribution Garden</text>
<text x="400" y="595" font-family="Segoe UI, Helvetica, Arial, sans-serif" font-size="14" fill="#5d4037" text-anchor="middle" font-weight="bold">Grown over 5 years</text></svg>