<svg xmlns="http://www.w3.org/2000/svg" width="800" height="600" viewBox="0 0 800 600">
        <defs>
            <linearGradient id="sky" x1="0%" y1="0%" x2="0%" y2="100%">
                <stop offset="0%" style="stop-color:#e0f7fa;stop-opacity:1" />
                <stop offset="100%" style="stop-color:#ffffff;stop-opacity:1" />
            </linearGradient>
            <filter id="glow" x="-20%" y="-20%" width="140%" height="140%">
                <feGaussianBlur stdDeviation="2" result="coloredBlur"/>
                <feMerge>
                    <feMergeNode in="coloredBlur"/>
                    <feMergeNode in="SourceGraphic"/>
                </feMerge>
            </filter>
        </defs>
        <rect width="100%" height="100%" fill="url(#sky)"/><path d="M0,550 Q400,530 800,550 L800,600 L0,600 Z" stroke="#4e342e" stroke-width="0" fill="#5d4037" stroke-linecap="round" stroke-opacity="1.0" />
<path d="M0,550 Q400,530 800,550" stroke="none" stroke-width="0" fill="#76ff03" stroke-linecap="round" stroke-opacity="0.1" />
<path d="M400,550 Q413.0,470.0 426,390" stroke="#4e342e" stroke-width="35" fill="none" stroke-linecap="round" stroke-opacity="1.0" />
<path d="M426,430 Q514.7640449438202,410 565.8940438987214,320.70279426802915" stroke="#5d4037" stroke-width="8" fill="none" stroke-linecap="round" stroke-opacity="1.0" />
<circle cx="542.7140884653273" cy="310.8701375079883" r="16" fill="#43a047" fill-opacity="0.7" />
<circle cx="569.3100532008535" cy="327.70021893437814" r="8" fill="#43a047" fill-opacity="0.7" />
<circle cx="530.9669946597616" cy="293.9646359690822" r="8" fill="#a5d6a7" fill-opacity="0.7" />
<circle cx="545.5378720093662" cy="337.35032772174884" r="12" fill="#43a047" fill-opacity="0.7" />
<circle cx="594.978044840195" cy="305.70225704294523" r="16" fill="#66bb6a" fill-opacity="0.7" />
<circle cx="588.7662901659405" cy="322.72116247178843" r="12" fill="#a5d6a7" fill-opacity="0.7" />
<circle cx="554.1728484660465" cy="349.78170692447935" r="12" fill="#2e7d32" fill-opacity="0.7" />
<circle cx="530.951341109691" cy="321.0721274808601" r="10" fill="#2e7d32" fill-opacity="0.7" />
<circle cx="534.9496664985875" cy="322.4363899653369" r="13" fill="#a5d6a7" fill-opacity="0.7" />
<circle cx="563.5464570705409" cy="312.28506383042753" r="16" fill="#2e7d32" fill-opacity="0.7" />
<circle cx="564.8241554262452" cy="324.18010758727013" r="14" fill="#66bb6a" fill-opacity="0.7" />
<circle cx="589.2147688621376" cy="340.0113512479526" r="8" fill="#66bb6a" fill-opacity="0.7" />
<circle cx="536.0771651864327" cy="349.89633850918887" r="10" fill="#2e7d32" fill-opacity="0.7" />
<circle cx="539.1864209102979" cy="291.9371064411621" r="11" fill="#2e7d32" fill-opacity="0.7" />
<circle cx="587.8118236821873" cy="336.1646457664327" r="8" fill="#a5d6a7" fill-opacity="0.7" />
<circle cx="535.5503474415694" cy="312.4193491814275" r="8" fill="#43a047" fill-opacity="0.7" />
<circle cx="543.9806473098612" cy="308.86347774478367" r="12" fill="#43a047" fill-opacity="0.7" />
<circle cx="580.3763754278546" cy="345.64918225168793" r="16" fill="#66bb6a" fill-opacity="0.7" />
<path d="M426,415 Q362.93820224719104,395 322.68559890849514,342.65847755010685" stroke="#5d4037" stroke-width="8" fill="none" stroke-linecap="round" stroke-opacity="1.0" />
<circle cx="335.22262325727803" cy="375.04880085648426" r="8" fill="#2e7d32" fill-opacity="0.7" />
<circle cx="290.66565533907107" cy="341.7891240479686" r="13" fill="#2e7d32" fill-opacity="0.7" />
<circle cx="336.6929164274899" cy="325.6380250027882" r="9" fill="#43a047" fill-opacity="0.7" />
<circle cx="291.4726040716044" cy="341.7218723867643" r="15" fill="#43a047" fill-opacity="0.7" />
<circle cx="352.33722009337396" cy="376.8096343371991" r="11" fill="#a5d6a7" fill-opacity="0.7" />
<circle cx="322.0867235942957" cy="342.2167613500989" r="10" fill="#2e7d32" fill-opacity="0.7" />
<circle cx="349.6754530928426" cy="373.55180682653486" r="8" fill="#2e7d32" fill-opacity="0.7" />
<circle cx="288.1263149119205" cy="353.85005378129244" r="8" fill="#2e7d32" fill-opacity="0.7" />
<circle cx="304.2368923901687" cy="361.1518536399712" r="11" fill="#66bb6a" fill-opacity="0.7" />
<circle cx="339.92540883845" cy="315.4651980596879" r="11" fill="#a5d6a7" fill-opacity="0.7" />
<path d="M426,400 Q482.7415730337079,380 494.29586217792905,309.368329758678" stroke="#5d4037" stroke-width="8" fill="none" stroke-linecap="round" stroke-opacity="1.0" />
<circle cx="471.92519613427925" cy="296.2768684495267" r="13" fill="#2e7d32" fill-opacity="0.7" />
<circle cx="515.3045157700669" cy="290.97752138379906" r="9" fill="#2e7d32" fill-opacity="0.7" />
<circle cx="463.26293767305003" cy="320.7892247704184" r="10" fill="#2e7d32" fill-opacity="0.7" />
<circle cx="524.0194790148653" cy="302.31678431294466" r="9" fill="#a5d6a7" fill-opacity="0.7" />
<circle cx="465.8232002882813" cy="315.03411019707335" r="16" fill="#43a047" fill-opacity="0.7" />
<circle cx="510.5911572584276" cy="342.8489171845857" r="16" fill="#66bb6a" fill-opacity="0.7" />
<circle cx="526.6332203202246" cy="309.10484175812724" r="13" fill="#66bb6a" fill-opacity="0.7" />
<circle cx="482.22946654300915" cy="280.05926234877074" r="9" fill="#43a047" fill-opacity="0.7" />
<circle cx="510.2017268809586" cy="334.48082127926233" r="9" fill="#43a047" fill-opacity="0.7" />
<circle cx="486.5598346827166" cy="288.7270293136897" r="15" fill="#2e7d32" fill-opacity="0.7" />
<path d="M426,385 Q370.1011235955056,365 349.7541159255971,303.236299650441" stroke="#5d4037" stroke-width="8" fill="none" stroke-linecap="round" stroke-opacity="1.0" />
<circle cx="352.1252439483824" cy="324.95713362523156" r="11" fill="#43a047" fill-opacity="0.7" />
<circle cx="383.23141073832426" cy="305.2358780987547" r="8" fill="#2e7d32" fill-opacity="0.7" />
<circle cx="374.05375604734365" cy="320.7514566725397" r="10" fill="#2e7d32" fill-opacity="0.7" />
<circle cx="355.6882409908017" cy="325.280036275166" r="10" fill="#a5d6a7" fill-opacity="0.7" />
<circle cx="323.3819923336831" cy="281.5422344526875" r="12" fill="#43a047" fill-opacity="0.7" />
<circle cx="317.9852312676999" cy="275.7688157823635" r="12" fill="#43a047" fill-opacity="0.7" />
<circle cx="327.0818557363047" cy="288.54217340755196" r="9" fill="#66bb6a" fill-opacity="0.7" />
<circle cx="376.06433256194947" cy="290.1959732369136" r="9" fill="#2e7d32" fill-opacity="0.7" />
<circle cx="346.5998693683561" cy="280.72688903592723" r="15" fill="#43a047" fill-opacity="0.7" />
<circle cx="319.71556820971176" cy="280.3983750403535" r="12" fill="#2e7d32" fill-opacity="0.7" />
<circle cx="359.3788549919893" cy="303.5646558659409" r="5" fill="#ffeb3b" fill-opacity="1.0" />
<circle cx="359.3788549919893" cy="303.5646558659409" r="9" fill="#ffeb3b" fill-opacity="0.3" />
<path d="M426,370 Q481.47752808988764,350 491.21774568975474,280.23547393873474" stroke="#5d4037" stroke-width="8" fill="none" stroke-linecap="round" stroke-opacity="1.0" />
<circle cx="495.0175733725405" cy="263.9246879257143" r="16" fill="#66bb6a" fill-opacity="0.7" />
<circle cx="497.82199132468014" cy="284.0356841247863" r="10" fill="#66bb6a" fill-opacity="0.7" />
<circle cx="498.6669418582199" cy="284.2884424782001" r="11" fill="#a5d6a7" fill-opacity="0.7" />
<circle cx="498.10312860106825" cy="275.4022623831682" r="9" fill="#66bb6a" fill-opacity="0.7" />
<circle cx="475.2376023787083" cy="258.56001663293455" r="8" fill="#a5d6a7" fill-opacity="0.7" />
<circle cx="459.5749832957669" cy="312.76612307080626" r="13" fill="#66bb6a" fill-opacity="0.7" />
<circle cx="499.6189704519297" cy="286.7455400058557" r="15" fill="#a5d6a7" fill-opacity="0.7" />
<circle cx="465.27196959905484" cy="270.5731970526187" r="15" fill="#66bb6a" fill-opacity="0.7" />
<circle cx="461.8656150611865" cy="310.03272844940994" r="14" fill="#a5d6a7" fill-opacity="0.7" />
<circle cx="494.88405114936995" cy="282.76350392647157" r="15" fill="#66bb6a" fill-opacity="0.7" />
<path d="M426,355 Q370.9438202247191,335 328.7765571908148,303.30537847975586" stroke="#5d4037" stroke-width="8" fill="none" stroke-linecap="round" stroke-opacity="1.0" />
<circle cx="334.3153568923674" cy="278.807951241395" r="14" fill="#a5d6a7" fill-opacity="0.7" />
<circle cx="355.9119402122729" cy="302.31955792485456" r="8" fill="#43a047" fill-opacity="0.7" />
<circle cx="335.0189436603746" cy="293.3042223047963" r="9" fill="#43a047" fill-opacity="0.7" />
<circle cx="296.8827015790425" cy="309.17714290653635" r="16" fill="#2e7d32" fill-opacity="0.7" />
<circle cx="329.3267981124841" cy="288.6340649080175" r="11" fill="#a5d6a7" fill-opacity="0.7" />
<circle cx="314.4577676221901" cy="299.3956955706136" r="10" fill="#43a047" fill-opacity="0.7" />
<circle cx="335.99228581148486" cy="290.8523429787707" r="14" fill="#66bb6a" fill-opacity="0.7" />
<circle cx="304.75271357705674" cy="303.29986228826857" r="16" fill="#2e7d32" fill-opacity="0.7" />
<circle cx="305.4309161619298" cy="336.6704597993551" r="15" fill="#66bb6a" fill-opacity="0.7" />
<circle cx="349.06412160257605" cy="269.3216886775358" r="9" fill="#a5d6a7" fill-opacity="0.7" />
<text x="400" y="580" font-family="Segoe UI, Helvetica, Arial, sans-serif" font-size="20" fill="#3e2723" text-anchor="middle" font-weight="bold">@prithwiraj84's Contribution Garden</text>
<text x="400" y="595" font-family="Segoe UI, Helvetica, Arial, sans-serif" font-size="14" fill="#5d4037" text-anchor="middle" font-weight="bold">Grown over 5 years</text></svg>