<svg xmlns="http://www.w3.org/2000/svg" width="800" height="600" viewBox="0 0 800 600">
        <defs>
            <linearGradient id="sky" x1="0%" y1="0%" x2="0%" y2="100%">
                <stop offset="0%" style="stop-color:#e0f7fa;stop-opacity:1" />
                <stop offset="100%" style="stop-color:#ffffff;stop-opacity:1" />
            </linearGradient>
            <filter id="glow" x="-20%" y="-20%" width="140%" height="140%">
                <feGaussianBlur stdDeviation="2" result="coloredBlur"/>
                <feMerge>
                    <feMergeNode in="coloredBlur"/>
                    <feMergeNode in="SourceGraphic"/>
                </feMerge>
            </filter>
        </defs>
        <rect width="100%" height="100%" fill="url(#sky)"/><path d="M0,550 Q400,530 800,550 L800,600 L0,600 Z" stroke="#4e342e" stroke-width="0" fill="#5d4037" stroke-linecap="round" stroke-opacity="1.0" />
<path d="M0,550 Q400,530 800,550" stroke="none" stroke-width="0" fill="#76ff03" stroke-linecap="round" stroke-opacity="0.1" />
<path d="M400,550 Q412.0,470.0 424,390" stroke="#4e342e" stroke-width="35" fill="none" stroke-linecap="round" stroke-opacity="1.0" />
<path d="M424,430 Q512.1987577639752,410 539.727182753605,296.8711051035607" stroke="#5d4037" stroke-width="8" fill="none" stroke-linecap="round" stroke-opacity="1.0" />
<circle cx="517.5002873342467" cy="314.5228330032379" r="14" fill="#2e7d32" fill-opacity="0.7" />
<circle cx="520.5689276335069" cy="310.2112838097868" r="8" fill="#43a047" fill-opacity="0.7" />
<circle cx="545.9724144728991" cy="276.32704725461724" r="12" fill="#43a047" fill-opacity="0.7" />
<circle cx="534.1629706137005" cy="304.55552494511045" r="10" fill="#43a047" fill-opacity="0.7" />
<circle cx="557.761802641588" cy="305.7499963035642" r="9" fill="#2e7d32" fill-opacity="0.7" />
<circle cx="511.4974547531041" cy="280.1914368161383" r="14" fill="#66bb6a" fill-opacity="0.7" />
<circle cx="567.7680514787656" cy="281.63190775498623" r="9" fill="#43a047" fill-opacity="0.7" />
<circle cx="538.7241821739126" cy="329.696906258704" r="16" fill="#66bb6a" fill-opacity="0.7" />
<circle cx="527.3780584848058" cy="299.40205459171045" r="14" fill="#2e7d32" fill-opacity="0.7" />
<circle cx="538.0814212038623" cy="330.94747883434496" r="11" fill="#2e7d32" fill-opacity="0.7" />
<circle cx="515.3709824430824" cy="314.3768098237904" r="10" fill="#66bb6a" fill-opacity="0.7" />
<circle cx="548.8689904081318" cy="308.36536493450507" r="9" fill="#2e7d32" fill-opacity="0.7" />
<circle cx="511.4731458937296" cy="292.68651406349124" r="13" fill="#a5d6a7" fill-opacity="0.7" />
<circle cx="552.889258233629" cy="299.93241807051817" r="9" fill="#2e7d32" fill-opacity="0.7" />
<circle cx="506.8901744407239" cy="306.09732857804806" r="11" fill="#2e7d32" fill-opacity="0.7" />
<circle cx="517.580883454536" cy="294.8227029556009" r="16" fill="#66bb6a" fill-opacity="0.7" />
<path d="M424,415 Q361.4223602484472,395 312.4858294261142,358.18069211334245" stroke="#5d4037" stroke-width="8" fill="none" stroke-linecap="round" stroke-opacity="1.0" />
<circle cx="343.77485073710557" cy="338.51930640549034" r="13" fill="#66bb6a" fill-opacity="0.7" />
<circle cx="310.3973667067164" cy="364.42650519591115" r="12" fill="#a5d6a7" fill-opacity="0.7" />
<circle cx="304.74425642944493" cy="367.3554246592104" r="16" fill="#66bb6a" fill-opacity="0.7" />
<circle cx="311.95359887245434" cy="339.3707485863295" r="9" fill="#a5d6a7" fill-opacity="0.7" />
<circle cx="303.95076812108067" cy="364.90782761126115" r="9" fill="#66bb6a" fill-opacity="0.7" />
<circle cx="291.382345644938" cy="346.31297950937756" r="8" fill="#66bb6a" fill-opacity="0.7" />
<circle cx="304.5775908259263" cy="370.35484930469534" r="14" fill="#66bb6a" fill-opacity="0.7" />
<circle cx="301.4174482234632" cy="344.37370934365293" r="15" fill="#43a047" fill-opacity="0.7" />
<circle cx="290.08104046556963" cy="340.67061061453927" r="9" fill="#43a047" fill-opacity="0.7" />
<circle cx="279.1560582994058" cy="361.43234360088377" r="14" fill="#66bb6a" fill-opacity="0.7" />
<path d="M424,400 Q480.52173913043475,380 517.7172908105699,336.78688917287207" stroke="#5d4037" stroke-width="8" fill="none" stroke-linecap="round" stroke-opacity="1.0" />
<circle cx="551.5761701643255" cy="326.8443041467345" r="11" fill="#2e7d32" fill-opacity="0.7" />
<circle cx="502.55426235948187" cy="342.19350994469204" r="12" fill="#43a047" fill-opacity="0.7" />
<circle cx="491.05269882649213" cy="356.03160098972273" r="9" fill="#2e7d32" fill-opacity="0.7" />
<circle cx="507.3036372643612" cy="324.1858681155687" r="9" fill="#66bb6a" fill-opacity="0.7" />
<circle cx="544.8839990390687" cy="330.9748397370647" r="8" fill="#66bb6a" fill-opacity="0.7" />
<circle cx="491.7622145652117" cy="326.2652657955348" r="11" fill="#66bb6a" fill-opacity="0.7" />
<circle cx="495.12624196065383" cy="369.80346725364865" r="11" fill="#66bb6a" fill-opacity="0.7" />
<circle cx="533.9124927750856" cy="312.1888906977891" r="13" fill="#66bb6a" fill-opacity="0.7" />
<circle cx="538.906217251069" cy="312.51587142976945" r="16" fill="#43a047" fill-opacity="0.7" />
<circle cx="526.7511552873681" cy="352.7968668489666" r="11" fill="#a5d6a7" fill-opacity="0.7" />
<circle cx="520.5322625297794" cy="343.02433170603945" r="5" fill="#ffeb3b" fill-opacity="1.0" />
<circle cx="520.5322625297794" cy="343.02433170603945" r="9" fill="#ffeb3b" fill-opacity="0.3" />
<path d="M424,385 Q367.944099378882,365 344.7249850905765,305.7249850905765" stroke="#5d4037" stroke-width="8" fill="none" stroke-linecap="round" stroke-opacity="1.0" />
<circle cx="335.5506484690576" cy="274.47077806784137" r="12" fill="#66bb6a" fill-opacity="0.7" />
<circle cx="335.1551534268136" cy="312.2234757865877" r="12" fill="#a5d6a7" fill-opacity="0.7" />
<circle cx="378.4993357553588" cy="289.5277578425471" r="11" fill="#a5d6a7" fill-opacity="0.7" />
<circle cx="351.2571443307597" cy="335.8952792708411" r="16" fill="#2e7d32" fill-opacity="0.7" />
<circle cx="345.11211077986053" cy="337.56617881854254" r="15" fill="#66bb6a" fill-opacity="0.7" />
<circle cx="323.2659022158387" cy="336.1376412713911" r="11" fill="#a5d6a7" fill-opacity="0.7" />
<circle cx="375.579006106227" cy="302.5200879788243" r="16" fill="#a5d6a7" fill-opacity="0.7" />
<circle cx="365.8533907402828" cy="304.9218882234687" r="12" fill="#66bb6a" fill-opacity="0.7" />
<circle cx="366.19796490939245" cy="299.0448638445068" r="12" fill="#a5d6a7" fill-opacity="0.7" />
<circle cx="373.0156771460888" cy="322.7621556618795" r="9" fill="#2e7d32" fill-opacity="0.7" />
<path d="M424,370 Q480.055900621118,350 478.3528797853813,271.9448092306454" stroke="#5d4037" stroke-width="8" fill="none" stroke-linecap="round" stroke-opacity="1.0" />
<circle cx="462.8063273397764" cy="249.47608886653938" r="10" fill="#66bb6a" fill-opacity="0.7" />
<circle cx="487.37117459548267" cy="259.0695646318556" r="15" fill="#66bb6a" fill-opacity="0.7" />
<circle cx="477.829963429028" cy="302.8797382320147" r="12" fill="#66bb6a" fill-opacity="0.7" />
<circle cx="499.9272431720563" cy="271.82855030549354" r="16" fill="#a5d6a7" fill-opacity="0.7" />
<circle cx="449.6806545006558" cy="266.19196863857405" r="14" fill="#2e7d32" fill-opacity="0.7" />
<circle cx="475.2677946671789" cy="239.95723612705382" r="8" fill="#a5d6a7" fill-opacity="0.7" />
<circle cx="479.32879097367527" cy="287.4230308857174" r="12" fill="#66bb6a" fill-opacity="0.7" />
<circle cx="496.2173875298974" cy="262.1029252210019" r="9" fill="#2e7d32" fill-opacity="0.7" />
<circle cx="473.5354189194656" cy="257.4350891773706" r="13" fill="#a5d6a7" fill-opacity="0.7" />
<circle cx="461.0371469708676" cy="275.47580432708185" r="14" fill="#43a047" fill-opacity="0.7" />
<path d="M424,355 Q368.4099378881988,335 355.5506806936069,267.38886652447" stroke="#5d4037" stroke-width="8" fill="none" stroke-linecap="round" stroke-opacity="1.0" />
<circle cx="360.02950417087214" cy="302.27286660305157" r="14" fill="#43a047" fill-opacity="0.7" />
<circle cx="322.5453794897072" cy="270.6535635627609" r="13" fill="#a5d6a7" fill-opacity="0.7" />
<circle cx="364.38525817422203" cy="252.05669716139028" r="13" fill="#a5d6a7" fill-opacity="0.7" />
<circle cx="365.14148920721436" cy="293.24136339066143" r="11" fill="#43a047" fill-opacity="0.7" />
<circle cx="352.16055507852394" cy="280.4807719719016" r="15" fill="#43a047" fill-opacity="0.7" />
<circle cx="349.88628671104755" cy="298.31160105081244" r="11" fill="#66bb6a" fill-opacity="0.7" />
<circle cx="373.2227946678861" cy="291.22845063245546" r="10" fill="#43a047" fill-opacity="0.7" />
<circle cx="365.9585638693942" cy="252.37018001970182" r="15" fill="#66bb6a" fill-opacity="0.7" />
<circle cx="352.6646482954748" cy="274.3947955797736" r="14" fill="#66bb6a" fill-opacity="0.7" />
<circle cx="377.92374444207684" cy="276.5486020720887" r="16" fill="#66bb6a" fill-opacity="0.7" />
<text x="400" y="580" font-family="Segoe UI, Helvetica, Arial, sans-serif" font-size="20" fill="#3e2723" text-anchor="middle" font-weight="bold">@prithwiraj84's Contribution Garden</text>
<text x="400" y="595" font-family="Segoe UI, Helvetica, Arial, sans-serif" font-size="14" fill="#5d4037" text-anchor="middle" font-weight="bold">Grown over 5 years</text></svg>