<svg xmlns="http://www.w3.org/2000/svg" width="800" height="600" viewBox="0 0 800 600">
        <defs>
            <linearGradient id="sky" x1="0%" y1="0%" x2="0%" y2="100%">
                <stop offset="0%" style="stop-color:#e0f7fa;stop-opacity:1" />
                <stop offset="100%" style="stop-color:#ffffff;stop-opacity:1" />
            </linearGradient>
            <filter id="glow" x="-20%" y="-20%" width="140%" height="140%">
                <feGaussianBlur stdDeviation="2" result="coloredBlur"/>
                <feMerge>
                    <feMergeNode in="coloredBlur"/>
                    <feMergeNode in="SourceGraphic"/>
                </feMerge>
            </filter>
        </defs>
        <rect width="100%" height="100%" fill="url(#sky)"/><path d="M0,550 Q400,530 800,550 L800,600 L0,600 Z" stroke="#4e342e" stroke-width="0" fill="#5d4037" stroke-linecap="round" stroke-opacity="1.0" />
<path d="M0,550 Q400,530 800,550" stroke="none" stroke-width="0" fill="#76ff03" stroke-linecap="round" stroke-opacity="0.1" />
<path d="M400,550 Q400.5,470.0 401,390" stroke="#4e342e" stroke-width="35" fill="none" stroke-linecap="round" stroke-opacity="1.0" />
<path d="M401,430 Q490.9635036496351,410 532.5902828095807,307.2900760909446" stroke="#5d4037" stroke-width="8" fill="none" stroke-linecap="round" stroke-opacity="1.0" />
<circle cx="544.7395760296168" cy="317.50708374407407" r="8" fill="#2e7d32" fill-opacity="0.7" />
<circle cx="538.5350316370926" cy="317.6013679362909" r="13" fill="#2e7d32" fill-opacity="0.7" />
<circle cx="499.3783231057346" cy="318.97438615896476" r="14" fill="#66bb6a" fill-opacity="0.7" />
<circle cx="516.2118034723267" cy="281.8803731428877" r="15" fill="#2e7d32" fill-opacity="0.7" />
<circle cx="510.8391164391833" cy="289.25200331850687" r="16" fill="#43a047" fill-opacity="0.7" />
<circle cx="519.0410776845561" cy="327.9068301201221" r="8" fill="#66bb6a" fill-opacity="0.7" />
<circle cx="553.4848341571114" cy="278.40994294208434" r="8" fill="#66bb6a" fill-opacity="0.7" />
<circle cx="556.9273562186003" cy="314.2258962966584" r="10" fill="#a5d6a7" fill-opacity="0.7" />
<circle cx="552.0938606562844" cy="279.6882283491575" r="10" fill="#a5d6a7" fill-opacity="0.7" />
<circle cx="525.1821246488042" cy="286.32332313136607" r="9" fill="#a5d6a7" fill-opacity="0.7" />
<circle cx="501.43125764237993" cy="325.48118219417415" r="11" fill="#43a047" fill-opacity="0.7" />
<circle cx="552.2619368118811" cy="275.2617960184725" r="15" fill="#66bb6a" fill-opacity="0.7" />
<circle cx="526.0470034943046" cy="305.79640796208713" r="14" fill="#43a047" fill-opacity="0.7" />
<circle cx="565.7568148279544" cy="290.5818764854851" r="12" fill="#a5d6a7" fill-opacity="0.7" />
<circle cx="564.8211550445726" cy="317.62030732056735" r="16" fill="#66bb6a" fill-opacity="0.7" />
<circle cx="546.0708761600471" cy="296.43049015590935" r="12" fill="#66bb6a" fill-opacity="0.7" />
<circle cx="565.8517844204861" cy="302.9006371311283" r="14" fill="#2e7d32" fill-opacity="0.7" />
<circle cx="520.5250841298187" cy="328.0765682244485" r="13" fill="#a5d6a7" fill-opacity="0.7" />
<circle cx="509.3815017238765" cy="277.00269255122737" r="15" fill="#43a047" fill-opacity="0.7" />
<circle cx="550.2222363927501" cy="337.3977086821359" r="10" fill="#43a047" fill-opacity="0.7" />
<circle cx="551.8878696681072" cy="279.7696095544882" r="13" fill="#2e7d32" fill-opacity="0.7" />
<circle cx="558.2967994874792" cy="323.6823666954308" r="12" fill="#43a047" fill-opacity="0.7" />
<circle cx="498.45638749081445" cy="339.2545988393712" r="12" fill="#a5d6a7" fill-opacity="0.7" />
<circle cx="527.3590671524299" cy="315.0979024793585" r="10" fill="#2e7d32" fill-opacity="0.7" />
<circle cx="537.8467761688607" cy="314.58451482823375" r="14" fill="#a5d6a7" fill-opacity="0.7" />
<circle cx="564.2828721903854" cy="301.439127343819" r="14" fill="#43a047" fill-opacity="0.7" />
<circle cx="505.887493005193" cy="301.59802262981754" r="10" fill="#43a047" fill-opacity="0.7" />
<circle cx="526.7457992094282" cy="289.37996244886983" r="11" fill="#a5d6a7" fill-opacity="0.7" />
<circle cx="534.9535263293129" cy="278.6526333557036" r="8" fill="#2e7d32" fill-opacity="0.7" />
<path d="M401,415 Q336.7664233576642,395 293.25837959241267,345.0317736039089" stroke="#5d4037" stroke-width="8" fill="none" stroke-linecap="round" stroke-opacity="1.0" />
<circle cx="265.4052272110479" cy="368.79342191696867" r="8" fill="#a5d6a7" fill-opacity="0.7" />
<circle cx="315.55919152836407" cy="328.05493344005043" r="12" fill="#43a047" fill-opacity="0.7" />
<circle cx="287.45571475021563" cy="376.40322427518777" r="15" fill="#66bb6a" fill-opacity="0.7" />
<circle cx="286.68707313293754" cy="369.6516872684569" r="15" fill="#66bb6a" fill-opacity="0.7" />
<circle cx="263.50221112608546" cy="360.9773378518161" r="9" fill="#a5d6a7" fill-opacity="0.7" />
<circle cx="282.15602246893565" cy="367.3904841606511" r="9" fill="#66bb6a" fill-opacity="0.7" />
<circle cx="311.1161930768154" cy="361.65783856052576" r="9" fill="#66bb6a" fill-opacity="0.7" />
<circle cx="270.8319790497897" cy="323.93835113090336" r="10" fill="#2e7d32" fill-opacity="0.7" />
<circle cx="273.4009923382221" cy="350.30404366049146" r="16" fill="#a5d6a7" fill-opacity="0.7" />
<circle cx="264.2772497128363" cy="379.2872628920948" r="11" fill="#a5d6a7" fill-opacity="0.7" />
<path d="M401,400 Q461.4014598540146,380 457.71353550442694,293.3373528334654" stroke="#5d4037" stroke-width="8" fill="none" stroke-linecap="round" stroke-opacity="1.0" />
<circle cx="454.6461044128414" cy="300.1728228779328" r="12" fill="#2e7d32" fill-opacity="0.7" />
<circle cx="443.49593910041784" cy="326.9579029634534" r="12" fill="#43a047" fill-opacity="0.7" />
<circle cx="461.38732501247034" cy="319.2040279056888" r="16" fill="#66bb6a" fill-opacity="0.7" />
<circle cx="478.36761096046325" cy="301.5345414634291" r="15" fill="#66bb6a" fill-opacity="0.7" />
<circle cx="430.1717134887093" cy="268.29434932547866" r="14" fill="#2e7d32" fill-opacity="0.7" />
<circle cx="423.9514401869118" cy="265.89535452300964" r="9" fill="#66bb6a" fill-opacity="0.7" />
<circle cx="467.6788053057172" cy="276.99116402298307" r="10" fill="#a5d6a7" fill-opacity="0.7" />
<circle cx="479.19648738092775" cy="298.6073653553197" r="8" fill="#43a047" fill-opacity="0.7" />
<circle cx="464.1274507136803" cy="268.27960661797306" r="14" fill="#66bb6a" fill-opacity="0.7" />
<circle cx="447.3241618511184" cy="269.50026621645594" r="16" fill="#2e7d32" fill-opacity="0.7" />
<path d="M401,385 Q346.34671532846716,365 318.5052849355036,313.28843825450474" stroke="#5d4037" stroke-width="8" fill="none" stroke-linecap="round" stroke-opacity="1.0" />
<circle cx="338.4339318659938" cy="292.93373917668345" r="11" fill="#66bb6a" fill-opacity="0.7" />
<circle cx="336.8782602976995" cy="297.31261533074303" r="12" fill="#a5d6a7" fill-opacity="0.7" />
<circle cx="321.9516007724622" cy="301.1677165342437" r="12" fill="#43a047" fill-opacity="0.7" />
<circle cx="346.46659450089277" cy="324.24277625761" r="16" fill="#a5d6a7" fill-opacity="0.7" />
<circle cx="298.98699772088327" cy="321.66280893699087" r="11" fill="#66bb6a" fill-opacity="0.7" />
<circle cx="332.646499538283" cy="289.6010697891025" r="8" fill="#a5d6a7" fill-opacity="0.7" />
<circle cx="292.3296801729914" cy="302.39304900718696" r="9" fill="#66bb6a" fill-opacity="0.7" />
<circle cx="320.311289630597" cy="337.0092065183618" r="8" fill="#a5d6a7" fill-opacity="0.7" />
<circle cx="322.4080038190517" cy="306.4546354641412" r="13" fill="#66bb6a" fill-opacity="0.7" />
<circle cx="332.2890386682511" cy="341.3718968341572" r="13" fill="#43a047" fill-opacity="0.7" />
<path d="M401,370 Q455.3795620437956,350 466.45287478077023,283.1411014620098" stroke="#5d4037" stroke-width="8" fill="none" stroke-linecap="round" stroke-opacity="1.0" />
<circle cx="474.71602623318824" cy="286.6246637152766" r="8" fill="#2e7d32" fill-opacity="0.7" />
<circle cx="465.0966722808793" cy="274.5453435908082" r="13" fill="#43a047" fill-opacity="0.7" />
<circle cx="435.38584305851896" cy="284.1912516920198" r="15" fill="#2e7d32" fill-opacity="0.7" />
<circle cx="459.6528261533181" cy="291.19698946917515" r="15" fill="#66bb6a" fill-opacity="0.7" />
<circle cx="486.38652010980667" cy="282.5472472180532" r="8" fill="#43a047" fill-opacity="0.7" />
<circle cx="446.2931935331158" cy="270.24032588786787" r="13" fill="#a5d6a7" fill-opacity="0.7" />
<circle cx="463.3831291315754" cy="262.29833750174566" r="14" fill="#43a047" fill-opacity="0.7" />
<circle cx="453.04692454474184" cy="260.4886318375821" r="11" fill="#2e7d32" fill-opacity="0.7" />
<circle cx="452.30885503312464" cy="250.28366561152168" r="8" fill="#66bb6a" fill-opacity="0.7" />
<circle cx="464.33688241250724" cy="304.4183915374713" r="8" fill="#66bb6a" fill-opacity="0.7" />
<path d="M401,355 Q349.6313868613139,335 312.9370090702027,302.0864167565035" stroke="#5d4037" stroke-width="8" fill="none" stroke-linecap="round" stroke-opacity="1.0" />
<circle cx="305.8411946462692" cy="292.89006778230754" r="11" fill="#2e7d32" fill-opacity="0.7" />
<circle cx="305.9762804053859" cy="310.5251686084202" r="12" fill="#66bb6a" fill-opacity="0.7" />
<circle cx="279.5756667026404" cy="284.3339215226809" r="14" fill="#66bb6a" fill-opacity="0.7" />
<circle cx="333.7145647371378" cy="331.75106365506866" r="15" fill="#2e7d32" fill-opacity="0.7" />
<circle cx="309.5950100649916" cy="301.52481859219785" r="11" fill="#2e7d32" fill-opacity="0.7" />
<circle cx="287.77398615293913" cy="286.42772245182374" r="15" fill="#2e7d32" fill-opacity="0.7" />
<circle cx="288.4882177598808" cy="268.38342813348004" r="9" fill="#2e7d32" fill-opacity="0.7" />
<circle cx="319.5974057909487" cy="291.5661537075304" r="15" fill="#66bb6a" fill-opacity="0.7" />
<circle cx="296.3854044227147" cy="268.75959453006203" r="16" fill="#66bb6a" fill-opacity="0.7" />
<circle cx="320.5963569369375" cy="305.6348671911131" r="10" fill="#a5d6a7" fill-opacity="0.7" />
<text x="400" y="580" font-family="Segoe UI, Helvetica, Arial, sans-serif" font-size="20" fill="#3e2723" text-anchor="middle" font-weight="bold">@prithwiraj84's Contribution Garden</text>
<text x="400" y="595" font-family="Segoe UI, Helvetica, Arial, sans-serif" font-size="14" fill="#5d4037" text-anchor="middle" font-weight="bold">Grown over 5 years</text></svg>