<svg xmlns="http://www.w3.org/2000/svg" width="800" height="600" viewBox="0 0 800 600">
        <defs>
            <linearGradient id="sky" x1="0%" y1="0%" x2="0%" y2="100%">
                <stop offset="0%" style="stop-color:#e0f7fa;stop-opacity:1" />
                <stop offset="100%" style="stop-color:#ffffff;stop-opacity:1" />
            </linearGradient>
            <filter id="glow" x="-20%" y="-20%" width="140%" height="140%">
                <feGaussianBlur stdDeviation="2" result="coloredBlur"/>
                <feMerge>
                    <feMergeNode in="coloredBlur"/>
                    <feMergeNode in="SourceGraphic"/>
                </feMerge>
            </filter>
        </defs>
        <rect width="100%" height="100%" fill="url(#sky)"/><path d="M0,550 Q400,530 800,550 L800,600 L0,600 Z" stroke="#4e342e" stroke-width="0" fill="#5d4037" stroke-linecap="round" stroke-opacity="1.0" />
<path d="M0,550 Q400,530 800,550" stroke="none" stroke-width="0" fill="#76ff03" stroke-linecap="round" stroke-opacity="0.1" />
<path d="M400,550 Q391.0,470.0 382,390" stroke="#4e342e" stroke-width="35" fill="none" stroke-linecap="round" stroke-opacity="1.0" />
<path d="M382,430 Q470.8081395348837,410 525.6945882450851,325.59977059572645" stroke="#5d4037" stroke-width="8" fill="none" stroke-linecap="round" stroke-opacity="1.0" />
<circle cx="529.7675398883591" cy="333.7632194247909" r="12" fill="#a5d6a7" fill-opacity="0.7" />
<circle cx="533.7080743610172" cy="339.7573287111169" r="10" fill="#2e7d32" fill-opacity="0.7" />
<circle cx="524.5314945753064" cy="314.0409613790621" r="14" fill="#66bb6a" fill-opacity="0.7" />
<circle cx="494.79561332555437" cy="309.92277664804004" r="15" fill="#43a047" fill-opacity="0.7" />
<circle cx="517.1024792207367" cy="303.3461570215662" r="16" fill="#43a047" fill-opacity="0.7" />
<circle cx="546.3605608063514" cy="294.01940276451876" r="14" fill="#a5d6a7" fill-opacity="0.7" />
<circle cx="515.0054075323796" cy="304.1049861550852" r="13" fill="#2e7d32" fill-opacity="0.7" />
<circle cx="519.4699234500646" cy="313.76536983097" r="8" fill="#66bb6a" fill-opacity="0.7" />
<circle cx="560.6357502856407" cy="300.4203501108833" r="14" fill="#66bb6a" fill-opacity="0.7" />
<circle cx="549.7185727925821" cy="328.76272546694474" r="15" fill="#a5d6a7" fill-opacity="0.7" />
<circle cx="542.3113202244891" cy="292.9551379230728" r="13" fill="#a5d6a7" fill-opacity="0.7" />
<circle cx="556.6015777758398" cy="349.48169775578396" r="14" fill="#43a047" fill-opacity="0.7" />
<circle cx="523.873217075542" cy="320.77262115139405" r="14" fill="#a5d6a7" fill-opacity="0.7" />
<circle cx="553.7648379418699" cy="325.1241060845018" r="15" fill="#66bb6a" fill-opacity="0.7" />
<circle cx="536.7118064262386" cy="321.7236421655282" r="8" fill="#a5d6a7" fill-opacity="0.7" />
<circle cx="499.0194234581507" cy="333.07979542730584" r="8" fill="#2e7d32" fill-opacity="0.7" />
<circle cx="535.762698168332" cy="314.0301415097587" r="8" fill="#2e7d32" fill-opacity="0.7" />
<path d="M382,415 Q318.4825581395349,395 277.93911530398566,342.13578410307935" stroke="#5d4037" stroke-width="8" fill="none" stroke-linecap="round" stroke-opacity="1.0" />
<circle cx="310.07613879323776" cy="364.6176971716521" r="8" fill="#43a047" fill-opacity="0.7" />
<circle cx="268.5563582237582" cy="319.97696840031296" r="14" fill="#43a047" fill-opacity="0.7" />
<circle cx="275.3617189839016" cy="343.55356193742597" r="9" fill="#a5d6a7" fill-opacity="0.7" />
<circle cx="252.52562607972294" cy="361.1961720977809" r="13" fill="#66bb6a" fill-opacity="0.7" />
<circle cx="301.7117151301486" cy="327.6825618833877" r="14" fill="#a5d6a7" fill-opacity="0.7" />
<circle cx="274.09580589252374" cy="368.3829563479656" r="15" fill="#2e7d32" fill-opacity="0.7" />
<circle cx="283.97035834978135" cy="324.0674140384138" r="15" fill="#2e7d32" fill-opacity="0.7" />
<circle cx="304.66192224553913" cy="335.6443610387689" r="15" fill="#2e7d32" fill-opacity="0.7" />
<circle cx="292.0259316225556" cy="332.3020670402222" r="11" fill="#a5d6a7" fill-opacity="0.7" />
<circle cx="310.71653870987393" cy="370.99682355921954" r="12" fill="#a5d6a7" fill-opacity="0.7" />
<path d="M382,400 Q438.1046511627907,380 472.77923250835164,334.04502692299576" stroke="#5d4037" stroke-width="8" fill="none" stroke-linecap="round" stroke-opacity="1.0" />
<circle cx="469.8871124219389" cy="324.2128898507303" r="14" fill="#66bb6a" fill-opacity="0.7" />
<circle cx="447.6170459900282" cy="303.9492680522514" r="9" fill="#66bb6a" fill-opacity="0.7" />
<circle cx="465.3025997710311" cy="341.0935662224406" r="13" fill="#66bb6a" fill-opacity="0.7" />
<circle cx="457.76090500841565" cy="358.3671656251792" r="8" fill="#43a047" fill-opacity="0.7" />
<circle cx="478.68700145422474" cy="348.6718570171413" r="10" fill="#a5d6a7" fill-opacity="0.7" />
<circle cx="446.77048008595216" cy="300.56472864472806" r="10" fill="#66bb6a" fill-opacity="0.7" />
<circle cx="449.2819957246898" cy="318.5966714310798" r="10" fill="#2e7d32" fill-opacity="0.7" />
<circle cx="500.46529649465225" cy="325.3611575937038" r="10" fill="#66bb6a" fill-opacity="0.7" />
<circle cx="440.9520327892084" cy="328.55953364236984" r="13" fill="#2e7d32" fill-opacity="0.7" />
<circle cx="462.6762832896229" cy="323.98254411141323" r="13" fill="#2e7d32" fill-opacity="0.7" />
<circle cx="461.47813446784033" cy="314.22115302806867" r="5" fill="#ffeb3b" fill-opacity="1.0" />
<circle cx="461.47813446784033" cy="314.22115302806867" r="9" fill="#ffeb3b" fill-opacity="0.3" />
<path d="M382,385 Q326.3313953488372,365 283.6950790508811,332.7303463526174" stroke="#5d4037" stroke-width="8" fill="none" stroke-linecap="round" stroke-opacity="1.0" />
<circle cx="280.78067048736466" cy="337.860962600514" r="9" fill="#a5d6a7" fill-opacity="0.7" />
<circle cx="257.1557965849723" cy="347.9534239467064" r="8" fill="#2e7d32" fill-opacity="0.7" />
<circle cx="286.0854483511115" cy="298.1337280001037" r="12" fill="#2e7d32" fill-opacity="0.7" />
<circle cx="267.0913531285803" cy="345.5282642439334" r="13" fill="#a5d6a7" fill-opacity="0.7" />
<circle cx="273.2094616972919" cy="314.9026091882713" r="10" fill="#66bb6a" fill-opacity="0.7" />
<circle cx="276.531708422273" cy="311.78156376760586" r="8" fill="#43a047" fill-opacity="0.7" />
<circle cx="261.7020124161182" cy="317.138959227588" r="11" fill="#43a047" fill-opacity="0.7" />
<circle cx="289.95715989662256" cy="330.66557389025377" r="15" fill="#a5d6a7" fill-opacity="0.7" />
<circle cx="289.6506244699055" cy="315.6223497321122" r="14" fill="#2e7d32" fill-opacity="0.7" />
<circle cx="290.33858292040895" cy="346.9188334303441" r="15" fill="#2e7d32" fill-opacity="0.7" />
<path d="M382,370 Q437.6686046511628,350 464.7396709761168,295.5008656292318" stroke="#5d4037" stroke-width="8" fill="none" stroke-linecap="round" stroke-opacity="1.0" />
<circle cx="449.34524422405616" cy="315.3656320211468" r="14" fill="#66bb6a" fill-opacity="0.7" />
<circle cx="474.06562654452443" cy="288.9166271979519" r="16" fill="#43a047" fill-opacity="0.7" />
<circle cx="455.8953441520715" cy="289.89623306309016" r="12" fill="#66bb6a" fill-opacity="0.7" />
<circle cx="432.200493521189" cy="273.09962586413616" r="14" fill="#43a047" fill-opacity="0.7" />
<circle cx="437.5767804190932" cy="325.5344524766367" r="11" fill="#a5d6a7" fill-opacity="0.7" />
<circle cx="474.34804857151335" cy="268.44495048942935" r="16" fill="#66bb6a" fill-opacity="0.7" />
<circle cx="439.46622114318063" cy="324.85765525685224" r="12" fill="#43a047" fill-opacity="0.7" />
<circle cx="467.0634195156182" cy="316.12094664397114" r="10" fill="#a5d6a7" fill-opacity="0.7" />
<circle cx="466.55552803410416" cy="271.48053450120426" r="9" fill="#2e7d32" fill-opacity="0.7" />
<circle cx="444.12903670532387" cy="290.8543182897863" r="15" fill="#a5d6a7" fill-opacity="0.7" />
<path d="M382,355 Q326.7674418604651,335 309.52836307663006,271.6309184637636" stroke="#5d4037" stroke-width="8" fill="none" stroke-linecap="round" stroke-opacity="1.0" />
<circle cx="282.35060957837084" cy="288.8410381776312" r="8" fill="#66bb6a" fill-opacity="0.7" />
<circle cx="322.8131987324646" cy="245.06078263277453" r="11" fill="#2e7d32" fill-opacity="0.7" />
<circle cx="291.294723799622" cy="300.271147661177" r="11" fill="#66bb6a" fill-opacity="0.7" />
<circle cx="338.95139894787775" cy="279.77396711847956" r="15" fill="#66bb6a" fill-opacity="0.7" />
<circle cx="276.42751318723276" cy="241.44668996639354" r="11" fill="#43a047" fill-opacity="0.7" />
<circle cx="276.3758957426391" cy="261.34574867053766" r="13" fill="#2e7d32" fill-opacity="0.7" />
<circle cx="332.64556758163513" cy="276.7448379467524" r="13" fill="#66bb6a" fill-opacity="0.7" />
<circle cx="294.3921764727232" cy="246.7153898010426" r="9" fill="#2e7d32" fill-opacity="0.7" />
<circle cx="324.4514395965036" cy="259.756385215566" r="12" fill="#66bb6a" fill-opacity="0.7" />
<circle cx="315.4648874664607" cy="262.8405384360524" r="11" fill="#a5d6a7" fill-opacity="0.7" />
<text x="400" y="580" font-family="Segoe UI, Helvetica, Arial, sans-serif" font-size="20" fill="#3e2723" text-anchor="middle" font-weight="bold">@prithwiraj84's Contribution Garden</text>
<text x="400" y="595" font-family="Segoe UI, Helvetica, Arial, sans-serif" font-size="14" fill="#5d4037" text-anchor="middle" font-weight="bold">Grown over 5 years</text></svg>