<svg xmlns="http://www.w3.org/2000/svg" width="800" height="600" viewBox="0 0 800 600">
        <defs>
            <linearGradient id="sky" x1="0%" y1="0%" x2="0%" y2="100%">
                <stop offset="0%" style="stop-color:#e0f7fa;stop-opacity:1" />
                <stop offset="100%" style="stop-color:#ffffff;stop-opacity:1" />
            </linearGradient>
            <filter id="glow" x="-20%" y="-20%" width="140%" height="140%">
                <feGaussianBlur stdDeviation="2" result="coloredBlur"/>
                <feMerge>
                    <feMergeNode in="coloredBlur"/>
                    <feMergeNode in="SourceGraphic"/>
                </feMerge>
            </filter>
        </defs>
        <rect width="100%" height="100%" fill="url(#sky)"/><path d="M0,550 Q400,530 800,550 L800,600 L0,600 Z" stroke="#4e342e" stroke-width="0" fill="#5d4037" stroke-linecap="round" stroke-opacity="1.0" />
<path d="M0,550 Q400,530 800,550" stroke="none" stroke-width="0" fill="#76ff03" stroke-linecap="round" stroke-opacity="0.1" />
<path d="M400,550 Q401.0,470.0 402,390" stroke="#4e342e" stroke-width="35" fill="none" stroke-linecap="round" stroke-opacity="1.0" />
<path d="M402,430 Q482.6818181818182,410 535.7765173895635,339.76659966722036" stroke="#5d4037" stroke-width="8" fill="none" stroke-linecap="round" stroke-opacity="1.0" />
<circle cx="538.0594740352357" cy="326.4023364700813" r="11" fill="#43a047" fill-opacity="0.7" />
<circle cx="510.7712912507378" cy="365.68421335347125" r="14" fill="#66bb6a" fill-opacity="0.7" />
<circle cx="533.8022118592053" cy="331.2581898556868" r="16" fill="#43a047" fill-opacity="0.7" />
<circle cx="517.4409005222271" cy="337.17600886222124" r="14" fill="#a5d6a7" fill-opacity="0.7" />
<circle cx="528.0220747175131" cy="344.7408637591126" r="8" fill="#66bb6a" fill-opacity="0.7" />
<circle cx="549.5383210243089" cy="369.2007327847159" r="15" fill="#66bb6a" fill-opacity="0.7" />
<circle cx="557.6142449351745" cy="364.2994292552673" r="11" fill="#2e7d32" fill-opacity="0.7" />
<circle cx="518.5228182487967" cy="354.27368629013864" r="16" fill="#a5d6a7" fill-opacity="0.7" />
<circle cx="525.5201570442316" cy="322.9606887409023" r="16" fill="#66bb6a" fill-opacity="0.7" />
<circle cx="540.249041602149" cy="358.193987032661" r="15" fill="#43a047" fill-opacity="0.7" />
<path d="M402,415 Q336.6590909090909,395 334.6938879378906,302.98381865824666" stroke="#5d4037" stroke-width="8" fill="none" stroke-linecap="round" stroke-opacity="1.0" />
<circle cx="363.8568621176016" cy="281.72541483861914" r="10" fill="#2e7d32" fill-opacity="0.7" />
<circle cx="315.3141987375383" cy="278.66449280474313" r="14" fill="#a5d6a7" fill-opacity="0.7" />
<circle cx="325.92477337557494" cy="337.1328846122439" r="8" fill="#a5d6a7" fill-opacity="0.7" />
<circle cx="311.4531864264741" cy="298.4718505988852" r="15" fill="#66bb6a" fill-opacity="0.7" />
<circle cx="353.22505761210965" cy="310.23269436284806" r="11" fill="#66bb6a" fill-opacity="0.7" />
<circle cx="335.65680223403837" cy="331.86123914522886" r="10" fill="#2e7d32" fill-opacity="0.7" />
<circle cx="360.4928403196833" cy="278.6313299833663" r="14" fill="#43a047" fill-opacity="0.7" />
<circle cx="322.34511461640835" cy="295.8462188503613" r="9" fill="#2e7d32" fill-opacity="0.7" />
<circle cx="340.8041012462158" cy="268.31607687326937" r="13" fill="#43a047" fill-opacity="0.7" />
<circle cx="349.77788892917164" cy="273.08210317376904" r="8" fill="#66bb6a" fill-opacity="0.7" />
<path d="M402,400 Q459.95454545454544,380 476.5049274863943,311.20848500211844" stroke="#5d4037" stroke-width="8" fill="none" stroke-linecap="round" stroke-opacity="1.0" />
<circle cx="467.83984054068765" cy="336.72242347686824" r="16" fill="#43a047" fill-opacity="0.7" />
<circle cx="473.3344699529511" cy="333.8914057234068" r="9" fill="#66bb6a" fill-opacity="0.7" />
<circle cx="492.13308042739465" cy="295.3315711237625" r="12" fill="#2e7d32" fill-opacity="0.7" />
<circle cx="490.5271147810949" cy="308.52721325586856" r="13" fill="#66bb6a" fill-opacity="0.7" />
<circle cx="450.01779884819007" cy="319.58032677394664" r="13" fill="#a5d6a7" fill-opacity="0.7" />
<circle cx="451.9408416820791" cy="318.1830534754231" r="14" fill="#66bb6a" fill-opacity="0.7" />
<circle cx="486.797336301299" cy="316.1945707175735" r="13" fill="#66bb6a" fill-opacity="0.7" />
<circle cx="488.0281344025528" cy="337.5626048364463" r="15" fill="#a5d6a7" fill-opacity="0.7" />
<circle cx="463.65755863624656" cy="331.3616730120061" r="12" fill="#a5d6a7" fill-opacity="0.7" />
<circle cx="471.7132505777262" cy="323.68610285161196" r="15" fill="#66bb6a" fill-opacity="0.7" />
<path d="M402,385 Q344.6136363636364,365 310.3384244150266,315.92804847913993" stroke="#5d4037" stroke-width="8" fill="none" stroke-linecap="round" stroke-opacity="1.0" />
<circle cx="297.1772823230207" cy="284.0509368450402" r="15" fill="#2e7d32" fill-opacity="0.7" />
<circle cx="328.5050136768704" cy="298.26042150976235" r="14" fill="#66bb6a" fill-opacity="0.7" />
<circle cx="277.26484509861973" cy="350.39727790265397" r="11" fill="#2e7d32" fill-opacity="0.7" />
<circle cx="333.075264823213" cy="291.75901643393473" r="12" fill="#43a047" fill-opacity="0.7" />
<circle cx="330.3626043986442" cy="307.9034852911359" r="9" fill="#2e7d32" fill-opacity="0.7" />
<circle cx="339.3869178252195" cy="315.4138415337595" r="15" fill="#a5d6a7" fill-opacity="0.7" />
<circle cx="345.16889768264105" cy="288.4269505606839" r="12" fill="#43a047" fill-opacity="0.7" />
<circle cx="286.2224839690944" cy="332.9954786334616" r="11" fill="#66bb6a" fill-opacity="0.7" />
<circle cx="312.4887281937247" cy="328.0491265135295" r="15" fill="#a5d6a7" fill-opacity="0.7" />
<circle cx="290.87783883160535" cy="348.80165698284395" r="14" fill="#43a047" fill-opacity="0.7" />
<path d="M402,370 Q459.3863636363636,350 481.72783570040764,287.4394092793139" stroke="#5d4037" stroke-width="8" fill="none" stroke-linecap="round" stroke-opacity="1.0" />
<circle cx="457.94047555551583" cy="321.45786971595294" r="12" fill="#a5d6a7" fill-opacity="0.7" />
<circle cx="469.09642046383897" cy="257.44242657992766" r="8" fill="#a5d6a7" fill-opacity="0.7" />
<circle cx="479.81289686832423" cy="308.3021659704916" r="13" fill="#a5d6a7" fill-opacity="0.7" />
<circle cx="477.7604118100509" cy="308.17512206158506" r="9" fill="#43a047" fill-opacity="0.7" />
<circle cx="494.67577713773943" cy="297.09312053069567" r="15" fill="#2e7d32" fill-opacity="0.7" />
<circle cx="503.1676394792224" cy="269.1035737288013" r="15" fill="#2e7d32" fill-opacity="0.7" />
<circle cx="474.96629961880285" cy="295.6660361335525" r="11" fill="#43a047" fill-opacity="0.7" />
<circle cx="501.0589894698225" cy="295.2543927741466" r="10" fill="#2e7d32" fill-opacity="0.7" />
<circle cx="512.7730463665742" cy="271.40984158950835" r="10" fill="#2e7d32" fill-opacity="0.7" />
<circle cx="473.86178506348307" cy="282.01881796901944" r="8" fill="#66bb6a" fill-opacity="0.7" />
<path d="M402,355 Q345.75,335 335.8741591170968,263.9855881328184" stroke="#5d4037" stroke-width="8" fill="none" stroke-linecap="round" stroke-opacity="1.0" />
<circle cx="322.2706695070486" cy="269.4301356613237" r="10" fill="#a5d6a7" fill-opacity="0.7" />
<circle cx="315.7779216374515" cy="260.45740926490134" r="15" fill="#a5d6a7" fill-opacity="0.7" />
<circle cx="317.6409301890013" cy="246.89723207358358" r="16" fill="#43a047" fill-opacity="0.7" />
<circle cx="327.5002654158834" cy="232.12315989999047" r="13" fill="#a5d6a7" fill-opacity="0.7" />
<circle cx="369.18261912560627" cy="264.0467279632262" r="9" fill="#43a047" fill-opacity="0.7" />
<circle cx="338.95925970651433" cy="281.3105809522196" r="8" fill="#43a047" fill-opacity="0.7" />
<circle cx="313.15891678778337" cy="273.96803589844615" r="12" fill="#a5d6a7" fill-opacity="0.7" />
<circle cx="352.15273183406697" cy="290.7970788794299" r="16" fill="#43a047" fill-opacity="0.7" />
<circle cx="318.1341028329045" cy="285.2941158489617" r="14" fill="#2e7d32" fill-opacity="0.7" />
<circle cx="305.1011357540384" cy="267.73427206630674" r="14" fill="#43a047" fill-opacity="0.7" />
<text x="400" y="580" font-family="Segoe UI, Helvetica, Arial, sans-serif" font-size="20" fill="#3e2723" text-anchor="middle" font-weight="bold">@prithwiraj84's Contribution Garden</text>
<text x="400" y="595" font-family="Segoe UI, Helvetica, Arial, sans-serif" font-size="14" fill="#5d4037" text-anchor="middle" font-weight="bold">Grown over 5 years</text></svg>