<svg xmlns="http://www.w3.org/2000/svg" width="800" height="600" viewBox="0 0 800 600">
        <defs>
            <linearGradient id="sky" x1="0%" y1="0%" x2="0%" y2="100%">
                <stop offset="0%" style="stop-color:#e0f7fa;stop-opacity:1" />
                <stop offset="100%" style="stop-color:#ffffff;stop-opacity:1" />
            </linearGradient>
            <filter id="glow" x="-20%" y="-20%" width="140%" height="140%">
                <feGaussianBlur stdDeviation="2" result="coloredBlur"/>
                <feMerge>
                    <feMergeNode in="coloredBlur"/>
                    <feMergeNode in="SourceGraphic"/>
                </feMerge>
            </filter>
        </defs>
        <rect width="100%" height="100%" fill="url(#sky)"/><path d="M0,550 Q400,530 800,550 L800,600 L0,600 Z" stroke="#4e342e" stroke-width="0" fill="#5d4037" stroke-linecap="round" stroke-opacity="1.0" />
<path d="M0,550 Q400,530 800,550" stroke="none" stroke-width="0" fill="#76ff03" stroke-linecap="round" stroke-opacity="0.1" />
<path d="M400,550 Q398.0,470.0 396,390" stroke="#4e342e" stroke-width="35" fill="none" stroke-linecap="round" stroke-opacity="1.0" />
<path d="M396,430 Q500.1304347826087,410 518.4126677600411,261.51341725843486" stroke="#5d4037" stroke-width="8" fill="none" stroke-linecap="round" stroke-opacity="1.0" />
<circle cx="485.11338506378416" cy="234.1506311119444" r="9" fill="#a5d6a7" fill-opacity="0.7" />
<circle cx="492.8021592565756" cy="292.91040840279436" r="12" fill="#43a047" fill-opacity="0.7" />
<circle cx="486.3232201108337" cy="265.03966830767246" r="9" fill="#a5d6a7" fill-opacity="0.7" />
<circle cx="509.32259609888314" cy="244.18795895000156" r="13" fill="#a5d6a7" fill-opacity="0.7" />
<circle cx="508.711107691468" cy="286.4869342029582" r="13" fill="#66bb6a" fill-opacity="0.7" />
<circle cx="512.5462674097924" cy="232.27727328989846" r="11" fill="#2e7d32" fill-opacity="0.7" />
<circle cx="550.4230243900654" cy="281.47159525265107" r="8" fill="#a5d6a7" fill-opacity="0.7" />
<circle cx="551.1554169017505" cy="242.43695860414513" r="8" fill="#43a047" fill-opacity="0.7" />
<circle cx="495.04665385845743" cy="244.32929644193536" r="16" fill="#2e7d32" fill-opacity="0.7" />
<circle cx="538.5837183377093" cy="244.97180267939237" r="15" fill="#2e7d32" fill-opacity="0.7" />
<circle cx="512.0242481909684" cy="257.7279889124168" r="16" fill="#66bb6a" fill-opacity="0.7" />
<circle cx="532.272786640335" cy="272.9999157702448" r="11" fill="#2e7d32" fill-opacity="0.7" />
<circle cx="504.29540482987585" cy="269.0667109550435" r="14" fill="#2e7d32" fill-opacity="0.7" />
<circle cx="494.87719805323235" cy="231.7634960882959" r="15" fill="#43a047" fill-opacity="0.7" />
<circle cx="501.25376795101687" cy="257.67666434880243" r="10" fill="#a5d6a7" fill-opacity="0.7" />
<circle cx="546.2476964585732" cy="243.42696263304063" r="14" fill="#66bb6a" fill-opacity="0.7" />
<circle cx="535.923559564546" cy="226.59841252084294" r="16" fill="#43a047" fill-opacity="0.7" />
<circle cx="504.9770580373965" cy="258.3582329808352" r="15" fill="#2e7d32" fill-opacity="0.7" />
<circle cx="510.0497737370253" cy="255.54027311384397" r="12" fill="#a5d6a7" fill-opacity="0.7" />
<circle cx="539.3227357980037" cy="252.59387595072047" r="10" fill="#2e7d32" fill-opacity="0.7" />
<circle cx="553.1751907572492" cy="278.5541778630985" r="16" fill="#2e7d32" fill-opacity="0.7" />
<circle cx="511.34489055133685" cy="276.7705643960015" r="9" fill="#43a047" fill-opacity="0.7" />
<circle cx="511.66868989980003" cy="240.08593510788472" r="15" fill="#2e7d32" fill-opacity="0.7" />
<circle cx="542.8558533614914" cy="246.12272892968096" r="8" fill="#43a047" fill-opacity="0.7" />
<circle cx="529.4878977996044" cy="239.28977069159686" r="10" fill="#a5d6a7" fill-opacity="0.7" />
<circle cx="516.8594331124297" cy="257.72165617928135" r="16" fill="#a5d6a7" fill-opacity="0.7" />
<circle cx="487.6374575783709" cy="275.0339777474097" r="15" fill="#2e7d32" fill-opacity="0.7" />
<circle cx="545.9914179764305" cy="284.2616954828732" r="13" fill="#a5d6a7" fill-opacity="0.7" />
<circle cx="543.9739699948152" cy="244.13875825702462" r="10" fill="#2e7d32" fill-opacity="0.7" />
<circle cx="550.7310015403474" cy="265.6990288761146" r="10" fill="#43a047" fill-opacity="0.7" />
<circle cx="500.40053122829113" cy="270.47866079596446" r="12" fill="#2e7d32" fill-opacity="0.7" />
<circle cx="512.7321654105795" cy="287.3364001875996" r="12" fill="#66bb6a" fill-opacity="0.7" />
<circle cx="522.3836281254758" cy="290.4579584122884" r="12" fill="#a5d6a7" fill-opacity="0.7" />
<circle cx="496.29953962708527" cy="293.00461202832486" r="12" fill="#2e7d32" fill-opacity="0.7" />
<circle cx="494.31146210933736" cy="227.18615566177678" r="13" fill="#43a047" fill-opacity="0.7" />
<circle cx="494.395486743171" cy="238.1132943749892" r="13" fill="#a5d6a7" fill-opacity="0.7" />
<circle cx="543.3562766579192" cy="244.52864592758382" r="13" fill="#43a047" fill-opacity="0.7" />
<circle cx="531.5071892935108" cy="293.7452687089211" r="8" fill="#a5d6a7" fill-opacity="0.7" />
<circle cx="543.9575872731311" cy="263.21501016418927" r="8" fill="#43a047" fill-opacity="0.7" />
<circle cx="492.9208461257414" cy="242.83271803454826" r="13" fill="#a5d6a7" fill-opacity="0.7" />
<circle cx="508.7923586557913" cy="273.9813218745927" r="5" fill="#ffeb3b" fill-opacity="1.0" />
<circle cx="508.7923586557913" cy="273.9813218745927" r="9" fill="#ffeb3b" fill-opacity="0.3" />
<path d="M396,415 Q334.69565217391306,395 342.2518854806435,304.80003432331955" stroke="#5d4037" stroke-width="8" fill="none" stroke-linecap="round" stroke-opacity="1.0" />
<circle cx="318.360023111465" cy="326.3808808350763" r="8" fill="#43a047" fill-opacity="0.7" />
<circle cx="346.07320383374486" cy="279.1437119145016" r="16" fill="#66bb6a" fill-opacity="0.7" />
<circle cx="344.7472988995023" cy="288.60099418395475" r="13" fill="#a5d6a7" fill-opacity="0.7" />
<circle cx="330.9922858478052" cy="294.4204828848191" r="15" fill="#43a047" fill-opacity="0.7" />
<circle cx="349.04114790874763" cy="286.1644693920204" r="10" fill="#66bb6a" fill-opacity="0.7" />
<circle cx="307.69145637725137" cy="296.1250160065887" r="14" fill="#2e7d32" fill-opacity="0.7" />
<circle cx="368.5490238478941" cy="304.1055408737881" r="14" fill="#66bb6a" fill-opacity="0.7" />
<circle cx="328.39213683492324" cy="322.4410740643188" r="14" fill="#2e7d32" fill-opacity="0.7" />
<circle cx="327.51065940530214" cy="277.2819616696003" r="14" fill="#43a047" fill-opacity="0.7" />
<circle cx="326.2038893274203" cy="322.6034946405423" r="15" fill="#43a047" fill-opacity="0.7" />
<circle cx="341.1802087456583" cy="290.94587693077807" r="5" fill="#ffeb3b" fill-opacity="1.0" />
<circle cx="341.1802087456583" cy="290.94587693077807" r="9" fill="#ffeb3b" fill-opacity="0.3" />
<path d="M396,400 Q449.69565217391306,380 487.07299119592926,343.09127901495583" stroke="#5d4037" stroke-width="8" fill="none" stroke-linecap="round" stroke-opacity="1.0" />
<circle cx="512.205339292302" cy="347.6780134845336" r="10" fill="#2e7d32" fill-opacity="0.7" />
<circle cx="517.8982361394781" cy="364.89409450050175" r="13" fill="#66bb6a" fill-opacity="0.7" />
<circle cx="497.0504115828343" cy="354.58028521103984" r="11" fill="#a5d6a7" fill-opacity="0.7" />
<circle cx="476.2481392659729" cy="369.40216157981223" r="9" fill="#43a047" fill-opacity="0.7" />
<circle cx="516.9473017871765" cy="321.9327617292669" r="10" fill="#43a047" fill-opacity="0.7" />
<circle cx="504.8136100308929" cy="322.15104814244705" r="14" fill="#2e7d32" fill-opacity="0.7" />
<circle cx="511.5644471210073" cy="332.80091540755797" r="8" fill="#a5d6a7" fill-opacity="0.7" />
<circle cx="501.31026205806324" cy="322.78902039470137" r="15" fill="#66bb6a" fill-opacity="0.7" />
<circle cx="473.7021457501897" cy="356.6652511641787" r="15" fill="#a5d6a7" fill-opacity="0.7" />
<circle cx="491.4750462262393" cy="356.8646254911571" r="12" fill="#a5d6a7" fill-opacity="0.7" />
<circle cx="496.6792637742253" cy="330.17603553570376" r="5" fill="#ffeb3b" fill-opacity="1.0" />
<circle cx="496.6792637742253" cy="330.17603553570376" r="9" fill="#ffeb3b" fill-opacity="0.3" />
<path d="M396,385 Q342.30434782608694,365 340.68938934661594,292.9476855332949" stroke="#5d4037" stroke-width="8" fill="none" stroke-linecap="round" stroke-opacity="1.0" />
<circle cx="360.0057326805038" cy="288.9943353211737" r="11" fill="#66bb6a" fill-opacity="0.7" />
<circle cx="353.88678295917964" cy="274.5955968888839" r="8" fill="#2e7d32" fill-opacity="0.7" />
<circle cx="321.753255727561" cy="302.6382520594236" r="9" fill="#66bb6a" fill-opacity="0.7" />
<circle cx="368.7359874185314" cy="316.3758366040572" r="9" fill="#66bb6a" fill-opacity="0.7" />
<circle cx="329.7013890978544" cy="293.25936528613425" r="11" fill="#66bb6a" fill-opacity="0.7" />
<circle cx="341.79813771695683" cy="258.3597686025783" r="14" fill="#2e7d32" fill-opacity="0.7" />
<circle cx="339.3079479895149" cy="307.969281971043" r="12" fill="#43a047" fill-opacity="0.7" />
<circle cx="357.0960867238996" cy="260.88618247887" r="16" fill="#2e7d32" fill-opacity="0.7" />
<circle cx="372.5150431690806" cy="323.74164668824244" r="12" fill="#43a047" fill-opacity="0.7" />
<circle cx="316.77886069379537" cy="297.0460628499128" r="16" fill="#2e7d32" fill-opacity="0.7" />
<circle cx="322.8590931777479" cy="312.22696784745943" r="5" fill="#ffeb3b" fill-opacity="1.0" />
<circle cx="322.8590931777479" cy="312.22696784745943" r="9" fill="#ffeb3b" fill-opacity="0.3" />
<circle cx="350.87835022972837" cy="310.53787365050005" r="5" fill="#ffeb3b" fill-opacity="1.0" />
<circle cx="350.87835022972837" cy="310.53787365050005" r="9" fill="#ffeb3b" fill-opacity="0.3" />
<path d="M396,370 Q447.52173913043475,350 467.58001469512277,295.87672492162596" stroke="#5d4037" stroke-width="8" fill="none" stroke-linecap="round" stroke-opacity="1.0" />
<circle cx="455.3392496230415" cy="300.1176543656276" r="14" fill="#43a047" fill-opacity="0.7" />
<circle cx="446.52968988720727" cy="286.3555912088766" r="12" fill="#2e7d32" fill-opacity="0.7" />
<circle cx="446.7398232174167" cy="269.73691387680407" r="9" fill="#2e7d32" fill-opacity="0.7" />
<circle cx="498.310464040041" cy="272.36330856633185" r="9" fill="#43a047" fill-opacity="0.7" />
<circle cx="476.93341576551757" cy="330.6377148259546" r="15" fill="#2e7d32" fill-opacity="0.7" />
<circle cx="497.06145605660674" cy="282.0344928418956" r="13" fill="#a5d6a7" fill-opacity="0.7" />
<circle cx="475.28096978038815" cy="322.0190873631075" r="15" fill="#43a047" fill-opacity="0.7" />
<circle cx="483.50894869374457" cy="283.3158418479264" r="14" fill="#66bb6a" fill-opacity="0.7" />
<circle cx="458.06361738503676" cy="263.0662630743096" r="8" fill="#2e7d32" fill-opacity="0.7" />
<circle cx="464.88152246633564" cy="320.68576989140485" r="11" fill="#a5d6a7" fill-opacity="0.7" />
<path d="M396,355 Q345.3478260869565,335 312.0148893889893,298.35132760492" stroke="#5d4037" stroke-width="8" fill="none" stroke-linecap="round" stroke-opacity="1.0" />
<circle cx="332.94262218621554" cy="275.5370646838517" r="9" fill="#66bb6a" fill-opacity="0.7" />
<circle cx="332.7969092596905" cy="266.20021909699796" r="16" fill="#66bb6a" fill-opacity="0.7" />
<circle cx="312.90366362107085" cy="292.3011744605937" r="8" fill="#a5d6a7" fill-opacity="0.7" />
<circle cx="315.4041145129306" cy="265.29705023279155" r="11" fill="#43a047" fill-opacity="0.7" />
<circle cx="306.40174474693356" cy="265.3645877519465" r="14" fill="#43a047" fill-opacity="0.7" />
<circle cx="280.62910095678706" cy="274.06650187354774" r="11" fill="#66bb6a" fill-opacity="0.7" />
<circle cx="339.8557257800136" cy="330.1625168509814" r="12" fill="#66bb6a" fill-opacity="0.7" />
<circle cx="291.0424044487474" cy="270.36833090497265" r="11" fill="#66bb6a" fill-opacity="0.7" />
<circle cx="320.4605043945333" cy="273.0815875979774" r="16" fill="#a5d6a7" fill-opacity="0.7" />
<circle cx="288.22597061115334" cy="280.26526851686623" r="12" fill="#2e7d32" fill-opacity="0.7" />
<circle cx="302.4103134079574" cy="282.867809567462" r="5" fill="#ffeb3b" fill-opacity="1.0" />
<circle cx="302.4103134079574" cy="282.867809567462" r="9" fill="#ffeb3b" fill-opacity="0.3" />
<text x="400" y="580" font-family="Segoe UI, Helvetica, Arial, sans-serif" font-size="20" fill="#3e2723" text-anchor="middle" font-weight="bold">@prithwiraj84's Contribution Garden</text>
<text x="400" y="595" font-family="Segoe UI, Helvetica, Arial, sans-serif" font-size="14" fill="#5d4037" text-anchor="middle" font-weight="bold">Grown over 5 years</text></svg>