<svg xmlns="http://www.w3.org/2000/svg" width="800" height="600" viewBox="0 0 800 600">
        <defs>
            <linearGradient id="sky" x1="0%" y1="0%" x2="0%" y2="100%">
                <stop offset="0%" style="stop-color:#e0f7fa;stop-opacity:1" />
                <stop offset="100%" style="stop-color:#ffffff;stop-opacity:1" />
            </linearGradient>
            <filter id="glow" x="-20%" y="-20%" width="140%" height="140%">
                <feGaussianBlur stdDeviation="2" result="coloredBlur"/>
                <feMerge>
                    <feMergeNode in="coloredBlur"/>
                    <feMergeNode in="SourceGraphic"/>
                </feMerge>
            </filter>
        </defs>
        <rect width="100%" height="100%" fill="url(#sky)"/><path d="M0,550 Q400,530 800,550 L800,600 L0,600 Z" stroke="#4e342e" stroke-width="0" fill="#5d4037" stroke-linecap="round" stroke-opacity="1.0" />
<path d="M0,550 Q400,530 800,550" stroke="none" stroke-width="0" fill="#76ff03" stroke-linecap="round" stroke-opacity="0.1" />
<path d="M400,550 Q412.0,470.0 424,390" stroke="#4e342e" stroke-width="35" fill="none" stroke-linecap="round" stroke-opacity="1.0" />
<path d="M424,430 Q512.4259259259259,410 522.8943005212154,283.38317003887687" stroke="#5d4037" stroke-width="8" fill="none" stroke-linecap="round" stroke-opacity="1.0" />
<circle cx="522.868982974441" cy="259.34709632496936" r="8" fill="#43a047" fill-opacity="0.7" />
<circle cx="538.1224681971407" cy="293.43663534451116" r="10" fill="#a5d6a7" fill-opacity="0.7" />
<circle cx="505.6075793814647" cy="317.1211704262128" r="16" fill="#66bb6a" fill-opacity="0.7" />
<circle cx="538.9606047721061" cy="259.85964606112634" r="13" fill="#2e7d32" fill-opacity="0.7" />
<circle cx="498.6414243098908" cy="299.5887146810069" r="13" fill="#43a047" fill-opacity="0.7" />
<circle cx="507.0851855390336" cy="275.1762777291839" r="16" fill="#43a047" fill-opacity="0.7" />
<circle cx="498.4620657648088" cy="290.00783267030636" r="10" fill="#66bb6a" fill-opacity="0.7" />
<circle cx="528.1894046531369" cy="271.60609024171606" r="9" fill="#2e7d32" fill-opacity="0.7" />
<circle cx="527.4376970286683" cy="262.7817074696703" r="15" fill="#43a047" fill-opacity="0.7" />
<circle cx="537.4112353222682" cy="255.86986103135317" r="10" fill="#43a047" fill-opacity="0.7" />
<circle cx="498.4265194023688" cy="278.7956113831864" r="15" fill="#a5d6a7" fill-opacity="0.7" />
<circle cx="533.8431760347745" cy="292.1504696613442" r="11" fill="#a5d6a7" fill-opacity="0.7" />
<circle cx="552.8282201846162" cy="269.16854100627387" r="8" fill="#2e7d32" fill-opacity="0.7" />
<circle cx="516.0848887507893" cy="281.25524008121295" r="13" fill="#43a047" fill-opacity="0.7" />
<circle cx="535.0952803040634" cy="251.70265563665276" r="13" fill="#66bb6a" fill-opacity="0.7" />
<circle cx="547.14325863565" cy="300.376253279026" r="9" fill="#43a047" fill-opacity="0.7" />
<path d="M424,415 Q361.5,395 317.9939879804468,348.7600919708494" stroke="#5d4037" stroke-width="8" fill="none" stroke-linecap="round" stroke-opacity="1.0" />
<circle cx="292.57337075661377" cy="345.72540924973515" r="12" fill="#2e7d32" fill-opacity="0.7" />
<circle cx="333.7097469697218" cy="370.5695324646871" r="8" fill="#43a047" fill-opacity="0.7" />
<circle cx="340.1356782394282" cy="343.4394115561309" r="12" fill="#66bb6a" fill-opacity="0.7" />
<circle cx="330.6667921056261" cy="383.1602808155587" r="10" fill="#2e7d32" fill-opacity="0.7" />
<circle cx="325.4837228039542" cy="358.6825994629221" r="10" fill="#43a047" fill-opacity="0.7" />
<circle cx="295.51218625783633" cy="380.8219622223796" r="15" fill="#66bb6a" fill-opacity="0.7" />
<circle cx="302.74734764446004" cy="314.82754209444687" r="11" fill="#66bb6a" fill-opacity="0.7" />
<circle cx="306.6792019887548" cy="374.6048833736437" r="10" fill="#43a047" fill-opacity="0.7" />
<circle cx="314.44984747757223" cy="340.40827687177995" r="8" fill="#a5d6a7" fill-opacity="0.7" />
<circle cx="321.7086968899541" cy="318.02522448585" r="8" fill="#2e7d32" fill-opacity="0.7" />
<path d="M424,400 Q480.48148148148147,380 517.6505406034399,336.8319127560823" stroke="#5d4037" stroke-width="8" fill="none" stroke-linecap="round" stroke-opacity="1.0" />
<circle cx="508.49486877350705" cy="313.15347642771746" r="16" fill="#66bb6a" fill-opacity="0.7" />
<circle cx="525.0812403755466" cy="351.0914227295344" r="9" fill="#66bb6a" fill-opacity="0.7" />
<circle cx="531.0794388947605" cy="366.96732901614774" r="9" fill="#a5d6a7" fill-opacity="0.7" />
<circle cx="513.5335045572399" cy="365.2255923560503" r="9" fill="#43a047" fill-opacity="0.7" />
<circle cx="537.5300830676719" cy="366.81646809549426" r="15" fill="#2e7d32" fill-opacity="0.7" />
<circle cx="495.1878065768433" cy="342.72635137725626" r="15" fill="#a5d6a7" fill-opacity="0.7" />
<circle cx="541.1565746238384" cy="337.06332604516024" r="10" fill="#a5d6a7" fill-opacity="0.7" />
<circle cx="517.7843633915005" cy="358.0363832834112" r="13" fill="#a5d6a7" fill-opacity="0.7" />
<circle cx="512.5026862419159" cy="360.4783949852299" r="11" fill="#2e7d32" fill-opacity="0.7" />
<circle cx="526.9251403457918" cy="336.7747459881049" r="9" fill="#a5d6a7" fill-opacity="0.7" />
<circle cx="498.1756776348343" cy="356.06789045749116" r="5" fill="#ffeb3b" fill-opacity="1.0" />
<circle cx="498.1756776348343" cy="356.06789045749116" r="9" fill="#ffeb3b" fill-opacity="0.3" />
<path d="M424,385 Q367.98148148148147,365 351.98398076660067,299.17465035426267" stroke="#5d4037" stroke-width="8" fill="none" stroke-linecap="round" stroke-opacity="1.0" />
<circle cx="338.39425597237846" cy="329.00505664098563" r="8" fill="#a5d6a7" fill-opacity="0.7" />
<circle cx="339.4653463215881" cy="300.90868950403313" r="8" fill="#a5d6a7" fill-opacity="0.7" />
<circle cx="369.95362474003036" cy="331.19821235411143" r="15" fill="#43a047" fill-opacity="0.7" />
<circle cx="361.5430761898108" cy="312.61750670008706" r="11" fill="#43a047" fill-opacity="0.7" />
<circle cx="329.54688648377254" cy="288.37369862484763" r="15" fill="#a5d6a7" fill-opacity="0.7" />
<circle cx="329.93312042485144" cy="293.84487883268946" r="9" fill="#43a047" fill-opacity="0.7" />
<circle cx="350.8948449836493" cy="310.78217426079505" r="13" fill="#2e7d32" fill-opacity="0.7" />
<circle cx="383.2840149929764" cy="288.7168626791075" r="12" fill="#a5d6a7" fill-opacity="0.7" />
<circle cx="320.3978965618062" cy="269.95307554820306" r="10" fill="#a5d6a7" fill-opacity="0.7" />
<circle cx="355.71449237212715" cy="277.4333765824688" r="14" fill="#2e7d32" fill-opacity="0.7" />
<path d="M424,370 Q480.01851851851853,350 471.34889784317096,268.4599608968198" stroke="#5d4037" stroke-width="8" fill="none" stroke-linecap="round" stroke-opacity="1.0" />
<circle cx="457.81025262714644" cy="283.09120261042375" r="14" fill="#66bb6a" fill-opacity="0.7" />
<circle cx="459.3639827308811" cy="299.28407407267343" r="13" fill="#66bb6a" fill-opacity="0.7" />
<circle cx="497.43287698415094" cy="256.00837549883715" r="9" fill="#a5d6a7" fill-opacity="0.7" />
<circle cx="492.0045203617509" cy="300.4889855783092" r="16" fill="#a5d6a7" fill-opacity="0.7" />
<circle cx="497.3577555215439" cy="274.4781893677042" r="13" fill="#66bb6a" fill-opacity="0.7" />
<circle cx="450.735586853445" cy="253.59765014060818" r="10" fill="#a5d6a7" fill-opacity="0.7" />
<circle cx="439.01659705352495" cy="289.2346978267671" r="13" fill="#43a047" fill-opacity="0.7" />
<circle cx="497.26282935354396" cy="288.546276983555" r="11" fill="#2e7d32" fill-opacity="0.7" />
<circle cx="486.63703939935925" cy="234.98148686763062" r="9" fill="#a5d6a7" fill-opacity="0.7" />
<circle cx="480.5609544199623" cy="300.8735507561417" r="16" fill="#a5d6a7" fill-opacity="0.7" />
<path d="M424,355 Q368.44444444444446,335 335.2627211058564,288.1316640942169" stroke="#5d4037" stroke-width="8" fill="none" stroke-linecap="round" stroke-opacity="1.0" />
<circle cx="361.19198056569957" cy="308.63533311329894" r="14" fill="#2e7d32" fill-opacity="0.7" />
<circle cx="367.27509039335143" cy="282.7740638575405" r="11" fill="#66bb6a" fill-opacity="0.7" />
<circle cx="334.40019311788495" cy="286.36991448591976" r="13" fill="#a5d6a7" fill-opacity="0.7" />
<circle cx="362.6541478264162" cy="271.38355736087163" r="15" fill="#66bb6a" fill-opacity="0.7" />
<circle cx="334.21987759417425" cy="283.2948008098853" r="13" fill="#2e7d32" fill-opacity="0.7" />
<circle cx="305.42995365754973" cy="315.9177692917932" r="16" fill="#a5d6a7" fill-opacity="0.7" />
<circle cx="338.71607255675923" cy="255.57952736005473" r="10" fill="#66bb6a" fill-opacity="0.7" />
<circle cx="331.37239936523724" cy="279.8635624308342" r="9" fill="#66bb6a" fill-opacity="0.7" />
<circle cx="317.6809694940034" cy="288.8339496757419" r="9" fill="#a5d6a7" fill-opacity="0.7" />
<circle cx="342.6971039760531" cy="273.8965740641836" r="16" fill="#a5d6a7" fill-opacity="0.7" />
<text x="400" y="580" font-family="Segoe UI, Helvetica, Arial, sans-serif" font-size="20" fill="#3e2723" text-anchor="middle" font-weight="bold">@prithwiraj84's Contribution Garden</text>
<text x="400" y="595" font-family="Segoe UI, Helvetica, Arial, sans-serif" font-size="14" fill="#5d4037" text-anchor="middle" font-weight="bold">Grown over 5 years</text></svg>