<svg xmlns="http://www.w3.org/2000/svg" width="800" height="600" viewBox="0 0 800 600">
        <defs>
            <linearGradient id="sky" x1="0%" y1="0%" x2="0%" y2="100%">
                <stop offset="0%" style="stop-color:#e0f7fa;stop-opacity:1" />
                <stop offset="100%" style="stop-color:#ffffff;stop-opacity:1" />
            </linearGradient>
            <filter id="glow" x="-20%" y="-20%" width="140%" height="140%">
                <feGaussianBlur stdDeviation="2" result="coloredBlur"/>
                <feMerge>
                    <feMergeNode in="coloredBlur"/>
                    <feMergeNode in="SourceGraphic"/>
                </feMerge>
            </filter>
        </defs>
        <rect width="100%" height="100%" fill="url(#sky)"/><path d="M0,550 Q400,530 800,550 L800,600 L0,600 Z" stroke="#4e342e" stroke-width="0" fill="#5d4037" stroke-linecap="round" stroke-opacity="1.0" />
<path d="M0,550 Q400,530 800,550" stroke="none" stroke-width="0" fill="#76ff03" stroke-linecap="round" stroke-opacity="0.1" />
<path d="M400,550 Q400.5,470.0 401,390" stroke="#4e342e" stroke-width="35" fill="none" stroke-linecap="round" stroke-opacity="1.0" />
<path d="M401,430 Q472.2962962962963,410 478.6614920299205,310.4117893855599" stroke="#5d4037" stroke-width="8" fill="none" stroke-linecap="round" stroke-opacity="1.0" />
<circle cx="467.72774217846745" cy="278.58649410777394" r="8" fill="#66bb6a" fill-opacity="0.7" />
<circle cx="481.79350683668355" cy="315.0818812211774" r="13" fill="#66bb6a" fill-opacity="0.7" />
<circle cx="475.24000428668495" cy="295.0334535319689" r="8" fill="#2e7d32" fill-opacity="0.7" />
<circle cx="463.868632280406" cy="281.2586916978551" r="15" fill="#43a047" fill-opacity="0.7" />
<circle cx="449.0738979856217" cy="280.59159727007057" r="8" fill="#a5d6a7" fill-opacity="0.7" />
<circle cx="460.5815174054538" cy="296.2598560726901" r="13" fill="#a5d6a7" fill-opacity="0.7" />
<circle cx="480.71018464828717" cy="326.4791210482026" r="9" fill="#66bb6a" fill-opacity="0.7" />
<circle cx="448.3288503925597" cy="333.6970872936535" r="14" fill="#2e7d32" fill-opacity="0.7" />
<circle cx="498.2831460008281" cy="283.3610442412157" r="12" fill="#2e7d32" fill-opacity="0.7" />
<circle cx="461.1070652107925" cy="276.73441867499076" r="11" fill="#a5d6a7" fill-opacity="0.7" />
<path d="M401,415 Q330.6296296296296,395 285.71193450747523,334.27442747651946" stroke="#5d4037" stroke-width="8" fill="none" stroke-linecap="round" stroke-opacity="1.0" />
<circle cx="293.36329147840667" cy="335.54682732945685" r="14" fill="#66bb6a" fill-opacity="0.7" />
<circle cx="269.43845842585165" cy="364.55809891448246" r="12" fill="#a5d6a7" fill-opacity="0.7" />
<circle cx="283.2562470583264" cy="312.50536693998436" r="16" fill="#2e7d32" fill-opacity="0.7" />
<circle cx="281.9725424840961" cy="336.5934925067079" r="15" fill="#a5d6a7" fill-opacity="0.7" />
<circle cx="300.76609908349377" cy="366.988101640924" r="9" fill="#a5d6a7" fill-opacity="0.7" />
<circle cx="298.22296934187284" cy="301.5005290600022" r="11" fill="#66bb6a" fill-opacity="0.7" />
<circle cx="287.869094841281" cy="328.3580718824787" r="16" fill="#66bb6a" fill-opacity="0.7" />
<circle cx="297.00563837589095" cy="334.87416166611285" r="16" fill="#43a047" fill-opacity="0.7" />
<circle cx="305.744020942282" cy="325.83117811487955" r="9" fill="#a5d6a7" fill-opacity="0.7" />
<circle cx="290.07096328900377" cy="351.4585846369971" r="11" fill="#66bb6a" fill-opacity="0.7" />
<path d="M401,400 Q462.1111111111111,380 482.7826296660827,309.17118799720737" stroke="#5d4037" stroke-width="8" fill="none" stroke-linecap="round" stroke-opacity="1.0" />
<circle cx="478.7322321306124" cy="313.689129204222" r="13" fill="#2e7d32" fill-opacity="0.7" />
<circle cx="506.1041268727148" cy="339.0516209534417" r="12" fill="#43a047" fill-opacity="0.7" />
<circle cx="486.6363574617918" cy="295.92241297211706" r="16" fill="#2e7d32" fill-opacity="0.7" />
<circle cx="510.82406727215846" cy="334.53301415249007" r="9" fill="#66bb6a" fill-opacity="0.7" />
<circle cx="509.6240389654875" cy="295.7088104332978" r="12" fill="#43a047" fill-opacity="0.7" />
<circle cx="496.9207197786162" cy="302.85649334155926" r="16" fill="#a5d6a7" fill-opacity="0.7" />
<circle cx="493.38975591730053" cy="336.87958832393565" r="13" fill="#a5d6a7" fill-opacity="0.7" />
<circle cx="513.3399311770623" cy="329.11431699497825" r="16" fill="#43a047" fill-opacity="0.7" />
<circle cx="450.88127715652536" cy="280.1211270337808" r="9" fill="#2e7d32" fill-opacity="0.7" />
<circle cx="473.41017465182625" cy="331.8177481988807" r="10" fill="#a5d6a7" fill-opacity="0.7" />
<path d="M401,385 Q339.8888888888889,365 303.388993216442,311.44483050363857" stroke="#5d4037" stroke-width="8" fill="none" stroke-linecap="round" stroke-opacity="1.0" />
<circle cx="282.97465281151733" cy="283.38769976716287" r="11" fill="#43a047" fill-opacity="0.7" />
<circle cx="315.9377870647246" cy="283.2250273101336" r="15" fill="#43a047" fill-opacity="0.7" />
<circle cx="290.3807542342962" cy="331.7499659126428" r="13" fill="#66bb6a" fill-opacity="0.7" />
<circle cx="327.65878645565823" cy="314.95610327669294" r="12" fill="#66bb6a" fill-opacity="0.7" />
<circle cx="320.22752651753876" cy="299.86236265835987" r="15" fill="#a5d6a7" fill-opacity="0.7" />
<circle cx="277.1186423364323" cy="301.2580621383948" r="15" fill="#a5d6a7" fill-opacity="0.7" />
<circle cx="292.483838794248" cy="345.14356359915666" r="13" fill="#43a047" fill-opacity="0.7" />
<circle cx="319.23618825268767" cy="309.66090637139365" r="14" fill="#2e7d32" fill-opacity="0.7" />
<circle cx="303.3613882515367" cy="288.3585653358261" r="8" fill="#66bb6a" fill-opacity="0.7" />
<circle cx="270.4815093287185" cy="334.9085994938506" r="12" fill="#43a047" fill-opacity="0.7" />
<path d="M401,370 Q458.4074074074074,350 493.88713639119766,302.5135451071605" stroke="#5d4037" stroke-width="8" fill="none" stroke-linecap="round" stroke-opacity="1.0" />
<circle cx="490.33252571658903" cy="293.41863277807033" r="8" fill="#66bb6a" fill-opacity="0.7" />
<circle cx="493.8058281919492" cy="329.08313051269755" r="16" fill="#66bb6a" fill-opacity="0.7" />
<circle cx="499.393650552968" cy="293.14472629804123" r="14" fill="#43a047" fill-opacity="0.7" />
<circle cx="460.5340505889703" cy="271.77869766666413" r="11" fill="#a5d6a7" fill-opacity="0.7" />
<circle cx="491.1727239902312" cy="321.0752901152849" r="16" fill="#a5d6a7" fill-opacity="0.7" />
<circle cx="497.3523334788955" cy="294.3985797695483" r="9" fill="#43a047" fill-opacity="0.7" />
<circle cx="467.5155618056214" cy="309.85974910604824" r="15" fill="#a5d6a7" fill-opacity="0.7" />
<circle cx="527.7396186397798" cy="272.5935193581076" r="11" fill="#66bb6a" fill-opacity="0.7" />
<circle cx="462.17188744733545" cy="267.64113561010953" r="9" fill="#2e7d32" fill-opacity="0.7" />
<circle cx="524.9746069716731" cy="270.55461027688625" r="15" fill="#2e7d32" fill-opacity="0.7" />
<path d="M401,355 Q347.2962962962963,335 303.6558302812487,309.60766818340636" stroke="#5d4037" stroke-width="8" fill="none" stroke-linecap="round" stroke-opacity="1.0" />
<circle cx="279.97692348310886" cy="338.0500416559971" r="16" fill="#43a047" fill-opacity="0.7" />
<circle cx="306.39119150577403" cy="341.0135340383433" r="11" fill="#43a047" fill-opacity="0.7" />
<circle cx="301.8173578469286" cy="339.2517159419388" r="14" fill="#2e7d32" fill-opacity="0.7" />
<circle cx="281.22616742129355" cy="306.6526875099462" r="13" fill="#2e7d32" fill-opacity="0.7" />
<circle cx="299.8060595387868" cy="312.5378003865094" r="12" fill="#43a047" fill-opacity="0.7" />
<circle cx="272.7061807746118" cy="293.78553426696897" r="9" fill="#a5d6a7" fill-opacity="0.7" />
<circle cx="293.420493877968" cy="326.30897933022356" r="11" fill="#43a047" fill-opacity="0.7" />
<circle cx="320.1504803878599" cy="343.3971097680885" r="12" fill="#66bb6a" fill-opacity="0.7" />
<circle cx="329.5295957163359" cy="296.3291714287274" r="11" fill="#66bb6a" fill-opacity="0.7" />
<circle cx="330.72321992352164" cy="278.43676719256166" r="13" fill="#66bb6a" fill-opacity="0.7" />
<text x="400" y="580" font-family="Segoe UI, Helvetica, Arial, sans-serif" font-size="20" fill="#3e2723" text-anchor="middle" font-weight="bold">@prithwiraj84's Contribution Garden</text>
<text x="400" y="595" font-family="Segoe UI, Helvetica, Arial, sans-serif" font-size="14" fill="#5d4037" text-anchor="middle" font-weight="bold">Grown over 5 years</text></svg>