<svg xmlns="http://www.w3.org/2000/svg" width="800" height="600" viewBox="0 0 800 600">
        <defs>
            <linearGradient id="sky" x1="0%" y1="0%" x2="0%" y2="100%">
                <stop offset="0%" style="stop-color:#e0f7fa;stop-opacity:1" />
                <stop offset="100%" style="stop-color:#ffffff;stop-opacity:1" />
            </linearGradient>
            <filter id="glow" x="-20%" y="-20%" width="140%" height="140%">
                <feGaussianBlur stdDeviation="2" result="coloredBlur"/>
                <feMerge>
                    <feMergeNode in="coloredBlur"/>
                    <feMergeNode in="SourceGraphic"/>
                </feMerge>
            </filter>
        </defs>
        <rect width="100%" height="100%" fill="url(#sky)"/><path d="M0,550 Q400,530 800,550 L800,600 L0,600 Z" stroke="#4e342e" stroke-width="0" fill="#5d4037" stroke-linecap="round" stroke-opacity="1.0" />
<path d="M0,550 Q400,530 800,550" stroke="none" stroke-width="0" fill="#76ff03" stroke-linecap="round" stroke-opacity="0.1" />
<path d="M400,550 Q402.0,470.0 404,390" stroke="#4e342e" stroke-width="35" fill="none" stroke-linecap="round" stroke-opacity="1.0" />
<path d="M404,430 Q486.6086956521739,410 498.76480252756414,294.6618361609492" stroke="#5d4037" stroke-width="8" fill="none" stroke-linecap="round" stroke-opacity="1.0" />
<circle cx="498.72681265038125" cy="325.1591528286694" r="15" fill="#43a047" fill-opacity="0.7" />
<circle cx="530.9340014610955" cy="283.04907234326777" r="14" fill="#43a047" fill-opacity="0.7" />
<circle cx="470.5357022401649" cy="309.66709027948946" r="13" fill="#66bb6a" fill-opacity="0.7" />
<circle cx="528.6323450154915" cy="329.50146417057215" r="10" fill="#2e7d32" fill-opacity="0.7" />
<circle cx="508.5849787847414" cy="277.3216362498886" r="11" fill="#66bb6a" fill-opacity="0.7" />
<circle cx="508.1611595333085" cy="284.2968488340037" r="12" fill="#43a047" fill-opacity="0.7" />
<circle cx="505.2123746500738" cy="326.57916280418857" r="12" fill="#2e7d32" fill-opacity="0.7" />
<circle cx="519.683371089277" cy="310.0923668918148" r="9" fill="#66bb6a" fill-opacity="0.7" />
<circle cx="522.326147785747" cy="300.64508002604254" r="15" fill="#a5d6a7" fill-opacity="0.7" />
<circle cx="529.526657888445" cy="284.19586476442544" r="9" fill="#43a047" fill-opacity="0.7" />
<circle cx="465.0946520928313" cy="288.68125048647715" r="15" fill="#43a047" fill-opacity="0.7" />
<circle cx="465.53615036973054" cy="315.61954538938664" r="12" fill="#66bb6a" fill-opacity="0.7" />
<path d="M404,415 Q339.32608695652175,395 341.2909295550934,301.8698422287086" stroke="#5d4037" stroke-width="8" fill="none" stroke-linecap="round" stroke-opacity="1.0" />
<circle cx="322.70348161345083" cy="287.5786489018932" r="9" fill="#2e7d32" fill-opacity="0.7" />
<circle cx="308.58429753297065" cy="315.8296993056844" r="13" fill="#2e7d32" fill-opacity="0.7" />
<circle cx="313.77631700156326" cy="297.2953161351394" r="15" fill="#a5d6a7" fill-opacity="0.7" />
<circle cx="364.60346595361995" cy="299.9556018747237" r="14" fill="#2e7d32" fill-opacity="0.7" />
<circle cx="322.3997343796746" cy="317.9398299707995" r="11" fill="#66bb6a" fill-opacity="0.7" />
<circle cx="308.5701331959199" cy="331.6576784687135" r="9" fill="#43a047" fill-opacity="0.7" />
<circle cx="316.1498544532841" cy="300.9564262146529" r="12" fill="#66bb6a" fill-opacity="0.7" />
<circle cx="325.37456569528126" cy="300.04179185883584" r="9" fill="#66bb6a" fill-opacity="0.7" />
<circle cx="347.55641630717435" cy="331.0090596514749" r="15" fill="#66bb6a" fill-opacity="0.7" />
<circle cx="334.9932406364949" cy="305.3342537793501" r="10" fill="#a5d6a7" fill-opacity="0.7" />
<path d="M404,400 Q461.60869565217394,380 505.73091830765895,345.9087112442343" stroke="#5d4037" stroke-width="8" fill="none" stroke-linecap="round" stroke-opacity="1.0" />
<circle cx="482.1706262504068" cy="317.2719118981746" r="10" fill="#a5d6a7" fill-opacity="0.7" />
<circle cx="503.2501228611445" cy="333.7696553526027" r="8" fill="#2e7d32" fill-opacity="0.7" />
<circle cx="478.10926004228236" cy="338.5392460360664" r="12" fill="#a5d6a7" fill-opacity="0.7" />
<circle cx="492.9327410974618" cy="316.0044479891359" r="15" fill="#43a047" fill-opacity="0.7" />
<circle cx="539.6110864250638" cy="351.9832550323294" r="14" fill="#2e7d32" fill-opacity="0.7" />
<circle cx="540.7202537299383" cy="332.5284091333135" r="15" fill="#66bb6a" fill-opacity="0.7" />
<circle cx="502.72986944608874" cy="372.7730400401181" r="16" fill="#43a047" fill-opacity="0.7" />
<circle cx="519.551105550719" cy="342.0527006273207" r="12" fill="#66bb6a" fill-opacity="0.7" />
<circle cx="490.6204011642463" cy="365.4945103837321" r="8" fill="#66bb6a" fill-opacity="0.7" />
<circle cx="498.67598928846127" cy="380.55909097659327" r="15" fill="#a5d6a7" fill-opacity="0.7" />
<path d="M404,385 Q346.9347826086956,365 304.17927255474285,329.66846725449415" stroke="#5d4037" stroke-width="8" fill="none" stroke-linecap="round" stroke-opacity="1.0" />
<circle cx="287.510163176745" cy="313.6742411069453" r="9" fill="#2e7d32" fill-opacity="0.7" />
<circle cx="279.3791280716395" cy="348.8307296223487" r="15" fill="#66bb6a" fill-opacity="0.7" />
<circle cx="271.6601642834986" cy="364.1912479903567" r="11" fill="#43a047" fill-opacity="0.7" />
<circle cx="291.45219104481697" cy="322.58858281165755" r="10" fill="#66bb6a" fill-opacity="0.7" />
<circle cx="320.8237185567475" cy="336.5654492644697" r="11" fill="#a5d6a7" fill-opacity="0.7" />
<circle cx="304.71455567978893" cy="336.5227048454316" r="15" fill="#43a047" fill-opacity="0.7" />
<circle cx="303.0562960863443" cy="342.7097100822808" r="8" fill="#a5d6a7" fill-opacity="0.7" />
<circle cx="287.6189006061179" cy="325.8058760131606" r="11" fill="#a5d6a7" fill-opacity="0.7" />
<circle cx="327.07897400656276" cy="348.0639193593635" r="9" fill="#2e7d32" fill-opacity="0.7" />
<circle cx="319.3095085750964" cy="342.5394431142108" r="16" fill="#2e7d32" fill-opacity="0.7" />
<path d="M404,370 Q461.0652173913044,350 492.69600647063254,298.17539015192074" stroke="#5d4037" stroke-width="8" fill="none" stroke-linecap="round" stroke-opacity="1.0" />
<circle cx="500.0560087961349" cy="298.09531971486024" r="12" fill="#43a047" fill-opacity="0.7" />
<circle cx="461.78409002956414" cy="267.9835578545482" r="12" fill="#a5d6a7" fill-opacity="0.7" />
<circle cx="526.4298820770164" cy="272.0323021073442" r="10" fill="#43a047" fill-opacity="0.7" />
<circle cx="489.5667696545472" cy="277.8821961321009" r="9" fill="#a5d6a7" fill-opacity="0.7" />
<circle cx="477.0532557603162" cy="279.6301630955266" r="10" fill="#66bb6a" fill-opacity="0.7" />
<circle cx="472.166218134336" cy="319.72002503419264" r="8" fill="#66bb6a" fill-opacity="0.7" />
<circle cx="519.354554315487" cy="329.3433000705505" r="12" fill="#66bb6a" fill-opacity="0.7" />
<circle cx="487.6806587864964" cy="285.41633494587813" r="14" fill="#a5d6a7" fill-opacity="0.7" />
<circle cx="489.6581906489729" cy="266.70076819377437" r="11" fill="#43a047" fill-opacity="0.7" />
<circle cx="524.4041634865991" cy="316.9862773524657" r="15" fill="#66bb6a" fill-opacity="0.7" />
<path d="M404,355 Q348.02173913043475,335 349.7224012115514,257.0806197441763" stroke="#5d4037" stroke-width="8" fill="none" stroke-linecap="round" stroke-opacity="1.0" />
<circle cx="359.9825147796482" cy="251.27753013872345" r="11" fill="#a5d6a7" fill-opacity="0.7" />
<circle cx="356.7155711808575" cy="290.51093580499617" r="10" fill="#43a047" fill-opacity="0.7" />
<circle cx="341.1201286104624" cy="274.9604261394954" r="12" fill="#a5d6a7" fill-opacity="0.7" />
<circle cx="374.8342087189068" cy="244.85385398169146" r="13" fill="#66bb6a" fill-opacity="0.7" />
<circle cx="369.63042140035964" cy="248.7825819615283" r="11" fill="#a5d6a7" fill-opacity="0.7" />
<circle cx="359.67791240677906" cy="251.8597852287784" r="12" fill="#66bb6a" fill-opacity="0.7" />
<circle cx="348.253848188955" cy="239.70107154780013" r="9" fill="#66bb6a" fill-opacity="0.7" />
<circle cx="371.91944910648635" cy="227.99321929136346" r="15" fill="#a5d6a7" fill-opacity="0.7" />
<circle cx="344.21047107368537" cy="249.11932027245265" r="15" fill="#2e7d32" fill-opacity="0.7" />
<circle cx="378.6149926588144" cy="270.2726807451053" r="9" fill="#a5d6a7" fill-opacity="0.7" />
<text x="400" y="580" font-family="Segoe UI, Helvetica, Arial, sans-serif" font-size="20" fill="#3e2723" text-anchor="middle" font-weight="bold">@prithwiraj84's Contribution Garden</text>
<text x="400" y="595" font-family="Segoe UI, Helvetica, Arial, sans-serif" font-size="14" fill="#5d4037" text-anchor="middle" font-weight="bold">Grown over 5 years</text></svg>