<svg xmlns="http://www.w3.org/2000/svg" width="800" height="600" viewBox="0 0 800 600">
        <defs>
            <linearGradient id="sky" x1="0%" y1="0%" x2="0%" y2="100%">
                <stop offset="0%" style="stop-color:#e0f7fa;stop-opacity:1" />
                <stop offset="100%" style="stop-color:#ffffff;stop-opacity:1" />
            </linearGradient>
            <filter id="glow" x="-20%" y="-20%" width="140%" height="140%">
                <feGaussianBlur stdDeviation="2" result="coloredBlur"/>
                <feMerge>
                    <feMergeNode in="coloredBlur"/>
                    <feMergeNode in="SourceGraphic"/>
                </feMerge>
            </filter>
        </defs>
        <rect width="100%" height="100%" fill="url(#sky)"/><path d="M0,550 Q400,530 800,550 L800,600 L0,600 Z" stroke="#4e342e" stroke-width="0" fill="#5d4037" stroke-linecap="round" stroke-opacity="1.0" />
<path d="M0,550 Q400,530 800,550" stroke="none" stroke-width="0" fill="#76ff03" stroke-linecap="round" stroke-opacity="0.1" />
<path d="M400,550 Q387.5,470.0 375,390" stroke="#4e342e" stroke-width="35" fill="none" stroke-linecap="round" stroke-opacity="1.0" />
<path d="M375,430 Q449.1379310344828,410 479.8468675552467,325.1531324447533" stroke="#5d4037" stroke-width="8" fill="none" stroke-linecap="round" stroke-opacity="1.0" />
<circle cx="491.11406680060475" cy="346.9295027799017" r="9" fill="#a5d6a7" fill-opacity="0.7" />
<circle cx="446.46220803395624" cy="353.92628849480536" r="8" fill="#2e7d32" fill-opacity="0.7" />
<circle cx="457.65641278509804" cy="326.97641293296874" r="10" fill="#66bb6a" fill-opacity="0.7" />
<circle cx="474.58858687598007" cy="290.31992516289705" r="16" fill="#2e7d32" fill-opacity="0.7" />
<circle cx="456.88392573698377" cy="315.754770812468" r="14" fill="#66bb6a" fill-opacity="0.7" />
<circle cx="473.88515320821045" cy="359.13157894246046" r="10" fill="#66bb6a" fill-opacity="0.7" />
<circle cx="467.6089901420051" cy="293.6396810333142" r="9" fill="#2e7d32" fill-opacity="0.7" />
<circle cx="493.3195411103508" cy="354.1351039756242" r="9" fill="#43a047" fill-opacity="0.7" />
<circle cx="478.30416042718207" cy="342.4945306189786" r="9" fill="#2e7d32" fill-opacity="0.7" />
<circle cx="507.5243236314508" cy="357.75079579571945" r="9" fill="#43a047" fill-opacity="0.7" />
<path d="M375,415 Q306.0344827586207,395 262.0135111325528,335.8860087791661" stroke="#5d4037" stroke-width="8" fill="none" stroke-linecap="round" stroke-opacity="1.0" />
<circle cx="289.4265571572505" cy="339.07794294376436" r="15" fill="#66bb6a" fill-opacity="0.7" />
<circle cx="285.0244126170375" cy="363.8019675737229" r="16" fill="#66bb6a" fill-opacity="0.7" />
<circle cx="269.5863357192874" cy="346.7614990925514" r="12" fill="#43a047" fill-opacity="0.7" />
<circle cx="296.46109253172443" cy="335.5620324637217" r="16" fill="#2e7d32" fill-opacity="0.7" />
<circle cx="262.754829514241" cy="330.17050442829964" r="12" fill="#a5d6a7" fill-opacity="0.7" />
<circle cx="272.7896659189553" cy="324.4400434572036" r="12" fill="#a5d6a7" fill-opacity="0.7" />
<circle cx="295.25338227351335" cy="362.27547192643357" r="15" fill="#66bb6a" fill-opacity="0.7" />
<circle cx="268.25437183203735" cy="308.84321650146705" r="8" fill="#66bb6a" fill-opacity="0.7" />
<circle cx="283.53332445524757" cy="321.3417725319453" r="9" fill="#43a047" fill-opacity="0.7" />
<circle cx="268.3960869065581" cy="361.5572571431393" r="15" fill="#66bb6a" fill-opacity="0.7" />
<path d="M375,400 Q436.2068965517241,380 445.21366720849016,299.7244911301407" stroke="#5d4037" stroke-width="8" fill="none" stroke-linecap="round" stroke-opacity="1.0" />
<circle cx="425.17331376518723" cy="316.05064263938004" r="9" fill="#43a047" fill-opacity="0.7" />
<circle cx="438.2221875812964" cy="327.93771597603643" r="13" fill="#a5d6a7" fill-opacity="0.7" />
<circle cx="450.1744631447074" cy="331.2197083838366" r="8" fill="#43a047" fill-opacity="0.7" />
<circle cx="458.82430166251385" cy="322.176829419465" r="15" fill="#66bb6a" fill-opacity="0.7" />
<circle cx="417.5130134503616" cy="317.9259311512732" r="12" fill="#43a047" fill-opacity="0.7" />
<circle cx="437.85640335970214" cy="285.96826342454335" r="15" fill="#a5d6a7" fill-opacity="0.7" />
<circle cx="439.127682964239" cy="305.27241946820106" r="16" fill="#43a047" fill-opacity="0.7" />
<circle cx="426.27362521651486" cy="305.14592368961075" r="9" fill="#a5d6a7" fill-opacity="0.7" />
<circle cx="467.2611382749839" cy="286.43895430464653" r="14" fill="#a5d6a7" fill-opacity="0.7" />
<circle cx="449.83164516566075" cy="270.3497284481699" r="9" fill="#2e7d32" fill-opacity="0.7" />
<path d="M375,385 Q314.6551724137931,365 269.4424491383488,326.4884941082007" stroke="#5d4037" stroke-width="8" fill="none" stroke-linecap="round" stroke-opacity="1.0" />
<circle cx="254.26936490519682" cy="326.405143483109" r="12" fill="#66bb6a" fill-opacity="0.7" />
<circle cx="291.00418553676997" cy="291.4938095449746" r="10" fill="#66bb6a" fill-opacity="0.7" />
<circle cx="234.9661940372107" cy="321.15263011555993" r="9" fill="#a5d6a7" fill-opacity="0.7" />
<circle cx="272.64235212172616" cy="314.3446049871846" r="8" fill="#66bb6a" fill-opacity="0.7" />
<circle cx="292.6955607679642" cy="323.85384075887515" r="9" fill="#a5d6a7" fill-opacity="0.7" />
<circle cx="245.72334693535674" cy="328.5731823747237" r="15" fill="#43a047" fill-opacity="0.7" />
<circle cx="286.8697678357559" cy="322.14979955917056" r="12" fill="#43a047" fill-opacity="0.7" />
<circle cx="261.91921260628686" cy="353.6919948307002" r="13" fill="#43a047" fill-opacity="0.7" />
<circle cx="295.1297034845776" cy="294.06555282340145" r="15" fill="#43a047" fill-opacity="0.7" />
<circle cx="248.9042151283508" cy="332.72141385300034" r="11" fill="#66bb6a" fill-opacity="0.7" />
<path d="M375,370 Q431.8965517241379,350 438.6322959121884,275.66124174373664" stroke="#5d4037" stroke-width="8" fill="none" stroke-linecap="round" stroke-opacity="1.0" />
<circle cx="441.8195737161114" cy="254.08063447482147" r="15" fill="#a5d6a7" fill-opacity="0.7" />
<circle cx="423.1161348463925" cy="263.0397190367394" r="8" fill="#66bb6a" fill-opacity="0.7" />
<circle cx="441.3386076300509" cy="296.5046895681906" r="15" fill="#a5d6a7" fill-opacity="0.7" />
<circle cx="429.84964550626535" cy="309.41930439587094" r="16" fill="#a5d6a7" fill-opacity="0.7" />
<circle cx="435.3796034992219" cy="274.32245615039005" r="13" fill="#a5d6a7" fill-opacity="0.7" />
<circle cx="442.263803255503" cy="300.90665495846656" r="9" fill="#43a047" fill-opacity="0.7" />
<circle cx="453.6212509524258" cy="293.5879174382505" r="12" fill="#66bb6a" fill-opacity="0.7" />
<circle cx="410.3069945325065" cy="257.876854234698" r="14" fill="#66bb6a" fill-opacity="0.7" />
<circle cx="472.2269056166504" cy="292.91816249614305" r="9" fill="#a5d6a7" fill-opacity="0.7" />
<circle cx="437.52156084566974" cy="284.64233039798347" r="12" fill="#2e7d32" fill-opacity="0.7" />
<path d="M375,355 Q321.55172413793105,335 294.32414832101404,284.8695520734285" stroke="#5d4037" stroke-width="8" fill="none" stroke-linecap="round" stroke-opacity="1.0" />
<circle cx="299.5927312304883" cy="313.0856568284669" r="9" fill="#a5d6a7" fill-opacity="0.7" />
<circle cx="271.0903575581757" cy="304.2413476613356" r="11" fill="#66bb6a" fill-opacity="0.7" />
<circle cx="301.25197813618877" cy="312.8391594998516" r="10" fill="#66bb6a" fill-opacity="0.7" />
<circle cx="280.7769623548968" cy="260.5656973548645" r="10" fill="#66bb6a" fill-opacity="0.7" />
<circle cx="268.97840429497836" cy="270.40057475283265" r="10" fill="#a5d6a7" fill-opacity="0.7" />
<circle cx="300.28846266721115" cy="259.43292139981025" r="10" fill="#66bb6a" fill-opacity="0.7" />
<circle cx="298.3857483786668" cy="308.4823988176842" r="11" fill="#66bb6a" fill-opacity="0.7" />
<circle cx="295.5995075243373" cy="288.31244859552544" r="14" fill="#a5d6a7" fill-opacity="0.7" />
<circle cx="324.7881267342495" cy="294.491488405585" r="9" fill="#a5d6a7" fill-opacity="0.7" />
<circle cx="287.03688940450303" cy="278.13840642684727" r="9" fill="#a5d6a7" fill-opacity="0.7" />
<text x="400" y="580" font-family="Segoe UI, Helvetica, Arial, sans-serif" font-size="20" fill="#3e2723" text-anchor="middle" font-weight="bold">@prithwiraj84's Contribution Garden</text>
<text x="400" y="595" font-family="Segoe UI, Helvetica, Arial, sans-serif" font-size="14" fill="#5d4037" text-anchor="middle" font-weight="bold">Grown over 5 years</text></svg>