<svg xmlns="http://www.w3.org/2000/svg" width="800" height="600" viewBox="0 0 800 600">
        <defs>
            <linearGradient id="sky" x1="0%" y1="0%" x2="0%" y2="100%">
                <stop offset="0%" style="stop-color:#e0f7fa;stop-opacity:1" />
                <stop offset="100%" style="stop-color:#ffffff;stop-opacity:1" />
            </linearGradient>
            <filter id="glow" x="-20%" y="-20%" width="140%" height="140%">
                <feGaussianBlur stdDeviation="2" result="coloredBlur"/>
                <feMerge>
                    <feMergeNode in="coloredBlur"/>
                    <feMergeNode in="SourceGraphic"/>
                </feMerge>
            </filter>
        </defs>
        <rect width="100%" height="100%" fill="url(#sky)"/><path d="M0,550 Q400,530 800,550 L800,600 L0,600 Z" stroke="#4e342e" stroke-width="0" fill="#5d4037" stroke-linecap="round" stroke-opacity="1.0" />
<path d="M0,550 Q400,530 800,550" stroke="none" stroke-width="0" fill="#76ff03" stroke-linecap="round" stroke-opacity="0.1" />
<path d="M400,550 Q394.5,470.0 389,390" stroke="#4e342e" stroke-width="35" fill="none" stroke-linecap="round" stroke-opacity="1.0" />
<path d="M389,430 Q478.1666666666667,410 521.5274938768019,310.67170853267027" stroke="#5d4037" stroke-width="8" fill="none" stroke-linecap="round" stroke-opacity="1.0" />
<circle cx="526.1711616941001" cy="305.2934577739168" r="16" fill="#43a047" fill-opacity="0.7" />
<circle cx="547.3836786609933" cy="326.3841347513539" r="10" fill="#43a047" fill-opacity="0.7" />
<circle cx="504.37131513005903" cy="334.8017243953434" r="11" fill="#66bb6a" fill-opacity="0.7" />
<circle cx="529.2556029142792" cy="292.58507964295575" r="16" fill="#2e7d32" fill-opacity="0.7" />
<circle cx="506.97854941112587" cy="332.2594485867234" r="14" fill="#a5d6a7" fill-opacity="0.7" />
<circle cx="520.9602271432605" cy="282.6581773314743" r="16" fill="#66bb6a" fill-opacity="0.7" />
<circle cx="502.0246782929239" cy="317.9320748429646" r="11" fill="#a5d6a7" fill-opacity="0.7" />
<circle cx="515.2277452203653" cy="336.41867882260294" r="13" fill="#2e7d32" fill-opacity="0.7" />
<circle cx="532.6850698999591" cy="294.5573591321106" r="10" fill="#2e7d32" fill-opacity="0.7" />
<circle cx="502.71730526971845" cy="294.7992731021923" r="8" fill="#66bb6a" fill-opacity="0.7" />
<circle cx="506.1330017367332" cy="311.9890829933146" r="9" fill="#66bb6a" fill-opacity="0.7" />
<circle cx="555.163885400255" cy="314.0816893034182" r="12" fill="#43a047" fill-opacity="0.7" />
<circle cx="510.6830249474821" cy="320.99742876980093" r="8" fill="#2e7d32" fill-opacity="0.7" />
<circle cx="540.0339796077579" cy="285.0584428358413" r="9" fill="#66bb6a" fill-opacity="0.7" />
<circle cx="537.9363205728346" cy="305.9371269152808" r="14" fill="#a5d6a7" fill-opacity="0.7" />
<circle cx="509.3165595801177" cy="290.6310472506659" r="9" fill="#43a047" fill-opacity="0.7" />
<circle cx="518.6989521120919" cy="312.1939221010995" r="16" fill="#2e7d32" fill-opacity="0.7" />
<circle cx="543.0476382693814" cy="304.1405146799362" r="9" fill="#a5d6a7" fill-opacity="0.7" />
<path d="M389,415 Q326.0833333333333,395 304.80106536651033,321.48760946076123" stroke="#5d4037" stroke-width="8" fill="none" stroke-linecap="round" stroke-opacity="1.0" />
<circle cx="294.7872976920335" cy="308.9283366432198" r="15" fill="#a5d6a7" fill-opacity="0.7" />
<circle cx="269.8649431110729" cy="305.213189443545" r="13" fill="#2e7d32" fill-opacity="0.7" />
<circle cx="306.5385555979182" cy="324.05421371723145" r="16" fill="#a5d6a7" fill-opacity="0.7" />
<circle cx="325.1975899653007" cy="297.5361486910544" r="15" fill="#66bb6a" fill-opacity="0.7" />
<circle cx="288.43844320916986" cy="315.53993399895666" r="13" fill="#2e7d32" fill-opacity="0.7" />
<circle cx="290.8272551775725" cy="301.38470267276125" r="16" fill="#43a047" fill-opacity="0.7" />
<circle cx="273.3156654652672" cy="289.46228484270165" r="9" fill="#2e7d32" fill-opacity="0.7" />
<circle cx="295.6894546073677" cy="347.7134420803827" r="16" fill="#43a047" fill-opacity="0.7" />
<circle cx="338.0429978977927" cy="294.21990159977236" r="15" fill="#66bb6a" fill-opacity="0.7" />
<circle cx="297.48480397912016" cy="348.53084627550726" r="10" fill="#43a047" fill-opacity="0.7" />
<path d="M389,400 Q445.6666666666667,380 478.3078854087618,330.2250327964254" stroke="#5d4037" stroke-width="8" fill="none" stroke-linecap="round" stroke-opacity="1.0" />
<circle cx="499.44846822172303" cy="305.655043156322" r="15" fill="#43a047" fill-opacity="0.7" />
<circle cx="498.2374479305791" cy="343.68849887852923" r="9" fill="#43a047" fill-opacity="0.7" />
<circle cx="487.0961690649521" cy="296.4615802110188" r="12" fill="#a5d6a7" fill-opacity="0.7" />
<circle cx="487.364724906942" cy="356.55359553184104" r="8" fill="#66bb6a" fill-opacity="0.7" />
<circle cx="492.50554062278684" cy="340.3680618639945" r="16" fill="#2e7d32" fill-opacity="0.7" />
<circle cx="466.5523464497807" cy="349.6659309662636" r="12" fill="#66bb6a" fill-opacity="0.7" />
<circle cx="504.923464214767" cy="323.81779294905346" r="15" fill="#66bb6a" fill-opacity="0.7" />
<circle cx="465.70861759220537" cy="344.8834893155529" r="8" fill="#66bb6a" fill-opacity="0.7" />
<circle cx="497.88135392537686" cy="311.42681537570144" r="14" fill="#66bb6a" fill-opacity="0.7" />
<circle cx="459.605106497017" cy="312.96654884343957" r="13" fill="#a5d6a7" fill-opacity="0.7" />
<path d="M389,385 Q333.1666666666667,365 311.4298152987453,304.6737222955173" stroke="#5d4037" stroke-width="8" fill="none" stroke-linecap="round" stroke-opacity="1.0" />
<circle cx="341.3816093244186" cy="278.4063066988115" r="14" fill="#43a047" fill-opacity="0.7" />
<circle cx="342.1424469517715" cy="335.5130605767555" r="16" fill="#a5d6a7" fill-opacity="0.7" />
<circle cx="327.52992960219933" cy="285.6392063732866" r="9" fill="#2e7d32" fill-opacity="0.7" />
<circle cx="290.40253629593275" cy="295.5861369811654" r="16" fill="#2e7d32" fill-opacity="0.7" />
<circle cx="306.87395754766635" cy="323.291652633048" r="10" fill="#43a047" fill-opacity="0.7" />
<circle cx="306.06791193086684" cy="284.0120975972968" r="16" fill="#66bb6a" fill-opacity="0.7" />
<circle cx="326.9771947762262" cy="286.85349475262075" r="11" fill="#a5d6a7" fill-opacity="0.7" />
<circle cx="307.2766539939026" cy="283.89850206397796" r="8" fill="#a5d6a7" fill-opacity="0.7" />
<circle cx="307.9576581096482" cy="334.09992069724484" r="8" fill="#66bb6a" fill-opacity="0.7" />
<circle cx="301.37909727428087" cy="302.7883086393288" r="14" fill="#66bb6a" fill-opacity="0.7" />
<circle cx="303.37348634759746" cy="321.81931150461696" r="5" fill="#ffeb3b" fill-opacity="1.0" />
<circle cx="303.37348634759746" cy="321.81931150461696" r="9" fill="#ffeb3b" fill-opacity="0.3" />
<path d="M389,370 Q444.4166666666667,350 478.66605020989,304.8538012042509" stroke="#5d4037" stroke-width="8" fill="none" stroke-linecap="round" stroke-opacity="1.0" />
<circle cx="459.94161282649344" cy="284.2504233410602" r="13" fill="#43a047" fill-opacity="0.7" />
<circle cx="494.3222693263655" cy="322.74244894770726" r="8" fill="#66bb6a" fill-opacity="0.7" />
<circle cx="470.8087751268903" cy="308.7028056654938" r="13" fill="#2e7d32" fill-opacity="0.7" />
<circle cx="482.61740613738124" cy="334.49184640867406" r="10" fill="#2e7d32" fill-opacity="0.7" />
<circle cx="494.1219567960778" cy="271.29877957595477" r="15" fill="#2e7d32" fill-opacity="0.7" />
<circle cx="452.13589067162974" cy="301.8973580821158" r="13" fill="#2e7d32" fill-opacity="0.7" />
<circle cx="450.4416017281587" cy="331.8564186548853" r="12" fill="#2e7d32" fill-opacity="0.7" />
<circle cx="458.111969870433" cy="269.9613961475078" r="8" fill="#43a047" fill-opacity="0.7" />
<circle cx="506.8598050097788" cy="293.2439588052518" r="16" fill="#2e7d32" fill-opacity="0.7" />
<circle cx="468.08426269088574" cy="309.0944452482504" r="14" fill="#2e7d32" fill-opacity="0.7" />
<path d="M389,355 Q334.0,335 289.3061434259685,308.51199120852306" stroke="#5d4037" stroke-width="8" fill="none" stroke-linecap="round" stroke-opacity="1.0" />
<circle cx="300.21736449042754" cy="288.1464960999813" r="8" fill="#66bb6a" fill-opacity="0.7" />
<circle cx="295.9944539781028" cy="296.79889098467504" r="8" fill="#2e7d32" fill-opacity="0.7" />
<circle cx="289.4707076913691" cy="328.8950307243776" r="14" fill="#43a047" fill-opacity="0.7" />
<circle cx="305.52797164036986" cy="328.7354116364491" r="9" fill="#a5d6a7" fill-opacity="0.7" />
<circle cx="296.0591880871221" cy="306.9797938967127" r="10" fill="#a5d6a7" fill-opacity="0.7" />
<circle cx="279.90503018960385" cy="309.0857351705182" r="10" fill="#a5d6a7" fill-opacity="0.7" />
<circle cx="293.4327385471053" cy="309.1142418167695" r="15" fill="#66bb6a" fill-opacity="0.7" />
<circle cx="296.55567314270155" cy="323.6364946980679" r="11" fill="#66bb6a" fill-opacity="0.7" />
<circle cx="303.574005337497" cy="308.46411584214" r="8" fill="#66bb6a" fill-opacity="0.7" />
<circle cx="255.1549673185301" cy="296.2781914171165" r="9" fill="#43a047" fill-opacity="0.7" />
<text x="400" y="580" font-family="Segoe UI, Helvetica, Arial, sans-serif" font-size="20" fill="#3e2723" text-anchor="middle" font-weight="bold">@prithwiraj84's Contribution Garden</text>
<text x="400" y="595" font-family="Segoe UI, Helvetica, Arial, sans-serif" font-size="14" fill="#5d4037" text-anchor="middle" font-weight="bold">Grown over 5 years</text></svg>