<svg xmlns="http://www.w3.org/2000/svg" width="800" height="600" viewBox="0 0 800 600">
        <defs>
            <linearGradient id="sky" x1="0%" y1="0%" x2="0%" y2="100%">
                <stop offset="0%" style="stop-color:#e0f7fa;stop-opacity:1" />
                <stop offset="100%" style="stop-color:#ffffff;stop-opacity:1" />
            </linearGradient>
            <filter id="glow" x="-20%" y="-20%" width="140%" height="140%">
                <feGaussianBlur stdDeviation="2" result="coloredBlur"/>
                <feMerge>
                    <feMergeNode in="coloredBlur"/>
                    <feMergeNode in="SourceGraphic"/>
                </feMerge>
            </filter>
        </defs>
        <rect width="100%" height="100%" fill="url(#sky)"/><path d="M0,550 Q400,530 800,550 L800,600 L0,600 Z" stroke="#4e342e" stroke-width="0" fill="#5d4037" stroke-linecap="round" stroke-opacity="1.0" />
<path d="M0,550 Q400,530 800,550" stroke="none" stroke-width="0" fill="#76ff03" stroke-linecap="round" stroke-opacity="0.1" />
<path d="M400,550 Q399.5,470.0 399,390" stroke="#4e342e" stroke-width="35" fill="none" stroke-linecap="round" stroke-opacity="1.0" />
<path d="M399,430 Q469.625,410 511.8072657941801,344.9936279797732" stroke="#5d4037" stroke-width="8" fill="none" stroke-linecap="round" stroke-opacity="1.0" />
<circle cx="546.6180483221278" cy="320.03140349644593" r="15" fill="#66bb6a" fill-opacity="0.7" />
<circle cx="516.3696619715877" cy="350.4449295086042" r="8" fill="#a5d6a7" fill-opacity="0.7" />
<circle cx="544.8031424810792" cy="374.7621539362549" r="15" fill="#43a047" fill-opacity="0.7" />
<circle cx="510.41188491902443" cy="311.6783724274899" r="12" fill="#43a047" fill-opacity="0.7" />
<circle cx="488.1623935911304" cy="318.26016977233496" r="12" fill="#a5d6a7" fill-opacity="0.7" />
<circle cx="513.1051774139936" cy="321.91193457460685" r="14" fill="#43a047" fill-opacity="0.7" />
<circle cx="542.6348536533777" cy="328.24379621111524" r="14" fill="#66bb6a" fill-opacity="0.7" />
<circle cx="496.5899379587572" cy="351.47547141586654" r="8" fill="#66bb6a" fill-opacity="0.7" />
<circle cx="537.8214368520138" cy="368.23428505908146" r="14" fill="#a5d6a7" fill-opacity="0.7" />
<circle cx="530.8517350411084" cy="319.433935913786" r="10" fill="#66bb6a" fill-opacity="0.7" />
<path d="M399,415 Q328.375,395 312.0378166102508,303.6934810530505" stroke="#5d4037" stroke-width="8" fill="none" stroke-linecap="round" stroke-opacity="1.0" />
<circle cx="330.49634696510293" cy="312.8352537397464" r="9" fill="#a5d6a7" fill-opacity="0.7" />
<circle cx="325.8093694795089" cy="290.71120767928346" r="11" fill="#a5d6a7" fill-opacity="0.7" />
<circle cx="285.24584726214607" cy="277.1871311604645" r="13" fill="#43a047" fill-opacity="0.7" />
<circle cx="314.38194576469084" cy="328.82597729681083" r="13" fill="#43a047" fill-opacity="0.7" />
<circle cx="343.24351537155496" cy="273.8394460606752" r="16" fill="#66bb6a" fill-opacity="0.7" />
<circle cx="338.5019495966151" cy="337.05656110490395" r="9" fill="#a5d6a7" fill-opacity="0.7" />
<circle cx="319.1301525053368" cy="311.1550610058129" r="14" fill="#2e7d32" fill-opacity="0.7" />
<circle cx="335.5154705537857" cy="334.8250759227001" r="9" fill="#2e7d32" fill-opacity="0.7" />
<circle cx="340.56893582425755" cy="334.9161404629033" r="8" fill="#2e7d32" fill-opacity="0.7" />
<circle cx="331.8287896287762" cy="311.28833579797697" r="16" fill="#a5d6a7" fill-opacity="0.7" />
<path d="M399,400 Q460.25,380 510.02270391198965,348.2292629367643" stroke="#5d4037" stroke-width="8" fill="none" stroke-linecap="round" stroke-opacity="1.0" />
<circle cx="496.41995502503596" cy="315.9150915187375" r="9" fill="#a5d6a7" fill-opacity="0.7" />
<circle cx="543.8290889577327" cy="358.0974934021383" r="11" fill="#a5d6a7" fill-opacity="0.7" />
<circle cx="506.0878784897953" cy="349.028950000295" r="9" fill="#43a047" fill-opacity="0.7" />
<circle cx="504.43929491488" cy="369.8309268676616" r="11" fill="#66bb6a" fill-opacity="0.7" />
<circle cx="526.9495052110258" cy="367.79050335557895" r="12" fill="#43a047" fill-opacity="0.7" />
<circle cx="492.15689150390233" cy="376.3959176022464" r="14" fill="#43a047" fill-opacity="0.7" />
<circle cx="523.7428331701124" cy="322.0030284116057" r="15" fill="#43a047" fill-opacity="0.7" />
<circle cx="496.5454833132355" cy="326.0681202318592" r="14" fill="#66bb6a" fill-opacity="0.7" />
<circle cx="478.816576542957" cy="368.2865075356145" r="10" fill="#a5d6a7" fill-opacity="0.7" />
<circle cx="514.7993865871484" cy="372.1351863784736" r="9" fill="#2e7d32" fill-opacity="0.7" />
<path d="M399,385 Q337.75,365 343.3861637819055,275.85170078692494" stroke="#5d4037" stroke-width="8" fill="none" stroke-linecap="round" stroke-opacity="1.0" />
<circle cx="317.278296528397" cy="251.45952083701533" r="9" fill="#a5d6a7" fill-opacity="0.7" />
<circle cx="354.32333438211776" cy="257.1004669699514" r="15" fill="#a5d6a7" fill-opacity="0.7" />
<circle cx="310.263858727566" cy="247.47055773120752" r="9" fill="#43a047" fill-opacity="0.7" />
<circle cx="340.8457536677721" cy="298.61977605414324" r="14" fill="#43a047" fill-opacity="0.7" />
<circle cx="373.18669139540214" cy="257.3246114252279" r="11" fill="#66bb6a" fill-opacity="0.7" />
<circle cx="333.6532657167132" cy="274.54600312492533" r="12" fill="#66bb6a" fill-opacity="0.7" />
<circle cx="319.20374022353553" cy="292.5343208209734" r="11" fill="#43a047" fill-opacity="0.7" />
<circle cx="377.70089621532486" cy="242.61628877530222" r="8" fill="#2e7d32" fill-opacity="0.7" />
<circle cx="309.3889941726789" cy="269.7482800216222" r="16" fill="#43a047" fill-opacity="0.7" />
<circle cx="309.26466874699366" cy="283.31231244192736" r="8" fill="#66bb6a" fill-opacity="0.7" />
<path d="M399,370 Q456.5,350 474.44678833390833,283.20839827438124" stroke="#5d4037" stroke-width="8" fill="none" stroke-linecap="round" stroke-opacity="1.0" />
<circle cx="441.1883913253812" cy="252.8852498322048" r="16" fill="#2e7d32" fill-opacity="0.7" />
<circle cx="442.6924943648172" cy="309.40714903718003" r="15" fill="#43a047" fill-opacity="0.7" />
<circle cx="441.1717442743823" cy="261.315201188621" r="8" fill="#66bb6a" fill-opacity="0.7" />
<circle cx="479.43603315049427" cy="300.1850751802795" r="14" fill="#43a047" fill-opacity="0.7" />
<circle cx="483.84209327546733" cy="313.1199331180484" r="13" fill="#2e7d32" fill-opacity="0.7" />
<circle cx="504.73445750692724" cy="296.7396722790362" r="15" fill="#2e7d32" fill-opacity="0.7" />
<circle cx="460.5588391413905" cy="268.9186435138315" r="15" fill="#a5d6a7" fill-opacity="0.7" />
<circle cx="494.3489708919102" cy="277.51474987546374" r="8" fill="#a5d6a7" fill-opacity="0.7" />
<circle cx="460.12959130713875" cy="290.43324487278693" r="16" fill="#43a047" fill-opacity="0.7" />
<circle cx="490.66990721107015" cy="256.1896365146383" r="9" fill="#2e7d32" fill-opacity="0.7" />
<path d="M399,355 Q345.25,335 306.85451517452293,299.63340694716914" stroke="#5d4037" stroke-width="8" fill="none" stroke-linecap="round" stroke-opacity="1.0" />
<circle cx="276.82216020016057" cy="310.68733069589905" r="13" fill="#2e7d32" fill-opacity="0.7" />
<circle cx="309.0247268569262" cy="318.5914352628347" r="11" fill="#a5d6a7" fill-opacity="0.7" />
<circle cx="312.5765414844575" cy="270.6799041713006" r="14" fill="#66bb6a" fill-opacity="0.7" />
<circle cx="321.14802283224776" cy="294.9957051112378" r="16" fill="#a5d6a7" fill-opacity="0.7" />
<circle cx="277.40537466362406" cy="271.08695335386375" r="12" fill="#66bb6a" fill-opacity="0.7" />
<circle cx="289.1319155771294" cy="306.13136460314394" r="13" fill="#a5d6a7" fill-opacity="0.7" />
<circle cx="326.3264481136292" cy="278.6196286280968" r="9" fill="#66bb6a" fill-opacity="0.7" />
<circle cx="274.5534948223692" cy="271.49597618055134" r="16" fill="#a5d6a7" fill-opacity="0.7" />
<circle cx="280.9722134847898" cy="319.676701555622" r="10" fill="#66bb6a" fill-opacity="0.7" />
<circle cx="291.42236531568545" cy="311.4458341644494" r="15" fill="#43a047" fill-opacity="0.7" />
<text x="400" y="580" font-family="Segoe UI, Helvetica, Arial, sans-serif" font-size="20" fill="#3e2723" text-anchor="middle" font-weight="bold">@prithwiraj84's Contribution Garden</text>
<text x="400" y="595" font-family="Segoe UI, Helvetica, Arial, sans-serif" font-size="14" fill="#5d4037" text-anchor="middle" font-weight="bold">Grown over 5 years</text></svg>