<svg xmlns="http://www.w3.org/2000/svg" width="800" height="600" viewBox="0 0 800 600">
        <defs>
            <linearGradient id="sky" x1="0%" y1="0%" x2="0%" y2="100%">
                <stop offset="0%" style="stop-color:#e0f7fa;stop-opacity:1" />
                <stop offset="100%" style="stop-color:#ffffff;stop-opacity:1" />
            </linearGradient>
            <filter id="glow" x="-20%" y="-20%" width="140%" height="140%">
                <feGaussianBlur stdDeviation="2" result="coloredBlur"/>
                <feMerge>
                    <feMergeNode in="coloredBlur"/>
                    <feMergeNode in="SourceGraphic"/>
                </feMerge>
            </filter>
        </defs>
        <rect width="100%" height="100%" fill="url(#sky)"/><path d="M0,550 Q400,530 800,550 L800,600 L0,600 Z" stroke="#4e342e" stroke-width="0" fill="#5d4037" stroke-linecap="round" stroke-opacity="1.0" />
<path d="M0,550 Q400,530 800,550" stroke="none" stroke-width="0" fill="#76ff03" stroke-linecap="round" stroke-opacity="0.1" />
<path d="M400,550 Q403.0,470.0 406,390" stroke="#4e342e" stroke-width="35" fill="none" stroke-linecap="round" stroke-opacity="1.0" />
<path d="M406,430 Q486.3030303030303,410 476.40506296915487,285.6482289277095" stroke="#5d4037" stroke-width="8" fill="none" stroke-linecap="round" stroke-opacity="1.0" />
<circle cx="498.2587138484541" cy="267.0840590149493" r="8" fill="#a5d6a7" fill-opacity="0.7" />
<circle cx="510.7034468988635" cy="273.91818096172125" r="15" fill="#2e7d32" fill-opacity="0.7" />
<circle cx="445.17005057547874" cy="273.6853072955038" r="14" fill="#a5d6a7" fill-opacity="0.7" />
<circle cx="485.87721786422435" cy="280.74667872264695" r="8" fill="#66bb6a" fill-opacity="0.7" />
<circle cx="484.0509514661982" cy="294.5644293113525" r="16" fill="#43a047" fill-opacity="0.7" />
<circle cx="472.4661658239616" cy="277.78255526800973" r="14" fill="#43a047" fill-opacity="0.7" />
<circle cx="484.5933966170605" cy="276.2750225425138" r="13" fill="#66bb6a" fill-opacity="0.7" />
<circle cx="488.5427973726852" cy="319.67741905504647" r="12" fill="#66bb6a" fill-opacity="0.7" />
<circle cx="502.28891042354496" cy="285.9885594275319" r="10" fill="#43a047" fill-opacity="0.7" />
<circle cx="495.54106213274804" cy="254.19006799992422" r="16" fill="#43a047" fill-opacity="0.7" />
<path d="M406,415 Q339.33333333333337,395 286.16079382677776,356.5505137614564" stroke="#5d4037" stroke-width="8" fill="none" stroke-linecap="round" stroke-opacity="1.0" />
<circle cx="297.0877372528182" cy="339.58639829170033" r="15" fill="#43a047" fill-opacity="0.7" />
<circle cx="272.65164685414913" cy="383.24389641670916" r="9" fill="#43a047" fill-opacity="0.7" />
<circle cx="311.5095498329815" cy="365.9841786584014" r="16" fill="#2e7d32" fill-opacity="0.7" />
<circle cx="299.3485798955045" cy="338.40918482073306" r="14" fill="#2e7d32" fill-opacity="0.7" />
<circle cx="252.69046938563585" cy="328.1221432808467" r="11" fill="#a5d6a7" fill-opacity="0.7" />
<circle cx="259.1775808128874" cy="390.1274320040893" r="13" fill="#a5d6a7" fill-opacity="0.7" />
<circle cx="255.30094605871386" cy="383.88197700921614" r="11" fill="#66bb6a" fill-opacity="0.7" />
<circle cx="305.25132699013614" cy="362.35810263406006" r="8" fill="#66bb6a" fill-opacity="0.7" />
<circle cx="296.2118968964695" cy="358.220951437688" r="8" fill="#66bb6a" fill-opacity="0.7" />
<circle cx="253.71735419489204" cy="337.1940177881192" r="16" fill="#a5d6a7" fill-opacity="0.7" />
<path d="M406,400 Q465.8484848484849,380 492.10279428295974,316.8514980814231" stroke="#5d4037" stroke-width="8" fill="none" stroke-linecap="round" stroke-opacity="1.0" />
<circle cx="497.0235111024101" cy="298.5961028584892" r="14" fill="#2e7d32" fill-opacity="0.7" />
<circle cx="469.0378553442863" cy="328.0198350039644" r="11" fill="#2e7d32" fill-opacity="0.7" />
<circle cx="463.5086981847706" cy="344.50202666258775" r="12" fill="#a5d6a7" fill-opacity="0.7" />
<circle cx="497.6043465440488" cy="318.2195292244362" r="8" fill="#a5d6a7" fill-opacity="0.7" />
<circle cx="510.6742537234661" cy="302.58875367954766" r="8" fill="#2e7d32" fill-opacity="0.7" />
<circle cx="473.1121730799186" cy="325.6584703887273" r="14" fill="#43a047" fill-opacity="0.7" />
<circle cx="462.79346709153344" cy="349.39845861661206" r="16" fill="#43a047" fill-opacity="0.7" />
<circle cx="462.21742606787853" cy="326.80516688088846" r="11" fill="#43a047" fill-opacity="0.7" />
<circle cx="489.04168916518597" cy="306.30679757238386" r="8" fill="#43a047" fill-opacity="0.7" />
<circle cx="495.7036127219039" cy="298.61026939496134" r="14" fill="#2e7d32" fill-opacity="0.7" />
<path d="M406,385 Q346.9090909090909,365 316.807049610036,307.46575111930366" stroke="#5d4037" stroke-width="8" fill="none" stroke-linecap="round" stroke-opacity="1.0" />
<circle cx="316.04882519417475" cy="286.61582492311885" r="15" fill="#2e7d32" fill-opacity="0.7" />
<circle cx="322.96617156520944" cy="321.0440219417985" r="16" fill="#43a047" fill-opacity="0.7" />
<circle cx="317.84008079300656" cy="317.23860186368825" r="15" fill="#66bb6a" fill-opacity="0.7" />
<circle cx="301.8799049701485" cy="298.45119464057916" r="9" fill="#66bb6a" fill-opacity="0.7" />
<circle cx="290.6916209762867" cy="294.0341446093025" r="10" fill="#2e7d32" fill-opacity="0.7" />
<circle cx="351.5884492548624" cy="332.7436644134125" r="9" fill="#43a047" fill-opacity="0.7" />
<circle cx="309.4124093705782" cy="323.185671030338" r="11" fill="#66bb6a" fill-opacity="0.7" />
<circle cx="349.0746564542639" cy="291.7099503883138" r="14" fill="#43a047" fill-opacity="0.7" />
<circle cx="327.5400850984461" cy="294.113276744847" r="12" fill="#43a047" fill-opacity="0.7" />
<circle cx="282.7581567173772" cy="329.21218052320705" r="16" fill="#a5d6a7" fill-opacity="0.7" />
<path d="M406,370 Q462.06060606060606,350 462.06060606060606,272.9001819999266" stroke="#5d4037" stroke-width="8" fill="none" stroke-linecap="round" stroke-opacity="1.0" />
<circle cx="450.6805332545052" cy="304.21506679205777" r="9" fill="#2e7d32" fill-opacity="0.7" />
<circle cx="467.4953235425087" cy="251.6568875295866" r="13" fill="#2e7d32" fill-opacity="0.7" />
<circle cx="439.0237984294844" cy="293.1674485488277" r="11" fill="#43a047" fill-opacity="0.7" />
<circle cx="464.8388704371258" cy="276.6556372850457" r="10" fill="#66bb6a" fill-opacity="0.7" />
<circle cx="451.22125847981965" cy="246.85631612804195" r="10" fill="#a5d6a7" fill-opacity="0.7" />
<circle cx="453.7780462151286" cy="283.26620688265234" r="15" fill="#66bb6a" fill-opacity="0.7" />
<circle cx="438.2283605815985" cy="254.88571778339607" r="8" fill="#2e7d32" fill-opacity="0.7" />
<circle cx="451.39890179578447" cy="287.7751372297377" r="8" fill="#a5d6a7" fill-opacity="0.7" />
<circle cx="479.71297681865224" cy="262.61170770129416" r="8" fill="#66bb6a" fill-opacity="0.7" />
<circle cx="466.9134909627757" cy="286.403447505434" r="15" fill="#43a047" fill-opacity="0.7" />
<path d="M406,355 Q352.969696969697,335 357.84949245186624,260.4993080406276" stroke="#5d4037" stroke-width="8" fill="none" stroke-linecap="round" stroke-opacity="1.0" />
<circle cx="331.2064779688388" cy="282.7454454685898" r="15" fill="#66bb6a" fill-opacity="0.7" />
<circle cx="353.81739920325066" cy="274.26725681951024" r="15" fill="#43a047" fill-opacity="0.7" />
<circle cx="352.31419200752623" cy="245.04403690913844" r="12" fill="#66bb6a" fill-opacity="0.7" />
<circle cx="348.62400442283484" cy="243.6094324441949" r="13" fill="#a5d6a7" fill-opacity="0.7" />
<circle cx="366.0772029395763" cy="267.08173109267364" r="16" fill="#2e7d32" fill-opacity="0.7" />
<circle cx="350.9467390198732" cy="247.76252416871802" r="9" fill="#66bb6a" fill-opacity="0.7" />
<circle cx="372.1363160271445" cy="246.0552546301782" r="16" fill="#2e7d32" fill-opacity="0.7" />
<circle cx="356.2492169645709" cy="265.0065753667119" r="13" fill="#66bb6a" fill-opacity="0.7" />
<circle cx="377.18237540157975" cy="232.25696231108705" r="8" fill="#66bb6a" fill-opacity="0.7" />
<circle cx="385.2769771706968" cy="287.05263289321294" r="13" fill="#66bb6a" fill-opacity="0.7" />
<text x="400" y="580" font-family="Segoe UI, Helvetica, Arial, sans-serif" font-size="20" fill="#3e2723" text-anchor="middle" font-weight="bold">@prithwiraj84's Contribution Garden</text>
<text x="400" y="595" font-family="Segoe UI, Helvetica, Arial, sans-serif" font-size="14" fill="#5d4037" text-anchor="middle" font-weight="bold">Grown over 5 years</text></svg>