<svg xmlns="http://www.w3.org/2000/svg" width="800" height="600" viewBox="0 0 800 600">
        <defs>
            <linearGradient id="sky" x1="0%" y1="0%" x2="0%" y2="100%">
                <stop offset="0%" style="stop-color:#e0f7fa;stop-opacity:1" />
                <stop offset="100%" style="stop-color:#ffffff;stop-opacity:1" />
            </linearGradient>
            <filter id="glow" x="-20%" y="-20%" width="140%" height="140%">
                <feGaussianBlur stdDeviation="2" result="coloredBlur"/>
                <feMerge>
                    <feMergeNode in="coloredBlur"/>
                    <feMergeNode in="SourceGraphic"/>
                </feMerge>
            </filter>
        </defs>
        <rect width="100%" height="100%" fill="url(#sky)"/><path d="M0,550 Q400,530 800,550 L800,600 L0,600 Z" stroke="#4e342e" stroke-width="0" fill="#5d4037" stroke-linecap="round" stroke-opacity="1.0" />
<path d="M0,550 Q400,530 800,550" stroke="none" stroke-width="0" fill="#76ff03" stroke-linecap="round" stroke-opacity="0.1" />
<path d="M400,550 Q388.0,470.0 376,390" stroke="#4e342e" stroke-width="35" fill="none" stroke-linecap="round" stroke-opacity="1.0" />
<path d="M376,430 Q462.52597402597405,410 482.5414176456415,293.6332040024731" stroke="#5d4037" stroke-width="8" fill="none" stroke-linecap="round" stroke-opacity="1.0" />
<circle cx="511.257696648906" cy="274.4150745798065" r="10" fill="#a5d6a7" fill-opacity="0.7" />
<circle cx="462.1570825098477" cy="306.4271604346441" r="13" fill="#2e7d32" fill-opacity="0.7" />
<circle cx="455.90453303459697" cy="327.02402413481684" r="8" fill="#43a047" fill-opacity="0.7" />
<circle cx="473.0278715312168" cy="272.50768417131366" r="16" fill="#43a047" fill-opacity="0.7" />
<circle cx="510.50798943266165" cy="293.49201344084645" r="14" fill="#66bb6a" fill-opacity="0.7" />
<circle cx="483.171783194938" cy="311.1845824807617" r="13" fill="#43a047" fill-opacity="0.7" />
<circle cx="488.24162430823446" cy="304.5187455793532" r="8" fill="#66bb6a" fill-opacity="0.7" />
<circle cx="495.4756978402288" cy="296.05695190791005" r="9" fill="#2e7d32" fill-opacity="0.7" />
<circle cx="498.55141779550377" cy="261.99489875422296" r="16" fill="#a5d6a7" fill-opacity="0.7" />
<circle cx="461.6409516659819" cy="296.864750304466" r="12" fill="#2e7d32" fill-opacity="0.7" />
<circle cx="455.63881069719474" cy="273.0913987073096" r="12" fill="#2e7d32" fill-opacity="0.7" />
<circle cx="512.5095049957728" cy="262.95362428080364" r="12" fill="#a5d6a7" fill-opacity="0.7" />
<circle cx="500.1637898971267" cy="277.14980511621087" r="13" fill="#2e7d32" fill-opacity="0.7" />
<circle cx="511.25055755915093" cy="284.0907430604787" r="14" fill="#43a047" fill-opacity="0.7" />
<circle cx="470.7389403616606" cy="261.8076778506448" r="16" fill="#43a047" fill-opacity="0.7" />
<path d="M376,415 Q312.85064935064935,395 279.24958169698624,333.81675968569357" stroke="#5d4037" stroke-width="8" fill="none" stroke-linecap="round" stroke-opacity="1.0" />
<circle cx="300.19873338413805" cy="299.82482424619354" r="13" fill="#a5d6a7" fill-opacity="0.7" />
<circle cx="247.4624457242484" cy="334.48110135144685" r="11" fill="#43a047" fill-opacity="0.7" />
<circle cx="307.09852716863617" cy="310.9029003915925" r="13" fill="#2e7d32" fill-opacity="0.7" />
<circle cx="281.4104317882542" cy="365.0154371412674" r="9" fill="#a5d6a7" fill-opacity="0.7" />
<circle cx="268.1532785697896" cy="357.8155932621414" r="11" fill="#a5d6a7" fill-opacity="0.7" />
<circle cx="266.47186776072954" cy="324.20527889770904" r="15" fill="#a5d6a7" fill-opacity="0.7" />
<circle cx="257.64713071478894" cy="344.0044513564496" r="14" fill="#a5d6a7" fill-opacity="0.7" />
<circle cx="270.78737349638834" cy="320.16552395798266" r="10" fill="#2e7d32" fill-opacity="0.7" />
<circle cx="270.5581132811774" cy="323.04478377256635" r="12" fill="#66bb6a" fill-opacity="0.7" />
<circle cx="285.1333595726248" cy="326.8569723946386" r="13" fill="#a5d6a7" fill-opacity="0.7" />
<path d="M376,400 Q432.8181818181818,380 444.3880708127328,309.2459647673531" stroke="#5d4037" stroke-width="8" fill="none" stroke-linecap="round" stroke-opacity="1.0" />
<circle cx="449.20145779146645" cy="305.34210561717873" r="9" fill="#43a047" fill-opacity="0.7" />
<circle cx="410.7878113705874" cy="292.3261100198964" r="10" fill="#a5d6a7" fill-opacity="0.7" />
<circle cx="466.3585114333257" cy="284.87443888537837" r="12" fill="#2e7d32" fill-opacity="0.7" />
<circle cx="450.58379398159394" cy="287.36597940297384" r="11" fill="#2e7d32" fill-opacity="0.7" />
<circle cx="423.3937514922808" cy="335.9314940917167" r="10" fill="#a5d6a7" fill-opacity="0.7" />
<circle cx="420.955988918506" cy="318.8132869515491" r="16" fill="#43a047" fill-opacity="0.7" />
<circle cx="417.9982455915319" cy="301.35190071887956" r="11" fill="#2e7d32" fill-opacity="0.7" />
<circle cx="410.74102702451006" cy="278.7959775115861" r="13" fill="#43a047" fill-opacity="0.7" />
<circle cx="475.25323235545807" cy="304.99659202788973" r="15" fill="#43a047" fill-opacity="0.7" />
<circle cx="475.6445987379553" cy="317.3748981031454" r="11" fill="#a5d6a7" fill-opacity="0.7" />
<path d="M376,385 Q319.66883116883116,365 297.7381641073792,303.9574965202883" stroke="#5d4037" stroke-width="8" fill="none" stroke-linecap="round" stroke-opacity="1.0" />
<circle cx="332.6025070204596" cy="282.8179286353866" r="16" fill="#2e7d32" fill-opacity="0.7" />
<circle cx="289.3838978516439" cy="337.9371078225827" r="12" fill="#43a047" fill-opacity="0.7" />
<circle cx="315.36533458429653" cy="303.79626872954003" r="15" fill="#a5d6a7" fill-opacity="0.7" />
<circle cx="270.7499796068328" cy="286.7159092300874" r="16" fill="#66bb6a" fill-opacity="0.7" />
<circle cx="309.58434636435504" cy="307.6240503818278" r="16" fill="#43a047" fill-opacity="0.7" />
<circle cx="330.7901575695707" cy="327.66700038782426" r="15" fill="#2e7d32" fill-opacity="0.7" />
<circle cx="300.13952383201547" cy="286.7133946309067" r="15" fill="#43a047" fill-opacity="0.7" />
<circle cx="287.5143188328756" cy="321.5998862243466" r="12" fill="#43a047" fill-opacity="0.7" />
<circle cx="304.877251091912" cy="294.4735160109294" r="10" fill="#43a047" fill-opacity="0.7" />
<circle cx="311.59336288764496" cy="286.20014718928655" r="16" fill="#66bb6a" fill-opacity="0.7" />
<path d="M376,370 Q432.33116883116884,350 446.9007063942512,282.4449192774127" stroke="#5d4037" stroke-width="8" fill="none" stroke-linecap="round" stroke-opacity="1.0" />
<circle cx="477.6746915672825" cy="287.8125512258704" r="13" fill="#66bb6a" fill-opacity="0.7" />
<circle cx="445.028309320143" cy="305.3242031602327" r="15" fill="#2e7d32" fill-opacity="0.7" />
<circle cx="471.98712257005246" cy="305.5082333894572" r="11" fill="#66bb6a" fill-opacity="0.7" />
<circle cx="453.1551880733796" cy="316.0244583074726" r="11" fill="#66bb6a" fill-opacity="0.7" />
<circle cx="454.0181622877701" cy="304.0756071135425" r="16" fill="#66bb6a" fill-opacity="0.7" />
<circle cx="424.4619019233971" cy="308.7556924437526" r="13" fill="#a5d6a7" fill-opacity="0.7" />
<circle cx="425.2195411741867" cy="269.03816278408374" r="8" fill="#43a047" fill-opacity="0.7" />
<circle cx="475.70588078117106" cy="289.2448485344913" r="10" fill="#66bb6a" fill-opacity="0.7" />
<circle cx="418.1058691163109" cy="262.7198123252306" r="10" fill="#66bb6a" fill-opacity="0.7" />
<circle cx="419.7110790830532" cy="252.80594229275124" r="8" fill="#a5d6a7" fill-opacity="0.7" />
<path d="M376,355 Q320.15584415584414,335 313.54468870326724,262.4061931951512" stroke="#5d4037" stroke-width="8" fill="none" stroke-linecap="round" stroke-opacity="1.0" />
<circle cx="324.79656321542325" cy="230.99711539670264" r="8" fill="#2e7d32" fill-opacity="0.7" />
<circle cx="295.5446472091623" cy="271.8374591441837" r="8" fill="#a5d6a7" fill-opacity="0.7" />
<circle cx="335.9184354502686" cy="289.02232986135436" r="9" fill="#43a047" fill-opacity="0.7" />
<circle cx="316.70826031505925" cy="274.8111515706129" r="15" fill="#66bb6a" fill-opacity="0.7" />
<circle cx="326.6210983919751" cy="280.5969097575559" r="14" fill="#43a047" fill-opacity="0.7" />
<circle cx="280.93408988482616" cy="273.1726920369871" r="15" fill="#66bb6a" fill-opacity="0.7" />
<circle cx="330.57521190713965" cy="237.99969102157445" r="8" fill="#a5d6a7" fill-opacity="0.7" />
<circle cx="302.48477780825726" cy="260.88017053018393" r="14" fill="#a5d6a7" fill-opacity="0.7" />
<circle cx="314.42259683123416" cy="266.94681240722485" r="10" fill="#a5d6a7" fill-opacity="0.7" />
<circle cx="292.87795278582337" cy="233.3774151746757" r="16" fill="#a5d6a7" fill-opacity="0.7" />
<text x="400" y="580" font-family="Segoe UI, Helvetica, Arial, sans-serif" font-size="20" fill="#3e2723" text-anchor="middle" font-weight="bold">@prithwiraj84's Contribution Garden</text>
<text x="400" y="595" font-family="Segoe UI, Helvetica, Arial, sans-serif" font-size="14" fill="#5d4037" text-anchor="middle" font-weight="bold">Grown over 5 years</text></svg>