<svg xmlns="http://www.w3.org/2000/svg" width="800" height="600" viewBox="0 0 800 600">
        <defs>
            <linearGradient id="sky" x1="0%" y1="0%" x2="0%" y2="100%">
                <stop offset="0%" style="stop-color:#e0f7fa;stop-opacity:1" />
                <stop offset="100%" style="stop-color:#ffffff;stop-opacity:1" />
            </linearGradient>
            <filter id="glow" x="-20%" y="-20%" width="140%" height="140%">
                <feGaussianBlur stdDeviation="2" result="coloredBlur"/>
                <feMerge>
                    <feMergeNode in="coloredBlur"/>
                    <feMergeNode in="SourceGraphic"/>
                </feMerge>
            </filter>
        </defs>
        <rect width="100%" height="100%" fill="url(#sky)"/><path d="M0,550 Q400,530 800,550 L800,600 L0,600 Z" stroke="#4e342e" stroke-width="0" fill="#5d4037" stroke-linecap="round" stroke-opacity="1.0" />
<path d="M0,550 Q400,530 800,550" stroke="none" stroke-width="0" fill="#76ff03" stroke-linecap="round" stroke-opacity="0.1" />
<path d="M400,550 Q388.5,470.0 377,390" stroke="#4e342e" stroke-width="35" fill="none" stroke-linecap="round" stroke-opacity="1.0" />
<path d="M377,430 Q461.65517241379314,410 478.89350909229506,294.7827464023377" stroke="#5d4037" stroke-width="8" fill="none" stroke-linecap="round" stroke-opacity="1.0" />
<circle cx="467.16481550684983" cy="274.46341949942587" r="14" fill="#2e7d32" fill-opacity="0.7" />
<circle cx="471.9209902176134" cy="316.4441802223486" r="15" fill="#2e7d32" fill-opacity="0.7" />
<circle cx="481.39355607836876" cy="329.0824430764508" r="13" fill="#66bb6a" fill-opacity="0.7" />
<circle cx="479.8097292541312" cy="325.7381033667012" r="8" fill="#66bb6a" fill-opacity="0.7" />
<circle cx="473.1665049876765" cy="324.48451847081594" r="13" fill="#a5d6a7" fill-opacity="0.7" />
<circle cx="509.6389413090885" cy="313.2204154117525" r="16" fill="#2e7d32" fill-opacity="0.7" />
<circle cx="456.36055855762964" cy="328.79247121626474" r="8" fill="#43a047" fill-opacity="0.7" />
<circle cx="445.892553343694" cy="295.9903190335444" r="16" fill="#43a047" fill-opacity="0.7" />
<circle cx="510.2340172153352" cy="296.92767336512645" r="10" fill="#43a047" fill-opacity="0.7" />
<circle cx="460.71456866711316" cy="309.4592810144876" r="13" fill="#a5d6a7" fill-opacity="0.7" />
<circle cx="449.8611296670055" cy="298.58693599493137" r="12" fill="#a5d6a7" fill-opacity="0.7" />
<circle cx="505.9163101949554" cy="312.72666846348636" r="15" fill="#66bb6a" fill-opacity="0.7" />
<circle cx="486.65141018098166" cy="300.53896562899934" r="10" fill="#43a047" fill-opacity="0.7" />
<path d="M377,415 Q313.0344827586207,395 284.9741151980553,326.13163605507316" stroke="#5d4037" stroke-width="8" fill="none" stroke-linecap="round" stroke-opacity="1.0" />
<circle cx="274.32098700570157" cy="337.59253234459555" r="15" fill="#a5d6a7" fill-opacity="0.7" />
<circle cx="259.0763760498389" cy="328.2984482549956" r="9" fill="#a5d6a7" fill-opacity="0.7" />
<circle cx="307.61076754425795" cy="355.869442249552" r="15" fill="#43a047" fill-opacity="0.7" />
<circle cx="316.83565195518025" cy="317.8613716401212" r="16" fill="#43a047" fill-opacity="0.7" />
<circle cx="311.66656859927264" cy="341.3052825341884" r="13" fill="#43a047" fill-opacity="0.7" />
<circle cx="305.28245250338813" cy="336.83895048442685" r="12" fill="#66bb6a" fill-opacity="0.7" />
<circle cx="301.25186806886177" cy="352.2435354849237" r="12" fill="#66bb6a" fill-opacity="0.7" />
<circle cx="309.91940014126806" cy="344.5531886957136" r="10" fill="#2e7d32" fill-opacity="0.7" />
<circle cx="272.9332286078084" cy="329.55345832479674" r="16" fill="#43a047" fill-opacity="0.7" />
<circle cx="263.0702499324437" cy="294.5672034904591" r="14" fill="#43a047" fill-opacity="0.7" />
<path d="M377,400 Q434.2413793103448,380 470.77878575998113,334.3353872867078" stroke="#5d4037" stroke-width="8" fill="none" stroke-linecap="round" stroke-opacity="1.0" />
<circle cx="457.69227752032987" cy="349.07812985567773" r="8" fill="#a5d6a7" fill-opacity="0.7" />
<circle cx="497.8614744756644" cy="312.7781631949086" r="14" fill="#2e7d32" fill-opacity="0.7" />
<circle cx="459.0106666236605" cy="338.655888592643" r="14" fill="#a5d6a7" fill-opacity="0.7" />
<circle cx="441.95672447529705" cy="342.03017737021725" r="12" fill="#66bb6a" fill-opacity="0.7" />
<circle cx="453.82157686922005" cy="346.3896612849511" r="13" fill="#66bb6a" fill-opacity="0.7" />
<circle cx="473.37516772150434" cy="345.11895581692426" r="15" fill="#a5d6a7" fill-opacity="0.7" />
<circle cx="503.8645663990413" cy="362.38328043815864" r="13" fill="#66bb6a" fill-opacity="0.7" />
<circle cx="494.8623135696571" cy="346.79863271591483" r="14" fill="#66bb6a" fill-opacity="0.7" />
<circle cx="485.79410789227745" cy="351.74680360919575" r="9" fill="#2e7d32" fill-opacity="0.7" />
<circle cx="464.9346604057129" cy="350.7758739934343" r="9" fill="#43a047" fill-opacity="0.7" />
<path d="M377,385 Q320.2758620689655,365 291.3794993471407,310.5712342972838" stroke="#5d4037" stroke-width="8" fill="none" stroke-linecap="round" stroke-opacity="1.0" />
<circle cx="291.32800656500063" cy="315.0731917232317" r="15" fill="#43a047" fill-opacity="0.7" />
<circle cx="299.7176800942888" cy="338.41049367879725" r="9" fill="#a5d6a7" fill-opacity="0.7" />
<circle cx="324.7531410735702" cy="333.6515589609203" r="8" fill="#2e7d32" fill-opacity="0.7" />
<circle cx="304.7302143397935" cy="334.3594315150749" r="12" fill="#43a047" fill-opacity="0.7" />
<circle cx="303.1136120863339" cy="342.73098861689283" r="15" fill="#2e7d32" fill-opacity="0.7" />
<circle cx="326.3023248249048" cy="291.8677755142301" r="15" fill="#2e7d32" fill-opacity="0.7" />
<circle cx="289.7680973745463" cy="306.48665870176995" r="12" fill="#2e7d32" fill-opacity="0.7" />
<circle cx="307.3988753199731" cy="305.5226002056216" r="15" fill="#2e7d32" fill-opacity="0.7" />
<circle cx="298.235082321329" cy="295.3631041886039" r="13" fill="#66bb6a" fill-opacity="0.7" />
<circle cx="320.80605615339306" cy="289.2466939995517" r="16" fill="#43a047" fill-opacity="0.7" />
<path d="M377,370 Q433.7241379310345,350 435.4301816018648,272.75584761000175" stroke="#5d4037" stroke-width="8" fill="none" stroke-linecap="round" stroke-opacity="1.0" />
<circle cx="431.51942923708276" cy="251.6060735721671" r="15" fill="#a5d6a7" fill-opacity="0.7" />
<circle cx="402.33410868615266" cy="268.10730318560826" r="13" fill="#a5d6a7" fill-opacity="0.7" />
<circle cx="414.6725698051509" cy="268.19992244468887" r="11" fill="#2e7d32" fill-opacity="0.7" />
<circle cx="447.4698017626384" cy="284.83846798713864" r="16" fill="#a5d6a7" fill-opacity="0.7" />
<circle cx="469.1079875697984" cy="239.4021500804093" r="10" fill="#a5d6a7" fill-opacity="0.7" />
<circle cx="410.2700643294644" cy="244.590507627787" r="16" fill="#a5d6a7" fill-opacity="0.7" />
<circle cx="446.17255694426285" cy="278.92612355002115" r="15" fill="#66bb6a" fill-opacity="0.7" />
<circle cx="412.8286813589658" cy="253.50170226265078" r="9" fill="#43a047" fill-opacity="0.7" />
<circle cx="412.1055952336251" cy="303.2136377056959" r="14" fill="#43a047" fill-opacity="0.7" />
<circle cx="414.5565809850131" cy="289.2932103393034" r="8" fill="#a5d6a7" fill-opacity="0.7" />
<path d="M377,355 Q321.3103448275862,335 326.4348512359057,255.76030782315763" stroke="#5d4037" stroke-width="8" fill="none" stroke-linecap="round" stroke-opacity="1.0" />
<circle cx="295.72946650980424" cy="290.3530909733412" r="9" fill="#43a047" fill-opacity="0.7" />
<circle cx="293.01472183463824" cy="263.91810482885415" r="12" fill="#a5d6a7" fill-opacity="0.7" />
<circle cx="293.0443648777104" cy="225.6499991092732" r="13" fill="#2e7d32" fill-opacity="0.7" />
<circle cx="295.6106957523734" cy="250.62058335954413" r="16" fill="#43a047" fill-opacity="0.7" />
<circle cx="311.5733464032993" cy="251.47792336075304" r="16" fill="#43a047" fill-opacity="0.7" />
<circle cx="357.65065541139353" cy="267.01651412998547" r="11" fill="#43a047" fill-opacity="0.7" />
<circle cx="340.879841560384" cy="267.9773521836206" r="16" fill="#66bb6a" fill-opacity="0.7" />
<circle cx="338.3948103233715" cy="233.70782193333883" r="14" fill="#66bb6a" fill-opacity="0.7" />
<circle cx="331.5904318496458" cy="269.0148377608729" r="13" fill="#66bb6a" fill-opacity="0.7" />
<circle cx="312.3455948884024" cy="261.45585557767157" r="9" fill="#2e7d32" fill-opacity="0.7" />
<text x="400" y="580" font-family="Segoe UI, Helvetica, Arial, sans-serif" font-size="20" fill="#3e2723" text-anchor="middle" font-weight="bold">@prithwiraj84's Contribution Garden</text>
<text x="400" y="595" font-family="Segoe UI, Helvetica, Arial, sans-serif" font-size="14" fill="#5d4037" text-anchor="middle" font-weight="bold">Grown over 5 years</text></svg>