<svg xmlns="http://www.w3.org/2000/svg" width="800" height="600" viewBox="0 0 800 600">
        <defs>
            <linearGradient id="sky" x1="0%" y1="0%" x2="0%" y2="100%">
                <stop offset="0%" style="stop-color:#e0f7fa;stop-opacity:1" />
                <stop offset="100%" style="stop-color:#ffffff;stop-opacity:1" />
            </linearGradient>
            <filter id="glow" x="-20%" y="-20%" width="140%" height="140%">
                <feGaussianBlur stdDeviation="2" result="coloredBlur"/>
                <feMerge>
                    <feMergeNode in="coloredBlur"/>
                    <feMergeNode in="SourceGraphic"/>
                </feMerge>
            </filter>
        </defs>
        <rect width="100%" height="100%" fill="url(#sky)"/><path d="M0,550 Q400,530 800,550 L800,600 L0,600 Z" stroke="#4e342e" stroke-width="0" fill="#5d4037" stroke-linecap="round" stroke-opacity="1.0" />
<path d="M0,550 Q400,530 800,550" stroke="none" stroke-width="0" fill="#76ff03" stroke-linecap="round" stroke-opacity="0.1" />
<path d="M400,550 Q404.0,470.0 408,390" stroke="#4e342e" stroke-width="35" fill="none" stroke-linecap="round" stroke-opacity="1.0" />
<path d="M408,430 Q496.8719512195122,410 557.0685796073726,333.1937324958046" stroke="#5d4037" stroke-width="8" fill="none" stroke-linecap="round" stroke-opacity="1.0" />
<circle cx="586.8771208455802" cy="354.0377602694419" r="9" fill="#2e7d32" fill-opacity="0.7" />
<circle cx="526.2243389897106" cy="315.0515283571107" r="11" fill="#66bb6a" fill-opacity="0.7" />
<circle cx="565.057481943955" cy="365.02618336151124" r="11" fill="#2e7d32" fill-opacity="0.7" />
<circle cx="563.8070804278674" cy="367.35570368606835" r="12" fill="#2e7d32" fill-opacity="0.7" />
<circle cx="572.1770572356905" cy="338.0766463432747" r="15" fill="#43a047" fill-opacity="0.7" />
<circle cx="532.2647465295927" cy="300.75799954717553" r="13" fill="#a5d6a7" fill-opacity="0.7" />
<circle cx="534.9919060019577" cy="300.47680177290454" r="8" fill="#43a047" fill-opacity="0.7" />
<circle cx="584.6426560202503" cy="348.7911678184531" r="8" fill="#a5d6a7" fill-opacity="0.7" />
<circle cx="576.2934520287159" cy="336.8439288816011" r="16" fill="#2e7d32" fill-opacity="0.7" />
<circle cx="564.3849493284594" cy="309.23603824376045" r="12" fill="#66bb6a" fill-opacity="0.7" />
<circle cx="587.9521699429166" cy="345.06343403687674" r="15" fill="#43a047" fill-opacity="0.7" />
<circle cx="554.1443262021468" cy="317.69343301097797" r="14" fill="#a5d6a7" fill-opacity="0.7" />
<circle cx="560.4685174155073" cy="361.0707496165329" r="9" fill="#66bb6a" fill-opacity="0.7" />
<circle cx="556.9996855030913" cy="326.9802605535743" r="8" fill="#2e7d32" fill-opacity="0.7" />
<circle cx="566.0848947265068" cy="305.08826088858336" r="9" fill="#a5d6a7" fill-opacity="0.7" />
<circle cx="573.3466968581146" cy="333.68737846014784" r="9" fill="#66bb6a" fill-opacity="0.7" />
<circle cx="577.8426223389276" cy="365.978995687527" r="11" fill="#43a047" fill-opacity="0.7" />
<path d="M408,415 Q345.6524390243902,395 297.9007422319204,356.45918622578375" stroke="#5d4037" stroke-width="8" fill="none" stroke-linecap="round" stroke-opacity="1.0" />
<circle cx="295.832927262139" cy="369.7772702937721" r="13" fill="#43a047" fill-opacity="0.7" />
<circle cx="291.40440528212355" cy="349.5622989008954" r="14" fill="#43a047" fill-opacity="0.7" />
<circle cx="328.7078905987908" cy="338.07720634294134" r="8" fill="#a5d6a7" fill-opacity="0.7" />
<circle cx="278.5207829784306" cy="337.8361220152624" r="13" fill="#43a047" fill-opacity="0.7" />
<circle cx="287.9194905657932" cy="389.7356087524728" r="12" fill="#43a047" fill-opacity="0.7" />
<circle cx="284.2087103368266" cy="326.7645402322371" r="12" fill="#43a047" fill-opacity="0.7" />
<circle cx="299.53087096645953" cy="364.3192610893654" r="8" fill="#2e7d32" fill-opacity="0.7" />
<circle cx="325.3282979330296" cy="346.3172088349537" r="16" fill="#2e7d32" fill-opacity="0.7" />
<circle cx="272.2436543793044" cy="367.12229410792315" r="9" fill="#66bb6a" fill-opacity="0.7" />
<circle cx="273.33721469331795" cy="352.7784062795501" r="12" fill="#a5d6a7" fill-opacity="0.7" />
<path d="M408,400 Q464.4024390243902,380 484.9327418363184,317.4997348783253" stroke="#5d4037" stroke-width="8" fill="none" stroke-linecap="round" stroke-opacity="1.0" />
<circle cx="500.84275234430197" cy="341.0130128838848" r="10" fill="#2e7d32" fill-opacity="0.7" />
<circle cx="492.95712702620386" cy="338.6933026498565" r="11" fill="#2e7d32" fill-opacity="0.7" />
<circle cx="496.8287887585677" cy="315.44955764060785" r="8" fill="#2e7d32" fill-opacity="0.7" />
<circle cx="484.5434705279421" cy="298.3436970204562" r="8" fill="#43a047" fill-opacity="0.7" />
<circle cx="485.3005056314329" cy="332.4473044153067" r="8" fill="#66bb6a" fill-opacity="0.7" />
<circle cx="498.0035861420897" cy="305.7552673882367" r="16" fill="#43a047" fill-opacity="0.7" />
<circle cx="479.18246225444204" cy="335.2352378119859" r="10" fill="#a5d6a7" fill-opacity="0.7" />
<circle cx="465.811370438129" cy="324.287977899133" r="15" fill="#2e7d32" fill-opacity="0.7" />
<circle cx="455.6409959074617" cy="350.2295041589394" r="16" fill="#a5d6a7" fill-opacity="0.7" />
<circle cx="507.63677492514915" cy="309.430748082288" r="16" fill="#66bb6a" fill-opacity="0.7" />
<circle cx="493.32493412628247" cy="315.1821800413492" r="5" fill="#ffeb3b" fill-opacity="1.0" />
<circle cx="493.32493412628247" cy="315.1821800413492" r="9" fill="#ffeb3b" fill-opacity="0.3" />
<path d="M408,385 Q352.0548780487805,365 331.69103715154364,303.16865594687937" stroke="#5d4037" stroke-width="8" fill="none" stroke-linecap="round" stroke-opacity="1.0" />
<circle cx="342.3511068306756" cy="274.93330433414474" r="10" fill="#43a047" fill-opacity="0.7" />
<circle cx="300.42256105971" cy="329.0250794925164" r="15" fill="#a5d6a7" fill-opacity="0.7" />
<circle cx="304.94610531218956" cy="316.9487784408803" r="13" fill="#a5d6a7" fill-opacity="0.7" />
<circle cx="350.54636268905756" cy="280.24076647060224" r="16" fill="#2e7d32" fill-opacity="0.7" />
<circle cx="344.5945963747124" cy="302.5316163132472" r="10" fill="#a5d6a7" fill-opacity="0.7" />
<circle cx="299.1312548224353" cy="317.5214086460853" r="10" fill="#a5d6a7" fill-opacity="0.7" />
<circle cx="342.7571287804286" cy="274.5101926068199" r="12" fill="#43a047" fill-opacity="0.7" />
<circle cx="304.9145543819723" cy="286.64699229953567" r="10" fill="#a5d6a7" fill-opacity="0.7" />
<circle cx="306.6985504777637" cy="337.6706563509918" r="8" fill="#43a047" fill-opacity="0.7" />
<circle cx="356.640591012591" cy="270.48815673819666" r="10" fill="#a5d6a7" fill-opacity="0.7" />
<path d="M408,370 Q463.9451219512195,350 504.8997936551491,314.0548780487805" stroke="#5d4037" stroke-width="8" fill="none" stroke-linecap="round" stroke-opacity="1.0" />
<circle cx="487.1649085913473" cy="328.73457366672903" r="14" fill="#43a047" fill-opacity="0.7" />
<circle cx="510.63821091391503" cy="337.58992071874303" r="12" fill="#a5d6a7" fill-opacity="0.7" />
<circle cx="515.4234349782441" cy="297.66350284233346" r="15" fill="#2e7d32" fill-opacity="0.7" />
<circle cx="514.3125806875422" cy="326.20012581202633" r="15" fill="#a5d6a7" fill-opacity="0.7" />
<circle cx="539.1153496545888" cy="347.87070139791" r="12" fill="#66bb6a" fill-opacity="0.7" />
<circle cx="519.9742874536386" cy="283.61522762720966" r="13" fill="#66bb6a" fill-opacity="0.7" />
<circle cx="502.7370423146231" cy="296.37446103699665" r="15" fill="#2e7d32" fill-opacity="0.7" />
<circle cx="488.78462568749575" cy="345.3564291454161" r="16" fill="#43a047" fill-opacity="0.7" />
<circle cx="501.78091362464244" cy="279.30208677017066" r="13" fill="#66bb6a" fill-opacity="0.7" />
<circle cx="501.4945440666499" cy="300.72884926468646" r="9" fill="#2e7d32" fill-opacity="0.7" />
<path d="M408,355 Q352.5121951219512,335 308.25578266679975,306.3514946856024" stroke="#5d4037" stroke-width="8" fill="none" stroke-linecap="round" stroke-opacity="1.0" />
<circle cx="280.89173430418987" cy="310.51214410400144" r="11" fill="#66bb6a" fill-opacity="0.7" />
<circle cx="297.6884599027853" cy="299.8442197028667" r="12" fill="#a5d6a7" fill-opacity="0.7" />
<circle cx="322.91602580388934" cy="283.4574153399504" r="8" fill="#43a047" fill-opacity="0.7" />
<circle cx="338.84013782488967" cy="330.5307377088419" r="11" fill="#2e7d32" fill-opacity="0.7" />
<circle cx="342.54968305028115" cy="335.7703293500547" r="9" fill="#a5d6a7" fill-opacity="0.7" />
<circle cx="299.2415428955543" cy="331.88151892293695" r="10" fill="#66bb6a" fill-opacity="0.7" />
<circle cx="321.5419558434442" cy="297.17720907866016" r="8" fill="#43a047" fill-opacity="0.7" />
<circle cx="342.71747859874336" cy="291.93238922794166" r="14" fill="#2e7d32" fill-opacity="0.7" />
<circle cx="293.54957855039464" cy="327.72449828133483" r="14" fill="#a5d6a7" fill-opacity="0.7" />
<circle cx="326.93052608816265" cy="338.370567324186" r="9" fill="#a5d6a7" fill-opacity="0.7" />
<text x="400" y="580" font-family="Segoe UI, Helvetica, Arial, sans-serif" font-size="20" fill="#3e2723" text-anchor="middle" font-weight="bold">@prithwiraj84's Contribution Garden</text>
<text x="400" y="595" font-family="Segoe UI, Helvetica, Arial, sans-serif" font-size="14" fill="#5d4037" text-anchor="middle" font-weight="bold">Grown over 5 years</text></svg>