<svg xmlns="http://www.w3.org/2000/svg" width="800" height="600" viewBox="0 0 800 600">
        <defs>
            <linearGradient id="sky" x1="0%" y1="0%" x2="0%" y2="100%">
                <stop offset="0%" style="stop-color:#e0f7fa;stop-opacity:1" />
                <stop offset="100%" style="stop-color:#ffffff;stop-opacity:1" />
            </linearGradient>
            <filter id="glow" x="-20%" y="-20%" width="140%" height="140%">
                <feGaussianBlur stdDeviation="2" result="coloredBlur"/>
                <feMerge>
                    <feMergeNode in="coloredBlur"/>
                    <feMergeNode in="SourceGraphic"/>
                </feMerge>
            </filter>
        </defs>
        <rect width="100%" height="100%" fill="url(#sky)"/><path d="M0,550 Q400,530 800,550 L800,600 L0,600 Z" stroke="#4e342e" stroke-width="0" fill="#5d4037" stroke-linecap="round" stroke-opacity="1.0" />
<path d="M0,550 Q400,530 800,550" stroke="none" stroke-width="0" fill="#76ff03" stroke-linecap="round" stroke-opacity="0.1" />
<path d="M400,550 Q391.5,470.0 383,390" stroke="#4e342e" stroke-width="35" fill="none" stroke-linecap="round" stroke-opacity="1.0" />
<path d="M383,430 Q461.42105263157896,410 516.0096487655868,346.88634697816053" stroke="#5d4037" stroke-width="8" fill="none" stroke-linecap="round" stroke-opacity="1.0" />
<circle cx="537.2935537473251" cy="353.7410333206486" r="13" fill="#66bb6a" fill-opacity="0.7" />
<circle cx="499.9530302100336" cy="316.7371450024484" r="8" fill="#2e7d32" fill-opacity="0.7" />
<circle cx="500.257600412253" cy="353.12806615630666" r="10" fill="#66bb6a" fill-opacity="0.7" />
<circle cx="496.04824812169943" cy="321.3368062272942" r="14" fill="#a5d6a7" fill-opacity="0.7" />
<circle cx="509.45407423209923" cy="334.3626134201789" r="16" fill="#2e7d32" fill-opacity="0.7" />
<circle cx="528.5650972537358" cy="363.45064574152525" r="13" fill="#43a047" fill-opacity="0.7" />
<circle cx="499.0553942210149" cy="369.58082238075235" r="10" fill="#a5d6a7" fill-opacity="0.7" />
<circle cx="491.64939968012817" cy="372.118470357616" r="16" fill="#43a047" fill-opacity="0.7" />
<circle cx="514.2417310397987" cy="329.3350192663243" r="11" fill="#2e7d32" fill-opacity="0.7" />
<circle cx="501.7918648767686" cy="317.56392887723706" r="10" fill="#2e7d32" fill-opacity="0.7" />
<path d="M383,415 Q315.63157894736844,395 286.07842690173965,321.4039248223667" stroke="#5d4037" stroke-width="8" fill="none" stroke-linecap="round" stroke-opacity="1.0" />
<circle cx="309.12695802858144" cy="287.54285962907085" r="11" fill="#66bb6a" fill-opacity="0.7" />
<circle cx="268.95293595500993" cy="339.74196980660895" r="13" fill="#a5d6a7" fill-opacity="0.7" />
<circle cx="301.9156597722989" cy="291.5011089725568" r="10" fill="#66bb6a" fill-opacity="0.7" />
<circle cx="304.82524694110657" cy="350.8586733619183" r="14" fill="#66bb6a" fill-opacity="0.7" />
<circle cx="258.4510615120361" cy="296.0709619251106" r="14" fill="#2e7d32" fill-opacity="0.7" />
<circle cx="305.25719277173954" cy="349.27579493770855" r="12" fill="#43a047" fill-opacity="0.7" />
<circle cx="285.0297809840714" cy="345.2299968566492" r="8" fill="#2e7d32" fill-opacity="0.7" />
<circle cx="294.21146821549036" cy="302.3195809831067" r="8" fill="#a5d6a7" fill-opacity="0.7" />
<circle cx="290.6211869391116" cy="300.08472374507477" r="9" fill="#2e7d32" fill-opacity="0.7" />
<circle cx="274.1973362560975" cy="349.3528233561176" r="15" fill="#2e7d32" fill-opacity="0.7" />
<path d="M383,400 Q443.2631578947368,380 479.2565956846474,327.46545247272684" stroke="#5d4037" stroke-width="8" fill="none" stroke-linecap="round" stroke-opacity="1.0" />
<circle cx="460.4349107625421" cy="349.06026045180397" r="11" fill="#2e7d32" fill-opacity="0.7" />
<circle cx="444.29173846904814" cy="358.8228219004646" r="14" fill="#a5d6a7" fill-opacity="0.7" />
<circle cx="451.0370574000096" cy="302.12603542091216" r="10" fill="#2e7d32" fill-opacity="0.7" />
<circle cx="463.69482890048886" cy="327.4049384282791" r="14" fill="#43a047" fill-opacity="0.7" />
<circle cx="448.4792676164988" cy="330.0614475844676" r="14" fill="#2e7d32" fill-opacity="0.7" />
<circle cx="467.1392542759113" cy="328.51239371401357" r="11" fill="#43a047" fill-opacity="0.7" />
<circle cx="469.46435655434317" cy="308.4064968451154" r="15" fill="#66bb6a" fill-opacity="0.7" />
<circle cx="513.9811442249685" cy="349.29903569930906" r="14" fill="#43a047" fill-opacity="0.7" />
<circle cx="501.91547838189456" cy="320.38729363594877" r="8" fill="#43a047" fill-opacity="0.7" />
<circle cx="500.94968562452664" cy="302.2195529402122" r="14" fill="#66bb6a" fill-opacity="0.7" />
<path d="M383,385 Q323.5263157894737,365 281.0422052849067,323.73757635280407" stroke="#5d4037" stroke-width="8" fill="none" stroke-linecap="round" stroke-opacity="1.0" />
<circle cx="252.80609309374904" cy="322.27930995519597" r="10" fill="#66bb6a" fill-opacity="0.7" />
<circle cx="292.57905737039005" cy="321.6384764571904" r="15" fill="#2e7d32" fill-opacity="0.7" />
<circle cx="252.79777120857793" cy="342.9036442814766" r="14" fill="#43a047" fill-opacity="0.7" />
<circle cx="292.5060988043644" cy="318.1328771541231" r="15" fill="#43a047" fill-opacity="0.7" />
<circle cx="257.8398588800409" cy="293.3093757127035" r="15" fill="#2e7d32" fill-opacity="0.7" />
<circle cx="288.758553403097" cy="299.95719204239253" r="11" fill="#66bb6a" fill-opacity="0.7" />
<circle cx="279.82974902541304" cy="300.8797777700446" r="8" fill="#2e7d32" fill-opacity="0.7" />
<circle cx="259.8937654967218" cy="309.56974188327627" r="13" fill="#2e7d32" fill-opacity="0.7" />
<circle cx="285.9896172118698" cy="319.403414452551" r="16" fill="#a5d6a7" fill-opacity="0.7" />
<circle cx="273.8767231883928" cy="325.8598565894457" r="14" fill="#66bb6a" fill-opacity="0.7" />
<path d="M383,370 Q439.3157894736842,350 453.88134930771855,282.46882328853064" stroke="#5d4037" stroke-width="8" fill="none" stroke-linecap="round" stroke-opacity="1.0" />
<circle cx="430.26151142235267" cy="289.5170711638757" r="10" fill="#43a047" fill-opacity="0.7" />
<circle cx="480.4187471243945" cy="293.4166696455799" r="15" fill="#66bb6a" fill-opacity="0.7" />
<circle cx="485.2899698099734" cy="303.13948494530143" r="12" fill="#66bb6a" fill-opacity="0.7" />
<circle cx="481.1429425811147" cy="303.2249400561542" r="14" fill="#a5d6a7" fill-opacity="0.7" />
<circle cx="418.93738991361886" cy="272.7367710596841" r="8" fill="#66bb6a" fill-opacity="0.7" />
<circle cx="487.0875947251535" cy="313.9390738312471" r="10" fill="#43a047" fill-opacity="0.7" />
<circle cx="482.615741314202" cy="282.23827410108004" r="14" fill="#43a047" fill-opacity="0.7" />
<circle cx="439.2997988922655" cy="255.17052896274302" r="16" fill="#a5d6a7" fill-opacity="0.7" />
<circle cx="430.73966456804885" cy="258.9465341283449" r="8" fill="#43a047" fill-opacity="0.7" />
<circle cx="467.1333879764985" cy="264.1414944853099" r="11" fill="#66bb6a" fill-opacity="0.7" />
<path d="M383,355 Q329.8421052631579,335 289.1287296013141,305.08776016697374" stroke="#5d4037" stroke-width="8" fill="none" stroke-linecap="round" stroke-opacity="1.0" />
<circle cx="257.30592305533685" cy="279.9277354835976" r="13" fill="#66bb6a" fill-opacity="0.7" />
<circle cx="319.6322338332848" cy="277.4521634891474" r="13" fill="#2e7d32" fill-opacity="0.7" />
<circle cx="308.3369961663891" cy="332.3004004626314" r="9" fill="#43a047" fill-opacity="0.7" />
<circle cx="317.3123099522492" cy="280.9487182005243" r="10" fill="#43a047" fill-opacity="0.7" />
<circle cx="260.8546815697081" cy="288.6581986673979" r="10" fill="#66bb6a" fill-opacity="0.7" />
<circle cx="321.7861432129241" cy="282.34949253373213" r="13" fill="#66bb6a" fill-opacity="0.7" />
<circle cx="317.28002823209226" cy="287.5393823771968" r="12" fill="#66bb6a" fill-opacity="0.7" />
<circle cx="288.02264619172945" cy="312.3295769935075" r="16" fill="#2e7d32" fill-opacity="0.7" />
<circle cx="275.6268684409299" cy="305.3442596161088" r="14" fill="#a5d6a7" fill-opacity="0.7" />
<circle cx="298.1160413605518" cy="303.95314527052875" r="13" fill="#66bb6a" fill-opacity="0.7" />
<text x="400" y="580" font-family="Segoe UI, Helvetica, Arial, sans-serif" font-size="20" fill="#3e2723" text-anchor="middle" font-weight="bold">@prithwiraj84's Contribution Garden</text>
<text x="400" y="595" font-family="Segoe UI, Helvetica, Arial, sans-serif" font-size="14" fill="#5d4037" text-anchor="middle" font-weight="bold">Grown over 5 years</text></svg>