<svg xmlns="http://www.w3.org/2000/svg" width="800" height="600" viewBox="0 0 800 600">
        <defs>
            <linearGradient id="sky" x1="0%" y1="0%" x2="0%" y2="100%">
                <stop offset="0%" style="stop-color:#e0f7fa;stop-opacity:1" />
                <stop offset="100%" style="stop-color:#ffffff;stop-opacity:1" />
            </linearGradient>
            <filter id="glow" x="-20%" y="-20%" width="140%" height="140%">
                <feGaussianBlur stdDeviation="2" result="coloredBlur"/>
                <feMerge>
                    <feMergeNode in="coloredBlur"/>
                    <feMergeNode in="SourceGraphic"/>
                </feMerge>
            </filter>
        </defs>
        <rect width="100%" height="100%" fill="url(#sky)"/><path d="M0,550 Q400,530 800,550 L800,600 L0,600 Z" stroke="#4e342e" stroke-width="0" fill="#5d4037" stroke-linecap="round" stroke-opacity="1.0" />
<path d="M0,550 Q400,530 800,550" stroke="none" stroke-width="0" fill="#76ff03" stroke-linecap="round" stroke-opacity="0.1" />
<path d="M400,550 Q388.0,470.0 376,390" stroke="#4e342e" stroke-width="35" fill="none" stroke-linecap="round" stroke-opacity="1.0" />
<path d="M376,430 Q446.88607594936707,410 470.86408596480015,324.64275891966054" stroke="#5d4037" stroke-width="8" fill="none" stroke-linecap="round" stroke-opacity="1.0" />
<circle cx="492.3903654195283" cy="344.44363499703843" r="15" fill="#66bb6a" fill-opacity="0.7" />
<circle cx="489.6237556567618" cy="289.71950019556976" r="15" fill="#43a047" fill-opacity="0.7" />
<circle cx="443.00940517852416" cy="337.3619195337411" r="12" fill="#66bb6a" fill-opacity="0.7" />
<circle cx="444.7362491364751" cy="356.8198658411045" r="10" fill="#66bb6a" fill-opacity="0.7" />
<circle cx="450.6308750996011" cy="320.8720642432394" r="9" fill="#66bb6a" fill-opacity="0.7" />
<circle cx="464.8534357501453" cy="294.9426145071051" r="10" fill="#2e7d32" fill-opacity="0.7" />
<circle cx="478.3144132129919" cy="313.4631074239734" r="8" fill="#66bb6a" fill-opacity="0.7" />
<circle cx="456.1367966213442" cy="353.11015703414733" r="11" fill="#2e7d32" fill-opacity="0.7" />
<circle cx="480.34369470602337" cy="345.35872047178503" r="11" fill="#2e7d32" fill-opacity="0.7" />
<circle cx="498.23836234958014" cy="316.07696159849166" r="14" fill="#43a047" fill-opacity="0.7" />
<path d="M376,415 Q306.0632911392405,395 264.29212169591665,330.822075875568" stroke="#5d4037" stroke-width="8" fill="none" stroke-linecap="round" stroke-opacity="1.0" />
<circle cx="235.02165489794262" cy="346.8571580025342" r="14" fill="#a5d6a7" fill-opacity="0.7" />
<circle cx="250.49052028417825" cy="331.02394176850726" r="8" fill="#a5d6a7" fill-opacity="0.7" />
<circle cx="254.21286065960084" cy="344.551281711278" r="15" fill="#66bb6a" fill-opacity="0.7" />
<circle cx="261.67862338773034" cy="296.12372299581443" r="13" fill="#2e7d32" fill-opacity="0.7" />
<circle cx="232.9717169628143" cy="349.4613880829148" r="11" fill="#66bb6a" fill-opacity="0.7" />
<circle cx="269.4742396215975" cy="335.59394667037765" r="10" fill="#43a047" fill-opacity="0.7" />
<circle cx="298.88035506485545" cy="355.66804192773753" r="14" fill="#a5d6a7" fill-opacity="0.7" />
<circle cx="294.66154995586453" cy="307.18455611136653" r="15" fill="#2e7d32" fill-opacity="0.7" />
<circle cx="255.13304225418113" cy="340.05497873392943" r="16" fill="#66bb6a" fill-opacity="0.7" />
<circle cx="251.41842973784182" cy="331.6790538757833" r="15" fill="#a5d6a7" fill-opacity="0.7" />
<path d="M376,400 Q437.3924050632911,380 472.75575075930635,324.40612264988755" stroke="#5d4037" stroke-width="8" fill="none" stroke-linecap="round" stroke-opacity="1.0" />
<circle cx="462.5907145373584" cy="295.54340013641763" r="16" fill="#2e7d32" fill-opacity="0.7" />
<circle cx="487.9666949945152" cy="317.0752428997519" r="14" fill="#43a047" fill-opacity="0.7" />
<circle cx="504.3955684580985" cy="337.001643406021" r="16" fill="#a5d6a7" fill-opacity="0.7" />
<circle cx="481.4159622443371" cy="348.3844044281372" r="12" fill="#66bb6a" fill-opacity="0.7" />
<circle cx="480.0241457793571" cy="332.7790476476109" r="8" fill="#43a047" fill-opacity="0.7" />
<circle cx="502.07033168107296" cy="289.6436357827003" r="9" fill="#43a047" fill-opacity="0.7" />
<circle cx="443.6903174316317" cy="338.86154361566804" r="9" fill="#43a047" fill-opacity="0.7" />
<circle cx="501.0003841630943" cy="352.2403157703369" r="11" fill="#43a047" fill-opacity="0.7" />
<circle cx="492.3071626782562" cy="313.07593660436794" r="14" fill="#43a047" fill-opacity="0.7" />
<circle cx="492.5564883361672" cy="316.8821486487981" r="13" fill="#43a047" fill-opacity="0.7" />
<path d="M376,385 Q314.6075949367089,365 270.75287573657613,321.76114776420854" stroke="#5d4037" stroke-width="8" fill="none" stroke-linecap="round" stroke-opacity="1.0" />
<circle cx="280.02592056443683" cy="299.63625040727766" r="13" fill="#43a047" fill-opacity="0.7" />
<circle cx="293.38247967844853" cy="328.49174628307264" r="15" fill="#66bb6a" fill-opacity="0.7" />
<circle cx="250.13518333364985" cy="288.8397817723923" r="9" fill="#2e7d32" fill-opacity="0.7" />
<circle cx="257.30443143423156" cy="352.3306745461864" r="14" fill="#66bb6a" fill-opacity="0.7" />
<circle cx="259.18721291815746" cy="295.52274991996046" r="8" fill="#43a047" fill-opacity="0.7" />
<circle cx="236.76537000684328" cy="349.229646625781" r="12" fill="#43a047" fill-opacity="0.7" />
<circle cx="287.0176171757717" cy="294.3275712937506" r="9" fill="#a5d6a7" fill-opacity="0.7" />
<circle cx="263.58072991030105" cy="294.5952346829357" r="15" fill="#66bb6a" fill-opacity="0.7" />
<circle cx="282.3997772703859" cy="338.4872854756579" r="16" fill="#a5d6a7" fill-opacity="0.7" />
<circle cx="237.11776620553513" cy="340.12192527817774" r="9" fill="#a5d6a7" fill-opacity="0.7" />
<path d="M376,370 Q433.59493670886076,350 453.07706984640015,284.3972416222242" stroke="#5d4037" stroke-width="8" fill="none" stroke-linecap="round" stroke-opacity="1.0" />
<circle cx="484.8658966097042" cy="301.3373398886812" r="12" fill="#66bb6a" fill-opacity="0.7" />
<circle cx="476.18444001575114" cy="294.4837845617215" r="15" fill="#66bb6a" fill-opacity="0.7" />
<circle cx="456.66589909375864" cy="311.8204837204843" r="10" fill="#43a047" fill-opacity="0.7" />
<circle cx="481.0301215541549" cy="259.02530341581246" r="9" fill="#a5d6a7" fill-opacity="0.7" />
<circle cx="487.9470975650446" cy="266.34867304795984" r="10" fill="#43a047" fill-opacity="0.7" />
<circle cx="485.7470227910379" cy="294.5939617980034" r="13" fill="#66bb6a" fill-opacity="0.7" />
<circle cx="443.5229091938576" cy="274.60607937962664" r="13" fill="#66bb6a" fill-opacity="0.7" />
<circle cx="481.00504129818614" cy="279.8990877283217" r="8" fill="#a5d6a7" fill-opacity="0.7" />
<circle cx="454.6669449017101" cy="306.59479572987277" r="8" fill="#43a047" fill-opacity="0.7" />
<circle cx="451.14470212787234" cy="256.00202989025354" r="15" fill="#66bb6a" fill-opacity="0.7" />
<path d="M376,355 Q322.2025316455696,335 287.863387639792,293.2860796331153" stroke="#5d4037" stroke-width="8" fill="none" stroke-linecap="round" stroke-opacity="1.0" />
<circle cx="269.4738341557174" cy="318.02407850229974" r="16" fill="#2e7d32" fill-opacity="0.7" />
<circle cx="265.29566957738416" cy="289.61614578664575" r="11" fill="#66bb6a" fill-opacity="0.7" />
<circle cx="300.3910165737826" cy="283.97041741034917" r="12" fill="#a5d6a7" fill-opacity="0.7" />
<circle cx="284.3290329384411" cy="284.8421751704266" r="13" fill="#43a047" fill-opacity="0.7" />
<circle cx="317.6027761776509" cy="327.4233687721748" r="8" fill="#43a047" fill-opacity="0.7" />
<circle cx="259.1805053154109" cy="298.76358618253244" r="16" fill="#66bb6a" fill-opacity="0.7" />
<circle cx="274.98886478800165" cy="281.54087107808783" r="11" fill="#2e7d32" fill-opacity="0.7" />
<circle cx="305.58463112407435" cy="269.2446280883686" r="12" fill="#a5d6a7" fill-opacity="0.7" />
<circle cx="309.3845473727434" cy="285.5162965278248" r="10" fill="#2e7d32" fill-opacity="0.7" />
<circle cx="260.18830624676644" cy="308.14158713316135" r="13" fill="#a5d6a7" fill-opacity="0.7" />
<text x="400" y="580" font-family="Segoe UI, Helvetica, Arial, sans-serif" font-size="20" fill="#3e2723" text-anchor="middle" font-weight="bold">@prithwiraj84's Contribution Garden</text>
<text x="400" y="595" font-family="Segoe UI, Helvetica, Arial, sans-serif" font-size="14" fill="#5d4037" text-anchor="middle" font-weight="bold">Grown over 5 years</text></svg>