<svg xmlns="http://www.w3.org/2000/svg" width="800" height="600" viewBox="0 0 800 600">
        <defs>
            <linearGradient id="sky" x1="0%" y1="0%" x2="0%" y2="100%">
                <stop offset="0%" style="stop-color:#e0f7fa;stop-opacity:1" />
                <stop offset="100%" style="stop-color:#ffffff;stop-opacity:1" />
            </linearGradient>
            <filter id="glow" x="-20%" y="-20%" width="140%" height="140%">
                <feGaussianBlur stdDeviation="2" result="coloredBlur"/>
                <feMerge>
                    <feMergeNode in="coloredBlur"/>
                    <feMergeNode in="SourceGraphic"/>
                </feMerge>
            </filter>
        </defs>
        <rect width="100%" height="100%" fill="url(#sky)"/><path d="M0,550 Q400,530 800,550 L800,600 L0,600 Z" stroke="#4e342e" stroke-width="0" fill="#5d4037" stroke-linecap="round" stroke-opacity="1.0" />
<path d="M0,550 Q400,530 800,550" stroke="none" stroke-width="0" fill="#76ff03" stroke-linecap="round" stroke-opacity="0.1" />
<path d="M400,550 Q385.5,470.0 371,390" stroke="#4e342e" stroke-width="35" fill="none" stroke-linecap="round" stroke-opacity="1.0" />
<path d="M371,430 Q445.7159090909091,410 483.7776247719256,331.9639064633503" stroke="#5d4037" stroke-width="8" fill="none" stroke-linecap="round" stroke-opacity="1.0" />
<circle cx="518.6421388549988" cy="315.379709564564" r="8" fill="#a5d6a7" fill-opacity="0.7" />
<circle cx="484.8773534589235" cy="298.33929568215905" r="12" fill="#66bb6a" fill-opacity="0.7" />
<circle cx="516.6231038928804" cy="297.3898780472784" r="14" fill="#2e7d32" fill-opacity="0.7" />
<circle cx="453.781025666903" cy="334.58714194937886" r="14" fill="#2e7d32" fill-opacity="0.7" />
<circle cx="467.1081836851029" cy="304.19403793493075" r="9" fill="#a5d6a7" fill-opacity="0.7" />
<circle cx="471.5952293796934" cy="326.56512974843406" r="14" fill="#43a047" fill-opacity="0.7" />
<circle cx="472.3797764806204" cy="359.15052108844344" r="9" fill="#43a047" fill-opacity="0.7" />
<circle cx="468.1903765934598" cy="364.50231197907254" r="14" fill="#2e7d32" fill-opacity="0.7" />
<circle cx="497.07030183914276" cy="328.702678732907" r="15" fill="#66bb6a" fill-opacity="0.7" />
<circle cx="468.55302156172996" cy="311.7450020610337" r="8" fill="#2e7d32" fill-opacity="0.7" />
<path d="M371,415 Q302.25,395 273.7728175868497,317.7728175868497" stroke="#5d4037" stroke-width="8" fill="none" stroke-linecap="round" stroke-opacity="1.0" />
<circle cx="293.1776431333859" cy="304.34204007109923" r="11" fill="#a5d6a7" fill-opacity="0.7" />
<circle cx="268.20570052012874" cy="299.053573326786" r="16" fill="#66bb6a" fill-opacity="0.7" />
<circle cx="256.3616779743274" cy="330.6113360904727" r="10" fill="#66bb6a" fill-opacity="0.7" />
<circle cx="278.42432074015306" cy="320.1569314948559" r="8" fill="#a5d6a7" fill-opacity="0.7" />
<circle cx="305.4949839440425" cy="291.9423013783644" r="12" fill="#2e7d32" fill-opacity="0.7" />
<circle cx="298.8162842958516" cy="308.9487325643833" r="9" fill="#a5d6a7" fill-opacity="0.7" />
<circle cx="281.800658768919" cy="283.052060012196" r="13" fill="#2e7d32" fill-opacity="0.7" />
<circle cx="295.5862689534731" cy="287.8403599184416" r="15" fill="#43a047" fill-opacity="0.7" />
<circle cx="291.26704967979265" cy="320.2291568896182" r="11" fill="#2e7d32" fill-opacity="0.7" />
<circle cx="282.2710633177907" cy="343.4851343777238" r="8" fill="#2e7d32" fill-opacity="0.7" />
<path d="M371,400 Q432.07954545454544,380 481.71373534822715,348.3733373441759" stroke="#5d4037" stroke-width="8" fill="none" stroke-linecap="round" stroke-opacity="1.0" />
<circle cx="456.2651184390343" cy="353.966648403468" r="11" fill="#2e7d32" fill-opacity="0.7" />
<circle cx="516.396403763325" cy="338.0303259949224" r="8" fill="#43a047" fill-opacity="0.7" />
<circle cx="481.89558795631945" cy="335.0292679790231" r="15" fill="#43a047" fill-opacity="0.7" />
<circle cx="465.7261634225265" cy="368.1556055047902" r="13" fill="#43a047" fill-opacity="0.7" />
<circle cx="500.89408050829155" cy="325.17161360303805" r="10" fill="#43a047" fill-opacity="0.7" />
<circle cx="483.5813802038791" cy="352.08880072589926" r="11" fill="#66bb6a" fill-opacity="0.7" />
<circle cx="467.14305961359986" cy="320.415379505527" r="13" fill="#a5d6a7" fill-opacity="0.7" />
<circle cx="515.6163796321423" cy="334.9362759269756" r="16" fill="#43a047" fill-opacity="0.7" />
<circle cx="471.97597746625104" cy="340.19643538247215" r="12" fill="#66bb6a" fill-opacity="0.7" />
<circle cx="478.4837110513163" cy="327.230484842898" r="16" fill="#66bb6a" fill-opacity="0.7" />
<path d="M371,385 Q310.77272727272725,365 300.19859461022486,287.55022567756316" stroke="#5d4037" stroke-width="8" fill="none" stroke-linecap="round" stroke-opacity="1.0" />
<circle cx="292.17959775112826" cy="266.6210620080001" r="11" fill="#2e7d32" fill-opacity="0.7" />
<circle cx="266.10287915054397" cy="273.12789739041773" r="13" fill="#2e7d32" fill-opacity="0.7" />
<circle cx="332.52903979504345" cy="308.28446247402155" r="11" fill="#43a047" fill-opacity="0.7" />
<circle cx="283.4553499323591" cy="296.8359742540073" r="8" fill="#66bb6a" fill-opacity="0.7" />
<circle cx="302.35420537047025" cy="274.96085643763087" r="9" fill="#2e7d32" fill-opacity="0.7" />
<circle cx="316.2741485075875" cy="304.396751590844" r="12" fill="#66bb6a" fill-opacity="0.7" />
<circle cx="308.4518244991947" cy="264.0595660573636" r="8" fill="#2e7d32" fill-opacity="0.7" />
<circle cx="331.87274760240473" cy="294.1471917322059" r="13" fill="#2e7d32" fill-opacity="0.7" />
<circle cx="329.60816536809875" cy="285.4429396381644" r="16" fill="#a5d6a7" fill-opacity="0.7" />
<circle cx="275.6492246482615" cy="268.3707403452823" r="16" fill="#43a047" fill-opacity="0.7" />
<path d="M371,370 Q427.8181818181818,350 447.0375689044157,285.5517243775688" stroke="#5d4037" stroke-width="8" fill="none" stroke-linecap="round" stroke-opacity="1.0" />
<circle cx="422.6376589732052" cy="306.5655154813357" r="8" fill="#66bb6a" fill-opacity="0.7" />
<circle cx="422.7806429840742" cy="261.69668732688876" r="10" fill="#a5d6a7" fill-opacity="0.7" />
<circle cx="418.7885152925109" cy="259.5507518391802" r="10" fill="#2e7d32" fill-opacity="0.7" />
<circle cx="424.68404696156347" cy="287.55913014451255" r="9" fill="#2e7d32" fill-opacity="0.7" />
<circle cx="449.6509049260523" cy="272.2520753445587" r="14" fill="#66bb6a" fill-opacity="0.7" />
<circle cx="424.6365495992568" cy="294.3416288345882" r="14" fill="#43a047" fill-opacity="0.7" />
<circle cx="446.00547692381855" cy="298.8297245112254" r="15" fill="#a5d6a7" fill-opacity="0.7" />
<circle cx="457.7916981968126" cy="283.716938994732" r="9" fill="#66bb6a" fill-opacity="0.7" />
<circle cx="412.8858379931585" cy="285.26316134089836" r="10" fill="#66bb6a" fill-opacity="0.7" />
<circle cx="437.21915221300304" cy="310.9464032567712" r="12" fill="#43a047" fill-opacity="0.7" />
<path d="M371,355 Q317.5909090909091,335 294.16143041837137,280.79785588278895" stroke="#5d4037" stroke-width="8" fill="none" stroke-linecap="round" stroke-opacity="1.0" />
<circle cx="261.4261539007367" cy="303.1195066709043" r="16" fill="#a5d6a7" fill-opacity="0.7" />
<circle cx="270.6021069087209" cy="282.5155093175486" r="8" fill="#66bb6a" fill-opacity="0.7" />
<circle cx="322.0038959215341" cy="291.65187912042364" r="9" fill="#43a047" fill-opacity="0.7" />
<circle cx="299.7260018289508" cy="305.9706910212715" r="13" fill="#43a047" fill-opacity="0.7" />
<circle cx="312.18696674254244" cy="310.90684145634526" r="14" fill="#66bb6a" fill-opacity="0.7" />
<circle cx="298.93449868233233" cy="300.211766074156" r="11" fill="#2e7d32" fill-opacity="0.7" />
<circle cx="284.9526539899996" cy="258.3440418412405" r="11" fill="#2e7d32" fill-opacity="0.7" />
<circle cx="261.5029469915433" cy="280.1516998680045" r="16" fill="#66bb6a" fill-opacity="0.7" />
<circle cx="326.4859434847929" cy="286.9487931420189" r="8" fill="#2e7d32" fill-opacity="0.7" />
<circle cx="271.2965185269078" cy="262.14372295150395" r="15" fill="#43a047" fill-opacity="0.7" />
<text x="400" y="580" font-family="Segoe UI, Helvetica, Arial, sans-serif" font-size="20" fill="#3e2723" text-anchor="middle" font-weight="bold">@prithwiraj84's Contribution Garden</text>
<text x="400" y="595" font-family="Segoe UI, Helvetica, Arial, sans-serif" font-size="14" fill="#5d4037" text-anchor="middle" font-weight="bold">Grown over 5 years</text></svg>