<svg xmlns="http://www.w3.org/2000/svg" width="800" height="600" viewBox="0 0 800 600">
        <defs>
            <linearGradient id="sky" x1="0%" y1="0%" x2="0%" y2="100%">
                <stop offset="0%" style="stop-color:#e0f7fa;stop-opacity:1" />
                <stop offset="100%" style="stop-color:#ffffff;stop-opacity:1" />
            </linearGradient>
            <filter id="glow" x="-20%" y="-20%" width="140%" height="140%">
                <feGaussianBlur stdDeviation="2" result="coloredBlur"/>
                <feMerge>
                    <feMergeNode in="coloredBlur"/>
                    <feMergeNode in="SourceGraphic"/>
                </feMerge>
            </filter>
        </defs>
        <rect width="100%" height="100%" fill="url(#sky)"/><path d="M0,550 Q400,530 800,550 L800,600 L0,600 Z" stroke="#4e342e" stroke-width="0" fill="#5d4037" stroke-linecap="round" stroke-opacity="1.0" />
<path d="M0,550 Q400,530 800,550" stroke="none" stroke-width="0" fill="#76ff03" stroke-linecap="round" stroke-opacity="0.1" />
<path d="M400,550 Q409.0,470.0 418,390" stroke="#4e342e" stroke-width="35" fill="none" stroke-linecap="round" stroke-opacity="1.0" />
<path d="M418,430 Q490.0,410 487.8125853154726,304.054762171927" stroke="#5d4037" stroke-width="8" fill="none" stroke-linecap="round" stroke-opacity="1.0" />
<circle cx="490.6935083227063" cy="311.40082519827337" r="16" fill="#a5d6a7" fill-opacity="0.7" />
<circle cx="509.00927020677585" cy="293.4162841405736" r="11" fill="#43a047" fill-opacity="0.7" />
<circle cx="509.8141622569692" cy="312.7976477000727" r="12" fill="#a5d6a7" fill-opacity="0.7" />
<circle cx="489.6572323656701" cy="326.31314139961154" r="8" fill="#a5d6a7" fill-opacity="0.7" />
<circle cx="504.0210617645155" cy="274.74029007730934" r="8" fill="#43a047" fill-opacity="0.7" />
<circle cx="520.4901558894958" cy="314.0698029555619" r="9" fill="#a5d6a7" fill-opacity="0.7" />
<circle cx="468.8144005728723" cy="275.5362008815775" r="9" fill="#a5d6a7" fill-opacity="0.7" />
<circle cx="515.6249880344826" cy="336.4479598525994" r="9" fill="#66bb6a" fill-opacity="0.7" />
<circle cx="516.5325011857207" cy="313.2928917078566" r="15" fill="#66bb6a" fill-opacity="0.7" />
<circle cx="464.26762113045083" cy="291.4852564715142" r="10" fill="#43a047" fill-opacity="0.7" />
<path d="M418,415 Q352.0,395 336.7326852570131,310.9825805239127" stroke="#5d4037" stroke-width="8" fill="none" stroke-linecap="round" stroke-opacity="1.0" />
<circle cx="371.6280845349255" cy="312.7578843259759" r="11" fill="#a5d6a7" fill-opacity="0.7" />
<circle cx="367.22704945020047" cy="320.8073756558568" r="8" fill="#2e7d32" fill-opacity="0.7" />
<circle cx="354.18674699807724" cy="307.41451826549405" r="11" fill="#66bb6a" fill-opacity="0.7" />
<circle cx="340.1795288128511" cy="325.60547188844095" r="16" fill="#43a047" fill-opacity="0.7" />
<circle cx="304.7969157205872" cy="318.6396359027697" r="16" fill="#a5d6a7" fill-opacity="0.7" />
<circle cx="336.9419785755698" cy="319.7899231988281" r="15" fill="#43a047" fill-opacity="0.7" />
<circle cx="312.8422426257032" cy="326.9312553272135" r="11" fill="#a5d6a7" fill-opacity="0.7" />
<circle cx="336.5945967041835" cy="287.34477043141845" r="10" fill="#a5d6a7" fill-opacity="0.7" />
<circle cx="325.2421728844303" cy="332.26216186169785" r="12" fill="#66bb6a" fill-opacity="0.7" />
<circle cx="330.4913483365374" cy="300.318903710231" r="14" fill="#a5d6a7" fill-opacity="0.7" />
<path d="M418,400 Q481.0,380 531.2480498336951,344.76523550457625" stroke="#5d4037" stroke-width="8" fill="none" stroke-linecap="round" stroke-opacity="1.0" />
<circle cx="532.8216206755928" cy="358.5278293011334" r="13" fill="#2e7d32" fill-opacity="0.7" />
<circle cx="515.2309352689621" cy="319.894284201258" r="15" fill="#66bb6a" fill-opacity="0.7" />
<circle cx="545.6329868060245" cy="334.395171888028" r="11" fill="#43a047" fill-opacity="0.7" />
<circle cx="503.79578002494304" cy="367.559376841433" r="16" fill="#2e7d32" fill-opacity="0.7" />
<circle cx="553.635740822504" cy="320.6483100821015" r="13" fill="#2e7d32" fill-opacity="0.7" />
<circle cx="540.0134312111613" cy="341.1385423744359" r="15" fill="#43a047" fill-opacity="0.7" />
<circle cx="533.4266350667367" cy="374.20871181567867" r="15" fill="#66bb6a" fill-opacity="0.7" />
<circle cx="510.6345246345759" cy="347.60722508788103" r="10" fill="#66bb6a" fill-opacity="0.7" />
<circle cx="514.2504661821597" cy="378.38163390648083" r="15" fill="#2e7d32" fill-opacity="0.7" />
<circle cx="544.3293636174047" cy="322.00470543722133" r="15" fill="#a5d6a7" fill-opacity="0.7" />
<path d="M418,385 Q356.0,365 336.6486804051771,291.41601205237623" stroke="#5d4037" stroke-width="8" fill="none" stroke-linecap="round" stroke-opacity="1.0" />
<circle cx="354.0044107671082" cy="315.7815627378407" r="12" fill="#66bb6a" fill-opacity="0.7" />
<circle cx="347.148071912317" cy="326.0264146687248" r="11" fill="#a5d6a7" fill-opacity="0.7" />
<circle cx="365.0920765541074" cy="290.6510009077209" r="12" fill="#66bb6a" fill-opacity="0.7" />
<circle cx="361.9429518660664" cy="313.33997398839637" r="12" fill="#a5d6a7" fill-opacity="0.7" />
<circle cx="358.4456828000179" cy="259.2016173518712" r="9" fill="#a5d6a7" fill-opacity="0.7" />
<circle cx="345.87341032911365" cy="281.3173173672211" r="13" fill="#66bb6a" fill-opacity="0.7" />
<circle cx="301.8458511337725" cy="302.62148569553386" r="13" fill="#2e7d32" fill-opacity="0.7" />
<circle cx="302.5189913536732" cy="267.2071862758254" r="12" fill="#66bb6a" fill-opacity="0.7" />
<circle cx="344.61734993085196" cy="257.79776633335496" r="9" fill="#66bb6a" fill-opacity="0.7" />
<circle cx="317.4573592095348" cy="291.849468997499" r="10" fill="#a5d6a7" fill-opacity="0.7" />
<path d="M418,370 Q476.0,350 481.17812806174317,272.7142141183308" stroke="#5d4037" stroke-width="8" fill="none" stroke-linecap="round" stroke-opacity="1.0" />
<circle cx="478.06015281355957" cy="266.34584459352584" r="8" fill="#66bb6a" fill-opacity="0.7" />
<circle cx="496.5465339103048" cy="279.9417935974659" r="14" fill="#a5d6a7" fill-opacity="0.7" />
<circle cx="505.16600213571564" cy="289.35437282652424" r="10" fill="#66bb6a" fill-opacity="0.7" />
<circle cx="479.0352894099798" cy="296.6947175353034" r="10" fill="#43a047" fill-opacity="0.7" />
<circle cx="484.6793315904516" cy="291.25614678579456" r="13" fill="#43a047" fill-opacity="0.7" />
<circle cx="470.960065574208" cy="293.6638302944375" r="8" fill="#2e7d32" fill-opacity="0.7" />
<circle cx="453.066039633914" cy="289.56012387339075" r="12" fill="#66bb6a" fill-opacity="0.7" />
<circle cx="503.7906509404304" cy="263.0858356908042" r="12" fill="#a5d6a7" fill-opacity="0.7" />
<circle cx="511.5318625527974" cy="274.0969121878167" r="9" fill="#a5d6a7" fill-opacity="0.7" />
<circle cx="494.7011378972262" cy="254.8619730466356" r="8" fill="#2e7d32" fill-opacity="0.7" />
<path d="M418,355 Q364.0,335 328.46394216405554,294.60716642515933" stroke="#5d4037" stroke-width="8" fill="none" stroke-linecap="round" stroke-opacity="1.0" />
<circle cx="295.237214951888" cy="264.4236766998179" r="8" fill="#43a047" fill-opacity="0.7" />
<circle cx="297.69903811063523" cy="293.63774646017623" r="9" fill="#2e7d32" fill-opacity="0.7" />
<circle cx="311.741795675146" cy="267.3080594608282" r="12" fill="#2e7d32" fill-opacity="0.7" />
<circle cx="305.50220960218377" cy="282.6145221783013" r="13" fill="#43a047" fill-opacity="0.7" />
<circle cx="303.10169070552377" cy="293.61954362211685" r="8" fill="#43a047" fill-opacity="0.7" />
<circle cx="311.8905764692606" cy="282.53572690547145" r="10" fill="#2e7d32" fill-opacity="0.7" />
<circle cx="313.68750240492267" cy="285.5486794835477" r="13" fill="#66bb6a" fill-opacity="0.7" />
<circle cx="299.0482425652617" cy="260.40503533321373" r="10" fill="#a5d6a7" fill-opacity="0.7" />
<circle cx="324.60145592759653" cy="292.38505783640727" r="15" fill="#a5d6a7" fill-opacity="0.7" />
<circle cx="309.5369945632077" cy="295.2052753241963" r="13" fill="#2e7d32" fill-opacity="0.7" />
<text x="400" y="580" font-family="Segoe UI, Helvetica, Arial, sans-serif" font-size="20" fill="#3e2723" text-anchor="middle" font-weight="bold">@prithwiraj84's Contribution Garden</text>
<text x="400" y="595" font-family="Segoe UI, Helvetica, Arial, sans-serif" font-size="14" fill="#5d4037" text-anchor="middle" font-weight="bold">Grown over 5 years</text></svg>