<svg xmlns="http://www.w3.org/2000/svg" width="800" height="600" viewBox="0 0 800 600">
        <defs>
            <linearGradient id="sky" x1="0%" y1="0%" x2="0%" y2="100%">
                <stop offset="0%" style="stop-color:#e0f7fa;stop-opacity:1" />
                <stop offset="100%" style="stop-color:#ffffff;stop-opacity:1" />
            </linearGradient>
            <filter id="glow" x="-20%" y="-20%" width="140%" height="140%">
                <feGaussianBlur stdDeviation="2" result="coloredBlur"/>
                <feMerge>
                    <feMergeNode in="coloredBlur"/>
                    <feMergeNode in="SourceGraphic"/>
                </feMerge>
            </filter>
        </defs>
        <rect width="100%" height="100%" fill="url(#sky)"/><path d="M0,550 Q400,530 800,550 L800,600 L0,600 Z" stroke="#4e342e" stroke-width="0" fill="#5d4037" stroke-linecap="round" stroke-opacity="1.0" />
<path d="M0,550 Q400,530 800,550" stroke="none" stroke-width="0" fill="#76ff03" stroke-linecap="round" stroke-opacity="0.1" />
<path d="M400,550 Q387.5,470.0 375,390" stroke="#4e342e" stroke-width="35" fill="none" stroke-linecap="round" stroke-opacity="1.0" />
<path d="M375,430 Q446.42857142857144,410 472.4283371517855,325.5208997686899" stroke="#5d4037" stroke-width="8" fill="none" stroke-linecap="round" stroke-opacity="1.0" />
<circle cx="504.15865070004844" cy="347.4344082438196" r="9" fill="#66bb6a" fill-opacity="0.7" />
<circle cx="440.8132436928267" cy="333.0174382646197" r="8" fill="#2e7d32" fill-opacity="0.7" />
<circle cx="477.01125746483893" cy="315.7804869391363" r="9" fill="#43a047" fill-opacity="0.7" />
<circle cx="493.9028458056594" cy="358.2842150007651" r="8" fill="#2e7d32" fill-opacity="0.7" />
<circle cx="466.24953130438314" cy="295.5464100836416" r="9" fill="#43a047" fill-opacity="0.7" />
<circle cx="475.3451385545438" cy="335.7922001505804" r="12" fill="#2e7d32" fill-opacity="0.7" />
<circle cx="443.129451876288" cy="353.5204540705241" r="14" fill="#66bb6a" fill-opacity="0.7" />
<circle cx="462.302159169365" cy="303.6440540880959" r="15" fill="#2e7d32" fill-opacity="0.7" />
<circle cx="498.518518779996" cy="324.4544674787641" r="14" fill="#2e7d32" fill-opacity="0.7" />
<circle cx="458.5749687504212" cy="329.9549368327157" r="8" fill="#a5d6a7" fill-opacity="0.7" />
<path d="M375,415 Q309.4155844155844,395 303.5603343681588,304.99256186689894" stroke="#5d4037" stroke-width="8" fill="none" stroke-linecap="round" stroke-opacity="1.0" />
<circle cx="324.9898024205187" cy="330.58296175616823" r="13" fill="#2e7d32" fill-opacity="0.7" />
<circle cx="273.4847226371552" cy="331.920437461622" r="16" fill="#2e7d32" fill-opacity="0.7" />
<circle cx="276.2391220746935" cy="290.6017324515872" r="13" fill="#43a047" fill-opacity="0.7" />
<circle cx="290.7219524715539" cy="282.42284068310823" r="11" fill="#66bb6a" fill-opacity="0.7" />
<circle cx="326.0935863014953" cy="312.5383651288719" r="10" fill="#66bb6a" fill-opacity="0.7" />
<circle cx="294.26427166732435" cy="312.87051413228073" r="16" fill="#a5d6a7" fill-opacity="0.7" />
<circle cx="274.53787771716907" cy="288.72994285196006" r="16" fill="#66bb6a" fill-opacity="0.7" />
<circle cx="320.87201893624837" cy="335.669890384606" r="8" fill="#2e7d32" fill-opacity="0.7" />
<circle cx="304.394559059705" cy="279.06165277071983" r="11" fill="#a5d6a7" fill-opacity="0.7" />
<circle cx="271.0950038021062" cy="311.5940343086201" r="9" fill="#43a047" fill-opacity="0.7" />
<path d="M375,400 Q439.6103896103896,380 450.9540683157157,295.45819358401656" stroke="#5d4037" stroke-width="8" fill="none" stroke-linecap="round" stroke-opacity="1.0" />
<circle cx="444.09572407162375" cy="279.3778648693417" r="8" fill="#2e7d32" fill-opacity="0.7" />
<circle cx="445.44433599009875" cy="324.3104404452748" r="16" fill="#a5d6a7" fill-opacity="0.7" />
<circle cx="425.5099670443285" cy="295.5010022861513" r="8" fill="#43a047" fill-opacity="0.7" />
<circle cx="420.88854377788886" cy="286.6522976196847" r="13" fill="#43a047" fill-opacity="0.7" />
<circle cx="427.6633729873538" cy="281.3682125320772" r="9" fill="#43a047" fill-opacity="0.7" />
<circle cx="416.87526804315826" cy="276.16840492060976" r="16" fill="#66bb6a" fill-opacity="0.7" />
<circle cx="474.16652502661725" cy="299.09505166033045" r="11" fill="#a5d6a7" fill-opacity="0.7" />
<circle cx="481.68025717199845" cy="309.1400177238763" r="12" fill="#66bb6a" fill-opacity="0.7" />
<circle cx="443.37480408872887" cy="293.31060507027513" r="15" fill="#a5d6a7" fill-opacity="0.7" />
<circle cx="482.8355247459912" cy="288.2945051134392" r="12" fill="#43a047" fill-opacity="0.7" />
<path d="M375,385 Q313.31168831168833,365 270.37068943524616,319.6203505166825" stroke="#5d4037" stroke-width="8" fill="none" stroke-linecap="round" stroke-opacity="1.0" />
<circle cx="249.49051932904314" cy="286.8458704628525" r="9" fill="#a5d6a7" fill-opacity="0.7" />
<circle cx="266.0672750307538" cy="313.89201618975676" r="15" fill="#66bb6a" fill-opacity="0.7" />
<circle cx="243.1448855156016" cy="326.53597857010465" r="14" fill="#43a047" fill-opacity="0.7" />
<circle cx="262.1546548984902" cy="325.97429855904534" r="9" fill="#2e7d32" fill-opacity="0.7" />
<circle cx="304.0277806090603" cy="314.5216165435114" r="12" fill="#66bb6a" fill-opacity="0.7" />
<circle cx="254.8160686597596" cy="347.2377427163994" r="13" fill="#43a047" fill-opacity="0.7" />
<circle cx="278.5121739265615" cy="328.8217053364228" r="12" fill="#43a047" fill-opacity="0.7" />
<circle cx="264.9317822904655" cy="339.31982664214013" r="10" fill="#2e7d32" fill-opacity="0.7" />
<circle cx="282.4256100687992" cy="334.02718944215184" r="8" fill="#a5d6a7" fill-opacity="0.7" />
<circle cx="272.2591189232291" cy="319.46872817494665" r="15" fill="#43a047" fill-opacity="0.7" />
<path d="M375,370 Q432.7922077922078,350 458.14447042875315,289.7083182196743" stroke="#5d4037" stroke-width="8" fill="none" stroke-linecap="round" stroke-opacity="1.0" />
<circle cx="434.2947095360991" cy="294.6312933779135" r="15" fill="#a5d6a7" fill-opacity="0.7" />
<circle cx="468.8850455348655" cy="311.2409357917906" r="13" fill="#43a047" fill-opacity="0.7" />
<circle cx="485.89328353730247" cy="275.36069243679873" r="16" fill="#66bb6a" fill-opacity="0.7" />
<circle cx="454.51985636860667" cy="291.5086286194101" r="13" fill="#2e7d32" fill-opacity="0.7" />
<circle cx="463.1828154935886" cy="304.3164035969963" r="13" fill="#43a047" fill-opacity="0.7" />
<circle cx="438.8418282301702" cy="290.6194971938314" r="10" fill="#2e7d32" fill-opacity="0.7" />
<circle cx="480.4072480534995" cy="271.0465708625982" r="16" fill="#66bb6a" fill-opacity="0.7" />
<circle cx="446.332932509778" cy="310.0305360115253" r="8" fill="#66bb6a" fill-opacity="0.7" />
<circle cx="480.27433963784745" cy="304.24189813089333" r="12" fill="#2e7d32" fill-opacity="0.7" />
<circle cx="488.6191081756607" cy="307.46323864556723" r="14" fill="#a5d6a7" fill-opacity="0.7" />
<path d="M375,355 Q321.1038961038961,335 327.74700625520336,258.117005398921" stroke="#5d4037" stroke-width="8" fill="none" stroke-linecap="round" stroke-opacity="1.0" />
<circle cx="333.90345329829074" cy="285.45877097120206" r="9" fill="#a5d6a7" fill-opacity="0.7" />
<circle cx="312.89771778170655" cy="254.98375460399262" r="11" fill="#66bb6a" fill-opacity="0.7" />
<circle cx="356.2275680725883" cy="281.13533423793876" r="8" fill="#43a047" fill-opacity="0.7" />
<circle cx="360.18403109134" cy="280.45049401385836" r="10" fill="#2e7d32" fill-opacity="0.7" />
<circle cx="353.38930269414755" cy="289.56007820318655" r="12" fill="#66bb6a" fill-opacity="0.7" />
<circle cx="337.9359188905586" cy="261.3108899426005" r="13" fill="#43a047" fill-opacity="0.7" />
<circle cx="349.4923899096054" cy="248.47698340761968" r="14" fill="#a5d6a7" fill-opacity="0.7" />
<circle cx="332.97202587888654" cy="279.82085613880304" r="10" fill="#66bb6a" fill-opacity="0.7" />
<circle cx="347.56309904324576" cy="262.3159904586454" r="13" fill="#66bb6a" fill-opacity="0.7" />
<circle cx="324.6299041917546" cy="264.5093131906247" r="14" fill="#2e7d32" fill-opacity="0.7" />
<text x="400" y="580" font-family="Segoe UI, Helvetica, Arial, sans-serif" font-size="20" fill="#3e2723" text-anchor="middle" font-weight="bold">@prithwiraj84's Contribution Garden</text>
<text x="400" y="595" font-family="Segoe UI, Helvetica, Arial, sans-serif" font-size="14" fill="#5d4037" text-anchor="middle" font-weight="bold">Grown over 5 years</text></svg>