<svg xmlns="http://www.w3.org/2000/svg" width="800" height="600" viewBox="0 0 800 600">
        <defs>
            <linearGradient id="sky" x1="0%" y1="0%" x2="0%" y2="100%">
                <stop offset="0%" style="stop-color:#e0f7fa;stop-opacity:1" />
                <stop offset="100%" style="stop-color:#ffffff;stop-opacity:1" />
            </linearGradient>
            <filter id="glow" x="-20%" y="-20%" width="140%" height="140%">
                <feGaussianBlur stdDeviation="2" result="coloredBlur"/>
                <feMerge>
                    <feMergeNode in="coloredBlur"/>
                    <feMergeNode in="SourceGraphic"/>
                </feMerge>
            </filter>
        </defs>
        <rect width="100%" height="100%" fill="url(#sky)"/><path d="M0,550 Q400,530 800,550 L800,600 L0,600 Z" stroke="#4e342e" stroke-width="0" fill="#5d4037" stroke-linecap="round" stroke-opacity="1.0" />
<path d="M0,550 Q400,530 800,550" stroke="none" stroke-width="0" fill="#76ff03" stroke-linecap="round" stroke-opacity="0.1" />
<path d="M400,550 Q411.5,470.0 423,390" stroke="#4e342e" stroke-width="35" fill="none" stroke-linecap="round" stroke-opacity="1.0" />
<path d="M423,430 Q506.2142857142857,410 529.978223612117,302.5083176809129" stroke="#5d4037" stroke-width="8" fill="none" stroke-linecap="round" stroke-opacity="1.0" />
<circle cx="556.1486538191339" cy="270.41703588106077" r="12" fill="#2e7d32" fill-opacity="0.7" />
<circle cx="559.6289068731662" cy="279.68672595543757" r="15" fill="#66bb6a" fill-opacity="0.7" />
<circle cx="530.8477636251732" cy="308.3721827740427" r="13" fill="#43a047" fill-opacity="0.7" />
<circle cx="510.32946394830736" cy="317.3962100834572" r="10" fill="#66bb6a" fill-opacity="0.7" />
<circle cx="539.4248554375255" cy="269.6276343943731" r="14" fill="#66bb6a" fill-opacity="0.7" />
<circle cx="536.7936133133643" cy="269.74216193708213" r="12" fill="#a5d6a7" fill-opacity="0.7" />
<circle cx="506.83701988614354" cy="297.05416032011703" r="13" fill="#66bb6a" fill-opacity="0.7" />
<circle cx="526.9962022464987" cy="335.9145260281108" r="14" fill="#43a047" fill-opacity="0.7" />
<circle cx="555.2278271323094" cy="274.0054329592361" r="11" fill="#43a047" fill-opacity="0.7" />
<circle cx="500.54611517155263" cy="333.54387677378526" r="9" fill="#a5d6a7" fill-opacity="0.7" />
<circle cx="557.915647085691" cy="329.2096987175145" r="13" fill="#66bb6a" fill-opacity="0.7" />
<circle cx="556.0424542726267" cy="314.36536278552796" r="14" fill="#43a047" fill-opacity="0.7" />
<path d="M423,415 Q358.5357142857143,395 307.1197676021431,358.4814342889797" stroke="#5d4037" stroke-width="8" fill="none" stroke-linecap="round" stroke-opacity="1.0" />
<circle cx="290.07614665023607" cy="358.37516795078454" r="9" fill="#a5d6a7" fill-opacity="0.7" />
<circle cx="330.28064922037635" cy="379.22355184696687" r="8" fill="#a5d6a7" fill-opacity="0.7" />
<circle cx="331.0203916284632" cy="381.3059340957134" r="15" fill="#43a047" fill-opacity="0.7" />
<circle cx="313.6874858675559" cy="340.71456256849484" r="11" fill="#a5d6a7" fill-opacity="0.7" />
<circle cx="338.3205465589767" cy="392.5884604791134" r="11" fill="#a5d6a7" fill-opacity="0.7" />
<circle cx="300.2620410782088" cy="329.31204363918744" r="15" fill="#a5d6a7" fill-opacity="0.7" />
<circle cx="280.5472564271181" cy="327.13845481161894" r="11" fill="#a5d6a7" fill-opacity="0.7" />
<circle cx="310.2367230963737" cy="381.32958223724967" r="13" fill="#43a047" fill-opacity="0.7" />
<circle cx="333.0740125014015" cy="352.4226421106962" r="12" fill="#66bb6a" fill-opacity="0.7" />
<circle cx="303.58631591944305" cy="375.04612204234763" r="10" fill="#43a047" fill-opacity="0.7" />
<path d="M423,400 Q480.5,380 471.6011001001804,295.77460449078524" stroke="#5d4037" stroke-width="8" fill="none" stroke-linecap="round" stroke-opacity="1.0" />
<circle cx="476.280937638355" cy="279.64252320739155" r="10" fill="#43a047" fill-opacity="0.7" />
<circle cx="483.83641341671193" cy="312.2203344984085" r="10" fill="#a5d6a7" fill-opacity="0.7" />
<circle cx="477.3074931490455" cy="327.2909255913195" r="11" fill="#2e7d32" fill-opacity="0.7" />
<circle cx="453.6234857459819" cy="277.0871849780655" r="10" fill="#a5d6a7" fill-opacity="0.7" />
<circle cx="494.9841251091163" cy="270.36668259515864" r="9" fill="#2e7d32" fill-opacity="0.7" />
<circle cx="479.6519495299161" cy="297.32353106239333" r="8" fill="#43a047" fill-opacity="0.7" />
<circle cx="469.7410447802621" cy="292.1148008652422" r="13" fill="#2e7d32" fill-opacity="0.7" />
<circle cx="466.46568321709316" cy="308.0617688232466" r="13" fill="#43a047" fill-opacity="0.7" />
<circle cx="499.99669558943015" cy="287.53143193599266" r="16" fill="#66bb6a" fill-opacity="0.7" />
<circle cx="500.0453941690308" cy="265.5152911309509" r="13" fill="#a5d6a7" fill-opacity="0.7" />
<path d="M423,385 Q366.0357142857143,365 330.8298495694256,318.0344658995361" stroke="#5d4037" stroke-width="8" fill="none" stroke-linecap="round" stroke-opacity="1.0" />
<circle cx="343.8145062533738" cy="287.21755359014946" r="15" fill="#a5d6a7" fill-opacity="0.7" />
<circle cx="360.9896465800352" cy="326.42099581554925" r="9" fill="#2e7d32" fill-opacity="0.7" />
<circle cx="311.7042070001005" cy="330.25428421119113" r="15" fill="#a5d6a7" fill-opacity="0.7" />
<circle cx="319.6109715508879" cy="317.61024274425927" r="14" fill="#43a047" fill-opacity="0.7" />
<circle cx="322.87873551081344" cy="317.7670154836294" r="8" fill="#2e7d32" fill-opacity="0.7" />
<circle cx="311.6752690874358" cy="323.2734994693687" r="10" fill="#2e7d32" fill-opacity="0.7" />
<circle cx="346.92999099308406" cy="323.4274556002862" r="15" fill="#a5d6a7" fill-opacity="0.7" />
<circle cx="353.14372573249915" cy="349.4713926253402" r="10" fill="#2e7d32" fill-opacity="0.7" />
<circle cx="333.1258069193674" cy="296.0661340320396" r="13" fill="#a5d6a7" fill-opacity="0.7" />
<circle cx="305.5548412189923" cy="335.58265245158503" r="8" fill="#2e7d32" fill-opacity="0.7" />
<path d="M423,370 Q479.9642857142857,350 499.2330940815985,285.33457166882545" stroke="#5d4037" stroke-width="8" fill="none" stroke-linecap="round" stroke-opacity="1.0" />
<circle cx="526.5940723008658" cy="307.31633108634605" r="9" fill="#a5d6a7" fill-opacity="0.7" />
<circle cx="519.7173304196064" cy="265.2080309826468" r="15" fill="#a5d6a7" fill-opacity="0.7" />
<circle cx="511.71062682519175" cy="291.11565106072567" r="11" fill="#2e7d32" fill-opacity="0.7" />
<circle cx="508.1604383734176" cy="288.88403424055747" r="9" fill="#43a047" fill-opacity="0.7" />
<circle cx="480.9634359617968" cy="272.2326232934449" r="8" fill="#a5d6a7" fill-opacity="0.7" />
<circle cx="522.9771087118163" cy="277.1475989758183" r="12" fill="#a5d6a7" fill-opacity="0.7" />
<circle cx="529.3889159646244" cy="274.421223874102" r="14" fill="#2e7d32" fill-opacity="0.7" />
<circle cx="532.0014253358664" cy="252.33942686421514" r="13" fill="#43a047" fill-opacity="0.7" />
<circle cx="472.9357593733038" cy="285.65015878250097" r="8" fill="#2e7d32" fill-opacity="0.7" />
<circle cx="485.977801745945" cy="288.8053376483494" r="16" fill="#66bb6a" fill-opacity="0.7" />
<path d="M423,355 Q367.1071428571429,335 372.2503477076864,255.39819926037174" stroke="#5d4037" stroke-width="8" fill="none" stroke-linecap="round" stroke-opacity="1.0" />
<circle cx="370.55324280672596" cy="220.82651810447172" r="11" fill="#66bb6a" fill-opacity="0.7" />
<circle cx="337.58392102855987" cy="221.82921792463063" r="14" fill="#66bb6a" fill-opacity="0.7" />
<circle cx="364.71262626911476" cy="235.2517458377538" r="14" fill="#66bb6a" fill-opacity="0.7" />
<circle cx="360.1166526257426" cy="228.37305715484217" r="15" fill="#2e7d32" fill-opacity="0.7" />
<circle cx="370.57349788129363" cy="285.46342661367703" r="11" fill="#43a047" fill-opacity="0.7" />
<circle cx="403.78566301754006" cy="277.4451864669125" r="9" fill="#2e7d32" fill-opacity="0.7" />
<circle cx="365.4051986409677" cy="283.7564165242171" r="10" fill="#2e7d32" fill-opacity="0.7" />
<circle cx="350.82262781149603" cy="226.98469446097587" r="12" fill="#2e7d32" fill-opacity="0.7" />
<circle cx="403.5127284202048" cy="235.61215379916507" r="12" fill="#2e7d32" fill-opacity="0.7" />
<circle cx="393.0289615371295" cy="236.55388061230542" r="15" fill="#a5d6a7" fill-opacity="0.7" />
<text x="400" y="580" font-family="Segoe UI, Helvetica, Arial, sans-serif" font-size="20" fill="#3e2723" text-anchor="middle" font-weight="bold">@prithwiraj84's Contribution Garden</text>
<text x="400" y="595" font-family="Segoe UI, Helvetica, Arial, sans-serif" font-size="14" fill="#5d4037" text-anchor="middle" font-weight="bold">Grown over 5 years</text></svg>