<svg xmlns="http://www.w3.org/2000/svg" width="800" height="600" viewBox="0 0 800 600">
        <defs>
            <linearGradient id="sky" x1="0%" y1="0%" x2="0%" y2="100%">
                <stop offset="0%" style="stop-color:#e0f7fa;stop-opacity:1" />
                <stop offset="100%" style="stop-color:#ffffff;stop-opacity:1" />
            </linearGradient>
            <filter id="glow" x="-20%" y="-20%" width="140%" height="140%">
                <feGaussianBlur stdDeviation="2" result="coloredBlur"/>
                <feMerge>
                    <feMergeNode in="coloredBlur"/>
                    <feMergeNode in="SourceGraphic"/>
                </feMerge>
            </filter>
        </defs>
        <rect width="100%" height="100%" fill="url(#sky)"/><path d="M0,550 Q400,530 800,550 L800,600 L0,600 Z" stroke="#4e342e" stroke-width="0" fill="#5d4037" stroke-linecap="round" stroke-opacity="1.0" />
<path d="M0,550 Q400,530 800,550" stroke="none" stroke-width="0" fill="#76ff03" stroke-linecap="round" stroke-opacity="0.1" />
<path d="M400,550 Q403.0,470.0 406,390" stroke="#4e342e" stroke-width="35" fill="none" stroke-linecap="round" stroke-opacity="1.0" />
<path d="M406,430 Q489.51063829787233,410 492.022316766892,286.83482318060464" stroke="#5d4037" stroke-width="8" fill="none" stroke-linecap="round" stroke-opacity="1.0" />
<circle cx="496.8764574930416" cy="291.1180322866703" r="15" fill="#43a047" fill-opacity="0.7" />
<circle cx="488.0523592426602" cy="274.2176807602583" r="16" fill="#43a047" fill-opacity="0.7" />
<circle cx="510.33878842221566" cy="275.1816669755296" r="12" fill="#a5d6a7" fill-opacity="0.7" />
<circle cx="461.2421672665015" cy="280.4187436483891" r="11" fill="#2e7d32" fill-opacity="0.7" />
<circle cx="518.1168297907534" cy="264.6735727595582" r="10" fill="#2e7d32" fill-opacity="0.7" />
<circle cx="500.0300274798902" cy="287.6803485114077" r="10" fill="#2e7d32" fill-opacity="0.7" />
<circle cx="515.363247087049" cy="288.6720101277019" r="12" fill="#66bb6a" fill-opacity="0.7" />
<circle cx="457.77459956246025" cy="289.6523198088199" r="13" fill="#66bb6a" fill-opacity="0.7" />
<circle cx="515.3017173721513" cy="294.3176513191863" r="15" fill="#43a047" fill-opacity="0.7" />
<circle cx="515.871027940687" cy="270.64419948679944" r="11" fill="#2e7d32" fill-opacity="0.7" />
<circle cx="525.7332364626135" cy="304.17055462648284" r="14" fill="#a5d6a7" fill-opacity="0.7" />
<circle cx="498.79724220947196" cy="316.58202336737014" r="12" fill="#43a047" fill-opacity="0.7" />
<path d="M406,415 Q341.63829787234044,395 332.16728851225895,309.55596025641705" stroke="#5d4037" stroke-width="8" fill="none" stroke-linecap="round" stroke-opacity="1.0" />
<circle cx="321.0284892893982" cy="297.46866712672715" r="8" fill="#2e7d32" fill-opacity="0.7" />
<circle cx="338.7128835872813" cy="304.36373695613986" r="13" fill="#a5d6a7" fill-opacity="0.7" />
<circle cx="328.83741083875856" cy="308.48803908218235" r="12" fill="#43a047" fill-opacity="0.7" />
<circle cx="330.07816001447907" cy="276.3969236078253" r="13" fill="#a5d6a7" fill-opacity="0.7" />
<circle cx="355.6104690231109" cy="281.10558226030145" r="11" fill="#a5d6a7" fill-opacity="0.7" />
<circle cx="297.87669289616593" cy="323.78512677640936" r="14" fill="#66bb6a" fill-opacity="0.7" />
<circle cx="357.7900656588246" cy="307.4529816576898" r="16" fill="#2e7d32" fill-opacity="0.7" />
<circle cx="301.1093615961098" cy="336.2904143286637" r="11" fill="#a5d6a7" fill-opacity="0.7" />
<circle cx="304.87522895047897" cy="301.8385116897891" r="8" fill="#66bb6a" fill-opacity="0.7" />
<circle cx="315.60727089621145" cy="324.9152496460254" r="15" fill="#a5d6a7" fill-opacity="0.7" />
<path d="M406,400 Q463.4468085106383,380 463.44680851063833,300.4992089268943" stroke="#5d4037" stroke-width="8" fill="none" stroke-linecap="round" stroke-opacity="1.0" />
<circle cx="445.856005471502" cy="306.4314976438725" r="14" fill="#66bb6a" fill-opacity="0.7" />
<circle cx="471.67991574606015" cy="326.9493571446664" r="8" fill="#2e7d32" fill-opacity="0.7" />
<circle cx="429.3598670566055" cy="271.47134197594744" r="16" fill="#43a047" fill-opacity="0.7" />
<circle cx="435.21841580639085" cy="332.92829078415866" r="14" fill="#66bb6a" fill-opacity="0.7" />
<circle cx="471.39345156697783" cy="282.05424150806596" r="9" fill="#66bb6a" fill-opacity="0.7" />
<circle cx="483.372813882427" cy="287.19491123998995" r="8" fill="#2e7d32" fill-opacity="0.7" />
<circle cx="432.34314242651857" cy="298.04502718308584" r="13" fill="#2e7d32" fill-opacity="0.7" />
<circle cx="450.337485484149" cy="312.21297149790416" r="15" fill="#a5d6a7" fill-opacity="0.7" />
<circle cx="431.5775842159424" cy="300.5661427016404" r="9" fill="#43a047" fill-opacity="0.7" />
<circle cx="480.89580134087123" cy="271.053304697897" r="9" fill="#43a047" fill-opacity="0.7" />
<path d="M406,385 Q349.0851063829787,365 352.5601518956486,284.4942633660583" stroke="#5d4037" stroke-width="8" fill="none" stroke-linecap="round" stroke-opacity="1.0" />
<circle cx="318.46757092845115" cy="257.7401920431971" r="14" fill="#43a047" fill-opacity="0.7" />
<circle cx="370.8792764112946" cy="289.9491679386299" r="16" fill="#2e7d32" fill-opacity="0.7" />
<circle cx="371.5263490107251" cy="307.47065171027145" r="11" fill="#2e7d32" fill-opacity="0.7" />
<circle cx="321.7893798708712" cy="307.0917634952287" r="13" fill="#a5d6a7" fill-opacity="0.7" />
<circle cx="340.6597353646016" cy="288.34071657848324" r="13" fill="#a5d6a7" fill-opacity="0.7" />
<circle cx="360.8696438072276" cy="288.0898936187684" r="16" fill="#a5d6a7" fill-opacity="0.7" />
<circle cx="369.35967267283274" cy="278.04565379593606" r="9" fill="#43a047" fill-opacity="0.7" />
<circle cx="344.91295423442904" cy="279.71633496411283" r="16" fill="#66bb6a" fill-opacity="0.7" />
<circle cx="328.6525059449099" cy="315.77383717402984" r="16" fill="#66bb6a" fill-opacity="0.7" />
<circle cx="335.3837033742723" cy="267.5773952818909" r="8" fill="#a5d6a7" fill-opacity="0.7" />
<path d="M406,370 Q462.9148936170213,350 467.99614547511476,274.53430769131876" stroke="#5d4037" stroke-width="8" fill="none" stroke-linecap="round" stroke-opacity="1.0" />
<circle cx="454.2487943002789" cy="304.1278559203271" r="9" fill="#a5d6a7" fill-opacity="0.7" />
<circle cx="455.70483704182874" cy="285.22946819904445" r="15" fill="#a5d6a7" fill-opacity="0.7" />
<circle cx="463.0965464443936" cy="251.81460565310218" r="16" fill="#2e7d32" fill-opacity="0.7" />
<circle cx="442.532095033797" cy="251.87651653003752" r="13" fill="#a5d6a7" fill-opacity="0.7" />
<circle cx="441.7268714882514" cy="298.15802221683145" r="11" fill="#66bb6a" fill-opacity="0.7" />
<circle cx="443.1441183564341" cy="249.46274376132726" r="9" fill="#2e7d32" fill-opacity="0.7" />
<circle cx="434.6224794146443" cy="257.7579519682315" r="9" fill="#43a047" fill-opacity="0.7" />
<circle cx="454.1911097028638" cy="278.82704805663485" r="15" fill="#2e7d32" fill-opacity="0.7" />
<circle cx="476.44935440272843" cy="273.83800675259505" r="9" fill="#a5d6a7" fill-opacity="0.7" />
<circle cx="480.487409849957" cy="258.76208072387544" r="13" fill="#2e7d32" fill-opacity="0.7" />
<path d="M406,355 Q350.1489361702128,335 315.6310804155644,289.34313671201096" stroke="#5d4037" stroke-width="8" fill="none" stroke-linecap="round" stroke-opacity="1.0" />
<circle cx="348.06429897248705" cy="309.84683709665836" r="14" fill="#43a047" fill-opacity="0.7" />
<circle cx="284.6111541683007" cy="264.03402226587167" r="9" fill="#43a047" fill-opacity="0.7" />
<circle cx="325.6172465240674" cy="291.6733891180594" r="11" fill="#43a047" fill-opacity="0.7" />
<circle cx="337.23712130971506" cy="296.33303455038026" r="12" fill="#43a047" fill-opacity="0.7" />
<circle cx="296.5753366457038" cy="290.8406343764381" r="13" fill="#a5d6a7" fill-opacity="0.7" />
<circle cx="303.08401825288706" cy="265.02427004365177" r="15" fill="#66bb6a" fill-opacity="0.7" />
<circle cx="280.64472626148216" cy="275.3119478347412" r="11" fill="#66bb6a" fill-opacity="0.7" />
<circle cx="291.83295221818133" cy="323.89214110741057" r="9" fill="#66bb6a" fill-opacity="0.7" />
<circle cx="304.00787194452107" cy="278.7501689811112" r="14" fill="#a5d6a7" fill-opacity="0.7" />
<circle cx="345.87315540838335" cy="257.04637807925843" r="12" fill="#2e7d32" fill-opacity="0.7" />
<text x="400" y="580" font-family="Segoe UI, Helvetica, Arial, sans-serif" font-size="20" fill="#3e2723" text-anchor="middle" font-weight="bold">@prithwiraj84's Contribution Garden</text>
<text x="400" y="595" font-family="Segoe UI, Helvetica, Arial, sans-serif" font-size="14" fill="#5d4037" text-anchor="middle" font-weight="bold">Grown over 5 years</text></svg>