<svg xmlns="http://www.w3.org/2000/svg" width="800" height="600" viewBox="0 0 800 600">
        <defs>
            <linearGradient id="sky" x1="0%" y1="0%" x2="0%" y2="100%">
                <stop offset="0%" style="stop-color:#e0f7fa;stop-opacity:1" />
                <stop offset="100%" style="stop-color:#ffffff;stop-opacity:1" />
            </linearGradient>
            <filter id="glow" x="-20%" y="-20%" width="140%" height="140%">
                <feGaussianBlur stdDeviation="2" result="coloredBlur"/>
                <feMerge>
                    <feMergeNode in="coloredBlur"/>
                    <feMergeNode in="SourceGraphic"/>
                </feMerge>
            </filter>
        </defs>
        <rect width="100%" height="100%" fill="url(#sky)"/><path d="M0,550 Q400,530 800,550 L800,600 L0,600 Z" stroke="#4e342e" stroke-width="0" fill="#5d4037" stroke-linecap="round" stroke-opacity="1.0" />
<path d="M0,550 Q400,530 800,550" stroke="none" stroke-width="0" fill="#76ff03" stroke-linecap="round" stroke-opacity="0.1" />
<path d="M400,550 Q405.5,470.0 411,390" stroke="#4e342e" stroke-width="35" fill="none" stroke-linecap="round" stroke-opacity="1.0" />
<path d="M411,430 Q493.2992700729927,410 525.3397536777401,311.59771899535343" stroke="#5d4037" stroke-width="8" fill="none" stroke-linecap="round" stroke-opacity="1.0" />
<circle cx="549.4199935982133" cy="300.70143062722724" r="10" fill="#2e7d32" fill-opacity="0.7" />
<circle cx="515.2580285801646" cy="295.0146413265615" r="15" fill="#a5d6a7" fill-opacity="0.7" />
<circle cx="529.9436975846703" cy="327.1762964164193" r="13" fill="#66bb6a" fill-opacity="0.7" />
<circle cx="500.591381321568" cy="337.73522379372014" r="15" fill="#a5d6a7" fill-opacity="0.7" />
<circle cx="510.0094312830406" cy="298.95047803664806" r="11" fill="#66bb6a" fill-opacity="0.7" />
<circle cx="525.2265993323186" cy="299.8818033611853" r="15" fill="#a5d6a7" fill-opacity="0.7" />
<circle cx="508.556203043175" cy="313.226173968581" r="13" fill="#43a047" fill-opacity="0.7" />
<circle cx="498.0574862828547" cy="301.42260015295085" r="14" fill="#a5d6a7" fill-opacity="0.7" />
<circle cx="510.0203795736467" cy="321.15414787612195" r="12" fill="#43a047" fill-opacity="0.7" />
<circle cx="555.2207748769637" cy="289.79892188820486" r="14" fill="#2e7d32" fill-opacity="0.7" />
<circle cx="518.860072668425" cy="277.0115596836737" r="15" fill="#2e7d32" fill-opacity="0.7" />
<path d="M411,415 Q346.2189781021898,395 311.7497163112273,331.7191235625104" stroke="#5d4037" stroke-width="8" fill="none" stroke-linecap="round" stroke-opacity="1.0" />
<circle cx="297.6725972939706" cy="342.51051135526376" r="11" fill="#66bb6a" fill-opacity="0.7" />
<circle cx="294.82918417469966" cy="349.86968058436184" r="15" fill="#2e7d32" fill-opacity="0.7" />
<circle cx="305.92398400881797" cy="317.8522029115861" r="9" fill="#a5d6a7" fill-opacity="0.7" />
<circle cx="300.33953733489676" cy="360.2409188275701" r="13" fill="#43a047" fill-opacity="0.7" />
<circle cx="299.9009867289809" cy="356.5670041804007" r="10" fill="#66bb6a" fill-opacity="0.7" />
<circle cx="283.3019558582859" cy="341.0206524502732" r="13" fill="#a5d6a7" fill-opacity="0.7" />
<circle cx="333.65559576043563" cy="333.507502817974" r="11" fill="#a5d6a7" fill-opacity="0.7" />
<circle cx="302.70779714419893" cy="327.08652612174404" r="10" fill="#66bb6a" fill-opacity="0.7" />
<circle cx="320.73637371235566" cy="330.3831693276062" r="12" fill="#2e7d32" fill-opacity="0.7" />
<circle cx="336.71462717618465" cy="316.5022538829972" r="15" fill="#2e7d32" fill-opacity="0.7" />
<path d="M411,400 Q468.66423357664235,380 493.9603565354065,319.88611493976526" stroke="#5d4037" stroke-width="8" fill="none" stroke-linecap="round" stroke-opacity="1.0" />
<circle cx="510.45081986319974" cy="299.0981640508982" r="14" fill="#66bb6a" fill-opacity="0.7" />
<circle cx="495.5369497941897" cy="293.44463953251466" r="16" fill="#66bb6a" fill-opacity="0.7" />
<circle cx="481.24262989084946" cy="310.03342029126276" r="9" fill="#43a047" fill-opacity="0.7" />
<circle cx="491.4969474476901" cy="350.9248924209322" r="13" fill="#43a047" fill-opacity="0.7" />
<circle cx="527.1962508738136" cy="330.039628964133" r="8" fill="#66bb6a" fill-opacity="0.7" />
<circle cx="487.28032442380186" cy="303.6831618958748" r="10" fill="#a5d6a7" fill-opacity="0.7" />
<circle cx="522.5781793876795" cy="302.0878691166884" r="13" fill="#2e7d32" fill-opacity="0.7" />
<circle cx="510.8240080719944" cy="285.45348170238253" r="13" fill="#43a047" fill-opacity="0.7" />
<circle cx="523.1703168136589" cy="329.48637499978855" r="11" fill="#2e7d32" fill-opacity="0.7" />
<circle cx="462.0924670711246" cy="329.83319960326804" r="14" fill="#43a047" fill-opacity="0.7" />
<path d="M411,385 Q353.88321167883214,365 337.5720723241289,297.49200339553283" stroke="#5d4037" stroke-width="8" fill="none" stroke-linecap="round" stroke-opacity="1.0" />
<circle cx="307.4135956112173" cy="281.16504901631095" r="9" fill="#a5d6a7" fill-opacity="0.7" />
<circle cx="364.3435981147162" cy="293.1954720079709" r="11" fill="#a5d6a7" fill-opacity="0.7" />
<circle cx="361.83033440909975" cy="327.01513925247286" r="16" fill="#2e7d32" fill-opacity="0.7" />
<circle cx="324.69027623857414" cy="316.2585150814517" r="9" fill="#66bb6a" fill-opacity="0.7" />
<circle cx="321.71353232172834" cy="294.9304766750991" r="15" fill="#2e7d32" fill-opacity="0.7" />
<circle cx="337.8518480924987" cy="290.96365055652154" r="8" fill="#66bb6a" fill-opacity="0.7" />
<circle cx="338.5047599997761" cy="315.96205108208727" r="12" fill="#a5d6a7" fill-opacity="0.7" />
<circle cx="357.08397905165685" cy="313.2773843832975" r="13" fill="#43a047" fill-opacity="0.7" />
<circle cx="316.8949524815001" cy="282.50621873135964" r="8" fill="#66bb6a" fill-opacity="0.7" />
<circle cx="328.4389069366463" cy="316.4293248386081" r="11" fill="#43a047" fill-opacity="0.7" />
<path d="M411,370 Q468.11678832116786,350 468.1167883211679,271.07082066258056" stroke="#5d4037" stroke-width="8" fill="none" stroke-linecap="round" stroke-opacity="1.0" />
<circle cx="494.9301287632903" cy="297.6937611138739" r="9" fill="#43a047" fill-opacity="0.7" />
<circle cx="475.27244704598456" cy="280.0577044525495" r="13" fill="#a5d6a7" fill-opacity="0.7" />
<circle cx="493.49084040858116" cy="243.07656465845503" r="16" fill="#a5d6a7" fill-opacity="0.7" />
<circle cx="495.2087906716825" cy="247.35114812688303" r="15" fill="#2e7d32" fill-opacity="0.7" />
<circle cx="442.7382722734583" cy="247.08395813981866" r="13" fill="#a5d6a7" fill-opacity="0.7" />
<circle cx="488.93535029165935" cy="275.02018132509454" r="13" fill="#2e7d32" fill-opacity="0.7" />
<circle cx="485.5996423707152" cy="274.0580284761101" r="10" fill="#66bb6a" fill-opacity="0.7" />
<circle cx="439.26868882257793" cy="285.4903756570896" r="12" fill="#66bb6a" fill-opacity="0.7" />
<circle cx="462.6579300451049" cy="244.6516041027508" r="16" fill="#2e7d32" fill-opacity="0.7" />
<circle cx="469.37534238430345" cy="291.15623938218374" r="12" fill="#2e7d32" fill-opacity="0.7" />
<path d="M411,355 Q354.978102189781,335 314.95972214761,297.29317919803407" stroke="#5d4037" stroke-width="8" fill="none" stroke-linecap="round" stroke-opacity="1.0" />
<circle cx="348.6741043735589" cy="271.4988546679939" r="12" fill="#a5d6a7" fill-opacity="0.7" />
<circle cx="286.8490141568292" cy="299.69944636697073" r="15" fill="#66bb6a" fill-opacity="0.7" />
<circle cx="331.22815102480365" cy="325.72961683515473" r="16" fill="#43a047" fill-opacity="0.7" />
<circle cx="340.7017883876742" cy="267.8396118730967" r="11" fill="#a5d6a7" fill-opacity="0.7" />
<circle cx="324.8945885371575" cy="299.55994444379536" r="14" fill="#a5d6a7" fill-opacity="0.7" />
<circle cx="337.1940186714238" cy="277.92212231813295" r="8" fill="#66bb6a" fill-opacity="0.7" />
<circle cx="343.2233607701639" cy="305.5131067190431" r="16" fill="#2e7d32" fill-opacity="0.7" />
<circle cx="306.29693695282594" cy="301.438013538657" r="15" fill="#66bb6a" fill-opacity="0.7" />
<circle cx="316.5682493127334" cy="317.4124146525846" r="12" fill="#43a047" fill-opacity="0.7" />
<circle cx="307.0128320741281" cy="279.6130380404133" r="10" fill="#66bb6a" fill-opacity="0.7" />
<text x="400" y="580" font-family="Segoe UI, Helvetica, Arial, sans-serif" font-size="20" fill="#3e2723" text-anchor="middle" font-weight="bold">@prithwiraj84's Contribution Garden</text>
<text x="400" y="595" font-family="Segoe UI, Helvetica, Arial, sans-serif" font-size="14" fill="#5d4037" text-anchor="middle" font-weight="bold">Grown over 5 years</text></svg>