<svg xmlns="http://www.w3.org/2000/svg" width="800" height="600" viewBox="0 0 800 600">
        <defs>
            <linearGradient id="sky" x1="0%" y1="0%" x2="0%" y2="100%">
                <stop offset="0%" style="stop-color:#e0f7fa;stop-opacity:1" />
                <stop offset="100%" style="stop-color:#ffffff;stop-opacity:1" />
            </linearGradient>
            <filter id="glow" x="-20%" y="-20%" width="140%" height="140%">
                <feGaussianBlur stdDeviation="2" result="coloredBlur"/>
                <feMerge>
                    <feMergeNode in="coloredBlur"/>
                    <feMergeNode in="SourceGraphic"/>
                </feMerge>
            </filter>
        </defs>
        <rect width="100%" height="100%" fill="url(#sky)"/><path d="M0,550 Q400,530 800,550 L800,600 L0,600 Z" stroke="#4e342e" stroke-width="0" fill="#5d4037" stroke-linecap="round" stroke-opacity="1.0" />
<path d="M0,550 Q400,530 800,550" stroke="none" stroke-width="0" fill="#76ff03" stroke-linecap="round" stroke-opacity="0.1" />
<path d="M400,550 Q398.5,470.0 397,390" stroke="#4e342e" stroke-width="35" fill="none" stroke-linecap="round" stroke-opacity="1.0" />
<path d="M397,430 Q478.6666666666667,410 501.9886429154681,304.87940762390025" stroke="#5d4037" stroke-width="8" fill="none" stroke-linecap="round" stroke-opacity="1.0" />
<circle cx="524.44124971918" cy="324.7739062945542" r="14" fill="#66bb6a" fill-opacity="0.7" />
<circle cx="525.4888044886706" cy="289.1825609175625" r="13" fill="#43a047" fill-opacity="0.7" />
<circle cx="526.1402704672039" cy="325.21604487830945" r="16" fill="#66bb6a" fill-opacity="0.7" />
<circle cx="504.47456442786256" cy="300.21541689005284" r="13" fill="#43a047" fill-opacity="0.7" />
<circle cx="525.7020886466464" cy="283.5556696947815" r="14" fill="#2e7d32" fill-opacity="0.7" />
<circle cx="512.1315849236757" cy="289.60930879761446" r="13" fill="#a5d6a7" fill-opacity="0.7" />
<circle cx="481.7283989123458" cy="280.989551130313" r="13" fill="#2e7d32" fill-opacity="0.7" />
<circle cx="493.0773282488727" cy="323.9907491966814" r="14" fill="#66bb6a" fill-opacity="0.7" />
<circle cx="479.69223843780264" cy="318.9980719904258" r="15" fill="#2e7d32" fill-opacity="0.7" />
<circle cx="481.1822150048177" cy="281.9205787903285" r="15" fill="#2e7d32" fill-opacity="0.7" />
<circle cx="482.7614663695802" cy="325.3797370040645" r="11" fill="#2e7d32" fill-opacity="0.7" />
<path d="M397,415 Q332.0,395 294.55860203112616,334.9640082076644" stroke="#5d4037" stroke-width="8" fill="none" stroke-linecap="round" stroke-opacity="1.0" />
<circle cx="295.0493846635435" cy="363.2948931274544" r="15" fill="#66bb6a" fill-opacity="0.7" />
<circle cx="283.2116782448157" cy="354.3120730844583" r="10" fill="#66bb6a" fill-opacity="0.7" />
<circle cx="303.8702953248421" cy="329.98251943074087" r="14" fill="#a5d6a7" fill-opacity="0.7" />
<circle cx="274.4487186416817" cy="302.2747430922613" r="10" fill="#a5d6a7" fill-opacity="0.7" />
<circle cx="307.5830471715947" cy="328.67534660898565" r="9" fill="#2e7d32" fill-opacity="0.7" />
<circle cx="295.2926302425998" cy="343.9724634354351" r="14" fill="#2e7d32" fill-opacity="0.7" />
<circle cx="306.5044590934482" cy="327.355133406859" r="9" fill="#2e7d32" fill-opacity="0.7" />
<circle cx="275.6454598954156" cy="344.1237894716617" r="9" fill="#2e7d32" fill-opacity="0.7" />
<circle cx="282.8656490003757" cy="319.08834007905006" r="14" fill="#66bb6a" fill-opacity="0.7" />
<circle cx="260.4028003420975" cy="369.56827040306666" r="10" fill="#66bb6a" fill-opacity="0.7" />
<path d="M397,400 Q454.77777777777777,380 485.5206912048597,325.72232065844435" stroke="#5d4037" stroke-width="8" fill="none" stroke-linecap="round" stroke-opacity="1.0" />
<circle cx="456.6211375462026" cy="339.32731673676585" r="15" fill="#a5d6a7" fill-opacity="0.7" />
<circle cx="496.60727515752654" cy="296.8094752414593" r="13" fill="#66bb6a" fill-opacity="0.7" />
<circle cx="463.86023925961285" cy="313.11765304968725" r="13" fill="#43a047" fill-opacity="0.7" />
<circle cx="465.33981962869296" cy="306.77020188133065" r="14" fill="#43a047" fill-opacity="0.7" />
<circle cx="506.0090941725896" cy="300.9183149788927" r="13" fill="#43a047" fill-opacity="0.7" />
<circle cx="511.83098268515266" cy="342.3216061369669" r="9" fill="#a5d6a7" fill-opacity="0.7" />
<circle cx="504.750048650922" cy="315.88504718158805" r="15" fill="#2e7d32" fill-opacity="0.7" />
<circle cx="518.8782415250384" cy="303.0729001214735" r="13" fill="#66bb6a" fill-opacity="0.7" />
<circle cx="459.26904719715907" cy="331.0378288535819" r="12" fill="#66bb6a" fill-opacity="0.7" />
<circle cx="485.94643098691455" cy="312.1938236127637" r="14" fill="#66bb6a" fill-opacity="0.7" />
<path d="M397,385 Q339.77777777777777,365 296.90463351626914,329.51623234958583" stroke="#5d4037" stroke-width="8" fill="none" stroke-linecap="round" stroke-opacity="1.0" />
<circle cx="322.6690631728943" cy="327.5838870280363" r="12" fill="#a5d6a7" fill-opacity="0.7" />
<circle cx="319.66469641611303" cy="312.33720564004693" r="8" fill="#66bb6a" fill-opacity="0.7" />
<circle cx="287.5763065146172" cy="322.53671054731296" r="16" fill="#43a047" fill-opacity="0.7" />
<circle cx="263.73329704783475" cy="305.6627545769477" r="8" fill="#2e7d32" fill-opacity="0.7" />
<circle cx="285.5892538562915" cy="316.617411766625" r="15" fill="#a5d6a7" fill-opacity="0.7" />
<circle cx="297.55265271529424" cy="357.546477998495" r="15" fill="#2e7d32" fill-opacity="0.7" />
<circle cx="284.1770508613876" cy="305.14610925853094" r="15" fill="#2e7d32" fill-opacity="0.7" />
<circle cx="306.47736334389856" cy="361.46433129120857" r="11" fill="#a5d6a7" fill-opacity="0.7" />
<circle cx="328.78338625807464" cy="324.91972249862016" r="8" fill="#2e7d32" fill-opacity="0.7" />
<circle cx="275.3831035621069" cy="342.3855930725783" r="13" fill="#a5d6a7" fill-opacity="0.7" />
<path d="M397,370 Q454.22222222222223,350 477.9244427357938,289.0755572642062" stroke="#5d4037" stroke-width="8" fill="none" stroke-linecap="round" stroke-opacity="1.0" />
<circle cx="499.1868260344802" cy="318.4927537869598" r="11" fill="#a5d6a7" fill-opacity="0.7" />
<circle cx="448.6357969520069" cy="319.19816726996186" r="14" fill="#a5d6a7" fill-opacity="0.7" />
<circle cx="477.3281330064205" cy="255.0202675364372" r="16" fill="#2e7d32" fill-opacity="0.7" />
<circle cx="492.36831155570616" cy="263.8635486627668" r="15" fill="#43a047" fill-opacity="0.7" />
<circle cx="466.75659617982774" cy="258.3553735295606" r="8" fill="#a5d6a7" fill-opacity="0.7" />
<circle cx="456.44261517788374" cy="322.1490310497665" r="14" fill="#a5d6a7" fill-opacity="0.7" />
<circle cx="506.3402585758347" cy="298.08083588864133" r="10" fill="#2e7d32" fill-opacity="0.7" />
<circle cx="444.6688311594883" cy="314.30459918319536" r="10" fill="#2e7d32" fill-opacity="0.7" />
<circle cx="473.4352808873055" cy="287.7472986492318" r="8" fill="#2e7d32" fill-opacity="0.7" />
<circle cx="468.7337495150948" cy="294.12105725735574" r="12" fill="#2e7d32" fill-opacity="0.7" />
<path d="M397,355 Q340.8888888888889,335 307.3753483169149,287.462980735159" stroke="#5d4037" stroke-width="8" fill="none" stroke-linecap="round" stroke-opacity="1.0" />
<circle cx="299.02824540046174" cy="317.2088968911072" r="15" fill="#a5d6a7" fill-opacity="0.7" />
<circle cx="311.3803028199946" cy="311.2108594097755" r="13" fill="#a5d6a7" fill-opacity="0.7" />
<circle cx="317.0506082861398" cy="263.5303807151519" r="13" fill="#2e7d32" fill-opacity="0.7" />
<circle cx="337.0992129306769" cy="309.41756313309196" r="10" fill="#2e7d32" fill-opacity="0.7" />
<circle cx="318.3454180684066" cy="294.20386402022126" r="11" fill="#2e7d32" fill-opacity="0.7" />
<circle cx="332.71531252667063" cy="319.37112075758745" r="9" fill="#43a047" fill-opacity="0.7" />
<circle cx="316.93269639112054" cy="313.9227720979755" r="16" fill="#2e7d32" fill-opacity="0.7" />
<circle cx="315.86505867008674" cy="264.13695454220425" r="16" fill="#43a047" fill-opacity="0.7" />
<circle cx="317.7604306644628" cy="256.4181900978323" r="8" fill="#2e7d32" fill-opacity="0.7" />
<circle cx="325.16286864476626" cy="301.8791265870493" r="9" fill="#43a047" fill-opacity="0.7" />
<text x="400" y="580" font-family="Segoe UI, Helvetica, Arial, sans-serif" font-size="20" fill="#3e2723" text-anchor="middle" font-weight="bold">@prithwiraj84's Contribution Garden</text>
<text x="400" y="595" font-family="Segoe UI, Helvetica, Arial, sans-serif" font-size="14" fill="#5d4037" text-anchor="middle" font-weight="bold">Grown over 5 years</text></svg>