<svg xmlns="http://www.w3.org/2000/svg" width="800" height="600" viewBox="0 0 800 600">
        <defs>
            <linearGradient id="sky" x1="0%" y1="0%" x2="0%" y2="100%">
                <stop offset="0%" style="stop-color:#e0f7fa;stop-opacity:1" />
                <stop offset="100%" style="stop-color:#ffffff;stop-opacity:1" />
            </linearGradient>
            <filter id="glow" x="-20%" y="-20%" width="140%" height="140%">
                <feGaussianBlur stdDeviation="2" result="coloredBlur"/>
                <feMerge>
                    <feMergeNode in="coloredBlur"/>
                    <feMergeNode in="SourceGraphic"/>
                </feMerge>
            </filter>
        </defs>
        <rect width="100%" height="100%" fill="url(#sky)"/><path d="M0,550 Q400,530 800,550 L800,600 L0,600 Z" stroke="#4e342e" stroke-width="0" fill="#5d4037" stroke-linecap="round" stroke-opacity="1.0" />
<path d="M0,550 Q400,530 800,550" stroke="none" stroke-width="0" fill="#76ff03" stroke-linecap="round" stroke-opacity="0.1" />
<path d="M400,550 Q385.5,470.0 371,390" stroke="#4e342e" stroke-width="35" fill="none" stroke-linecap="round" stroke-opacity="1.0" />
<path d="M371,430 Q446.8333333333333,410 455.8109236930633,304.26263482915203" stroke="#5d4037" stroke-width="8" fill="none" stroke-linecap="round" stroke-opacity="1.0" />
<circle cx="471.01090591662347" cy="281.18814035480113" r="11" fill="#2e7d32" fill-opacity="0.7" />
<circle cx="423.0947991092172" cy="313.23238893083" r="14" fill="#2e7d32" fill-opacity="0.7" />
<circle cx="432.33303275195425" cy="296.68716494606304" r="9" fill="#43a047" fill-opacity="0.7" />
<circle cx="446.6617913182561" cy="273.6528314330553" r="9" fill="#43a047" fill-opacity="0.7" />
<circle cx="449.1261823627955" cy="290.34940022314896" r="9" fill="#43a047" fill-opacity="0.7" />
<circle cx="464.16331852747754" cy="325.2059189547411" r="9" fill="#66bb6a" fill-opacity="0.7" />
<circle cx="452.3660488385104" cy="284.25751538524753" r="15" fill="#66bb6a" fill-opacity="0.7" />
<circle cx="424.5709896747954" cy="288.19251430838716" r="9" fill="#a5d6a7" fill-opacity="0.7" />
<circle cx="443.5339655613121" cy="305.3897482268952" r="9" fill="#2e7d32" fill-opacity="0.7" />
<circle cx="465.5628149800782" cy="318.2683639298916" r="16" fill="#66bb6a" fill-opacity="0.7" />
<path d="M371,415 Q302.6666666666667,395 248.16481367244717,355.0892766054928" stroke="#5d4037" stroke-width="8" fill="none" stroke-linecap="round" stroke-opacity="1.0" />
<circle cx="232.07508124344258" cy="382.434974727186" r="12" fill="#43a047" fill-opacity="0.7" />
<circle cx="253.40944715011142" cy="345.1055448696244" r="12" fill="#2e7d32" fill-opacity="0.7" />
<circle cx="230.50441247797352" cy="351.4733668227099" r="13" fill="#66bb6a" fill-opacity="0.7" />
<circle cx="214.13436939275584" cy="381.26459211143947" r="9" fill="#43a047" fill-opacity="0.7" />
<circle cx="232.86321903798392" cy="341.13885474759485" r="13" fill="#43a047" fill-opacity="0.7" />
<circle cx="221.52987454326333" cy="330.0849245597233" r="16" fill="#66bb6a" fill-opacity="0.7" />
<circle cx="219.79189220878231" cy="323.2730704977524" r="16" fill="#66bb6a" fill-opacity="0.7" />
<circle cx="266.57798900139363" cy="355.8350752662072" r="13" fill="#a5d6a7" fill-opacity="0.7" />
<circle cx="259.3254016943802" cy="350.2742257194988" r="11" fill="#43a047" fill-opacity="0.7" />
<circle cx="273.8013984140017" cy="389.9830112392737" r="13" fill="#2e7d32" fill-opacity="0.7" />
<path d="M371,400 Q431.8333333333333,380 477.4120643686265,341.0148295366957" stroke="#5d4037" stroke-width="8" fill="none" stroke-linecap="round" stroke-opacity="1.0" />
<circle cx="483.12827621956285" cy="337.00818115757914" r="10" fill="#43a047" fill-opacity="0.7" />
<circle cx="460.4389656261241" cy="330.1472493452395" r="10" fill="#43a047" fill-opacity="0.7" />
<circle cx="456.8027787081799" cy="346.1863828952047" r="10" fill="#a5d6a7" fill-opacity="0.7" />
<circle cx="511.2264085608796" cy="313.33550246777156" r="16" fill="#66bb6a" fill-opacity="0.7" />
<circle cx="479.53591444175197" cy="316.3241467856543" r="13" fill="#43a047" fill-opacity="0.7" />
<circle cx="474.7360626341329" cy="351.7973254943476" r="16" fill="#43a047" fill-opacity="0.7" />
<circle cx="509.2374689777418" cy="311.67918454837593" r="13" fill="#66bb6a" fill-opacity="0.7" />
<circle cx="460.788653320329" cy="360.798869141731" r="14" fill="#2e7d32" fill-opacity="0.7" />
<circle cx="472.1799131222492" cy="372.84643381316573" r="8" fill="#66bb6a" fill-opacity="0.7" />
<circle cx="446.59445683578133" cy="350.61231887897713" r="9" fill="#a5d6a7" fill-opacity="0.7" />
<path d="M371,385 Q311.0,365 269.2342284612289,321.4096882920154" stroke="#5d4037" stroke-width="8" fill="none" stroke-linecap="round" stroke-opacity="1.0" />
<circle cx="274.32309251593216" cy="304.57412479472623" r="11" fill="#2e7d32" fill-opacity="0.7" />
<circle cx="241.28562079522212" cy="323.64793677682974" r="9" fill="#a5d6a7" fill-opacity="0.7" />
<circle cx="259.9617207766413" cy="310.2227451906614" r="10" fill="#2e7d32" fill-opacity="0.7" />
<circle cx="265.97289215399735" cy="355.42783714303096" r="9" fill="#2e7d32" fill-opacity="0.7" />
<circle cx="258.37765033031076" cy="345.0829876712627" r="13" fill="#66bb6a" fill-opacity="0.7" />
<circle cx="285.1708952254543" cy="310.8191923985337" r="14" fill="#66bb6a" fill-opacity="0.7" />
<circle cx="293.47162419769796" cy="340.4930286860958" r="15" fill="#2e7d32" fill-opacity="0.7" />
<circle cx="259.636306258562" cy="338.68754126648446" r="14" fill="#43a047" fill-opacity="0.7" />
<circle cx="264.1534979147456" cy="354.9721401150715" r="14" fill="#2e7d32" fill-opacity="0.7" />
<circle cx="288.6225225813099" cy="300.4949887077492" r="8" fill="#a5d6a7" fill-opacity="0.7" />
<path d="M371,370 Q427.6666666666667,350 436.0053294531186,277.1627683139143" stroke="#5d4037" stroke-width="8" fill="none" stroke-linecap="round" stroke-opacity="1.0" />
<circle cx="440.76240931304955" cy="267.1019866659805" r="16" fill="#43a047" fill-opacity="0.7" />
<circle cx="410.7516334980069" cy="268.2007942717964" r="16" fill="#a5d6a7" fill-opacity="0.7" />
<circle cx="403.6839474292939" cy="280.5788350423726" r="10" fill="#2e7d32" fill-opacity="0.7" />
<circle cx="470.9227390475376" cy="267.6507214738785" r="15" fill="#2e7d32" fill-opacity="0.7" />
<circle cx="469.47834812837306" cy="273.74776518063504" r="12" fill="#2e7d32" fill-opacity="0.7" />
<circle cx="418.62887035599545" cy="281.4896716610702" r="13" fill="#a5d6a7" fill-opacity="0.7" />
<circle cx="412.08229062240537" cy="247.7565452050144" r="15" fill="#66bb6a" fill-opacity="0.7" />
<circle cx="448.1096819577671" cy="245.69195933187552" r="11" fill="#66bb6a" fill-opacity="0.7" />
<circle cx="463.44953532103784" cy="297.821026633368" r="14" fill="#43a047" fill-opacity="0.7" />
<circle cx="453.2152918512591" cy="304.7776128263363" r="9" fill="#a5d6a7" fill-opacity="0.7" />
<path d="M371,355 Q317.6666666666667,335 285.8122122616221,290.8063975304482" stroke="#5d4037" stroke-width="8" fill="none" stroke-linecap="round" stroke-opacity="1.0" />
<circle cx="300.0481477334445" cy="305.1112463828503" r="9" fill="#43a047" fill-opacity="0.7" />
<circle cx="294.8525978600545" cy="279.093791473484" r="16" fill="#a5d6a7" fill-opacity="0.7" />
<circle cx="256.4365053509736" cy="325.67590247901194" r="13" fill="#2e7d32" fill-opacity="0.7" />
<circle cx="292.98597619850557" cy="273.11075736168164" r="12" fill="#66bb6a" fill-opacity="0.7" />
<circle cx="278.85644254410954" cy="298.1753303467907" r="16" fill="#43a047" fill-opacity="0.7" />
<circle cx="260.7180203880995" cy="317.9650236215132" r="11" fill="#43a047" fill-opacity="0.7" />
<circle cx="318.7748405613786" cy="260.74058447469065" r="11" fill="#a5d6a7" fill-opacity="0.7" />
<circle cx="310.5705140735828" cy="268.32641725012695" r="16" fill="#2e7d32" fill-opacity="0.7" />
<circle cx="295.6426907503436" cy="285.9113230310752" r="12" fill="#66bb6a" fill-opacity="0.7" />
<circle cx="308.4916868425621" cy="274.4889134938567" r="12" fill="#43a047" fill-opacity="0.7" />
<text x="400" y="580" font-family="Segoe UI, Helvetica, Arial, sans-serif" font-size="20" fill="#3e2723" text-anchor="middle" font-weight="bold">@prithwiraj84's Contribution Garden</text>
<text x="400" y="595" font-family="Segoe UI, Helvetica, Arial, sans-serif" font-size="14" fill="#5d4037" text-anchor="middle" font-weight="bold">Grown over 5 years</text></svg>