<svg xmlns="http://www.w3.org/2000/svg" width="800" height="600" viewBox="0 0 800 600"><rect width="100%" height="100%" fill="#f0f4f8"/><rect x="0" y="550" width="800" height="50" fill="#3e2723" />
<rect x="0" y="540" width="800" height="10" fill="#4caf50" />
<line x1="400" y1="550" x2="400" y2="400" stroke="#5d4037" stroke-width="45" stroke-linecap="round" />
<line x1="400" y1="400" x2="250.30922154214437" y2="373.60547699462654" stroke="#795548" stroke-width="8" stroke-linecap="round" />
<circle cx="275.85631859600096" cy="387.5637524666614" r="5" fill="rgb(50, 178, 50)" fill-opacity="0.8" />
<circle cx="309.303104438481" cy="395.341418157027" r="5" fill="rgb(50, 180, 50)" fill-opacity="0.8" />
<circle cx="333.88524498251724" cy="397.97084122047" r="8" fill="rgb(50, 153, 50)" fill-opacity="0.8" />
<line x1="400" y1="400" x2="271.1959475625701" y2="417.593068967517" stroke="#795548" stroke-width="8" stroke-linecap="round" />
<circle cx="293.55253212825306" cy="413.75325472979466" r="5" fill="rgb(50, 230, 50)" fill-opacity="0.8" />
<circle cx="342.09148717323154" cy="416.5241524306988" r="8" fill="rgb(50, 159, 50)" fill-opacity="0.8" />
<circle cx="349.0239278758155" cy="395.10151609334173" r="8" fill="rgb(50, 168, 50)" fill-opacity="0.8" />
<line x1="400" y1="400" x2="266.47922113240645" y2="463.8451377208255" stroke="#795548" stroke-width="8" stroke-linecap="round" />
<circle cx="309.1347216014446" cy="439.0675360701583" r="5" fill="rgb(50, 166, 50)" fill-opacity="0.8" />
<circle cx="362.86988036560126" cy="408.931913711752" r="6" fill="rgb(50, 249, 50)" fill-opacity="0.8" />
<circle cx="282.03145554298527" cy="464.13298312053666" r="4" fill="rgb(50, 224, 50)" fill-opacity="0.8" />
<line x1="400" y1="400" x2="297.4403165382001" y2="496.76007093949136" stroke="#795548" stroke-width="8" stroke-linecap="round" />
<circle cx="326.3507104917639" cy="458.39412235938846" r="8" fill="rgb(50, 162, 50)" fill-opacity="0.8" />
<circle cx="352.8309475940755" cy="448.7333303598693" r="7" fill="rgb(50, 221, 50)" fill-opacity="0.8" />
<circle cx="365.30546468622083" cy="427.5767906917893" r="7" fill="rgb(50, 218, 50)" fill-opacity="0.8" />
<line x1="400" y1="400" x2="328.49933530409743" y2="529.5826182327094" stroke="#795548" stroke-width="8" stroke-linecap="round" />
<circle cx="349.0544564391084" cy="479.38078562609576" r="4" fill="rgb(50, 178, 50)" fill-opacity="0.8" />
<circle cx="370.61363455211847" cy="466.26987442418846" r="6" fill="rgb(50, 232, 50)" fill-opacity="0.8" />
<circle cx="352.874367900894" cy="484.02099108815105" r="6" fill="rgb(50, 253, 50)" fill-opacity="0.8" />
<line x1="400" y1="400" x2="370.90044865723837" y2="548.169551904735" stroke="#795548" stroke-width="8" stroke-linecap="round" />
<circle cx="370.71541198364946" cy="485.69097219122983" r="5" fill="rgb(50, 202, 50)" fill-opacity="0.8" />
<circle cx="372.50186821681" cy="522.6082924381897" r="7" fill="rgb(50, 212, 50)" fill-opacity="0.8" />
<circle cx="372.29309966109554" cy="491.1230381275033" r="5" fill="rgb(50, 205, 50)" fill-opacity="0.8" />
<line x1="400" y1="400" x2="416.8334725481583" y2="544.0195618725818" stroke="#795548" stroke-width="8" stroke-linecap="round" />
<circle cx="392.3158168881681" cy="439.60477827340793" r="4" fill="rgb(50, 243, 50)" fill-opacity="0.8" />
<circle cx="396.33071235004195" cy="466.6867768984623" r="6" fill="rgb(50, 176, 50)" fill-opacity="0.8" />
<circle cx="408.3619276622471" cy="472.2374756066919" r="4" fill="rgb(50, 219, 50)" fill-opacity="0.8" />
<line x1="400" y1="400" x2="463.72685157379135" y2="540.1958929087866" stroke="#795548" stroke-width="8" stroke-linecap="round" />
<circle cx="441.1712971556284" cy="499.46861962316916" r="8" fill="rgb(50, 181, 50)" fill-opacity="0.8" />
<circle cx="427.90113946651957" cy="468.8770877800959" r="7" fill="rgb(50, 159, 50)" fill-opacity="0.8" />
<circle cx="420.73526989394475" cy="453.92299708080407" r="5" fill="rgb(50, 225, 50)" fill-opacity="0.8" />
<text x="400" y="580" font-family="Arial" font-size="16" fill="#ffffff" text-anchor="middle">Grown over 5 years</text></svg>