<svg xmlns="http://www.w3.org/2000/svg" width="800" height="600" viewBox="0 0 800 600"><rect width="100%" height="100%" fill="#f0f4f8"/><rect x="0" y="550" width="800" height="50" fill="#3e2723" />
<rect x="0" y="540" width="800" height="10" fill="#4caf50" />
<line x1="400" y1="550" x2="400" y2="400" stroke="#5d4037" stroke-width="45" stroke-linecap="round" />
<line x1="400" y1="400" x2="263.1117223313031" y2="375.86290330429665" stroke="#795548" stroke-width="8" stroke-linecap="round" />
<circle cx="358.14743716135047" cy="385.318505112469" r="4" fill="rgb(50, 177, 50)" fill-opacity="0.8" />
<circle cx="350.4423713689395" cy="379.6149841208247" r="5" fill="rgb(50, 246, 50)" fill-opacity="0.8" />
<circle cx="325.1693224750039" cy="382.7399547445757" r="4" fill="rgb(50, 157, 50)" fill-opacity="0.8" />
<line x1="400" y1="400" x2="241.47193546162475" y2="421.65300796002094" stroke="#795548" stroke-width="8" stroke-linecap="round" />
<circle cx="326.75947668090726" cy="402.16887083992924" r="5" fill="rgb(50, 226, 50)" fill-opacity="0.8" />
<circle cx="349.97301068358206" cy="393.80734778120734" r="7" fill="rgb(50, 195, 50)" fill-opacity="0.8" />
<circle cx="342.633082250209" cy="394.4063811966485" r="8" fill="rgb(50, 232, 50)" fill-opacity="0.8" />
<line x1="400" y1="400" x2="258.35971430937707" y2="467.7276123119568" stroke="#795548" stroke-width="8" stroke-linecap="round" />
<circle cx="308.5807788992638" cy="436.9859236469812" r="8" fill="rgb(50, 176, 50)" fill-opacity="0.8" />
<circle cx="348.33077940167493" cy="414.91463519119606" r="7" fill="rgb(50, 186, 50)" fill-opacity="0.8" />
<circle cx="304.80893338096644" cy="443.26325542435234" r="7" fill="rgb(50, 152, 50)" fill-opacity="0.8" />
<line x1="400" y1="400" x2="298.1676901797731" y2="496.07382930162265" stroke="#795548" stroke-width="8" stroke-linecap="round" />
<circle cx="341.4141766750513" cy="449.17820718077945" r="6" fill="rgb(50, 161, 50)" fill-opacity="0.8" />
<circle cx="339.5452540780794" cy="453.5073113898589" r="4" fill="rgb(50, 156, 50)" fill-opacity="0.8" />
<circle cx="326.13383931937244" cy="465.17631269916694" r="4" fill="rgb(50, 245, 50)" fill-opacity="0.8" />
<line x1="400" y1="400" x2="323.18509671183443" y2="539.2137587770324" stroke="#795548" stroke-width="8" stroke-linecap="round" />
<circle cx="358.35530586636065" cy="468.75997487169343" r="8" fill="rgb(50, 200, 50)" fill-opacity="0.8" />
<circle cx="338.33590565563736" cy="548.8851490481412" r="7" fill="rgb(50, 222, 50)" fill-opacity="0.8" />
<circle cx="345.5786994807141" cy="511.39841859459546" r="5" fill="rgb(50, 204, 50)" fill-opacity="0.8" />
<line x1="400" y1="400" x2="370.5150241361422" y2="550.1320625259898" stroke="#795548" stroke-width="8" stroke-linecap="round" />
<circle cx="379.3591977818572" cy="545.3689946297069" r="8" fill="rgb(50, 229, 50)" fill-opacity="0.8" />
<circle cx="384.6686837327677" cy="529.8868999394341" r="6" fill="rgb(50, 211, 50)" fill-opacity="0.8" />
<circle cx="395.9199875752884" cy="462.1446695670518" r="4" fill="rgb(50, 218, 50)" fill-opacity="0.8" />
<line x1="400" y1="400" x2="418.57486626003674" y2="558.9181372387109" stroke="#795548" stroke-width="8" stroke-linecap="round" />
<circle cx="421.36277778210643" cy="509.07077667452705" r="8" fill="rgb(50, 155, 50)" fill-opacity="0.8" />
<circle cx="418.9598227008609" cy="488.57149707017913" r="4" fill="rgb(50, 236, 50)" fill-opacity="0.8" />
<circle cx="421.3492375828377" cy="470.29529429916846" r="8" fill="rgb(50, 175, 50)" fill-opacity="0.8" />
<line x1="400" y1="400" x2="454.2092049101731" y2="519.2575452665652" stroke="#795548" stroke-width="8" stroke-linecap="round" />
<circle cx="410.7890696432842" cy="438.5528142843995" r="7" fill="rgb(50, 227, 50)" fill-opacity="0.8" />
<circle cx="440.9981622334769" cy="498.38991855699527" r="8" fill="rgb(50, 150, 50)" fill-opacity="0.8" />
<circle cx="453.12131835586433" cy="501.0978934656581" r="6" fill="rgb(50, 238, 50)" fill-opacity="0.8" />
<text x="400" y="580" font-family="Arial" font-size="16" fill="#ffffff" text-anchor="middle">Grown over 5 years</text></svg>