<svg xmlns="http://www.w3.org/2000/svg" width="800" height="600" viewBox="0 0 800 600"><rect width="100%" height="100%" fill="#f0f4f8"/><rect x="0" y="550" width="800" height="50" fill="#3e2723" />
<rect x="0" y="540" width="800" height="10" fill="#4caf50" />
<line x1="400" y1="550" x2="400" y2="400" stroke="#5d4037" stroke-width="45" stroke-linecap="round" />
<line x1="400" y1="400" x2="273.94460761443736" y2="377.7730332586329" stroke="#795548" stroke-width="8" stroke-linecap="round" />
<circle cx="324.5478930820874" cy="388.913031833861" r="8" fill="rgb(50, 221, 50)" fill-opacity="0.8" />
<circle cx="318.73393100848347" cy="389.2894615420024" r="7" fill="rgb(50, 162, 50)" fill-opacity="0.8" />
<circle cx="326.3052926183295" cy="393.31583666843255" r="6" fill="rgb(50, 152, 50)" fill-opacity="0.8" />
<line x1="400" y1="400" x2="254.35234070536774" y2="419.89370106326925" stroke="#795548" stroke-width="8" stroke-linecap="round" />
<circle cx="312.1221624896372" cy="410.64564276634616" r="4" fill="rgb(50, 163, 50)" fill-opacity="0.8" />
<circle cx="337.37328403247426" cy="405.55373951921047" r="4" fill="rgb(50, 183, 50)" fill-opacity="0.8" />
<circle cx="338.26380380407227" cy="418.4823630647481" r="8" fill="rgb(50, 175, 50)" fill-opacity="0.8" />
<line x1="400" y1="400" x2="270.9900582563116" y2="461.68820739241926" stroke="#795548" stroke-width="8" stroke-linecap="round" />
<circle cx="312.24469473684496" cy="434.9738381096117" r="8" fill="rgb(50, 222, 50)" fill-opacity="0.8" />
<circle cx="288.7687616582084" cy="449.19246924266497" r="8" fill="rgb(50, 255, 50)" fill-opacity="0.8" />
<circle cx="335.55050503004804" cy="417.58029736790326" r="8" fill="rgb(50, 154, 50)" fill-opacity="0.8" />
<line x1="400" y1="400" x2="298.1676901797731" y2="496.07382930162265" stroke="#795548" stroke-width="8" stroke-linecap="round" />
<circle cx="299.10626498772854" cy="494.1809219178632" r="8" fill="rgb(50, 220, 50)" fill-opacity="0.8" />
<circle cx="360.36822442113305" cy="436.112188061806" r="5" fill="rgb(50, 252, 50)" fill-opacity="0.8" />
<circle cx="300.55096807276675" cy="487.8298856034047" r="4" fill="rgb(50, 192, 50)" fill-opacity="0.8" />
<line x1="400" y1="400" x2="330.91489830058066" y2="525.204827076199" stroke="#795548" stroke-width="8" stroke-linecap="round" />
<circle cx="352.270901821116" cy="461.7136470155256" r="4" fill="rgb(50, 197, 50)" fill-opacity="0.8" />
<circle cx="375.92239010096336" cy="452.0193110862657" r="5" fill="rgb(50, 207, 50)" fill-opacity="0.8" />
<circle cx="336.55967224425854" cy="482.8329577877805" r="6" fill="rgb(50, 238, 50)" fill-opacity="0.8" />
<line x1="400" y1="400" x2="373.59842030491166" y2="534.4319775559517" stroke="#795548" stroke-width="8" stroke-linecap="round" />
<circle cx="399.09091485364706" cy="460.038405223944" r="5" fill="rgb(50, 242, 50)" fill-opacity="0.8" />
<circle cx="384.6469120683137" cy="493.05927005004133" r="6" fill="rgb(50, 213, 50)" fill-opacity="0.8" />
<circle cx="402.5887792280477" cy="464.3015677295442" r="6" fill="rgb(50, 248, 50)" fill-opacity="0.8" />
<line x1="400" y1="400" x2="416.8334725481583" y2="544.0195618725818" stroke="#795548" stroke-width="8" stroke-linecap="round" />
<circle cx="398.7828127796826" cy="448.7176094882304" r="4" fill="rgb(50, 164, 50)" fill-opacity="0.8" />
<circle cx="391.986417012222" cy="452.6529239244497" r="6" fill="rgb(50, 179, 50)" fill-opacity="0.8" />
<circle cx="402.187635884591" cy="528.1452720626916" r="8" fill="rgb(50, 225, 50)" fill-opacity="0.8" />
<line x1="400" y1="400" x2="453.38158346116285" y2="517.4368193846329" stroke="#795548" stroke-width="8" stroke-linecap="round" />
<circle cx="435.05209117205914" cy="460.61256299561626" r="6" fill="rgb(50, 231, 50)" fill-opacity="0.8" />
<circle cx="441.97729048580953" cy="470.5027915793239" r="6" fill="rgb(50, 249, 50)" fill-opacity="0.8" />
<circle cx="427.523184023294" cy="457.3157949266585" r="4" fill="rgb(50, 154, 50)" fill-opacity="0.8" />
<text x="400" y="580" font-family="Arial" font-size="16" fill="#ffffff" text-anchor="middle">Grown over 5 years</text></svg>