<svg xmlns="http://www.w3.org/2000/svg" width="800" height="600" viewBox="0 0 800 600"><rect width="100%" height="100%" fill="#f0f4f8"/><rect x="0" y="550" width="800" height="50" fill="#3e2723" />
<rect x="0" y="540" width="800" height="10" fill="#4caf50" />
<line x1="400" y1="550" x2="400" y2="400" stroke="#5d4037" stroke-width="45" stroke-linecap="round" />
<line x1="400" y1="400" x2="281.823069638535" y2="379.16221867996836" stroke="#795548" stroke-width="8" stroke-linecap="round" />
<circle cx="310.1527757025624" cy="387.6958141304619" r="8" fill="rgb(50, 253, 50)" fill-opacity="0.8" />
<circle cx="299.1709852806292" cy="371.85483721475055" r="6" fill="rgb(50, 215, 50)" fill-opacity="0.8" />
<circle cx="335.0709627279139" cy="379.6366440680731" r="4" fill="rgb(50, 198, 50)" fill-opacity="0.8" />
<line x1="400" y1="400" x2="243.45353626835444" y2="421.3823453605207" stroke="#795548" stroke-width="8" stroke-linecap="round" />
<circle cx="332.3570044466342" cy="398.78523218156516" r="4" fill="rgb(50, 183, 50)" fill-opacity="0.8" />
<circle cx="249.19598976293602" cy="431.9909648557058" r="8" fill="rgb(50, 209, 50)" fill-opacity="0.8" />
<circle cx="279.30557510955884" cy="427.56022591612617" r="6" fill="rgb(50, 155, 50)" fill-opacity="0.8" />
<line x1="400" y1="400" x2="261.96838400850123" y2="466.00206804923175" stroke="#795548" stroke-width="8" stroke-linecap="round" />
<circle cx="288.89060263525977" cy="466.87361549654224" r="8" fill="rgb(50, 162, 50)" fill-opacity="0.8" />
<circle cx="347.10373187161787" cy="433.926757786864" r="4" fill="rgb(50, 220, 50)" fill-opacity="0.8" />
<circle cx="325.76113214293594" cy="447.37237915477203" r="4" fill="rgb(50, 236, 50)" fill-opacity="0.8" />
<line x1="400" y1="400" x2="306.16880023707665" y2="488.52517128506656" stroke="#795548" stroke-width="8" stroke-linecap="round" />
<circle cx="316.15342159946834" cy="490.0119678447331" r="4" fill="rgb(50, 185, 50)" fill-opacity="0.8" />
<circle cx="348.9859229790125" cy="462.36808214214955" r="7" fill="rgb(50, 251, 50)" fill-opacity="0.8" />
<circle cx="369.2587614969921" cy="443.18526450989333" r="5" fill="rgb(50, 178, 50)" fill-opacity="0.8" />
<line x1="400" y1="400" x2="332.8473486977672" y2="521.7025941509906" stroke="#795548" stroke-width="8" stroke-linecap="round" />
<circle cx="337.8373210466908" cy="511.9944944658896" r="7" fill="rgb(50, 253, 50)" fill-opacity="0.8" />
<circle cx="359.4529605949805" cy="448.7674637714748" r="4" fill="rgb(50, 189, 50)" fill-opacity="0.8" />
<circle cx="346.94849409542314" cy="477.0790308891976" r="5" fill="rgb(50, 160, 50)" fill-opacity="0.8" />
<line x1="400" y1="400" x2="369.55146283340173" y2="555.0383390791268" stroke="#795548" stroke-width="8" stroke-linecap="round" />
<circle cx="367.7816435577667" cy="512.3015949861301" r="5" fill="rgb(50, 191, 50)" fill-opacity="0.8" />
<circle cx="368.1112412891517" cy="509.127655583973" r="8" fill="rgb(50, 182, 50)" fill-opacity="0.8" />
<circle cx="372.8317231236534" cy="499.53375402400343" r="7" fill="rgb(50, 239, 50)" fill-opacity="0.8" />
<line x1="400" y1="400" x2="417.2978442046592" y2="547.9925153035495" stroke="#795548" stroke-width="8" stroke-linecap="round" />
<circle cx="406.87107138512806" cy="519.2996390436025" r="7" fill="rgb(50, 242, 50)" fill-opacity="0.8" />
<circle cx="413.1729971516015" cy="488.02510972262945" r="4" fill="rgb(50, 175, 50)" fill-opacity="0.8" />
<circle cx="395.10057876347565" cy="442.5826043170753" r="4" fill="rgb(50, 169, 50)" fill-opacity="0.8" />
<line x1="400" y1="400" x2="450.48490838962687" y2="511.0642787978699" stroke="#795548" stroke-width="8" stroke-linecap="round" />
<circle cx="429.74913305181974" cy="447.70989350301267" r="6" fill="rgb(50, 230, 50)" fill-opacity="0.8" />
<circle cx="438.960819066937" cy="470.0026177927822" r="8" fill="rgb(50, 205, 50)" fill-opacity="0.8" />
<circle cx="446.19930566667813" cy="516.2541126646582" r="8" fill="rgb(50, 204, 50)" fill-opacity="0.8" />
<text x="400" y="580" font-family="Arial" font-size="16" fill="#ffffff" text-anchor="middle">Grown over 5 years</text></svg>