<svg xmlns="http://www.w3.org/2000/svg" width="800" height="600" viewBox="0 0 800 600">
        <defs>
            <linearGradient id="sky" x1="0%" y1="0%" x2="0%" y2="100%">
                <stop offset="0%" style="stop-color:#e0f7fa;stop-opacity:1" />
                <stop offset="100%" style="stop-color:#ffffff;stop-opacity:1" />
            </linearGradient>
            <filter id="glow" x="-20%" y="-20%" width="140%" height="140%">
                <feGaussianBlur stdDeviation="2" result="coloredBlur"/>
                <feMerge>
                    <feMergeNode in="coloredBlur"/>
                    <feMergeNode in="SourceGraphic"/>
                </feMerge>
            </filter>
        </defs>
        <rect width="100%" height="100%" fill="url(#sky)"/><path d="M0,550 Q400,530 800,550 L800,600 L0,600 Z" stroke="#4e342e" stroke-width="0" fill="#5d4037" stroke-linecap="round" stroke-opacity="1.0" />
<path d="M0,550 Q400,530 800,550" stroke="none" stroke-width="0" fill="#76ff03" stroke-linecap="round" stroke-opacity="0.1" />
<path d="M400,550 Q386.0,470.0 372,390" stroke="#4e342e" stroke-width="35" fill="none" stroke-linecap="round" stroke-opacity="1.0" />
<path d="M372,430 Q443.9512195121951,410 500.2180120173505,364.6696597935774" stroke="#5d4037" stroke-width="8" fill="none" stroke-linecap="round" stroke-opacity="1.0" />
<circle cx="475.52854862935277" cy="345.3871868661591" r="12" fill="#2e7d32" fill-opacity="0.7" />
<circle cx="490.7467878551539" cy="330.39325072727684" r="13" fill="#a5d6a7" fill-opacity="0.7" />
<circle cx="471.9491922804833" cy="340.8075546099234" r="8" fill="#a5d6a7" fill-opacity="0.7" />
<circle cx="467.72802529955396" cy="399.36613015016377" r="10" fill="#2e7d32" fill-opacity="0.7" />
<circle cx="482.1658085281748" cy="351.2515490557789" r="8" fill="#66bb6a" fill-opacity="0.7" />
<circle cx="531.6429767527094" cy="376.0622566228332" r="10" fill="#43a047" fill-opacity="0.7" />
<circle cx="493.94304852957845" cy="367.1904036284263" r="11" fill="#a5d6a7" fill-opacity="0.7" />
<circle cx="485.45756505411424" cy="381.5168564323573" r="15" fill="#a5d6a7" fill-opacity="0.7" />
<circle cx="524.2542873421664" cy="362.201763104362" r="10" fill="#66bb6a" fill-opacity="0.7" />
<circle cx="524.184366067525" cy="353.8535696945529" r="14" fill="#43a047" fill-opacity="0.7" />
<path d="M372,415 Q301.8780487804878,395 285.65723211896255,304.4862967502768" stroke="#5d4037" stroke-width="8" fill="none" stroke-linecap="round" stroke-opacity="1.0" />
<circle cx="268.1732896799683" cy="279.06957666763526" r="10" fill="#2e7d32" fill-opacity="0.7" />
<circle cx="296.03805316431567" cy="313.68780311834746" r="15" fill="#43a047" fill-opacity="0.7" />
<circle cx="296.9410440624295" cy="279.71568548834637" r="12" fill="#a5d6a7" fill-opacity="0.7" />
<circle cx="258.6647894073562" cy="315.03019510289744" r="12" fill="#66bb6a" fill-opacity="0.7" />
<circle cx="286.50834173323585" cy="321.8600061147561" r="16" fill="#a5d6a7" fill-opacity="0.7" />
<circle cx="276.44592956650473" cy="335.2650523622705" r="16" fill="#2e7d32" fill-opacity="0.7" />
<circle cx="274.23058124363615" cy="301.77400246238284" r="13" fill="#43a047" fill-opacity="0.7" />
<circle cx="281.142394771673" cy="316.4814805340787" r="10" fill="#43a047" fill-opacity="0.7" />
<circle cx="276.0700286874808" cy="338.6681588758111" r="15" fill="#a5d6a7" fill-opacity="0.7" />
<circle cx="278.0830617621232" cy="273.0653948091033" r="15" fill="#66bb6a" fill-opacity="0.7" />
<path d="M372,400 Q432.9756097560976,380 477.6128541200535,339.0243902439024" stroke="#5d4037" stroke-width="8" fill="none" stroke-linecap="round" stroke-opacity="1.0" />
<circle cx="484.48301885566605" cy="345.4085629420425" r="15" fill="#43a047" fill-opacity="0.7" />
<circle cx="481.3522895131233" cy="343.8402630529648" r="12" fill="#a5d6a7" fill-opacity="0.7" />
<circle cx="478.31687477177974" cy="359.84477432446107" r="12" fill="#a5d6a7" fill-opacity="0.7" />
<circle cx="480.2112224622728" cy="366.81393157286675" r="11" fill="#43a047" fill-opacity="0.7" />
<circle cx="492.2559499992532" cy="325.02954355679975" r="15" fill="#43a047" fill-opacity="0.7" />
<circle cx="491.11937010572865" cy="326.7542529621975" r="15" fill="#66bb6a" fill-opacity="0.7" />
<circle cx="462.1132206514467" cy="346.84060517602774" r="10" fill="#66bb6a" fill-opacity="0.7" />
<circle cx="509.4591587767875" cy="329.29766492868157" r="11" fill="#2e7d32" fill-opacity="0.7" />
<circle cx="462.2207136007962" cy="329.4543499987381" r="14" fill="#43a047" fill-opacity="0.7" />
<circle cx="472.3145849640972" cy="357.1963850703989" r="10" fill="#66bb6a" fill-opacity="0.7" />
<path d="M372,385 Q311.0243902439024,365 277.226102261345,308.25361084758083" stroke="#5d4037" stroke-width="8" fill="none" stroke-linecap="round" stroke-opacity="1.0" />
<circle cx="268.0600664022736" cy="332.0264569204991" r="16" fill="#a5d6a7" fill-opacity="0.7" />
<circle cx="247.15533561133373" cy="333.8756895900028" r="10" fill="#43a047" fill-opacity="0.7" />
<circle cx="266.3687379505524" cy="341.6908162376064" r="8" fill="#2e7d32" fill-opacity="0.7" />
<circle cx="306.0918857916979" cy="289.1940445514982" r="9" fill="#2e7d32" fill-opacity="0.7" />
<circle cx="283.53575611271606" cy="312.5044624533509" r="10" fill="#66bb6a" fill-opacity="0.7" />
<circle cx="244.4743534907474" cy="311.15500613202033" r="14" fill="#66bb6a" fill-opacity="0.7" />
<circle cx="269.09682176586637" cy="319.94535377045247" r="8" fill="#2e7d32" fill-opacity="0.7" />
<circle cx="247.03177688533157" cy="320.5012135604769" r="11" fill="#2e7d32" fill-opacity="0.7" />
<circle cx="295.58439374315634" cy="324.1120878603247" r="16" fill="#66bb6a" fill-opacity="0.7" />
<circle cx="296.9725566481493" cy="285.97352869739905" r="16" fill="#2e7d32" fill-opacity="0.7" />
<path d="M372,370 Q429.3170731707317,350 474.139772285008,317.95718661522267" stroke="#5d4037" stroke-width="8" fill="none" stroke-linecap="round" stroke-opacity="1.0" />
<circle cx="500.66972507138945" cy="329.92669821660905" r="9" fill="#a5d6a7" fill-opacity="0.7" />
<circle cx="504.95857986854753" cy="290.13438556107974" r="10" fill="#a5d6a7" fill-opacity="0.7" />
<circle cx="494.23092542062284" cy="341.92064490538394" r="11" fill="#66bb6a" fill-opacity="0.7" />
<circle cx="500.1167394964027" cy="322.5176314028362" r="9" fill="#66bb6a" fill-opacity="0.7" />
<circle cx="487.4442262985611" cy="348.8545286580188" r="10" fill="#2e7d32" fill-opacity="0.7" />
<circle cx="479.4189749997299" cy="286.22578746401416" r="15" fill="#a5d6a7" fill-opacity="0.7" />
<circle cx="478.97598814536514" cy="290.65052343243326" r="9" fill="#66bb6a" fill-opacity="0.7" />
<circle cx="477.9704253634209" cy="334.22094377798425" r="11" fill="#43a047" fill-opacity="0.7" />
<circle cx="455.0512644413901" cy="314.42087937768366" r="14" fill="#a5d6a7" fill-opacity="0.7" />
<circle cx="471.49082608453466" cy="296.7582967163682" r="16" fill="#a5d6a7" fill-opacity="0.7" />
<path d="M372,355 Q318.3414634146342,335 305.9290124040757,270.432992295864" stroke="#5d4037" stroke-width="8" fill="none" stroke-linecap="round" stroke-opacity="1.0" />
<circle cx="273.8769266827187" cy="248.0287325481867" r="12" fill="#43a047" fill-opacity="0.7" />
<circle cx="312.1897052378028" cy="274.5059472494936" r="10" fill="#43a047" fill-opacity="0.7" />
<circle cx="293.59339276861505" cy="302.88983416689047" r="12" fill="#a5d6a7" fill-opacity="0.7" />
<circle cx="306.4814740579856" cy="268.98542486764427" r="13" fill="#2e7d32" fill-opacity="0.7" />
<circle cx="285.63198386807073" cy="286.61887061383004" r="16" fill="#a5d6a7" fill-opacity="0.7" />
<circle cx="299.10598245366174" cy="290.49192888314104" r="12" fill="#2e7d32" fill-opacity="0.7" />
<circle cx="309.1951517914575" cy="274.56585169339064" r="15" fill="#43a047" fill-opacity="0.7" />
<circle cx="297.25418438172267" cy="300.411162067864" r="9" fill="#a5d6a7" fill-opacity="0.7" />
<circle cx="274.64422192400957" cy="285.60672835741417" r="15" fill="#a5d6a7" fill-opacity="0.7" />
<circle cx="299.8452925220636" cy="292.9316759218471" r="13" fill="#a5d6a7" fill-opacity="0.7" />
<text x="400" y="580" font-family="Segoe UI, Helvetica, Arial, sans-serif" font-size="20" fill="#3e2723" text-anchor="middle" font-weight="bold">@prithwiraj84's Contribution Garden</text>
<text x="400" y="595" font-family="Segoe UI, Helvetica, Arial, sans-serif" font-size="14" fill="#5d4037" text-anchor="middle" font-weight="bold">Grown over 5 years</text></svg>