<svg xmlns="http://www.w3.org/2000/svg" width="800" height="600" viewBox="0 0 800 600">
        <defs>
            <linearGradient id="sky" x1="0%" y1="0%" x2="0%" y2="100%">
                <stop offset="0%" style="stop-color:#e0f7fa;stop-opacity:1" />
                <stop offset="100%" style="stop-color:#ffffff;stop-opacity:1" />
            </linearGradient>
            <filter id="glow" x="-20%" y="-20%" width="140%" height="140%">
                <feGaussianBlur stdDeviation="2" result="coloredBlur"/>
                <feMerge>
                    <feMergeNode in="coloredBlur"/>
                    <feMergeNode in="SourceGraphic"/>
                </feMerge>
            </filter>
        </defs>
        <rect width="100%" height="100%" fill="url(#sky)"/><path d="M0,550 Q400,530 800,550 L800,600 L0,600 Z" stroke="#4e342e" stroke-width="0" fill="#5d4037" stroke-linecap="round" stroke-opacity="1.0" />
<path d="M0,550 Q400,530 800,550" stroke="none" stroke-width="0" fill="#76ff03" stroke-linecap="round" stroke-opacity="0.1" />
<path d="M400,550 Q414.5,470.0 429,390" stroke="#4e342e" stroke-width="35" fill="none" stroke-linecap="round" stroke-opacity="1.0" />
<path d="M429,430 Q500.7105263157895,410 507.1127037061026,309.71698433414315" stroke="#5d4037" stroke-width="8" fill="none" stroke-linecap="round" stroke-opacity="1.0" />
<circle cx="513.1383366235162" cy="336.12166566815006" r="8" fill="#66bb6a" fill-opacity="0.7" />
<circle cx="527.5593540464519" cy="300.64853013033166" r="12" fill="#43a047" fill-opacity="0.7" />
<circle cx="541.3692873125165" cy="308.37387941787966" r="10" fill="#2e7d32" fill-opacity="0.7" />
<circle cx="502.51607465446" cy="321.28095198872256" r="16" fill="#a5d6a7" fill-opacity="0.7" />
<circle cx="478.4643881741268" cy="331.0349361866267" r="12" fill="#a5d6a7" fill-opacity="0.7" />
<circle cx="473.00818970556793" cy="305.4844032398773" r="8" fill="#43a047" fill-opacity="0.7" />
<circle cx="527.2752692335273" cy="290.5724080155956" r="8" fill="#2e7d32" fill-opacity="0.7" />
<circle cx="519.9761447168084" cy="312.61572817547255" r="16" fill="#a5d6a7" fill-opacity="0.7" />
<circle cx="477.98171102649735" cy="307.51979743661946" r="11" fill="#2e7d32" fill-opacity="0.7" />
<circle cx="524.6781141338951" cy="289.78089409666256" r="8" fill="#2e7d32" fill-opacity="0.7" />
<path d="M429,415 Q363.2105263157895,395 353.5294162695992,307.2168362777643" stroke="#5d4037" stroke-width="8" fill="none" stroke-linecap="round" stroke-opacity="1.0" />
<circle cx="365.2219917558841" cy="329.8901170152184" r="14" fill="#66bb6a" fill-opacity="0.7" />
<circle cx="354.78701166790387" cy="297.65071290034757" r="13" fill="#2e7d32" fill-opacity="0.7" />
<circle cx="333.7224400043386" cy="341.9626701650476" r="9" fill="#43a047" fill-opacity="0.7" />
<circle cx="329.3893400090766" cy="318.59631399580445" r="9" fill="#66bb6a" fill-opacity="0.7" />
<circle cx="356.7653231419682" cy="290.2748697779801" r="11" fill="#43a047" fill-opacity="0.7" />
<circle cx="359.22545536240085" cy="313.0066453307635" r="12" fill="#a5d6a7" fill-opacity="0.7" />
<circle cx="325.1873890339754" cy="291.47238317188175" r="12" fill="#66bb6a" fill-opacity="0.7" />
<circle cx="349.4302090105367" cy="279.29856814088157" r="15" fill="#43a047" fill-opacity="0.7" />
<circle cx="357.9618231558888" cy="293.9302121276459" r="12" fill="#a5d6a7" fill-opacity="0.7" />
<circle cx="349.0021067186398" cy="315.0621269326399" r="16" fill="#43a047" fill-opacity="0.7" />
<path d="M429,400 Q492.8157894736842,380 541.6919954043631,340.08060317074813" stroke="#5d4037" stroke-width="8" fill="none" stroke-linecap="round" stroke-opacity="1.0" />
<circle cx="562.1773009873951" cy="355.58819203815654" r="14" fill="#43a047" fill-opacity="0.7" />
<circle cx="575.472643386857" cy="319.23612718553807" r="12" fill="#2e7d32" fill-opacity="0.7" />
<circle cx="563.5391937795267" cy="359.89043628597955" r="14" fill="#43a047" fill-opacity="0.7" />
<circle cx="525.8048895492086" cy="311.32177867445984" r="16" fill="#a5d6a7" fill-opacity="0.7" />
<circle cx="539.3429931046039" cy="316.7136192412868" r="11" fill="#66bb6a" fill-opacity="0.7" />
<circle cx="515.8007988334806" cy="336.5539160726568" r="16" fill="#2e7d32" fill-opacity="0.7" />
<circle cx="515.1789043998085" cy="323.9381272669719" r="15" fill="#43a047" fill-opacity="0.7" />
<circle cx="536.2770955200821" cy="346.44139453720413" r="15" fill="#a5d6a7" fill-opacity="0.7" />
<circle cx="574.0238363345991" cy="351.9644041407275" r="9" fill="#66bb6a" fill-opacity="0.7" />
<circle cx="574.4583631728915" cy="319.77072643782606" r="13" fill="#43a047" fill-opacity="0.7" />
<path d="M429,385 Q367.1578947368421,365 327.68382610109836,314.0576512934233" stroke="#5d4037" stroke-width="8" fill="none" stroke-linecap="round" stroke-opacity="1.0" />
<circle cx="303.4491407878647" cy="292.34612109066927" r="16" fill="#a5d6a7" fill-opacity="0.7" />
<circle cx="351.26769012871466" cy="321.92585039267107" r="12" fill="#66bb6a" fill-opacity="0.7" />
<circle cx="357.09032367345685" cy="310.35577194702296" r="10" fill="#66bb6a" fill-opacity="0.7" />
<circle cx="340.28525502903415" cy="328.4951402836117" r="9" fill="#2e7d32" fill-opacity="0.7" />
<circle cx="314.22369178591487" cy="346.5257811972332" r="9" fill="#43a047" fill-opacity="0.7" />
<circle cx="347.1795413041648" cy="293.1350013069751" r="14" fill="#43a047" fill-opacity="0.7" />
<circle cx="302.9360557786374" cy="331.00143244498366" r="14" fill="#2e7d32" fill-opacity="0.7" />
<circle cx="313.3977471778098" cy="279.8462287619552" r="14" fill="#a5d6a7" fill-opacity="0.7" />
<circle cx="327.10034001192895" cy="287.69373311882407" r="10" fill="#43a047" fill-opacity="0.7" />
<circle cx="351.8684966944889" cy="301.20737539018955" r="10" fill="#a5d6a7" fill-opacity="0.7" />
<path d="M429,370 Q486.89473684210526,350 515.048348213172,292.52171926371113" stroke="#5d4037" stroke-width="8" fill="none" stroke-linecap="round" stroke-opacity="1.0" />
<circle cx="542.6765185794005" cy="262.24312916193793" r="15" fill="#2e7d32" fill-opacity="0.7" />
<circle cx="519.6695376819662" cy="257.89023596681227" r="15" fill="#66bb6a" fill-opacity="0.7" />
<circle cx="505.85047064115463" cy="267.9073514677825" r="16" fill="#a5d6a7" fill-opacity="0.7" />
<circle cx="501.11453492300774" cy="260.2183585508558" r="13" fill="#2e7d32" fill-opacity="0.7" />
<circle cx="546.0465775675297" cy="320.804417692853" r="16" fill="#2e7d32" fill-opacity="0.7" />
<circle cx="481.0166240910148" cy="275.671730802307" r="14" fill="#a5d6a7" fill-opacity="0.7" />
<circle cx="538.1469856854541" cy="319.7199413774481" r="13" fill="#2e7d32" fill-opacity="0.7" />
<circle cx="504.73681615057944" cy="323.1003545840479" r="11" fill="#2e7d32" fill-opacity="0.7" />
<circle cx="489.51540027151566" cy="316.83204183171216" r="15" fill="#66bb6a" fill-opacity="0.7" />
<circle cx="532.2038591459464" cy="307.282806502445" r="15" fill="#a5d6a7" fill-opacity="0.7" />
<path d="M429,355 Q375.0526315789474,335 355.4159664143094,276.09078482530003" stroke="#5d4037" stroke-width="8" fill="none" stroke-linecap="round" stroke-opacity="1.0" />
<circle cx="348.7044214331223" cy="272.70909146406774" r="11" fill="#a5d6a7" fill-opacity="0.7" />
<circle cx="365.4148306313564" cy="244.55401756421347" r="15" fill="#a5d6a7" fill-opacity="0.7" />
<circle cx="326.95291559986805" cy="259.4607154945768" r="8" fill="#66bb6a" fill-opacity="0.7" />
<circle cx="328.8822230590123" cy="268.53711592897565" r="9" fill="#2e7d32" fill-opacity="0.7" />
<circle cx="359.59921270186123" cy="293.5875383220459" r="14" fill="#2e7d32" fill-opacity="0.7" />
<circle cx="365.72028697049103" cy="289.45111307289886" r="11" fill="#66bb6a" fill-opacity="0.7" />
<circle cx="355.4615371083202" cy="295.2895659909331" r="8" fill="#66bb6a" fill-opacity="0.7" />
<circle cx="356.42461424202884" cy="279.8195619127409" r="14" fill="#a5d6a7" fill-opacity="0.7" />
<circle cx="367.8542274171117" cy="243.06356746550307" r="11" fill="#2e7d32" fill-opacity="0.7" />
<circle cx="389.3975488092957" cy="263.7675272301256" r="11" fill="#2e7d32" fill-opacity="0.7" />
<text x="400" y="580" font-family="Segoe UI, Helvetica, Arial, sans-serif" font-size="20" fill="#3e2723" text-anchor="middle" font-weight="bold">@prithwiraj84's Contribution Garden</text>
<text x="400" y="595" font-family="Segoe UI, Helvetica, Arial, sans-serif" font-size="14" fill="#5d4037" text-anchor="middle" font-weight="bold">Grown over 5 years</text></svg>