<svg xmlns="http://www.w3.org/2000/svg" width="800" height="600" viewBox="0 0 800 600">
        <defs>
            <linearGradient id="sky" x1="0%" y1="0%" x2="0%" y2="100%">
                <stop offset="0%" style="stop-color:#e0f7fa;stop-opacity:1" />
                <stop offset="100%" style="stop-color:#ffffff;stop-opacity:1" />
            </linearGradient>
            <filter id="glow" x="-20%" y="-20%" width="140%" height="140%">
                <feGaussianBlur stdDeviation="2" result="coloredBlur"/>
                <feMerge>
                    <feMergeNode in="coloredBlur"/>
                    <feMergeNode in="SourceGraphic"/>
                </feMerge>
            </filter>
        </defs>
        <rect width="100%" height="100%" fill="url(#sky)"/><path d="M0,550 Q400,530 800,550 L800,600 L0,600 Z" stroke="#4e342e" stroke-width="0" fill="#5d4037" stroke-linecap="round" stroke-opacity="1.0" />
<path d="M0,550 Q400,530 800,550" stroke="none" stroke-width="0" fill="#76ff03" stroke-linecap="round" stroke-opacity="0.1" />
<path d="M400,550 Q410.5,470.0 421,390" stroke="#4e342e" stroke-width="35" fill="none" stroke-linecap="round" stroke-opacity="1.0" />
<path d="M421,430 Q505.0909090909091,410 544.000395272315,315.3002758076707" stroke="#5d4037" stroke-width="8" fill="none" stroke-linecap="round" stroke-opacity="1.0" />
<circle cx="541.1028014878436" cy="343.7788470071312" r="15" fill="#66bb6a" fill-opacity="0.7" />
<circle cx="569.9330643268904" cy="282.8535343153574" r="14" fill="#2e7d32" fill-opacity="0.7" />
<circle cx="571.9621968797758" cy="315.1487404486872" r="15" fill="#66bb6a" fill-opacity="0.7" />
<circle cx="519.6138193640917" cy="294.4285756416725" r="16" fill="#66bb6a" fill-opacity="0.7" />
<circle cx="519.3913383449064" cy="348.4221350180847" r="15" fill="#43a047" fill-opacity="0.7" />
<circle cx="572.9665486785466" cy="306.95080550482805" r="14" fill="#2e7d32" fill-opacity="0.7" />
<circle cx="510.0784919147465" cy="287.55013955695523" r="16" fill="#43a047" fill-opacity="0.7" />
<circle cx="572.4431762594722" cy="321.45817831386455" r="12" fill="#a5d6a7" fill-opacity="0.7" />
<circle cx="561.1717366624797" cy="345.2054517643888" r="8" fill="#43a047" fill-opacity="0.7" />
<circle cx="521.2269231874773" cy="313.1537096660692" r="15" fill="#66bb6a" fill-opacity="0.7" />
<circle cx="551.9349239131607" cy="288.6295955822173" r="16" fill="#66bb6a" fill-opacity="0.7" />
<circle cx="534.842128511245" cy="324.360872702806" r="13" fill="#66bb6a" fill-opacity="0.7" />
<circle cx="525.2902279399657" cy="281.76048055656696" r="14" fill="#a5d6a7" fill-opacity="0.7" />
<path d="M421,415 Q356.83916083916085,395 324.15440002036456,330.8134043218475" stroke="#5d4037" stroke-width="8" fill="none" stroke-linecap="round" stroke-opacity="1.0" />
<circle cx="324.31862105101305" cy="329.5136233183598" r="11" fill="#a5d6a7" fill-opacity="0.7" />
<circle cx="291.17653521423506" cy="325.52041298791744" r="16" fill="#43a047" fill-opacity="0.7" />
<circle cx="319.7182615844167" cy="308.64751388547035" r="8" fill="#2e7d32" fill-opacity="0.7" />
<circle cx="319.71552189128136" cy="301.63802416558156" r="14" fill="#66bb6a" fill-opacity="0.7" />
<circle cx="290.5226482581632" cy="334.6757880456513" r="9" fill="#2e7d32" fill-opacity="0.7" />
<circle cx="321.1386992577317" cy="312.83672491237854" r="14" fill="#2e7d32" fill-opacity="0.7" />
<circle cx="313.46781904224423" cy="327.0502708014306" r="14" fill="#2e7d32" fill-opacity="0.7" />
<circle cx="300.13976495705504" cy="358.2133452505945" r="13" fill="#43a047" fill-opacity="0.7" />
<circle cx="296.77077485052376" cy="355.8105298920906" r="8" fill="#66bb6a" fill-opacity="0.7" />
<circle cx="325.1000901415312" cy="349.8747057739931" r="15" fill="#a5d6a7" fill-opacity="0.7" />
<path d="M421,400 Q478.34265734265733,380 507.55410570387033,324.75966380808165" stroke="#5d4037" stroke-width="8" fill="none" stroke-linecap="round" stroke-opacity="1.0" />
<circle cx="523.0124229562443" cy="338.7860757725976" r="8" fill="#66bb6a" fill-opacity="0.7" />
<circle cx="491.73324792617984" cy="312.19911260116214" r="13" fill="#66bb6a" fill-opacity="0.7" />
<circle cx="478.9698197476374" cy="332.37846575681556" r="14" fill="#a5d6a7" fill-opacity="0.7" />
<circle cx="476.4175872898109" cy="314.91725710673865" r="9" fill="#66bb6a" fill-opacity="0.7" />
<circle cx="539.3793171716179" cy="293.3665439768673" r="10" fill="#2e7d32" fill-opacity="0.7" />
<circle cx="503.61642888291726" cy="321.6764149802364" r="8" fill="#66bb6a" fill-opacity="0.7" />
<circle cx="500.5397487581883" cy="324.35778487442144" r="11" fill="#43a047" fill-opacity="0.7" />
<circle cx="492.32923755022597" cy="339.76832731350686" r="8" fill="#43a047" fill-opacity="0.7" />
<circle cx="527.6380504910713" cy="317.47681329351155" r="14" fill="#66bb6a" fill-opacity="0.7" />
<circle cx="495.6814248790788" cy="338.0841196643769" r="13" fill="#2e7d32" fill-opacity="0.7" />
<path d="M421,385 Q364.1818181818182,365 364.1818181818182,286.5880222972229" stroke="#5d4037" stroke-width="8" fill="none" stroke-linecap="round" stroke-opacity="1.0" />
<circle cx="347.46956528225587" cy="276.74758046383494" r="16" fill="#2e7d32" fill-opacity="0.7" />
<circle cx="358.3830604388098" cy="285.1859640591285" r="8" fill="#66bb6a" fill-opacity="0.7" />
<circle cx="354.16074163712136" cy="315.7061325887816" r="8" fill="#a5d6a7" fill-opacity="0.7" />
<circle cx="340.5874391573358" cy="270.88622964589877" r="11" fill="#2e7d32" fill-opacity="0.7" />
<circle cx="350.81666591533445" cy="265.68295961811396" r="9" fill="#66bb6a" fill-opacity="0.7" />
<circle cx="366.8661850436585" cy="292.21279873562503" r="16" fill="#66bb6a" fill-opacity="0.7" />
<circle cx="367.9388668943038" cy="271.0407458209247" r="11" fill="#2e7d32" fill-opacity="0.7" />
<circle cx="376.54168296564507" cy="310.7179099483375" r="9" fill="#43a047" fill-opacity="0.7" />
<circle cx="340.3907364967456" cy="297.6333272407009" r="15" fill="#43a047" fill-opacity="0.7" />
<circle cx="371.8004983371407" cy="266.75718829293356" r="9" fill="#2e7d32" fill-opacity="0.7" />
<path d="M421,370 Q477.8181818181818,350 508.0505048998839,296.95595344471144" stroke="#5d4037" stroke-width="8" fill="none" stroke-linecap="round" stroke-opacity="1.0" />
<circle cx="482.0588514322609" cy="277.4592769402438" r="16" fill="#43a047" fill-opacity="0.7" />
<circle cx="490.84859350098424" cy="299.60450073904303" r="9" fill="#2e7d32" fill-opacity="0.7" />
<circle cx="481.5478111276742" cy="323.6386650869159" r="11" fill="#66bb6a" fill-opacity="0.7" />
<circle cx="483.1280461752264" cy="280.50480904051517" r="9" fill="#2e7d32" fill-opacity="0.7" />
<circle cx="497.38807016802514" cy="273.4774455612043" r="10" fill="#2e7d32" fill-opacity="0.7" />
<circle cx="476.1515038871423" cy="285.4572977434273" r="15" fill="#43a047" fill-opacity="0.7" />
<circle cx="476.87091656919733" cy="262.32046349988343" r="15" fill="#2e7d32" fill-opacity="0.7" />
<circle cx="489.12095343600254" cy="263.1666861513019" r="15" fill="#66bb6a" fill-opacity="0.7" />
<circle cx="485.86043773765584" cy="287.6581271880904" r="8" fill="#43a047" fill-opacity="0.7" />
<circle cx="475.21156480623097" cy="273.0828619083161" r="10" fill="#2e7d32" fill-opacity="0.7" />
<path d="M421,355 Q365.2307692307692,335 320.74989483586216,306.10475670429526" stroke="#5d4037" stroke-width="8" fill="none" stroke-linecap="round" stroke-opacity="1.0" />
<circle cx="327.10595308099903" cy="336.50532402594695" r="14" fill="#66bb6a" fill-opacity="0.7" />
<circle cx="312.21889820606634" cy="308.04267277015634" r="10" fill="#43a047" fill-opacity="0.7" />
<circle cx="307.6028653119024" cy="305.1759491279192" r="10" fill="#43a047" fill-opacity="0.7" />
<circle cx="345.24685591378346" cy="295.42097411656914" r="13" fill="#66bb6a" fill-opacity="0.7" />
<circle cx="325.6642488581766" cy="281.93190037829316" r="16" fill="#a5d6a7" fill-opacity="0.7" />
<circle cx="326.10545421049085" cy="317.96854047262235" r="15" fill="#43a047" fill-opacity="0.7" />
<circle cx="325.818229695071" cy="289.71001167857446" r="9" fill="#a5d6a7" fill-opacity="0.7" />
<circle cx="349.2710908073213" cy="324.6133844106043" r="16" fill="#a5d6a7" fill-opacity="0.7" />
<circle cx="324.34459637117715" cy="303.4607620806146" r="14" fill="#2e7d32" fill-opacity="0.7" />
<circle cx="350.7148807091837" cy="332.1638914674561" r="10" fill="#2e7d32" fill-opacity="0.7" />
<text x="400" y="580" font-family="Segoe UI, Helvetica, Arial, sans-serif" font-size="20" fill="#3e2723" text-anchor="middle" font-weight="bold">@prithwiraj84's Contribution Garden</text>
<text x="400" y="595" font-family="Segoe UI, Helvetica, Arial, sans-serif" font-size="14" fill="#5d4037" text-anchor="middle" font-weight="bold">Grown over 5 years</text></svg>