<svg xmlns="http://www.w3.org/2000/svg" width="800" height="600" viewBox="0 0 800 600">
        <defs>
            <linearGradient id="sky" x1="0%" y1="0%" x2="0%" y2="100%">
                <stop offset="0%" style="stop-color:#e0f7fa;stop-opacity:1" />
                <stop offset="100%" style="stop-color:#ffffff;stop-opacity:1" />
            </linearGradient>
            <filter id="glow" x="-20%" y="-20%" width="140%" height="140%">
                <feGaussianBlur stdDeviation="2" result="coloredBlur"/>
                <feMerge>
                    <feMergeNode in="coloredBlur"/>
                    <feMergeNode in="SourceGraphic"/>
                </feMerge>
            </filter>
        </defs>
        <rect width="100%" height="100%" fill="url(#sky)"/><path d="M0,550 Q400,530 800,550 L800,600 L0,600 Z" stroke="#4e342e" stroke-width="0" fill="#5d4037" stroke-linecap="round" stroke-opacity="1.0" />
<path d="M0,550 Q400,530 800,550" stroke="none" stroke-width="0" fill="#76ff03" stroke-linecap="round" stroke-opacity="0.1" />
<path d="M400,550 Q385.0,470.0 370,390" stroke="#4e342e" stroke-width="35" fill="none" stroke-linecap="round" stroke-opacity="1.0" />
<path d="M370,430 Q442.0,410 475.3149330331605,331.7922361510002" stroke="#5d4037" stroke-width="8" fill="none" stroke-linecap="round" stroke-opacity="1.0" />
<circle cx="488.7796149807839" cy="363.66972694242145" r="14" fill="#66bb6a" fill-opacity="0.7" />
<circle cx="492.8854827083044" cy="353.00814747027016" r="8" fill="#66bb6a" fill-opacity="0.7" />
<circle cx="490.10203958699793" cy="358.2179365259091" r="11" fill="#2e7d32" fill-opacity="0.7" />
<circle cx="501.920374611276" cy="316.2846144752362" r="15" fill="#66bb6a" fill-opacity="0.7" />
<circle cx="452.10309234011544" cy="353.0099722096076" r="11" fill="#a5d6a7" fill-opacity="0.7" />
<circle cx="467.51822993461246" cy="321.7224411840188" r="13" fill="#a5d6a7" fill-opacity="0.7" />
<circle cx="470.3228660815026" cy="349.55865522158865" r="14" fill="#a5d6a7" fill-opacity="0.7" />
<circle cx="449.6630074547214" cy="334.05811577708823" r="8" fill="#a5d6a7" fill-opacity="0.7" />
<circle cx="444.1292358404518" cy="350.45543269802494" r="16" fill="#43a047" fill-opacity="0.7" />
<circle cx="479.47741000595" cy="366.14209514555273" r="15" fill="#a5d6a7" fill-opacity="0.7" />
<path d="M370,415 Q303.0,395 297.0183693079864,302.6181438953132" stroke="#5d4037" stroke-width="8" fill="none" stroke-linecap="round" stroke-opacity="1.0" />
<circle cx="264.11297795488326" cy="336.95593232326604" r="14" fill="#43a047" fill-opacity="0.7" />
<circle cx="268.27418581869455" cy="270.0933585545748" r="11" fill="#43a047" fill-opacity="0.7" />
<circle cx="271.15047009653574" cy="294.3677225863603" r="10" fill="#66bb6a" fill-opacity="0.7" />
<circle cx="322.6772080889326" cy="280.29427920870177" r="8" fill="#2e7d32" fill-opacity="0.7" />
<circle cx="283.61251945022457" cy="283.76824045757223" r="9" fill="#43a047" fill-opacity="0.7" />
<circle cx="274.3970613780864" cy="328.3077746517545" r="15" fill="#2e7d32" fill-opacity="0.7" />
<circle cx="322.7641767036334" cy="306.5151767875627" r="13" fill="#a5d6a7" fill-opacity="0.7" />
<circle cx="271.1595800417076" cy="319.1575395912839" r="12" fill="#2e7d32" fill-opacity="0.7" />
<circle cx="301.57773825837694" cy="304.9058872031185" r="15" fill="#66bb6a" fill-opacity="0.7" />
<circle cx="278.6966809486397" cy="294.47153933149696" r="14" fill="#66bb6a" fill-opacity="0.7" />
<path d="M370,400 Q432.0,380 437.53524034186336,296.00484957476743" stroke="#5d4037" stroke-width="8" fill="none" stroke-linecap="round" stroke-opacity="1.0" />
<circle cx="427.5984498794836" cy="293.4663296287946" r="12" fill="#66bb6a" fill-opacity="0.7" />
<circle cx="437.6932755566198" cy="271.6029305356634" r="15" fill="#2e7d32" fill-opacity="0.7" />
<circle cx="424.297254096401" cy="264.1722755369607" r="9" fill="#a5d6a7" fill-opacity="0.7" />
<circle cx="424.3586106016536" cy="300.52480343175876" r="10" fill="#66bb6a" fill-opacity="0.7" />
<circle cx="432.51462029518143" cy="314.9270499825031" r="16" fill="#66bb6a" fill-opacity="0.7" />
<circle cx="441.431804748302" cy="330.7695547941868" r="11" fill="#a5d6a7" fill-opacity="0.7" />
<circle cx="460.4992803062468" cy="264.9181104407452" r="13" fill="#2e7d32" fill-opacity="0.7" />
<circle cx="455.6910867566949" cy="278.76980384095793" r="11" fill="#2e7d32" fill-opacity="0.7" />
<circle cx="441.9620553961499" cy="275.2449213685173" r="14" fill="#a5d6a7" fill-opacity="0.7" />
<circle cx="420.4235994725741" cy="308.10457350450866" r="14" fill="#66bb6a" fill-opacity="0.7" />
<path d="M370,385 Q308.0,365 315.64197779815436,273.5495382589033" stroke="#5d4037" stroke-width="8" fill="none" stroke-linecap="round" stroke-opacity="1.0" />
<circle cx="336.67985351669836" cy="272.3563504276134" r="9" fill="#43a047" fill-opacity="0.7" />
<circle cx="328.63233129653804" cy="274.84812162880905" r="13" fill="#a5d6a7" fill-opacity="0.7" />
<circle cx="336.98302020582304" cy="293.54393327065077" r="12" fill="#66bb6a" fill-opacity="0.7" />
<circle cx="316.5066286405077" cy="243.22776243612836" r="9" fill="#66bb6a" fill-opacity="0.7" />
<circle cx="293.8513884219533" cy="276.86746338287503" r="12" fill="#66bb6a" fill-opacity="0.7" />
<circle cx="311.54507182559166" cy="296.58685323994655" r="11" fill="#43a047" fill-opacity="0.7" />
<circle cx="321.5409727897927" cy="274.09476073007716" r="9" fill="#43a047" fill-opacity="0.7" />
<circle cx="313.7301236799667" cy="268.8202947418802" r="14" fill="#a5d6a7" fill-opacity="0.7" />
<circle cx="306.36820384211984" cy="295.9569411279619" r="15" fill="#2e7d32" fill-opacity="0.7" />
<circle cx="337.29825953145405" cy="248.9960201304931" r="14" fill="#43a047" fill-opacity="0.7" />
<path d="M370,370 Q428.0,350 474.2601093707034,319.148946972467" stroke="#5d4037" stroke-width="8" fill="none" stroke-linecap="round" stroke-opacity="1.0" />
<circle cx="450.74038152016317" cy="312.2098032225352" r="10" fill="#a5d6a7" fill-opacity="0.7" />
<circle cx="465.7415251055564" cy="311.2827774669852" r="14" fill="#a5d6a7" fill-opacity="0.7" />
<circle cx="504.5156296550172" cy="310.9456185769706" r="11" fill="#2e7d32" fill-opacity="0.7" />
<circle cx="508.77219884832425" cy="335.95052197096555" r="16" fill="#43a047" fill-opacity="0.7" />
<circle cx="443.85240428974953" cy="326.52874543656606" r="8" fill="#43a047" fill-opacity="0.7" />
<circle cx="462.690061995992" cy="344.33639564597473" r="16" fill="#a5d6a7" fill-opacity="0.7" />
<circle cx="453.86707105522686" cy="329.4094956428221" r="9" fill="#66bb6a" fill-opacity="0.7" />
<circle cx="455.44658413356376" cy="348.2120177995063" r="15" fill="#a5d6a7" fill-opacity="0.7" />
<circle cx="467.1142097855971" cy="309.90915116728894" r="14" fill="#2e7d32" fill-opacity="0.7" />
<circle cx="461.0879480739039" cy="291.95266922815046" r="8" fill="#2e7d32" fill-opacity="0.7" />
<path d="M370,355 Q316.0,335 288.4913653359406,284.1456248690252" stroke="#5d4037" stroke-width="8" fill="none" stroke-linecap="round" stroke-opacity="1.0" />
<circle cx="309.8163168435858" cy="293.95927427818236" r="15" fill="#2e7d32" fill-opacity="0.7" />
<circle cx="296.00687285174786" cy="258.36301908223714" r="14" fill="#43a047" fill-opacity="0.7" />
<circle cx="264.85727822318586" cy="313.5471873475417" r="13" fill="#2e7d32" fill-opacity="0.7" />
<circle cx="285.12377831568426" cy="312.7156434807463" r="12" fill="#43a047" fill-opacity="0.7" />
<circle cx="307.54606257228676" cy="276.8569171205268" r="16" fill="#43a047" fill-opacity="0.7" />
<circle cx="296.75152180552607" cy="296.0200114375241" r="12" fill="#2e7d32" fill-opacity="0.7" />
<circle cx="284.05211957140216" cy="289.772501498717" r="12" fill="#a5d6a7" fill-opacity="0.7" />
<circle cx="274.2090096418765" cy="260.93217127743895" r="15" fill="#66bb6a" fill-opacity="0.7" />
<circle cx="261.92988028220765" cy="289.1154488936586" r="11" fill="#66bb6a" fill-opacity="0.7" />
<circle cx="296.0436744602041" cy="280.39727846915764" r="16" fill="#2e7d32" fill-opacity="0.7" />
<text x="400" y="580" font-family="Segoe UI, Helvetica, Arial, sans-serif" font-size="20" fill="#3e2723" text-anchor="middle" font-weight="bold">@prithwiraj84's Contribution Garden</text>
<text x="400" y="595" font-family="Segoe UI, Helvetica, Arial, sans-serif" font-size="14" fill="#5d4037" text-anchor="middle" font-weight="bold">Grown over 5 years</text></svg>