<svg xmlns="http://www.w3.org/2000/svg" width="800" height="600" viewBox="0 0 800 600">
        <defs>
            <linearGradient id="sky" x1="0%" y1="0%" x2="0%" y2="100%">
                <stop offset="0%" style="stop-color:#e0f7fa;stop-opacity:1" />
                <stop offset="100%" style="stop-color:#ffffff;stop-opacity:1" />
            </linearGradient>
            <filter id="glow" x="-20%" y="-20%" width="140%" height="140%">
                <feGaussianBlur stdDeviation="2" result="coloredBlur"/>
                <feMerge>
                    <feMergeNode in="coloredBlur"/>
                    <feMergeNode in="SourceGraphic"/>
                </feMerge>
            </filter>
        </defs>
        <rect width="100%" height="100%" fill="url(#sky)"/><path d="M0,550 Q400,530 800,550 L800,600 L0,600 Z" stroke="#4e342e" stroke-width="0" fill="#5d4037" stroke-linecap="round" stroke-opacity="1.0" />
<path d="M0,550 Q400,530 800,550" stroke="none" stroke-width="0" fill="#76ff03" stroke-linecap="round" stroke-opacity="0.1" />
<path d="M400,550 Q392.0,470.0 384,390" stroke="#4e342e" stroke-width="35" fill="none" stroke-linecap="round" stroke-opacity="1.0" />
<path d="M384,430 Q455.42857142857144,410 513.4725410052357,369.6259626084715" stroke="#5d4037" stroke-width="8" fill="none" stroke-linecap="round" stroke-opacity="1.0" />
<circle cx="496.1019195930447" cy="344.7476182912733" r="10" fill="#2e7d32" fill-opacity="0.7" />
<circle cx="543.2646950169063" cy="388.1101201442257" r="12" fill="#a5d6a7" fill-opacity="0.7" />
<circle cx="499.41167636330124" cy="370.94339646921384" r="11" fill="#66bb6a" fill-opacity="0.7" />
<circle cx="508.28159944001885" cy="359.090252185283" r="11" fill="#2e7d32" fill-opacity="0.7" />
<circle cx="491.8150383877908" cy="368.93458484482244" r="11" fill="#2e7d32" fill-opacity="0.7" />
<circle cx="538.1099795100841" cy="340.5374955061551" r="8" fill="#43a047" fill-opacity="0.7" />
<circle cx="520.2780592002008" cy="362.2396087205001" r="12" fill="#a5d6a7" fill-opacity="0.7" />
<circle cx="536.397980200028" cy="388.5724851744478" r="8" fill="#43a047" fill-opacity="0.7" />
<circle cx="511.3944068874706" cy="375.8926023444972" r="14" fill="#66bb6a" fill-opacity="0.7" />
<circle cx="482.6995918260158" cy="334.9267322538478" r="12" fill="#2e7d32" fill-opacity="0.7" />
<path d="M384,415 Q315.4935064935065,395 263.0247129264717,350.67629886505006" stroke="#5d4037" stroke-width="8" fill="none" stroke-linecap="round" stroke-opacity="1.0" />
<circle cx="278.9816385762083" cy="360.7437506467881" r="16" fill="#2e7d32" fill-opacity="0.7" />
<circle cx="257.4056013984902" cy="376.9842414311937" r="10" fill="#43a047" fill-opacity="0.7" />
<circle cx="250.77041805326573" cy="331.2060142476977" r="8" fill="#43a047" fill-opacity="0.7" />
<circle cx="236.3608391425594" cy="383.42646435197565" r="9" fill="#43a047" fill-opacity="0.7" />
<circle cx="248.92041352911517" cy="330.2682738418099" r="13" fill="#2e7d32" fill-opacity="0.7" />
<circle cx="242.02128270789316" cy="349.8505654105945" r="14" fill="#2e7d32" fill-opacity="0.7" />
<circle cx="256.20339861908207" cy="356.8023195145515" r="14" fill="#66bb6a" fill-opacity="0.7" />
<circle cx="260.8450840420936" cy="352.75300498684066" r="12" fill="#66bb6a" fill-opacity="0.7" />
<circle cx="264.41601187330497" cy="347.31433705615865" r="11" fill="#43a047" fill-opacity="0.7" />
<circle cx="255.03994592091368" cy="330.0464359521035" r="15" fill="#43a047" fill-opacity="0.7" />
<path d="M384,400 Q445.68831168831167,380 486.28385635419346,331.00866775360913" stroke="#5d4037" stroke-width="8" fill="none" stroke-linecap="round" stroke-opacity="1.0" />
<circle cx="469.0511407190361" cy="353.17996187469606" r="8" fill="#66bb6a" fill-opacity="0.7" />
<circle cx="510.61512798242654" cy="363.9253078178189" r="13" fill="#2e7d32" fill-opacity="0.7" />
<circle cx="514.9754402769793" cy="299.85205234600403" r="10" fill="#2e7d32" fill-opacity="0.7" />
<circle cx="463.427896897597" cy="313.45679932458086" r="9" fill="#43a047" fill-opacity="0.7" />
<circle cx="516.3993068207595" cy="360.29055174461246" r="10" fill="#2e7d32" fill-opacity="0.7" />
<circle cx="454.17954712505724" cy="327.7591025795885" r="10" fill="#a5d6a7" fill-opacity="0.7" />
<circle cx="519.4210629339628" cy="361.98809143612345" r="10" fill="#66bb6a" fill-opacity="0.7" />
<circle cx="465.286099504371" cy="302.266866987549" r="15" fill="#43a047" fill-opacity="0.7" />
<circle cx="515.2945258144824" cy="303.1440155649047" r="16" fill="#2e7d32" fill-opacity="0.7" />
<circle cx="474.8069734770982" cy="349.55690435054805" r="12" fill="#43a047" fill-opacity="0.7" />
<path d="M384,385 Q322.31168831168833,365 290.88648036212555,304.05765226740493" stroke="#5d4037" stroke-width="8" fill="none" stroke-linecap="round" stroke-opacity="1.0" />
<circle cx="283.4204335655289" cy="336.16253421896283" r="16" fill="#a5d6a7" fill-opacity="0.7" />
<circle cx="304.8565254825106" cy="299.86618531210127" r="16" fill="#a5d6a7" fill-opacity="0.7" />
<circle cx="308.57757039134424" cy="284.549213100485" r="16" fill="#a5d6a7" fill-opacity="0.7" />
<circle cx="278.2534620463037" cy="326.5685283224866" r="12" fill="#66bb6a" fill-opacity="0.7" />
<circle cx="287.16363132792384" cy="284.1525481513019" r="16" fill="#a5d6a7" fill-opacity="0.7" />
<circle cx="294.9080751269432" cy="278.545043249931" r="15" fill="#66bb6a" fill-opacity="0.7" />
<circle cx="310.148499304703" cy="302.77585305193173" r="12" fill="#2e7d32" fill-opacity="0.7" />
<circle cx="297.1843590825889" cy="312.85151010647604" r="12" fill="#66bb6a" fill-opacity="0.7" />
<circle cx="277.4402409931265" cy="315.7302034723185" r="12" fill="#66bb6a" fill-opacity="0.7" />
<circle cx="288.2823280920648" cy="274.57101910507214" r="11" fill="#66bb6a" fill-opacity="0.7" />
<path d="M384,370 Q441.7922077922078,350 485.0924077083198,313.9635633741247" stroke="#5d4037" stroke-width="8" fill="none" stroke-linecap="round" stroke-opacity="1.0" />
<circle cx="481.4234077940936" cy="332.7649246009016" r="13" fill="#43a047" fill-opacity="0.7" />
<circle cx="502.03972282208525" cy="328.80009479527314" r="12" fill="#43a047" fill-opacity="0.7" />
<circle cx="473.4470239645165" cy="346.6787280422163" r="16" fill="#43a047" fill-opacity="0.7" />
<circle cx="513.8510858599711" cy="323.45907818165637" r="15" fill="#66bb6a" fill-opacity="0.7" />
<circle cx="499.72379756820817" cy="317.1539708611649" r="8" fill="#43a047" fill-opacity="0.7" />
<circle cx="512.4960593675064" cy="279.9594722492737" r="13" fill="#43a047" fill-opacity="0.7" />
<circle cx="499.4539344865294" cy="322.2043066346472" r="9" fill="#66bb6a" fill-opacity="0.7" />
<circle cx="453.79665566472084" cy="302.30433299842986" r="10" fill="#2e7d32" fill-opacity="0.7" />
<circle cx="490.9280378114787" cy="348.5939031167693" r="8" fill="#43a047" fill-opacity="0.7" />
<circle cx="512.4607995620652" cy="282.5514377512106" r="11" fill="#66bb6a" fill-opacity="0.7" />
<path d="M384,355 Q330.1038961038961,335 310.48589105819826,276.16576982546604" stroke="#5d4037" stroke-width="8" fill="none" stroke-linecap="round" stroke-opacity="1.0" />
<circle cx="289.6240080364388" cy="279.4831816613213" r="11" fill="#43a047" fill-opacity="0.7" />
<circle cx="293.88239094177" cy="247.75626368078701" r="16" fill="#2e7d32" fill-opacity="0.7" />
<circle cx="282.9774975671496" cy="241.75757603218136" r="12" fill="#2e7d32" fill-opacity="0.7" />
<circle cx="305.443735985864" cy="293.30621918776814" r="9" fill="#a5d6a7" fill-opacity="0.7" />
<circle cx="302.84107836590454" cy="279.9810306276081" r="15" fill="#a5d6a7" fill-opacity="0.7" />
<circle cx="343.63944743848833" cy="297.48237118500845" r="11" fill="#66bb6a" fill-opacity="0.7" />
<circle cx="335.26641135746405" cy="286.23390207759985" r="9" fill="#a5d6a7" fill-opacity="0.7" />
<circle cx="320.0422700611926" cy="307.6927686903494" r="14" fill="#66bb6a" fill-opacity="0.7" />
<circle cx="343.80651835983195" cy="259.2540842773071" r="12" fill="#66bb6a" fill-opacity="0.7" />
<circle cx="282.9143067029505" cy="243.75756876746823" r="11" fill="#66bb6a" fill-opacity="0.7" />
<text x="400" y="580" font-family="Segoe UI, Helvetica, Arial, sans-serif" font-size="20" fill="#3e2723" text-anchor="middle" font-weight="bold">@prithwiraj84's Contribution Garden</text>
<text x="400" y="595" font-family="Segoe UI, Helvetica, Arial, sans-serif" font-size="14" fill="#5d4037" text-anchor="middle" font-weight="bold">Grown over 5 years</text></svg>