<svg xmlns="http://www.w3.org/2000/svg" width="800" height="600" viewBox="0 0 800 600">
        <defs>
            <linearGradient id="sky" x1="0%" y1="0%" x2="0%" y2="100%">
                <stop offset="0%" style="stop-color:#e0f7fa;stop-opacity:1" />
                <stop offset="100%" style="stop-color:#ffffff;stop-opacity:1" />
            </linearGradient>
            <filter id="glow" x="-20%" y="-20%" width="140%" height="140%">
                <feGaussianBlur stdDeviation="2" result="coloredBlur"/>
                <feMerge>
                    <feMergeNode in="coloredBlur"/>
                    <feMergeNode in="SourceGraphic"/>
                </feMerge>
            </filter>
        </defs>
        <rect width="100%" height="100%" fill="url(#sky)"/><path d="M0,550 Q400,530 800,550 L800,600 L0,600 Z" stroke="#4e342e" stroke-width="0" fill="#5d4037" stroke-linecap="round" stroke-opacity="1.0" />
<path d="M0,550 Q400,530 800,550" stroke="none" stroke-width="0" fill="#76ff03" stroke-linecap="round" stroke-opacity="0.1" />
<path d="M400,550 Q412.0,470.0 424,390" stroke="#4e342e" stroke-width="35" fill="none" stroke-linecap="round" stroke-opacity="1.0" />
<path d="M424,430 Q503.5275590551181,410 498.67185486830704,289.56266633267467" stroke="#5d4037" stroke-width="8" fill="none" stroke-linecap="round" stroke-opacity="1.0" />
<circle cx="481.2363711130592" cy="272.8869865877938" r="13" fill="#a5d6a7" fill-opacity="0.7" />
<circle cx="503.11854386701435" cy="324.18236543681155" r="13" fill="#a5d6a7" fill-opacity="0.7" />
<circle cx="503.9238005579685" cy="323.2993958332651" r="11" fill="#43a047" fill-opacity="0.7" />
<circle cx="486.00311860026505" cy="265.6638618380513" r="12" fill="#66bb6a" fill-opacity="0.7" />
<circle cx="497.18554246357456" cy="297.8783589482036" r="16" fill="#2e7d32" fill-opacity="0.7" />
<circle cx="525.3010466495448" cy="298.2965044624482" r="11" fill="#2e7d32" fill-opacity="0.7" />
<circle cx="485.4690800337097" cy="276.13684490635615" r="11" fill="#66bb6a" fill-opacity="0.7" />
<circle cx="479.0383138470291" cy="287.9607544810912" r="9" fill="#2e7d32" fill-opacity="0.7" />
<circle cx="483.0863243756911" cy="301.05829685526294" r="9" fill="#2e7d32" fill-opacity="0.7" />
<circle cx="504.17866251527295" cy="295.6077813912795" r="8" fill="#66bb6a" fill-opacity="0.7" />
<path d="M424,415 Q358.0551181102362,395 318.66815123392,335.62675875750546" stroke="#5d4037" stroke-width="8" fill="none" stroke-linecap="round" stroke-opacity="1.0" />
<circle cx="288.72932591720325" cy="367.2561722653218" r="13" fill="#2e7d32" fill-opacity="0.7" />
<circle cx="324.9117453529564" cy="320.71848555120226" r="13" fill="#2e7d32" fill-opacity="0.7" />
<circle cx="350.3813207611384" cy="360.6737680116175" r="13" fill="#66bb6a" fill-opacity="0.7" />
<circle cx="317.73130744113445" cy="336.9716798895853" r="13" fill="#2e7d32" fill-opacity="0.7" />
<circle cx="347.20564552630293" cy="303.7821115464914" r="8" fill="#a5d6a7" fill-opacity="0.7" />
<circle cx="330.83952918605337" cy="305.0722484587209" r="8" fill="#a5d6a7" fill-opacity="0.7" />
<circle cx="331.9969701779286" cy="361.8989995880343" r="13" fill="#a5d6a7" fill-opacity="0.7" />
<circle cx="306.09992261992016" cy="315.9319513575286" r="14" fill="#66bb6a" fill-opacity="0.7" />
<circle cx="287.1444053089921" cy="336.1068516652943" r="9" fill="#2e7d32" fill-opacity="0.7" />
<circle cx="309.3231828813473" cy="359.1352005176366" r="9" fill="#66bb6a" fill-opacity="0.7" />
<path d="M424,400 Q482.26771653543307,380 522.8276521505127,338.24562904998874" stroke="#5d4037" stroke-width="8" fill="none" stroke-linecap="round" stroke-opacity="1.0" />
<circle cx="494.1606824275836" cy="336.19440837255604" r="13" fill="#a5d6a7" fill-opacity="0.7" />
<circle cx="505.3416648274711" cy="316.39042319527533" r="14" fill="#2e7d32" fill-opacity="0.7" />
<circle cx="543.5909414510816" cy="328.36604063458844" r="9" fill="#a5d6a7" fill-opacity="0.7" />
<circle cx="528.8394949627608" cy="344.84849014302876" r="16" fill="#43a047" fill-opacity="0.7" />
<circle cx="502.3774401524832" cy="364.89718836489845" r="13" fill="#66bb6a" fill-opacity="0.7" />
<circle cx="494.15601105108266" cy="305.32638769432594" r="13" fill="#43a047" fill-opacity="0.7" />
<circle cx="534.9019156578767" cy="369.9274682312509" r="14" fill="#66bb6a" fill-opacity="0.7" />
<circle cx="537.440531542775" cy="333.34918080057736" r="13" fill="#2e7d32" fill-opacity="0.7" />
<circle cx="551.6124291005642" cy="320.83285694440434" r="8" fill="#66bb6a" fill-opacity="0.7" />
<circle cx="533.876988445246" cy="310.00688905661616" r="11" fill="#2e7d32" fill-opacity="0.7" />
<path d="M424,385 Q366.3228346456693,365 341.02103877983274,304.868148604533" stroke="#5d4037" stroke-width="8" fill="none" stroke-linecap="round" stroke-opacity="1.0" />
<circle cx="365.7038116990579" cy="316.00734874556446" r="10" fill="#43a047" fill-opacity="0.7" />
<circle cx="343.59493037298324" cy="307.2457885870814" r="10" fill="#66bb6a" fill-opacity="0.7" />
<circle cx="317.5677331167349" cy="330.5180303904106" r="14" fill="#43a047" fill-opacity="0.7" />
<circle cx="371.161874760277" cy="291.7911804868828" r="8" fill="#43a047" fill-opacity="0.7" />
<circle cx="316.2166169946389" cy="298.25603240834425" r="13" fill="#43a047" fill-opacity="0.7" />
<circle cx="309.622503989382" cy="331.4555363456704" r="11" fill="#2e7d32" fill-opacity="0.7" />
<circle cx="358.3221579534812" cy="324.4421045696723" r="14" fill="#43a047" fill-opacity="0.7" />
<circle cx="365.09919763511414" cy="299.33729163100816" r="9" fill="#66bb6a" fill-opacity="0.7" />
<circle cx="362.2581969410399" cy="280.45385702436243" r="15" fill="#43a047" fill-opacity="0.7" />
<circle cx="322.08894870100755" cy="339.3789028673805" r="12" fill="#43a047" fill-opacity="0.7" />
<path d="M424,370 Q481.0866141732283,350 487.8448590576837,275.3461039208811" stroke="#5d4037" stroke-width="8" fill="none" stroke-linecap="round" stroke-opacity="1.0" />
<circle cx="471.9086225408396" cy="250.79948778856556" r="14" fill="#2e7d32" fill-opacity="0.7" />
<circle cx="502.65481524616337" cy="281.78846700250926" r="9" fill="#43a047" fill-opacity="0.7" />
<circle cx="483.9186064259588" cy="281.2266519289808" r="13" fill="#43a047" fill-opacity="0.7" />
<circle cx="455.460698042663" cy="276.9108374103845" r="13" fill="#43a047" fill-opacity="0.7" />
<circle cx="469.8960819058681" cy="283.5952865965503" r="9" fill="#66bb6a" fill-opacity="0.7" />
<circle cx="499.30116664059454" cy="250.84332804972354" r="8" fill="#2e7d32" fill-opacity="0.7" />
<circle cx="472.28076336025225" cy="278.12367896166455" r="13" fill="#2e7d32" fill-opacity="0.7" />
<circle cx="454.72290800020147" cy="274.86101297460436" r="9" fill="#43a047" fill-opacity="0.7" />
<circle cx="459.0806056449213" cy="260.4126180206985" r="15" fill="#43a047" fill-opacity="0.7" />
<circle cx="505.80738331030244" cy="275.73389944733833" r="8" fill="#66bb6a" fill-opacity="0.7" />
<path d="M424,355 Q367.503937007874,335 352.89175109003804,267.1886256149013" stroke="#5d4037" stroke-width="8" fill="none" stroke-linecap="round" stroke-opacity="1.0" />
<circle cx="354.23074206055367" cy="245.6105931897835" r="10" fill="#a5d6a7" fill-opacity="0.7" />
<circle cx="330.889410181631" cy="279.69545427166656" r="9" fill="#43a047" fill-opacity="0.7" />
<circle cx="321.4373994727325" cy="276.72303750825444" r="9" fill="#66bb6a" fill-opacity="0.7" />
<circle cx="344.20147398658213" cy="274.43624540189796" r="16" fill="#66bb6a" fill-opacity="0.7" />
<circle cx="356.50227291604375" cy="266.91465060511143" r="8" fill="#66bb6a" fill-opacity="0.7" />
<circle cx="366.08073251176916" cy="271.88572317878595" r="16" fill="#66bb6a" fill-opacity="0.7" />
<circle cx="329.9859772678028" cy="244.67681027741605" r="9" fill="#43a047" fill-opacity="0.7" />
<circle cx="386.77159704982205" cy="292.68261518425936" r="9" fill="#66bb6a" fill-opacity="0.7" />
<circle cx="339.73878830296434" cy="241.98944019654385" r="13" fill="#43a047" fill-opacity="0.7" />
<circle cx="339.98574275524794" cy="250.2162571966397" r="14" fill="#43a047" fill-opacity="0.7" />
<text x="400" y="580" font-family="Segoe UI, Helvetica, Arial, sans-serif" font-size="20" fill="#3e2723" text-anchor="middle" font-weight="bold">@prithwiraj84's Contribution Garden</text>
<text x="400" y="595" font-family="Segoe UI, Helvetica, Arial, sans-serif" font-size="14" fill="#5d4037" text-anchor="middle" font-weight="bold">Grown over 5 years</text></svg>