<svg xmlns="http://www.w3.org/2000/svg" width="800" height="600" viewBox="0 0 800 600">
        <defs>
            <linearGradient id="sky" x1="0%" y1="0%" x2="0%" y2="100%">
                <stop offset="0%" style="stop-color:#e0f7fa;stop-opacity:1" />
                <stop offset="100%" style="stop-color:#ffffff;stop-opacity:1" />
            </linearGradient>
            <filter id="glow" x="-20%" y="-20%" width="140%" height="140%">
                <feGaussianBlur stdDeviation="2" result="coloredBlur"/>
                <feMerge>
                    <feMergeNode in="coloredBlur"/>
                    <feMergeNode in="SourceGraphic"/>
                </feMerge>
            </filter>
        </defs>
        <rect width="100%" height="100%" fill="url(#sky)"/><path d="M0,550 Q400,530 800,550 L800,600 L0,600 Z" stroke="#4e342e" stroke-width="0" fill="#5d4037" stroke-linecap="round" stroke-opacity="1.0" />
<path d="M0,550 Q400,530 800,550" stroke="none" stroke-width="0" fill="#76ff03" stroke-linecap="round" stroke-opacity="0.1" />
<path d="M400,550 Q401.0,470.0 402,390" stroke="#4e342e" stroke-width="35" fill="none" stroke-linecap="round" stroke-opacity="1.0" />
<path d="M402,430 Q488.93009118541033,410 480.93087107933763,275.08944321101933" stroke="#5d4037" stroke-width="8" fill="none" stroke-linecap="round" stroke-opacity="1.0" />
<circle cx="511.38489962070804" cy="267.37116167620303" r="12" fill="#43a047" fill-opacity="0.7" />
<circle cx="485.7282776951781" cy="266.8106674559654" r="14" fill="#a5d6a7" fill-opacity="0.7" />
<circle cx="486.5412691760771" cy="288.59786876834374" r="11" fill="#43a047" fill-opacity="0.7" />
<circle cx="456.82201987926555" cy="289.2557194822178" r="10" fill="#2e7d32" fill-opacity="0.7" />
<circle cx="478.610404596916" cy="257.59905527007" r="8" fill="#43a047" fill-opacity="0.7" />
<circle cx="491.7298987026221" cy="242.3461047272809" r="15" fill="#43a047" fill-opacity="0.7" />
<circle cx="469.5965327961377" cy="280.7089255947154" r="14" fill="#a5d6a7" fill-opacity="0.7" />
<circle cx="493.50445493174607" cy="282.1217467067547" r="14" fill="#66bb6a" fill-opacity="0.7" />
<circle cx="463.0622764187647" cy="288.41070090302503" r="15" fill="#2e7d32" fill-opacity="0.7" />
<circle cx="473.8540626487525" cy="241.18458870929982" r="14" fill="#a5d6a7" fill-opacity="0.7" />
<circle cx="467.8748213735606" cy="253.89039564525876" r="14" fill="#a5d6a7" fill-opacity="0.7" />
<circle cx="447.6169144875828" cy="277.96505424802257" r="12" fill="#43a047" fill-opacity="0.7" />
<circle cx="446.241234164667" cy="240.9192470890879" r="8" fill="#2e7d32" fill-opacity="0.7" />
<circle cx="465.3209282165383" cy="252.7533598371893" r="16" fill="#66bb6a" fill-opacity="0.7" />
<circle cx="502.74976797973363" cy="282.6124120955673" r="16" fill="#a5d6a7" fill-opacity="0.7" />
<circle cx="505.066506560119" cy="297.8063432570738" r="14" fill="#66bb6a" fill-opacity="0.7" />
<circle cx="498.18932869694015" cy="282.81818606145885" r="10" fill="#a5d6a7" fill-opacity="0.7" />
<circle cx="510.6125817842436" cy="262.15247286113294" r="15" fill="#43a047" fill-opacity="0.7" />
<circle cx="465.58390230340024" cy="246.61855031050303" r="13" fill="#2e7d32" fill-opacity="0.7" />
<circle cx="506.2412141316237" cy="251.90210055511264" r="9" fill="#2e7d32" fill-opacity="0.7" />
<circle cx="467.1009587854065" cy="258.8343721345756" r="10" fill="#43a047" fill-opacity="0.7" />
<circle cx="451.36920058264667" cy="290.59125569673694" r="16" fill="#a5d6a7" fill-opacity="0.7" />
<circle cx="480.0159456357364" cy="244.6199725561725" r="16" fill="#43a047" fill-opacity="0.7" />
<circle cx="468.6664986363209" cy="253.88181466545922" r="16" fill="#2e7d32" fill-opacity="0.7" />
<circle cx="461.1633802710545" cy="266.1472569428473" r="15" fill="#a5d6a7" fill-opacity="0.7" />
<circle cx="452.92945607221895" cy="243.77090390227545" r="9" fill="#43a047" fill-opacity="0.7" />
<circle cx="514.2674040762802" cy="263.4182616539833" r="14" fill="#2e7d32" fill-opacity="0.7" />
<circle cx="459.9163873558115" cy="272.49267978246746" r="14" fill="#a5d6a7" fill-opacity="0.7" />
<circle cx="489.1480689595974" cy="280.0143023679217" r="11" fill="#a5d6a7" fill-opacity="0.7" />
<circle cx="486.5434376950444" cy="282.425057852432" r="14" fill="#66bb6a" fill-opacity="0.7" />
<circle cx="465.94364193941163" cy="266.1551476481493" r="15" fill="#66bb6a" fill-opacity="0.7" />
<circle cx="486.64860515851666" cy="266.4913196873129" r="14" fill="#a5d6a7" fill-opacity="0.7" />
<path d="M402,415 Q338.7781155015198,395 292.49648389838103,351.7781155015198" stroke="#5d4037" stroke-width="8" fill="none" stroke-linecap="round" stroke-opacity="1.0" />
<circle cx="307.5387254828278" cy="374.8523201741627" r="12" fill="#66bb6a" fill-opacity="0.7" />
<circle cx="310.568123017064" cy="329.19220969833447" r="16" fill="#a5d6a7" fill-opacity="0.7" />
<circle cx="326.8453342368465" cy="332.89503508402834" r="11" fill="#43a047" fill-opacity="0.7" />
<circle cx="261.057094130379" cy="375.03633749229556" r="8" fill="#66bb6a" fill-opacity="0.7" />
<circle cx="265.5006398681691" cy="341.9642471518893" r="14" fill="#43a047" fill-opacity="0.7" />
<circle cx="282.99104343113515" cy="385.90024556969865" r="14" fill="#a5d6a7" fill-opacity="0.7" />
<circle cx="313.1436506185365" cy="353.7754603668191" r="13" fill="#43a047" fill-opacity="0.7" />
<circle cx="302.10183911804796" cy="328.0852900525623" r="10" fill="#66bb6a" fill-opacity="0.7" />
<circle cx="307.37012483969585" cy="366.8152684087825" r="14" fill="#66bb6a" fill-opacity="0.7" />
<circle cx="294.2983768584215" cy="331.6036114350978" r="8" fill="#43a047" fill-opacity="0.7" />
<circle cx="266.39908135547375" cy="382.36431147897986" r="13" fill="#66bb6a" fill-opacity="0.7" />
<path d="M402,400 Q463.39817629179333,380 508.3447608294569,338.60182370820667" stroke="#5d4037" stroke-width="8" fill="none" stroke-linecap="round" stroke-opacity="1.0" />
<circle cx="508.17403694397694" cy="321.0173897188636" r="8" fill="#2e7d32" fill-opacity="0.7" />
<circle cx="474.3258991809509" cy="347.8644622987572" r="13" fill="#a5d6a7" fill-opacity="0.7" />
<circle cx="517.3391088564274" cy="344.3245695180625" r="13" fill="#43a047" fill-opacity="0.7" />
<circle cx="476.7026542027429" cy="336.3609850601897" r="9" fill="#43a047" fill-opacity="0.7" />
<circle cx="502.3576909309968" cy="349.5650864820179" r="10" fill="#2e7d32" fill-opacity="0.7" />
<circle cx="506.3677450405708" cy="336.1139425838655" r="16" fill="#2e7d32" fill-opacity="0.7" />
<circle cx="531.1724168992808" cy="353.48011664458363" r="11" fill="#43a047" fill-opacity="0.7" />
<circle cx="497.188813045758" cy="361.140148111077" r="15" fill="#2e7d32" fill-opacity="0.7" />
<circle cx="515.0485374241975" cy="342.66590124064345" r="8" fill="#43a047" fill-opacity="0.7" />
<circle cx="493.1631685258717" cy="317.7934841870316" r="14" fill="#66bb6a" fill-opacity="0.7" />
<path d="M402,385 Q346.30091185410333,365 311.87698223756286,319.52179484340684" stroke="#5d4037" stroke-width="8" fill="none" stroke-linecap="round" stroke-opacity="1.0" />
<circle cx="322.056428727224" cy="344.399599359151" r="15" fill="#66bb6a" fill-opacity="0.7" />
<circle cx="345.69719399199914" cy="307.50120406470575" r="14" fill="#2e7d32" fill-opacity="0.7" />
<circle cx="291.06091939938545" cy="345.71702356072853" r="15" fill="#2e7d32" fill-opacity="0.7" />
<circle cx="310.18352036105495" cy="300.79264883129855" r="15" fill="#66bb6a" fill-opacity="0.7" />
<circle cx="308.7334686108419" cy="333.28633701769024" r="12" fill="#66bb6a" fill-opacity="0.7" />
<circle cx="320.9776261919173" cy="284.5463373415877" r="13" fill="#2e7d32" fill-opacity="0.7" />
<circle cx="300.5085404592548" cy="349.50499251201745" r="8" fill="#a5d6a7" fill-opacity="0.7" />
<circle cx="281.0959734398823" cy="345.776492714227" r="9" fill="#a5d6a7" fill-opacity="0.7" />
<circle cx="293.2910849839612" cy="311.7827850044553" r="14" fill="#43a047" fill-opacity="0.7" />
<circle cx="315.7337884158023" cy="316.5177419742831" r="12" fill="#2e7d32" fill-opacity="0.7" />
<path d="M402,370 Q455.8753799392097,350 455.8753799392097,276.6851046682117" stroke="#5d4037" stroke-width="8" fill="none" stroke-linecap="round" stroke-opacity="1.0" />
<circle cx="473.86388808548855" cy="262.9580456089185" r="13" fill="#66bb6a" fill-opacity="0.7" />
<circle cx="442.3937752480376" cy="244.2752471328074" r="8" fill="#a5d6a7" fill-opacity="0.7" />
<circle cx="426.331908774341" cy="251.08954414415575" r="8" fill="#43a047" fill-opacity="0.7" />
<circle cx="476.3602165660959" cy="285.4716097964174" r="13" fill="#66bb6a" fill-opacity="0.7" />
<circle cx="484.01573909531885" cy="301.17274371412134" r="9" fill="#2e7d32" fill-opacity="0.7" />
<circle cx="459.6564140589884" cy="294.55588289048626" r="8" fill="#66bb6a" fill-opacity="0.7" />
<circle cx="457.0763847745818" cy="276.3027645407045" r="16" fill="#2e7d32" fill-opacity="0.7" />
<circle cx="470.5514108834993" cy="281.75208102874404" r="14" fill="#2e7d32" fill-opacity="0.7" />
<circle cx="451.3549679066722" cy="252.67006016755263" r="16" fill="#66bb6a" fill-opacity="0.7" />
<circle cx="457.39352145515534" cy="253.65826106785687" r="9" fill="#66bb6a" fill-opacity="0.7" />
<path d="M402,355 Q348.1246200607903,335 341.74653973240737,265.67057158943396" stroke="#5d4037" stroke-width="8" fill="none" stroke-linecap="round" stroke-opacity="1.0" />
<circle cx="342.55148540385" cy="260.80890400581654" r="9" fill="#2e7d32" fill-opacity="0.7" />
<circle cx="331.700540461311" cy="238.08909350782122" r="15" fill="#66bb6a" fill-opacity="0.7" />
<circle cx="365.7219051341983" cy="300.42419377674514" r="8" fill="#66bb6a" fill-opacity="0.7" />
<circle cx="328.72956596860394" cy="282.4702323172938" r="14" fill="#2e7d32" fill-opacity="0.7" />
<circle cx="316.5650991667615" cy="258.2484202708633" r="10" fill="#66bb6a" fill-opacity="0.7" />
<circle cx="324.8563568549353" cy="263.92668588304514" r="15" fill="#a5d6a7" fill-opacity="0.7" />
<circle cx="309.3831916942967" cy="299.9479351675325" r="13" fill="#2e7d32" fill-opacity="0.7" />
<circle cx="325.13731133782164" cy="277.67924074816347" r="12" fill="#2e7d32" fill-opacity="0.7" />
<circle cx="369.93860400264583" cy="288.8326804688848" r="9" fill="#43a047" fill-opacity="0.7" />
<circle cx="336.105382367244" cy="232.20050076671163" r="13" fill="#66bb6a" fill-opacity="0.7" />
<circle cx="327.4818304618271" cy="267.3354426313727" r="5" fill="#ffeb3b" fill-opacity="1.0" />
<circle cx="327.4818304618271" cy="267.3354426313727" r="9" fill="#ffeb3b" fill-opacity="0.3" />
<text x="400" y="580" font-family="Segoe UI, Helvetica, Arial, sans-serif" font-size="20" fill="#3e2723" text-anchor="middle" font-weight="bold">@prithwiraj84's Contribution Garden</text>
<text x="400" y="595" font-family="Segoe UI, Helvetica, Arial, sans-serif" font-size="14" fill="#5d4037" text-anchor="middle" font-weight="bold">Grown over 5 years</text></svg>