<svg xmlns="http://www.w3.org/2000/svg" width="800" height="600" viewBox="0 0 800 600">
        <defs>
            <linearGradient id="sky" x1="0%" y1="0%" x2="0%" y2="100%">
                <stop offset="0%" style="stop-color:#e0f7fa;stop-opacity:1" />
                <stop offset="100%" style="stop-color:#ffffff;stop-opacity:1" />
            </linearGradient>
            <filter id="glow" x="-20%" y="-20%" width="140%" height="140%">
                <feGaussianBlur stdDeviation="2" result="coloredBlur"/>
                <feMerge>
                    <feMergeNode in="coloredBlur"/>
                    <feMergeNode in="SourceGraphic"/>
                </feMerge>
            </filter>
        </defs>
        <rect width="100%" height="100%" fill="url(#sky)"/><path d="M0,550 Q400,530 800,550 L800,600 L0,600 Z" stroke="#4e342e" stroke-width="0" fill="#5d4037" stroke-linecap="round" stroke-opacity="1.0" />
<path d="M0,550 Q400,530 800,550" stroke="none" stroke-width="0" fill="#76ff03" stroke-linecap="round" stroke-opacity="0.1" />
<path d="M400,550 Q393.0,470.0 386,390" stroke="#4e342e" stroke-width="35" fill="none" stroke-linecap="round" stroke-opacity="1.0" />
<path d="M386,430 Q473.2611464968153,410 509.4058968440217,306.59410315597836" stroke="#5d4037" stroke-width="8" fill="none" stroke-linecap="round" stroke-opacity="1.0" />
<circle cx="520.2748139983121" cy="318.6890285686927" r="12" fill="#a5d6a7" fill-opacity="0.7" />
<circle cx="474.63603643520275" cy="281.33359182871635" r="12" fill="#a5d6a7" fill-opacity="0.7" />
<circle cx="495.60563144606334" cy="337.88301976600167" r="15" fill="#a5d6a7" fill-opacity="0.7" />
<circle cx="517.8639674294224" cy="314.8223011693043" r="11" fill="#2e7d32" fill-opacity="0.7" />
<circle cx="542.5788526331934" cy="309.2015465212405" r="10" fill="#66bb6a" fill-opacity="0.7" />
<circle cx="496.48772326067063" cy="283.62975524760026" r="12" fill="#66bb6a" fill-opacity="0.7" />
<circle cx="481.0339245300949" cy="302.5797434344098" r="10" fill="#a5d6a7" fill-opacity="0.7" />
<circle cx="523.3722341523696" cy="298.99189941387715" r="14" fill="#a5d6a7" fill-opacity="0.7" />
<circle cx="483.0180032843896" cy="273.42244469724744" r="16" fill="#43a047" fill-opacity="0.7" />
<circle cx="513.1242695549403" cy="311.82558539391243" r="10" fill="#2e7d32" fill-opacity="0.7" />
<circle cx="540.5512841626091" cy="311.17189954271686" r="12" fill="#66bb6a" fill-opacity="0.7" />
<circle cx="521.303450695434" cy="311.8812285470574" r="8" fill="#a5d6a7" fill-opacity="0.7" />
<circle cx="512.379552954675" cy="329.1920112082924" r="10" fill="#2e7d32" fill-opacity="0.7" />
<circle cx="537.212051768941" cy="285.208563973137" r="14" fill="#2e7d32" fill-opacity="0.7" />
<circle cx="494.7994768863963" cy="277.8131967300667" r="12" fill="#2e7d32" fill-opacity="0.7" />
<path d="M386,415 Q323.1019108280255,395 282.95380334581154,342.8462763188971" stroke="#5d4037" stroke-width="8" fill="none" stroke-linecap="round" stroke-opacity="1.0" />
<circle cx="293.5961749760405" cy="353.23107856022" r="11" fill="#2e7d32" fill-opacity="0.7" />
<circle cx="311.09046993902507" cy="374.86145924165737" r="9" fill="#a5d6a7" fill-opacity="0.7" />
<circle cx="299.5950238514383" cy="345.1778568184685" r="16" fill="#43a047" fill-opacity="0.7" />
<circle cx="310.2595056751914" cy="360.78586625640907" r="8" fill="#a5d6a7" fill-opacity="0.7" />
<circle cx="282.30276929822503" cy="322.86324576944867" r="16" fill="#2e7d32" fill-opacity="0.7" />
<circle cx="316.55571720564444" cy="374.9439266740869" r="16" fill="#2e7d32" fill-opacity="0.7" />
<circle cx="271.2117382576747" cy="313.61945084201426" r="9" fill="#2e7d32" fill-opacity="0.7" />
<circle cx="252.44077384066264" cy="358.8266024131203" r="13" fill="#a5d6a7" fill-opacity="0.7" />
<circle cx="317.67193988409554" cy="314.80304594371415" r="12" fill="#2e7d32" fill-opacity="0.7" />
<circle cx="300.52273075689993" cy="331.08173915837745" r="10" fill="#2e7d32" fill-opacity="0.7" />
<path d="M386,400 Q442.687898089172,380 463.32210706441066,317.08219179094755" stroke="#5d4037" stroke-width="8" fill="none" stroke-linecap="round" stroke-opacity="1.0" />
<circle cx="484.59141385416126" cy="302.9679966280057" r="8" fill="#43a047" fill-opacity="0.7" />
<circle cx="448.1275237943564" cy="287.4951784096575" r="9" fill="#2e7d32" fill-opacity="0.7" />
<circle cx="469.1384243000802" cy="303.71521164641285" r="16" fill="#a5d6a7" fill-opacity="0.7" />
<circle cx="432.32009213808146" cy="298.7256277545031" r="8" fill="#66bb6a" fill-opacity="0.7" />
<circle cx="465.3363463251779" cy="345.191419086503" r="11" fill="#66bb6a" fill-opacity="0.7" />
<circle cx="438.2545851390054" cy="294.06836828726773" r="14" fill="#a5d6a7" fill-opacity="0.7" />
<circle cx="437.53679887725036" cy="322.4295582620945" r="9" fill="#43a047" fill-opacity="0.7" />
<circle cx="475.4927102612482" cy="344.3183984016055" r="16" fill="#2e7d32" fill-opacity="0.7" />
<circle cx="490.2664935339964" cy="291.3774075409295" r="14" fill="#a5d6a7" fill-opacity="0.7" />
<circle cx="473.3002787035033" cy="328.14797026505204" r="11" fill="#66bb6a" fill-opacity="0.7" />
<path d="M386,385 Q329.78980891719743,365 298.6329540145507,314.2515611335692" stroke="#5d4037" stroke-width="8" fill="none" stroke-linecap="round" stroke-opacity="1.0" />
<circle cx="316.0288527413428" cy="296.6293665188912" r="13" fill="#2e7d32" fill-opacity="0.7" />
<circle cx="297.3595067516097" cy="288.5993082524127" r="15" fill="#43a047" fill-opacity="0.7" />
<circle cx="269.1283617592044" cy="309.1460599027139" r="15" fill="#2e7d32" fill-opacity="0.7" />
<circle cx="319.33794742898993" cy="312.0147635277632" r="15" fill="#43a047" fill-opacity="0.7" />
<circle cx="297.6121953438591" cy="339.89444740571025" r="8" fill="#2e7d32" fill-opacity="0.7" />
<circle cx="313.41820529091905" cy="348.8101303505159" r="12" fill="#2e7d32" fill-opacity="0.7" />
<circle cx="310.28090577591985" cy="327.6128518541324" r="15" fill="#66bb6a" fill-opacity="0.7" />
<circle cx="281.8702826314744" cy="315.687993359697" r="9" fill="#66bb6a" fill-opacity="0.7" />
<circle cx="299.53007825324744" cy="282.65476176233807" r="14" fill="#43a047" fill-opacity="0.7" />
<circle cx="285.2320055118878" cy="344.53884084826325" r="12" fill="#66bb6a" fill-opacity="0.7" />
<path d="M386,370 Q442.21019108280257,350 450.48168217577046,277.91061412929486" stroke="#5d4037" stroke-width="8" fill="none" stroke-linecap="round" stroke-opacity="1.0" />
<circle cx="425.6533912757054" cy="246.73199502928725" r="16" fill="#66bb6a" fill-opacity="0.7" />
<circle cx="447.90706992676127" cy="254.46277244163468" r="15" fill="#43a047" fill-opacity="0.7" />
<circle cx="438.7311164594681" cy="251.07682158257103" r="12" fill="#66bb6a" fill-opacity="0.7" />
<circle cx="451.7048258119239" cy="260.9210338068435" r="9" fill="#2e7d32" fill-opacity="0.7" />
<circle cx="464.5354770981487" cy="273.577589831245" r="15" fill="#a5d6a7" fill-opacity="0.7" />
<circle cx="440.29893005918456" cy="290.6401462864216" r="14" fill="#a5d6a7" fill-opacity="0.7" />
<circle cx="428.42954983226923" cy="292.4317661091827" r="11" fill="#43a047" fill-opacity="0.7" />
<circle cx="463.21056902152543" cy="258.8649785460052" r="15" fill="#a5d6a7" fill-opacity="0.7" />
<circle cx="482.631346064298" cy="262.8658540551674" r="8" fill="#43a047" fill-opacity="0.7" />
<circle cx="425.8877925346112" cy="251.75358093589563" r="11" fill="#a5d6a7" fill-opacity="0.7" />
<path d="M386,355 Q330.26751592356686,335 311.4153782721018,272.1653856951949" stroke="#5d4037" stroke-width="8" fill="none" stroke-linecap="round" stroke-opacity="1.0" />
<circle cx="306.95553458368664" cy="268.63088066924036" r="14" fill="#43a047" fill-opacity="0.7" />
<circle cx="340.442576207256" cy="255.49880465576973" r="11" fill="#43a047" fill-opacity="0.7" />
<circle cx="338.8010132252476" cy="244.6806954001284" r="11" fill="#66bb6a" fill-opacity="0.7" />
<circle cx="325.0896851399307" cy="238.41116594557735" r="13" fill="#2e7d32" fill-opacity="0.7" />
<circle cx="305.2977816065145" cy="279.2302649838175" r="16" fill="#43a047" fill-opacity="0.7" />
<circle cx="308.41431598198596" cy="279.6322861393758" r="15" fill="#66bb6a" fill-opacity="0.7" />
<circle cx="315.0630936674431" cy="242.3414535260576" r="12" fill="#43a047" fill-opacity="0.7" />
<circle cx="304.6105832079407" cy="288.282703363479" r="9" fill="#66bb6a" fill-opacity="0.7" />
<circle cx="290.0086094371187" cy="262.7406713753958" r="9" fill="#2e7d32" fill-opacity="0.7" />
<circle cx="320.2968793002185" cy="298.20802282388206" r="8" fill="#a5d6a7" fill-opacity="0.7" />
<text x="400" y="580" font-family="Segoe UI, Helvetica, Arial, sans-serif" font-size="20" fill="#3e2723" text-anchor="middle" font-weight="bold">@prithwiraj84's Contribution Garden</text>
<text x="400" y="595" font-family="Segoe UI, Helvetica, Arial, sans-serif" font-size="14" fill="#5d4037" text-anchor="middle" font-weight="bold">Grown over 5 years</text></svg>