<svg xmlns="http://www.w3.org/2000/svg" width="800" height="600" viewBox="0 0 800 600">
        <defs>
            <linearGradient id="sky" x1="0%" y1="0%" x2="0%" y2="100%">
                <stop offset="0%" style="stop-color:#e0f7fa;stop-opacity:1" />
                <stop offset="100%" style="stop-color:#ffffff;stop-opacity:1" />
            </linearGradient>
            <filter id="glow" x="-20%" y="-20%" width="140%" height="140%">
                <feGaussianBlur stdDeviation="2" result="coloredBlur"/>
                <feMerge>
                    <feMergeNode in="coloredBlur"/>
                    <feMergeNode in="SourceGraphic"/>
                </feMerge>
            </filter>
        </defs>
        <rect width="100%" height="100%" fill="url(#sky)"/><path d="M0,550 Q400,530 800,550 L800,600 L0,600 Z" stroke="#4e342e" stroke-width="0" fill="#5d4037" stroke-linecap="round" stroke-opacity="1.0" />
<path d="M0,550 Q400,530 800,550" stroke="none" stroke-width="0" fill="#76ff03" stroke-linecap="round" stroke-opacity="0.1" />
<path d="M400,550 Q396.0,470.0 392,390" stroke="#4e342e" stroke-width="35" fill="none" stroke-linecap="round" stroke-opacity="1.0" />
<path d="M392,430 Q481.01734104046244,410 528.3824788905464,315.5615122638994" stroke="#5d4037" stroke-width="8" fill="none" stroke-linecap="round" stroke-opacity="1.0" />
<circle cx="543.5174062374468" cy="319.03695295331744" r="12" fill="#2e7d32" fill-opacity="0.7" />
<circle cx="519.4879716707471" cy="312.3136089061433" r="8" fill="#2e7d32" fill-opacity="0.7" />
<circle cx="495.00276807446795" cy="328.7206316397687" r="10" fill="#a5d6a7" fill-opacity="0.7" />
<circle cx="548.6867978721457" cy="314.1268503662522" r="8" fill="#43a047" fill-opacity="0.7" />
<circle cx="499.2765991690027" cy="305.7425591760516" r="10" fill="#66bb6a" fill-opacity="0.7" />
<circle cx="504.80232936446043" cy="347.5667352156366" r="13" fill="#2e7d32" fill-opacity="0.7" />
<circle cx="523.9637525849944" cy="294.84723041813254" r="11" fill="#a5d6a7" fill-opacity="0.7" />
<circle cx="535.1052081153548" cy="295.95005519197" r="16" fill="#2e7d32" fill-opacity="0.7" />
<circle cx="541.8585605370768" cy="323.89982362809536" r="9" fill="#2e7d32" fill-opacity="0.7" />
<circle cx="536.2978184609871" cy="301.8383005263618" r="13" fill="#2e7d32" fill-opacity="0.7" />
<circle cx="513.9989182933205" cy="316.48170738269204" r="11" fill="#a5d6a7" fill-opacity="0.7" />
<circle cx="560.7273019353786" cy="315.1817091288745" r="15" fill="#43a047" fill-opacity="0.7" />
<circle cx="547.9350486379703" cy="343.3288804712767" r="14" fill="#2e7d32" fill-opacity="0.7" />
<circle cx="553.6720410822305" cy="313.31060048216716" r="15" fill="#a5d6a7" fill-opacity="0.7" />
<circle cx="519.0178296190694" cy="326.80919427312847" r="14" fill="#43a047" fill-opacity="0.7" />
<circle cx="500.1510598943443" cy="297.9620433924228" r="13" fill="#2e7d32" fill-opacity="0.7" />
<circle cx="535.8594878752444" cy="333.3048408620433" r="10" fill="#2e7d32" fill-opacity="0.7" />
<circle cx="521.590130931215" cy="310.24100233731724" r="11" fill="#43a047" fill-opacity="0.7" />
<path d="M392,415 Q328.5606936416185,395 322.8969548058968,308.5906418127049" stroke="#5d4037" stroke-width="8" fill="none" stroke-linecap="round" stroke-opacity="1.0" />
<circle cx="301.43962026419433" cy="282.9628480551938" r="15" fill="#43a047" fill-opacity="0.7" />
<circle cx="347.9173386573264" cy="279.71618358249697" r="12" fill="#a5d6a7" fill-opacity="0.7" />
<circle cx="316.96384135969345" cy="312.61243555683353" r="11" fill="#2e7d32" fill-opacity="0.7" />
<circle cx="288.964695968565" cy="321.35060208816736" r="16" fill="#43a047" fill-opacity="0.7" />
<circle cx="343.28186476557096" cy="316.7375150657871" r="10" fill="#a5d6a7" fill-opacity="0.7" />
<circle cx="344.05387108233145" cy="318.0955197340364" r="8" fill="#43a047" fill-opacity="0.7" />
<circle cx="288.68816089490406" cy="307.27123197835647" r="14" fill="#2e7d32" fill-opacity="0.7" />
<circle cx="315.0127198181887" cy="320.019786258401" r="16" fill="#43a047" fill-opacity="0.7" />
<circle cx="348.2265461686059" cy="289.9772304921022" r="15" fill="#66bb6a" fill-opacity="0.7" />
<circle cx="288.96382042117455" cy="341.69675703603684" r="15" fill="#a5d6a7" fill-opacity="0.7" />
<path d="M392,400 Q448.0693641618497,380 472.6658504426002,322.10189371731474" stroke="#5d4037" stroke-width="8" fill="none" stroke-linecap="round" stroke-opacity="1.0" />
<circle cx="472.91196139597224" cy="292.4477577726351" r="15" fill="#2e7d32" fill-opacity="0.7" />
<circle cx="477.1272780925959" cy="350.82700147427283" r="14" fill="#2e7d32" fill-opacity="0.7" />
<circle cx="499.0463853097689" cy="347.7699075304828" r="15" fill="#66bb6a" fill-opacity="0.7" />
<circle cx="505.178935848005" cy="319.4570045254341" r="15" fill="#2e7d32" fill-opacity="0.7" />
<circle cx="484.47496452941255" cy="344.00948190609824" r="10" fill="#2e7d32" fill-opacity="0.7" />
<circle cx="448.31490374942473" cy="351.10445598201903" r="14" fill="#a5d6a7" fill-opacity="0.7" />
<circle cx="447.0971972015285" cy="317.41755981916845" r="10" fill="#2e7d32" fill-opacity="0.7" />
<circle cx="453.96636693975364" cy="350.74306305017797" r="15" fill="#a5d6a7" fill-opacity="0.7" />
<circle cx="489.03149056963895" cy="336.08185209284926" r="9" fill="#43a047" fill-opacity="0.7" />
<circle cx="475.2622297620191" cy="335.67259944496755" r="16" fill="#43a047" fill-opacity="0.7" />
<circle cx="473.4880387357182" cy="333.1820640325691" r="5" fill="#ffeb3b" fill-opacity="1.0" />
<circle cx="473.4880387357182" cy="333.1820640325691" r="9" fill="#ffeb3b" fill-opacity="0.3" />
<path d="M392,385 Q336.36416184971097,365 343.2217076549726,284.98967981931236" stroke="#5d4037" stroke-width="8" fill="none" stroke-linecap="round" stroke-opacity="1.0" />
<circle cx="339.35812085302337" cy="267.1018676213059" r="9" fill="#a5d6a7" fill-opacity="0.7" />
<circle cx="339.35759224566544" cy="292.0792819059619" r="15" fill="#66bb6a" fill-opacity="0.7" />
<circle cx="336.71873597385303" cy="286.1662822335656" r="9" fill="#2e7d32" fill-opacity="0.7" />
<circle cx="313.13555404105034" cy="301.0832088993107" r="15" fill="#43a047" fill-opacity="0.7" />
<circle cx="313.32485499345523" cy="250.61844593372777" r="16" fill="#a5d6a7" fill-opacity="0.7" />
<circle cx="322.7238239529177" cy="299.046781922685" r="13" fill="#43a047" fill-opacity="0.7" />
<circle cx="341.1097600887965" cy="279.01566095179004" r="11" fill="#a5d6a7" fill-opacity="0.7" />
<circle cx="362.4257449136579" cy="287.78737460158305" r="14" fill="#66bb6a" fill-opacity="0.7" />
<circle cx="310.87756157189165" cy="307.9221483607015" r="14" fill="#a5d6a7" fill-opacity="0.7" />
<circle cx="313.8811852227809" cy="250.92912653338874" r="16" fill="#43a047" fill-opacity="0.7" />
<path d="M392,370 Q447.63583815028903,350 484.2484004143616,307.77766825542267" stroke="#5d4037" stroke-width="8" fill="none" stroke-linecap="round" stroke-opacity="1.0" />
<circle cx="456.32949748563783" cy="303.6108020419442" r="13" fill="#43a047" fill-opacity="0.7" />
<circle cx="467.2936394724634" cy="330.5942790751938" r="8" fill="#66bb6a" fill-opacity="0.7" />
<circle cx="463.2129971598814" cy="312.931475281092" r="15" fill="#43a047" fill-opacity="0.7" />
<circle cx="487.6227257817721" cy="305.6203526845217" r="13" fill="#43a047" fill-opacity="0.7" />
<circle cx="451.3303844790126" cy="341.4554705136565" r="10" fill="#2e7d32" fill-opacity="0.7" />
<circle cx="516.5821242716036" cy="340.8992777174843" r="10" fill="#a5d6a7" fill-opacity="0.7" />
<circle cx="482.7839924984594" cy="320.86937048104295" r="8" fill="#a5d6a7" fill-opacity="0.7" />
<circle cx="466.4143634742134" cy="310.68466302844143" r="16" fill="#a5d6a7" fill-opacity="0.7" />
<circle cx="497.08029433978123" cy="286.54132932996026" r="9" fill="#2e7d32" fill-opacity="0.7" />
<circle cx="501.53503944306823" cy="296.11065196576413" r="8" fill="#2e7d32" fill-opacity="0.7" />
<path d="M392,355 Q336.7976878612717,335 315.3065036082841,275.5815596157905" stroke="#5d4037" stroke-width="8" fill="none" stroke-linecap="round" stroke-opacity="1.0" />
<circle cx="334.83155007748644" cy="243.25990305769753" r="14" fill="#66bb6a" fill-opacity="0.7" />
<circle cx="325.6769966034952" cy="296.79827380462405" r="16" fill="#66bb6a" fill-opacity="0.7" />
<circle cx="299.9542759577714" cy="242.43008551463652" r="12" fill="#a5d6a7" fill-opacity="0.7" />
<circle cx="294.84556452696484" cy="302.4460122939875" r="9" fill="#43a047" fill-opacity="0.7" />
<circle cx="293.97847250937514" cy="272.3346447011266" r="10" fill="#a5d6a7" fill-opacity="0.7" />
<circle cx="333.48314187149634" cy="282.35145426330445" r="15" fill="#2e7d32" fill-opacity="0.7" />
<circle cx="323.00653090109535" cy="276.74535238578113" r="14" fill="#43a047" fill-opacity="0.7" />
<circle cx="348.3333703848517" cy="264.7965701703282" r="13" fill="#66bb6a" fill-opacity="0.7" />
<circle cx="298.43440357814956" cy="245.32294727688597" r="14" fill="#66bb6a" fill-opacity="0.7" />
<circle cx="302.75529256657785" cy="272.8758295452973" r="13" fill="#2e7d32" fill-opacity="0.7" />
<text x="400" y="580" font-family="Segoe UI, Helvetica, Arial, sans-serif" font-size="20" fill="#3e2723" text-anchor="middle" font-weight="bold">@prithwiraj84's Contribution Garden</text>
<text x="400" y="595" font-family="Segoe UI, Helvetica, Arial, sans-serif" font-size="14" fill="#5d4037" text-anchor="middle" font-weight="bold">Grown over 5 years</text></svg>