<svg xmlns="http://www.w3.org/2000/svg" width="800" height="600" viewBox="0 0 800 600">
        <defs>
            <linearGradient id="sky" x1="0%" y1="0%" x2="0%" y2="100%">
                <stop offset="0%" style="stop-color:#e0f7fa;stop-opacity:1" />
                <stop offset="100%" style="stop-color:#ffffff;stop-opacity:1" />
            </linearGradient>
            <filter id="glow" x="-20%" y="-20%" width="140%" height="140%">
                <feGaussianBlur stdDeviation="2" result="coloredBlur"/>
                <feMerge>
                    <feMergeNode in="coloredBlur"/>
                    <feMergeNode in="SourceGraphic"/>
                </feMerge>
            </filter>
        </defs>
        <rect width="100%" height="100%" fill="url(#sky)"/><path d="M0,550 Q400,530 800,550 L800,600 L0,600 Z" stroke="#4e342e" stroke-width="0" fill="#5d4037" stroke-linecap="round" stroke-opacity="1.0" />
<path d="M0,550 Q400,530 800,550" stroke="none" stroke-width="0" fill="#76ff03" stroke-linecap="round" stroke-opacity="0.1" />
<path d="M400,550 Q396.0,470.0 392,390" stroke="#4e342e" stroke-width="35" fill="none" stroke-linecap="round" stroke-opacity="1.0" />
<path d="M392,430 Q472.0,410 514.5671108990365,327.1539824501537" stroke="#5d4037" stroke-width="8" fill="none" stroke-linecap="round" stroke-opacity="1.0" />
<circle cx="545.5871775508895" cy="326.2297570581045" r="15" fill="#66bb6a" fill-opacity="0.7" />
<circle cx="499.78747364427176" cy="306.4869336986784" r="12" fill="#66bb6a" fill-opacity="0.7" />
<circle cx="518.527236805593" cy="321.2690983090319" r="8" fill="#a5d6a7" fill-opacity="0.7" />
<circle cx="506.1880389062193" cy="348.8009421539991" r="8" fill="#43a047" fill-opacity="0.7" />
<circle cx="491.9686977362015" cy="328.17703202663586" r="10" fill="#43a047" fill-opacity="0.7" />
<circle cx="546.9696230960878" cy="294.52512935514085" r="14" fill="#2e7d32" fill-opacity="0.7" />
<circle cx="484.33669193478414" cy="340.3660619335464" r="15" fill="#a5d6a7" fill-opacity="0.7" />
<circle cx="495.06381205453596" cy="295.10348814193816" r="8" fill="#2e7d32" fill-opacity="0.7" />
<circle cx="538.5682264494162" cy="345.6715869476543" r="15" fill="#66bb6a" fill-opacity="0.7" />
<circle cx="548.0259893663609" cy="305.51499117096915" r="8" fill="#66bb6a" fill-opacity="0.7" />
<path d="M392,415 Q329.1428571428571,395 312.88543655373473,317.3016505596951" stroke="#5d4037" stroke-width="8" fill="none" stroke-linecap="round" stroke-opacity="1.0" />
<circle cx="345.3508438856874" cy="313.87712967014977" r="9" fill="#2e7d32" fill-opacity="0.7" />
<circle cx="335.6161739614932" cy="299.390536040512" r="15" fill="#43a047" fill-opacity="0.7" />
<circle cx="303.11902967027925" cy="350.0152768493989" r="9" fill="#43a047" fill-opacity="0.7" />
<circle cx="289.65845405501" cy="315.66942643788803" r="11" fill="#a5d6a7" fill-opacity="0.7" />
<circle cx="336.62291452307284" cy="283.1578347515243" r="14" fill="#66bb6a" fill-opacity="0.7" />
<circle cx="336.95882866810155" cy="329.2170026771517" r="15" fill="#2e7d32" fill-opacity="0.7" />
<circle cx="346.557993970065" cy="300.74861110244024" r="10" fill="#2e7d32" fill-opacity="0.7" />
<circle cx="308.89670164064336" cy="325.85375257291514" r="10" fill="#66bb6a" fill-opacity="0.7" />
<circle cx="302.8497526237013" cy="331.5078863159923" r="16" fill="#66bb6a" fill-opacity="0.7" />
<circle cx="302.888401509413" cy="318.47068394261225" r="11" fill="#a5d6a7" fill-opacity="0.7" />
<path d="M392,400 Q451.2857142857143,380 478.7176531919873,319.13448016401804" stroke="#5d4037" stroke-width="8" fill="none" stroke-linecap="round" stroke-opacity="1.0" />
<circle cx="494.2785070091529" cy="309.38456415525565" r="13" fill="#2e7d32" fill-opacity="0.7" />
<circle cx="490.0979573951666" cy="339.422228963766" r="13" fill="#2e7d32" fill-opacity="0.7" />
<circle cx="455.4436103965106" cy="299.8384760868065" r="16" fill="#a5d6a7" fill-opacity="0.7" />
<circle cx="457.6504442434792" cy="337.9360039246937" r="14" fill="#2e7d32" fill-opacity="0.7" />
<circle cx="464.6626304288366" cy="303.91438336473965" r="16" fill="#43a047" fill-opacity="0.7" />
<circle cx="509.7723673979441" cy="298.36624187937696" r="15" fill="#43a047" fill-opacity="0.7" />
<circle cx="457.00756810257525" cy="325.13841772243757" r="10" fill="#66bb6a" fill-opacity="0.7" />
<circle cx="485.4973338865202" cy="324.35266620366986" r="13" fill="#43a047" fill-opacity="0.7" />
<circle cx="467.23476935093714" cy="318.73405020040616" r="12" fill="#2e7d32" fill-opacity="0.7" />
<circle cx="451.09720543148313" cy="334.2023742432124" r="14" fill="#43a047" fill-opacity="0.7" />
<path d="M392,385 Q333.42857142857144,365 303.59116345961814,308.14737088968343" stroke="#5d4037" stroke-width="8" fill="none" stroke-linecap="round" stroke-opacity="1.0" />
<circle cx="288.4992262875447" cy="341.84151674252075" r="15" fill="#a5d6a7" fill-opacity="0.7" />
<circle cx="289.9170712205835" cy="324.72322137779054" r="12" fill="#a5d6a7" fill-opacity="0.7" />
<circle cx="296.5859927693699" cy="299.5824044497365" r="11" fill="#a5d6a7" fill-opacity="0.7" />
<circle cx="303.63027901915524" cy="278.23838435815054" r="10" fill="#43a047" fill-opacity="0.7" />
<circle cx="269.577212016811" cy="321.40644964373496" r="12" fill="#66bb6a" fill-opacity="0.7" />
<circle cx="315.65094054343155" cy="316.60761964794784" r="11" fill="#43a047" fill-opacity="0.7" />
<circle cx="288.9627526616762" cy="329.9336584947255" r="13" fill="#66bb6a" fill-opacity="0.7" />
<circle cx="334.19287699680086" cy="292.1474832932601" r="11" fill="#43a047" fill-opacity="0.7" />
<circle cx="305.0319402449314" cy="313.6281148304396" r="8" fill="#43a047" fill-opacity="0.7" />
<circle cx="313.42182256514" cy="282.21002017728074" r="13" fill="#2e7d32" fill-opacity="0.7" />
<path d="M392,370 Q450.57142857142856,350 454.07625666731826,270.6572230216758" stroke="#5d4037" stroke-width="8" fill="none" stroke-linecap="round" stroke-opacity="1.0" />
<circle cx="486.51695431107396" cy="256.42574307677444" r="15" fill="#43a047" fill-opacity="0.7" />
<circle cx="461.237622265583" cy="245.89773057174008" r="14" fill="#a5d6a7" fill-opacity="0.7" />
<circle cx="440.78178327190614" cy="271.1485977660473" r="9" fill="#66bb6a" fill-opacity="0.7" />
<circle cx="451.6013059266924" cy="236.62851203039475" r="9" fill="#43a047" fill-opacity="0.7" />
<circle cx="447.1223387076729" cy="243.9739316486524" r="9" fill="#2e7d32" fill-opacity="0.7" />
<circle cx="481.6573640840835" cy="282.31973543373715" r="8" fill="#66bb6a" fill-opacity="0.7" />
<circle cx="465.2463671356644" cy="294.80679526486483" r="14" fill="#43a047" fill-opacity="0.7" />
<circle cx="488.76754941057635" cy="292.91544583870757" r="16" fill="#a5d6a7" fill-opacity="0.7" />
<circle cx="484.1530094250428" cy="275.06246048246135" r="14" fill="#43a047" fill-opacity="0.7" />
<circle cx="456.826087284422" cy="278.0427558327898" r="8" fill="#66bb6a" fill-opacity="0.7" />
<path d="M392,355 Q336.2857142857143,335 300.72305792208374,291.087197092312" stroke="#5d4037" stroke-width="8" fill="none" stroke-linecap="round" stroke-opacity="1.0" />
<circle cx="276.9219667930608" cy="318.1187636355156" r="13" fill="#43a047" fill-opacity="0.7" />
<circle cx="321.8447081036939" cy="312.34114653362747" r="11" fill="#66bb6a" fill-opacity="0.7" />
<circle cx="291.40543723821133" cy="311.08434752171763" r="13" fill="#43a047" fill-opacity="0.7" />
<circle cx="311.6224367231215" cy="270.7047705647101" r="12" fill="#2e7d32" fill-opacity="0.7" />
<circle cx="335.53572745000093" cy="273.3397492398196" r="9" fill="#a5d6a7" fill-opacity="0.7" />
<circle cx="300.458478706835" cy="322.98125907346605" r="10" fill="#66bb6a" fill-opacity="0.7" />
<circle cx="315.2234350148147" cy="324.19814665535245" r="15" fill="#43a047" fill-opacity="0.7" />
<circle cx="302.0075291516041" cy="312.01670258892904" r="14" fill="#66bb6a" fill-opacity="0.7" />
<circle cx="291.3251008456708" cy="279.95716662167297" r="16" fill="#2e7d32" fill-opacity="0.7" />
<circle cx="305.77926341432635" cy="312.58064150429277" r="9" fill="#a5d6a7" fill-opacity="0.7" />
<text x="400" y="580" font-family="Segoe UI, Helvetica, Arial, sans-serif" font-size="20" fill="#3e2723" text-anchor="middle" font-weight="bold">@prithwiraj84's Contribution Garden</text>
<text x="400" y="595" font-family="Segoe UI, Helvetica, Arial, sans-serif" font-size="14" fill="#5d4037" text-anchor="middle" font-weight="bold">Grown over 5 years</text></svg>