<svg xmlns="http://www.w3.org/2000/svg" width="800" height="600" viewBox="0 0 800 600">
        <defs>
            <linearGradient id="sky" x1="0%" y1="0%" x2="0%" y2="100%">
                <stop offset="0%" style="stop-color:#e0f7fa;stop-opacity:1" />
                <stop offset="100%" style="stop-color:#ffffff;stop-opacity:1" />
            </linearGradient>
            <filter id="glow" x="-20%" y="-20%" width="140%" height="140%">
                <feGaussianBlur stdDeviation="2" result="coloredBlur"/>
                <feMerge>
                    <feMergeNode in="coloredBlur"/>
                    <feMergeNode in="SourceGraphic"/>
                </feMerge>
            </filter>
        </defs>
        <rect width="100%" height="100%" fill="url(#sky)"/><path d="M0,550 Q400,530 800,550 L800,600 L0,600 Z" stroke="#4e342e" stroke-width="0" fill="#5d4037" stroke-linecap="round" stroke-opacity="1.0" />
<path d="M0,550 Q400,530 800,550" stroke="none" stroke-width="0" fill="#76ff03" stroke-linecap="round" stroke-opacity="0.1" />
<path d="M400,550 Q389.0,470.0 378,390" stroke="#4e342e" stroke-width="35" fill="none" stroke-linecap="round" stroke-opacity="1.0" />
<path d="M378,430 Q463.23489932885906,410 500.625710930213,311.58172745195617" stroke="#5d4037" stroke-width="8" fill="none" stroke-linecap="round" stroke-opacity="1.0" />
<circle cx="469.06198534011094" cy="291.6133338848716" r="16" fill="#66bb6a" fill-opacity="0.7" />
<circle cx="516.6318875372439" cy="277.19059792639376" r="14" fill="#66bb6a" fill-opacity="0.7" />
<circle cx="522.626975097641" cy="306.37723131096106" r="9" fill="#43a047" fill-opacity="0.7" />
<circle cx="469.6126218269736" cy="296.2402277293656" r="11" fill="#2e7d32" fill-opacity="0.7" />
<circle cx="465.67744208883795" cy="338.85428621765374" r="13" fill="#a5d6a7" fill-opacity="0.7" />
<circle cx="494.0532100928996" cy="311.72255043739335" r="11" fill="#a5d6a7" fill-opacity="0.7" />
<circle cx="476.14382313399796" cy="312.8307288167775" r="11" fill="#2e7d32" fill-opacity="0.7" />
<circle cx="494.3687224384134" cy="345.2122150755003" r="12" fill="#43a047" fill-opacity="0.7" />
<circle cx="510.3444690731355" cy="344.227656853118" r="12" fill="#66bb6a" fill-opacity="0.7" />
<circle cx="516.5347125969032" cy="292.67226390189956" r="16" fill="#2e7d32" fill-opacity="0.7" />
<circle cx="490.7723724834852" cy="295.92675892068104" r="10" fill="#a5d6a7" fill-opacity="0.7" />
<circle cx="534.1708550807087" cy="293.67791821731316" r="12" fill="#2e7d32" fill-opacity="0.7" />
<circle cx="505.3903501492292" cy="346.4811746888511" r="11" fill="#2e7d32" fill-opacity="0.7" />
<circle cx="468.45832424862544" cy="279.0192575291492" r="13" fill="#2e7d32" fill-opacity="0.7" />
<path d="M378,415 Q314.40939597315435,395 299.69942981596495,314.77984039699743" stroke="#5d4037" stroke-width="8" fill="none" stroke-linecap="round" stroke-opacity="1.0" />
<circle cx="315.6845773132119" cy="330.808213251595" r="8" fill="#43a047" fill-opacity="0.7" />
<circle cx="274.09446742573675" cy="348.78150761253505" r="15" fill="#43a047" fill-opacity="0.7" />
<circle cx="265.08238700388915" cy="281.5305504240481" r="16" fill="#66bb6a" fill-opacity="0.7" />
<circle cx="282.93609492902283" cy="298.53396672566737" r="8" fill="#66bb6a" fill-opacity="0.7" />
<circle cx="300.1275434248356" cy="325.18631666093256" r="14" fill="#43a047" fill-opacity="0.7" />
<circle cx="317.62817374146687" cy="314.66008131283513" r="16" fill="#43a047" fill-opacity="0.7" />
<circle cx="311.75134623090236" cy="341.0003525296397" r="9" fill="#43a047" fill-opacity="0.7" />
<circle cx="279.3414564337945" cy="334.03882792396286" r="15" fill="#43a047" fill-opacity="0.7" />
<circle cx="307.40741335745656" cy="321.07546360431337" r="8" fill="#2e7d32" fill-opacity="0.7" />
<circle cx="325.5477712142497" cy="319.89893554328205" r="15" fill="#66bb6a" fill-opacity="0.7" />
<path d="M378,400 Q435.0469798657718,380 458.6766126185994,319.3233873814006" stroke="#5d4037" stroke-width="8" fill="none" stroke-linecap="round" stroke-opacity="1.0" />
<circle cx="459.23960351680836" cy="312.59515139412144" r="12" fill="#43a047" fill-opacity="0.7" />
<circle cx="458.4661475573954" cy="322.0709834293362" r="10" fill="#66bb6a" fill-opacity="0.7" />
<circle cx="470.173573878121" cy="306.5292058404132" r="12" fill="#a5d6a7" fill-opacity="0.7" />
<circle cx="487.5621243641121" cy="313.2849779234454" r="13" fill="#2e7d32" fill-opacity="0.7" />
<circle cx="455.217275124332" cy="310.7602476269491" r="8" fill="#66bb6a" fill-opacity="0.7" />
<circle cx="480.21055669422014" cy="334.80561874451325" r="12" fill="#66bb6a" fill-opacity="0.7" />
<circle cx="442.54354939842364" cy="351.9832633869554" r="9" fill="#43a047" fill-opacity="0.7" />
<circle cx="469.22244661610097" cy="309.82836475785933" r="14" fill="#66bb6a" fill-opacity="0.7" />
<circle cx="475.9496859873278" cy="345.6761986833575" r="9" fill="#2e7d32" fill-opacity="0.7" />
<circle cx="491.16162126155024" cy="331.3219730501048" r="11" fill="#43a047" fill-opacity="0.7" />
<path d="M378,385 Q321.4563758389262,365 287.6845077563967,316.9423950328053" stroke="#5d4037" stroke-width="8" fill="none" stroke-linecap="round" stroke-opacity="1.0" />
<circle cx="255.76786756319433" cy="346.4776633537515" r="14" fill="#66bb6a" fill-opacity="0.7" />
<circle cx="301.03950461962734" cy="348.67111504317785" r="15" fill="#a5d6a7" fill-opacity="0.7" />
<circle cx="266.2684224515878" cy="309.45756139313335" r="11" fill="#a5d6a7" fill-opacity="0.7" />
<circle cx="301.77044035414997" cy="291.59835310801805" r="9" fill="#43a047" fill-opacity="0.7" />
<circle cx="313.8745504926918" cy="302.8195056107535" r="13" fill="#2e7d32" fill-opacity="0.7" />
<circle cx="308.46039909520414" cy="351.69839077177244" r="13" fill="#43a047" fill-opacity="0.7" />
<circle cx="259.65638782244594" cy="345.4323223383044" r="8" fill="#43a047" fill-opacity="0.7" />
<circle cx="260.6043857229854" cy="323.937150164209" r="10" fill="#a5d6a7" fill-opacity="0.7" />
<circle cx="275.8537457238008" cy="309.638078341469" r="13" fill="#a5d6a7" fill-opacity="0.7" />
<circle cx="281.828971786865" cy="301.0494787502928" r="15" fill="#2e7d32" fill-opacity="0.7" />
<path d="M378,370 Q434.5436241610738,350 474.93469138812475,311.7557613272858" stroke="#5d4037" stroke-width="8" fill="none" stroke-linecap="round" stroke-opacity="1.0" />
<circle cx="454.5245164531776" cy="309.471577022619" r="13" fill="#43a047" fill-opacity="0.7" />
<circle cx="477.75306083210535" cy="298.2551326751605" r="13" fill="#43a047" fill-opacity="0.7" />
<circle cx="444.0135147720819" cy="291.3618715684062" r="12" fill="#66bb6a" fill-opacity="0.7" />
<circle cx="455.0288466196617" cy="293.4687692466333" r="12" fill="#43a047" fill-opacity="0.7" />
<circle cx="444.6362126341615" cy="279.40902311214666" r="16" fill="#2e7d32" fill-opacity="0.7" />
<circle cx="472.01818964006327" cy="315.26623172929766" r="15" fill="#2e7d32" fill-opacity="0.7" />
<circle cx="487.1766091282953" cy="284.4658526852596" r="12" fill="#66bb6a" fill-opacity="0.7" />
<circle cx="468.5858904107886" cy="299.2430269423515" r="14" fill="#66bb6a" fill-opacity="0.7" />
<circle cx="495.3179139703961" cy="340.30939634150906" r="16" fill="#2e7d32" fill-opacity="0.7" />
<circle cx="474.29589596794597" cy="336.2725561803456" r="14" fill="#a5d6a7" fill-opacity="0.7" />
<path d="M378,355 Q321.9597315436242,335 289.67933164273654,285.99633128900336" stroke="#5d4037" stroke-width="8" fill="none" stroke-linecap="round" stroke-opacity="1.0" />
<circle cx="257.1715593856286" cy="273.63892537108023" r="14" fill="#2e7d32" fill-opacity="0.7" />
<circle cx="263.1895151457291" cy="272.411914532504" r="16" fill="#43a047" fill-opacity="0.7" />
<circle cx="257.2129521144976" cy="296.7394989700166" r="8" fill="#a5d6a7" fill-opacity="0.7" />
<circle cx="258.96923097348326" cy="318.8074935602258" r="16" fill="#2e7d32" fill-opacity="0.7" />
<circle cx="321.70915309557057" cy="297.05256159100395" r="14" fill="#2e7d32" fill-opacity="0.7" />
<circle cx="291.0312943093795" cy="251.9702268908955" r="15" fill="#a5d6a7" fill-opacity="0.7" />
<circle cx="299.7363124714952" cy="306.283504399272" r="9" fill="#a5d6a7" fill-opacity="0.7" />
<circle cx="269.2708147322927" cy="280.87343346481174" r="10" fill="#a5d6a7" fill-opacity="0.7" />
<circle cx="321.43987990930054" cy="314.87762206313346" r="12" fill="#a5d6a7" fill-opacity="0.7" />
<circle cx="264.5014257677509" cy="261.1755959286935" r="11" fill="#a5d6a7" fill-opacity="0.7" />
<text x="400" y="580" font-family="Segoe UI, Helvetica, Arial, sans-serif" font-size="20" fill="#3e2723" text-anchor="middle" font-weight="bold">@prithwiraj84's Contribution Garden</text>
<text x="400" y="595" font-family="Segoe UI, Helvetica, Arial, sans-serif" font-size="14" fill="#5d4037" text-anchor="middle" font-weight="bold">Grown over 5 years</text></svg>