<svg xmlns="http://www.w3.org/2000/svg" width="800" height="600" viewBox="0 0 800 600">
        <defs>
            <linearGradient id="sky" x1="0%" y1="0%" x2="0%" y2="100%">
                <stop offset="0%" style="stop-color:#e0f7fa;stop-opacity:1" />
                <stop offset="100%" style="stop-color:#ffffff;stop-opacity:1" />
            </linearGradient>
            <filter id="glow" x="-20%" y="-20%" width="140%" height="140%">
                <feGaussianBlur stdDeviation="2" result="coloredBlur"/>
                <feMerge>
                    <feMergeNode in="coloredBlur"/>
                    <feMergeNode in="SourceGraphic"/>
                </feMerge>
            </filter>
        </defs>
        <rect width="100%" height="100%" fill="url(#sky)"/><path d="M0,550 Q400,530 800,550 L800,600 L0,600 Z" stroke="#4e342e" stroke-width="0" fill="#5d4037" stroke-linecap="round" stroke-opacity="1.0" />
<path d="M0,550 Q400,530 800,550" stroke="none" stroke-width="0" fill="#76ff03" stroke-linecap="round" stroke-opacity="0.1" />
<path d="M400,550 Q404.0,470.0 408,390" stroke="#4e342e" stroke-width="35" fill="none" stroke-linecap="round" stroke-opacity="1.0" />
<path d="M408,430 Q486.8461538461538,410 484.45074780807624,292.07920002801836" stroke="#5d4037" stroke-width="8" fill="none" stroke-linecap="round" stroke-opacity="1.0" />
<circle cx="509.36399606081693" cy="297.7977896643531" r="8" fill="#66bb6a" fill-opacity="0.7" />
<circle cx="463.3742808352634" cy="319.0607656830191" r="16" fill="#66bb6a" fill-opacity="0.7" />
<circle cx="464.79132372840917" cy="289.1204301254192" r="14" fill="#2e7d32" fill-opacity="0.7" />
<circle cx="456.09673613387673" cy="276.1065682322833" r="14" fill="#43a047" fill-opacity="0.7" />
<circle cx="488.47712330839244" cy="270.6613173062477" r="13" fill="#66bb6a" fill-opacity="0.7" />
<circle cx="504.2149647304308" cy="304.0157243183233" r="9" fill="#a5d6a7" fill-opacity="0.7" />
<circle cx="470.0083045876924" cy="293.72016101950953" r="9" fill="#66bb6a" fill-opacity="0.7" />
<circle cx="489.79687808984784" cy="310.3653710039435" r="13" fill="#a5d6a7" fill-opacity="0.7" />
<circle cx="509.8996115663768" cy="296.38778288906184" r="14" fill="#43a047" fill-opacity="0.7" />
<circle cx="516.4963815659167" cy="318.18741933168855" r="9" fill="#a5d6a7" fill-opacity="0.7" />
<path d="M408,415 Q340.6923076923077,395 293.83967936355805,343.6647144301455" stroke="#5d4037" stroke-width="8" fill="none" stroke-linecap="round" stroke-opacity="1.0" />
<circle cx="284.11564771343313" cy="330.1603232058451" r="12" fill="#2e7d32" fill-opacity="0.7" />
<circle cx="298.88467579145254" cy="353.50240660973566" r="8" fill="#2e7d32" fill-opacity="0.7" />
<circle cx="267.587676233742" cy="356.334749623056" r="14" fill="#43a047" fill-opacity="0.7" />
<circle cx="327.9949600007343" cy="322.68604405667753" r="14" fill="#2e7d32" fill-opacity="0.7" />
<circle cx="276.63051962587116" cy="310.2444233934932" r="12" fill="#43a047" fill-opacity="0.7" />
<circle cx="321.1178780108904" cy="316.59302885135077" r="10" fill="#a5d6a7" fill-opacity="0.7" />
<circle cx="274.66848853936904" cy="371.5609800417451" r="14" fill="#43a047" fill-opacity="0.7" />
<circle cx="267.48607017299065" cy="309.8855501482604" r="13" fill="#66bb6a" fill-opacity="0.7" />
<circle cx="269.1169636372285" cy="337.81141290710633" r="13" fill="#43a047" fill-opacity="0.7" />
<circle cx="269.4958514093751" cy="337.270373863818" r="8" fill="#a5d6a7" fill-opacity="0.7" />
<path d="M408,400 Q466.3333333333333,380 511.0105525002081,345.2283176749794" stroke="#5d4037" stroke-width="8" fill="none" stroke-linecap="round" stroke-opacity="1.0" />
<circle cx="480.6827200418824" cy="342.84428400576417" r="11" fill="#2e7d32" fill-opacity="0.7" />
<circle cx="525.3131955201329" cy="337.0596991792467" r="8" fill="#2e7d32" fill-opacity="0.7" />
<circle cx="535.0535192800584" cy="352.3571406450669" r="10" fill="#2e7d32" fill-opacity="0.7" />
<circle cx="483.7876235273502" cy="334.2019150078126" r="13" fill="#2e7d32" fill-opacity="0.7" />
<circle cx="545.5983967217524" cy="327.8750604639566" r="14" fill="#a5d6a7" fill-opacity="0.7" />
<circle cx="515.2657294058207" cy="313.7271689619579" r="11" fill="#66bb6a" fill-opacity="0.7" />
<circle cx="518.6666770206551" cy="345.6971545426896" r="13" fill="#66bb6a" fill-opacity="0.7" />
<circle cx="544.7675721822325" cy="373.3200046011487" r="10" fill="#2e7d32" fill-opacity="0.7" />
<circle cx="491.0028357566138" cy="362.97791140273023" r="16" fill="#43a047" fill-opacity="0.7" />
<circle cx="522.3905849169367" cy="331.73276949711305" r="11" fill="#66bb6a" fill-opacity="0.7" />
<path d="M408,385 Q350.3076923076923,365 343.47774190722157,289.34181855134136" stroke="#5d4037" stroke-width="8" fill="none" stroke-linecap="round" stroke-opacity="1.0" />
<circle cx="359.7796227578143" cy="272.62914088361606" r="14" fill="#43a047" fill-opacity="0.7" />
<circle cx="309.7654184132574" cy="271.7946526879953" r="10" fill="#2e7d32" fill-opacity="0.7" />
<circle cx="351.05973997053724" cy="276.17331571452115" r="16" fill="#43a047" fill-opacity="0.7" />
<circle cx="319.9265528718233" cy="291.09901782484235" r="8" fill="#43a047" fill-opacity="0.7" />
<circle cx="335.4918292048805" cy="268.71823750593705" r="14" fill="#2e7d32" fill-opacity="0.7" />
<circle cx="372.1477908055266" cy="303.1961304919482" r="16" fill="#a5d6a7" fill-opacity="0.7" />
<circle cx="369.8368021095479" cy="254.9525444108835" r="8" fill="#a5d6a7" fill-opacity="0.7" />
<circle cx="349.73932891340894" cy="304.40222757514925" r="12" fill="#2e7d32" fill-opacity="0.7" />
<circle cx="311.0439178141178" cy="279.1602369652209" r="14" fill="#43a047" fill-opacity="0.7" />
<circle cx="368.7207594708325" cy="281.1961895407226" r="13" fill="#2e7d32" fill-opacity="0.7" />
<path d="M408,370 Q465.6923076923077,350 500.150251159303,300.5598050209175" stroke="#5d4037" stroke-width="8" fill="none" stroke-linecap="round" stroke-opacity="1.0" />
<circle cx="512.146493249206" cy="314.39096588642985" r="10" fill="#a5d6a7" fill-opacity="0.7" />
<circle cx="521.2633851617882" cy="321.1927738979123" r="9" fill="#a5d6a7" fill-opacity="0.7" />
<circle cx="473.3853864197704" cy="307.2476888426752" r="9" fill="#43a047" fill-opacity="0.7" />
<circle cx="514.335705211175" cy="307.2760367712624" r="15" fill="#43a047" fill-opacity="0.7" />
<circle cx="481.4550551890551" cy="322.2831686770044" r="16" fill="#66bb6a" fill-opacity="0.7" />
<circle cx="488.81706423642214" cy="275.2145179981725" r="10" fill="#2e7d32" fill-opacity="0.7" />
<circle cx="523.1338761129477" cy="333.07818658577685" r="13" fill="#2e7d32" fill-opacity="0.7" />
<circle cx="478.67685691242144" cy="315.2707845097947" r="8" fill="#43a047" fill-opacity="0.7" />
<circle cx="466.3817065964559" cy="332.04628229866546" r="8" fill="#66bb6a" fill-opacity="0.7" />
<circle cx="528.5254408177015" cy="309.4972691777833" r="15" fill="#66bb6a" fill-opacity="0.7" />
<path d="M408,355 Q352.87179487179486,335 347.9500551137278,262.53119379063276" stroke="#5d4037" stroke-width="8" fill="none" stroke-linecap="round" stroke-opacity="1.0" />
<circle cx="330.3860452482476" cy="281.3740389708437" r="13" fill="#2e7d32" fill-opacity="0.7" />
<circle cx="358.3265194813929" cy="279.5134186360321" r="14" fill="#66bb6a" fill-opacity="0.7" />
<circle cx="352.4440720322506" cy="281.62554998402663" r="9" fill="#66bb6a" fill-opacity="0.7" />
<circle cx="319.08729706123387" cy="248.57044583660345" r="14" fill="#a5d6a7" fill-opacity="0.7" />
<circle cx="323.222806395988" cy="283.7431815399741" r="12" fill="#2e7d32" fill-opacity="0.7" />
<circle cx="369.7779378570272" cy="247.8124830294589" r="15" fill="#2e7d32" fill-opacity="0.7" />
<circle cx="350.6042620826109" cy="262.4343285055138" r="10" fill="#43a047" fill-opacity="0.7" />
<circle cx="364.066065558733" cy="256.0310505902098" r="8" fill="#2e7d32" fill-opacity="0.7" />
<circle cx="351.5270680690729" cy="239.7803551604421" r="9" fill="#2e7d32" fill-opacity="0.7" />
<circle cx="313.0200198819846" cy="257.3990088943957" r="12" fill="#43a047" fill-opacity="0.7" />
<text x="400" y="580" font-family="Segoe UI, Helvetica, Arial, sans-serif" font-size="20" fill="#3e2723" text-anchor="middle" font-weight="bold">@prithwiraj84's Contribution Garden</text>
<text x="400" y="595" font-family="Segoe UI, Helvetica, Arial, sans-serif" font-size="14" fill="#5d4037" text-anchor="middle" font-weight="bold">Grown over 5 years</text></svg>