<svg xmlns="http://www.w3.org/2000/svg" width="800" height="600" viewBox="0 0 800 600">
        <defs>
            <linearGradient id="sky" x1="0%" y1="0%" x2="0%" y2="100%">
                <stop offset="0%" style="stop-color:#e0f7fa;stop-opacity:1" />
                <stop offset="100%" style="stop-color:#ffffff;stop-opacity:1" />
            </linearGradient>
            <filter id="glow" x="-20%" y="-20%" width="140%" height="140%">
                <feGaussianBlur stdDeviation="2" result="coloredBlur"/>
                <feMerge>
                    <feMergeNode in="coloredBlur"/>
                    <feMergeNode in="SourceGraphic"/>
                </feMerge>
            </filter>
        </defs>
        <rect width="100%" height="100%" fill="url(#sky)"/><path d="M0,550 Q400,530 800,550 L800,600 L0,600 Z" stroke="#4e342e" stroke-width="0" fill="#5d4037" stroke-linecap="round" stroke-opacity="1.0" />
<path d="M0,550 Q400,530 800,550" stroke="none" stroke-width="0" fill="#76ff03" stroke-linecap="round" stroke-opacity="0.1" />
<path d="M400,550 Q406.0,470.0 412,390" stroke="#4e342e" stroke-width="35" fill="none" stroke-linecap="round" stroke-opacity="1.0" />
<path d="M412,430 Q500.38235294117646,410 541.2775219626827,309.4467604713054" stroke="#5d4037" stroke-width="8" fill="none" stroke-linecap="round" stroke-opacity="1.0" />
<circle cx="547.3324292155105" cy="323.34596997609907" r="13" fill="#a5d6a7" fill-opacity="0.7" />
<circle cx="565.2867050815104" cy="320.15881109211597" r="14" fill="#66bb6a" fill-opacity="0.7" />
<circle cx="529.6831840270601" cy="335.24560760474606" r="15" fill="#2e7d32" fill-opacity="0.7" />
<circle cx="555.0666758302543" cy="324.90297303247314" r="15" fill="#66bb6a" fill-opacity="0.7" />
<circle cx="526.2911434137458" cy="302.720736839755" r="10" fill="#a5d6a7" fill-opacity="0.7" />
<circle cx="558.3912681875074" cy="316.1770706720879" r="8" fill="#66bb6a" fill-opacity="0.7" />
<circle cx="516.5851120623165" cy="303.79940358060355" r="16" fill="#43a047" fill-opacity="0.7" />
<circle cx="569.7341006675773" cy="299.35397273555606" r="15" fill="#2e7d32" fill-opacity="0.7" />
<circle cx="547.3497178050658" cy="344.4370880181475" r="16" fill="#2e7d32" fill-opacity="0.7" />
<circle cx="519.8297818121332" cy="275.5291140493612" r="13" fill="#43a047" fill-opacity="0.7" />
<circle cx="506.9160407093984" cy="317.6602574409579" r="8" fill="#43a047" fill-opacity="0.7" />
<circle cx="556.598921284719" cy="313.8205160384585" r="16" fill="#43a047" fill-opacity="0.7" />
<circle cx="554.1920119749283" cy="286.34977043094835" r="14" fill="#43a047" fill-opacity="0.7" />
<circle cx="547.3171306965148" cy="312.6539607669905" r="16" fill="#43a047" fill-opacity="0.7" />
<circle cx="545.0381581239635" cy="314.44702024598973" r="16" fill="#43a047" fill-opacity="0.7" />
<circle cx="527.1052259315685" cy="336.5486317927554" r="14" fill="#43a047" fill-opacity="0.7" />
<circle cx="522.651867189484" cy="320.42702419957595" r="13" fill="#2e7d32" fill-opacity="0.7" />
<path d="M412,415 Q348.3235294117647,395 352.21141568050274,302.5540271447308" stroke="#5d4037" stroke-width="8" fill="none" stroke-linecap="round" stroke-opacity="1.0" />
<circle cx="375.94481779698356" cy="279.4512749537237" r="10" fill="#a5d6a7" fill-opacity="0.7" />
<circle cx="349.9340982775319" cy="281.5520414235556" r="16" fill="#43a047" fill-opacity="0.7" />
<circle cx="357.756164392495" cy="272.3193316619701" r="8" fill="#66bb6a" fill-opacity="0.7" />
<circle cx="363.75915230710325" cy="322.40084975823675" r="13" fill="#2e7d32" fill-opacity="0.7" />
<circle cx="364.1594197802258" cy="333.1777532531826" r="11" fill="#2e7d32" fill-opacity="0.7" />
<circle cx="371.92892917915395" cy="309.39874853039" r="8" fill="#2e7d32" fill-opacity="0.7" />
<circle cx="349.1469497337341" cy="326.7215031102022" r="13" fill="#66bb6a" fill-opacity="0.7" />
<circle cx="378.00070299170545" cy="290.6002095503153" r="9" fill="#2e7d32" fill-opacity="0.7" />
<circle cx="323.0885043786123" cy="279.8019458954751" r="11" fill="#43a047" fill-opacity="0.7" />
<circle cx="353.1439752976664" cy="280.909421616516" r="8" fill="#66bb6a" fill-opacity="0.7" />
<path d="M412,400 Q468.1764705882353,380 491.44552659213565,320.55447340786435" stroke="#5d4037" stroke-width="8" fill="none" stroke-linecap="round" stroke-opacity="1.0" />
<circle cx="507.7111035871426" cy="338.0679515583913" r="12" fill="#43a047" fill-opacity="0.7" />
<circle cx="478.6994669381148" cy="316.0620280338226" r="13" fill="#66bb6a" fill-opacity="0.7" />
<circle cx="496.195815469183" cy="293.2025436400879" r="12" fill="#43a047" fill-opacity="0.7" />
<circle cx="476.1801429116709" cy="301.9188700561692" r="12" fill="#a5d6a7" fill-opacity="0.7" />
<circle cx="525.9216578976796" cy="324.5497391366802" r="8" fill="#43a047" fill-opacity="0.7" />
<circle cx="503.92743949316264" cy="342.9888481000131" r="9" fill="#a5d6a7" fill-opacity="0.7" />
<circle cx="500.7992938423121" cy="303.63451357605885" r="15" fill="#66bb6a" fill-opacity="0.7" />
<circle cx="468.09338252008865" cy="337.82293782940997" r="9" fill="#43a047" fill-opacity="0.7" />
<circle cx="466.86298572114805" cy="344.27534029574855" r="9" fill="#a5d6a7" fill-opacity="0.7" />
<circle cx="506.14606570900156" cy="316.99709924869194" r="9" fill="#2e7d32" fill-opacity="0.7" />
<circle cx="475.34129750632115" cy="327.89747735448697" r="5" fill="#ffeb3b" fill-opacity="1.0" />
<circle cx="475.34129750632115" cy="327.89747735448697" r="9" fill="#ffeb3b" fill-opacity="0.3" />
<path d="M412,385 Q356.2647058823529,365 348.06309724204516,293.6886397689624" stroke="#5d4037" stroke-width="8" fill="none" stroke-linecap="round" stroke-opacity="1.0" />
<circle cx="354.81743411010706" cy="325.3619212645542" r="16" fill="#43a047" fill-opacity="0.7" />
<circle cx="364.10369811028346" cy="319.495805684592" r="14" fill="#66bb6a" fill-opacity="0.7" />
<circle cx="335.6166003755388" cy="274.3016323765667" r="12" fill="#a5d6a7" fill-opacity="0.7" />
<circle cx="356.10599022205673" cy="314.78836214394715" r="8" fill="#a5d6a7" fill-opacity="0.7" />
<circle cx="336.78139939373773" cy="276.5904265901132" r="16" fill="#66bb6a" fill-opacity="0.7" />
<circle cx="369.0418403976331" cy="327.9436304386933" r="10" fill="#a5d6a7" fill-opacity="0.7" />
<circle cx="374.20054849610125" cy="302.8153868085692" r="11" fill="#43a047" fill-opacity="0.7" />
<circle cx="314.7102535939609" cy="296.1766803845004" r="11" fill="#43a047" fill-opacity="0.7" />
<circle cx="364.90532551313515" cy="291.0650918846849" r="13" fill="#2e7d32" fill-opacity="0.7" />
<circle cx="356.0952483761896" cy="299.58916812232724" r="11" fill="#a5d6a7" fill-opacity="0.7" />
<path d="M412,370 Q467.7352941176471,350 485.1312858786477,285.8720791457557" stroke="#5d4037" stroke-width="8" fill="none" stroke-linecap="round" stroke-opacity="1.0" />
<circle cx="480.4908760693476" cy="278.52978867299504" r="12" fill="#66bb6a" fill-opacity="0.7" />
<circle cx="473.6466054180403" cy="267.5647582775479" r="16" fill="#66bb6a" fill-opacity="0.7" />
<circle cx="471.91137587865614" cy="307.94791791668285" r="13" fill="#2e7d32" fill-opacity="0.7" />
<circle cx="454.66559437155456" cy="307.24832751614224" r="9" fill="#43a047" fill-opacity="0.7" />
<circle cx="471.68550595838445" cy="308.1718666744947" r="11" fill="#2e7d32" fill-opacity="0.7" />
<circle cx="505.9254628607492" cy="283.13930815245845" r="15" fill="#66bb6a" fill-opacity="0.7" />
<circle cx="518.0811796547447" cy="302.23372160411077" r="14" fill="#43a047" fill-opacity="0.7" />
<circle cx="474.46246941191873" cy="298.4647919249087" r="11" fill="#43a047" fill-opacity="0.7" />
<circle cx="485.00532122821465" cy="305.30196543256227" r="11" fill="#66bb6a" fill-opacity="0.7" />
<circle cx="507.8068782211461" cy="311.9930524572043" r="12" fill="#43a047" fill-opacity="0.7" />
<path d="M412,355 Q356.70588235294116,335 343.9150839051625,267.85528136584486" stroke="#5d4037" stroke-width="8" fill="none" stroke-linecap="round" stroke-opacity="1.0" />
<circle cx="342.21034055060164" cy="265.9162122709777" r="9" fill="#a5d6a7" fill-opacity="0.7" />
<circle cx="345.7329542461345" cy="276.60409771891466" r="13" fill="#a5d6a7" fill-opacity="0.7" />
<circle cx="328.3429463142985" cy="244.9489930014074" r="16" fill="#43a047" fill-opacity="0.7" />
<circle cx="373.23589032237976" cy="244.10407023179724" r="15" fill="#2e7d32" fill-opacity="0.7" />
<circle cx="332.5414614142608" cy="301.37021783896904" r="14" fill="#2e7d32" fill-opacity="0.7" />
<circle cx="309.9212657074047" cy="280.99423994600596" r="12" fill="#2e7d32" fill-opacity="0.7" />
<circle cx="376.2835321578829" cy="246.13753632510907" r="15" fill="#a5d6a7" fill-opacity="0.7" />
<circle cx="360.1466695516374" cy="237.57954286273366" r="9" fill="#43a047" fill-opacity="0.7" />
<circle cx="315.38833960440326" cy="287.65926062430583" r="9" fill="#2e7d32" fill-opacity="0.7" />
<circle cx="347.9789927600177" cy="295.181559575189" r="12" fill="#43a047" fill-opacity="0.7" />
<text x="400" y="580" font-family="Segoe UI, Helvetica, Arial, sans-serif" font-size="20" fill="#3e2723" text-anchor="middle" font-weight="bold">@prithwiraj84's Contribution Garden</text>
<text x="400" y="595" font-family="Segoe UI, Helvetica, Arial, sans-serif" font-size="14" fill="#5d4037" text-anchor="middle" font-weight="bold">Grown over 5 years</text></svg>