<svg xmlns="http://www.w3.org/2000/svg" width="800" height="600" viewBox="0 0 800 600">
        <defs>
            <linearGradient id="sky" x1="0%" y1="0%" x2="0%" y2="100%">
                <stop offset="0%" style="stop-color:#e0f7fa;stop-opacity:1" />
                <stop offset="100%" style="stop-color:#ffffff;stop-opacity:1" />
            </linearGradient>
            <filter id="glow" x="-20%" y="-20%" width="140%" height="140%">
                <feGaussianBlur stdDeviation="2" result="coloredBlur"/>
                <feMerge>
                    <feMergeNode in="coloredBlur"/>
                    <feMergeNode in="SourceGraphic"/>
                </feMerge>
            </filter>
        </defs>
        <rect width="100%" height="100%" fill="url(#sky)"/><path d="M0,550 Q400,530 800,550 L800,600 L0,600 Z" stroke="#4e342e" stroke-width="0" fill="#5d4037" stroke-linecap="round" stroke-opacity="1.0" />
<path d="M0,550 Q400,530 800,550" stroke="none" stroke-width="0" fill="#76ff03" stroke-linecap="round" stroke-opacity="0.1" />
<path d="M400,550 Q386.0,470.0 372,390" stroke="#4e342e" stroke-width="35" fill="none" stroke-linecap="round" stroke-opacity="1.0" />
<path d="M372,430 Q449.4193548387097,410 449.4193548387097,295.9057439301514" stroke="#5d4037" stroke-width="8" fill="none" stroke-linecap="round" stroke-opacity="1.0" />
<circle cx="462.14824781118386" cy="266.15724183763143" r="12" fill="#43a047" fill-opacity="0.7" />
<circle cx="438.7518534319348" cy="314.0539666027564" r="10" fill="#66bb6a" fill-opacity="0.7" />
<circle cx="462.8103864850917" cy="290.19847210118286" r="15" fill="#a5d6a7" fill-opacity="0.7" />
<circle cx="470.5482350679284" cy="303.78368689393545" r="12" fill="#66bb6a" fill-opacity="0.7" />
<circle cx="483.8857176329999" cy="326.5834649833569" r="9" fill="#43a047" fill-opacity="0.7" />
<circle cx="475.8484593078629" cy="289.6847181480086" r="9" fill="#a5d6a7" fill-opacity="0.7" />
<circle cx="429.2927430709935" cy="304.17759678035253" r="13" fill="#66bb6a" fill-opacity="0.7" />
<circle cx="461.0586090762154" cy="329.9087109957163" r="15" fill="#66bb6a" fill-opacity="0.7" />
<circle cx="478.6032823745165" cy="262.4827337574063" r="15" fill="#a5d6a7" fill-opacity="0.7" />
<circle cx="448.1992399932856" cy="279.3352121439445" r="8" fill="#2e7d32" fill-opacity="0.7" />
<path d="M372,415 Q304.258064516129,395 306.3161159666253,296.50313645208183" stroke="#5d4037" stroke-width="8" fill="none" stroke-linecap="round" stroke-opacity="1.0" />
<circle cx="273.8230991298387" cy="268.8464107081281" r="14" fill="#a5d6a7" fill-opacity="0.7" />
<circle cx="328.4852336335265" cy="311.4588314001164" r="12" fill="#2e7d32" fill-opacity="0.7" />
<circle cx="291.62322549343736" cy="326.92808090914116" r="12" fill="#a5d6a7" fill-opacity="0.7" />
<circle cx="291.44546781992176" cy="271.15841429180506" r="13" fill="#a5d6a7" fill-opacity="0.7" />
<circle cx="334.123058211332" cy="293.50198104720846" r="13" fill="#a5d6a7" fill-opacity="0.7" />
<circle cx="326.8506067784096" cy="292.5537208418849" r="9" fill="#a5d6a7" fill-opacity="0.7" />
<circle cx="277.2032293193417" cy="288.42408461475725" r="10" fill="#66bb6a" fill-opacity="0.7" />
<circle cx="331.08733805274517" cy="283.4423829137363" r="11" fill="#a5d6a7" fill-opacity="0.7" />
<circle cx="323.74534217262516" cy="308.3801184865944" r="14" fill="#66bb6a" fill-opacity="0.7" />
<circle cx="327.30152011589075" cy="300.87419025273255" r="9" fill="#a5d6a7" fill-opacity="0.7" />
<path d="M372,400 Q432.48387096774195,380 439.64430283920325,299.7131968683417" stroke="#5d4037" stroke-width="8" fill="none" stroke-linecap="round" stroke-opacity="1.0" />
<circle cx="405.81422241347593" cy="305.91664775929655" r="11" fill="#66bb6a" fill-opacity="0.7" />
<circle cx="440.5251309842349" cy="267.28974763246515" r="14" fill="#43a047" fill-opacity="0.7" />
<circle cx="450.6196352213158" cy="284.6045349556704" r="11" fill="#43a047" fill-opacity="0.7" />
<circle cx="421.0522183510111" cy="283.5881365493551" r="12" fill="#a5d6a7" fill-opacity="0.7" />
<circle cx="438.5365553130504" cy="301.4140389091623" r="11" fill="#2e7d32" fill-opacity="0.7" />
<circle cx="468.45678515836653" cy="300.905580818189" r="8" fill="#43a047" fill-opacity="0.7" />
<circle cx="406.02773999916803" cy="316.6895023710589" r="14" fill="#43a047" fill-opacity="0.7" />
<circle cx="471.1689596824566" cy="298.66144883262797" r="10" fill="#2e7d32" fill-opacity="0.7" />
<circle cx="410.97439939431877" cy="275.7055117768978" r="8" fill="#66bb6a" fill-opacity="0.7" />
<circle cx="415.6492241222292" cy="327.2394866278994" r="9" fill="#66bb6a" fill-opacity="0.7" />
<path d="M372,385 Q312.3225806451613,365 293.6961804108104,294.92175977986267" stroke="#5d4037" stroke-width="8" fill="none" stroke-linecap="round" stroke-opacity="1.0" />
<circle cx="321.9297722595496" cy="271.7752274299057" r="8" fill="#66bb6a" fill-opacity="0.7" />
<circle cx="261.82642366105097" cy="290.9174687194523" r="11" fill="#a5d6a7" fill-opacity="0.7" />
<circle cx="297.5651526765847" cy="276.5093379699614" r="16" fill="#a5d6a7" fill-opacity="0.7" />
<circle cx="296.28662398203716" cy="318.19994283438416" r="15" fill="#66bb6a" fill-opacity="0.7" />
<circle cx="319.7581421491034" cy="259.92632580645073" r="8" fill="#43a047" fill-opacity="0.7" />
<circle cx="280.06538391228617" cy="327.08663251520215" r="16" fill="#a5d6a7" fill-opacity="0.7" />
<circle cx="280.1192781080278" cy="262.66161330439854" r="11" fill="#66bb6a" fill-opacity="0.7" />
<circle cx="304.8836493584864" cy="278.1896156946974" r="15" fill="#a5d6a7" fill-opacity="0.7" />
<circle cx="301.12453844275905" cy="269.9898979523715" r="13" fill="#a5d6a7" fill-opacity="0.7" />
<circle cx="262.6615113191391" cy="267.5861455947229" r="16" fill="#a5d6a7" fill-opacity="0.7" />
<path d="M372,370 Q428.4516129032258,350 436.758629910602,277.5150917738235" stroke="#5d4037" stroke-width="8" fill="none" stroke-linecap="round" stroke-opacity="1.0" />
<circle cx="452.89306183645704" cy="267.5625029750401" r="14" fill="#66bb6a" fill-opacity="0.7" />
<circle cx="456.7740193152912" cy="277.1247204459998" r="10" fill="#66bb6a" fill-opacity="0.7" />
<circle cx="415.20254681885524" cy="306.8918060983286" r="13" fill="#a5d6a7" fill-opacity="0.7" />
<circle cx="463.0769030286871" cy="267.24452420941424" r="10" fill="#a5d6a7" fill-opacity="0.7" />
<circle cx="443.5106257642635" cy="269.68673277498124" r="15" fill="#a5d6a7" fill-opacity="0.7" />
<circle cx="446.45297555704536" cy="300.7501927243554" r="9" fill="#66bb6a" fill-opacity="0.7" />
<circle cx="403.04007613983225" cy="255.65429399882086" r="16" fill="#66bb6a" fill-opacity="0.7" />
<circle cx="406.9937319242219" cy="281.87613606438555" r="15" fill="#a5d6a7" fill-opacity="0.7" />
<circle cx="466.74548850258776" cy="304.1223549588255" r="16" fill="#43a047" fill-opacity="0.7" />
<circle cx="436.3917536362198" cy="256.9522905821711" r="11" fill="#2e7d32" fill-opacity="0.7" />
<path d="M372,355 Q318.7741935483871,335 282.7221653477452,297.02229627259385" stroke="#5d4037" stroke-width="8" fill="none" stroke-linecap="round" stroke-opacity="1.0" />
<circle cx="276.669283571807" cy="268.2458424437284" r="15" fill="#66bb6a" fill-opacity="0.7" />
<circle cx="284.1500061878432" cy="305.90149148524176" r="15" fill="#66bb6a" fill-opacity="0.7" />
<circle cx="250.20326104709125" cy="272.6932155123383" r="8" fill="#a5d6a7" fill-opacity="0.7" />
<circle cx="283.51153897703693" cy="275.27289149795854" r="16" fill="#2e7d32" fill-opacity="0.7" />
<circle cx="255.00164963818435" cy="322.2808332668677" r="8" fill="#a5d6a7" fill-opacity="0.7" />
<circle cx="249.46558269447422" cy="324.41787115713333" r="11" fill="#a5d6a7" fill-opacity="0.7" />
<circle cx="286.75986431967266" cy="288.384992100015" r="9" fill="#a5d6a7" fill-opacity="0.7" />
<circle cx="303.8235800251042" cy="322.0046466271778" r="11" fill="#2e7d32" fill-opacity="0.7" />
<circle cx="296.64662664701757" cy="274.4745981939234" r="9" fill="#66bb6a" fill-opacity="0.7" />
<circle cx="292.793417657707" cy="281.3618622019546" r="10" fill="#43a047" fill-opacity="0.7" />
<text x="400" y="580" font-family="Segoe UI, Helvetica, Arial, sans-serif" font-size="20" fill="#3e2723" text-anchor="middle" font-weight="bold">@prithwiraj84's Contribution Garden</text>
<text x="400" y="595" font-family="Segoe UI, Helvetica, Arial, sans-serif" font-size="14" fill="#5d4037" text-anchor="middle" font-weight="bold">Grown over 5 years</text></svg>