<svg xmlns="http://www.w3.org/2000/svg" width="800" height="600" viewBox="0 0 800 600">
        <defs>
            <linearGradient id="sky" x1="0%" y1="0%" x2="0%" y2="100%">
                <stop offset="0%" style="stop-color:#e0f7fa;stop-opacity:1" />
                <stop offset="100%" style="stop-color:#ffffff;stop-opacity:1" />
            </linearGradient>
            <filter id="glow" x="-20%" y="-20%" width="140%" height="140%">
                <feGaussianBlur stdDeviation="2" result="coloredBlur"/>
                <feMerge>
                    <feMergeNode in="coloredBlur"/>
                    <feMergeNode in="SourceGraphic"/>
                </feMerge>
            </filter>
        </defs>
        <rect width="100%" height="100%" fill="url(#sky)"/><path d="M0,550 Q400,530 800,550 L800,600 L0,600 Z" stroke="#4e342e" stroke-width="0" fill="#5d4037" stroke-linecap="round" stroke-opacity="1.0" />
<path d="M0,550 Q400,530 800,550" stroke="none" stroke-width="0" fill="#76ff03" stroke-linecap="round" stroke-opacity="0.1" />
<path d="M400,550 Q401.0,470.0 402,390" stroke="#4e342e" stroke-width="35" fill="none" stroke-linecap="round" stroke-opacity="1.0" />
<path d="M402,430 Q490.695652173913,410 513.6359650210146,292.14106422850256" stroke="#5d4037" stroke-width="8" fill="none" stroke-linecap="round" stroke-opacity="1.0" />
<circle cx="483.72466603652776" cy="272.21464835026615" r="14" fill="#2e7d32" fill-opacity="0.7" />
<circle cx="543.2416923171302" cy="273.79451635837285" r="8" fill="#43a047" fill-opacity="0.7" />
<circle cx="511.4605581887194" cy="275.6298775212173" r="9" fill="#66bb6a" fill-opacity="0.7" />
<circle cx="532.6028955304009" cy="272.31389719602873" r="10" fill="#a5d6a7" fill-opacity="0.7" />
<circle cx="507.5115442129349" cy="280.4428336188281" r="10" fill="#43a047" fill-opacity="0.7" />
<circle cx="479.73948404330656" cy="297.849039197684" r="10" fill="#43a047" fill-opacity="0.7" />
<circle cx="493.30232814926825" cy="283.09619939042756" r="9" fill="#43a047" fill-opacity="0.7" />
<circle cx="524.6008705290178" cy="275.12295559942874" r="8" fill="#a5d6a7" fill-opacity="0.7" />
<circle cx="517.7868393806054" cy="273.760530083164" r="14" fill="#43a047" fill-opacity="0.7" />
<circle cx="513.8121141780708" cy="285.402565100393" r="8" fill="#43a047" fill-opacity="0.7" />
<circle cx="484.2589640406149" cy="268.2685909547914" r="10" fill="#66bb6a" fill-opacity="0.7" />
<circle cx="538.3219926272616" cy="313.2522138895823" r="12" fill="#a5d6a7" fill-opacity="0.7" />
<circle cx="485.2951297070302" cy="281.3200371051155" r="12" fill="#66bb6a" fill-opacity="0.7" />
<circle cx="480.0393342979887" cy="305.90436792093914" r="9" fill="#a5d6a7" fill-opacity="0.7" />
<circle cx="516.874433458028" cy="272.6057275854495" r="11" fill="#66bb6a" fill-opacity="0.7" />
<circle cx="487.8744336667852" cy="324.78238895727" r="16" fill="#a5d6a7" fill-opacity="0.7" />
<circle cx="514.0483649282119" cy="272.25715853788745" r="16" fill="#66bb6a" fill-opacity="0.7" />
<circle cx="508.370193753776" cy="267.46854692487284" r="15" fill="#a5d6a7" fill-opacity="0.7" />
<circle cx="548.4271026962662" cy="310.1690058505616" r="13" fill="#a5d6a7" fill-opacity="0.7" />
<circle cx="492.0892705282321" cy="326.7898560283483" r="14" fill="#66bb6a" fill-opacity="0.7" />
<circle cx="512.0672677961724" cy="270.07497867055895" r="9" fill="#a5d6a7" fill-opacity="0.7" />
<circle cx="503.0686825727176" cy="324.7815698832903" r="14" fill="#43a047" fill-opacity="0.7" />
<circle cx="482.1165952430506" cy="260.87583945333563" r="10" fill="#66bb6a" fill-opacity="0.7" />
<circle cx="495.7135717540514" cy="261.72791154694886" r="10" fill="#43a047" fill-opacity="0.7" />
<circle cx="535.5105211857751" cy="284.6885588389312" r="15" fill="#66bb6a" fill-opacity="0.7" />
<circle cx="480.62478152371943" cy="259.15606119479037" r="14" fill="#2e7d32" fill-opacity="0.7" />
<circle cx="531.6107738204793" cy="267.5283085680768" r="13" fill="#2e7d32" fill-opacity="0.7" />
<circle cx="541.4770308385015" cy="295.5945818311276" r="8" fill="#2e7d32" fill-opacity="0.7" />
<circle cx="537.7425593447156" cy="287.64465330994324" r="9" fill="#a5d6a7" fill-opacity="0.7" />
<circle cx="547.3236011095427" cy="276.52824978485575" r="14" fill="#66bb6a" fill-opacity="0.7" />
<circle cx="479.61557617639795" cy="302.65981079199986" r="16" fill="#66bb6a" fill-opacity="0.7" />
<circle cx="478.76023749818484" cy="282.80365401241494" r="9" fill="#43a047" fill-opacity="0.7" />
<circle cx="503.98238257186307" cy="303.3856245457086" r="16" fill="#66bb6a" fill-opacity="0.7" />
<circle cx="519.9588408770828" cy="325.75440854573276" r="13" fill="#2e7d32" fill-opacity="0.7" />
<circle cx="523.1263210644194" cy="272.7179700987486" r="16" fill="#66bb6a" fill-opacity="0.7" />
<circle cx="505.49053078364705" cy="309.0051457871508" r="5" fill="#ffeb3b" fill-opacity="1.0" />
<circle cx="505.49053078364705" cy="309.0051457871508" r="9" fill="#ffeb3b" fill-opacity="0.3" />
<path d="M402,415 Q339.39130434782606,395 345.1524939456568,303.4304874059783" stroke="#5d4037" stroke-width="8" fill="none" stroke-linecap="round" stroke-opacity="1.0" />
<circle cx="367.47971600224116" cy="329.8647324619979" r="11" fill="#a5d6a7" fill-opacity="0.7" />
<circle cx="347.31624272524164" cy="306.3302768853284" r="14" fill="#66bb6a" fill-opacity="0.7" />
<circle cx="358.3491442927506" cy="334.64445215451667" r="14" fill="#43a047" fill-opacity="0.7" />
<circle cx="315.74605517702634" cy="270.7890853190981" r="16" fill="#a5d6a7" fill-opacity="0.7" />
<circle cx="328.7525947153457" cy="292.7650839919864" r="8" fill="#2e7d32" fill-opacity="0.7" />
<circle cx="374.08932558574855" cy="314.38063073685043" r="11" fill="#43a047" fill-opacity="0.7" />
<circle cx="380.0939459980037" cy="295.91612909044267" r="16" fill="#66bb6a" fill-opacity="0.7" />
<circle cx="333.3484655942255" cy="298.16835879261873" r="13" fill="#2e7d32" fill-opacity="0.7" />
<circle cx="375.8239332194721" cy="294.9971851211328" r="10" fill="#43a047" fill-opacity="0.7" />
<circle cx="366.0195203632226" cy="282.6018154158862" r="12" fill="#2e7d32" fill-opacity="0.7" />
<circle cx="339.56173084643257" cy="316.56356347800454" r="16" fill="#a5d6a7" fill-opacity="0.7" />
<circle cx="329.19086590447677" cy="295.62281872989325" r="5" fill="#ffeb3b" fill-opacity="1.0" />
<circle cx="329.19086590447677" cy="295.62281872989325" r="9" fill="#ffeb3b" fill-opacity="0.3" />
<path d="M402,400 Q462.8695652173913,380 468.3038825235685,297.9009743370788" stroke="#5d4037" stroke-width="8" fill="none" stroke-linecap="round" stroke-opacity="1.0" />
<circle cx="492.3778262035191" cy="311.3893152755727" r="15" fill="#2e7d32" fill-opacity="0.7" />
<circle cx="472.8425251561181" cy="325.9693065396168" r="14" fill="#43a047" fill-opacity="0.7" />
<circle cx="461.5411536226483" cy="288.75250944138116" r="13" fill="#66bb6a" fill-opacity="0.7" />
<circle cx="455.8956695952595" cy="266.7275197015747" r="15" fill="#2e7d32" fill-opacity="0.7" />
<circle cx="433.44634824187176" cy="280.0781687463836" r="15" fill="#a5d6a7" fill-opacity="0.7" />
<circle cx="455.34346617432556" cy="269.18703582858853" r="15" fill="#66bb6a" fill-opacity="0.7" />
<circle cx="496.84710855001754" cy="275.25992582251916" r="8" fill="#43a047" fill-opacity="0.7" />
<circle cx="484.193889275764" cy="298.290810737465" r="13" fill="#a5d6a7" fill-opacity="0.7" />
<circle cx="462.2607467128555" cy="305.2756860021868" r="13" fill="#2e7d32" fill-opacity="0.7" />
<circle cx="487.00162246915687" cy="282.82262593073" r="14" fill="#2e7d32" fill-opacity="0.7" />
<circle cx="451.61239222708446" cy="294.4961225379754" r="5" fill="#ffeb3b" fill-opacity="1.0" />
<circle cx="451.61239222708446" cy="294.4961225379754" r="9" fill="#ffeb3b" fill-opacity="0.3" />
<path d="M402,385 Q346.5652173913044,365 315.8381651428141,315.22752186186585" stroke="#5d4037" stroke-width="8" fill="none" stroke-linecap="round" stroke-opacity="1.0" />
<circle cx="323.95760052566044" cy="348.219495580807" r="10" fill="#43a047" fill-opacity="0.7" />
<circle cx="291.0280322807604" cy="285.53712388384827" r="10" fill="#43a047" fill-opacity="0.7" />
<circle cx="349.8509895156665" cy="295.90709023708183" r="10" fill="#43a047" fill-opacity="0.7" />
<circle cx="294.7945169939186" cy="349.7278078196895" r="15" fill="#a5d6a7" fill-opacity="0.7" />
<circle cx="287.9664698960267" cy="300.8726062569248" r="10" fill="#43a047" fill-opacity="0.7" />
<circle cx="333.3390378372547" cy="322.42339921090985" r="9" fill="#66bb6a" fill-opacity="0.7" />
<circle cx="315.51858568667586" cy="297.2557314824162" r="9" fill="#a5d6a7" fill-opacity="0.7" />
<circle cx="316.2129253589511" cy="326.3387957974777" r="9" fill="#a5d6a7" fill-opacity="0.7" />
<circle cx="349.86471156278697" cy="282.6913899216611" r="14" fill="#43a047" fill-opacity="0.7" />
<circle cx="283.04606326742964" cy="335.65374500467277" r="11" fill="#66bb6a" fill-opacity="0.7" />
<circle cx="308.9265143977885" cy="309.8008632018481" r="5" fill="#ffeb3b" fill-opacity="1.0" />
<circle cx="308.9265143977885" cy="309.8008632018481" r="9" fill="#ffeb3b" fill-opacity="0.3" />
<path d="M402,370 Q455.69565217391306,350 489.96980649538307,308.4028783570833" stroke="#5d4037" stroke-width="8" fill="none" stroke-linecap="round" stroke-opacity="1.0" />
<circle cx="508.5633419116119" cy="341.7800227553944" r="15" fill="#a5d6a7" fill-opacity="0.7" />
<circle cx="459.1753920738747" cy="332.5281857190295" r="11" fill="#a5d6a7" fill-opacity="0.7" />
<circle cx="509.8856689827893" cy="337.6466075545123" r="15" fill="#2e7d32" fill-opacity="0.7" />
<circle cx="466.8056251997204" cy="285.15374291103797" r="15" fill="#66bb6a" fill-opacity="0.7" />
<circle cx="503.25786151410483" cy="323.0770765690365" r="13" fill="#2e7d32" fill-opacity="0.7" />
<circle cx="495.0975884934307" cy="333.17156334565897" r="16" fill="#43a047" fill-opacity="0.7" />
<circle cx="458.1623242496463" cy="303.0261825205315" r="10" fill="#66bb6a" fill-opacity="0.7" />
<circle cx="494.3811928647109" cy="292.71726879306374" r="8" fill="#66bb6a" fill-opacity="0.7" />
<circle cx="503.4775039160352" cy="340.55041010344706" r="12" fill="#43a047" fill-opacity="0.7" />
<circle cx="505.1972290688525" cy="338.2039123042001" r="10" fill="#43a047" fill-opacity="0.7" />
<circle cx="498.26443886696416" cy="312.00756447171807" r="5" fill="#ffeb3b" fill-opacity="1.0" />
<circle cx="498.26443886696416" cy="312.00756447171807" r="9" fill="#ffeb3b" fill-opacity="0.3" />
<path d="M402,355 Q348.30434782608694,335 356.61447363045534,257.67042460954235" stroke="#5d4037" stroke-width="8" fill="none" stroke-linecap="round" stroke-opacity="1.0" />
<circle cx="333.52122734088863" cy="275.43586247045585" r="15" fill="#a5d6a7" fill-opacity="0.7" />
<circle cx="352.87159761993667" cy="237.18884717183914" r="16" fill="#a5d6a7" fill-opacity="0.7" />
<circle cx="362.8480540193482" cy="288.8944675124536" r="15" fill="#66bb6a" fill-opacity="0.7" />
<circle cx="329.7034632661789" cy="267.3605895809627" r="12" fill="#66bb6a" fill-opacity="0.7" />
<circle cx="353.2379586878808" cy="263.7636761442894" r="13" fill="#a5d6a7" fill-opacity="0.7" />
<circle cx="371.8242706906763" cy="226.53630409133945" r="10" fill="#a5d6a7" fill-opacity="0.7" />
<circle cx="368.05979294371" cy="234.4657661249635" r="11" fill="#2e7d32" fill-opacity="0.7" />
<circle cx="344.7452891164248" cy="274.1195482298427" r="15" fill="#2e7d32" fill-opacity="0.7" />
<circle cx="333.33728581771055" cy="241.85545348150092" r="9" fill="#66bb6a" fill-opacity="0.7" />
<circle cx="333.54558271143316" cy="289.1246076083842" r="11" fill="#66bb6a" fill-opacity="0.7" />
<circle cx="344.56708040426804" cy="273.25224261534277" r="5" fill="#ffeb3b" fill-opacity="1.0" />
<circle cx="344.56708040426804" cy="273.25224261534277" r="9" fill="#ffeb3b" fill-opacity="0.3" />
<circle cx="346.0064775288151" cy="242.14987430061396" r="5" fill="#ffeb3b" fill-opacity="1.0" />
<circle cx="346.0064775288151" cy="242.14987430061396" r="9" fill="#ffeb3b" fill-opacity="0.3" />
<text x="400" y="580" font-family="Segoe UI, Helvetica, Arial, sans-serif" font-size="20" fill="#3e2723" text-anchor="middle" font-weight="bold">@prithwiraj84's Contribution Garden</text>
<text x="400" y="595" font-family="Segoe UI, Helvetica, Arial, sans-serif" font-size="14" fill="#5d4037" text-anchor="middle" font-weight="bold">Grown over 5 years</text></svg>