<svg xmlns="http://www.w3.org/2000/svg" width="800" height="600" viewBox="0 0 800 600">
        <defs>
            <linearGradient id="sky" x1="0%" y1="0%" x2="0%" y2="100%">
                <stop offset="0%" style="stop-color:#e0f7fa;stop-opacity:1" />
                <stop offset="100%" style="stop-color:#ffffff;stop-opacity:1" />
            </linearGradient>
            <filter id="glow" x="-20%" y="-20%" width="140%" height="140%">
                <feGaussianBlur stdDeviation="2" result="coloredBlur"/>
                <feMerge>
                    <feMergeNode in="coloredBlur"/>
                    <feMergeNode in="SourceGraphic"/>
                </feMerge>
            </filter>
        </defs>
        <rect width="100%" height="100%" fill="url(#sky)"/><path d="M0,550 Q400,530 800,550 L800,600 L0,600 Z" stroke="#4e342e" stroke-width="0" fill="#5d4037" stroke-linecap="round" stroke-opacity="1.0" />
<path d="M0,550 Q400,530 800,550" stroke="none" stroke-width="0" fill="#76ff03" stroke-linecap="round" stroke-opacity="0.1" />
<path d="M400,550 Q393.5,470.0 387,390" stroke="#4e342e" stroke-width="35" fill="none" stroke-linecap="round" stroke-opacity="1.0" />
<path d="M387,430 Q474.7358490566038,410 506.6714103505893,301.66812405550405" stroke="#5d4037" stroke-width="8" fill="none" stroke-linecap="round" stroke-opacity="1.0" />
<circle cx="511.64186109809754" cy="294.6088515244862" r="15" fill="#43a047" fill-opacity="0.7" />
<circle cx="475.4784919006592" cy="293.8629727472442" r="16" fill="#a5d6a7" fill-opacity="0.7" />
<circle cx="538.628126771524" cy="282.8456095212899" r="8" fill="#2e7d32" fill-opacity="0.7" />
<circle cx="490.56186973758946" cy="270.3825755217368" r="15" fill="#2e7d32" fill-opacity="0.7" />
<circle cx="503.1328198386646" cy="297.9333955679078" r="11" fill="#66bb6a" fill-opacity="0.7" />
<circle cx="492.89202247462265" cy="287.27210336714637" r="12" fill="#43a047" fill-opacity="0.7" />
<circle cx="489.9592661048387" cy="331.37484887951433" r="16" fill="#43a047" fill-opacity="0.7" />
<circle cx="503.4036442575522" cy="317.9667698369109" r="13" fill="#a5d6a7" fill-opacity="0.7" />
<circle cx="503.5629103267959" cy="319.03911981142585" r="12" fill="#43a047" fill-opacity="0.7" />
<circle cx="485.9232491740687" cy="322.52523264465077" r="13" fill="#2e7d32" fill-opacity="0.7" />
<circle cx="523.375725536227" cy="269.71048269590267" r="13" fill="#66bb6a" fill-opacity="0.7" />
<circle cx="518.2086553168964" cy="322.6462497612288" r="15" fill="#66bb6a" fill-opacity="0.7" />
<circle cx="508.5088317709697" cy="331.07250663207077" r="10" fill="#66bb6a" fill-opacity="0.7" />
<circle cx="498.7435347244572" cy="269.78695293401813" r="8" fill="#a5d6a7" fill-opacity="0.7" />
<circle cx="482.0977948022935" cy="283.2531647657313" r="10" fill="#2e7d32" fill-opacity="0.7" />
<circle cx="499.4802754599109" cy="282.8855474100302" r="12" fill="#66bb6a" fill-opacity="0.7" />
<path d="M387,415 Q324.2641509433962,395 303.0430465606338,321.7563568033081" stroke="#5d4037" stroke-width="8" fill="none" stroke-linecap="round" stroke-opacity="1.0" />
<circle cx="330.3763757075133" cy="287.6121043991786" r="16" fill="#66bb6a" fill-opacity="0.7" />
<circle cx="335.493975928464" cy="309.2184499831626" r="10" fill="#43a047" fill-opacity="0.7" />
<circle cx="271.9386704632493" cy="295.5014350718404" r="15" fill="#a5d6a7" fill-opacity="0.7" />
<circle cx="335.3526915883513" cy="296.03614977306904" r="8" fill="#a5d6a7" fill-opacity="0.7" />
<circle cx="300.00127761873324" cy="306.9131753341858" r="9" fill="#43a047" fill-opacity="0.7" />
<circle cx="277.1353131782634" cy="339.4553339967483" r="15" fill="#a5d6a7" fill-opacity="0.7" />
<circle cx="328.40310905085283" cy="347.1110733310932" r="9" fill="#43a047" fill-opacity="0.7" />
<circle cx="272.20046153691834" cy="302.9719921210161" r="8" fill="#43a047" fill-opacity="0.7" />
<circle cx="303.3202962259318" cy="333.86836369251637" r="10" fill="#a5d6a7" fill-opacity="0.7" />
<circle cx="281.2861111836233" cy="350.33276124319906" r="16" fill="#43a047" fill-opacity="0.7" />
<path d="M387,400 Q443.60377358490564,380 480.85331010057075,336.69514300331167" stroke="#5d4037" stroke-width="8" fill="none" stroke-linecap="round" stroke-opacity="1.0" />
<circle cx="494.66166877636834" cy="341.92734681174653" r="10" fill="#2e7d32" fill-opacity="0.7" />
<circle cx="508.5524580322669" cy="341.52861102234027" r="16" fill="#a5d6a7" fill-opacity="0.7" />
<circle cx="510.91536892829185" cy="359.5705851637588" r="12" fill="#2e7d32" fill-opacity="0.7" />
<circle cx="474.8952335729541" cy="365.0416595178279" r="16" fill="#66bb6a" fill-opacity="0.7" />
<circle cx="503.970380609334" cy="341.493679230562" r="9" fill="#a5d6a7" fill-opacity="0.7" />
<circle cx="469.6436349452023" cy="356.8151700973476" r="11" fill="#66bb6a" fill-opacity="0.7" />
<circle cx="505.696646300335" cy="334.58612140812187" r="15" fill="#2e7d32" fill-opacity="0.7" />
<circle cx="506.80369075335227" cy="318.53103048986173" r="16" fill="#43a047" fill-opacity="0.7" />
<circle cx="501.71199215475735" cy="354.29820704879666" r="13" fill="#66bb6a" fill-opacity="0.7" />
<circle cx="486.2533321376317" cy="320.5922743626172" r="15" fill="#a5d6a7" fill-opacity="0.7" />
<circle cx="472.81024921893334" cy="348.0393088070858" r="5" fill="#ffeb3b" fill-opacity="1.0" />
<circle cx="472.81024921893334" cy="348.0393088070858" r="9" fill="#ffeb3b" fill-opacity="0.3" />
<path d="M387,385 Q330.8679245283019,365 303.57147713980197,309.88062060688287" stroke="#5d4037" stroke-width="8" fill="none" stroke-linecap="round" stroke-opacity="1.0" />
<circle cx="274.8767444828004" cy="276.6251387389992" r="16" fill="#a5d6a7" fill-opacity="0.7" />
<circle cx="308.5826268205893" cy="315.27014828865174" r="10" fill="#a5d6a7" fill-opacity="0.7" />
<circle cx="300.7735029196185" cy="331.75055050388573" r="16" fill="#2e7d32" fill-opacity="0.7" />
<circle cx="313.2106551872452" cy="308.0490784912315" r="13" fill="#43a047" fill-opacity="0.7" />
<circle cx="306.77165861023724" cy="302.8331994644765" r="13" fill="#43a047" fill-opacity="0.7" />
<circle cx="290.4464382762169" cy="336.0476749129972" r="15" fill="#2e7d32" fill-opacity="0.7" />
<circle cx="271.2591371758713" cy="305.3601390259422" r="12" fill="#a5d6a7" fill-opacity="0.7" />
<circle cx="318.73104563526886" cy="339.5580150155916" r="10" fill="#43a047" fill-opacity="0.7" />
<circle cx="328.12827795794357" cy="314.81934033134416" r="13" fill="#43a047" fill-opacity="0.7" />
<circle cx="286.18189869090804" cy="298.7624719297461" r="12" fill="#66bb6a" fill-opacity="0.7" />
<path d="M387,370 Q443.1320754716981,350 437.96685798962835,269.97190907696626" stroke="#5d4037" stroke-width="8" fill="none" stroke-linecap="round" stroke-opacity="1.0" />
<circle cx="456.0335668106305" cy="276.92734221343994" r="16" fill="#66bb6a" fill-opacity="0.7" />
<circle cx="427.99820142395583" cy="267.0135000313681" r="8" fill="#2e7d32" fill-opacity="0.7" />
<circle cx="470.6295281005332" cy="286.72340854389336" r="9" fill="#a5d6a7" fill-opacity="0.7" />
<circle cx="455.1067474853481" cy="265.39730581224563" r="16" fill="#43a047" fill-opacity="0.7" />
<circle cx="461.86522630401043" cy="278.30524327649" r="9" fill="#66bb6a" fill-opacity="0.7" />
<circle cx="405.11214250219217" cy="246.3570970883049" r="8" fill="#66bb6a" fill-opacity="0.7" />
<circle cx="409.5917983420381" cy="265.6564015504748" r="10" fill="#2e7d32" fill-opacity="0.7" />
<circle cx="422.32410596954975" cy="273.6908272408464" r="13" fill="#2e7d32" fill-opacity="0.7" />
<circle cx="440.8680793622709" cy="280.75089914018275" r="10" fill="#2e7d32" fill-opacity="0.7" />
<circle cx="443.32250393103465" cy="255.23377478845484" r="12" fill="#43a047" fill-opacity="0.7" />
<path d="M387,355 Q331.33962264150944,335 299.2780481834027,286.46409991657765" stroke="#5d4037" stroke-width="8" fill="none" stroke-linecap="round" stroke-opacity="1.0" />
<circle cx="330.4910716178178" cy="314.40790524544036" r="11" fill="#a5d6a7" fill-opacity="0.7" />
<circle cx="307.5089260614967" cy="265.34885854117636" r="9" fill="#a5d6a7" fill-opacity="0.7" />
<circle cx="300.861402678421" cy="314.0320753825556" r="9" fill="#a5d6a7" fill-opacity="0.7" />
<circle cx="304.6022803910416" cy="291.6164588588194" r="13" fill="#a5d6a7" fill-opacity="0.7" />
<circle cx="319.5585748415248" cy="268.1562718358135" r="12" fill="#66bb6a" fill-opacity="0.7" />
<circle cx="305.7836026624635" cy="315.2780494966407" r="12" fill="#43a047" fill-opacity="0.7" />
<circle cx="276.5202562238335" cy="269.829474393489" r="8" fill="#a5d6a7" fill-opacity="0.7" />
<circle cx="301.6934171002872" cy="307.546401068988" r="10" fill="#66bb6a" fill-opacity="0.7" />
<circle cx="313.6224661156242" cy="301.9782700291398" r="11" fill="#66bb6a" fill-opacity="0.7" />
<circle cx="302.8666247908056" cy="320.0746153562501" r="14" fill="#a5d6a7" fill-opacity="0.7" />
<text x="400" y="580" font-family="Segoe UI, Helvetica, Arial, sans-serif" font-size="20" fill="#3e2723" text-anchor="middle" font-weight="bold">@prithwiraj84's Contribution Garden</text>
<text x="400" y="595" font-family="Segoe UI, Helvetica, Arial, sans-serif" font-size="14" fill="#5d4037" text-anchor="middle" font-weight="bold">Grown over 5 years</text></svg>