<svg xmlns="http://www.w3.org/2000/svg" width="800" height="600" viewBox="0 0 800 600">
        <defs>
            <linearGradient id="sky" x1="0%" y1="0%" x2="0%" y2="100%">
                <stop offset="0%" style="stop-color:#e0f7fa;stop-opacity:1" />
                <stop offset="100%" style="stop-color:#ffffff;stop-opacity:1" />
            </linearGradient>
            <filter id="glow" x="-20%" y="-20%" width="140%" height="140%">
                <feGaussianBlur stdDeviation="2" result="coloredBlur"/>
                <feMerge>
                    <feMergeNode in="coloredBlur"/>
                    <feMergeNode in="SourceGraphic"/>
                </feMerge>
            </filter>
        </defs>
        <rect width="100%" height="100%" fill="url(#sky)"/><path d="M0,550 Q400,530 800,550 L800,600 L0,600 Z" stroke="#4e342e" stroke-width="0" fill="#5d4037" stroke-linecap="round" stroke-opacity="1.0" />
<path d="M0,550 Q400,530 800,550" stroke="none" stroke-width="0" fill="#76ff03" stroke-linecap="round" stroke-opacity="0.1" />
<path d="M400,550 Q412.5,470.0 425,390" stroke="#4e342e" stroke-width="35" fill="none" stroke-linecap="round" stroke-opacity="1.0" />
<path d="M425,430 Q512.0192307692307,410 567.5639615541419,330.17563944275065" stroke="#5d4037" stroke-width="8" fill="none" stroke-linecap="round" stroke-opacity="1.0" />
<circle cx="560.2314381482327" cy="341.0659416948801" r="14" fill="#a5d6a7" fill-opacity="0.7" />
<circle cx="559.9749646183885" cy="343.32062801711663" r="8" fill="#43a047" fill-opacity="0.7" />
<circle cx="568.9393334932739" cy="312.76928610886023" r="15" fill="#a5d6a7" fill-opacity="0.7" />
<circle cx="588.6348112776332" cy="342.23932708555594" r="14" fill="#2e7d32" fill-opacity="0.7" />
<circle cx="532.6640381573712" cy="309.60075695780097" r="11" fill="#43a047" fill-opacity="0.7" />
<circle cx="601.1343652347623" cy="350.860667683685" r="15" fill="#a5d6a7" fill-opacity="0.7" />
<circle cx="545.9082720051719" cy="344.42776327858934" r="15" fill="#43a047" fill-opacity="0.7" />
<circle cx="568.6157025215286" cy="326.90415792009725" r="15" fill="#a5d6a7" fill-opacity="0.7" />
<circle cx="554.2963881073499" cy="324.1835531425438" r="13" fill="#a5d6a7" fill-opacity="0.7" />
<circle cx="535.2321850028941" cy="347.60851817725376" r="10" fill="#a5d6a7" fill-opacity="0.7" />
<circle cx="559.695238221428" cy="322.2015765611248" r="16" fill="#2e7d32" fill-opacity="0.7" />
<circle cx="564.6175931259825" cy="340.7566681029261" r="12" fill="#66bb6a" fill-opacity="0.7" />
<circle cx="591.7800635911159" cy="296.19057408784096" r="11" fill="#43a047" fill-opacity="0.7" />
<circle cx="585.547896993094" cy="349.7805917462061" r="12" fill="#2e7d32" fill-opacity="0.7" />
<circle cx="533.6390580041555" cy="297.3418947174539" r="8" fill="#66bb6a" fill-opacity="0.7" />
<path d="M425,415 Q362.0192307692308,395 324.40264248442753,339.1944538145016" stroke="#5d4037" stroke-width="8" fill="none" stroke-linecap="round" stroke-opacity="1.0" />
<circle cx="302.36055970060227" cy="345.0962819547232" r="13" fill="#66bb6a" fill-opacity="0.7" />
<circle cx="310.62488763928496" cy="348.1857071253648" r="9" fill="#a5d6a7" fill-opacity="0.7" />
<circle cx="319.86794416196653" cy="336.9551336736292" r="15" fill="#a5d6a7" fill-opacity="0.7" />
<circle cx="294.9079885632595" cy="322.01800952271014" r="14" fill="#66bb6a" fill-opacity="0.7" />
<circle cx="317.9151622182375" cy="311.33150196458644" r="16" fill="#2e7d32" fill-opacity="0.7" />
<circle cx="330.6571332997462" cy="305.53739641767123" r="15" fill="#a5d6a7" fill-opacity="0.7" />
<circle cx="298.0036525390263" cy="370.64618512260864" r="8" fill="#a5d6a7" fill-opacity="0.7" />
<circle cx="354.55345209777835" cy="341.7174447192393" r="16" fill="#2e7d32" fill-opacity="0.7" />
<circle cx="311.38618785003405" cy="366.1622724321921" r="12" fill="#43a047" fill-opacity="0.7" />
<circle cx="295.30832165125116" cy="357.6949029405737" r="9" fill="#2e7d32" fill-opacity="0.7" />
<path d="M425,400 Q481.7307692307692,380 483.43701234556386,302.7444793434142" stroke="#5d4037" stroke-width="8" fill="none" stroke-linecap="round" stroke-opacity="1.0" />
<circle cx="493.58109625116606" cy="280.9170419466955" r="12" fill="#a5d6a7" fill-opacity="0.7" />
<circle cx="495.72874221577945" cy="267.88085860740296" r="10" fill="#a5d6a7" fill-opacity="0.7" />
<circle cx="449.1614394892006" cy="337.11126126429224" r="11" fill="#a5d6a7" fill-opacity="0.7" />
<circle cx="454.1679831692754" cy="328.0643707253829" r="8" fill="#2e7d32" fill-opacity="0.7" />
<circle cx="482.32920737279665" cy="275.4373887975275" r="10" fill="#66bb6a" fill-opacity="0.7" />
<circle cx="462.79949949669367" cy="279.0517713014687" r="12" fill="#a5d6a7" fill-opacity="0.7" />
<circle cx="513.8069274985264" cy="328.0958866051033" r="14" fill="#a5d6a7" fill-opacity="0.7" />
<circle cx="465.76889265948125" cy="326.675382853978" r="16" fill="#66bb6a" fill-opacity="0.7" />
<circle cx="455.44663312887144" cy="287.03714873803233" r="14" fill="#66bb6a" fill-opacity="0.7" />
<circle cx="481.1649849220753" cy="277.30749090242534" r="14" fill="#43a047" fill-opacity="0.7" />
<path d="M425,385 Q368.75,365 333.9855881328184,318.8741591170968" stroke="#5d4037" stroke-width="8" fill="none" stroke-linecap="round" stroke-opacity="1.0" />
<circle cx="340.85449037914395" cy="312.83962706514666" r="10" fill="#2e7d32" fill-opacity="0.7" />
<circle cx="325.06003706312885" cy="315.92059004572053" r="13" fill="#43a047" fill-opacity="0.7" />
<circle cx="314.4639935021708" cy="316.21767363746517" r="13" fill="#2e7d32" fill-opacity="0.7" />
<circle cx="363.76724645633465" cy="331.8924127090349" r="11" fill="#66bb6a" fill-opacity="0.7" />
<circle cx="302.60216418383055" cy="343.59004284416545" r="15" fill="#43a047" fill-opacity="0.7" />
<circle cx="334.39695601180864" cy="334.62271851246" r="15" fill="#66bb6a" fill-opacity="0.7" />
<circle cx="367.8355064117841" cy="310.69286003982694" r="10" fill="#66bb6a" fill-opacity="0.7" />
<circle cx="315.1093185833064" cy="323.6830680238927" r="13" fill="#66bb6a" fill-opacity="0.7" />
<circle cx="347.59120049000484" cy="285.2527368535377" r="12" fill="#66bb6a" fill-opacity="0.7" />
<circle cx="321.06841488557313" cy="324.7666499435413" r="14" fill="#a5d6a7" fill-opacity="0.7" />
<path d="M425,370 Q481.25,350 477.8155508134127,270.66839580337074" stroke="#5d4037" stroke-width="8" fill="none" stroke-linecap="round" stroke-opacity="1.0" />
<circle cx="500.5994155795662" cy="253.25056707027133" r="11" fill="#a5d6a7" fill-opacity="0.7" />
<circle cx="452.5555259638101" cy="300.4733073612969" r="12" fill="#2e7d32" fill-opacity="0.7" />
<circle cx="470.68438427755655" cy="270.48328205642866" r="14" fill="#43a047" fill-opacity="0.7" />
<circle cx="482.55446647075945" cy="266.8623471432109" r="8" fill="#66bb6a" fill-opacity="0.7" />
<circle cx="454.0836066247889" cy="254.32349503522914" r="13" fill="#66bb6a" fill-opacity="0.7" />
<circle cx="501.44759489926946" cy="259.1868527472706" r="16" fill="#2e7d32" fill-opacity="0.7" />
<circle cx="479.6424123425685" cy="292.5003269357241" r="8" fill="#a5d6a7" fill-opacity="0.7" />
<circle cx="487.8181836218121" cy="285.47048170911336" r="16" fill="#66bb6a" fill-opacity="0.7" />
<circle cx="493.74257520040413" cy="290.33380512713904" r="16" fill="#2e7d32" fill-opacity="0.7" />
<circle cx="510.9140364817415" cy="294.88285544842705" r="14" fill="#66bb6a" fill-opacity="0.7" />
<path d="M425,355 Q369.2307692307692,335 340.8208545136139,281.8241852279819" stroke="#5d4037" stroke-width="8" fill="none" stroke-linecap="round" stroke-opacity="1.0" />
<circle cx="341.8338240876925" cy="308.0253682018474" r="13" fill="#2e7d32" fill-opacity="0.7" />
<circle cx="369.75982257540744" cy="311.08868725258947" r="15" fill="#43a047" fill-opacity="0.7" />
<circle cx="352.31548844907525" cy="270.81991760167375" r="11" fill="#2e7d32" fill-opacity="0.7" />
<circle cx="342.3422810499929" cy="289.4601195893009" r="12" fill="#a5d6a7" fill-opacity="0.7" />
<circle cx="333.7517541527192" cy="313.6035681525898" r="10" fill="#43a047" fill-opacity="0.7" />
<circle cx="362.3405951653057" cy="297.8943027570261" r="10" fill="#43a047" fill-opacity="0.7" />
<circle cx="362.3144712641561" cy="291.2323043353559" r="9" fill="#a5d6a7" fill-opacity="0.7" />
<circle cx="374.42024360431657" cy="262.68188437699126" r="9" fill="#66bb6a" fill-opacity="0.7" />
<circle cx="344.02834824039377" cy="256.19855677825313" r="14" fill="#66bb6a" fill-opacity="0.7" />
<circle cx="306.4169990574441" cy="256.52300360080744" r="12" fill="#a5d6a7" fill-opacity="0.7" />
<text x="400" y="580" font-family="Segoe UI, Helvetica, Arial, sans-serif" font-size="20" fill="#3e2723" text-anchor="middle" font-weight="bold">@prithwiraj84's Contribution Garden</text>
<text x="400" y="595" font-family="Segoe UI, Helvetica, Arial, sans-serif" font-size="14" fill="#5d4037" text-anchor="middle" font-weight="bold">Grown over 5 years</text></svg>