<svg xmlns="http://www.w3.org/2000/svg" width="800" height="600" viewBox="0 0 800 600">
        <defs>
            <linearGradient id="sky" x1="0%" y1="0%" x2="0%" y2="100%">
                <stop offset="0%" style="stop-color:#e0f7fa;stop-opacity:1" />
                <stop offset="100%" style="stop-color:#ffffff;stop-opacity:1" />
            </linearGradient>
            <filter id="glow" x="-20%" y="-20%" width="140%" height="140%">
                <feGaussianBlur stdDeviation="2" result="coloredBlur"/>
                <feMerge>
                    <feMergeNode in="coloredBlur"/>
                    <feMergeNode in="SourceGraphic"/>
                </feMerge>
            </filter>
        </defs>
        <rect width="100%" height="100%" fill="url(#sky)"/><path d="M0,550 Q400,530 800,550 L800,600 L0,600 Z" stroke="#4e342e" stroke-width="0" fill="#5d4037" stroke-linecap="round" stroke-opacity="1.0" />
<path d="M0,550 Q400,530 800,550" stroke="none" stroke-width="0" fill="#76ff03" stroke-linecap="round" stroke-opacity="0.1" />
<path d="M400,550 Q399.0,470.0 398,390" stroke="#4e342e" stroke-width="35" fill="none" stroke-linecap="round" stroke-opacity="1.0" />
<path d="M398,430 Q486.6503067484663,410 553.0706106523223,344.04295690110956" stroke="#5d4037" stroke-width="8" fill="none" stroke-linecap="round" stroke-opacity="1.0" />
<circle cx="527.8677877938416" cy="354.24981162145684" r="15" fill="#a5d6a7" fill-opacity="0.7" />
<circle cx="574.0149883888573" cy="378.8670240231559" r="8" fill="#66bb6a" fill-opacity="0.7" />
<circle cx="571.8321137427198" cy="378.23047183683866" r="13" fill="#66bb6a" fill-opacity="0.7" />
<circle cx="520.4404999703387" cy="368.76361254646457" r="12" fill="#a5d6a7" fill-opacity="0.7" />
<circle cx="523.7177211946196" cy="318.8305247242584" r="8" fill="#2e7d32" fill-opacity="0.7" />
<circle cx="523.1384184622797" cy="317.3541860414934" r="10" fill="#2e7d32" fill-opacity="0.7" />
<circle cx="578.2076955323331" cy="347.9898942209921" r="12" fill="#66bb6a" fill-opacity="0.7" />
<circle cx="563.6322731742439" cy="322.67918899496857" r="15" fill="#43a047" fill-opacity="0.7" />
<circle cx="585.1178664134485" cy="374.7236671325154" r="16" fill="#a5d6a7" fill-opacity="0.7" />
<circle cx="581.8071751385976" cy="332.13896387855" r="11" fill="#2e7d32" fill-opacity="0.7" />
<circle cx="557.3919690027495" cy="347.4732079769509" r="9" fill="#a5d6a7" fill-opacity="0.7" />
<circle cx="558.1208628009226" cy="314.07056759085316" r="14" fill="#a5d6a7" fill-opacity="0.7" />
<circle cx="529.300341776147" cy="369.48830222321186" r="9" fill="#2e7d32" fill-opacity="0.7" />
<circle cx="554.0500354799972" cy="371.0984765174854" r="8" fill="#a5d6a7" fill-opacity="0.7" />
<circle cx="583.8995323335876" cy="355.8179978453026" r="9" fill="#2e7d32" fill-opacity="0.7" />
<circle cx="583.7131594126097" cy="325.89195471015773" r="10" fill="#43a047" fill-opacity="0.7" />
<path d="M398,415 Q335.5766871165644,395 286.7608419188142,358.320817977302" stroke="#5d4037" stroke-width="8" fill="none" stroke-linecap="round" stroke-opacity="1.0" />
<circle cx="258.02478407059067" cy="386.1049612372143" r="11" fill="#a5d6a7" fill-opacity="0.7" />
<circle cx="321.5752585898281" cy="329.185480107921" r="8" fill="#a5d6a7" fill-opacity="0.7" />
<circle cx="263.99882612986517" cy="362.0754431051178" r="13" fill="#2e7d32" fill-opacity="0.7" />
<circle cx="317.9906814552568" cy="365.40397342368584" r="10" fill="#a5d6a7" fill-opacity="0.7" />
<circle cx="265.9450614159512" cy="353.42565413306136" r="15" fill="#43a047" fill-opacity="0.7" />
<circle cx="314.52017941904154" cy="364.3485034713511" r="12" fill="#43a047" fill-opacity="0.7" />
<circle cx="289.7578594705319" cy="366.5761475695406" r="13" fill="#43a047" fill-opacity="0.7" />
<circle cx="310.99429961214236" cy="367.5423403571047" r="16" fill="#a5d6a7" fill-opacity="0.7" />
<circle cx="313.41179564903797" cy="354.86362587707345" r="13" fill="#43a047" fill-opacity="0.7" />
<circle cx="258.47954584269644" cy="323.6471743646207" r="16" fill="#66bb6a" fill-opacity="0.7" />
<path d="M398,400 Q454.44171779141107,380 450.9955629157079,300.3298422785015" stroke="#5d4037" stroke-width="8" fill="none" stroke-linecap="round" stroke-opacity="1.0" />
<circle cx="421.65223011957994" cy="266.7702681881055" r="12" fill="#43a047" fill-opacity="0.7" />
<circle cx="466.46549712053115" cy="269.01564269579876" r="12" fill="#2e7d32" fill-opacity="0.7" />
<circle cx="456.96654549524516" cy="293.9927854773455" r="10" fill="#a5d6a7" fill-opacity="0.7" />
<circle cx="480.219145876488" cy="313.0899858537844" r="8" fill="#a5d6a7" fill-opacity="0.7" />
<circle cx="478.82601862169525" cy="300.5220984343236" r="15" fill="#a5d6a7" fill-opacity="0.7" />
<circle cx="443.93408112194305" cy="308.51632618781287" r="16" fill="#66bb6a" fill-opacity="0.7" />
<circle cx="476.14697806987215" cy="269.12518464459083" r="10" fill="#a5d6a7" fill-opacity="0.7" />
<circle cx="480.41040398021426" cy="289.4777491121622" r="10" fill="#a5d6a7" fill-opacity="0.7" />
<circle cx="464.99292764882887" cy="266.851814440862" r="16" fill="#66bb6a" fill-opacity="0.7" />
<circle cx="429.2283174441454" cy="272.9574898367111" r="9" fill="#2e7d32" fill-opacity="0.7" />
<circle cx="448.18359332914133" cy="292.09494285568985" r="5" fill="#ffeb3b" fill-opacity="1.0" />
<circle cx="448.18359332914133" cy="292.09494285568985" r="9" fill="#ffeb3b" fill-opacity="0.3" />
<path d="M398,385 Q342.0184049079755,365 296.5268888747309,337.68231118547385" stroke="#5d4037" stroke-width="8" fill="none" stroke-linecap="round" stroke-opacity="1.0" />
<circle cx="279.5311475385928" cy="356.6559640977768" r="10" fill="#2e7d32" fill-opacity="0.7" />
<circle cx="317.1154853440408" cy="360.3928675987552" r="15" fill="#2e7d32" fill-opacity="0.7" />
<circle cx="299.48177283943653" cy="367.68753242586" r="15" fill="#a5d6a7" fill-opacity="0.7" />
<circle cx="264.84173089828846" cy="355.1825136161572" r="8" fill="#a5d6a7" fill-opacity="0.7" />
<circle cx="285.9673887208683" cy="329.9557997993955" r="8" fill="#43a047" fill-opacity="0.7" />
<circle cx="303.8220224964384" cy="370.68793183256906" r="9" fill="#a5d6a7" fill-opacity="0.7" />
<circle cx="298.6893837474322" cy="357.1964355321063" r="12" fill="#66bb6a" fill-opacity="0.7" />
<circle cx="331.28680855894197" cy="365.5688629834284" r="16" fill="#2e7d32" fill-opacity="0.7" />
<circle cx="302.6265721528922" cy="339.3238986309049" r="10" fill="#66bb6a" fill-opacity="0.7" />
<circle cx="290.6500497826946" cy="313.83831573257385" r="15" fill="#43a047" fill-opacity="0.7" />
<path d="M398,370 Q453.9815950920245,350 497.7599329229308,319.16977533590966" stroke="#5d4037" stroke-width="8" fill="none" stroke-linecap="round" stroke-opacity="1.0" />
<circle cx="503.0458829132172" cy="291.3154854246248" r="16" fill="#66bb6a" fill-opacity="0.7" />
<circle cx="483.21611082246284" cy="303.9209843647808" r="11" fill="#43a047" fill-opacity="0.7" />
<circle cx="511.2533730441356" cy="326.5133526021064" r="16" fill="#66bb6a" fill-opacity="0.7" />
<circle cx="478.92503908525725" cy="334.3800973077155" r="11" fill="#2e7d32" fill-opacity="0.7" />
<circle cx="523.9101513728492" cy="347.07990989122237" r="14" fill="#43a047" fill-opacity="0.7" />
<circle cx="484.9855077417095" cy="310.40216096179904" r="12" fill="#2e7d32" fill-opacity="0.7" />
<circle cx="502.2602685257901" cy="348.111001114271" r="12" fill="#66bb6a" fill-opacity="0.7" />
<circle cx="468.64587493802634" cy="323.4866561700055" r="15" fill="#66bb6a" fill-opacity="0.7" />
<circle cx="485.900006607421" cy="297.3062388490538" r="15" fill="#a5d6a7" fill-opacity="0.7" />
<circle cx="493.3392892450138" cy="332.6013273779575" r="15" fill="#2e7d32" fill-opacity="0.7" />
<path d="M398,355 Q342.47852760736197,335 310.49696539704496,286.6351367889913" stroke="#5d4037" stroke-width="8" fill="none" stroke-linecap="round" stroke-opacity="1.0" />
<circle cx="280.73828562189783" cy="262.39817368053696" r="15" fill="#66bb6a" fill-opacity="0.7" />
<circle cx="331.86701456462106" cy="290.8166641943312" r="15" fill="#66bb6a" fill-opacity="0.7" />
<circle cx="291.04487104858714" cy="305.2394784458505" r="15" fill="#a5d6a7" fill-opacity="0.7" />
<circle cx="329.0367790178816" cy="279.1834039165009" r="10" fill="#2e7d32" fill-opacity="0.7" />
<circle cx="312.1201224541188" cy="297.9392393446751" r="13" fill="#43a047" fill-opacity="0.7" />
<circle cx="282.01180285745517" cy="260.638793631868" r="10" fill="#66bb6a" fill-opacity="0.7" />
<circle cx="283.46391364261046" cy="267.0188590357079" r="13" fill="#2e7d32" fill-opacity="0.7" />
<circle cx="324.48639855666545" cy="292.1160040925966" r="14" fill="#a5d6a7" fill-opacity="0.7" />
<circle cx="282.8359579380055" cy="264.09446320561057" r="10" fill="#43a047" fill-opacity="0.7" />
<circle cx="326.3493777373224" cy="292.56054823138084" r="15" fill="#66bb6a" fill-opacity="0.7" />
<text x="400" y="580" font-family="Segoe UI, Helvetica, Arial, sans-serif" font-size="20" fill="#3e2723" text-anchor="middle" font-weight="bold">@prithwiraj84's Contribution Garden</text>
<text x="400" y="595" font-family="Segoe UI, Helvetica, Arial, sans-serif" font-size="14" fill="#5d4037" text-anchor="middle" font-weight="bold">Grown over 5 years</text></svg>