<svg xmlns="http://www.w3.org/2000/svg" width="800" height="600" viewBox="0 0 800 600">
        <defs>
            <linearGradient id="sky" x1="0%" y1="0%" x2="0%" y2="100%">
                <stop offset="0%" style="stop-color:#e0f7fa;stop-opacity:1" />
                <stop offset="100%" style="stop-color:#ffffff;stop-opacity:1" />
            </linearGradient>
            <filter id="glow" x="-20%" y="-20%" width="140%" height="140%">
                <feGaussianBlur stdDeviation="2" result="coloredBlur"/>
                <feMerge>
                    <feMergeNode in="coloredBlur"/>
                    <feMergeNode in="SourceGraphic"/>
                </feMerge>
            </filter>
        </defs>
        <rect width="100%" height="100%" fill="url(#sky)"/><path d="M0,550 Q400,530 800,550 L800,600 L0,600 Z" stroke="#4e342e" stroke-width="0" fill="#5d4037" stroke-linecap="round" stroke-opacity="1.0" />
<path d="M0,550 Q400,530 800,550" stroke="none" stroke-width="0" fill="#76ff03" stroke-linecap="round" stroke-opacity="0.1" />
<path d="M400,550 Q405.0,470.0 410,390" stroke="#4e342e" stroke-width="35" fill="none" stroke-linecap="round" stroke-opacity="1.0" />
<path d="M410,430 Q499.9746192893401,410 535.0032448364033,300.5553506497199" stroke="#5d4037" stroke-width="8" fill="none" stroke-linecap="round" stroke-opacity="1.0" />
<circle cx="565.8024000124672" cy="309.7502007447139" r="13" fill="#43a047" fill-opacity="0.7" />
<circle cx="537.4454396945815" cy="276.35095692951967" r="15" fill="#2e7d32" fill-opacity="0.7" />
<circle cx="540.5671355673139" cy="333.16240056448953" r="8" fill="#43a047" fill-opacity="0.7" />
<circle cx="512.2986852318622" cy="283.5818319974162" r="10" fill="#a5d6a7" fill-opacity="0.7" />
<circle cx="501.70878516427416" cy="300.46202534097324" r="8" fill="#2e7d32" fill-opacity="0.7" />
<circle cx="554.2786773903853" cy="316.21382290813693" r="11" fill="#2e7d32" fill-opacity="0.7" />
<circle cx="530.342370499747" cy="271.7723214138656" r="8" fill="#43a047" fill-opacity="0.7" />
<circle cx="533.8924471083758" cy="333.3399993670522" r="10" fill="#2e7d32" fill-opacity="0.7" />
<circle cx="528.2843957570007" cy="313.4895650413984" r="15" fill="#a5d6a7" fill-opacity="0.7" />
<circle cx="529.3469851669701" cy="309.4089268061716" r="15" fill="#2e7d32" fill-opacity="0.7" />
<circle cx="507.1091146345567" cy="331.98067434684697" r="15" fill="#43a047" fill-opacity="0.7" />
<circle cx="527.0451630111887" cy="308.76100673831945" r="13" fill="#43a047" fill-opacity="0.7" />
<circle cx="542.5054539785344" cy="283.66460934796936" r="13" fill="#2e7d32" fill-opacity="0.7" />
<circle cx="553.602413722928" cy="271.52712482651253" r="14" fill="#a5d6a7" fill-opacity="0.7" />
<circle cx="547.5851622808827" cy="315.0111777284164" r="14" fill="#2e7d32" fill-opacity="0.7" />
<circle cx="505.52883962336034" cy="323.86472394649076" r="15" fill="#66bb6a" fill-opacity="0.7" />
<circle cx="531.3857974818876" cy="332.9622726404751" r="9" fill="#43a047" fill-opacity="0.7" />
<circle cx="534.5947298459932" cy="312.94590820841887" r="16" fill="#43a047" fill-opacity="0.7" />
<circle cx="518.116844594579" cy="281.2925197696708" r="12" fill="#2e7d32" fill-opacity="0.7" />
<circle cx="535.6229325487448" cy="306.203898423592" r="15" fill="#2e7d32" fill-opacity="0.7" />
<circle cx="517.0175108856359" cy="287.6588960134676" r="11" fill="#66bb6a" fill-opacity="0.7" />
<path d="M410,415 Q345.9137055837563,395 317.80035554035055,325.9638383041133" stroke="#5d4037" stroke-width="8" fill="none" stroke-linecap="round" stroke-opacity="1.0" />
<circle cx="336.32916389718343" cy="320.33374521532255" r="16" fill="#66bb6a" fill-opacity="0.7" />
<circle cx="342.92578186929313" cy="331.64283424894097" r="9" fill="#a5d6a7" fill-opacity="0.7" />
<circle cx="314.80604760606195" cy="332.19914646794757" r="14" fill="#2e7d32" fill-opacity="0.7" />
<circle cx="309.2201638344847" cy="312.7631108237896" r="16" fill="#66bb6a" fill-opacity="0.7" />
<circle cx="295.37936935397676" cy="292.90957018798423" r="9" fill="#2e7d32" fill-opacity="0.7" />
<circle cx="340.25441109711954" cy="297.1113207385547" r="15" fill="#a5d6a7" fill-opacity="0.7" />
<circle cx="333.81760406405846" cy="295.5582933082835" r="10" fill="#66bb6a" fill-opacity="0.7" />
<circle cx="336.7209909342097" cy="301.78190033052647" r="15" fill="#a5d6a7" fill-opacity="0.7" />
<circle cx="288.8908003678796" cy="337.1713473533092" r="16" fill="#66bb6a" fill-opacity="0.7" />
<circle cx="306.5586527891572" cy="348.6464276025275" r="9" fill="#66bb6a" fill-opacity="0.7" />
<path d="M410,400 Q466.0913705583756,380 509.95555423636006,349.0701012982539" stroke="#5d4037" stroke-width="8" fill="none" stroke-linecap="round" stroke-opacity="1.0" />
<circle cx="488.6718493539933" cy="325.15287728274325" r="8" fill="#66bb6a" fill-opacity="0.7" />
<circle cx="531.576038286388" cy="318.7929194701977" r="10" fill="#66bb6a" fill-opacity="0.7" />
<circle cx="497.27478368396913" cy="327.3606080747223" r="13" fill="#43a047" fill-opacity="0.7" />
<circle cx="521.2124481787398" cy="383.582028898389" r="10" fill="#66bb6a" fill-opacity="0.7" />
<circle cx="490.2999197582808" cy="359.77299507976517" r="13" fill="#2e7d32" fill-opacity="0.7" />
<circle cx="482.20564479186163" cy="363.554937537091" r="12" fill="#43a047" fill-opacity="0.7" />
<circle cx="516.619554134925" cy="372.8663401718644" r="8" fill="#66bb6a" fill-opacity="0.7" />
<circle cx="525.423435728259" cy="360.18667869324975" r="12" fill="#43a047" fill-opacity="0.7" />
<circle cx="479.0439433513916" cy="332.6537653883647" r="9" fill="#a5d6a7" fill-opacity="0.7" />
<circle cx="514.9234229806248" cy="369.0304847974406" r="14" fill="#a5d6a7" fill-opacity="0.7" />
<path d="M410,385 Q354.6700507614213,365 325.2295996954634,313.8691883697129" stroke="#5d4037" stroke-width="8" fill="none" stroke-linecap="round" stroke-opacity="1.0" />
<circle cx="318.36531637792325" cy="308.546366518539" r="11" fill="#43a047" fill-opacity="0.7" />
<circle cx="338.6278864183795" cy="290.6378646902931" r="11" fill="#2e7d32" fill-opacity="0.7" />
<circle cx="335.4687075945101" cy="292.20203738115606" r="11" fill="#2e7d32" fill-opacity="0.7" />
<circle cx="306.09819225273486" cy="346.01700885646187" r="11" fill="#2e7d32" fill-opacity="0.7" />
<circle cx="345.50612739965106" cy="342.8080908679846" r="10" fill="#2e7d32" fill-opacity="0.7" />
<circle cx="307.8679245982953" cy="315.75670074687525" r="10" fill="#66bb6a" fill-opacity="0.7" />
<circle cx="355.77371432862685" cy="331.3632000053407" r="10" fill="#a5d6a7" fill-opacity="0.7" />
<circle cx="331.4847284093902" cy="302.50931258635575" r="8" fill="#43a047" fill-opacity="0.7" />
<circle cx="349.2488358828303" cy="346.3932572865733" r="15" fill="#66bb6a" fill-opacity="0.7" />
<circle cx="343.2011202591118" cy="340.52309354587084" r="10" fill="#43a047" fill-opacity="0.7" />
<circle cx="344.7425786564425" cy="301.01757970203965" r="5" fill="#ffeb3b" fill-opacity="1.0" />
<circle cx="344.7425786564425" cy="301.01757970203965" r="9" fill="#ffeb3b" fill-opacity="0.3" />
<path d="M410,370 Q464.9492385786802,350 504.20138101624735,313.39809988932655" stroke="#5d4037" stroke-width="8" fill="none" stroke-linecap="round" stroke-opacity="1.0" />
<circle cx="512.7988604650258" cy="314.86065457545516" r="15" fill="#a5d6a7" fill-opacity="0.7" />
<circle cx="469.96683916937354" cy="322.0566899511783" r="14" fill="#66bb6a" fill-opacity="0.7" />
<circle cx="516.2917250028839" cy="324.71208895212004" r="13" fill="#2e7d32" fill-opacity="0.7" />
<circle cx="517.098623721741" cy="300.8854228537898" r="10" fill="#66bb6a" fill-opacity="0.7" />
<circle cx="481.4117294031533" cy="310.8060173953392" r="16" fill="#43a047" fill-opacity="0.7" />
<circle cx="470.50857307301214" cy="338.93979029125313" r="9" fill="#43a047" fill-opacity="0.7" />
<circle cx="479.69098732893184" cy="347.3645163097075" r="14" fill="#2e7d32" fill-opacity="0.7" />
<circle cx="507.81899981840115" cy="345.16060604965605" r="16" fill="#a5d6a7" fill-opacity="0.7" />
<circle cx="507.05349036744013" cy="330.6380719650527" r="13" fill="#2e7d32" fill-opacity="0.7" />
<circle cx="523.7379364698679" cy="341.6286690153574" r="12" fill="#43a047" fill-opacity="0.7" />
<path d="M410,355 Q355.43147208121826,335 334.1870306351856,276.4933720442589" stroke="#5d4037" stroke-width="8" fill="none" stroke-linecap="round" stroke-opacity="1.0" />
<circle cx="363.1084674742286" cy="261.80367199734445" r="10" fill="#43a047" fill-opacity="0.7" />
<circle cx="317.77417048386883" cy="268.3028867930455" r="12" fill="#2e7d32" fill-opacity="0.7" />
<circle cx="356.0274549305392" cy="291.934063616502" r="13" fill="#2e7d32" fill-opacity="0.7" />
<circle cx="355.2574194789843" cy="244.52318541728377" r="14" fill="#66bb6a" fill-opacity="0.7" />
<circle cx="330.68313220315974" cy="290.4670985496573" r="8" fill="#2e7d32" fill-opacity="0.7" />
<circle cx="353.5967435732729" cy="254.36338242276275" r="10" fill="#2e7d32" fill-opacity="0.7" />
<circle cx="325.63648782222793" cy="290.15541321778875" r="9" fill="#43a047" fill-opacity="0.7" />
<circle cx="344.33786606579093" cy="271.5541218707259" r="8" fill="#a5d6a7" fill-opacity="0.7" />
<circle cx="318.7326438349125" cy="253.03957390163995" r="9" fill="#43a047" fill-opacity="0.7" />
<circle cx="318.5919783488164" cy="272.26387311170134" r="12" fill="#66bb6a" fill-opacity="0.7" />
<text x="400" y="580" font-family="Segoe UI, Helvetica, Arial, sans-serif" font-size="20" fill="#3e2723" text-anchor="middle" font-weight="bold">@prithwiraj84's Contribution Garden</text>
<text x="400" y="595" font-family="Segoe UI, Helvetica, Arial, sans-serif" font-size="14" fill="#5d4037" text-anchor="middle" font-weight="bold">Grown over 5 years</text></svg>