<svg xmlns="http://www.w3.org/2000/svg" width="800" height="600" viewBox="0 0 800 600">
        <defs>
            <linearGradient id="sky" x1="0%" y1="0%" x2="0%" y2="100%">
                <stop offset="0%" style="stop-color:#e0f7fa;stop-opacity:1" />
                <stop offset="100%" style="stop-color:#ffffff;stop-opacity:1" />
            </linearGradient>
            <filter id="glow" x="-20%" y="-20%" width="140%" height="140%">
                <feGaussianBlur stdDeviation="2" result="coloredBlur"/>
                <feMerge>
                    <feMergeNode in="coloredBlur"/>
                    <feMergeNode in="SourceGraphic"/>
                </feMerge>
            </filter>
        </defs>
        <rect width="100%" height="100%" fill="url(#sky)"/><path d="M0,550 Q400,530 800,550 L800,600 L0,600 Z" stroke="#4e342e" stroke-width="0" fill="#5d4037" stroke-linecap="round" stroke-opacity="1.0" />
<path d="M0,550 Q400,530 800,550" stroke="none" stroke-width="0" fill="#76ff03" stroke-linecap="round" stroke-opacity="0.1" />
<path d="M400,550 Q393.5,470.0 387,390" stroke="#4e342e" stroke-width="35" fill="none" stroke-linecap="round" stroke-opacity="1.0" />
<path d="M387,430 Q463.9021739130435,410 456.82571273168026,292.9593226384195" stroke="#5d4037" stroke-width="8" fill="none" stroke-linecap="round" stroke-opacity="1.0" />
<circle cx="442.94238895184395" cy="295.27328187310644" r="13" fill="#a5d6a7" fill-opacity="0.7" />
<circle cx="490.32949459708516" cy="299.7752666511456" r="11" fill="#2e7d32" fill-opacity="0.7" />
<circle cx="472.09151105697913" cy="308.0469399245449" r="13" fill="#a5d6a7" fill-opacity="0.7" />
<circle cx="439.6605482552679" cy="258.268844245635" r="15" fill="#a5d6a7" fill-opacity="0.7" />
<circle cx="476.9833677728517" cy="289.92031882815706" r="10" fill="#a5d6a7" fill-opacity="0.7" />
<circle cx="468.27099314025133" cy="299.999833976297" r="8" fill="#66bb6a" fill-opacity="0.7" />
<circle cx="425.73240873279104" cy="291.06319419091614" r="12" fill="#2e7d32" fill-opacity="0.7" />
<circle cx="453.7417212849302" cy="320.9519998802222" r="10" fill="#2e7d32" fill-opacity="0.7" />
<circle cx="437.14036246980595" cy="259.514512810286" r="15" fill="#a5d6a7" fill-opacity="0.7" />
<circle cx="460.24118136411425" cy="322.0275564963463" r="14" fill="#2e7d32" fill-opacity="0.7" />
<path d="M387,415 Q319.0652173913044,395 287.6312905408736,322.3371793393344" stroke="#5d4037" stroke-width="8" fill="none" stroke-linecap="round" stroke-opacity="1.0" />
<circle cx="317.8165894010481" cy="301.9648966944444" r="16" fill="#a5d6a7" fill-opacity="0.7" />
<circle cx="287.4397532978471" cy="355.2978197563949" r="10" fill="#43a047" fill-opacity="0.7" />
<circle cx="321.24892137288174" cy="292.8185112693414" r="15" fill="#43a047" fill-opacity="0.7" />
<circle cx="254.72396764122502" cy="311.73461656210355" r="14" fill="#a5d6a7" fill-opacity="0.7" />
<circle cx="287.54486523749404" cy="310.7363201287728" r="11" fill="#43a047" fill-opacity="0.7" />
<circle cx="314.2863946129247" cy="324.12584731728987" r="15" fill="#66bb6a" fill-opacity="0.7" />
<circle cx="269.7586462922438" cy="332.692346303462" r="10" fill="#66bb6a" fill-opacity="0.7" />
<circle cx="299.59030364299065" cy="310.7273910903667" r="14" fill="#66bb6a" fill-opacity="0.7" />
<circle cx="257.1255713111168" cy="319.975692922828" r="15" fill="#43a047" fill-opacity="0.7" />
<circle cx="295.8151024164098" cy="350.90146854620735" r="11" fill="#2e7d32" fill-opacity="0.7" />
<path d="M387,400 Q447.5978260869565,380 493.0001058109159,341.24318189405807" stroke="#5d4037" stroke-width="8" fill="none" stroke-linecap="round" stroke-opacity="1.0" />
<circle cx="525.084020330502" cy="327.2901631031604" r="10" fill="#2e7d32" fill-opacity="0.7" />
<circle cx="471.7154823335152" cy="349.5690730537353" r="16" fill="#a5d6a7" fill-opacity="0.7" />
<circle cx="516.6324386832205" cy="350.7386677442849" r="16" fill="#66bb6a" fill-opacity="0.7" />
<circle cx="510.64782264734" cy="323.94853034254044" r="11" fill="#66bb6a" fill-opacity="0.7" />
<circle cx="459.49266728738655" cy="329.5476437090955" r="15" fill="#a5d6a7" fill-opacity="0.7" />
<circle cx="495.6372411534288" cy="315.48163161661626" r="15" fill="#43a047" fill-opacity="0.7" />
<circle cx="463.0208052091668" cy="351.5730389182191" r="8" fill="#a5d6a7" fill-opacity="0.7" />
<circle cx="523.961591527415" cy="374.21316923865436" r="11" fill="#a5d6a7" fill-opacity="0.7" />
<circle cx="504.78063139303345" cy="368.6044033416897" r="11" fill="#66bb6a" fill-opacity="0.7" />
<circle cx="464.60398418411495" cy="357.6719414150348" r="13" fill="#2e7d32" fill-opacity="0.7" />
<path d="M387,385 Q327.2173913043478,365 286.7241712239167,319.88011537863804" stroke="#5d4037" stroke-width="8" fill="none" stroke-linecap="round" stroke-opacity="1.0" />
<circle cx="320.49267827966406" cy="316.1638560094043" r="10" fill="#2e7d32" fill-opacity="0.7" />
<circle cx="290.19901306646454" cy="333.1989441825969" r="13" fill="#a5d6a7" fill-opacity="0.7" />
<circle cx="290.3220886172673" cy="315.7882037034664" r="8" fill="#66bb6a" fill-opacity="0.7" />
<circle cx="261.2703172886136" cy="352.5989122826406" r="12" fill="#66bb6a" fill-opacity="0.7" />
<circle cx="286.73845103017686" cy="314.8600290960929" r="14" fill="#2e7d32" fill-opacity="0.7" />
<circle cx="317.04076470945427" cy="320.06686714578746" r="12" fill="#66bb6a" fill-opacity="0.7" />
<circle cx="263.4604210712123" cy="327.7048980183828" r="13" fill="#2e7d32" fill-opacity="0.7" />
<circle cx="307.16756219931386" cy="328.63498037083184" r="14" fill="#2e7d32" fill-opacity="0.7" />
<circle cx="268.13214464677554" cy="332.3922150469746" r="13" fill="#a5d6a7" fill-opacity="0.7" />
<circle cx="318.25870906534146" cy="334.44759431296086" r="10" fill="#43a047" fill-opacity="0.7" />
<path d="M387,370 Q443.52173913043475,350 468.31667308176054,291.4734016002873" stroke="#5d4037" stroke-width="8" fill="none" stroke-linecap="round" stroke-opacity="1.0" />
<circle cx="435.0704814217284" cy="300.21454524210617" r="10" fill="#66bb6a" fill-opacity="0.7" />
<circle cx="443.6518012390326" cy="321.56359570455675" r="12" fill="#66bb6a" fill-opacity="0.7" />
<circle cx="488.22707904557967" cy="283.8647750102198" r="11" fill="#2e7d32" fill-opacity="0.7" />
<circle cx="491.0279175352121" cy="322.51754003318365" r="15" fill="#43a047" fill-opacity="0.7" />
<circle cx="486.3494372936669" cy="263.61516355225854" r="13" fill="#43a047" fill-opacity="0.7" />
<circle cx="492.4749417678177" cy="312.47578626327" r="12" fill="#a5d6a7" fill-opacity="0.7" />
<circle cx="497.7426764931946" cy="306.5021610440678" r="14" fill="#66bb6a" fill-opacity="0.7" />
<circle cx="494.1304167161017" cy="306.18377609413903" r="14" fill="#43a047" fill-opacity="0.7" />
<circle cx="497.80885421564494" cy="317.59837022002733" r="8" fill="#a5d6a7" fill-opacity="0.7" />
<circle cx="436.17503427810175" cy="263.53257312346926" r="14" fill="#2e7d32" fill-opacity="0.7" />
<path d="M387,355 Q333.7391304347826,335 297.66335254494396,296.98410279187755" stroke="#5d4037" stroke-width="8" fill="none" stroke-linecap="round" stroke-opacity="1.0" />
<circle cx="326.0114248709326" cy="317.11214193561625" r="12" fill="#2e7d32" fill-opacity="0.7" />
<circle cx="264.70140015916235" cy="272.248262594136" r="10" fill="#66bb6a" fill-opacity="0.7" />
<circle cx="301.8920783670678" cy="271.31755075765284" r="14" fill="#43a047" fill-opacity="0.7" />
<circle cx="330.46614501347494" cy="276.9120363503687" r="12" fill="#66bb6a" fill-opacity="0.7" />
<circle cx="318.57581372594234" cy="286.3209711165939" r="15" fill="#a5d6a7" fill-opacity="0.7" />
<circle cx="275.4367820771675" cy="303.0143360939566" r="16" fill="#66bb6a" fill-opacity="0.7" />
<circle cx="321.9129763544664" cy="326.40527394437424" r="15" fill="#43a047" fill-opacity="0.7" />
<circle cx="300.9892526916678" cy="270.7335417214871" r="9" fill="#2e7d32" fill-opacity="0.7" />
<circle cx="276.6572287818482" cy="276.3357481596427" r="14" fill="#2e7d32" fill-opacity="0.7" />
<circle cx="324.41084637959233" cy="286.5458193058857" r="16" fill="#43a047" fill-opacity="0.7" />
<text x="400" y="580" font-family="Segoe UI, Helvetica, Arial, sans-serif" font-size="20" fill="#3e2723" text-anchor="middle" font-weight="bold">@prithwiraj84's Contribution Garden</text>
<text x="400" y="595" font-family="Segoe UI, Helvetica, Arial, sans-serif" font-size="14" fill="#5d4037" text-anchor="middle" font-weight="bold">Grown over 5 years</text></svg>