<svg xmlns="http://www.w3.org/2000/svg" width="800" height="600" viewBox="0 0 800 600">
        <defs>
            <linearGradient id="sky" x1="0%" y1="0%" x2="0%" y2="100%">
                <stop offset="0%" style="stop-color:#e0f7fa;stop-opacity:1" />
                <stop offset="100%" style="stop-color:#ffffff;stop-opacity:1" />
            </linearGradient>
            <filter id="glow" x="-20%" y="-20%" width="140%" height="140%">
                <feGaussianBlur stdDeviation="2" result="coloredBlur"/>
                <feMerge>
                    <feMergeNode in="coloredBlur"/>
                    <feMergeNode in="SourceGraphic"/>
                </feMerge>
            </filter>
        </defs>
        <rect width="100%" height="100%" fill="url(#sky)"/><path d="M0,550 Q400,530 800,550 L800,600 L0,600 Z" stroke="#4e342e" stroke-width="0" fill="#5d4037" stroke-linecap="round" stroke-opacity="1.0" />
<path d="M0,550 Q400,530 800,550" stroke="none" stroke-width="0" fill="#76ff03" stroke-linecap="round" stroke-opacity="0.1" />
<path d="M400,550 Q388.0,470.0 376,390" stroke="#4e342e" stroke-width="35" fill="none" stroke-linecap="round" stroke-opacity="1.0" />
<path d="M376,430 Q463.5,410 531.9261417329644,350.55166254557935" stroke="#5d4037" stroke-width="8" fill="none" stroke-linecap="round" stroke-opacity="1.0" />
<circle cx="545.365250549567" cy="323.9821560814713" r="9" fill="#43a047" fill-opacity="0.7" />
<circle cx="540.3527895703274" cy="329.1780735327315" r="8" fill="#2e7d32" fill-opacity="0.7" />
<circle cx="501.37414783318644" cy="329.815308817323" r="8" fill="#66bb6a" fill-opacity="0.7" />
<circle cx="539.7754009993029" cy="323.5288457445465" r="9" fill="#66bb6a" fill-opacity="0.7" />
<circle cx="535.0835044240504" cy="353.6318385100344" r="14" fill="#66bb6a" fill-opacity="0.7" />
<circle cx="514.2759814101279" cy="380.9210240497198" r="14" fill="#a5d6a7" fill-opacity="0.7" />
<circle cx="531.2631869921594" cy="333.1355407988977" r="14" fill="#66bb6a" fill-opacity="0.7" />
<circle cx="502.3372353546206" cy="358.38629936973774" r="14" fill="#a5d6a7" fill-opacity="0.7" />
<circle cx="555.2592957820343" cy="355.6527927011476" r="12" fill="#66bb6a" fill-opacity="0.7" />
<circle cx="513.4706434314021" cy="360.2318937305302" r="14" fill="#43a047" fill-opacity="0.7" />
<circle cx="557.4132268413026" cy="327.54122032644045" r="10" fill="#43a047" fill-opacity="0.7" />
<circle cx="521.6847766700234" cy="333.74552897442595" r="12" fill="#66bb6a" fill-opacity="0.7" />
<circle cx="548.8918533381568" cy="380.95664052151767" r="15" fill="#a5d6a7" fill-opacity="0.7" />
<circle cx="559.8096450759515" cy="384.86026871522205" r="11" fill="#43a047" fill-opacity="0.7" />
<circle cx="540.3685397182768" cy="367.29229176175227" r="14" fill="#43a047" fill-opacity="0.7" />
<path d="M376,415 Q313.1835443037975,395 293.5773941426483,320.18363818087323" stroke="#5d4037" stroke-width="8" fill="none" stroke-linecap="round" stroke-opacity="1.0" />
<circle cx="319.81982683768035" cy="328.7632487058069" r="15" fill="#66bb6a" fill-opacity="0.7" />
<circle cx="280.03014106639523" cy="317.1813850088359" r="14" fill="#66bb6a" fill-opacity="0.7" />
<circle cx="284.6034521733272" cy="296.48513550133924" r="14" fill="#a5d6a7" fill-opacity="0.7" />
<circle cx="297.55307943770106" cy="311.9714230532211" r="12" fill="#2e7d32" fill-opacity="0.7" />
<circle cx="261.01689555313277" cy="327.5443544678442" r="15" fill="#a5d6a7" fill-opacity="0.7" />
<circle cx="290.5125737198785" cy="297.5824918484802" r="9" fill="#2e7d32" fill-opacity="0.7" />
<circle cx="283.0840015400466" cy="297.0520953372939" r="10" fill="#a5d6a7" fill-opacity="0.7" />
<circle cx="301.63682492652737" cy="343.35044060229785" r="11" fill="#2e7d32" fill-opacity="0.7" />
<circle cx="314.10771225345087" cy="328.134402293578" r="9" fill="#66bb6a" fill-opacity="0.7" />
<circle cx="295.7786663994322" cy="293.3777777629219" r="13" fill="#43a047" fill-opacity="0.7" />
<path d="M376,400 Q432.6455696202532,380 457.4948254814042,321.3013618277465" stroke="#5d4037" stroke-width="8" fill="none" stroke-linecap="round" stroke-opacity="1.0" />
<circle cx="472.5162155917986" cy="300.9194015855965" r="16" fill="#2e7d32" fill-opacity="0.7" />
<circle cx="432.1926819465013" cy="343.08849938052276" r="8" fill="#2e7d32" fill-opacity="0.7" />
<circle cx="488.84688541153827" cy="290.4620011701326" r="8" fill="#2e7d32" fill-opacity="0.7" />
<circle cx="490.75826664893316" cy="322.08693070150537" r="10" fill="#a5d6a7" fill-opacity="0.7" />
<circle cx="467.78539350088334" cy="293.0238911112301" r="15" fill="#43a047" fill-opacity="0.7" />
<circle cx="490.3805350286498" cy="309.51286104121556" r="16" fill="#43a047" fill-opacity="0.7" />
<circle cx="429.48209839426414" cy="333.44185181486944" r="10" fill="#66bb6a" fill-opacity="0.7" />
<circle cx="463.80935914295094" cy="302.97447991407546" r="12" fill="#66bb6a" fill-opacity="0.7" />
<circle cx="439.63871995402565" cy="318.4989595963178" r="11" fill="#66bb6a" fill-opacity="0.7" />
<circle cx="438.4209116730786" cy="314.1336836489443" r="15" fill="#2e7d32" fill-opacity="0.7" />
<path d="M376,385 Q319.8291139240506,365 291.2145882977582,311.2971660469525" stroke="#5d4037" stroke-width="8" fill="none" stroke-linecap="round" stroke-opacity="1.0" />
<circle cx="267.378007953087" cy="297.5600501347598" r="11" fill="#43a047" fill-opacity="0.7" />
<circle cx="306.0109143293813" cy="304.66444372917204" r="11" fill="#2e7d32" fill-opacity="0.7" />
<circle cx="258.5095841349259" cy="318.21945891038376" r="14" fill="#a5d6a7" fill-opacity="0.7" />
<circle cx="256.2878376197489" cy="282.61033718291594" r="12" fill="#43a047" fill-opacity="0.7" />
<circle cx="258.80540413027336" cy="305.2969047293445" r="13" fill="#66bb6a" fill-opacity="0.7" />
<circle cx="284.07110833609516" cy="304.9473484098464" r="9" fill="#66bb6a" fill-opacity="0.7" />
<circle cx="268.3937555637675" cy="297.82132499731017" r="13" fill="#a5d6a7" fill-opacity="0.7" />
<circle cx="319.3687578213636" cy="315.6711912017923" r="8" fill="#2e7d32" fill-opacity="0.7" />
<circle cx="275.66900677611125" cy="315.7540119159405" r="10" fill="#66bb6a" fill-opacity="0.7" />
<circle cx="316.60574443928635" cy="289.99978083450156" r="9" fill="#66bb6a" fill-opacity="0.7" />
<path d="M376,370 Q432.1708860759494,350 471.27122599225675,310.4679307586115" stroke="#5d4037" stroke-width="8" fill="none" stroke-linecap="round" stroke-opacity="1.0" />
<circle cx="443.93199855008356" cy="287.8686548241049" r="11" fill="#66bb6a" fill-opacity="0.7" />
<circle cx="479.9946285538772" cy="313.4932411155344" r="10" fill="#66bb6a" fill-opacity="0.7" />
<circle cx="490.52367609015863" cy="289.06499460502897" r="15" fill="#2e7d32" fill-opacity="0.7" />
<circle cx="445.5193415450188" cy="282.81090741019597" r="16" fill="#2e7d32" fill-opacity="0.7" />
<circle cx="457.8193277094922" cy="340.0581317950214" r="11" fill="#a5d6a7" fill-opacity="0.7" />
<circle cx="469.5579134657082" cy="331.97758467477604" r="9" fill="#66bb6a" fill-opacity="0.7" />
<circle cx="449.45047367157724" cy="301.8156929945963" r="14" fill="#a5d6a7" fill-opacity="0.7" />
<circle cx="455.6383118279596" cy="326.45172995448195" r="12" fill="#a5d6a7" fill-opacity="0.7" />
<circle cx="463.8181914971164" cy="340.96926764101397" r="13" fill="#a5d6a7" fill-opacity="0.7" />
<circle cx="442.54121973587" cy="344.22459087330833" r="12" fill="#a5d6a7" fill-opacity="0.7" />
<path d="M376,355 Q320.30379746835445,335 288.22158694001075,286.41998755866086" stroke="#5d4037" stroke-width="8" fill="none" stroke-linecap="round" stroke-opacity="1.0" />
<circle cx="291.7850565470693" cy="290.27953604256413" r="9" fill="#66bb6a" fill-opacity="0.7" />
<circle cx="275.76532260845283" cy="292.35794878500246" r="15" fill="#2e7d32" fill-opacity="0.7" />
<circle cx="304.94373902815016" cy="264.8255726016801" r="9" fill="#43a047" fill-opacity="0.7" />
<circle cx="277.1758848162579" cy="263.60741140419566" r="11" fill="#43a047" fill-opacity="0.7" />
<circle cx="290.1931130127895" cy="313.9030284853318" r="13" fill="#a5d6a7" fill-opacity="0.7" />
<circle cx="277.6162106174818" cy="277.54784658391395" r="12" fill="#43a047" fill-opacity="0.7" />
<circle cx="321.2866962540023" cy="268.16107589478094" r="13" fill="#a5d6a7" fill-opacity="0.7" />
<circle cx="313.17645575551927" cy="272.95397796179765" r="10" fill="#a5d6a7" fill-opacity="0.7" />
<circle cx="268.2361833172002" cy="278.28296571606603" r="15" fill="#a5d6a7" fill-opacity="0.7" />
<circle cx="295.5252789875087" cy="268.09086619961784" r="10" fill="#43a047" fill-opacity="0.7" />
<text x="400" y="580" font-family="Segoe UI, Helvetica, Arial, sans-serif" font-size="20" fill="#3e2723" text-anchor="middle" font-weight="bold">@prithwiraj84's Contribution Garden</text>
<text x="400" y="595" font-family="Segoe UI, Helvetica, Arial, sans-serif" font-size="14" fill="#5d4037" text-anchor="middle" font-weight="bold">Grown over 5 years</text></svg>