<svg xmlns="http://www.w3.org/2000/svg" width="800" height="600" viewBox="0 0 800 600">
        <defs>
            <linearGradient id="sky" x1="0%" y1="0%" x2="0%" y2="100%">
                <stop offset="0%" style="stop-color:#e0f7fa;stop-opacity:1" />
                <stop offset="100%" style="stop-color:#ffffff;stop-opacity:1" />
            </linearGradient>
            <filter id="glow" x="-20%" y="-20%" width="140%" height="140%">
                <feGaussianBlur stdDeviation="2" result="coloredBlur"/>
                <feMerge>
                    <feMergeNode in="coloredBlur"/>
                    <feMergeNode in="SourceGraphic"/>
                </feMerge>
            </filter>
        </defs>
        <rect width="100%" height="100%" fill="url(#sky)"/><path d="M0,550 Q400,530 800,550 L800,600 L0,600 Z" stroke="#4e342e" stroke-width="0" fill="#5d4037" stroke-linecap="round" stroke-opacity="1.0" />
<path d="M0,550 Q400,530 800,550" stroke="none" stroke-width="0" fill="#76ff03" stroke-linecap="round" stroke-opacity="0.1" />
<path d="M400,550 Q414.5,470.0 429,390" stroke="#4e342e" stroke-width="35" fill="none" stroke-linecap="round" stroke-opacity="1.0" />
<path d="M429,430 Q508.84693877551024,410 562.9305549831213,343.02448063280434" stroke="#5d4037" stroke-width="8" fill="none" stroke-linecap="round" stroke-opacity="1.0" />
<circle cx="578.7840708732163" cy="316.42093973104295" r="15" fill="#43a047" fill-opacity="0.7" />
<circle cx="572.59313925183" cy="363.8317328867763" r="11" fill="#a5d6a7" fill-opacity="0.7" />
<circle cx="552.3993425215062" cy="377.49451773947726" r="13" fill="#43a047" fill-opacity="0.7" />
<circle cx="558.1519477809434" cy="320.1824370375274" r="12" fill="#a5d6a7" fill-opacity="0.7" />
<circle cx="568.0755343303457" cy="316.41328048726194" r="9" fill="#2e7d32" fill-opacity="0.7" />
<circle cx="584.1326214065647" cy="342.5408661902672" r="16" fill="#43a047" fill-opacity="0.7" />
<circle cx="592.5157480953688" cy="363.6191101174378" r="9" fill="#43a047" fill-opacity="0.7" />
<circle cx="596.3535255856294" cy="357.56434718905655" r="10" fill="#66bb6a" fill-opacity="0.7" />
<circle cx="590.4010698979298" cy="365.70010922063614" r="12" fill="#43a047" fill-opacity="0.7" />
<circle cx="568.1656493187822" cy="337.7460750224331" r="8" fill="#2e7d32" fill-opacity="0.7" />
<path d="M429,415 Q362.1632653061224,395 337.8349130936864,317.2374133549884" stroke="#5d4037" stroke-width="8" fill="none" stroke-linecap="round" stroke-opacity="1.0" />
<circle cx="355.33027148381603" cy="351.51788905682866" r="12" fill="#43a047" fill-opacity="0.7" />
<circle cx="348.8785005689321" cy="317.3903543199105" r="13" fill="#66bb6a" fill-opacity="0.7" />
<circle cx="314.8620987031396" cy="345.661251969386" r="11" fill="#66bb6a" fill-opacity="0.7" />
<circle cx="337.70911911127473" cy="319.15275595333145" r="9" fill="#a5d6a7" fill-opacity="0.7" />
<circle cx="366.13780381335545" cy="299.89031509844034" r="11" fill="#2e7d32" fill-opacity="0.7" />
<circle cx="313.87708887619806" cy="317.6797718752646" r="13" fill="#2e7d32" fill-opacity="0.7" />
<circle cx="331.44952956806986" cy="338.0674442578438" r="13" fill="#43a047" fill-opacity="0.7" />
<circle cx="345.1104549681016" cy="325.6316023753564" r="12" fill="#a5d6a7" fill-opacity="0.7" />
<circle cx="371.61161768776515" cy="311.4566681434067" r="12" fill="#a5d6a7" fill-opacity="0.7" />
<circle cx="309.50782586538105" cy="286.9684330830353" r="8" fill="#2e7d32" fill-opacity="0.7" />
<path d="M429,400 Q488.94897959183675,380 523.4808811722345,326.18344556044406" stroke="#5d4037" stroke-width="8" fill="none" stroke-linecap="round" stroke-opacity="1.0" />
<circle cx="555.7709396281941" cy="320.8678958161934" r="15" fill="#2e7d32" fill-opacity="0.7" />
<circle cx="500.33339010939744" cy="357.8012852443702" r="8" fill="#43a047" fill-opacity="0.7" />
<circle cx="547.6763542307372" cy="341.66554811547127" r="10" fill="#2e7d32" fill-opacity="0.7" />
<circle cx="557.2794787486132" cy="345.53486880547837" r="9" fill="#a5d6a7" fill-opacity="0.7" />
<circle cx="489.1518770986967" cy="326.56346220830176" r="16" fill="#66bb6a" fill-opacity="0.7" />
<circle cx="514.8529451755414" cy="337.8648066264875" r="14" fill="#a5d6a7" fill-opacity="0.7" />
<circle cx="499.21313107383753" cy="293.6130272035119" r="13" fill="#43a047" fill-opacity="0.7" />
<circle cx="538.214822856953" cy="331.69370969980343" r="16" fill="#2e7d32" fill-opacity="0.7" />
<circle cx="536.7126726104452" cy="330.3543334496" r="10" fill="#43a047" fill-opacity="0.7" />
<circle cx="488.6502851524037" cy="341.5674599072098" r="8" fill="#43a047" fill-opacity="0.7" />
<path d="M429,385 Q369.81632653061223,365 371.61437148104585,281.4735856855409" stroke="#5d4037" stroke-width="8" fill="none" stroke-linecap="round" stroke-opacity="1.0" />
<circle cx="406.54741905354865" cy="247.4336243422543" r="9" fill="#2e7d32" fill-opacity="0.7" />
<circle cx="353.89355333382974" cy="313.5223794054024" r="11" fill="#43a047" fill-opacity="0.7" />
<circle cx="378.1955370784471" cy="297.40107200369886" r="16" fill="#2e7d32" fill-opacity="0.7" />
<circle cx="400.17757911316426" cy="262.90559326771137" r="16" fill="#2e7d32" fill-opacity="0.7" />
<circle cx="399.14989296627056" cy="310.2637638683297" r="9" fill="#66bb6a" fill-opacity="0.7" />
<circle cx="343.495970720594" cy="266.7430302931585" r="8" fill="#2e7d32" fill-opacity="0.7" />
<circle cx="364.32252153243104" cy="251.3983911540428" r="14" fill="#43a047" fill-opacity="0.7" />
<circle cx="376.32354288147235" cy="292.3717745954763" r="11" fill="#a5d6a7" fill-opacity="0.7" />
<circle cx="370.6582783863172" cy="261.3550403971211" r="9" fill="#a5d6a7" fill-opacity="0.7" />
<circle cx="379.2887223038467" cy="291.8481061468565" r="11" fill="#66bb6a" fill-opacity="0.7" />
<path d="M429,370 Q485.1224489795918,350 485.12244897959187,272.7930669221548" stroke="#5d4037" stroke-width="8" fill="none" stroke-linecap="round" stroke-opacity="1.0" />
<circle cx="490.85203557458397" cy="288.16740721661256" r="16" fill="#a5d6a7" fill-opacity="0.7" />
<circle cx="514.5709358701329" cy="294.4449522345551" r="16" fill="#2e7d32" fill-opacity="0.7" />
<circle cx="459.21193748021267" cy="289.7943725852884" r="9" fill="#2e7d32" fill-opacity="0.7" />
<circle cx="501.5118629326669" cy="283.6377336093883" r="11" fill="#66bb6a" fill-opacity="0.7" />
<circle cx="452.3458541740484" cy="259.1962442354684" r="11" fill="#66bb6a" fill-opacity="0.7" />
<circle cx="509.1608269382382" cy="258.48725779074647" r="13" fill="#43a047" fill-opacity="0.7" />
<circle cx="464.04429054906535" cy="279.1919060224456" r="15" fill="#2e7d32" fill-opacity="0.7" />
<circle cx="471.4117556973884" cy="284.5071839120376" r="10" fill="#43a047" fill-opacity="0.7" />
<circle cx="502.84636186699714" cy="300.058740797842" r="9" fill="#66bb6a" fill-opacity="0.7" />
<circle cx="492.9114931673729" cy="288.06230545811724" r="15" fill="#2e7d32" fill-opacity="0.7" />
<path d="M429,355 Q375.9387755102041,335 341.0205025043629,295.65707963167586" stroke="#5d4037" stroke-width="8" fill="none" stroke-linecap="round" stroke-opacity="1.0" />
<circle cx="355.7344229895247" cy="314.3821084824405" r="13" fill="#a5d6a7" fill-opacity="0.7" />
<circle cx="320.37656039072465" cy="283.68250872437176" r="11" fill="#66bb6a" fill-opacity="0.7" />
<circle cx="321.0735756151907" cy="330.1672989882362" r="15" fill="#a5d6a7" fill-opacity="0.7" />
<circle cx="371.2444855718156" cy="286.3165195165308" r="12" fill="#2e7d32" fill-opacity="0.7" />
<circle cx="363.77401644201274" cy="264.5719986945925" r="8" fill="#43a047" fill-opacity="0.7" />
<circle cx="371.67192847129536" cy="326.88785656804106" r="8" fill="#43a047" fill-opacity="0.7" />
<circle cx="367.62289899747475" cy="319.0681880365382" r="14" fill="#66bb6a" fill-opacity="0.7" />
<circle cx="313.29626477132103" cy="270.4740102882605" r="8" fill="#43a047" fill-opacity="0.7" />
<circle cx="317.73545407579104" cy="316.8910441786258" r="10" fill="#43a047" fill-opacity="0.7" />
<circle cx="316.84026192093097" cy="262.2461887198456" r="8" fill="#43a047" fill-opacity="0.7" />
<text x="400" y="580" font-family="Segoe UI, Helvetica, Arial, sans-serif" font-size="20" fill="#3e2723" text-anchor="middle" font-weight="bold">@prithwiraj84's Contribution Garden</text>
<text x="400" y="595" font-family="Segoe UI, Helvetica, Arial, sans-serif" font-size="14" fill="#5d4037" text-anchor="middle" font-weight="bold">Grown over 5 years</text></svg>