<svg xmlns="http://www.w3.org/2000/svg" width="800" height="600" viewBox="0 0 800 600">
        <defs>
            <linearGradient id="sky" x1="0%" y1="0%" x2="0%" y2="100%">
                <stop offset="0%" style="stop-color:#e0f7fa;stop-opacity:1" />
                <stop offset="100%" style="stop-color:#ffffff;stop-opacity:1" />
            </linearGradient>
            <filter id="glow" x="-20%" y="-20%" width="140%" height="140%">
                <feGaussianBlur stdDeviation="2" result="coloredBlur"/>
                <feMerge>
                    <feMergeNode in="coloredBlur"/>
                    <feMergeNode in="SourceGraphic"/>
                </feMerge>
            </filter>
        </defs>
        <rect width="100%" height="100%" fill="url(#sky)"/><path d="M0,550 Q400,530 800,550 L800,600 L0,600 Z" stroke="#4e342e" stroke-width="0" fill="#5d4037" stroke-linecap="round" stroke-opacity="1.0" />
<path d="M0,550 Q400,530 800,550" stroke="none" stroke-width="0" fill="#76ff03" stroke-linecap="round" stroke-opacity="0.1" />
<path d="M400,550 Q391.5,470.0 383,390" stroke="#4e342e" stroke-width="35" fill="none" stroke-linecap="round" stroke-opacity="1.0" />
<path d="M383,430 Q463.5769230769231,410 522.5633246867999,349.4230769230769" stroke="#5d4037" stroke-width="8" fill="none" stroke-linecap="round" stroke-opacity="1.0" />
<circle cx="551.4830213623393" cy="360.27442950077176" r="13" fill="#43a047" fill-opacity="0.7" />
<circle cx="511.7448986397195" cy="358.10852853570753" r="12" fill="#a5d6a7" fill-opacity="0.7" />
<circle cx="498.7902445888241" cy="356.01587104951034" r="12" fill="#2e7d32" fill-opacity="0.7" />
<circle cx="544.1352706399736" cy="360.59972472057956" r="15" fill="#a5d6a7" fill-opacity="0.7" />
<circle cx="547.2379187170962" cy="381.4969224311904" r="16" fill="#2e7d32" fill-opacity="0.7" />
<circle cx="490.00960446528694" cy="377.44395282477484" r="15" fill="#66bb6a" fill-opacity="0.7" />
<circle cx="528.2490344661518" cy="350.3438297399315" r="10" fill="#a5d6a7" fill-opacity="0.7" />
<circle cx="511.2343135040047" cy="342.4516491013108" r="13" fill="#66bb6a" fill-opacity="0.7" />
<circle cx="497.76192086532257" cy="344.97467198501147" r="11" fill="#2e7d32" fill-opacity="0.7" />
<circle cx="555.8158830564953" cy="333.8301021457493" r="8" fill="#a5d6a7" fill-opacity="0.7" />
<path d="M383,415 Q317.4230769230769,395 279.64935885388763,334.2536295822886" stroke="#5d4037" stroke-width="8" fill="none" stroke-linecap="round" stroke-opacity="1.0" />
<circle cx="290.7560487464324" cy="362.04306424249694" r="15" fill="#43a047" fill-opacity="0.7" />
<circle cx="294.5574030876679" cy="312.49866718081864" r="8" fill="#a5d6a7" fill-opacity="0.7" />
<circle cx="252.89562686238298" cy="354.2624595949301" r="11" fill="#43a047" fill-opacity="0.7" />
<circle cx="276.87665560948653" cy="300.27765477556716" r="9" fill="#2e7d32" fill-opacity="0.7" />
<circle cx="306.845088213158" cy="365.9642069458416" r="13" fill="#43a047" fill-opacity="0.7" />
<circle cx="254.2708382701986" cy="346.73289781459806" r="10" fill="#2e7d32" fill-opacity="0.7" />
<circle cx="283.83734787276506" cy="351.33536180567273" r="10" fill="#a5d6a7" fill-opacity="0.7" />
<circle cx="295.2506569874154" cy="310.6516617924055" r="9" fill="#a5d6a7" fill-opacity="0.7" />
<circle cx="284.19971744128196" cy="349.4747637971897" r="10" fill="#a5d6a7" fill-opacity="0.7" />
<circle cx="301.16907977835643" cy="346.1274674927373" r="8" fill="#2e7d32" fill-opacity="0.7" />
<path d="M383,400 Q441.0769230769231,380 459.2037795212051,312.3375795279703" stroke="#5d4037" stroke-width="8" fill="none" stroke-linecap="round" stroke-opacity="1.0" />
<circle cx="465.8716731236425" cy="296.2443391622784" r="11" fill="#66bb6a" fill-opacity="0.7" />
<circle cx="493.34561687853795" cy="292.1881082419814" r="13" fill="#43a047" fill-opacity="0.7" />
<circle cx="483.5064269533248" cy="330.5666470032542" r="13" fill="#43a047" fill-opacity="0.7" />
<circle cx="472.3573198246296" cy="315.0280971593598" r="9" fill="#a5d6a7" fill-opacity="0.7" />
<circle cx="482.3662483901203" cy="341.15591652506805" r="8" fill="#2e7d32" fill-opacity="0.7" />
<circle cx="490.84197893766674" cy="303.149563312803" r="16" fill="#66bb6a" fill-opacity="0.7" />
<circle cx="475.19074250477445" cy="340.31109848558737" r="8" fill="#66bb6a" fill-opacity="0.7" />
<circle cx="425.859277689538" cy="330.063264404011" r="9" fill="#66bb6a" fill-opacity="0.7" />
<circle cx="456.9478454348951" cy="305.27003808738533" r="10" fill="#2e7d32" fill-opacity="0.7" />
<circle cx="489.40002875518235" cy="299.20862893061496" r="12" fill="#a5d6a7" fill-opacity="0.7" />
<path d="M383,385 Q325.5,365 283.4070785647896,327.5" stroke="#5d4037" stroke-width="8" fill="none" stroke-linecap="round" stroke-opacity="1.0" />
<circle cx="273.9831167965966" cy="306.4333591915472" r="13" fill="#66bb6a" fill-opacity="0.7" />
<circle cx="253.12457160391816" cy="349.06137699993764" r="13" fill="#43a047" fill-opacity="0.7" />
<circle cx="296.3446781345601" cy="314.14841109330507" r="8" fill="#a5d6a7" fill-opacity="0.7" />
<circle cx="283.1438905439787" cy="354.59426607440395" r="12" fill="#66bb6a" fill-opacity="0.7" />
<circle cx="307.8104675184498" cy="339.4455302927163" r="9" fill="#43a047" fill-opacity="0.7" />
<circle cx="295.85137867661064" cy="326.320301210191" r="8" fill="#2e7d32" fill-opacity="0.7" />
<circle cx="255.87100673917365" cy="356.2055011066308" r="11" fill="#a5d6a7" fill-opacity="0.7" />
<circle cx="267.17970366594034" cy="352.79280262399317" r="11" fill="#43a047" fill-opacity="0.7" />
<circle cx="318.03528214798973" cy="336.1825197094158" r="14" fill="#66bb6a" fill-opacity="0.7" />
<circle cx="253.14159794298735" cy="343.1095632360224" r="13" fill="#43a047" fill-opacity="0.7" />
<path d="M383,370 Q439.9230769230769,350 470.2112135243144,296.82110289722476" stroke="#5d4037" stroke-width="8" fill="none" stroke-linecap="round" stroke-opacity="1.0" />
<circle cx="504.34429758606325" cy="283.8001937261569" r="16" fill="#a5d6a7" fill-opacity="0.7" />
<circle cx="474.6113854642373" cy="318.18227896553753" r="13" fill="#66bb6a" fill-opacity="0.7" />
<circle cx="463.473232388669" cy="282.13001647636383" r="11" fill="#43a047" fill-opacity="0.7" />
<circle cx="464.0091496461648" cy="314.4514439143283" r="11" fill="#2e7d32" fill-opacity="0.7" />
<circle cx="449.27390008049827" cy="275.54104040748496" r="16" fill="#2e7d32" fill-opacity="0.7" />
<circle cx="449.0934807846827" cy="274.0597482574483" r="12" fill="#a5d6a7" fill-opacity="0.7" />
<circle cx="446.2920594225274" cy="302.73697003176466" r="9" fill="#66bb6a" fill-opacity="0.7" />
<circle cx="474.1557706744436" cy="294.2739580944062" r="12" fill="#43a047" fill-opacity="0.7" />
<circle cx="441.3407626648514" cy="329.3116016527986" r="12" fill="#43a047" fill-opacity="0.7" />
<circle cx="467.74662073218735" cy="278.2544532705628" r="12" fill="#66bb6a" fill-opacity="0.7" />
<path d="M383,355 Q326.65384615384613,335 316.7611234916559,263.83000794159244" stroke="#5d4037" stroke-width="8" fill="none" stroke-linecap="round" stroke-opacity="1.0" />
<circle cx="294.5672640004027" cy="296.09426049140484" r="14" fill="#2e7d32" fill-opacity="0.7" />
<circle cx="350.0614461174629" cy="262.24854160070004" r="15" fill="#66bb6a" fill-opacity="0.7" />
<circle cx="349.16015047473013" cy="233.82841458476884" r="8" fill="#43a047" fill-opacity="0.7" />
<circle cx="332.3717785542831" cy="260.24361729591266" r="10" fill="#66bb6a" fill-opacity="0.7" />
<circle cx="318.94647694405876" cy="234.38152135297804" r="8" fill="#2e7d32" fill-opacity="0.7" />
<circle cx="329.86075048598127" cy="249.18174569415623" r="16" fill="#a5d6a7" fill-opacity="0.7" />
<circle cx="285.2597990162126" cy="249.08563308035062" r="14" fill="#43a047" fill-opacity="0.7" />
<circle cx="331.29118876491157" cy="268.0020612109533" r="15" fill="#a5d6a7" fill-opacity="0.7" />
<circle cx="329.4115737064234" cy="263.18750596322514" r="16" fill="#43a047" fill-opacity="0.7" />
<circle cx="344.6001286392049" cy="285.0013665798144" r="9" fill="#43a047" fill-opacity="0.7" />
<text x="400" y="580" font-family="Segoe UI, Helvetica, Arial, sans-serif" font-size="20" fill="#3e2723" text-anchor="middle" font-weight="bold">@prithwiraj84's Contribution Garden</text>
<text x="400" y="595" font-family="Segoe UI, Helvetica, Arial, sans-serif" font-size="14" fill="#5d4037" text-anchor="middle" font-weight="bold">Grown over 5 years</text></svg>