<svg xmlns="http://www.w3.org/2000/svg" width="800" height="600" viewBox="0 0 800 600">
        <defs>
            <linearGradient id="sky" x1="0%" y1="0%" x2="0%" y2="100%">
                <stop offset="0%" style="stop-color:#e0f7fa;stop-opacity:1" />
                <stop offset="100%" style="stop-color:#ffffff;stop-opacity:1" />
            </linearGradient>
            <filter id="glow" x="-20%" y="-20%" width="140%" height="140%">
                <feGaussianBlur stdDeviation="2" result="coloredBlur"/>
                <feMerge>
                    <feMergeNode in="coloredBlur"/>
                    <feMergeNode in="SourceGraphic"/>
                </feMerge>
            </filter>
        </defs>
        <rect width="100%" height="100%" fill="url(#sky)"/><path d="M0,550 Q400,530 800,550 L800,600 L0,600 Z" stroke="#4e342e" stroke-width="0" fill="#5d4037" stroke-linecap="round" stroke-opacity="1.0" />
<path d="M0,550 Q400,530 800,550" stroke="none" stroke-width="0" fill="#76ff03" stroke-linecap="round" stroke-opacity="0.1" />
<path d="M400,550 Q389.5,470.0 379,390" stroke="#4e342e" stroke-width="35" fill="none" stroke-linecap="round" stroke-opacity="1.0" />
<path d="M379,430 Q454.2808988764045,410 477.777426836773,316.36956882039163" stroke="#5d4037" stroke-width="8" fill="none" stroke-linecap="round" stroke-opacity="1.0" />
<circle cx="505.1221005364129" cy="285.5716804211218" r="10" fill="#2e7d32" fill-opacity="0.7" />
<circle cx="463.4542947549488" cy="340.56813158839685" r="13" fill="#2e7d32" fill-opacity="0.7" />
<circle cx="511.99245831650273" cy="283.2927037101993" r="8" fill="#43a047" fill-opacity="0.7" />
<circle cx="498.4629106430922" cy="295.46920397003163" r="11" fill="#66bb6a" fill-opacity="0.7" />
<circle cx="454.835642619852" cy="348.66450783005314" r="11" fill="#66bb6a" fill-opacity="0.7" />
<circle cx="467.2000029547938" cy="308.24337081863314" r="8" fill="#a5d6a7" fill-opacity="0.7" />
<circle cx="492.2202287907414" cy="294.61828915834934" r="10" fill="#43a047" fill-opacity="0.7" />
<circle cx="456.14895577183034" cy="301.6329324300553" r="14" fill="#2e7d32" fill-opacity="0.7" />
<circle cx="506.50950815407845" cy="286.5517927601982" r="12" fill="#a5d6a7" fill-opacity="0.7" />
<circle cx="485.5312506840801" cy="318.1928431913736" r="13" fill="#a5d6a7" fill-opacity="0.7" />
<path d="M379,415 Q310.4606741573034,395 321.0680585029603,290.7645505410435" stroke="#5d4037" stroke-width="8" fill="none" stroke-linecap="round" stroke-opacity="1.0" />
<circle cx="316.4559901029165" cy="274.01652114608345" r="13" fill="#a5d6a7" fill-opacity="0.7" />
<circle cx="314.65919351609483" cy="267.4891620184824" r="10" fill="#a5d6a7" fill-opacity="0.7" />
<circle cx="324.9504586366065" cy="304.5392549938759" r="8" fill="#a5d6a7" fill-opacity="0.7" />
<circle cx="351.4941448916783" cy="323.194055380985" r="14" fill="#43a047" fill-opacity="0.7" />
<circle cx="299.86802436635804" cy="272.7067321208949" r="11" fill="#a5d6a7" fill-opacity="0.7" />
<circle cx="317.61230309678996" cy="278.69787611483974" r="9" fill="#2e7d32" fill-opacity="0.7" />
<circle cx="348.5675962024541" cy="322.0843918894026" r="13" fill="#66bb6a" fill-opacity="0.7" />
<circle cx="293.27347575517325" cy="300.4239481550304" r="16" fill="#2e7d32" fill-opacity="0.7" />
<circle cx="304.4753146181089" cy="289.9405277027237" r="9" fill="#a5d6a7" fill-opacity="0.7" />
<circle cx="319.9835346127787" cy="265.0764175037878" r="10" fill="#43a047" fill-opacity="0.7" />
<path d="M379,400 Q439.9550561797753,380 450.6569661502622,301.3726473149643" stroke="#5d4037" stroke-width="8" fill="none" stroke-linecap="round" stroke-opacity="1.0" />
<circle cx="471.9199507493004" cy="271.63829608775836" r="15" fill="#a5d6a7" fill-opacity="0.7" />
<circle cx="472.02511635383564" cy="308.9049512558285" r="8" fill="#a5d6a7" fill-opacity="0.7" />
<circle cx="481.8109714295283" cy="320.2547088687555" r="14" fill="#66bb6a" fill-opacity="0.7" />
<circle cx="439.9702596237109" cy="324.0453359024224" r="16" fill="#43a047" fill-opacity="0.7" />
<circle cx="435.907797825288" cy="313.1878255594205" r="15" fill="#66bb6a" fill-opacity="0.7" />
<circle cx="447.7009346747588" cy="308.05882743997614" r="13" fill="#a5d6a7" fill-opacity="0.7" />
<circle cx="485.587419877225" cy="308.45975060018316" r="13" fill="#a5d6a7" fill-opacity="0.7" />
<circle cx="419.75762927345386" cy="320.9286202180812" r="8" fill="#43a047" fill-opacity="0.7" />
<circle cx="426.79736024761087" cy="313.22997480029073" r="11" fill="#a5d6a7" fill-opacity="0.7" />
<circle cx="416.910789471531" cy="315.6415010115478" r="11" fill="#66bb6a" fill-opacity="0.7" />
<path d="M379,385 Q318.8876404494382,365 273.84909138885916,326.7138995883617" stroke="#5d4037" stroke-width="8" fill="none" stroke-linecap="round" stroke-opacity="1.0" />
<circle cx="251.69277049299743" cy="314.89969569122627" r="14" fill="#66bb6a" fill-opacity="0.7" />
<circle cx="262.75299900685843" cy="332.5592327961826" r="8" fill="#2e7d32" fill-opacity="0.7" />
<circle cx="273.69126771578743" cy="345.7670349152904" r="10" fill="#2e7d32" fill-opacity="0.7" />
<circle cx="308.0118395508075" cy="309.6681346742212" r="8" fill="#43a047" fill-opacity="0.7" />
<circle cx="260.8615676351225" cy="322.3185400915624" r="11" fill="#43a047" fill-opacity="0.7" />
<circle cx="280.7903151866675" cy="335.43152482971607" r="9" fill="#2e7d32" fill-opacity="0.7" />
<circle cx="274.4461067712931" cy="309.71631899677834" r="11" fill="#43a047" fill-opacity="0.7" />
<circle cx="267.7705427226708" cy="322.8173773401485" r="14" fill="#2e7d32" fill-opacity="0.7" />
<circle cx="265.6292518221937" cy="350.73086463268044" r="15" fill="#43a047" fill-opacity="0.7" />
<circle cx="261.25742568995224" cy="303.53481567202465" r="15" fill="#2e7d32" fill-opacity="0.7" />
<path d="M379,370 Q435.7415730337079,350 470.8097937436738,303.2962803578205" stroke="#5d4037" stroke-width="8" fill="none" stroke-linecap="round" stroke-opacity="1.0" />
<circle cx="454.09400758975124" cy="272.2798149275284" r="16" fill="#66bb6a" fill-opacity="0.7" />
<circle cx="456.02574591048824" cy="283.20726266096756" r="15" fill="#66bb6a" fill-opacity="0.7" />
<circle cx="467.5697982703873" cy="310.8644054846117" r="9" fill="#66bb6a" fill-opacity="0.7" />
<circle cx="475.41720226342915" cy="305.54641519279465" r="8" fill="#66bb6a" fill-opacity="0.7" />
<circle cx="499.43992108093045" cy="304.99767562311706" r="9" fill="#2e7d32" fill-opacity="0.7" />
<circle cx="449.2197992742834" cy="313.1448340018312" r="14" fill="#66bb6a" fill-opacity="0.7" />
<circle cx="468.1798866771365" cy="329.1220816129718" r="13" fill="#a5d6a7" fill-opacity="0.7" />
<circle cx="477.4162883568146" cy="318.8246154226286" r="15" fill="#43a047" fill-opacity="0.7" />
<circle cx="472.8581057778716" cy="298.6789878308814" r="8" fill="#a5d6a7" fill-opacity="0.7" />
<circle cx="471.31593921288703" cy="289.97731979365" r="8" fill="#66bb6a" fill-opacity="0.7" />
<path d="M379,355 Q325.6292134831461,335 313.2833256674859,270.8864925925409" stroke="#5d4037" stroke-width="8" fill="none" stroke-linecap="round" stroke-opacity="1.0" />
<circle cx="347.89810351265646" cy="238.1337310997224" r="15" fill="#66bb6a" fill-opacity="0.7" />
<circle cx="348.149136050393" cy="272.1840947296989" r="10" fill="#66bb6a" fill-opacity="0.7" />
<circle cx="305.85733755241927" cy="294.89545425166995" r="8" fill="#2e7d32" fill-opacity="0.7" />
<circle cx="339.65967118374334" cy="301.04254539959453" r="13" fill="#2e7d32" fill-opacity="0.7" />
<circle cx="300.5679878847943" cy="293.5926911303066" r="16" fill="#a5d6a7" fill-opacity="0.7" />
<circle cx="314.2093410746479" cy="265.66114518904203" r="14" fill="#a5d6a7" fill-opacity="0.7" />
<circle cx="339.1832512244557" cy="251.3694947911767" r="11" fill="#43a047" fill-opacity="0.7" />
<circle cx="288.8554905039084" cy="300.5769763177549" r="10" fill="#66bb6a" fill-opacity="0.7" />
<circle cx="299.79491032730925" cy="255.64009482945625" r="8" fill="#2e7d32" fill-opacity="0.7" />
<circle cx="288.34607249270766" cy="241.45603283768648" r="11" fill="#66bb6a" fill-opacity="0.7" />
<text x="400" y="580" font-family="Segoe UI, Helvetica, Arial, sans-serif" font-size="20" fill="#3e2723" text-anchor="middle" font-weight="bold">@prithwiraj84's Contribution Garden</text>
<text x="400" y="595" font-family="Segoe UI, Helvetica, Arial, sans-serif" font-size="14" fill="#5d4037" text-anchor="middle" font-weight="bold">Grown over 5 years</text></svg>