<svg xmlns="http://www.w3.org/2000/svg" width="800" height="600" viewBox="0 0 800 600">
        <defs>
            <linearGradient id="sky" x1="0%" y1="0%" x2="0%" y2="100%">
                <stop offset="0%" style="stop-color:#e0f7fa;stop-opacity:1" />
                <stop offset="100%" style="stop-color:#ffffff;stop-opacity:1" />
            </linearGradient>
            <filter id="glow" x="-20%" y="-20%" width="140%" height="140%">
                <feGaussianBlur stdDeviation="2" result="coloredBlur"/>
                <feMerge>
                    <feMergeNode in="coloredBlur"/>
                    <feMergeNode in="SourceGraphic"/>
                </feMerge>
            </filter>
        </defs>
        <rect width="100%" height="100%" fill="url(#sky)"/><path d="M0,550 Q400,530 800,550 L800,600 L0,600 Z" stroke="#4e342e" stroke-width="0" fill="#5d4037" stroke-linecap="round" stroke-opacity="1.0" />
<path d="M0,550 Q400,530 800,550" stroke="none" stroke-width="0" fill="#76ff03" stroke-linecap="round" stroke-opacity="0.1" />
<path d="M400,550 Q406.5,470.0 413,390" stroke="#4e342e" stroke-width="35" fill="none" stroke-linecap="round" stroke-opacity="1.0" />
<path d="M413,430 Q492.8828125,410 492.8828125,291.6389100985018" stroke="#5d4037" stroke-width="8" fill="none" stroke-linecap="round" stroke-opacity="1.0" />
<circle cx="512.5073923712812" cy="280.890270944441" r="8" fill="#a5d6a7" fill-opacity="0.7" />
<circle cx="509.5651190206372" cy="285.81463577949484" r="16" fill="#a5d6a7" fill-opacity="0.7" />
<circle cx="466.09919778643734" cy="286.45853619388026" r="12" fill="#a5d6a7" fill-opacity="0.7" />
<circle cx="467.9778598519942" cy="280.48638785552157" r="10" fill="#a5d6a7" fill-opacity="0.7" />
<circle cx="516.4189563342916" cy="280.35854394911235" r="10" fill="#43a047" fill-opacity="0.7" />
<circle cx="514.1364816929968" cy="309.2332752348491" r="16" fill="#43a047" fill-opacity="0.7" />
<circle cx="477.0007279146982" cy="291.4254433732078" r="13" fill="#66bb6a" fill-opacity="0.7" />
<circle cx="495.41606528823013" cy="307.0734925897211" r="14" fill="#a5d6a7" fill-opacity="0.7" />
<circle cx="477.94161570487734" cy="301.0436668521385" r="9" fill="#66bb6a" fill-opacity="0.7" />
<circle cx="499.68514381403816" cy="257.60187341758115" r="10" fill="#2e7d32" fill-opacity="0.7" />
<path d="M413,415 Q347.1796875,395 319.91602138286464,321.91602138286464" stroke="#5d4037" stroke-width="8" fill="none" stroke-linecap="round" stroke-opacity="1.0" />
<circle cx="319.6991130245097" cy="292.1894620266574" r="8" fill="#66bb6a" fill-opacity="0.7" />
<circle cx="322.3614009484214" cy="334.11599853987445" r="12" fill="#43a047" fill-opacity="0.7" />
<circle cx="350.50602871086033" cy="355.34749310637625" r="11" fill="#2e7d32" fill-opacity="0.7" />
<circle cx="295.0832970566594" cy="348.23598013127776" r="8" fill="#a5d6a7" fill-opacity="0.7" />
<circle cx="303.3974728693819" cy="286.94735988181077" r="12" fill="#2e7d32" fill-opacity="0.7" />
<circle cx="350.37126950743067" cy="356.56995204711563" r="13" fill="#a5d6a7" fill-opacity="0.7" />
<circle cx="353.93735684573744" cy="290.01115595479604" r="16" fill="#66bb6a" fill-opacity="0.7" />
<circle cx="342.01837888499705" cy="349.43766564021206" r="14" fill="#2e7d32" fill-opacity="0.7" />
<circle cx="329.792991034181" cy="342.8951866099912" r="8" fill="#66bb6a" fill-opacity="0.7" />
<circle cx="341.64657069607756" cy="351.58210103209353" r="8" fill="#43a047" fill-opacity="0.7" />
<path d="M413,400 Q471.203125,380 515.7806182312345,345.3505758944549" stroke="#5d4037" stroke-width="8" fill="none" stroke-linecap="round" stroke-opacity="1.0" />
<circle cx="529.3728050028168" cy="329.61026627349287" r="14" fill="#43a047" fill-opacity="0.7" />
<circle cx="531.5318593686102" cy="340.1524179991458" r="16" fill="#66bb6a" fill-opacity="0.7" />
<circle cx="513.2923337194833" cy="350.4053580280015" r="11" fill="#2e7d32" fill-opacity="0.7" />
<circle cx="529.9421947062918" cy="335.260719829368" r="13" fill="#43a047" fill-opacity="0.7" />
<circle cx="506.8335549682353" cy="323.8059546734444" r="8" fill="#a5d6a7" fill-opacity="0.7" />
<circle cx="509.5288770190465" cy="331.09659009154507" r="11" fill="#43a047" fill-opacity="0.7" />
<circle cx="534.7250170507673" cy="340.8041279189681" r="9" fill="#43a047" fill-opacity="0.7" />
<circle cx="488.4043980362281" cy="349.56152978090154" r="9" fill="#2e7d32" fill-opacity="0.7" />
<circle cx="526.6263160032414" cy="355.64971308422895" r="11" fill="#43a047" fill-opacity="0.7" />
<circle cx="481.66268043099643" cy="359.46178075853044" r="9" fill="#43a047" fill-opacity="0.7" />
<path d="M413,385 Q355.3828125,365 313.20410386077754,327.3828125" stroke="#5d4037" stroke-width="8" fill="none" stroke-linecap="round" stroke-opacity="1.0" />
<circle cx="330.5144261754697" cy="357.51455758662473" r="13" fill="#43a047" fill-opacity="0.7" />
<circle cx="319.87053208218134" cy="354.7413241711826" r="8" fill="#a5d6a7" fill-opacity="0.7" />
<circle cx="283.0306191925509" cy="342.41716646191213" r="15" fill="#43a047" fill-opacity="0.7" />
<circle cx="344.67668984562306" cy="309.50900038753826" r="8" fill="#43a047" fill-opacity="0.7" />
<circle cx="295.62362124749103" cy="322.26312145785465" r="12" fill="#2e7d32" fill-opacity="0.7" />
<circle cx="308.04217042626067" cy="339.9801266022049" r="8" fill="#66bb6a" fill-opacity="0.7" />
<circle cx="304.51123373194054" cy="354.0541267425493" r="8" fill="#2e7d32" fill-opacity="0.7" />
<circle cx="303.04171641534595" cy="341.6431450874189" r="9" fill="#43a047" fill-opacity="0.7" />
<circle cx="308.8935986773774" cy="323.41602614536333" r="15" fill="#a5d6a7" fill-opacity="0.7" />
<circle cx="295.5654379056903" cy="360.7320225958538" r="9" fill="#a5d6a7" fill-opacity="0.7" />
<path d="M413,370 Q470.03125,350 471.74653041942804,272.2293547636653" stroke="#5d4037" stroke-width="8" fill="none" stroke-linecap="round" stroke-opacity="1.0" />
<circle cx="487.9785409749757" cy="244.85141202888096" r="14" fill="#43a047" fill-opacity="0.7" />
<circle cx="472.6686316081435" cy="247.44951934973162" r="10" fill="#43a047" fill-opacity="0.7" />
<circle cx="463.59244932104036" cy="262.16643130563335" r="13" fill="#2e7d32" fill-opacity="0.7" />
<circle cx="462.8631697720636" cy="303.6806204262114" r="12" fill="#2e7d32" fill-opacity="0.7" />
<circle cx="456.234376752309" cy="243.82700292586588" r="15" fill="#2e7d32" fill-opacity="0.7" />
<circle cx="473.52391740987" cy="303.68840903568565" r="10" fill="#a5d6a7" fill-opacity="0.7" />
<circle cx="503.9223311968009" cy="249.70121218416944" r="14" fill="#66bb6a" fill-opacity="0.7" />
<circle cx="446.6383217451996" cy="242.5490114265096" r="16" fill="#2e7d32" fill-opacity="0.7" />
<circle cx="488.7826977399101" cy="255.72623564981137" r="9" fill="#a5d6a7" fill-opacity="0.7" />
<circle cx="459.05495863772137" cy="255.99757472018615" r="11" fill="#a5d6a7" fill-opacity="0.7" />
<path d="M413,355 Q356.5546875,335 360.00106185737405,255.3234943999102" stroke="#5d4037" stroke-width="8" fill="none" stroke-linecap="round" stroke-opacity="1.0" />
<circle cx="370.3398248837595" cy="260.86937167654867" r="11" fill="#43a047" fill-opacity="0.7" />
<circle cx="362.30561221839616" cy="227.59929007644195" r="16" fill="#66bb6a" fill-opacity="0.7" />
<circle cx="335.16353640020145" cy="236.73383799887426" r="12" fill="#a5d6a7" fill-opacity="0.7" />
<circle cx="365.24461885726356" cy="243.13520387661154" r="8" fill="#2e7d32" fill-opacity="0.7" />
<circle cx="336.917804346196" cy="238.07947146264397" r="12" fill="#66bb6a" fill-opacity="0.7" />
<circle cx="370.4534946854921" cy="237.81301283160573" r="10" fill="#66bb6a" fill-opacity="0.7" />
<circle cx="351.1657495126965" cy="231.03209139204426" r="9" fill="#a5d6a7" fill-opacity="0.7" />
<circle cx="331.6937856372494" cy="250.09366316091825" r="15" fill="#2e7d32" fill-opacity="0.7" />
<circle cx="369.1714426740158" cy="254.78782556461357" r="16" fill="#43a047" fill-opacity="0.7" />
<circle cx="368.9245325916442" cy="240.73720359748583" r="14" fill="#2e7d32" fill-opacity="0.7" />
<text x="400" y="580" font-family="Segoe UI, Helvetica, Arial, sans-serif" font-size="20" fill="#3e2723" text-anchor="middle" font-weight="bold">@prithwiraj84's Contribution Garden</text>
<text x="400" y="595" font-family="Segoe UI, Helvetica, Arial, sans-serif" font-size="14" fill="#5d4037" text-anchor="middle" font-weight="bold">Grown over 5 years</text></svg>