<svg xmlns="http://www.w3.org/2000/svg" width="800" height="600" viewBox="0 0 800 600">
        <defs>
            <linearGradient id="sky" x1="0%" y1="0%" x2="0%" y2="100%">
                <stop offset="0%" style="stop-color:#e0f7fa;stop-opacity:1" />
                <stop offset="100%" style="stop-color:#ffffff;stop-opacity:1" />
            </linearGradient>
            <filter id="glow" x="-20%" y="-20%" width="140%" height="140%">
                <feGaussianBlur stdDeviation="2" result="coloredBlur"/>
                <feMerge>
                    <feMergeNode in="coloredBlur"/>
                    <feMergeNode in="SourceGraphic"/>
                </feMerge>
            </filter>
        </defs>
        <rect width="100%" height="100%" fill="url(#sky)"/><path d="M0,550 Q400,530 800,550 L800,600 L0,600 Z" stroke="#4e342e" stroke-width="0" fill="#5d4037" stroke-linecap="round" stroke-opacity="1.0" />
<path d="M0,550 Q400,530 800,550" stroke="none" stroke-width="0" fill="#76ff03" stroke-linecap="round" stroke-opacity="0.1" />
<path d="M400,550 Q408.0,470.0 416,390" stroke="#4e342e" stroke-width="35" fill="none" stroke-linecap="round" stroke-opacity="1.0" />
<path d="M416,430 Q495.3814432989691,410 546.0509431139224,338.9373492803494" stroke="#5d4037" stroke-width="8" fill="none" stroke-linecap="round" stroke-opacity="1.0" />
<circle cx="565.6928822808237" cy="307.6496156399429" r="10" fill="#43a047" fill-opacity="0.7" />
<circle cx="514.9216576507586" cy="328.04786816836963" r="11" fill="#43a047" fill-opacity="0.7" />
<circle cx="573.081575231729" cy="366.7523152413918" r="14" fill="#66bb6a" fill-opacity="0.7" />
<circle cx="564.5000602443059" cy="337.38915824809266" r="16" fill="#43a047" fill-opacity="0.7" />
<circle cx="560.9233222438669" cy="304.5598741475562" r="13" fill="#a5d6a7" fill-opacity="0.7" />
<circle cx="557.7959072881964" cy="373.7706433671144" r="8" fill="#43a047" fill-opacity="0.7" />
<circle cx="564.866767964763" cy="365.9417937377821" r="12" fill="#66bb6a" fill-opacity="0.7" />
<circle cx="530.1373497382715" cy="344.4786072871563" r="11" fill="#43a047" fill-opacity="0.7" />
<circle cx="518.4532097689673" cy="368.4162543013951" r="14" fill="#2e7d32" fill-opacity="0.7" />
<circle cx="557.9221660122537" cy="304.8476511103697" r="11" fill="#2e7d32" fill-opacity="0.7" />
<path d="M416,415 Q348.9896907216495,395 301.1219081533252,345.974278620302" stroke="#5d4037" stroke-width="8" fill="none" stroke-linecap="round" stroke-opacity="1.0" />
<circle cx="278.08857166422206" cy="365.77895957075526" r="16" fill="#43a047" fill-opacity="0.7" />
<circle cx="270.8372359015131" cy="358.2041091559083" r="14" fill="#43a047" fill-opacity="0.7" />
<circle cx="294.86108291679517" cy="335.2510003996886" r="15" fill="#66bb6a" fill-opacity="0.7" />
<circle cx="315.50527197527197" cy="331.0924492101508" r="13" fill="#43a047" fill-opacity="0.7" />
<circle cx="269.1671469738266" cy="344.927381135077" r="13" fill="#a5d6a7" fill-opacity="0.7" />
<circle cx="268.85360069126756" cy="343.79235744359414" r="8" fill="#a5d6a7" fill-opacity="0.7" />
<circle cx="294.34020303544435" cy="367.7614776174577" r="10" fill="#2e7d32" fill-opacity="0.7" />
<circle cx="267.00992807121014" cy="380.9210642513444" r="9" fill="#66bb6a" fill-opacity="0.7" />
<circle cx="327.51244321071846" cy="344.5389868416873" r="12" fill="#2e7d32" fill-opacity="0.7" />
<circle cx="300.13947712359237" cy="323.6115937457021" r="8" fill="#43a047" fill-opacity="0.7" />
<path d="M416,400 Q476.0515463917526,380 502.3949347829411,316.5693812799245" stroke="#5d4037" stroke-width="8" fill="none" stroke-linecap="round" stroke-opacity="1.0" />
<circle cx="506.5548068010907" cy="304.16138833363794" r="11" fill="#2e7d32" fill-opacity="0.7" />
<circle cx="500.1473283731041" cy="298.83273855989665" r="8" fill="#2e7d32" fill-opacity="0.7" />
<circle cx="531.4652443084598" cy="282.67934073960225" r="12" fill="#a5d6a7" fill-opacity="0.7" />
<circle cx="482.20528700845307" cy="332.2839964935525" r="10" fill="#43a047" fill-opacity="0.7" />
<circle cx="471.25789209272216" cy="297.7658407074085" r="10" fill="#a5d6a7" fill-opacity="0.7" />
<circle cx="480.99076804063395" cy="324.782270646178" r="13" fill="#66bb6a" fill-opacity="0.7" />
<circle cx="526.7519279199759" cy="332.6147667771775" r="11" fill="#a5d6a7" fill-opacity="0.7" />
<circle cx="513.4259057698666" cy="312.61415960473374" r="8" fill="#43a047" fill-opacity="0.7" />
<circle cx="500.28381843596844" cy="289.62136915993375" r="16" fill="#2e7d32" fill-opacity="0.7" />
<circle cx="495.63726322540936" cy="300.9862329768599" r="9" fill="#66bb6a" fill-opacity="0.7" />
<path d="M416,385 Q356.7216494845361,365 326.52412193235176,307.2198058413316" stroke="#5d4037" stroke-width="8" fill="none" stroke-linecap="round" stroke-opacity="1.0" />
<circle cx="311.3261526141758" cy="325.1142923795628" r="16" fill="#2e7d32" fill-opacity="0.7" />
<circle cx="359.31828881776573" cy="290.2203248733387" r="13" fill="#66bb6a" fill-opacity="0.7" />
<circle cx="310.2903568808321" cy="333.05366187250104" r="15" fill="#2e7d32" fill-opacity="0.7" />
<circle cx="293.8438308868541" cy="281.2206211312613" r="11" fill="#2e7d32" fill-opacity="0.7" />
<circle cx="353.83061208595984" cy="283.65665474251347" r="14" fill="#43a047" fill-opacity="0.7" />
<circle cx="322.8477071457477" cy="273.93022892907" r="9" fill="#a5d6a7" fill-opacity="0.7" />
<circle cx="320.71288236728725" cy="332.27983968151057" r="10" fill="#a5d6a7" fill-opacity="0.7" />
<circle cx="306.81818464077355" cy="321.8708521597105" r="14" fill="#66bb6a" fill-opacity="0.7" />
<circle cx="336.8703125608242" cy="291.3341367466955" r="14" fill="#a5d6a7" fill-opacity="0.7" />
<circle cx="354.51463469010787" cy="313.3176232361209" r="15" fill="#43a047" fill-opacity="0.7" />
<path d="M416,370 Q472.1855670103093,350 475.547628661257,274.70387373087584" stroke="#5d4037" stroke-width="8" fill="none" stroke-linecap="round" stroke-opacity="1.0" />
<circle cx="461.98853291320756" cy="258.8300800167293" r="10" fill="#a5d6a7" fill-opacity="0.7" />
<circle cx="486.4734953607194" cy="288.59304827746314" r="14" fill="#2e7d32" fill-opacity="0.7" />
<circle cx="460.48143681699554" cy="265.51604014753474" r="9" fill="#66bb6a" fill-opacity="0.7" />
<circle cx="491.7364551973071" cy="269.0849089611753" r="15" fill="#a5d6a7" fill-opacity="0.7" />
<circle cx="472.63569464405265" cy="255.52065286722754" r="14" fill="#2e7d32" fill-opacity="0.7" />
<circle cx="507.20767891135887" cy="277.12990239050885" r="12" fill="#2e7d32" fill-opacity="0.7" />
<circle cx="472.31565068501806" cy="282.6453154526691" r="13" fill="#43a047" fill-opacity="0.7" />
<circle cx="444.6585206326552" cy="292.29239237495045" r="8" fill="#a5d6a7" fill-opacity="0.7" />
<circle cx="466.8957671316159" cy="299.29724291906365" r="8" fill="#a5d6a7" fill-opacity="0.7" />
<circle cx="496.2364621603484" cy="303.30797437043503" r="11" fill="#66bb6a" fill-opacity="0.7" />
<path d="M416,355 Q362.90721649484533,335 337.08874533590557,283.94798715983256" stroke="#5d4037" stroke-width="8" fill="none" stroke-linecap="round" stroke-opacity="1.0" />
<circle cx="335.94509813726893" cy="264.0511084457561" r="14" fill="#66bb6a" fill-opacity="0.7" />
<circle cx="344.4250101901524" cy="307.8497602438332" r="12" fill="#66bb6a" fill-opacity="0.7" />
<circle cx="353.61128886783905" cy="314.6064987819237" r="9" fill="#a5d6a7" fill-opacity="0.7" />
<circle cx="332.97534822719786" cy="308.28862864424707" r="16" fill="#2e7d32" fill-opacity="0.7" />
<circle cx="346.1301788016137" cy="286.8189195872346" r="10" fill="#2e7d32" fill-opacity="0.7" />
<circle cx="347.6652123625077" cy="288.5443323753772" r="10" fill="#2e7d32" fill-opacity="0.7" />
<circle cx="320.63887964644937" cy="264.8120078357792" r="15" fill="#a5d6a7" fill-opacity="0.7" />
<circle cx="368.0157699298126" cy="317.06158136099396" r="8" fill="#66bb6a" fill-opacity="0.7" />
<circle cx="339.3158494721521" cy="264.30863861512006" r="15" fill="#2e7d32" fill-opacity="0.7" />
<circle cx="356.0393247285306" cy="253.80905863697535" r="14" fill="#2e7d32" fill-opacity="0.7" />
<text x="400" y="580" font-family="Segoe UI, Helvetica, Arial, sans-serif" font-size="20" fill="#3e2723" text-anchor="middle" font-weight="bold">@prithwiraj84's Contribution Garden</text>
<text x="400" y="595" font-family="Segoe UI, Helvetica, Arial, sans-serif" font-size="14" fill="#5d4037" text-anchor="middle" font-weight="bold">Grown over 5 years</text></svg>