<svg xmlns="http://www.w3.org/2000/svg" width="800" height="600" viewBox="0 0 800 600">
        <defs>
            <linearGradient id="sky" x1="0%" y1="0%" x2="0%" y2="100%">
                <stop offset="0%" style="stop-color:#e0f7fa;stop-opacity:1" />
                <stop offset="100%" style="stop-color:#ffffff;stop-opacity:1" />
            </linearGradient>
            <filter id="glow" x="-20%" y="-20%" width="140%" height="140%">
                <feGaussianBlur stdDeviation="2" result="coloredBlur"/>
                <feMerge>
                    <feMergeNode in="coloredBlur"/>
                    <feMergeNode in="SourceGraphic"/>
                </feMerge>
            </filter>
        </defs>
        <rect width="100%" height="100%" fill="url(#sky)"/><path d="M0,550 Q400,530 800,550 L800,600 L0,600 Z" stroke="#4e342e" stroke-width="0" fill="#5d4037" stroke-linecap="round" stroke-opacity="1.0" />
<path d="M0,550 Q400,530 800,550" stroke="none" stroke-width="0" fill="#76ff03" stroke-linecap="round" stroke-opacity="0.1" />
<path d="M400,550 Q415.0,470.0 430,390" stroke="#4e342e" stroke-width="35" fill="none" stroke-linecap="round" stroke-opacity="1.0" />
<path d="M430,430 Q525.8798882681564,410 602.3525454704967,345.93804685175934" stroke="#5d4037" stroke-width="8" fill="none" stroke-linecap="round" stroke-opacity="1.0" />
<circle cx="618.9283328747492" cy="363.57964215434" r="13" fill="#a5d6a7" fill-opacity="0.7" />
<circle cx="568.4993404110622" cy="371.68495787414923" r="15" fill="#66bb6a" fill-opacity="0.7" />
<circle cx="605.6954571891433" cy="320.49084479436397" r="12" fill="#43a047" fill-opacity="0.7" />
<circle cx="583.8783935442664" cy="342.8524169564511" r="10" fill="#a5d6a7" fill-opacity="0.7" />
<circle cx="621.5045657186766" cy="369.7525743651301" r="15" fill="#66bb6a" fill-opacity="0.7" />
<circle cx="615.7226094971122" cy="342.3089531207381" r="12" fill="#43a047" fill-opacity="0.7" />
<circle cx="586.3751144430424" cy="329.5709205470228" r="8" fill="#a5d6a7" fill-opacity="0.7" />
<circle cx="617.814804927244" cy="377.6108668950199" r="12" fill="#a5d6a7" fill-opacity="0.7" />
<circle cx="635.3348800259008" cy="318.9196016950897" r="16" fill="#66bb6a" fill-opacity="0.7" />
<circle cx="593.0200504251293" cy="380.5159876058643" r="16" fill="#2e7d32" fill-opacity="0.7" />
<circle cx="571.9833954930232" cy="337.51608881106125" r="10" fill="#a5d6a7" fill-opacity="0.7" />
<circle cx="569.670670563108" cy="353.8379455461037" r="8" fill="#43a047" fill-opacity="0.7" />
<circle cx="602.0399829204736" cy="319.201435923122" r="8" fill="#a5d6a7" fill-opacity="0.7" />
<circle cx="590.8824845573357" cy="355.59054473347317" r="13" fill="#a5d6a7" fill-opacity="0.7" />
<circle cx="589.3856377104183" cy="376.07798841259194" r="14" fill="#66bb6a" fill-opacity="0.7" />
<circle cx="613.9540990787125" cy="342.10276159852714" r="9" fill="#66bb6a" fill-opacity="0.7" />
<circle cx="583.2010746777067" cy="349.691984462322" r="15" fill="#2e7d32" fill-opacity="0.7" />
<circle cx="619.3719059097879" cy="370.14137959213343" r="15" fill="#2e7d32" fill-opacity="0.7" />
<circle cx="632.6540860835662" cy="337.9536709918108" r="15" fill="#2e7d32" fill-opacity="0.7" />
<circle cx="569.170211949346" cy="361.2009174747089" r="15" fill="#a5d6a7" fill-opacity="0.7" />
<circle cx="633.8048234811224" cy="311.67591161795855" r="8" fill="#43a047" fill-opacity="0.7" />
<circle cx="603.1372014910031" cy="350.487249585234" r="13" fill="#2e7d32" fill-opacity="0.7" />
<circle cx="636.8557203310495" cy="378.31681501813364" r="10" fill="#2e7d32" fill-opacity="0.7" />
<circle cx="635.8431544362696" cy="351.88687415650554" r="16" fill="#43a047" fill-opacity="0.7" />
<circle cx="614.273989696692" cy="347.76142857207697" r="16" fill="#66bb6a" fill-opacity="0.7" />
<circle cx="596.4666169631686" cy="335.0633099682848" r="10" fill="#a5d6a7" fill-opacity="0.7" />
<circle cx="619.0367868268659" cy="358.5349602086006" r="11" fill="#a5d6a7" fill-opacity="0.7" />
<circle cx="597.2004956366779" cy="363.3111849145846" r="8" fill="#2e7d32" fill-opacity="0.7" />
<circle cx="613.7004954050667" cy="323.20567756940954" r="9" fill="#a5d6a7" fill-opacity="0.7" />
<circle cx="583.9589830547072" cy="359.9365561315535" r="8" fill="#2e7d32" fill-opacity="0.7" />
<circle cx="610.3247776751887" cy="343.98469110223016" r="13" fill="#a5d6a7" fill-opacity="0.7" />
<circle cx="582.6629711759845" cy="376.50085757922403" r="13" fill="#a5d6a7" fill-opacity="0.7" />
<circle cx="601.3997638656792" cy="342.92552832684964" r="12" fill="#a5d6a7" fill-opacity="0.7" />
<circle cx="610.5241922483474" cy="326.77191683127586" r="12" fill="#43a047" fill-opacity="0.7" />
<circle cx="613.275970554818" cy="354.5862478760006" r="11" fill="#66bb6a" fill-opacity="0.7" />
<circle cx="630.0848691878357" cy="376.1446619307615" r="12" fill="#a5d6a7" fill-opacity="0.7" />
<circle cx="628.2749087642206" cy="361.3638525686434" r="8" fill="#2e7d32" fill-opacity="0.7" />
<circle cx="571.0252751900724" cy="342.6143737310123" r="10" fill="#2e7d32" fill-opacity="0.7" />
<circle cx="620.9791182805819" cy="344.6724757697179" r="16" fill="#43a047" fill-opacity="0.7" />
<circle cx="601.4622684621103" cy="352.67550534456086" r="9" fill="#2e7d32" fill-opacity="0.7" />
<circle cx="602.6773819053313" cy="340.704623606294" r="5" fill="#ffeb3b" fill-opacity="1.0" />
<circle cx="602.6773819053313" cy="340.704623606294" r="9" fill="#ffeb3b" fill-opacity="0.3" />
<path d="M430,415 Q369.10614525139664,395 319.6228505173242,363.53028991090923" stroke="#5d4037" stroke-width="8" fill="none" stroke-linecap="round" stroke-opacity="1.0" />
<circle cx="296.09588201255934" cy="392.57020501592996" r="8" fill="#a5d6a7" fill-opacity="0.7" />
<circle cx="331.2286761271283" cy="367.35405765238914" r="12" fill="#43a047" fill-opacity="0.7" />
<circle cx="327.11708095598004" cy="339.91640305856095" r="9" fill="#2e7d32" fill-opacity="0.7" />
<circle cx="347.30148076152034" cy="332.7210378731237" r="10" fill="#43a047" fill-opacity="0.7" />
<circle cx="304.9631262259546" cy="367.1769099783278" r="13" fill="#2e7d32" fill-opacity="0.7" />
<circle cx="325.1453904874805" cy="380.5352906294391" r="13" fill="#66bb6a" fill-opacity="0.7" />
<circle cx="340.3608672610726" cy="346.707284935266" r="8" fill="#2e7d32" fill-opacity="0.7" />
<circle cx="310.3780299419044" cy="329.63936459135874" r="16" fill="#a5d6a7" fill-opacity="0.7" />
<circle cx="353.17482433855577" cy="334.43396249869807" r="14" fill="#a5d6a7" fill-opacity="0.7" />
<circle cx="349.4385663032948" cy="344.27084348316754" r="14" fill="#a5d6a7" fill-opacity="0.7" />
<circle cx="338.6832110795035" cy="376.46151710089885" r="5" fill="#ffeb3b" fill-opacity="1.0" />
<circle cx="338.6832110795035" cy="376.46151710089885" r="9" fill="#ffeb3b" fill-opacity="0.3" />
<path d="M430,400 Q490.47486033519556,380 518.4570259220952,317.512488852776" stroke="#5d4037" stroke-width="8" fill="none" stroke-linecap="round" stroke-opacity="1.0" />
<circle cx="507.89922536972756" cy="334.46520567509793" r="15" fill="#a5d6a7" fill-opacity="0.7" />
<circle cx="494.937074770481" cy="312.9612528122019" r="9" fill="#66bb6a" fill-opacity="0.7" />
<circle cx="514.9389470873695" cy="307.11698570239525" r="13" fill="#43a047" fill-opacity="0.7" />
<circle cx="540.57444584308" cy="339.1911402432534" r="12" fill="#a5d6a7" fill-opacity="0.7" />
<circle cx="533.0490243948605" cy="298.9178795835428" r="9" fill="#43a047" fill-opacity="0.7" />
<circle cx="531.6278441079694" cy="314.5062280308449" r="11" fill="#43a047" fill-opacity="0.7" />
<circle cx="534.308539732887" cy="296.47649816045754" r="16" fill="#a5d6a7" fill-opacity="0.7" />
<circle cx="507.0063132800008" cy="332.2307922424502" r="13" fill="#a5d6a7" fill-opacity="0.7" />
<circle cx="530.7134220748944" cy="286.54221452936326" r="16" fill="#43a047" fill-opacity="0.7" />
<circle cx="532.2930897376327" cy="288.9490434534661" r="14" fill="#2e7d32" fill-opacity="0.7" />
<circle cx="535.9946650750103" cy="332.309744536403" r="5" fill="#ffeb3b" fill-opacity="1.0" />
<circle cx="535.9946650750103" cy="332.309744536403" r="9" fill="#ffeb3b" fill-opacity="0.3" />
<path d="M430,385 Q376.43854748603354,365 338.17774865383797,329.8276252156408" stroke="#5d4037" stroke-width="8" fill="none" stroke-linecap="round" stroke-opacity="1.0" />
<circle cx="362.8888815279807" cy="346.0955115890214" r="12" fill="#2e7d32" fill-opacity="0.7" />
<circle cx="321.9479579560949" cy="312.9555703005802" r="13" fill="#66bb6a" fill-opacity="0.7" />
<circle cx="316.0348889276368" cy="328.2423594786474" r="16" fill="#a5d6a7" fill-opacity="0.7" />
<circle cx="351.108718141691" cy="331.16232414448484" r="8" fill="#43a047" fill-opacity="0.7" />
<circle cx="314.3254172118728" cy="354.31526881897685" r="15" fill="#a5d6a7" fill-opacity="0.7" />
<circle cx="311.524419418034" cy="355.9406524206642" r="14" fill="#a5d6a7" fill-opacity="0.7" />
<circle cx="316.51375858648237" cy="302.99605476505485" r="13" fill="#a5d6a7" fill-opacity="0.7" />
<circle cx="349.586364733132" cy="344.39683142100085" r="16" fill="#43a047" fill-opacity="0.7" />
<circle cx="340.9497283940709" cy="312.29973166981756" r="10" fill="#2e7d32" fill-opacity="0.7" />
<circle cx="366.5971814849638" cy="311.4652124559523" r="10" fill="#43a047" fill-opacity="0.7" />
<circle cx="335.04374764298126" cy="339.9170566177674" r="5" fill="#ffeb3b" fill-opacity="1.0" />
<circle cx="335.04374764298126" cy="339.9170566177674" r="9" fill="#ffeb3b" fill-opacity="0.3" />
<path d="M430,370 Q483.56145251396646,350 507.0577691144896,295.58617735446217" stroke="#5d4037" stroke-width="8" fill="none" stroke-linecap="round" stroke-opacity="1.0" />
<circle cx="472.2997851795553" cy="319.29291287342534" r="14" fill="#2e7d32" fill-opacity="0.7" />
<circle cx="499.8931519707245" cy="265.5592127911872" r="14" fill="#2e7d32" fill-opacity="0.7" />
<circle cx="477.1111320009558" cy="284.4762354939116" r="8" fill="#2e7d32" fill-opacity="0.7" />
<circle cx="526.9118151033431" cy="288.46052067060805" r="15" fill="#66bb6a" fill-opacity="0.7" />
<circle cx="487.6814564862653" cy="285.37021268119895" r="9" fill="#43a047" fill-opacity="0.7" />
<circle cx="478.53678862637827" cy="264.88716161344735" r="8" fill="#2e7d32" fill-opacity="0.7" />
<circle cx="522.2770243030178" cy="330.5122293465191" r="9" fill="#43a047" fill-opacity="0.7" />
<circle cx="516.6778496098002" cy="290.40154761475884" r="8" fill="#2e7d32" fill-opacity="0.7" />
<circle cx="483.8778734723261" cy="261.9656958675623" r="8" fill="#66bb6a" fill-opacity="0.7" />
<circle cx="514.3138198367288" cy="269.15912427729864" r="9" fill="#43a047" fill-opacity="0.7" />
<circle cx="525.468823325324" cy="285.20336314065656" r="5" fill="#ffeb3b" fill-opacity="1.0" />
<circle cx="525.468823325324" cy="285.20336314065656" r="9" fill="#ffeb3b" fill-opacity="0.3" />
<circle cx="526.986130659224" cy="312.8168731896892" r="5" fill="#ffeb3b" fill-opacity="1.0" />
<circle cx="526.986130659224" cy="312.8168731896892" r="9" fill="#ffeb3b" fill-opacity="0.3" />
<path d="M430,355 Q379.37150837988827,335 367.6599763112986,275.2084083289283" stroke="#5d4037" stroke-width="8" fill="none" stroke-linecap="round" stroke-opacity="1.0" />
<circle cx="392.3575363949258" cy="244.9880096869063" r="11" fill="#43a047" fill-opacity="0.7" />
<circle cx="361.7060090905082" cy="255.80641642189374" r="9" fill="#43a047" fill-opacity="0.7" />
<circle cx="345.68383631367936" cy="289.15244064764397" r="12" fill="#66bb6a" fill-opacity="0.7" />
<circle cx="391.2040531531853" cy="300.62044864662585" r="15" fill="#a5d6a7" fill-opacity="0.7" />
<circle cx="365.7723835364149" cy="280.2567584808836" r="12" fill="#a5d6a7" fill-opacity="0.7" />
<circle cx="334.4002963336393" cy="279.46712137805275" r="12" fill="#a5d6a7" fill-opacity="0.7" />
<circle cx="354.0486956550669" cy="299.20018299290217" r="12" fill="#a5d6a7" fill-opacity="0.7" />
<circle cx="384.68442637068364" cy="295.0826081256877" r="16" fill="#2e7d32" fill-opacity="0.7" />
<circle cx="391.2969045598392" cy="242.71635793073224" r="13" fill="#a5d6a7" fill-opacity="0.7" />
<circle cx="348.9727399736406" cy="288.7149953772906" r="13" fill="#43a047" fill-opacity="0.7" />
<circle cx="366.17222408675525" cy="261.20291193904353" r="5" fill="#ffeb3b" fill-opacity="1.0" />
<circle cx="366.17222408675525" cy="261.20291193904353" r="9" fill="#ffeb3b" fill-opacity="0.3" />
<text x="400" y="580" font-family="Segoe UI, Helvetica, Arial, sans-serif" font-size="20" fill="#3e2723" text-anchor="middle" font-weight="bold">@prithwiraj84's Contribution Garden</text>
<text x="400" y="595" font-family="Segoe UI, Helvetica, Arial, sans-serif" font-size="14" fill="#5d4037" text-anchor="middle" font-weight="bold">Grown over 5 years</text></svg>