<svg xmlns="http://www.w3.org/2000/svg" width="800" height="600" viewBox="0 0 800 600">
        <defs>
            <linearGradient id="sky" x1="0%" y1="0%" x2="0%" y2="100%">
                <stop offset="0%" style="stop-color:#e0f7fa;stop-opacity:1" />
                <stop offset="100%" style="stop-color:#ffffff;stop-opacity:1" />
            </linearGradient>
            <filter id="glow" x="-20%" y="-20%" width="140%" height="140%">
                <feGaussianBlur stdDeviation="2" result="coloredBlur"/>
                <feMerge>
                    <feMergeNode in="coloredBlur"/>
                    <feMergeNode in="SourceGraphic"/>
                </feMerge>
            </filter>
        </defs>
        <rect width="100%" height="100%" fill="url(#sky)"/><path d="M0,550 Q400,530 800,550 L800,600 L0,600 Z" stroke="#4e342e" stroke-width="0" fill="#5d4037" stroke-linecap="round" stroke-opacity="1.0" />
<path d="M0,550 Q400,530 800,550" stroke="none" stroke-width="0" fill="#76ff03" stroke-linecap="round" stroke-opacity="0.1" />
<path d="M400,550 Q400.0,470.0 400,390" stroke="#4e342e" stroke-width="35" fill="none" stroke-linecap="round" stroke-opacity="1.0" />
<path d="M400,430 Q488.96648044692733,410 554.0944643046613,341.03351955307267" stroke="#5d4037" stroke-width="8" fill="none" stroke-linecap="round" stroke-opacity="1.0" />
<circle cx="568.8231382071953" cy="363.99461186603514" r="8" fill="#2e7d32" fill-opacity="0.7" />
<circle cx="576.3513785509904" cy="307.0700084004531" r="10" fill="#66bb6a" fill-opacity="0.7" />
<circle cx="539.8997493165416" cy="348.4347293685929" r="11" fill="#66bb6a" fill-opacity="0.7" />
<circle cx="530.8391110382505" cy="358.97234412135026" r="14" fill="#a5d6a7" fill-opacity="0.7" />
<circle cx="583.8270411194696" cy="339.65488046487087" r="12" fill="#43a047" fill-opacity="0.7" />
<circle cx="554.8799815165438" cy="316.7298197933741" r="10" fill="#2e7d32" fill-opacity="0.7" />
<circle cx="583.6697136477014" cy="341.01758425611206" r="10" fill="#66bb6a" fill-opacity="0.7" />
<circle cx="563.01536610773" cy="315.5929413595262" r="12" fill="#43a047" fill-opacity="0.7" />
<circle cx="554.7216947923663" cy="306.88783025320834" r="8" fill="#66bb6a" fill-opacity="0.7" />
<circle cx="544.2760392186848" cy="359.71487535202283" r="10" fill="#66bb6a" fill-opacity="0.7" />
<circle cx="560.9203512777267" cy="352.67211685865993" r="16" fill="#2e7d32" fill-opacity="0.7" />
<circle cx="537.0028904624636" cy="340.37118438024015" r="11" fill="#2e7d32" fill-opacity="0.7" />
<circle cx="563.2089422849307" cy="368.5891938893519" r="12" fill="#43a047" fill-opacity="0.7" />
<circle cx="541.8079734876691" cy="357.47164200795567" r="12" fill="#66bb6a" fill-opacity="0.7" />
<circle cx="519.1214890050824" cy="348.4480937995853" r="11" fill="#43a047" fill-opacity="0.7" />
<circle cx="560.4322348826823" cy="313.2763564588591" r="12" fill="#2e7d32" fill-opacity="0.7" />
<circle cx="578.5937531860794" cy="338.88337237256917" r="13" fill="#66bb6a" fill-opacity="0.7" />
<circle cx="526.3834783019809" cy="325.9835035475508" r="11" fill="#66bb6a" fill-opacity="0.7" />
<path d="M400,415 Q337.0111731843575,395 325.9521930771214,313.08193730080967" stroke="#5d4037" stroke-width="8" fill="none" stroke-linecap="round" stroke-opacity="1.0" />
<circle cx="359.73403528356647" cy="319.9244561723709" r="9" fill="#43a047" fill-opacity="0.7" />
<circle cx="355.40686819844154" cy="313.81930987310494" r="15" fill="#43a047" fill-opacity="0.7" />
<circle cx="321.66770758101524" cy="285.5025116061854" r="11" fill="#a5d6a7" fill-opacity="0.7" />
<circle cx="338.5183683382594" cy="308.63720747113007" r="14" fill="#a5d6a7" fill-opacity="0.7" />
<circle cx="342.55305491927606" cy="301.62856868369795" r="12" fill="#66bb6a" fill-opacity="0.7" />
<circle cx="355.45785167441545" cy="289.268931044552" r="15" fill="#a5d6a7" fill-opacity="0.7" />
<circle cx="296.15201552603105" cy="345.6701487602045" r="12" fill="#a5d6a7" fill-opacity="0.7" />
<circle cx="306.15131742199696" cy="281.77988028904116" r="16" fill="#2e7d32" fill-opacity="0.7" />
<circle cx="332.2048338731448" cy="301.95258041688396" r="13" fill="#66bb6a" fill-opacity="0.7" />
<circle cx="306.39461633278273" cy="339.60387334348036" r="15" fill="#2e7d32" fill-opacity="0.7" />
<path d="M400,400 Q456.70391061452517,380 477.3439480964733,317.0587701515689" stroke="#5d4037" stroke-width="8" fill="none" stroke-linecap="round" stroke-opacity="1.0" />
<circle cx="492.4878647806396" cy="331.81179537663354" r="13" fill="#2e7d32" fill-opacity="0.7" />
<circle cx="442.66439577597805" cy="314.7154720905644" r="8" fill="#43a047" fill-opacity="0.7" />
<circle cx="498.80934357245144" cy="303.16134346645356" r="13" fill="#66bb6a" fill-opacity="0.7" />
<circle cx="504.91392270009635" cy="323.6675665582094" r="10" fill="#43a047" fill-opacity="0.7" />
<circle cx="474.1108677530047" cy="331.3600339380696" r="14" fill="#a5d6a7" fill-opacity="0.7" />
<circle cx="510.6015816695258" cy="294.1401627170565" r="14" fill="#43a047" fill-opacity="0.7" />
<circle cx="443.33700549191553" cy="304.0052574565328" r="12" fill="#43a047" fill-opacity="0.7" />
<circle cx="501.6249105397884" cy="315.486383556775" r="13" fill="#43a047" fill-opacity="0.7" />
<circle cx="450.12312313513485" cy="300.89557525801854" r="10" fill="#43a047" fill-opacity="0.7" />
<circle cx="506.4073562743486" cy="326.92155816978425" r="12" fill="#43a047" fill-opacity="0.7" />
<path d="M400,385 Q344.1340782122905,365 323.79906591480466,303.28450261238316" stroke="#5d4037" stroke-width="8" fill="none" stroke-linecap="round" stroke-opacity="1.0" />
<circle cx="296.248067227228" cy="269.3764288389023" r="14" fill="#2e7d32" fill-opacity="0.7" />
<circle cx="334.04872962341426" cy="300.58370858263504" r="8" fill="#2e7d32" fill-opacity="0.7" />
<circle cx="346.4596954911088" cy="291.4554832947869" r="10" fill="#a5d6a7" fill-opacity="0.7" />
<circle cx="308.0035815211958" cy="271.89424995403704" r="10" fill="#a5d6a7" fill-opacity="0.7" />
<circle cx="318.9509819508726" cy="281.4328100246381" r="8" fill="#43a047" fill-opacity="0.7" />
<circle cx="291.73471796483204" cy="312.74222314720777" r="11" fill="#2e7d32" fill-opacity="0.7" />
<circle cx="312.5067563886542" cy="284.61233583469544" r="14" fill="#66bb6a" fill-opacity="0.7" />
<circle cx="290.417383707322" cy="301.3010438632775" r="11" fill="#2e7d32" fill-opacity="0.7" />
<circle cx="310.25289004832666" cy="277.74611189044816" r="8" fill="#a5d6a7" fill-opacity="0.7" />
<circle cx="358.1281015399422" cy="276.3290716792666" r="10" fill="#a5d6a7" fill-opacity="0.7" />
<circle cx="321.3629478192695" cy="288.6674886495179" r="5" fill="#ffeb3b" fill-opacity="1.0" />
<circle cx="321.3629478192695" cy="288.6674886495179" r="9" fill="#ffeb3b" fill-opacity="0.3" />
<path d="M400,370 Q455.4469273743017,350 446.86576813158035,269.4960359068296" stroke="#5d4037" stroke-width="8" fill="none" stroke-linecap="round" stroke-opacity="1.0" />
<circle cx="468.7973542216706" cy="269.06565967341646" r="9" fill="#a5d6a7" fill-opacity="0.7" />
<circle cx="423.59120666557726" cy="243.77218665437843" r="9" fill="#66bb6a" fill-opacity="0.7" />
<circle cx="461.5441742508958" cy="282.2722691350839" r="11" fill="#66bb6a" fill-opacity="0.7" />
<circle cx="453.83458357114205" cy="290.9449643976901" r="8" fill="#2e7d32" fill-opacity="0.7" />
<circle cx="464.36302823352264" cy="236.16814286215575" r="14" fill="#43a047" fill-opacity="0.7" />
<circle cx="446.80498551116716" cy="255.39455183440845" r="15" fill="#a5d6a7" fill-opacity="0.7" />
<circle cx="421.88569275419053" cy="299.0434771283136" r="16" fill="#43a047" fill-opacity="0.7" />
<circle cx="434.7772028982393" cy="265.24435529185104" r="14" fill="#43a047" fill-opacity="0.7" />
<circle cx="423.03350559008993" cy="304.20003654746085" r="11" fill="#2e7d32" fill-opacity="0.7" />
<circle cx="479.6208764825773" cy="283.42634085474543" r="15" fill="#a5d6a7" fill-opacity="0.7" />
<path d="M400,355 Q344.97206703910615,335 322.17875089734645,277.17875089734645" stroke="#5d4037" stroke-width="8" fill="none" stroke-linecap="round" stroke-opacity="1.0" />
<circle cx="300.88981875405716" cy="255.78794326091662" r="9" fill="#a5d6a7" fill-opacity="0.7" />
<circle cx="340.3328729139455" cy="252.788683035145" r="11" fill="#2e7d32" fill-opacity="0.7" />
<circle cx="337.3431970782473" cy="277.6003355383722" r="10" fill="#2e7d32" fill-opacity="0.7" />
<circle cx="333.8581652980941" cy="267.67326435576734" r="9" fill="#66bb6a" fill-opacity="0.7" />
<circle cx="294.9060771391098" cy="257.6321372283016" r="16" fill="#66bb6a" fill-opacity="0.7" />
<circle cx="304.4706904603055" cy="289.4220245637164" r="12" fill="#a5d6a7" fill-opacity="0.7" />
<circle cx="304.0630625572092" cy="248.41800930242687" r="13" fill="#43a047" fill-opacity="0.7" />
<circle cx="356.96462783826405" cy="266.44354941469845" r="12" fill="#2e7d32" fill-opacity="0.7" />
<circle cx="325.254444231927" cy="249.18887137542913" r="16" fill="#43a047" fill-opacity="0.7" />
<circle cx="339.87511374535944" cy="267.2023335049488" r="13" fill="#2e7d32" fill-opacity="0.7" />
<text x="400" y="580" font-family="Segoe UI, Helvetica, Arial, sans-serif" font-size="20" fill="#3e2723" text-anchor="middle" font-weight="bold">@prithwiraj84's Contribution Garden</text>
<text x="400" y="595" font-family="Segoe UI, Helvetica, Arial, sans-serif" font-size="14" fill="#5d4037" text-anchor="middle" font-weight="bold">Grown over 5 years</text></svg>