<svg xmlns="http://www.w3.org/2000/svg" width="800" height="600" viewBox="0 0 800 600">
        <defs>
            <linearGradient id="sky" x1="0%" y1="0%" x2="0%" y2="100%">
                <stop offset="0%" style="stop-color:#e0f7fa;stop-opacity:1" />
                <stop offset="100%" style="stop-color:#ffffff;stop-opacity:1" />
            </linearGradient>
            <filter id="glow" x="-20%" y="-20%" width="140%" height="140%">
                <feGaussianBlur stdDeviation="2" result="coloredBlur"/>
                <feMerge>
                    <feMergeNode in="coloredBlur"/>
                    <feMergeNode in="SourceGraphic"/>
                </feMerge>
            </filter>
        </defs>
        <rect width="100%" height="100%" fill="url(#sky)"/><path d="M0,550 Q400,530 800,550 L800,600 L0,600 Z" stroke="#4e342e" stroke-width="0" fill="#5d4037" stroke-linecap="round" stroke-opacity="1.0" />
<path d="M0,550 Q400,530 800,550" stroke="none" stroke-width="0" fill="#76ff03" stroke-linecap="round" stroke-opacity="0.1" />
<path d="M400,550 Q397.0,470.0 394,390" stroke="#4e342e" stroke-width="35" fill="none" stroke-linecap="round" stroke-opacity="1.0" />
<path d="M394,430 Q486.27272727272725,410 553.8210517893101,337.72727272727275" stroke="#5d4037" stroke-width="8" fill="none" stroke-linecap="round" stroke-opacity="1.0" />
<circle cx="538.5597405379046" cy="325.8807997698416" r="13" fill="#a5d6a7" fill-opacity="0.7" />
<circle cx="587.3003633606887" cy="333.5907571835754" r="8" fill="#a5d6a7" fill-opacity="0.7" />
<circle cx="525.7707842024706" cy="359.7258526571045" r="9" fill="#66bb6a" fill-opacity="0.7" />
<circle cx="531.3918179936713" cy="341.4396521664807" r="14" fill="#43a047" fill-opacity="0.7" />
<circle cx="537.3692278080815" cy="345.130174864349" r="14" fill="#66bb6a" fill-opacity="0.7" />
<circle cx="541.8110626120956" cy="309.1237459652463" r="14" fill="#a5d6a7" fill-opacity="0.7" />
<circle cx="545.9478395886974" cy="345.5036722097095" r="15" fill="#2e7d32" fill-opacity="0.7" />
<circle cx="587.9524287959907" cy="329.33954689492356" r="9" fill="#43a047" fill-opacity="0.7" />
<circle cx="519.416377264802" cy="328.99540255044553" r="15" fill="#a5d6a7" fill-opacity="0.7" />
<circle cx="575.4210806897922" cy="371.5297161033482" r="8" fill="#66bb6a" fill-opacity="0.7" />
<circle cx="579.4924136444941" cy="334.23686049168714" r="8" fill="#43a047" fill-opacity="0.7" />
<circle cx="581.9551040050537" cy="361.06130979419163" r="12" fill="#a5d6a7" fill-opacity="0.7" />
<circle cx="555.5690520775222" cy="360.8776031889163" r="8" fill="#2e7d32" fill-opacity="0.7" />
<circle cx="566.3441775762534" cy="355.41226021770757" r="8" fill="#43a047" fill-opacity="0.7" />
<circle cx="539.7577185610414" cy="317.6929405147974" r="11" fill="#a5d6a7" fill-opacity="0.7" />
<circle cx="581.7319284968844" cy="337.21232822388777" r="8" fill="#43a047" fill-opacity="0.7" />
<circle cx="537.6413342063083" cy="335.8381661896063" r="12" fill="#43a047" fill-opacity="0.7" />
<circle cx="573.4389062331294" cy="353.04026814758095" r="14" fill="#2e7d32" fill-opacity="0.7" />
<circle cx="565.5464989425112" cy="328.83228480979983" r="12" fill="#a5d6a7" fill-opacity="0.7" />
<circle cx="530.8636207090154" cy="312.2282238463587" r="11" fill="#a5d6a7" fill-opacity="0.7" />
<circle cx="554.4931201128966" cy="325.71806122617875" r="11" fill="#66bb6a" fill-opacity="0.7" />
<circle cx="533.9147327378914" cy="325.5010805517079" r="16" fill="#2e7d32" fill-opacity="0.7" />
<circle cx="568.008600336334" cy="313.7034182734853" r="11" fill="#2e7d32" fill-opacity="0.7" />
<circle cx="568.0888627104226" cy="316.44241707933577" r="11" fill="#66bb6a" fill-opacity="0.7" />
<path d="M394,415 Q331.3863636363636,395 313.505460696072,319.070343600328" stroke="#5d4037" stroke-width="8" fill="none" stroke-linecap="round" stroke-opacity="1.0" />
<circle cx="306.463460940383" cy="306.0345288140294" r="11" fill="#a5d6a7" fill-opacity="0.7" />
<circle cx="305.51000241697307" cy="350.0976382608852" r="9" fill="#66bb6a" fill-opacity="0.7" />
<circle cx="339.8520354353924" cy="286.32840900317916" r="13" fill="#a5d6a7" fill-opacity="0.7" />
<circle cx="330.649285430305" cy="296.4669082796953" r="13" fill="#a5d6a7" fill-opacity="0.7" />
<circle cx="346.5479821232959" cy="296.88276959490594" r="11" fill="#2e7d32" fill-opacity="0.7" />
<circle cx="347.36426754529447" cy="351.04090912331776" r="13" fill="#43a047" fill-opacity="0.7" />
<circle cx="281.7713804510309" cy="288.7290241440156" r="16" fill="#2e7d32" fill-opacity="0.7" />
<circle cx="315.2125339372121" cy="329.6890291979557" r="11" fill="#2e7d32" fill-opacity="0.7" />
<circle cx="306.38714782953224" cy="348.49661784961063" r="16" fill="#66bb6a" fill-opacity="0.7" />
<circle cx="319.27630728256014" cy="342.9928430179436" r="8" fill="#a5d6a7" fill-opacity="0.7" />
<path d="M394,400 Q449.45454545454544,380 449.4545454545455,303.94990976208953" stroke="#5d4037" stroke-width="8" fill="none" stroke-linecap="round" stroke-opacity="1.0" />
<circle cx="474.60855052060174" cy="294.36139692165136" r="11" fill="#a5d6a7" fill-opacity="0.7" />
<circle cx="430.8832646398057" cy="275.0719429751164" r="13" fill="#a5d6a7" fill-opacity="0.7" />
<circle cx="423.40432064758403" cy="305.40522023934193" r="11" fill="#66bb6a" fill-opacity="0.7" />
<circle cx="480.13359332120183" cy="317.65404789863646" r="11" fill="#2e7d32" fill-opacity="0.7" />
<circle cx="424.6418241259964" cy="283.9393245172376" r="13" fill="#2e7d32" fill-opacity="0.7" />
<circle cx="474.296947874859" cy="322.89234325931176" r="10" fill="#a5d6a7" fill-opacity="0.7" />
<circle cx="473.28976214139425" cy="324.47405043536776" r="13" fill="#a5d6a7" fill-opacity="0.7" />
<circle cx="477.8141135486121" cy="279.69688135919915" r="12" fill="#a5d6a7" fill-opacity="0.7" />
<circle cx="416.95103076393855" cy="301.2582461557352" r="16" fill="#43a047" fill-opacity="0.7" />
<circle cx="482.144767674799" cy="326.3222978536488" r="14" fill="#a5d6a7" fill-opacity="0.7" />
<path d="M394,385 Q338.54545454545456,365 321.2370895119619,301.29584655711074" stroke="#5d4037" stroke-width="8" fill="none" stroke-linecap="round" stroke-opacity="1.0" />
<circle cx="289.2681501529492" cy="306.61426597930404" r="13" fill="#a5d6a7" fill-opacity="0.7" />
<circle cx="295.37004248902747" cy="292.1577926971008" r="9" fill="#66bb6a" fill-opacity="0.7" />
<circle cx="300.0795915663342" cy="308.7948882120234" r="8" fill="#66bb6a" fill-opacity="0.7" />
<circle cx="289.72884884011756" cy="282.90128285403864" r="9" fill="#66bb6a" fill-opacity="0.7" />
<circle cx="305.49379141674194" cy="268.94982785919666" r="10" fill="#a5d6a7" fill-opacity="0.7" />
<circle cx="348.73786624485547" cy="290.522688081834" r="10" fill="#66bb6a" fill-opacity="0.7" />
<circle cx="307.3909734846142" cy="336.15557343009795" r="16" fill="#43a047" fill-opacity="0.7" />
<circle cx="304.5571718036492" cy="268.97289876984206" r="8" fill="#43a047" fill-opacity="0.7" />
<circle cx="288.44421743472657" cy="325.20988518566514" r="16" fill="#66bb6a" fill-opacity="0.7" />
<circle cx="301.36983988996417" cy="313.0554325178579" r="11" fill="#66bb6a" fill-opacity="0.7" />
<path d="M394,370 Q448.77272727272725,350 461.4429161606744,283.67700380944547" stroke="#5d4037" stroke-width="8" fill="none" stroke-linecap="round" stroke-opacity="1.0" />
<circle cx="427.99026857913884" cy="293.3539823146375" r="11" fill="#66bb6a" fill-opacity="0.7" />
<circle cx="431.1323359744241" cy="296.8002515039413" r="8" fill="#66bb6a" fill-opacity="0.7" />
<circle cx="486.892043993435" cy="270.0180627427188" r="15" fill="#43a047" fill-opacity="0.7" />
<circle cx="480.8385005512158" cy="272.9820064758684" r="10" fill="#a5d6a7" fill-opacity="0.7" />
<circle cx="492.9630460675962" cy="253.39100571217034" r="13" fill="#2e7d32" fill-opacity="0.7" />
<circle cx="494.40926989634" cy="310.56536855069436" r="8" fill="#a5d6a7" fill-opacity="0.7" />
<circle cx="487.00481046951404" cy="309.26773734922784" r="12" fill="#2e7d32" fill-opacity="0.7" />
<circle cx="446.1587158200068" cy="282.21185047785525" r="11" fill="#66bb6a" fill-opacity="0.7" />
<circle cx="482.23520632541636" cy="316.95860746306994" r="15" fill="#2e7d32" fill-opacity="0.7" />
<circle cx="436.1338267461439" cy="250.9622528411775" r="14" fill="#43a047" fill-opacity="0.7" />
<circle cx="468.377355567254" cy="294.2929892417226" r="5" fill="#ffeb3b" fill-opacity="1.0" />
<circle cx="468.377355567254" cy="294.2929892417226" r="9" fill="#ffeb3b" fill-opacity="0.3" />
<path d="M394,355 Q339.5681818181818,335 298.7857182455067,302.2218617959101" stroke="#5d4037" stroke-width="8" fill="none" stroke-linecap="round" stroke-opacity="1.0" />
<circle cx="268.40947364023594" cy="322.77539402174995" r="10" fill="#2e7d32" fill-opacity="0.7" />
<circle cx="299.84443566748314" cy="275.7213267036937" r="13" fill="#2e7d32" fill-opacity="0.7" />
<circle cx="286.0047818241889" cy="309.402012512649" r="12" fill="#43a047" fill-opacity="0.7" />
<circle cx="272.63189351956083" cy="287.47938066635413" r="11" fill="#2e7d32" fill-opacity="0.7" />
<circle cx="294.1068647463206" cy="291.31448755168225" r="15" fill="#43a047" fill-opacity="0.7" />
<circle cx="298.38776674459575" cy="273.6064159086101" r="13" fill="#2e7d32" fill-opacity="0.7" />
<circle cx="325.1688286571405" cy="296.0869468961732" r="14" fill="#66bb6a" fill-opacity="0.7" />
<circle cx="307.2064502462076" cy="334.44613642611944" r="12" fill="#66bb6a" fill-opacity="0.7" />
<circle cx="264.50405900042966" cy="289.5392721117405" r="11" fill="#2e7d32" fill-opacity="0.7" />
<circle cx="296.07141355043547" cy="288.158043126915" r="10" fill="#43a047" fill-opacity="0.7" />
<text x="400" y="580" font-family="Segoe UI, Helvetica, Arial, sans-serif" font-size="20" fill="#3e2723" text-anchor="middle" font-weight="bold">@prithwiraj84's Contribution Garden</text>
<text x="400" y="595" font-family="Segoe UI, Helvetica, Arial, sans-serif" font-size="14" fill="#5d4037" text-anchor="middle" font-weight="bold">Grown over 5 years</text></svg>