<svg xmlns="http://www.w3.org/2000/svg" width="800" height="600" viewBox="0 0 800 600">
        <defs>
            <linearGradient id="sky" x1="0%" y1="0%" x2="0%" y2="100%">
                <stop offset="0%" style="stop-color:#e0f7fa;stop-opacity:1" />
                <stop offset="100%" style="stop-color:#ffffff;stop-opacity:1" />
            </linearGradient>
            <filter id="glow" x="-20%" y="-20%" width="140%" height="140%">
                <feGaussianBlur stdDeviation="2" result="coloredBlur"/>
                <feMerge>
                    <feMergeNode in="coloredBlur"/>
                    <feMergeNode in="SourceGraphic"/>
                </feMerge>
            </filter>
        </defs>
        <rect width="100%" height="100%" fill="url(#sky)"/><path d="M0,550 Q400,530 800,550 L800,600 L0,600 Z" stroke="#4e342e" stroke-width="0" fill="#5d4037" stroke-linecap="round" stroke-opacity="1.0" />
<path d="M0,550 Q400,530 800,550" stroke="none" stroke-width="0" fill="#76ff03" stroke-linecap="round" stroke-opacity="0.1" />
<path d="M400,550 Q404.0,470.0 408,390" stroke="#4e342e" stroke-width="35" fill="none" stroke-linecap="round" stroke-opacity="1.0" />
<path d="M408,430 Q493.2040816326531,410 493.2040816326531,282.42220159999874" stroke="#5d4037" stroke-width="8" fill="none" stroke-linecap="round" stroke-opacity="1.0" />
<circle cx="485.6519177232676" cy="269.9943220880511" r="13" fill="#2e7d32" fill-opacity="0.7" />
<circle cx="525.6755136924801" cy="285.574476041638" r="14" fill="#2e7d32" fill-opacity="0.7" />
<circle cx="478.8507402550236" cy="309.40238463990465" r="8" fill="#66bb6a" fill-opacity="0.7" />
<circle cx="521.9222181750373" cy="297.9101042655233" r="15" fill="#2e7d32" fill-opacity="0.7" />
<circle cx="498.4375462484152" cy="306.4300077199623" r="13" fill="#2e7d32" fill-opacity="0.7" />
<circle cx="487.60713502922755" cy="312.3753041122474" r="13" fill="#66bb6a" fill-opacity="0.7" />
<circle cx="515.8886569648639" cy="282.77869705007083" r="12" fill="#43a047" fill-opacity="0.7" />
<circle cx="513.3015014120956" cy="265.34661651913825" r="14" fill="#2e7d32" fill-opacity="0.7" />
<circle cx="519.6517416613219" cy="300.5822452412143" r="15" fill="#a5d6a7" fill-opacity="0.7" />
<circle cx="460.55170009862604" cy="290.25866770867987" r="14" fill="#a5d6a7" fill-opacity="0.7" />
<circle cx="488.93285934309006" cy="276.86506436241376" r="14" fill="#2e7d32" fill-opacity="0.7" />
<circle cx="510.8149151962662" cy="265.3190274418124" r="15" fill="#a5d6a7" fill-opacity="0.7" />
<circle cx="470.6048238441659" cy="266.4181949570815" r="12" fill="#2e7d32" fill-opacity="0.7" />
<path d="M408,415 Q344.2244897959184,395 338.5307353297159,308.02671327226733" stroke="#5d4037" stroke-width="8" fill="none" stroke-linecap="round" stroke-opacity="1.0" />
<circle cx="353.59164820540525" cy="298.693104497048" r="15" fill="#2e7d32" fill-opacity="0.7" />
<circle cx="332.2902880011571" cy="286.5313477269296" r="8" fill="#43a047" fill-opacity="0.7" />
<circle cx="321.281538502338" cy="311.56894525184157" r="8" fill="#2e7d32" fill-opacity="0.7" />
<circle cx="369.1347972107944" cy="308.31605716273316" r="9" fill="#a5d6a7" fill-opacity="0.7" />
<circle cx="369.2383177387412" cy="309.6055999417181" r="13" fill="#66bb6a" fill-opacity="0.7" />
<circle cx="335.41170086775213" cy="321.9438791122324" r="16" fill="#a5d6a7" fill-opacity="0.7" />
<circle cx="317.48635919740724" cy="304.83168340835937" r="14" fill="#66bb6a" fill-opacity="0.7" />
<circle cx="363.07986795841293" cy="311.6629046827919" r="9" fill="#a5d6a7" fill-opacity="0.7" />
<circle cx="372.4304131230847" cy="333.54329455473385" r="16" fill="#a5d6a7" fill-opacity="0.7" />
<circle cx="358.7758151142442" cy="330.7508737669921" r="15" fill="#2e7d32" fill-opacity="0.7" />
<path d="M408,400 Q465.1428571428571,380 499.2726297196906,331.2211402111945" stroke="#5d4037" stroke-width="8" fill="none" stroke-linecap="round" stroke-opacity="1.0" />
<circle cx="517.9470165446206" cy="329.2863575302282" r="8" fill="#a5d6a7" fill-opacity="0.7" />
<circle cx="493.5139881937613" cy="364.5423010403093" r="9" fill="#2e7d32" fill-opacity="0.7" />
<circle cx="486.74158875532584" cy="339.3059238848994" r="8" fill="#66bb6a" fill-opacity="0.7" />
<circle cx="511.80852803509424" cy="357.06057869985824" r="11" fill="#a5d6a7" fill-opacity="0.7" />
<circle cx="498.1720906026669" cy="324.28613043540963" r="11" fill="#66bb6a" fill-opacity="0.7" />
<circle cx="494.041760995988" cy="346.12107641331977" r="13" fill="#66bb6a" fill-opacity="0.7" />
<circle cx="478.65867977921226" cy="351.4086101337867" r="8" fill="#43a047" fill-opacity="0.7" />
<circle cx="472.30909833603886" cy="311.8669626986439" r="11" fill="#a5d6a7" fill-opacity="0.7" />
<circle cx="522.8897058487851" cy="358.13172683211894" r="15" fill="#a5d6a7" fill-opacity="0.7" />
<circle cx="481.1586511167302" cy="352.1323129376322" r="10" fill="#43a047" fill-opacity="0.7" />
<path d="M408,385 Q351.36734693877554,365 332.21071703486405,300.82747384898903" stroke="#5d4037" stroke-width="8" fill="none" stroke-linecap="round" stroke-opacity="1.0" />
<circle cx="326.5182805650658" cy="295.3498082619175" r="15" fill="#a5d6a7" fill-opacity="0.7" />
<circle cx="320.6562522927118" cy="278.2239533835607" r="15" fill="#2e7d32" fill-opacity="0.7" />
<circle cx="306.66203518515624" cy="279.52119326159385" r="15" fill="#43a047" fill-opacity="0.7" />
<circle cx="319.0762890114437" cy="273.25264974808323" r="12" fill="#2e7d32" fill-opacity="0.7" />
<circle cx="311.4070944060283" cy="322.4273488504982" r="11" fill="#2e7d32" fill-opacity="0.7" />
<circle cx="327.7266921904673" cy="302.96217913401864" r="9" fill="#2e7d32" fill-opacity="0.7" />
<circle cx="358.454819464772" cy="279.7834702368661" r="8" fill="#2e7d32" fill-opacity="0.7" />
<circle cx="366.03915526050037" cy="328.3078343549339" r="9" fill="#66bb6a" fill-opacity="0.7" />
<circle cx="322.88288913303603" cy="326.97883680291943" r="10" fill="#43a047" fill-opacity="0.7" />
<circle cx="364.07693498434537" cy="316.1661773199794" r="8" fill="#2e7d32" fill-opacity="0.7" />
<path d="M408,370 Q464.63265306122446,350 505.087316712178,311.6640547805959" stroke="#5d4037" stroke-width="8" fill="none" stroke-linecap="round" stroke-opacity="1.0" />
<circle cx="470.1739636392747" cy="301.42483463903403" r="8" fill="#43a047" fill-opacity="0.7" />
<circle cx="529.6431737829088" cy="304.3403754819267" r="9" fill="#66bb6a" fill-opacity="0.7" />
<circle cx="470.1534685378901" cy="302.53107358402684" r="14" fill="#2e7d32" fill-opacity="0.7" />
<circle cx="519.9378716072823" cy="332.3629489782764" r="15" fill="#a5d6a7" fill-opacity="0.7" />
<circle cx="502.2102643013888" cy="297.6380958678173" r="15" fill="#66bb6a" fill-opacity="0.7" />
<circle cx="501.27852063204216" cy="341.5877450582445" r="11" fill="#2e7d32" fill-opacity="0.7" />
<circle cx="486.43765431895133" cy="341.64173503696327" r="16" fill="#a5d6a7" fill-opacity="0.7" />
<circle cx="521.4515859481215" cy="277.63439122426263" r="12" fill="#43a047" fill-opacity="0.7" />
<circle cx="520.6567768631626" cy="307.68356200883346" r="16" fill="#2e7d32" fill-opacity="0.7" />
<circle cx="499.9240491994321" cy="301.8057231163681" r="16" fill="#a5d6a7" fill-opacity="0.7" />
<path d="M408,355 Q352.38775510204084,335 333.5762897009025,272.3440959418" stroke="#5d4037" stroke-width="8" fill="none" stroke-linecap="round" stroke-opacity="1.0" />
<circle cx="313.2169746773783" cy="281.8769427631121" r="8" fill="#2e7d32" fill-opacity="0.7" />
<circle cx="310.92646127876037" cy="267.05489332423195" r="12" fill="#66bb6a" fill-opacity="0.7" />
<circle cx="309.91383659716354" cy="291.3618535569493" r="16" fill="#2e7d32" fill-opacity="0.7" />
<circle cx="311.08867872641116" cy="262.22657611870727" r="10" fill="#66bb6a" fill-opacity="0.7" />
<circle cx="336.64806689219847" cy="255.32710946744248" r="10" fill="#66bb6a" fill-opacity="0.7" />
<circle cx="307.76465602110704" cy="243.95626541829975" r="11" fill="#66bb6a" fill-opacity="0.7" />
<circle cx="336.43424852922" cy="291.67735674927553" r="11" fill="#66bb6a" fill-opacity="0.7" />
<circle cx="325.24754657328197" cy="242.27206156562053" r="8" fill="#a5d6a7" fill-opacity="0.7" />
<circle cx="346.99526046911285" cy="286.81572340091907" r="11" fill="#43a047" fill-opacity="0.7" />
<circle cx="338.0737246770951" cy="294.78525978280106" r="10" fill="#2e7d32" fill-opacity="0.7" />
<text x="400" y="580" font-family="Segoe UI, Helvetica, Arial, sans-serif" font-size="20" fill="#3e2723" text-anchor="middle" font-weight="bold">@prithwiraj84's Contribution Garden</text>
<text x="400" y="595" font-family="Segoe UI, Helvetica, Arial, sans-serif" font-size="14" fill="#5d4037" text-anchor="middle" font-weight="bold">Grown over 5 years</text></svg>