<svg xmlns="http://www.w3.org/2000/svg" width="800" height="600" viewBox="0 0 800 600">
        <defs>
            <linearGradient id="sky" x1="0%" y1="0%" x2="0%" y2="100%">
                <stop offset="0%" style="stop-color:#e0f7fa;stop-opacity:1" />
                <stop offset="100%" style="stop-color:#ffffff;stop-opacity:1" />
            </linearGradient>
            <filter id="glow" x="-20%" y="-20%" width="140%" height="140%">
                <feGaussianBlur stdDeviation="2" result="coloredBlur"/>
                <feMerge>
                    <feMergeNode in="coloredBlur"/>
                    <feMergeNode in="SourceGraphic"/>
                </feMerge>
            </filter>
        </defs>
        <rect width="100%" height="100%" fill="url(#sky)"/><path d="M0,550 Q400,530 800,550 L800,600 L0,600 Z" stroke="#4e342e" stroke-width="0" fill="#5d4037" stroke-linecap="round" stroke-opacity="1.0" />
<path d="M0,550 Q400,530 800,550" stroke="none" stroke-width="0" fill="#76ff03" stroke-linecap="round" stroke-opacity="0.1" />
<path d="M400,550 Q386.5,470.0 373,390" stroke="#4e342e" stroke-width="35" fill="none" stroke-linecap="round" stroke-opacity="1.0" />
<path d="M373,430 Q455.9136690647482,410 512.0745078499426,339.6839585820405" stroke="#5d4037" stroke-width="8" fill="none" stroke-linecap="round" stroke-opacity="1.0" />
<circle cx="492.50756788665973" cy="372.7498085315825" r="8" fill="#a5d6a7" fill-opacity="0.7" />
<circle cx="524.0780162462022" cy="332.91919307020277" r="15" fill="#43a047" fill-opacity="0.7" />
<circle cx="488.8019250844377" cy="329.3991535794282" r="14" fill="#a5d6a7" fill-opacity="0.7" />
<circle cx="517.8364650303527" cy="348.68050015290703" r="16" fill="#a5d6a7" fill-opacity="0.7" />
<circle cx="501.51685135371764" cy="373.7938344819151" r="11" fill="#66bb6a" fill-opacity="0.7" />
<circle cx="477.5528097658299" cy="355.02049945927456" r="16" fill="#a5d6a7" fill-opacity="0.7" />
<circle cx="503.6940685692145" cy="340.17521049376614" r="15" fill="#2e7d32" fill-opacity="0.7" />
<circle cx="487.0835857294261" cy="371.45510785349603" r="14" fill="#66bb6a" fill-opacity="0.7" />
<circle cx="527.0972919815798" cy="359.14387275730064" r="15" fill="#a5d6a7" fill-opacity="0.7" />
<circle cx="546.2170990043982" cy="345.20691230134645" r="13" fill="#43a047" fill-opacity="0.7" />
<circle cx="499.39405912737806" cy="325.98201079850963" r="16" fill="#2e7d32" fill-opacity="0.7" />
<circle cx="516.8791919915834" cy="310.18300038299884" r="12" fill="#a5d6a7" fill-opacity="0.7" />
<path d="M373,415 Q308.431654676259,395 263.48587535246156,346.5679799065753" stroke="#5d4037" stroke-width="8" fill="none" stroke-linecap="round" stroke-opacity="1.0" />
<circle cx="258.89012599780244" cy="338.42546378402176" r="16" fill="#43a047" fill-opacity="0.7" />
<circle cx="271.0247018778023" cy="349.25676792407336" r="8" fill="#2e7d32" fill-opacity="0.7" />
<circle cx="247.38421014830294" cy="354.66488814218377" r="9" fill="#66bb6a" fill-opacity="0.7" />
<circle cx="248.70290428011958" cy="321.5729616688429" r="9" fill="#2e7d32" fill-opacity="0.7" />
<circle cx="291.22720499823663" cy="354.33921586999674" r="14" fill="#a5d6a7" fill-opacity="0.7" />
<circle cx="240.6286210417158" cy="315.64242843273956" r="10" fill="#2e7d32" fill-opacity="0.7" />
<circle cx="235.09685894752712" cy="373.9631643073441" r="10" fill="#43a047" fill-opacity="0.7" />
<circle cx="247.16033792793726" cy="321.3569127954466" r="12" fill="#2e7d32" fill-opacity="0.7" />
<circle cx="236.8875206943841" cy="353.6913321991033" r="14" fill="#43a047" fill-opacity="0.7" />
<circle cx="232.6028997816158" cy="327.5104762552471" r="11" fill="#66bb6a" fill-opacity="0.7" />
<path d="M373,400 Q430.55395683453236,380 471.666739649164,340.7150417369722" stroke="#5d4037" stroke-width="8" fill="none" stroke-linecap="round" stroke-opacity="1.0" />
<circle cx="490.46058475720776" cy="350.2399948661793" r="11" fill="#66bb6a" fill-opacity="0.7" />
<circle cx="458.2729347350596" cy="357.5957557257002" r="14" fill="#43a047" fill-opacity="0.7" />
<circle cx="453.60452132789555" cy="330.66240873845436" r="10" fill="#a5d6a7" fill-opacity="0.7" />
<circle cx="471.0361235550977" cy="353.9217075772069" r="12" fill="#66bb6a" fill-opacity="0.7" />
<circle cx="496.7477493345124" cy="351.10728005236626" r="14" fill="#43a047" fill-opacity="0.7" />
<circle cx="488.5851316414916" cy="331.06154530633023" r="8" fill="#a5d6a7" fill-opacity="0.7" />
<circle cx="456.75239062215104" cy="357.53501725531106" r="12" fill="#66bb6a" fill-opacity="0.7" />
<circle cx="478.47929150225787" cy="373.84634274626825" r="8" fill="#66bb6a" fill-opacity="0.7" />
<circle cx="484.5911823919036" cy="348.52500990083314" r="15" fill="#43a047" fill-opacity="0.7" />
<circle cx="463.2473616322365" cy="351.49910256225905" r="12" fill="#66bb6a" fill-opacity="0.7" />
<path d="M373,385 Q315.9856115107914,365 292.3694785481527,304.36947854815264" stroke="#5d4037" stroke-width="8" fill="none" stroke-linecap="round" stroke-opacity="1.0" />
<circle cx="282.6579237885221" cy="299.69151434239046" r="14" fill="#66bb6a" fill-opacity="0.7" />
<circle cx="282.8651896664445" cy="323.3659112902847" r="13" fill="#43a047" fill-opacity="0.7" />
<circle cx="266.3621246664703" cy="291.4508908891149" r="8" fill="#2e7d32" fill-opacity="0.7" />
<circle cx="302.63332368297563" cy="306.64129970316566" r="11" fill="#2e7d32" fill-opacity="0.7" />
<circle cx="283.85813979548834" cy="273.3907800170489" r="8" fill="#66bb6a" fill-opacity="0.7" />
<circle cx="277.13312109772346" cy="334.9081263597349" r="16" fill="#43a047" fill-opacity="0.7" />
<circle cx="257.59989713899364" cy="277.07343198111096" r="13" fill="#66bb6a" fill-opacity="0.7" />
<circle cx="321.8350400239103" cy="288.0327280737025" r="10" fill="#a5d6a7" fill-opacity="0.7" />
<circle cx="274.1127582042202" cy="283.65603360778994" r="13" fill="#43a047" fill-opacity="0.7" />
<circle cx="311.6225839017909" cy="277.28509998371794" r="16" fill="#2e7d32" fill-opacity="0.7" />
<path d="M373,370 Q430.0143884892086,350 452.21104440125976,287.97456233548473" stroke="#5d4037" stroke-width="8" fill="none" stroke-linecap="round" stroke-opacity="1.0" />
<circle cx="431.17293744159673" cy="254.74763363147002" r="12" fill="#66bb6a" fill-opacity="0.7" />
<circle cx="423.5340806464739" cy="290.3436147601176" r="8" fill="#66bb6a" fill-opacity="0.7" />
<circle cx="469.1976240443646" cy="260.7815595315766" r="16" fill="#66bb6a" fill-opacity="0.7" />
<circle cx="450.73987330027876" cy="313.89877824883797" r="15" fill="#a5d6a7" fill-opacity="0.7" />
<circle cx="462.353694361313" cy="262.50974734007394" r="13" fill="#66bb6a" fill-opacity="0.7" />
<circle cx="433.44235385001565" cy="290.46205646824507" r="12" fill="#66bb6a" fill-opacity="0.7" />
<circle cx="432.2889194913837" cy="269.52134983786533" r="12" fill="#43a047" fill-opacity="0.7" />
<circle cx="471.53999770284645" cy="253.1047977031427" r="13" fill="#2e7d32" fill-opacity="0.7" />
<circle cx="424.32875176685076" cy="279.1469837725999" r="9" fill="#43a047" fill-opacity="0.7" />
<circle cx="445.74162123159823" cy="280.1948625676107" r="13" fill="#2e7d32" fill-opacity="0.7" />
<path d="M373,355 Q317.0647482014389,335 308.83371521396566,263.36104828277826" stroke="#5d4037" stroke-width="8" fill="none" stroke-linecap="round" stroke-opacity="1.0" />
<circle cx="324.8723005145684" cy="229.57607545730224" r="13" fill="#66bb6a" fill-opacity="0.7" />
<circle cx="276.93145653332647" cy="291.7233637703045" r="14" fill="#a5d6a7" fill-opacity="0.7" />
<circle cx="283.57973579226723" cy="241.57375498276338" r="11" fill="#a5d6a7" fill-opacity="0.7" />
<circle cx="282.01126340548655" cy="286.43171853989486" r="12" fill="#a5d6a7" fill-opacity="0.7" />
<circle cx="301.95562413083053" cy="262.7359386457985" r="8" fill="#a5d6a7" fill-opacity="0.7" />
<circle cx="319.0718694760977" cy="253.60710566699538" r="9" fill="#a5d6a7" fill-opacity="0.7" />
<circle cx="310.0733899981367" cy="273.3615616384661" r="13" fill="#43a047" fill-opacity="0.7" />
<circle cx="302.087290454674" cy="295.0464955463256" r="8" fill="#a5d6a7" fill-opacity="0.7" />
<circle cx="276.04060290194667" cy="235.31010967452767" r="8" fill="#a5d6a7" fill-opacity="0.7" />
<circle cx="325.83970314671865" cy="232.59640062165255" r="16" fill="#43a047" fill-opacity="0.7" />
<text x="400" y="580" font-family="Segoe UI, Helvetica, Arial, sans-serif" font-size="20" fill="#3e2723" text-anchor="middle" font-weight="bold">@prithwiraj84's Contribution Garden</text>
<text x="400" y="595" font-family="Segoe UI, Helvetica, Arial, sans-serif" font-size="14" fill="#5d4037" text-anchor="middle" font-weight="bold">Grown over 5 years</text></svg>