<svg xmlns="http://www.w3.org/2000/svg" width="800" height="600" viewBox="0 0 800 600">
        <defs>
            <linearGradient id="sky" x1="0%" y1="0%" x2="0%" y2="100%">
                <stop offset="0%" style="stop-color:#e0f7fa;stop-opacity:1" />
                <stop offset="100%" style="stop-color:#ffffff;stop-opacity:1" />
            </linearGradient>
            <filter id="glow" x="-20%" y="-20%" width="140%" height="140%">
                <feGaussianBlur stdDeviation="2" result="coloredBlur"/>
                <feMerge>
                    <feMergeNode in="coloredBlur"/>
                    <feMergeNode in="SourceGraphic"/>
                </feMerge>
            </filter>
        </defs>
        <rect width="100%" height="100%" fill="url(#sky)"/><path d="M0,550 Q400,530 800,550 L800,600 L0,600 Z" stroke="#4e342e" stroke-width="0" fill="#5d4037" stroke-linecap="round" stroke-opacity="1.0" />
<path d="M0,550 Q400,530 800,550" stroke="none" stroke-width="0" fill="#76ff03" stroke-linecap="round" stroke-opacity="0.1" />
<path d="M400,550 Q388.0,470.0 376,390" stroke="#4e342e" stroke-width="35" fill="none" stroke-linecap="round" stroke-opacity="1.0" />
<path d="M376,430 Q462.7741935483871,410 454.78931898705684,275.3672548344058" stroke="#5d4037" stroke-width="8" fill="none" stroke-linecap="round" stroke-opacity="1.0" />
<circle cx="453.57329205679935" cy="302.25725462165093" r="12" fill="#43a047" fill-opacity="0.7" />
<circle cx="484.52096113791174" cy="291.5417852942276" r="16" fill="#a5d6a7" fill-opacity="0.7" />
<circle cx="436.4682641246377" cy="267.6776949757163" r="12" fill="#43a047" fill-opacity="0.7" />
<circle cx="453.2678579404554" cy="265.51478828474336" r="15" fill="#a5d6a7" fill-opacity="0.7" />
<circle cx="464.8547822512011" cy="299.1052611304539" r="13" fill="#2e7d32" fill-opacity="0.7" />
<circle cx="455.0382550302057" cy="277.1060369181133" r="16" fill="#43a047" fill-opacity="0.7" />
<circle cx="425.4506288953829" cy="269.4603908308589" r="15" fill="#2e7d32" fill-opacity="0.7" />
<circle cx="428.55782519452765" cy="307.5149781334083" r="13" fill="#43a047" fill-opacity="0.7" />
<circle cx="433.5898823571364" cy="291.8111521726863" r="16" fill="#a5d6a7" fill-opacity="0.7" />
<circle cx="479.5135719332426" cy="299.387989790151" r="9" fill="#43a047" fill-opacity="0.7" />
<circle cx="471.008643001994" cy="301.03009069183554" r="14" fill="#2e7d32" fill-opacity="0.7" />
<circle cx="424.3391271082958" cy="265.52266938338613" r="8" fill="#66bb6a" fill-opacity="0.7" />
<circle cx="449.0496420472482" cy="296.77474391005234" r="11" fill="#43a047" fill-opacity="0.7" />
<circle cx="448.1948856289752" cy="270.260582248847" r="11" fill="#a5d6a7" fill-opacity="0.7" />
<circle cx="421.78728170107877" cy="279.8996037511171" r="8" fill="#2e7d32" fill-opacity="0.7" />
<path d="M376,415 Q312.93548387096774,395 286.81330598582576,325.81330598582576" stroke="#5d4037" stroke-width="8" fill="none" stroke-linecap="round" stroke-opacity="1.0" />
<circle cx="292.1557765548065" cy="345.3488629902796" r="11" fill="#2e7d32" fill-opacity="0.7" />
<circle cx="280.8866769816927" cy="354.9639405393966" r="12" fill="#a5d6a7" fill-opacity="0.7" />
<circle cx="299.2362241886045" cy="305.5569432163258" r="9" fill="#66bb6a" fill-opacity="0.7" />
<circle cx="291.8844610668791" cy="339.03063269425263" r="9" fill="#66bb6a" fill-opacity="0.7" />
<circle cx="259.69151142925494" cy="356.1656780029356" r="16" fill="#2e7d32" fill-opacity="0.7" />
<circle cx="318.11582474284893" cy="338.0553279806569" r="10" fill="#2e7d32" fill-opacity="0.7" />
<circle cx="258.1665591291853" cy="326.0276592438977" r="13" fill="#a5d6a7" fill-opacity="0.7" />
<circle cx="277.4550220379826" cy="334.19831223998904" r="14" fill="#2e7d32" fill-opacity="0.7" />
<circle cx="292.5895371610321" cy="336.5463372019527" r="11" fill="#43a047" fill-opacity="0.7" />
<circle cx="309.82344557673923" cy="330.66617929996784" r="14" fill="#a5d6a7" fill-opacity="0.7" />
<path d="M376,400 Q432.7741935483871,380 427.54988900268404,298.82764628570794" stroke="#5d4037" stroke-width="8" fill="none" stroke-linecap="round" stroke-opacity="1.0" />
<circle cx="460.9730334700727" cy="286.99490601692975" r="9" fill="#2e7d32" fill-opacity="0.7" />
<circle cx="426.7206507416275" cy="330.85021790297117" r="15" fill="#66bb6a" fill-opacity="0.7" />
<circle cx="412.95190215561" cy="275.58124184847225" r="10" fill="#43a047" fill-opacity="0.7" />
<circle cx="444.4087735093942" cy="327.0402407200798" r="16" fill="#2e7d32" fill-opacity="0.7" />
<circle cx="408.7304722218166" cy="295.8578015408352" r="14" fill="#2e7d32" fill-opacity="0.7" />
<circle cx="449.2906532069308" cy="299.347554432166" r="14" fill="#a5d6a7" fill-opacity="0.7" />
<circle cx="421.1450974828344" cy="325.0125017523737" r="9" fill="#66bb6a" fill-opacity="0.7" />
<circle cx="404.2240922177192" cy="293.44486967194774" r="12" fill="#a5d6a7" fill-opacity="0.7" />
<circle cx="406.9566309003951" cy="296.58427875388554" r="11" fill="#a5d6a7" fill-opacity="0.7" />
<circle cx="446.9072189167825" cy="279.25024541590085" r="15" fill="#43a047" fill-opacity="0.7" />
<path d="M376,385 Q319.7096774193548,365 299.220184625222,302.66372843061595" stroke="#5d4037" stroke-width="8" fill="none" stroke-linecap="round" stroke-opacity="1.0" />
<circle cx="303.60796146349867" cy="305.59167026748577" r="16" fill="#2e7d32" fill-opacity="0.7" />
<circle cx="281.2393523450901" cy="296.3822715024774" r="13" fill="#43a047" fill-opacity="0.7" />
<circle cx="271.7241047764423" cy="294.255108528057" r="12" fill="#43a047" fill-opacity="0.7" />
<circle cx="320.801745791949" cy="302.34624969243777" r="10" fill="#a5d6a7" fill-opacity="0.7" />
<circle cx="303.4904904698825" cy="331.8574961077213" r="11" fill="#66bb6a" fill-opacity="0.7" />
<circle cx="324.988574289226" cy="318.69650364194183" r="9" fill="#66bb6a" fill-opacity="0.7" />
<circle cx="317.5394842061976" cy="297.76481907919884" r="9" fill="#a5d6a7" fill-opacity="0.7" />
<circle cx="288.5550996184179" cy="334.2650625542787" r="15" fill="#43a047" fill-opacity="0.7" />
<circle cx="309.00790158171264" cy="291.15485244781996" r="12" fill="#2e7d32" fill-opacity="0.7" />
<circle cx="291.48563027910393" cy="333.47923738975106" r="13" fill="#2e7d32" fill-opacity="0.7" />
<path d="M376,370 Q432.2903225806452,350 435.6586526507705,274.5261982069056" stroke="#5d4037" stroke-width="8" fill="none" stroke-linecap="round" stroke-opacity="1.0" />
<circle cx="418.1697562238228" cy="276.65225266218016" r="13" fill="#43a047" fill-opacity="0.7" />
<circle cx="450.62505283898764" cy="296.5616662964366" r="8" fill="#66bb6a" fill-opacity="0.7" />
<circle cx="401.97433965630114" cy="244.42250289160424" r="14" fill="#66bb6a" fill-opacity="0.7" />
<circle cx="458.5650083426539" cy="289.77348756703816" r="11" fill="#43a047" fill-opacity="0.7" />
<circle cx="456.7174319940432" cy="271.4263158213142" r="14" fill="#a5d6a7" fill-opacity="0.7" />
<circle cx="456.6052296336354" cy="261.1454572563152" r="15" fill="#66bb6a" fill-opacity="0.7" />
<circle cx="445.8092254129266" cy="243.76425799191077" r="16" fill="#2e7d32" fill-opacity="0.7" />
<circle cx="410.04984437687904" cy="272.07305696471565" r="12" fill="#43a047" fill-opacity="0.7" />
<circle cx="430.35628551088615" cy="255.43017021814745" r="15" fill="#2e7d32" fill-opacity="0.7" />
<circle cx="452.63312366441255" cy="254.6880665097899" r="10" fill="#66bb6a" fill-opacity="0.7" />
<path d="M376,355 Q320.19354838709677,335 316.85417244364874,260.3468899128634" stroke="#5d4037" stroke-width="8" fill="none" stroke-linecap="round" stroke-opacity="1.0" />
<circle cx="344.22854238827534" cy="277.36090594248583" r="14" fill="#2e7d32" fill-opacity="0.7" />
<circle cx="348.0735497796036" cy="264.4543603243945" r="16" fill="#66bb6a" fill-opacity="0.7" />
<circle cx="338.0339608153882" cy="280.3517402846444" r="10" fill="#a5d6a7" fill-opacity="0.7" />
<circle cx="350.1079938186077" cy="262.24864950709133" r="15" fill="#2e7d32" fill-opacity="0.7" />
<circle cx="300.0255375196997" cy="226.83516496556007" r="13" fill="#2e7d32" fill-opacity="0.7" />
<circle cx="298.194025765785" cy="253.78580872950158" r="13" fill="#2e7d32" fill-opacity="0.7" />
<circle cx="341.10288699510727" cy="285.95646841343097" r="10" fill="#66bb6a" fill-opacity="0.7" />
<circle cx="295.71569908824307" cy="280.1479416148316" r="14" fill="#a5d6a7" fill-opacity="0.7" />
<circle cx="341.35526941001456" cy="230.49448421151038" r="16" fill="#2e7d32" fill-opacity="0.7" />
<circle cx="340.78537636990154" cy="287.45499447123973" r="12" fill="#43a047" fill-opacity="0.7" />
<text x="400" y="580" font-family="Segoe UI, Helvetica, Arial, sans-serif" font-size="20" fill="#3e2723" text-anchor="middle" font-weight="bold">@prithwiraj84's Contribution Garden</text>
<text x="400" y="595" font-family="Segoe UI, Helvetica, Arial, sans-serif" font-size="14" fill="#5d4037" text-anchor="middle" font-weight="bold">Grown over 5 years</text></svg>