<svg xmlns="http://www.w3.org/2000/svg" width="800" height="600" viewBox="0 0 800 600">
        <defs>
            <linearGradient id="sky" x1="0%" y1="0%" x2="0%" y2="100%">
                <stop offset="0%" style="stop-color:#e0f7fa;stop-opacity:1" />
                <stop offset="100%" style="stop-color:#ffffff;stop-opacity:1" />
            </linearGradient>
            <filter id="glow" x="-20%" y="-20%" width="140%" height="140%">
                <feGaussianBlur stdDeviation="2" result="coloredBlur"/>
                <feMerge>
                    <feMergeNode in="coloredBlur"/>
                    <feMergeNode in="SourceGraphic"/>
                </feMerge>
            </filter>
        </defs>
        <rect width="100%" height="100%" fill="url(#sky)"/><path d="M0,550 Q400,530 800,550 L800,600 L0,600 Z" stroke="#4e342e" stroke-width="0" fill="#5d4037" stroke-linecap="round" stroke-opacity="1.0" />
<path d="M0,550 Q400,530 800,550" stroke="none" stroke-width="0" fill="#76ff03" stroke-linecap="round" stroke-opacity="0.1" />
<path d="M400,550 Q394.5,470.0 389,390" stroke="#4e342e" stroke-width="35" fill="none" stroke-linecap="round" stroke-opacity="1.0" />
<path d="M389,430 Q470.01503759398497,410 523.3290202147455,339.39393180605566" stroke="#5d4037" stroke-width="8" fill="none" stroke-linecap="round" stroke-opacity="1.0" />
<circle cx="557.8588080989193" cy="315.12379147131287" r="13" fill="#66bb6a" fill-opacity="0.7" />
<circle cx="536.7681957427753" cy="305.05071101007854" r="11" fill="#2e7d32" fill-opacity="0.7" />
<circle cx="519.9903735960513" cy="338.09660995707736" r="11" fill="#2e7d32" fill-opacity="0.7" />
<circle cx="534.318912597816" cy="357.37043858005063" r="11" fill="#66bb6a" fill-opacity="0.7" />
<circle cx="492.09331448518816" cy="369.58146686433736" r="10" fill="#66bb6a" fill-opacity="0.7" />
<circle cx="501.417427267808" cy="366.22753325323436" r="11" fill="#66bb6a" fill-opacity="0.7" />
<circle cx="539.2005173927295" cy="307.3039054531125" r="8" fill="#66bb6a" fill-opacity="0.7" />
<circle cx="519.1733551485997" cy="315.2388713080316" r="11" fill="#43a047" fill-opacity="0.7" />
<circle cx="500.05685889049613" cy="308.7891818980313" r="8" fill="#43a047" fill-opacity="0.7" />
<circle cx="532.1423899083646" cy="326.9477722974586" r="14" fill="#2e7d32" fill-opacity="0.7" />
<circle cx="542.1040358513361" cy="355.5328721088568" r="11" fill="#a5d6a7" fill-opacity="0.7" />
<path d="M389,415 Q323.77443609022555,395 295.16131176033383,324.38103212433384" stroke="#5d4037" stroke-width="8" fill="none" stroke-linecap="round" stroke-opacity="1.0" />
<circle cx="297.7210507128452" cy="294.0880224973797" r="15" fill="#2e7d32" fill-opacity="0.7" />
<circle cx="306.064292697997" cy="326.980035915706" r="8" fill="#43a047" fill-opacity="0.7" />
<circle cx="286.2733068653076" cy="315.732923628475" r="12" fill="#43a047" fill-opacity="0.7" />
<circle cx="283.43648309725756" cy="343.41567864119526" r="16" fill="#43a047" fill-opacity="0.7" />
<circle cx="329.1954777609747" cy="337.9396062845778" r="9" fill="#2e7d32" fill-opacity="0.7" />
<circle cx="299.454157530509" cy="300.7681257167972" r="12" fill="#2e7d32" fill-opacity="0.7" />
<circle cx="328.7758019783301" cy="305.07306330086914" r="11" fill="#66bb6a" fill-opacity="0.7" />
<circle cx="282.7683431168487" cy="292.2844053475189" r="15" fill="#66bb6a" fill-opacity="0.7" />
<circle cx="283.2338994504958" cy="293.2319186696327" r="14" fill="#2e7d32" fill-opacity="0.7" />
<circle cx="265.551938583545" cy="332.01224078904636" r="11" fill="#43a047" fill-opacity="0.7" />
<path d="M389,400 Q446.89473684210526,380 450.35907270068685,301.80495728715067" stroke="#5d4037" stroke-width="8" fill="none" stroke-linecap="round" stroke-opacity="1.0" />
<circle cx="433.8577516394524" cy="296.7044440191342" r="15" fill="#66bb6a" fill-opacity="0.7" />
<circle cx="453.91519588623544" cy="326.6483144173232" r="11" fill="#66bb6a" fill-opacity="0.7" />
<circle cx="440.2441530206906" cy="289.7252006345645" r="10" fill="#a5d6a7" fill-opacity="0.7" />
<circle cx="421.6919289544312" cy="275.03611402967874" r="9" fill="#43a047" fill-opacity="0.7" />
<circle cx="440.99899413092174" cy="316.48533450473866" r="10" fill="#66bb6a" fill-opacity="0.7" />
<circle cx="474.80403880447597" cy="291.8359888264755" r="15" fill="#2e7d32" fill-opacity="0.7" />
<circle cx="462.6026635147187" cy="303.04118190587695" r="14" fill="#43a047" fill-opacity="0.7" />
<circle cx="423.7392916342582" cy="320.42774509141555" r="10" fill="#2e7d32" fill-opacity="0.7" />
<circle cx="425.6584013942641" cy="327.7428264509963" r="12" fill="#2e7d32" fill-opacity="0.7" />
<circle cx="484.0473725080815" cy="322.86460037582196" r="10" fill="#a5d6a7" fill-opacity="0.7" />
<path d="M389,385 Q331.6691729323308,365 318.4072368517572,294.6453835150187" stroke="#5d4037" stroke-width="8" fill="none" stroke-linecap="round" stroke-opacity="1.0" />
<circle cx="293.0968216624975" cy="296.47826975781624" r="10" fill="#66bb6a" fill-opacity="0.7" />
<circle cx="308.41907345528756" cy="271.85049215130476" r="9" fill="#43a047" fill-opacity="0.7" />
<circle cx="319.4680753514846" cy="271.167811326182" r="11" fill="#66bb6a" fill-opacity="0.7" />
<circle cx="336.6740398824941" cy="309.0638653938381" r="14" fill="#a5d6a7" fill-opacity="0.7" />
<circle cx="350.8764606440754" cy="314.42755306891036" r="8" fill="#2e7d32" fill-opacity="0.7" />
<circle cx="330.5224238466161" cy="260.3914573526588" r="8" fill="#2e7d32" fill-opacity="0.7" />
<circle cx="297.65786643705354" cy="281.0290767810589" r="15" fill="#2e7d32" fill-opacity="0.7" />
<circle cx="313.51168567727814" cy="261.2449350682454" r="10" fill="#66bb6a" fill-opacity="0.7" />
<circle cx="333.1269718779396" cy="266.2859719436339" r="13" fill="#2e7d32" fill-opacity="0.7" />
<circle cx="317.10763797266975" cy="322.88742646157283" r="11" fill="#2e7d32" fill-opacity="0.7" />
<path d="M389,370 Q446.3308270676692,350 437.45810895898995,266.08124998263975" stroke="#5d4037" stroke-width="8" fill="none" stroke-linecap="round" stroke-opacity="1.0" />
<circle cx="455.03959545469166" cy="254.2489607817568" r="10" fill="#43a047" fill-opacity="0.7" />
<circle cx="432.2949745630853" cy="261.2901749024478" r="8" fill="#66bb6a" fill-opacity="0.7" />
<circle cx="406.33899120129644" cy="232.0309383576092" r="9" fill="#43a047" fill-opacity="0.7" />
<circle cx="436.6433056851688" cy="286.1716523990101" r="12" fill="#43a047" fill-opacity="0.7" />
<circle cx="440.11616509777525" cy="234.48177418612704" r="15" fill="#43a047" fill-opacity="0.7" />
<circle cx="461.6711708633686" cy="256.44907189403807" r="14" fill="#66bb6a" fill-opacity="0.7" />
<circle cx="415.26644458436886" cy="284.828366313651" r="10" fill="#66bb6a" fill-opacity="0.7" />
<circle cx="419.97750894659316" cy="291.2668311034961" r="15" fill="#2e7d32" fill-opacity="0.7" />
<circle cx="417.02210106530003" cy="296.7798092934485" r="13" fill="#a5d6a7" fill-opacity="0.7" />
<circle cx="432.1149913970342" cy="266.6808821075665" r="16" fill="#43a047" fill-opacity="0.7" />
<path d="M389,355 Q332.796992481203,335 292.6492395075445,297.10662240672696" stroke="#5d4037" stroke-width="8" fill="none" stroke-linecap="round" stroke-opacity="1.0" />
<circle cx="309.7119925905215" cy="271.0725438113587" r="13" fill="#2e7d32" fill-opacity="0.7" />
<circle cx="266.5291357114639" cy="300.2679227183586" r="9" fill="#a5d6a7" fill-opacity="0.7" />
<circle cx="267.1975053917886" cy="317.08902892859743" r="14" fill="#66bb6a" fill-opacity="0.7" />
<circle cx="307.43068027476295" cy="287.1399590204115" r="9" fill="#a5d6a7" fill-opacity="0.7" />
<circle cx="281.64214690165454" cy="299.4729517728795" r="16" fill="#43a047" fill-opacity="0.7" />
<circle cx="302.4112111732328" cy="316.7653527695792" r="16" fill="#2e7d32" fill-opacity="0.7" />
<circle cx="292.06278204056855" cy="289.8672581480486" r="13" fill="#43a047" fill-opacity="0.7" />
<circle cx="323.0681604929688" cy="321.181963866402" r="15" fill="#43a047" fill-opacity="0.7" />
<circle cx="292.6071255335241" cy="314.19638762426985" r="8" fill="#66bb6a" fill-opacity="0.7" />
<circle cx="288.8385079539284" cy="293.3810556652857" r="10" fill="#2e7d32" fill-opacity="0.7" />
<text x="400" y="580" font-family="Segoe UI, Helvetica, Arial, sans-serif" font-size="20" fill="#3e2723" text-anchor="middle" font-weight="bold">@prithwiraj84's Contribution Garden</text>
<text x="400" y="595" font-family="Segoe UI, Helvetica, Arial, sans-serif" font-size="14" fill="#5d4037" text-anchor="middle" font-weight="bold">Grown over 5 years</text></svg>