<svg xmlns="http://www.w3.org/2000/svg" width="800" height="600" viewBox="0 0 800 600">
        <defs>
            <linearGradient id="sky" x1="0%" y1="0%" x2="0%" y2="100%">
                <stop offset="0%" style="stop-color:#e0f7fa;stop-opacity:1" />
                <stop offset="100%" style="stop-color:#ffffff;stop-opacity:1" />
            </linearGradient>
            <filter id="glow" x="-20%" y="-20%" width="140%" height="140%">
                <feGaussianBlur stdDeviation="2" result="coloredBlur"/>
                <feMerge>
                    <feMergeNode in="coloredBlur"/>
                    <feMergeNode in="SourceGraphic"/>
                </feMerge>
            </filter>
        </defs>
        <rect width="100%" height="100%" fill="url(#sky)"/><path d="M0,550 Q400,530 800,550 L800,600 L0,600 Z" stroke="#4e342e" stroke-width="0" fill="#5d4037" stroke-linecap="round" stroke-opacity="1.0" />
<path d="M0,550 Q400,530 800,550" stroke="none" stroke-width="0" fill="#76ff03" stroke-linecap="round" stroke-opacity="0.1" />
<path d="M400,550 Q388.5,470.0 377,390" stroke="#4e342e" stroke-width="35" fill="none" stroke-linecap="round" stroke-opacity="1.0" />
<path d="M377,430 Q457.2325581395349,410 477.98396972660186,305.2951829289977" stroke="#5d4037" stroke-width="8" fill="none" stroke-linecap="round" stroke-opacity="1.0" />
<circle cx="483.8276621908995" cy="314.29439289608683" r="11" fill="#43a047" fill-opacity="0.7" />
<circle cx="466.0690583188644" cy="283.31947022365324" r="11" fill="#66bb6a" fill-opacity="0.7" />
<circle cx="464.42177064833334" cy="273.75634196389746" r="15" fill="#2e7d32" fill-opacity="0.7" />
<circle cx="458.64696945222477" cy="288.6066110590662" r="9" fill="#2e7d32" fill-opacity="0.7" />
<circle cx="486.66039405086485" cy="299.82945244456243" r="15" fill="#2e7d32" fill-opacity="0.7" />
<circle cx="509.8099538580139" cy="324.8373911313913" r="11" fill="#a5d6a7" fill-opacity="0.7" />
<circle cx="452.90523349543355" cy="338.97380616367803" r="9" fill="#a5d6a7" fill-opacity="0.7" />
<circle cx="479.5297243318812" cy="283.8036923323078" r="9" fill="#2e7d32" fill-opacity="0.7" />
<circle cx="476.74232168590044" cy="317.7790966396304" r="15" fill="#a5d6a7" fill-opacity="0.7" />
<circle cx="473.4951948185147" cy="287.8962485931587" r="12" fill="#2e7d32" fill-opacity="0.7" />
<path d="M377,415 Q311.30232558139534,395 287.3885875731834,318.90352525236483" stroke="#5d4037" stroke-width="8" fill="none" stroke-linecap="round" stroke-opacity="1.0" />
<circle cx="316.3793318649291" cy="343.7236775989254" r="8" fill="#2e7d32" fill-opacity="0.7" />
<circle cx="294.18952888636375" cy="314.2021402448397" r="12" fill="#66bb6a" fill-opacity="0.7" />
<circle cx="310.2760358225604" cy="336.12288076255254" r="11" fill="#2e7d32" fill-opacity="0.7" />
<circle cx="278.3535346151812" cy="347.4737692220149" r="8" fill="#43a047" fill-opacity="0.7" />
<circle cx="294.3756314132913" cy="292.76765104609683" r="14" fill="#a5d6a7" fill-opacity="0.7" />
<circle cx="274.60005654564793" cy="350.4340119888137" r="16" fill="#43a047" fill-opacity="0.7" />
<circle cx="258.76197457089677" cy="338.5294540205938" r="11" fill="#2e7d32" fill-opacity="0.7" />
<circle cx="321.3509067209817" cy="329.1419106056144" r="12" fill="#2e7d32" fill-opacity="0.7" />
<circle cx="292.127529150599" cy="305.99071283292466" r="11" fill="#43a047" fill-opacity="0.7" />
<circle cx="275.85443508530705" cy="348.01697033581706" r="8" fill="#a5d6a7" fill-opacity="0.7" />
<path d="M377,400 Q435.1395348837209,380 440.33012035058454,302.48016651797394" stroke="#5d4037" stroke-width="8" fill="none" stroke-linecap="round" stroke-opacity="1.0" />
<circle cx="408.6246509205208" cy="336.04814307483866" r="15" fill="#43a047" fill-opacity="0.7" />
<circle cx="454.85714440952296" cy="318.92259268379905" r="9" fill="#43a047" fill-opacity="0.7" />
<circle cx="449.51368354276826" cy="294.7200975606705" r="16" fill="#2e7d32" fill-opacity="0.7" />
<circle cx="458.76278742539034" cy="333.43070185015796" r="11" fill="#66bb6a" fill-opacity="0.7" />
<circle cx="459.63658483860246" cy="284.94440957805057" r="12" fill="#66bb6a" fill-opacity="0.7" />
<circle cx="453.9721940906031" cy="290.7871129248925" r="16" fill="#66bb6a" fill-opacity="0.7" />
<circle cx="409.55670764911906" cy="323.17728804821286" r="9" fill="#43a047" fill-opacity="0.7" />
<circle cx="418.03874567160244" cy="324.45971772058186" r="16" fill="#43a047" fill-opacity="0.7" />
<circle cx="470.0469685144201" cy="269.99730872072337" r="14" fill="#2e7d32" fill-opacity="0.7" />
<circle cx="457.8901796982547" cy="287.8582554249382" r="8" fill="#a5d6a7" fill-opacity="0.7" />
<path d="M377,385 Q319.4418604651163,365 286.28713417783086,314.1273417939068" stroke="#5d4037" stroke-width="8" fill="none" stroke-linecap="round" stroke-opacity="1.0" />
<circle cx="309.01441059673516" cy="320.93406874175787" r="9" fill="#2e7d32" fill-opacity="0.7" />
<circle cx="267.49292137887215" cy="282.6142622012366" r="12" fill="#2e7d32" fill-opacity="0.7" />
<circle cx="271.12118353036084" cy="306.19213343841125" r="8" fill="#2e7d32" fill-opacity="0.7" />
<circle cx="281.06414056704347" cy="288.8208930221263" r="13" fill="#66bb6a" fill-opacity="0.7" />
<circle cx="263.1745692755747" cy="285.81561859423925" r="10" fill="#43a047" fill-opacity="0.7" />
<circle cx="308.8613343349312" cy="345.7376530417221" r="12" fill="#43a047" fill-opacity="0.7" />
<circle cx="308.88351033496883" cy="302.0025825591146" r="11" fill="#66bb6a" fill-opacity="0.7" />
<circle cx="288.97820030368047" cy="297.903843702296" r="11" fill="#a5d6a7" fill-opacity="0.7" />
<circle cx="268.3431761754434" cy="306.30582799240995" r="14" fill="#66bb6a" fill-opacity="0.7" />
<circle cx="318.5734395726731" cy="348.1032909282045" r="10" fill="#a5d6a7" fill-opacity="0.7" />
<path d="M377,370 Q433.9767441860465,350 442.3610357702355,276.65476704613815" stroke="#5d4037" stroke-width="8" fill="none" stroke-linecap="round" stroke-opacity="1.0" />
<circle cx="461.2661956774878" cy="245.23580390208315" r="8" fill="#66bb6a" fill-opacity="0.7" />
<circle cx="463.44363688319754" cy="259.14362581292346" r="11" fill="#a5d6a7" fill-opacity="0.7" />
<circle cx="468.0826207213562" cy="304.83652188926743" r="9" fill="#66bb6a" fill-opacity="0.7" />
<circle cx="456.27796048231806" cy="274.2889452178768" r="8" fill="#66bb6a" fill-opacity="0.7" />
<circle cx="442.7521701845149" cy="255.10998677619207" r="11" fill="#43a047" fill-opacity="0.7" />
<circle cx="441.9901480802928" cy="285.74359210383307" r="9" fill="#a5d6a7" fill-opacity="0.7" />
<circle cx="410.5273155853981" cy="268.88555929447216" r="15" fill="#a5d6a7" fill-opacity="0.7" />
<circle cx="427.15945200358937" cy="253.16242101443427" r="12" fill="#43a047" fill-opacity="0.7" />
<circle cx="435.57033430067645" cy="276.0196574180615" r="11" fill="#66bb6a" fill-opacity="0.7" />
<circle cx="428.4790391488728" cy="296.6959249601729" r="11" fill="#2e7d32" fill-opacity="0.7" />
<path d="M377,355 Q320.6046511627907,335 288.11971732575347,285.55911266675713" stroke="#5d4037" stroke-width="8" fill="none" stroke-linecap="round" stroke-opacity="1.0" />
<circle cx="315.24812666643413" cy="266.1202042788673" r="14" fill="#66bb6a" fill-opacity="0.7" />
<circle cx="278.8088277535628" cy="262.6032914084646" r="10" fill="#66bb6a" fill-opacity="0.7" />
<circle cx="271.6856598076421" cy="274.58414104249147" r="9" fill="#a5d6a7" fill-opacity="0.7" />
<circle cx="287.15532342040575" cy="305.18861051163276" r="10" fill="#a5d6a7" fill-opacity="0.7" />
<circle cx="298.59080452659526" cy="263.8530935004086" r="16" fill="#43a047" fill-opacity="0.7" />
<circle cx="287.2563063470671" cy="284.4135846689363" r="15" fill="#66bb6a" fill-opacity="0.7" />
<circle cx="320.4147817801551" cy="266.2583977235593" r="11" fill="#a5d6a7" fill-opacity="0.7" />
<circle cx="269.7437263793905" cy="293.33117967521895" r="14" fill="#2e7d32" fill-opacity="0.7" />
<circle cx="315.9781807089493" cy="270.0528756377701" r="8" fill="#2e7d32" fill-opacity="0.7" />
<circle cx="305.7934360300636" cy="312.82687696861205" r="12" fill="#43a047" fill-opacity="0.7" />
<text x="400" y="580" font-family="Segoe UI, Helvetica, Arial, sans-serif" font-size="20" fill="#3e2723" text-anchor="middle" font-weight="bold">@prithwiraj84's Contribution Garden</text>
<text x="400" y="595" font-family="Segoe UI, Helvetica, Arial, sans-serif" font-size="14" fill="#5d4037" text-anchor="middle" font-weight="bold">Grown over 5 years</text></svg>