<svg xmlns="http://www.w3.org/2000/svg" width="800" height="600" viewBox="0 0 800 600">
        <defs>
            <linearGradient id="sky" x1="0%" y1="0%" x2="0%" y2="100%">
                <stop offset="0%" style="stop-color:#e0f7fa;stop-opacity:1" />
                <stop offset="100%" style="stop-color:#ffffff;stop-opacity:1" />
            </linearGradient>
            <filter id="glow" x="-20%" y="-20%" width="140%" height="140%">
                <feGaussianBlur stdDeviation="2" result="coloredBlur"/>
                <feMerge>
                    <feMergeNode in="coloredBlur"/>
                    <feMergeNode in="SourceGraphic"/>
                </feMerge>
            </filter>
        </defs>
        <rect width="100%" height="100%" fill="url(#sky)"/><path d="M0,550 Q400,530 800,550 L800,600 L0,600 Z" stroke="#4e342e" stroke-width="0" fill="#5d4037" stroke-linecap="round" stroke-opacity="1.0" />
<path d="M0,550 Q400,530 800,550" stroke="none" stroke-width="0" fill="#76ff03" stroke-linecap="round" stroke-opacity="0.1" />
<path d="M400,550 Q390.5,470.0 381,390" stroke="#4e342e" stroke-width="35" fill="none" stroke-linecap="round" stroke-opacity="1.0" />
<path d="M381,430 Q464.80281690140845,410 532.9022910667061,359.1667983843053" stroke="#5d4037" stroke-width="8" fill="none" stroke-linecap="round" stroke-opacity="1.0" />
<circle cx="533.4671065162089" cy="369.13231896241325" r="16" fill="#66bb6a" fill-opacity="0.7" />
<circle cx="545.8371928481444" cy="341.588301875574" r="14" fill="#a5d6a7" fill-opacity="0.7" />
<circle cx="547.4972641860195" cy="361.32092618939146" r="15" fill="#66bb6a" fill-opacity="0.7" />
<circle cx="514.9217911375035" cy="391.7179506832539" r="9" fill="#43a047" fill-opacity="0.7" />
<circle cx="503.77317068044664" cy="368.9706594369226" r="15" fill="#a5d6a7" fill-opacity="0.7" />
<circle cx="566.0291366835262" cy="374.62740303534514" r="11" fill="#43a047" fill-opacity="0.7" />
<circle cx="519.2875082718181" cy="356.62266043075897" r="11" fill="#a5d6a7" fill-opacity="0.7" />
<circle cx="566.0271725973681" cy="379.88286015541007" r="10" fill="#66bb6a" fill-opacity="0.7" />
<circle cx="514.9603349504902" cy="360.07252672151543" r="11" fill="#66bb6a" fill-opacity="0.7" />
<circle cx="527.4883499929473" cy="349.0791012035181" r="15" fill="#66bb6a" fill-opacity="0.7" />
<circle cx="551.8303797589339" cy="363.18220986137896" r="9" fill="#66bb6a" fill-opacity="0.7" />
<circle cx="516.6879274113841" cy="392.61925930473717" r="11" fill="#2e7d32" fill-opacity="0.7" />
<path d="M381,415 Q316.7394366197183,395 326.68462481149464,298.520302018177" stroke="#5d4037" stroke-width="8" fill="none" stroke-linecap="round" stroke-opacity="1.0" />
<circle cx="328.6990381345315" cy="284.38625618702355" r="12" fill="#66bb6a" fill-opacity="0.7" />
<circle cx="325.3895982465226" cy="298.8335412990242" r="16" fill="#a5d6a7" fill-opacity="0.7" />
<circle cx="300.99846397754766" cy="309.5584776385007" r="16" fill="#a5d6a7" fill-opacity="0.7" />
<circle cx="347.54616891232905" cy="277.0178110989416" r="15" fill="#43a047" fill-opacity="0.7" />
<circle cx="315.1914997808946" cy="303.91480011936557" r="16" fill="#66bb6a" fill-opacity="0.7" />
<circle cx="338.18901676684675" cy="289.52563847027193" r="14" fill="#a5d6a7" fill-opacity="0.7" />
<circle cx="301.31665935354306" cy="309.28833831967563" r="11" fill="#66bb6a" fill-opacity="0.7" />
<circle cx="301.45845216229867" cy="273.1664399039172" r="9" fill="#2e7d32" fill-opacity="0.7" />
<circle cx="332.59571349699434" cy="285.6570169539854" r="8" fill="#66bb6a" fill-opacity="0.7" />
<circle cx="347.79413273607304" cy="280.7185847471613" r="14" fill="#a5d6a7" fill-opacity="0.7" />
<path d="M381,400 Q438.3943661971831,380 471.45475551964483,329.3289996633223" stroke="#5d4037" stroke-width="8" fill="none" stroke-linecap="round" stroke-opacity="1.0" />
<circle cx="489.1377750644577" cy="350.143096659822" r="9" fill="#2e7d32" fill-opacity="0.7" />
<circle cx="490.3068778152164" cy="320.80330023794596" r="11" fill="#43a047" fill-opacity="0.7" />
<circle cx="501.42283577156115" cy="335.15967653956955" r="13" fill="#2e7d32" fill-opacity="0.7" />
<circle cx="452.2572721867626" cy="321.36497957258956" r="13" fill="#2e7d32" fill-opacity="0.7" />
<circle cx="469.3661633771436" cy="356.8168205713295" r="15" fill="#66bb6a" fill-opacity="0.7" />
<circle cx="461.06194328338745" cy="314.53549843682765" r="16" fill="#a5d6a7" fill-opacity="0.7" />
<circle cx="467.8620016936379" cy="326.9050856194767" r="16" fill="#2e7d32" fill-opacity="0.7" />
<circle cx="453.5388013075137" cy="351.5283483704947" r="12" fill="#2e7d32" fill-opacity="0.7" />
<circle cx="501.62485602966257" cy="345.436589931171" r="14" fill="#66bb6a" fill-opacity="0.7" />
<circle cx="463.9498124390126" cy="344.515234981032" r="12" fill="#a5d6a7" fill-opacity="0.7" />
<path d="M381,385 Q324.1338028169014,365 292.6133290314783,313.42588510243047" stroke="#5d4037" stroke-width="8" fill="none" stroke-linecap="round" stroke-opacity="1.0" />
<circle cx="262.2563197013304" cy="298.3444404684778" r="16" fill="#43a047" fill-opacity="0.7" />
<circle cx="300.3242544676664" cy="318.70149448419085" r="9" fill="#66bb6a" fill-opacity="0.7" />
<circle cx="325.69577083530066" cy="321.63585377622866" r="12" fill="#66bb6a" fill-opacity="0.7" />
<circle cx="299.7615878877858" cy="307.29164033408205" r="10" fill="#43a047" fill-opacity="0.7" />
<circle cx="302.1871392603708" cy="313.23281873736124" r="8" fill="#a5d6a7" fill-opacity="0.7" />
<circle cx="283.4123595805512" cy="303.8173575231069" r="16" fill="#43a047" fill-opacity="0.7" />
<circle cx="269.53972031862895" cy="284.5384971330047" r="13" fill="#66bb6a" fill-opacity="0.7" />
<circle cx="267.8932283795456" cy="284.511171287145" r="11" fill="#2e7d32" fill-opacity="0.7" />
<circle cx="295.99935249920634" cy="331.4695082943302" r="10" fill="#a5d6a7" fill-opacity="0.7" />
<circle cx="324.9769875455364" cy="330.85099917797993" r="16" fill="#66bb6a" fill-opacity="0.7" />
<path d="M381,370 Q437.8661971830986,350 434.3941249224798,269.58025616428404" stroke="#5d4037" stroke-width="8" fill="none" stroke-linecap="round" stroke-opacity="1.0" />
<circle cx="401.8148450777642" cy="271.0966651114786" r="10" fill="#66bb6a" fill-opacity="0.7" />
<circle cx="412.3131666914564" cy="250.97402093426518" r="13" fill="#a5d6a7" fill-opacity="0.7" />
<circle cx="468.3588740376397" cy="237.83185203123412" r="8" fill="#66bb6a" fill-opacity="0.7" />
<circle cx="419.8533227634976" cy="300.1890418981015" r="12" fill="#66bb6a" fill-opacity="0.7" />
<circle cx="399.4446874555813" cy="299.2763225714903" r="8" fill="#66bb6a" fill-opacity="0.7" />
<circle cx="400.98091176489567" cy="303.14566818065157" r="13" fill="#2e7d32" fill-opacity="0.7" />
<circle cx="461.6114812966052" cy="283.38946957862447" r="10" fill="#66bb6a" fill-opacity="0.7" />
<circle cx="461.45438534783557" cy="294.550120095657" r="13" fill="#2e7d32" fill-opacity="0.7" />
<circle cx="410.0079269835376" cy="247.28245897210397" r="13" fill="#2e7d32" fill-opacity="0.7" />
<circle cx="415.2034066481083" cy="283.4198890730063" r="11" fill="#2e7d32" fill-opacity="0.7" />
<path d="M381,355 Q325.1901408450704,335 309.2522280737208,269.49433504622675" stroke="#5d4037" stroke-width="8" fill="none" stroke-linecap="round" stroke-opacity="1.0" />
<circle cx="281.26241180767556" cy="246.57346480032777" r="13" fill="#43a047" fill-opacity="0.7" />
<circle cx="298.14702322994043" cy="246.38327064733156" r="15" fill="#43a047" fill-opacity="0.7" />
<circle cx="283.5961823283711" cy="282.27317225365266" r="12" fill="#43a047" fill-opacity="0.7" />
<circle cx="329.79859812284695" cy="256.7173387690818" r="9" fill="#43a047" fill-opacity="0.7" />
<circle cx="277.4676051110017" cy="275.42561783709937" r="11" fill="#43a047" fill-opacity="0.7" />
<circle cx="311.82315402710293" cy="260.06919144005366" r="14" fill="#2e7d32" fill-opacity="0.7" />
<circle cx="288.78691973204684" cy="239.8207361090106" r="16" fill="#43a047" fill-opacity="0.7" />
<circle cx="274.6322158107582" cy="244.36277483752664" r="9" fill="#43a047" fill-opacity="0.7" />
<circle cx="284.9417137086047" cy="295.93271364638497" r="11" fill="#a5d6a7" fill-opacity="0.7" />
<circle cx="310.86330213080896" cy="286.7671296408445" r="13" fill="#66bb6a" fill-opacity="0.7" />
<text x="400" y="580" font-family="Segoe UI, Helvetica, Arial, sans-serif" font-size="20" fill="#3e2723" text-anchor="middle" font-weight="bold">@prithwiraj84's Contribution Garden</text>
<text x="400" y="595" font-family="Segoe UI, Helvetica, Arial, sans-serif" font-size="14" fill="#5d4037" text-anchor="middle" font-weight="bold">Grown over 5 years</text></svg>