<svg xmlns="http://www.w3.org/2000/svg" width="800" height="600" viewBox="0 0 800 600">
        <defs>
            <linearGradient id="sky" x1="0%" y1="0%" x2="0%" y2="100%">
                <stop offset="0%" style="stop-color:#e0f7fa;stop-opacity:1" />
                <stop offset="100%" style="stop-color:#ffffff;stop-opacity:1" />
            </linearGradient>
            <filter id="glow" x="-20%" y="-20%" width="140%" height="140%">
                <feGaussianBlur stdDeviation="2" result="coloredBlur"/>
                <feMerge>
                    <feMergeNode in="coloredBlur"/>
                    <feMergeNode in="SourceGraphic"/>
                </feMerge>
            </filter>
        </defs>
        <rect width="100%" height="100%" fill="url(#sky)"/><path d="M0,550 Q400,530 800,550 L800,600 L0,600 Z" stroke="#4e342e" stroke-width="0" fill="#5d4037" stroke-linecap="round" stroke-opacity="1.0" />
<path d="M0,550 Q400,530 800,550" stroke="none" stroke-width="0" fill="#76ff03" stroke-linecap="round" stroke-opacity="0.1" />
<path d="M400,550 Q404.0,470.0 408,390" stroke="#4e342e" stroke-width="35" fill="none" stroke-linecap="round" stroke-opacity="1.0" />
<path d="M408,430 Q481.54651162790697,410 520.6797930866869,335.4504271798288" stroke="#5d4037" stroke-width="8" fill="none" stroke-linecap="round" stroke-opacity="1.0" />
<circle cx="499.0940564423774" cy="351.35694274837124" r="15" fill="#a5d6a7" fill-opacity="0.7" />
<circle cx="488.3733524315588" cy="368.66646363101637" r="15" fill="#43a047" fill-opacity="0.7" />
<circle cx="551.3168319482592" cy="318.638949117053" r="10" fill="#66bb6a" fill-opacity="0.7" />
<circle cx="532.0149222101534" cy="301.4087838416444" r="9" fill="#43a047" fill-opacity="0.7" />
<circle cx="486.0414508704856" cy="359.40892282147513" r="12" fill="#a5d6a7" fill-opacity="0.7" />
<circle cx="530.5616894886537" cy="350.666585431203" r="11" fill="#66bb6a" fill-opacity="0.7" />
<circle cx="519.4950113797912" cy="324.21880547819876" r="15" fill="#43a047" fill-opacity="0.7" />
<circle cx="512.5278185083051" cy="347.4166424057486" r="14" fill="#43a047" fill-opacity="0.7" />
<circle cx="539.889750915826" cy="322.2494928146389" r="11" fill="#a5d6a7" fill-opacity="0.7" />
<circle cx="499.3380738376791" cy="327.07347739309716" r="14" fill="#2e7d32" fill-opacity="0.7" />
<path d="M408,415 Q338.8139534883721,395 294.65221712745347,335.6330279932855" stroke="#5d4037" stroke-width="8" fill="none" stroke-linecap="round" stroke-opacity="1.0" />
<circle cx="297.38434108973445" cy="329.70966733108395" r="9" fill="#43a047" fill-opacity="0.7" />
<circle cx="301.54005327579154" cy="338.98729892712436" r="13" fill="#2e7d32" fill-opacity="0.7" />
<circle cx="304.6036146337474" cy="335.18534388398524" r="15" fill="#2e7d32" fill-opacity="0.7" />
<circle cx="315.24635017017886" cy="341.24324046154413" r="15" fill="#43a047" fill-opacity="0.7" />
<circle cx="296.6964568060704" cy="308.9158482292311" r="16" fill="#a5d6a7" fill-opacity="0.7" />
<circle cx="303.64260688940726" cy="369.1527605107115" r="14" fill="#43a047" fill-opacity="0.7" />
<circle cx="285.0771600404838" cy="331.93201727633704" r="16" fill="#43a047" fill-opacity="0.7" />
<circle cx="307.51171374776476" cy="370.2572940703469" r="10" fill="#2e7d32" fill-opacity="0.7" />
<circle cx="265.62326073555886" cy="368.13090996161304" r="10" fill="#2e7d32" fill-opacity="0.7" />
<circle cx="316.3598213976002" cy="334.7362824888068" r="15" fill="#a5d6a7" fill-opacity="0.7" />
<path d="M408,400 Q469.33720930232556,380 478.3631558546923,299.5109992180365" stroke="#5d4037" stroke-width="8" fill="none" stroke-linecap="round" stroke-opacity="1.0" />
<circle cx="474.12119219695427" cy="293.1806824074118" r="16" fill="#43a047" fill-opacity="0.7" />
<circle cx="506.71839549326603" cy="294.08276159239483" r="12" fill="#66bb6a" fill-opacity="0.7" />
<circle cx="504.32163727082064" cy="271.3757391949854" r="8" fill="#a5d6a7" fill-opacity="0.7" />
<circle cx="468.4587722988352" cy="296.64799611620253" r="13" fill="#2e7d32" fill-opacity="0.7" />
<circle cx="480.8624142989968" cy="267.4534339069568" r="15" fill="#a5d6a7" fill-opacity="0.7" />
<circle cx="498.56674359672445" cy="290.6213570896726" r="9" fill="#66bb6a" fill-opacity="0.7" />
<circle cx="443.4253242557345" cy="280.69927099999603" r="13" fill="#a5d6a7" fill-opacity="0.7" />
<circle cx="462.3403874025825" cy="266.22704533151034" r="15" fill="#43a047" fill-opacity="0.7" />
<circle cx="491.8929278597823" cy="308.31315620887995" r="16" fill="#a5d6a7" fill-opacity="0.7" />
<circle cx="504.96969342219774" cy="266.526387879129" r="12" fill="#a5d6a7" fill-opacity="0.7" />
<path d="M408,385 Q347.5348837209302,365 300.2503738190811,330.0988232873106" stroke="#5d4037" stroke-width="8" fill="none" stroke-linecap="round" stroke-opacity="1.0" />
<circle cx="324.6003146491093" cy="331.6777605528893" r="12" fill="#66bb6a" fill-opacity="0.7" />
<circle cx="321.1845550444889" cy="312.82033854247817" r="9" fill="#a5d6a7" fill-opacity="0.7" />
<circle cx="292.75451815595176" cy="335.4426205456514" r="16" fill="#66bb6a" fill-opacity="0.7" />
<circle cx="335.0357316254909" cy="354.628342203616" r="14" fill="#2e7d32" fill-opacity="0.7" />
<circle cx="291.4013513795681" cy="359.2399536965209" r="16" fill="#2e7d32" fill-opacity="0.7" />
<circle cx="284.0061040692556" cy="358.07158054362355" r="16" fill="#43a047" fill-opacity="0.7" />
<circle cx="307.2209559669041" cy="353.48551948976376" r="16" fill="#66bb6a" fill-opacity="0.7" />
<circle cx="312.7417645601062" cy="324.8557590330964" r="9" fill="#66bb6a" fill-opacity="0.7" />
<circle cx="319.56230441890534" cy="319.279599267847" r="16" fill="#a5d6a7" fill-opacity="0.7" />
<circle cx="286.09529360540273" cy="345.53952293460344" r="11" fill="#66bb6a" fill-opacity="0.7" />
<path d="M408,370 Q464.9767441860465,350 499.0073023077148,301.4210787570922" stroke="#5d4037" stroke-width="8" fill="none" stroke-linecap="round" stroke-opacity="1.0" />
<circle cx="471.76591049169093" cy="330.5427563509355" r="8" fill="#66bb6a" fill-opacity="0.7" />
<circle cx="484.4650952220427" cy="267.31976849246183" r="14" fill="#a5d6a7" fill-opacity="0.7" />
<circle cx="525.1599984304974" cy="333.59422090241395" r="9" fill="#a5d6a7" fill-opacity="0.7" />
<circle cx="489.08590498337077" cy="311.81860878855406" r="12" fill="#66bb6a" fill-opacity="0.7" />
<circle cx="511.00028228225915" cy="286.59263504471613" r="10" fill="#43a047" fill-opacity="0.7" />
<circle cx="530.3331354159429" cy="295.1672554352538" r="11" fill="#66bb6a" fill-opacity="0.7" />
<circle cx="495.5652658226293" cy="281.31039367513284" r="11" fill="#a5d6a7" fill-opacity="0.7" />
<circle cx="531.5273381201868" cy="320.9611534226349" r="8" fill="#66bb6a" fill-opacity="0.7" />
<circle cx="484.6627245544446" cy="313.01198950047353" r="12" fill="#a5d6a7" fill-opacity="0.7" />
<circle cx="508.47414960943547" cy="312.59731185381145" r="10" fill="#2e7d32" fill-opacity="0.7" />
<path d="M408,355 Q354.51162790697674,335 311.84993923311237,308.104481971401" stroke="#5d4037" stroke-width="8" fill="none" stroke-linecap="round" stroke-opacity="1.0" />
<circle cx="332.54096803498214" cy="289.8322483211985" r="12" fill="#2e7d32" fill-opacity="0.7" />
<circle cx="302.9033623495552" cy="289.3577566938077" r="15" fill="#a5d6a7" fill-opacity="0.7" />
<circle cx="303.103561081415" cy="285.66997042815893" r="14" fill="#2e7d32" fill-opacity="0.7" />
<circle cx="339.420159992793" cy="341.07811589034634" r="13" fill="#2e7d32" fill-opacity="0.7" />
<circle cx="340.3849574253848" cy="306.551373305886" r="13" fill="#a5d6a7" fill-opacity="0.7" />
<circle cx="296.45160017726903" cy="316.77256500519366" r="8" fill="#a5d6a7" fill-opacity="0.7" />
<circle cx="279.5352657241543" cy="341.3155939779565" r="15" fill="#66bb6a" fill-opacity="0.7" />
<circle cx="295.96497258375445" cy="281.2423141157272" r="10" fill="#66bb6a" fill-opacity="0.7" />
<circle cx="281.5498823039165" cy="315.08043858593396" r="9" fill="#66bb6a" fill-opacity="0.7" />
<circle cx="319.7215871160849" cy="309.15645462505756" r="10" fill="#66bb6a" fill-opacity="0.7" />
<text x="400" y="580" font-family="Segoe UI, Helvetica, Arial, sans-serif" font-size="20" fill="#3e2723" text-anchor="middle" font-weight="bold">@prithwiraj84's Contribution Garden</text>
<text x="400" y="595" font-family="Segoe UI, Helvetica, Arial, sans-serif" font-size="14" fill="#5d4037" text-anchor="middle" font-weight="bold">Grown over 5 years</text></svg>